<svg xmlns="http://www.w3.org/2000/svg" xmlns:xlink="http://www.w3.org/1999/xlink" width="115" zoomAndPan="magnify" viewBox="0 0 86.25 30.000001" height="40" preserveAspectRatio="xMidYMid meet" version="1.0"><defs><g/><clipPath id="0c6a928a04"><path d="M 1.128906 12.332031 L 15.644531 12.332031 L 15.644531 29 L 1.128906 29 Z M 1.128906 12.332031 " clip-rule="nonzero"/></clipPath><clipPath id="4804f3e7ff"><path d="M 8.34375 0 L 22.859375 0 L 22.859375 16.695312 L 8.34375 16.695312 Z M 8.34375 0 " clip-rule="nonzero"/></clipPath><clipPath id="591b789dbf"><path d="M 15.757812 12.332031 L 30.277344 12.332031 L 30.277344 29 L 15.757812 29 Z M 15.757812 12.332031 " clip-rule="nonzero"/></clipPath></defs><g fill="#ffffff" fill-opacity="1"><g transform="translate(38.561172, 11.75823)"><g><path d="M 4.453125 0 L 4.453125 -2.15625 L 2.4375 -2.15625 L 2.4375 0 L 0.609375 0 L 0.609375 -5.703125 L 2.4375 -5.703125 L 2.4375 -3.625 L 4.453125 -3.625 L 4.453125 -5.703125 L 6.28125 -5.703125 L 6.28125 0 Z M 4.453125 0 "/></g></g></g><g fill="#ffffff" fill-opacity="1"><g transform="translate(45.891716, 11.75823)"><g><path d="M 2.75 -4.46875 C 3.519531 -4.46875 4.125 -4.269531 4.5625 -3.875 C 5 -3.488281 5.21875 -2.925781 5.21875 -2.1875 C 5.21875 -1.4375 5 -0.867188 4.5625 -0.484375 C 4.125 -0.0976562 3.519531 0.09375 2.75 0.09375 C 1.988281 0.09375 1.390625 -0.0976562 0.953125 -0.484375 C 0.515625 -0.867188 0.296875 -1.4375 0.296875 -2.1875 C 0.296875 -2.9375 0.515625 -3.503906 0.953125 -3.890625 C 1.390625 -4.273438 1.988281 -4.46875 2.75 -4.46875 Z M 2.75 -3.359375 C 2.21875 -3.359375 1.953125 -3.046875 1.953125 -2.421875 L 1.953125 -1.953125 C 1.953125 -1.328125 2.21875 -1.015625 2.75 -1.015625 C 3.300781 -1.015625 3.578125 -1.328125 3.578125 -1.953125 L 3.578125 -2.421875 C 3.578125 -3.046875 3.300781 -3.359375 2.75 -3.359375 Z M 2.75 -3.359375 "/></g></g></g><g fill="#ffffff" fill-opacity="1"><g transform="translate(51.848822, 11.75823)"><g><path d="M 2.578125 -4.46875 C 3.160156 -4.46875 3.65625 -4.351562 4.0625 -4.125 C 4.46875 -3.894531 4.671875 -3.539062 4.671875 -3.0625 L 3.140625 -3.0625 C 3.140625 -3.21875 3.066406 -3.332031 2.921875 -3.40625 C 2.828125 -3.457031 2.703125 -3.484375 2.546875 -3.484375 C 2.148438 -3.484375 1.953125 -3.390625 1.953125 -3.203125 C 1.953125 -3.097656 2.019531 -3.023438 2.15625 -2.984375 C 2.300781 -2.941406 2.53125 -2.894531 2.84375 -2.84375 C 3.226562 -2.78125 3.550781 -2.710938 3.8125 -2.640625 C 4.070312 -2.566406 4.296875 -2.4375 4.484375 -2.25 C 4.679688 -2.0625 4.78125 -1.796875 4.78125 -1.453125 C 4.78125 -0.890625 4.570312 -0.488281 4.15625 -0.25 C 3.738281 -0.0195312 3.191406 0.09375 2.515625 0.09375 C 2.128906 0.09375 1.765625 0.0390625 1.421875 -0.0625 C 1.078125 -0.164062 0.796875 -0.332031 0.578125 -0.5625 C 0.367188 -0.789062 0.265625 -1.078125 0.265625 -1.421875 L 1.796875 -1.421875 L 1.796875 -1.390625 C 1.804688 -1.203125 1.882812 -1.070312 2.03125 -1 C 2.1875 -0.925781 2.347656 -0.890625 2.515625 -0.890625 C 2.972656 -0.890625 3.203125 -0.992188 3.203125 -1.203125 C 3.203125 -1.316406 3.128906 -1.398438 2.984375 -1.453125 C 2.847656 -1.503906 2.613281 -1.554688 2.28125 -1.609375 C 1.894531 -1.671875 1.570312 -1.738281 1.3125 -1.8125 C 1.0625 -1.894531 0.84375 -2.03125 0.65625 -2.21875 C 0.46875 -2.40625 0.375 -2.660156 0.375 -2.984375 C 0.375 -3.523438 0.578125 -3.90625 0.984375 -4.125 C 1.390625 -4.351562 1.921875 -4.46875 2.578125 -4.46875 Z M 2.578125 -4.46875 "/></g></g></g><g fill="#ffffff" fill-opacity="1"><g transform="translate(57.342592, 11.75823)"><g><path d="M 3.40625 -4.375 L 3.40625 -3.25 L 2.484375 -3.25 L 2.484375 -1.59375 C 2.484375 -1.394531 2.515625 -1.25 2.578125 -1.15625 C 2.648438 -1.0625 2.773438 -1.015625 2.953125 -1.015625 L 3.40625 -1.015625 L 3.40625 -0.046875 C 3.28125 -0.00390625 3.109375 0.0234375 2.890625 0.046875 C 2.679688 0.078125 2.503906 0.09375 2.359375 0.09375 C 1.867188 0.09375 1.492188 0.00390625 1.234375 -0.171875 C 0.972656 -0.347656 0.84375 -0.644531 0.84375 -1.0625 L 0.84375 -3.25 L 0.21875 -3.25 L 0.21875 -4.375 L 0.90625 -4.375 L 1.265625 -5.703125 L 2.484375 -5.703125 L 2.484375 -4.375 Z M 3.40625 -4.375 "/></g></g></g><g fill="#ffffff" fill-opacity="1"><g transform="translate(61.454645, 11.75823)"><g/></g></g><g fill="#ffffff" fill-opacity="1"><g transform="translate(64.648318, 11.75823)"><g><path d="M 5.5 0 L 5.5 -2.046875 C 5.5 -2.304688 5.507812 -2.566406 5.53125 -2.828125 C 5.550781 -3.097656 5.570312 -3.320312 5.59375 -3.5 C 5.613281 -3.6875 5.628906 -3.804688 5.640625 -3.859375 L 5.609375 -3.859375 L 4.546875 0 L 3.125 0 L 2.0625 -3.84375 L 2.03125 -3.84375 C 2.03125 -3.800781 2.039062 -3.6875 2.0625 -3.5 C 2.09375 -3.320312 2.117188 -3.097656 2.140625 -2.828125 C 2.160156 -2.566406 2.171875 -2.304688 2.171875 -2.046875 L 2.171875 0 L 0.5 0 L 0.5 -5.703125 L 3.078125 -5.703125 L 3.9375 -2.40625 L 3.96875 -2.40625 L 4.828125 -5.703125 L 7.328125 -5.703125 L 7.328125 0 Z M 5.5 0 "/></g></g></g><g fill="#ffffff" fill-opacity="1"><g transform="translate(72.897255, 11.75823)"><g><path d="M 3.5 -0.125 C 3.269531 0.476562 2.988281 0.9375 2.65625 1.25 C 2.332031 1.570312 1.878906 1.734375 1.296875 1.734375 C 0.929688 1.734375 0.613281 1.6875 0.34375 1.59375 L 0.34375 0.609375 L 1 0.609375 C 1.414062 0.609375 1.660156 0.40625 1.734375 0 L 0 -4.375 L 1.765625 -4.375 L 2.609375 -1.46875 L 2.671875 -1.46875 L 3.4375 -4.375 L 5.0625 -4.375 Z M 3.5 -0.125 "/></g></g></g><g fill="#ffffff" fill-opacity="1"><g transform="translate(45.876073, 22.789833)"><g><path d="M 4.6875 0 L 2.296875 -2.765625 L 2.296875 0 L 0.609375 0 L 0.609375 -5.703125 L 2.21875 -5.703125 L 4.609375 -2.890625 L 4.609375 -5.703125 L 6.28125 -5.703125 L 6.28125 0 Z M 4.6875 0 "/></g></g></g><g fill="#ffffff" fill-opacity="1"><g transform="translate(53.206617, 22.789833)"><g><path d="M 2.75 -4.46875 C 3.519531 -4.46875 4.125 -4.269531 4.5625 -3.875 C 5 -3.488281 5.21875 -2.925781 5.21875 -2.1875 C 5.21875 -1.4375 5 -0.867188 4.5625 -0.484375 C 4.125 -0.0976562 3.519531 0.09375 2.75 0.09375 C 1.988281 0.09375 1.390625 -0.0976562 0.953125 -0.484375 C 0.515625 -0.867188 0.296875 -1.4375 0.296875 -2.1875 C 0.296875 -2.9375 0.515625 -3.503906 0.953125 -3.890625 C 1.390625 -4.273438 1.988281 -4.46875 2.75 -4.46875 Z M 2.75 -3.359375 C 2.21875 -3.359375 1.953125 -3.046875 1.953125 -2.421875 L 1.953125 -1.953125 C 1.953125 -1.328125 2.21875 -1.015625 2.75 -1.015625 C 3.300781 -1.015625 3.578125 -1.328125 3.578125 -1.953125 L 3.578125 -2.421875 C 3.578125 -3.046875 3.300781 -3.359375 2.75 -3.359375 Z M 2.75 -3.359375 "/></g></g></g><g fill="#ffffff" fill-opacity="1"><g transform="translate(59.163723, 22.789833)"><g><path d="M 3.671875 0 L 3.53125 -0.625 C 3.21875 -0.144531 2.753906 0.09375 2.140625 0.09375 C 1.554688 0.09375 1.101562 -0.0976562 0.78125 -0.484375 C 0.457031 -0.867188 0.296875 -1.4375 0.296875 -2.1875 C 0.296875 -2.945312 0.457031 -3.515625 0.78125 -3.890625 C 1.101562 -4.273438 1.554688 -4.46875 2.140625 -4.46875 C 2.640625 -4.46875 3.050781 -4.300781 3.375 -3.96875 L 3.375 -6 L 5.015625 -6 L 5.015625 0 Z M 2.65625 -3.25 C 2.1875 -3.25 1.953125 -2.96875 1.953125 -2.40625 L 1.953125 -1.96875 C 1.953125 -1.40625 2.1875 -1.125 2.65625 -1.125 C 2.894531 -1.125 3.078125 -1.207031 3.203125 -1.375 C 3.328125 -1.539062 3.390625 -1.765625 3.390625 -2.046875 L 3.390625 -2.3125 C 3.390625 -2.59375 3.328125 -2.816406 3.203125 -2.984375 C 3.078125 -3.160156 2.894531 -3.25 2.65625 -3.25 Z M 2.65625 -3.25 "/></g></g></g><g fill="#ffffff" fill-opacity="1"><g transform="translate(65.120829, 22.789833)"><g><path d="M 2.75 -4.46875 C 3.550781 -4.46875 4.160156 -4.28125 4.578125 -3.90625 C 5.003906 -3.53125 5.21875 -2.957031 5.21875 -2.1875 L 5.21875 -1.90625 L 1.953125 -1.90625 C 1.953125 -1.59375 2.019531 -1.351562 2.15625 -1.1875 C 2.300781 -1.03125 2.523438 -0.953125 2.828125 -0.953125 C 3.097656 -0.953125 3.296875 -1.007812 3.421875 -1.125 C 3.554688 -1.238281 3.625 -1.394531 3.625 -1.59375 L 5.21875 -1.59375 C 5.21875 -1.0625 5.015625 -0.644531 4.609375 -0.34375 C 4.210938 -0.0507812 3.628906 0.09375 2.859375 0.09375 C 2.046875 0.09375 1.414062 -0.09375 0.96875 -0.46875 C 0.519531 -0.84375 0.296875 -1.414062 0.296875 -2.1875 C 0.296875 -2.9375 0.515625 -3.503906 0.953125 -3.890625 C 1.390625 -4.273438 1.988281 -4.46875 2.75 -4.46875 Z M 2.828125 -3.421875 C 2.304688 -3.421875 2.015625 -3.175781 1.953125 -2.6875 L 3.5625 -2.6875 C 3.5625 -2.90625 3.492188 -3.082031 3.359375 -3.21875 C 3.234375 -3.351562 3.054688 -3.421875 2.828125 -3.421875 Z M 2.828125 -3.421875 "/></g></g></g><g clip-path="url(#0c6a928a04)"><path fill="#1062fe" d="M 1.1875 17.117188 L 3.042969 18.183594 L 3.042969 26.046875 L 1.183594 24.980469 Z M 3.289062 15.472656 L 5.148438 16.539062 L 3.433594 17.523438 L 1.570312 16.457031 Z M 5.867188 13.992188 L 7.730469 15.058594 L 5.917969 16.097656 L 4.058594 15.03125 Z M 12.742188 15 L 10.953125 16.027344 L 9.261719 15.058594 L 11.054688 14.035156 Z M 15.285156 16.457031 L 13.496094 17.484375 L 11.722656 16.464844 L 13.507812 15.441406 Z M 10.914062 18.964844 L 9.140625 17.945312 L 10.953125 16.90625 L 12.726562 17.925781 Z M 10.144531 19.40625 L 8.425781 20.390625 L 6.652344 19.371094 L 8.371094 18.386719 Z M 5.882812 18.933594 L 4.195312 17.964844 L 5.917969 16.980469 L 7.609375 17.949219 Z M 3.8125 18.628906 L 5.480469 19.585938 L 5.480469 27.441406 L 3.8125 26.484375 Z M 6.25 20.027344 L 8.042969 21.046875 L 8.042969 28.910156 L 6.25 27.882812 Z M 8.8125 23.996094 L 15.667969 20.066406 L 15.667969 22.125 L 8.8125 26.054688 Z M 15.667969 19.1875 L 8.8125 23.117188 L 8.8125 21.046875 L 11.007812 19.789062 C 11.09375 19.773438 11.167969 19.730469 11.226562 19.664062 L 13.585938 18.308594 C 13.671875 18.292969 13.746094 18.253906 13.804688 18.1875 L 15.667969 17.121094 Z M 10.183594 16.464844 L 8.371094 17.503906 L 6.683594 16.539062 L 8.496094 15.5 Z M 8.8125 28.910156 L 8.8125 26.9375 L 15.667969 23.007812 L 15.667969 24.980469 Z M 8.425781 12.527344 L 10.289062 13.59375 L 8.496094 14.617188 L 6.636719 13.550781 Z M 8.425781 12.527344 " fill-opacity="1" fill-rule="nonzero"/></g><g clip-path="url(#4804f3e7ff)"><path fill="#1062fe" d="M 22.804688 11.910156 L 20.945312 10.84375 L 20.945312 2.980469 L 22.804688 4.046875 Z M 20.699219 13.554688 L 18.839844 12.488281 L 20.554688 11.503906 L 22.417969 12.570312 Z M 18.121094 15.035156 L 16.257812 13.96875 L 18.070312 12.929688 L 19.933594 13.996094 Z M 11.246094 14.027344 L 13.039062 13 L 14.726562 13.96875 L 12.933594 14.992188 Z M 8.703125 12.570312 L 10.492188 11.542969 L 12.269531 12.5625 L 10.480469 13.585938 Z M 13.074219 10.0625 L 14.851562 11.078125 L 13.039062 12.121094 L 11.261719 11.101562 Z M 13.84375 9.621094 L 15.5625 8.636719 L 17.335938 9.65625 L 15.617188 10.640625 Z M 18.105469 10.09375 L 19.792969 11.0625 L 18.070312 12.046875 L 16.382812 11.078125 Z M 20.179688 10.398438 L 18.507812 9.441406 L 18.507812 1.585938 L 20.175781 2.542969 Z M 17.738281 9 L 15.945312 7.976562 L 15.945312 0.117188 L 17.738281 1.144531 Z M 15.179688 5.03125 L 8.320312 8.960938 L 8.320312 6.898438 L 15.179688 2.96875 Z M 8.320312 9.839844 L 15.179688 5.910156 L 15.179688 7.976562 L 12.980469 9.238281 C 12.894531 9.253906 12.824219 9.296875 12.765625 9.363281 L 10.402344 10.71875 C 10.316406 10.734375 10.242188 10.773438 10.1875 10.839844 L 8.320312 11.90625 Z M 13.804688 12.5625 L 15.617188 11.519531 L 17.308594 12.488281 L 15.496094 13.527344 Z M 15.179688 0.117188 L 15.179688 2.089844 L 8.320312 6.019531 L 8.320312 4.046875 Z M 15.5625 16.5 L 13.699219 15.433594 L 15.492188 14.410156 L 17.355469 15.476562 Z M 15.5625 16.5 " fill-opacity="1" fill-rule="nonzero"/></g><g clip-path="url(#591b789dbf)"><path fill="#1062fe" d="M 15.816406 17.117188 L 17.671875 18.183594 L 17.671875 26.046875 L 15.8125 24.980469 Z M 17.917969 15.472656 L 19.78125 16.539062 L 18.0625 17.523438 L 16.199219 16.457031 Z M 20.496094 13.992188 L 22.359375 15.058594 L 20.546875 16.097656 L 18.6875 15.03125 Z M 27.371094 15 L 25.582031 16.027344 L 23.890625 15.058594 L 25.6875 14.035156 Z M 29.914062 16.457031 L 28.125 17.484375 L 26.351562 16.464844 L 28.136719 15.441406 Z M 25.542969 18.964844 L 23.769531 17.945312 L 25.582031 16.90625 L 27.355469 17.925781 Z M 24.773438 19.40625 L 23.054688 20.390625 L 21.28125 19.371094 L 23 18.386719 Z M 20.515625 18.933594 L 18.824219 17.964844 L 20.546875 16.980469 L 22.238281 17.949219 Z M 18.441406 18.628906 L 20.113281 19.585938 L 20.113281 27.441406 L 18.441406 26.484375 Z M 20.878906 20.027344 L 22.671875 21.046875 L 22.671875 28.910156 L 20.878906 27.882812 Z M 23.441406 23.996094 L 30.296875 20.066406 L 30.296875 22.125 L 23.441406 26.054688 Z M 30.296875 19.1875 L 23.441406 23.117188 L 23.441406 21.046875 L 25.636719 19.789062 C 25.722656 19.773438 25.796875 19.730469 25.855469 19.664062 L 28.214844 18.308594 C 28.304688 18.292969 28.375 18.253906 28.433594 18.1875 L 30.300781 17.121094 Z M 24.8125 16.464844 L 23 17.503906 L 21.3125 16.539062 L 23.125 15.5 Z M 23.441406 28.910156 L 23.441406 26.9375 L 30.296875 23.007812 L 30.296875 24.980469 Z M 23.054688 12.527344 L 24.917969 13.59375 L 23.125 14.617188 L 21.265625 13.550781 Z M 23.054688 12.527344 " fill-opacity="1" fill-rule="nonzero"/></g></svg>