<svg width="295" height="81" viewBox="0 0 295 81" fill="none" xmlns="http://www.w3.org/2000/svg">
<ellipse cx="40" cy="40.6926" rx="40" ry="40" fill="url(#paint0_linear_1227_250)"/>
<path d="M34.9553 32.8959L47.8269 32.864C47.8885 32.8642 47.9487 32.8443 47.9987 32.8071C48.0487 32.7699 48.086 32.7174 48.1052 32.6571L50.9979 23.2033L53.3808 15.3696C53.4392 15.185 53.5632 15.0927 53.753 15.0927L64.1572 15.099H64.4542C64.7649 15.099 64.8681 15.2476 64.7638 15.5447L59.3037 31.4507L56.3235 40.1247C56.3133 40.1551 56.3104 40.1876 56.3151 40.2193C56.3198 40.2511 56.3319 40.2811 56.3504 40.3068C56.3689 40.3326 56.3932 40.3532 56.4212 40.3669C56.4492 40.3807 56.4801 40.3872 56.5111 40.3858C58.352 40.3285 60.1804 40.3677 61.9963 40.5035C62.0403 40.5066 62.0831 40.5204 62.1209 40.5436C62.1587 40.5669 62.1905 40.599 62.2138 40.6372C62.237 40.6755 62.2509 40.7188 62.2544 40.7637C62.2579 40.8085 62.2509 40.8535 62.2339 40.8951L58.8534 49.2348L55.1102 58.485C54.1866 60.7323 53.2787 62.9849 52.3864 65.2428C52.2092 65.6884 51.8652 65.9049 51.3544 65.8921L43.1361 65.8539C43.1051 65.8538 43.0745 65.846 43.0471 65.8313C43.0196 65.8167 42.996 65.7955 42.9782 65.7696C42.9605 65.7437 42.949 65.7139 42.945 65.6826C42.9409 65.6513 42.9442 65.6194 42.9547 65.5897L47.0013 54.1496L51.542 41.2516C50.2765 41.2049 49.0955 41.1741 47.9989 41.1593C41.6132 41.0701 35.2076 41.0797 28.7822 41.1879C28.7528 41.1882 28.7238 41.1956 28.6977 41.2096C28.6716 41.2236 28.6492 41.2438 28.6324 41.2684C28.6156 41.293 28.6048 41.3214 28.6009 41.3511C28.597 41.3809 28.6003 41.4111 28.6102 41.4394L32.0095 51.1511L37.1319 65.6375C37.141 65.662 37.1439 65.6885 37.1406 65.7145C37.1372 65.7405 37.1276 65.7654 37.1125 65.787C37.0974 65.8086 37.0774 65.8262 37.0541 65.8384C37.0308 65.8507 37.0049 65.8571 36.9786 65.8571L28.2193 65.8826C28.1331 65.8825 28.0488 65.8564 27.977 65.8077C27.9052 65.759 27.8492 65.6898 27.8159 65.6088L24.8764 58.3991L19.2974 44.6511L17.7557 40.72C17.7447 40.6915 17.7405 40.6607 17.7436 40.6302C17.7467 40.5997 17.757 40.5704 17.7735 40.5448C17.7901 40.5192 17.8125 40.4981 17.8388 40.4831C17.8651 40.4682 17.8945 40.4599 17.9246 40.459L23.6005 40.338C23.6139 40.3376 23.627 40.3341 23.6389 40.3277C23.6507 40.3213 23.661 40.3122 23.6689 40.3011C23.6767 40.29 23.682 40.2773 23.6842 40.2638C23.6864 40.2503 23.6856 40.2365 23.6818 40.2234C23.344 39.1475 22.9729 38.0207 22.5685 36.8429C19.9896 29.3286 17.5379 22.1613 15.2133 15.3409C15.2038 15.314 15.2009 15.2852 15.2048 15.2568C15.2088 15.2285 15.2195 15.2015 15.2361 15.178C15.2526 15.1546 15.2746 15.1355 15.3 15.1223C15.3254 15.1091 15.3536 15.1022 15.3822 15.1022L26.3649 15.1054C26.4364 15.1062 26.5058 15.13 26.5631 15.1735C26.6204 15.2169 26.6627 15.2778 26.6839 15.3473L31.9188 32.6985C31.9522 32.8067 32.0241 32.8619 32.1346 32.864L34.9553 32.8959Z" fill="white"/>
<path d="M294.468 51.4283H288.914C286.877 51.4283 284.979 50.6414 283.591 49.2529C282.156 47.818 281.415 45.9666 281.415 43.93V35.1357H278.453V30.3683H281.415V22.0369H286.923V30.3683H293.079V35.1357H286.923V43.8374C286.923 44.9946 287.942 46.0591 288.96 46.0591H292.987L294.468 51.4283Z" fill="white"/>
<path d="M275.355 51.4283H269.523V40.0883C269.523 37.5889 267.533 35.6449 265.033 35.6449C262.626 35.6449 260.544 37.6351 260.544 40.0883V51.4283H254.758V30.2294H260.544V31.7569C261.978 30.322 263.506 29.8129 265.033 29.8129C267.81 29.8129 270.402 30.8774 272.346 32.7752C274.29 34.7654 275.355 37.3574 275.355 40.0883V51.4283Z" fill="white"/>
<path d="M240.697 51.9375H240.65C239.308 51.9375 237.92 51.6135 236.624 51.0117C235.42 50.5026 234.309 49.6695 233.291 48.6049C231.671 46.846 230.699 44.5317 230.468 42.1249C230.421 41.7083 230.375 41.2917 230.375 40.8289C230.375 39.9032 230.514 38.9312 230.745 37.9592C231.162 36.1077 232.041 34.3952 233.291 33.0992C234.217 32.0809 235.281 31.294 236.624 30.646C237.873 30.0443 239.262 29.7666 240.697 29.7666C242.178 29.7666 243.52 30.0443 244.77 30.646C246.158 31.294 247.269 32.1272 248.102 33.0992C249.306 34.3952 250.232 36.0615 250.694 37.9592C250.926 38.8386 251.018 39.7643 251.018 40.8289C251.018 41.1992 251.018 41.5695 251.018 41.8935H235.466L235.513 42.2175C236.114 45.0872 238.29 47.17 240.697 47.17H240.743C242.085 47.0775 243.566 46.2443 244.446 45.5037L244.955 45.0872L248.797 48.4197L248.102 49.0215C247.593 49.4843 246.945 50.0397 246.251 50.41H246.205C244.538 51.382 242.733 51.8912 240.697 51.9375ZM240.697 34.5803C238.892 34.5803 237.086 35.83 236.114 37.774L235.929 38.1443H245.51L245.325 37.774C244.261 35.7837 242.502 34.5803 240.697 34.5803Z" fill="white"/>
<path d="M218.109 51.8912C215.147 51.8912 212.37 50.734 210.287 48.6975L210.241 48.6512C208.204 46.5683 207.047 43.7912 207.047 40.8289C207.047 37.8666 208.204 35.0432 210.241 32.9603C212.323 30.9237 215.101 29.7666 218.109 29.7666C221.164 29.7666 223.941 30.8775 225.931 32.9603C226.394 33.4232 226.765 33.8397 227.089 34.2563L227.644 35.0895L223.108 38.4683L222.46 37.5889C221.349 36.1077 219.729 35.182 218.109 35.182C215.193 35.182 212.694 37.774 212.694 40.8289C212.694 43.8837 215.193 46.4757 218.109 46.4757C219.729 46.4757 221.349 45.55 222.46 43.9763L223.062 43.1432L227.783 46.522L227.089 47.4015C226.996 47.5403 226.857 47.6792 226.718 47.818C226.487 48.0957 226.209 48.4197 225.931 48.6975C223.895 50.734 221.118 51.8912 218.109 51.8912Z" fill="white"/>
<path d="M198.277 51.4283H192.445V30.2295H198.277V31.942C199.944 30.2758 202.443 29.7203 204.109 29.7203H205.498L204.109 35.506H203.23C200.499 35.506 198.277 37.6352 198.277 40.1809V51.4283Z" fill="white"/>
<path d="M178.095 51.9375H178.049C176.707 51.9375 175.318 51.6135 174.022 51.0117C172.819 50.5026 171.708 49.6695 170.689 48.6049C169.069 46.846 168.097 44.5317 167.866 42.1249C167.82 41.7083 167.773 41.2917 167.773 40.8289C167.773 39.9032 167.912 38.9312 168.144 37.9592C168.56 36.1077 169.44 34.3952 170.689 33.0992C171.615 32.0809 172.68 31.294 174.022 30.646C175.272 30.0443 176.66 29.7666 178.095 29.7666C179.576 29.7666 180.919 30.0443 182.168 30.646C183.557 31.294 184.668 32.1272 185.501 33.0992C186.704 34.3952 187.63 36.0615 188.093 37.9592C188.324 38.8386 188.417 39.7643 188.417 40.8289C188.417 41.1992 188.417 41.5695 188.417 41.8935H172.865L172.911 42.2175C173.513 45.0872 175.688 47.17 178.095 47.17H178.141C179.484 47.0775 180.965 46.2443 181.844 45.5037L182.353 45.0872L186.195 48.4197L185.501 49.0215C184.992 49.4843 184.344 50.0397 183.649 50.41H183.603C181.937 51.382 180.132 51.8912 178.095 51.9375ZM178.095 34.5803C176.29 34.5803 174.485 35.83 173.513 37.774L173.328 38.1443H182.909L182.724 37.774C181.659 35.7837 179.9 34.5803 178.095 34.5803Z" fill="white"/>
<path d="M153.765 29.8129C156.681 29.8129 159.459 30.9237 161.588 33.0066C163.671 35.1357 164.828 37.9129 164.828 40.8289C164.828 43.7449 163.671 46.522 161.588 48.6511C159.505 50.734 156.728 51.8449 153.765 51.8449C151.821 51.8449 150.063 51.1506 148.535 49.762L148.304 49.5769V63.7403H142.703V30.2294H148.304V31.8957L148.535 31.6643C150.201 30.0443 152.099 29.8129 153.765 29.8129ZM153.765 46.4294C156.728 46.4294 159.227 43.8374 159.227 40.8289C159.227 37.774 156.728 35.2283 153.765 35.2283C150.803 35.2283 148.304 37.774 148.304 40.8289C148.304 43.8374 150.803 46.4294 153.765 46.4294Z" fill="white"/>
<path d="M125.676 63.7402H119.613L124.658 51.4745L116.188 30.2294H122.39L127.666 43.4208L133.036 30.2294H139.192L125.676 63.7402Z" fill="white"/>
<path d="M114.886 51.4283H109.054V40.0883C109.054 37.5889 107.064 35.6449 104.564 35.6449C102.158 35.6449 100.075 37.6352 100.075 40.0883V51.4283H94.2891V17.4546H100.075V31.7569C101.51 30.322 103.037 29.8129 104.564 29.8129C107.342 29.8129 109.934 30.8774 111.878 32.7752C113.822 34.7654 114.886 37.3574 114.886 40.0883V51.4283Z" fill="white"/>
<defs>
<linearGradient id="paint0_linear_1227_250" x1="16.1905" y1="7.93072" x2="60.7619" y2="75.1688" gradientUnits="userSpaceOnUse">
<stop stop-color="#EA018B"/>
<stop offset="1" stop-color="#7C1E8F"/>
</linearGradient>
</defs>
</svg>
