<svg width="298" height="130" viewBox="0 0 298 130" fill="none" xmlns="http://www.w3.org/2000/svg">
<g filter="url(#filter0_d_1227_251)">
<path d="M61.5234 18.9775C61.5234 18.3165 61.2608 17.6827 60.7934 17.2153C60.3261 16.7479 59.6922 16.4854 59.0312 16.4854C58.3702 16.4854 57.7364 16.7479 57.269 17.2153C56.8016 17.6827 56.5391 18.3165 56.5391 18.9775C56.5391 19.6385 56.8016 20.2724 57.269 20.7397C57.7364 21.2071 58.3702 21.4697 59.0312 21.4697C59.6922 21.4697 60.3261 21.2071 60.7934 20.7397C61.2608 20.2724 61.5234 19.6385 61.5234 18.9775Z" stroke="white" stroke-width="2.1"/>
<path d="M70.7656 19.0191C70.7656 18.3582 70.503 17.7243 70.0356 17.2569C69.5683 16.7895 68.9344 16.527 68.2734 16.527C67.9461 16.527 67.6221 16.5914 67.3197 16.7167C67.0173 16.8419 66.7426 17.0255 66.5112 17.2569C66.2798 17.4883 66.0962 17.7631 65.971 18.0654C65.8457 18.3678 65.7812 18.6919 65.7812 19.0191C65.7812 19.3464 65.8457 19.6705 65.971 19.9728C66.0962 20.2752 66.2798 20.5499 66.5112 20.7813C66.7426 21.0128 67.0173 21.1963 67.3197 21.3216C67.6221 21.4468 67.9461 21.5113 68.2734 21.5113C68.9344 21.5113 69.5683 21.2487 70.0356 20.7813C70.503 20.314 70.7656 19.6801 70.7656 19.0191Z" stroke="white" stroke-width="2.1"/>
<path d="M73.9585 19.9333C74.1132 22.4622 73.1892 24.9531 71.3898 26.8581C69.5904 28.763 67.0631 29.926 64.3637 30.0911C61.6644 30.2562 59.0141 29.4099 56.996 27.7383C54.9779 26.0668 53.7573 23.7071 53.6026 21.1781C53.448 18.6492 54.372 16.1583 56.1714 14.2533C57.9707 12.3484 60.4981 11.1854 63.1974 11.0203C65.8968 10.8552 68.547 11.7015 70.5651 13.3731C72.5832 15.0446 73.8039 17.4043 73.9585 19.9333ZM61.5169 18.9773C61.5169 18.3164 61.2543 17.6825 60.787 17.2151C60.3196 16.7477 59.6857 16.4852 59.0247 16.4852C58.3638 16.4852 57.7299 16.7477 57.2625 17.2151C56.7951 17.6825 56.5326 18.3164 56.5326 18.9773C56.5326 19.6383 56.7951 20.2722 57.2625 20.7396C57.7299 21.2069 58.3638 21.4695 59.0247 21.4695C59.6857 21.4695 60.3196 21.2069 60.787 20.7396C61.2543 20.2722 61.5169 19.6383 61.5169 18.9773ZM70.7586 19.0189C70.7586 18.3579 70.496 17.724 70.0287 17.2567C69.5613 16.7893 68.9274 16.5267 68.2665 16.5267C67.9392 16.5267 67.6151 16.5912 67.3128 16.7164C67.0104 16.8417 66.7357 17.0252 66.5042 17.2567C66.2728 17.4881 66.0893 17.7628 65.964 18.0652C65.8388 18.3675 65.7743 18.6916 65.7743 19.0189C65.7743 19.3461 65.8388 19.6702 65.964 19.9726C66.0893 20.2749 66.2728 20.5497 66.5042 20.7811C66.7357 21.0125 67.0104 21.1961 67.3128 21.3213C67.6151 21.4466 67.9392 21.511 68.2665 21.511C68.9274 21.511 69.5613 21.2485 70.0287 20.7811C70.496 20.3137 70.7586 19.6798 70.7586 19.0189Z" fill="#4ECDFF"/>
<path d="M33.4212 11.7294H15.7684C15.344 11.7294 15 12.0734 15 12.4978V109.069C15 109.493 15.344 109.837 15.7684 109.837H33.4212C33.8456 109.837 34.1896 109.493 34.1896 109.069V12.4978C34.1896 12.0734 33.8456 11.7294 33.4212 11.7294Z" fill="white"/>
<path d="M109.762 11.7501H92.068C91.655 11.7501 91.3203 12.0849 91.3203 12.4978V109.11C91.3203 109.523 91.655 109.858 92.068 109.858H109.762C110.175 109.858 110.51 109.523 110.51 109.11V12.4978C110.51 12.0849 110.175 11.7501 109.762 11.7501Z" fill="white"/>
<path d="M148.414 90.0037L141 109.443C140.954 109.559 140.874 109.659 140.77 109.73C140.667 109.8 140.544 109.838 140.419 109.837L121.25 109.858C121.148 109.858 121.048 109.834 120.958 109.786C120.868 109.739 120.791 109.67 120.734 109.586C120.676 109.502 120.64 109.405 120.629 109.304C120.618 109.203 120.631 109.101 120.668 109.006L157.532 15.7584C157.576 15.645 157.653 15.5471 157.753 15.477C157.852 15.4069 157.97 15.3675 158.092 15.3638H181.415C181.54 15.3634 181.663 15.4009 181.766 15.4713C181.87 15.5417 181.95 15.6417 181.996 15.7584L218.963 109.006C219 109.101 219.014 109.203 219.003 109.304C218.991 109.405 218.955 109.502 218.898 109.586C218.841 109.67 218.764 109.739 218.673 109.786C218.583 109.834 218.483 109.858 218.382 109.858H198.922C198.797 109.858 198.674 109.821 198.57 109.75C198.467 109.68 198.386 109.58 198.34 109.463L191.009 90.0245C190.963 89.9079 190.883 89.8078 190.78 89.7374C190.676 89.667 190.553 89.6295 190.428 89.6299L148.996 89.6092C148.871 89.6088 148.748 89.6462 148.644 89.7166C148.54 89.787 148.46 89.8871 148.414 90.0037ZM155.683 70.565C155.646 70.6624 155.633 70.7675 155.646 70.871C155.659 70.9745 155.696 71.0734 155.755 71.1592C155.815 71.245 155.894 71.3151 155.986 71.3636C156.078 71.412 156.181 71.4373 156.285 71.4372H182.91C183.014 71.4373 183.117 71.412 183.209 71.3636C183.302 71.3151 183.381 71.245 183.44 71.1592C183.499 71.0734 183.537 70.9745 183.549 70.871C183.562 70.7675 183.549 70.6624 183.512 70.565L170.2 35.6748C170.154 35.5525 170.071 35.4471 169.964 35.3727C169.856 35.2983 169.728 35.2585 169.598 35.2585C169.467 35.2585 169.339 35.2983 169.232 35.3727C169.124 35.4471 169.042 35.5525 168.995 35.6748L155.683 70.565Z" fill="white"/>
<path d="M251.066 15.3638H232.209C231.83 15.3638 231.523 15.6706 231.523 16.0491V109.173C231.523 109.551 231.83 109.858 232.209 109.858H251.066C251.445 109.858 251.751 109.551 251.751 109.173V16.0491C251.751 15.6706 251.445 15.3638 251.066 15.3638Z" fill="white"/>
<path d="M59.0312 21.4695C60.4076 21.4695 61.5234 20.3538 61.5234 18.9774C61.5234 17.601 60.4076 16.4852 59.0312 16.4852C57.6548 16.4852 56.5391 17.601 56.5391 18.9774C56.5391 20.3538 57.6548 21.4695 59.0312 21.4695Z" fill="white"/>
<path d="M68.2656 21.5112C69.642 21.5112 70.7577 20.3954 70.7577 19.019C70.7577 17.6426 69.642 16.5269 68.2656 16.5269C66.8892 16.5269 65.7734 17.6426 65.7734 19.019C65.7734 20.3954 66.8892 21.5112 68.2656 21.5112Z" fill="white"/>
<path d="M71.0251 41.2822H56.446C56.1134 41.2822 55.8438 41.5519 55.8438 41.8845V108.467C55.8438 108.799 56.1134 109.069 56.446 109.069H71.0251C71.3577 109.069 71.6274 108.799 71.6274 108.467V41.8845C71.6274 41.5519 71.3577 41.2822 71.0251 41.2822Z" fill="#4ECDFF"/>
<path d="M275.135 111C279.356 111 282.777 107.578 282.777 103.357C282.777 99.1366 279.356 95.7148 275.135 95.7148C270.914 95.7148 267.492 99.1366 267.492 103.357C267.492 107.578 270.914 111 275.135 111Z" fill="white"/>
</g>
<defs>
<filter id="filter0_d_1227_251" x="0" y="0" width="297.781" height="130" filterUnits="userSpaceOnUse" color-interpolation-filters="sRGB">
<feFlood flood-opacity="0" result="BackgroundImageFix"/>
<feColorMatrix in="SourceAlpha" type="matrix" values="0 0 0 0 0 0 0 0 0 0 0 0 0 0 0 0 0 0 127 0" result="hardAlpha"/>
<feOffset dy="4"/>
<feGaussianBlur stdDeviation="7.5"/>
<feComposite in2="hardAlpha" operator="out"/>
<feColorMatrix type="matrix" values="0 0 0 0 0 0 0 0 0 0 0 0 0 0 0 0 0 0 0.25 0"/>
<feBlend mode="normal" in2="BackgroundImageFix" result="effect1_dropShadow_1227_251"/>
<feBlend mode="normal" in="SourceGraphic" in2="effect1_dropShadow_1227_251" result="shape"/>
</filter>
</defs>
</svg>
