<svg width="358" height="80" viewBox="0 0 358 80" fill="none" xmlns="http://www.w3.org/2000/svg">
<path d="M76.7906 39.9969C76.7906 35.1651 75.8389 30.3805 73.9899 25.9165C72.1408 21.4525 69.4306 17.3964 66.014 13.9798C62.5974 10.5631 58.5413 7.85294 54.0772 6.00388C49.6132 4.15482 44.8287 3.20312 39.9969 3.20313C30.2386 3.20313 20.8799 7.0796 13.9798 13.9798C7.0796 20.8799 3.20313 30.2386 3.20312 39.9969C3.20313 49.7552 7.0796 59.1138 13.9798 66.014C20.8799 72.9142 30.2386 76.7906 39.9969 76.7906C44.8287 76.7906 49.6132 75.8389 54.0772 73.9899C58.5413 72.1408 62.5974 69.4306 66.014 66.014C69.4306 62.5974 72.1408 58.5413 73.9899 54.0772C75.8389 49.6132 76.7906 44.8287 76.7906 39.9969Z" stroke="#A380B1" stroke-width="2.1"/>
<path d="M28.3555 35.1625C28.356 35.1503 28.3601 35.1385 28.3675 35.1288C28.3748 35.119 28.385 35.1118 28.3966 35.108C28.4082 35.1043 28.4207 35.1042 28.4324 35.1078C28.444 35.1114 28.4543 35.1185 28.4618 35.1281C35.3514 44.3052 42.3472 53.6188 49.4493 63.0688C49.7576 63.4771 49.9899 63.9167 50.1462 64.3875C50.6524 65.9208 51.6076 67.1448 53.0118 68.0594C57.2274 70.8063 62.9712 68.45 63.9649 63.4906C64.3774 61.4219 63.9659 59.5156 62.7305 57.7719C62.518 57.4719 62.218 57.275 62.218 56.8688C62.2159 45.6313 62.2159 34.3573 62.218 23.0469C62.2181 22.9238 62.2613 22.8053 62.3399 22.7125C65.6368 18.8375 64.1618 13.025 59.4493 11.2344C54.8962 9.50001 50.0149 12.7531 49.7524 17.5688C49.6482 19.4771 50.2305 21.1802 51.4993 22.6781C51.5909 22.7886 51.6368 22.9146 51.6368 23.0563V48.1031C51.6368 48.274 51.5857 48.2906 51.4837 48.1531L30.1868 19.8156C30.1118 19.7156 30.0847 19.6042 30.1055 19.4813C30.5118 17.1521 30.0274 15.1406 28.6524 13.4469C25.4868 9.54689 19.3055 9.95626 16.793 14.4406C15.2712 17.1531 15.6555 20.3531 17.6587 22.7281C17.7357 22.8177 17.7743 22.9208 17.7743 23.0375C17.7701 34.5063 17.7691 45.7729 17.7712 56.8375C17.7712 57.2813 17.418 57.5531 17.1805 57.8875C14.5524 61.6313 16.0212 66.6406 20.0305 68.55C23.1837 70.0563 26.9649 68.9906 28.968 66.1281C30.8587 63.4281 30.6462 59.8469 28.4805 57.3063C28.3972 57.2083 28.3555 57.0938 28.3555 56.9625V35.1625Z" stroke="#A380B1" stroke-width="2.1"/>
<path d="M27.8484 17.9656C27.8484 16.6959 27.344 15.4782 26.4462 14.5803C25.5484 13.6825 24.3307 13.1781 23.0609 13.1781C21.7912 13.1781 20.5735 13.6825 19.6757 14.5803C18.7778 15.4782 18.2734 16.6959 18.2734 17.9656C18.2734 19.2353 18.7778 20.453 19.6757 21.3509C20.5735 22.2487 21.7912 22.7531 23.0609 22.7531C24.3307 22.7531 25.5484 22.2487 26.4462 21.3509C27.344 20.453 27.8484 19.2353 27.8484 17.9656Z" stroke="#A380B1" stroke-width="2.1"/>
<path d="M61.7156 17.9656C61.7156 16.6959 61.2112 15.4782 60.3134 14.5803C59.4156 13.6825 58.1979 13.1781 56.9281 13.1781C55.6584 13.1781 54.4407 13.6825 53.5429 14.5803C52.645 15.4782 52.1406 16.6959 52.1406 17.9656C52.1406 19.2353 52.645 20.453 53.5429 21.3509C54.4407 22.2487 55.6584 22.7531 56.9281 22.7531C58.1979 22.7531 59.4156 22.2487 60.3134 21.3509C61.2112 20.453 61.7156 19.2353 61.7156 17.9656Z" stroke="#A380B1" stroke-width="2.1"/>
<path d="M27.8562 62.0343C27.8562 60.7646 27.3519 59.5469 26.454 58.6491C25.5562 57.7512 24.3385 57.2468 23.0687 57.2468C21.799 57.2468 20.5813 57.7512 19.6835 58.6491C18.7856 59.5469 18.2813 60.7646 18.2812 62.0343C18.2813 63.304 18.7856 64.5218 19.6835 65.4196C20.5813 66.3174 21.799 66.8218 23.0687 66.8218C24.3385 66.8218 25.5562 66.3174 26.454 65.4196C27.3519 64.5218 27.8562 63.304 27.8562 62.0343Z" stroke="#A380B1" stroke-width="2.1"/>
<path d="M61.7156 62.0343C61.7156 60.7646 61.2112 59.5469 60.3134 58.6491C59.4156 57.7512 58.1979 57.2468 56.9281 57.2468C55.6584 57.2468 54.4407 57.7512 53.5429 58.6491C52.645 59.5469 52.1406 60.7646 52.1406 62.0343C52.1406 63.304 52.645 64.5218 53.5429 65.4196C54.4407 66.3174 55.6584 66.8218 56.9281 66.8218C58.1979 66.8218 59.4156 66.3174 60.3134 65.4196C61.2112 64.5218 61.7156 63.304 61.7156 62.0343Z" stroke="#A380B1" stroke-width="2.1"/>
<path d="M38.6344 0H41.4187C52.7458 0.591667 62.1208 4.93646 69.5437 13.0344C76.0167 20.0948 79.5021 28.5948 80 38.5344V41.575C79.5333 50.4958 76.6333 58.2698 71.3 64.8969C63.7604 74.2656 53.7875 79.3 41.3812 80H38.5844C30.7531 79.6354 23.7802 77.3667 17.6656 73.1938C8.45312 66.9063 2.77188 58.1938 0.621875 47.0563C0.290625 45.3406 0.15625 43.4312 0 41.6187V38.4C0.791667 25.7187 6.075 15.6219 15.85 8.10938C22.3833 3.08646 29.9781 0.383333 38.6344 0ZM76.7938 39.9969C76.7938 35.1651 75.8421 30.3805 73.993 25.9165C72.1439 21.4525 69.4337 17.3964 66.0171 13.9798C62.6005 10.5631 58.5444 7.85294 54.0804 6.00388C49.6163 4.15482 44.8318 3.20312 40 3.20312C30.2417 3.20313 20.8831 7.0796 13.9829 13.9798C7.08272 20.8799 3.20625 30.2386 3.20625 39.9969C3.20625 49.7552 7.08272 59.1138 13.9829 66.014C20.8831 72.9142 30.2417 76.7906 40 76.7906C44.8318 76.7906 49.6163 75.8389 54.0804 73.9899C58.5444 72.1408 62.6005 69.4306 66.0171 66.014C69.4337 62.5974 72.1439 58.5413 73.993 54.0772C75.8421 49.6132 76.7938 44.8287 76.7938 39.9969Z" fill="#460063"/>
<path d="M76.7906 39.9969C76.7906 44.8287 75.8389 49.6132 73.9899 54.0772C72.1408 58.5413 69.4306 62.5974 66.014 66.014C62.5974 69.4306 58.5413 72.1408 54.0772 73.9899C49.6132 75.8389 44.8287 76.7906 39.9969 76.7906C30.2386 76.7906 20.8799 72.9142 13.9798 66.014C7.0796 59.1138 3.20313 49.7552 3.20312 39.9969C3.20312 30.2386 7.0796 20.8799 13.9798 13.9798C20.8799 7.0796 30.2386 3.20313 39.9969 3.20312C44.8287 3.20313 49.6132 4.15482 54.0772 6.00388C58.5413 7.85294 62.5974 10.5631 66.014 13.9798C69.4306 17.3964 72.1408 21.4525 73.9899 25.9165C75.8389 30.3805 76.7906 35.1651 76.7906 39.9969ZM28.3562 35.1625C28.3567 35.1503 28.3608 35.1385 28.3682 35.1288C28.3755 35.119 28.3857 35.1118 28.3973 35.108C28.4089 35.1043 28.4214 35.1042 28.4331 35.1078C28.4447 35.1114 28.455 35.1185 28.4625 35.1281C35.3521 44.3052 42.3479 53.6188 49.45 63.0688C49.7583 63.4771 49.9906 63.9167 50.1469 64.3875C50.6531 65.9208 51.6083 67.1448 53.0125 68.0594C57.2281 70.8062 62.9719 68.45 63.9656 63.4906C64.3781 61.4219 63.9667 59.5156 62.7312 57.7719C62.5187 57.4719 62.2187 57.275 62.2187 56.8687C62.2167 45.6312 62.2167 34.3573 62.2187 23.0469C62.2188 22.9238 62.262 22.8053 62.3406 22.7125C65.6375 18.8375 64.1625 13.025 59.45 11.2344C54.8969 9.5 50.0156 12.7531 49.7531 17.5688C49.649 19.4771 50.2312 21.1802 51.5 22.6781C51.5917 22.7885 51.6375 22.9146 51.6375 23.0562V48.1031C51.6375 48.274 51.5865 48.2906 51.4844 48.1531L30.1875 19.8156C30.1125 19.7156 30.0854 19.6042 30.1062 19.4813C30.5125 17.1521 30.0281 15.1406 28.6531 13.4469C25.4875 9.54687 19.3062 9.95625 16.7937 14.4406C15.2719 17.1531 15.6562 20.3531 17.6594 22.7281C17.7365 22.8177 17.775 22.9208 17.775 23.0375C17.7708 34.5063 17.7698 45.7729 17.7719 56.8375C17.7719 57.2813 17.4187 57.5531 17.1812 57.8875C14.5531 61.6313 16.0219 66.6406 20.0312 68.55C23.1844 70.0563 26.9656 68.9906 28.9687 66.1281C30.8594 63.4281 30.6469 59.8469 28.4812 57.3063C28.3979 57.2083 28.3562 57.0937 28.3562 56.9625V35.1625Z" fill="white"/>
<path d="M28.3555 35.1625V56.9625C28.3555 57.0938 28.3972 57.2083 28.4805 57.3063C30.6462 59.8469 30.8587 63.4281 28.968 66.1281C26.9649 68.9906 23.1837 70.0563 20.0305 68.55C16.0212 66.6406 14.5524 61.6313 17.1805 57.8875C17.418 57.5531 17.7712 57.2813 17.7712 56.8375C17.7691 45.7729 17.7701 34.5063 17.7743 23.0375C17.7743 22.9208 17.7357 22.8177 17.6587 22.7281C15.6555 20.3531 15.2712 17.1531 16.793 14.4406C19.3055 9.95626 25.4868 9.54689 28.6524 13.4469C30.0274 15.1406 30.5118 17.1521 30.1055 19.4813C30.0847 19.6042 30.1118 19.7156 30.1868 19.8156L51.4837 48.1531C51.5857 48.2906 51.6368 48.274 51.6368 48.1031V23.0563C51.6368 22.9146 51.5909 22.7886 51.4993 22.6781C50.2305 21.1802 49.6482 19.4771 49.7524 17.5688C50.0149 12.7531 54.8962 9.50001 59.4493 11.2344C64.1618 13.025 65.6368 18.8375 62.3399 22.7125C62.2613 22.8053 62.2181 22.9238 62.218 23.0469C62.2159 34.3573 62.2159 45.6313 62.218 56.8688C62.218 57.275 62.518 57.4719 62.7305 57.7719C63.9659 59.5156 64.3774 61.4219 63.9649 63.4906C62.9712 68.45 57.2274 70.8063 53.0118 68.0594C51.6076 67.1448 50.6524 65.9208 50.1462 64.3875C49.9899 63.9167 49.7576 63.4771 49.4493 63.0688C42.3472 53.6188 35.3514 44.3052 28.4618 35.1281C28.4543 35.1185 28.444 35.1114 28.4324 35.1078C28.4207 35.1042 28.4082 35.1043 28.3966 35.108C28.385 35.1118 28.3748 35.119 28.3675 35.1288C28.3601 35.1385 28.356 35.1503 28.3555 35.1625ZM27.8493 17.9656C27.8493 16.6959 27.3449 15.4782 26.4471 14.5804C25.5492 13.6825 24.3315 13.1781 23.0618 13.1781C21.7921 13.1781 20.5743 13.6825 19.6765 14.5804C18.7787 15.4782 18.2743 16.6959 18.2743 17.9656C18.2743 19.2354 18.7787 20.4531 19.6765 21.3509C20.5743 22.2487 21.7921 22.7531 23.0618 22.7531C24.3315 22.7531 25.5492 22.2487 26.4471 21.3509C27.3449 20.4531 27.8493 19.2354 27.8493 17.9656ZM61.718 17.9656C61.718 16.6959 61.2136 15.4782 60.3158 14.5804C59.418 13.6825 58.2003 13.1781 56.9305 13.1781C55.6608 13.1781 54.4431 13.6825 53.5453 14.5804C52.6474 15.4782 52.143 16.6959 52.143 17.9656C52.143 19.2354 52.6474 20.4531 53.5453 21.3509C54.4431 22.2487 55.6608 22.7531 56.9305 22.7531C58.2003 22.7531 59.418 22.2487 60.3158 21.3509C61.2136 20.4531 61.718 19.2354 61.718 17.9656ZM27.8524 62.0344C27.8524 60.7647 27.348 59.5469 26.4502 58.6491C25.5524 57.7513 24.3346 57.2469 23.0649 57.2469C21.7952 57.2469 20.5775 57.7513 19.6796 58.6491C18.7818 59.5469 18.2774 60.7647 18.2774 62.0344C18.2774 63.3041 18.7818 64.5218 19.6796 65.4197C20.5775 66.3175 21.7952 66.8219 23.0649 66.8219C24.3346 66.8219 25.5524 66.3175 26.4502 65.4197C27.348 64.5218 27.8524 63.3041 27.8524 62.0344ZM61.718 62.0344C61.718 60.7647 61.2136 59.5469 60.3158 58.6491C59.418 57.7513 58.2003 57.2469 56.9305 57.2469C55.6608 57.2469 54.4431 57.7513 53.5453 58.6491C52.6474 59.5469 52.143 60.7647 52.143 62.0344C52.143 63.3041 52.6474 64.5218 53.5453 65.4197C54.4431 66.3175 55.6608 66.8219 56.9305 66.8219C58.2003 66.8219 59.418 66.3175 60.3158 65.4197C61.2136 64.5218 61.718 63.3041 61.718 62.0344Z" fill="#460063"/>
<path d="M23.0687 22.7531C25.7128 22.7531 27.8562 20.6097 27.8562 17.9656C27.8562 15.3215 25.7128 13.1781 23.0687 13.1781C20.4247 13.1781 18.2812 15.3215 18.2812 17.9656C18.2812 20.6097 20.4247 22.7531 23.0687 22.7531Z" fill="white"/>
<path d="M56.9281 22.7531C59.5722 22.7531 61.7156 20.6097 61.7156 17.9656C61.7156 15.3215 59.5722 13.1781 56.9281 13.1781C54.2841 13.1781 52.1406 15.3215 52.1406 17.9656C52.1406 20.6097 54.2841 22.7531 56.9281 22.7531Z" fill="white"/>
<path d="M23.0687 66.8218C25.7128 66.8218 27.8562 64.6784 27.8562 62.0343C27.8562 59.3903 25.7128 57.2468 23.0687 57.2468C20.4247 57.2468 18.2812 59.3903 18.2812 62.0343C18.2812 64.6784 20.4247 66.8218 23.0687 66.8218Z" fill="white"/>
<path d="M56.9281 66.8218C59.5722 66.8218 61.7156 64.6784 61.7156 62.0343C61.7156 59.3903 59.5722 57.2468 56.9281 57.2468C54.2841 57.2468 52.1406 59.3903 52.1406 62.0343C52.1406 64.6784 54.2841 66.8218 56.9281 66.8218Z" fill="white"/>
<path d="M343.65 28.3255H355.914V70.6211H343.65V28.3255ZM349.782 22.4292C347.528 22.4292 345.694 21.7741 344.279 20.4638C342.864 19.1536 342.156 17.5288 342.156 15.5896C342.156 13.6504 342.864 12.0257 344.279 10.7154C345.694 9.40514 347.528 8.75 349.782 8.75C352.036 8.75 353.87 9.37893 355.285 10.6368C356.7 11.8947 357.408 13.467 357.408 15.3538C357.408 17.3978 356.7 19.1012 355.285 20.4638C353.87 21.7741 352.036 22.4292 349.782 22.4292Z" fill="white"/>
<path d="M312.186 27.6965C318.738 27.6965 323.769 29.2689 327.281 32.4135C330.792 35.5058 332.548 40.1965 332.548 46.4858V70.6211H321.07V65.3538C318.764 69.2846 314.466 71.25 308.177 71.25C304.927 71.25 302.097 70.6997 299.686 69.599C297.328 68.4984 295.52 66.9785 294.262 65.0393C293.004 63.1001 292.375 60.8988 292.375 58.4355C292.375 54.5047 293.843 51.4125 296.778 49.1588C299.765 46.9051 304.351 45.7783 310.535 45.7783H320.284C320.284 43.1053 319.471 41.0613 317.847 39.6462C316.222 38.1787 313.785 37.445 310.535 37.445C308.282 37.445 306.054 37.8118 303.853 38.5456C301.704 39.2269 299.87 40.1703 298.35 41.3758L293.947 32.8066C296.253 31.1819 299.005 29.924 302.202 29.033C305.452 28.142 308.78 27.6965 312.186 27.6965ZM311.243 62.9953C313.339 62.9953 315.2 62.5236 316.825 61.5802C318.449 60.5844 319.602 59.1431 320.284 57.2563V52.9324H311.872C306.84 52.9324 304.325 54.5833 304.325 57.8852C304.325 59.4575 304.927 60.7154 306.133 61.6588C307.391 62.5498 309.094 62.9953 311.243 62.9953Z" fill="white"/>
<path d="M273.526 33.9072C274.994 31.8632 276.959 30.3171 279.423 29.2689C281.938 28.2206 284.821 27.6965 288.07 27.6965V39.0173C286.708 38.9125 285.79 38.8601 285.319 38.8601C281.807 38.8601 279.056 39.8559 277.064 41.8475C275.072 43.7867 274.077 46.7217 274.077 50.6525V70.6211H261.812V28.3255H273.526V33.9072Z" fill="white"/>
<path d="M250.455 28.3254V70.621H238.82V65.5896C237.195 67.424 235.256 68.8391 233.002 69.8349C230.749 70.7783 228.312 71.25 225.691 71.25C220.136 71.25 215.733 69.6514 212.484 66.4544C209.234 63.2573 207.609 58.5141 207.609 52.2248V28.3254H219.874V50.4166C219.874 57.23 222.73 60.6368 228.443 60.6368C231.378 60.6368 233.736 59.6934 235.518 57.8066C237.3 55.8674 238.191 53.011 238.191 49.2374V28.3254H250.455Z" fill="white"/>
<path d="M199.677 49.6305C199.677 49.7877 199.598 50.8884 199.441 52.9324H167.444C168.021 55.5529 169.384 57.6232 171.532 59.1431C173.681 60.663 176.354 61.4229 179.551 61.4229C181.753 61.4229 183.692 61.1085 185.369 60.4795C187.098 59.7982 188.697 58.75 190.164 57.3349L196.69 64.4104C192.706 68.9701 186.889 71.25 179.237 71.25C174.467 71.25 170.248 70.3328 166.58 68.4984C162.911 66.6116 160.081 64.0173 158.089 60.7154C156.097 57.4135 155.102 53.6661 155.102 49.4733C155.102 45.3328 156.071 41.6116 158.01 38.3097C160.002 34.9554 162.701 32.3611 166.108 30.5267C169.567 28.6399 173.419 27.6965 177.664 27.6965C181.805 27.6965 185.552 28.5875 188.907 30.3695C192.261 32.1515 194.881 34.7196 196.768 38.0739C198.707 41.3758 199.677 45.228 199.677 49.6305ZM177.743 36.9733C174.965 36.9733 172.633 37.7594 170.746 39.3317C168.859 40.9041 167.706 43.0529 167.287 45.7783H188.12C187.701 43.1053 186.548 40.9827 184.661 39.4104C182.775 37.7856 180.468 36.9733 177.743 36.9733Z" fill="white"/>
<path d="M146.097 15.5897V70.6212H135.641L108.204 37.2092V70.6212H95.625V15.5897H106.16L133.518 49.0017V15.5897H146.097Z" fill="white"/>
</svg>
