<svg width="565" height="100" viewBox="0 0 565 100" fill="none" xmlns="http://www.w3.org/2000/svg">
<path d="M65.0994 49.9797C65.095 45.9695 63.5 42.1248 60.6643 39.2891C57.8287 36.4534 53.984 34.8584 49.9737 34.854C48.5806 34.8545 47.1942 35.0479 45.854 35.4287C42.6426 36.3464 39.8238 38.2984 37.8351 40.9818C35.8939 43.5801 34.845 46.7364 34.8447 49.9797C34.8491 53.9908 36.4445 57.8364 39.2808 60.6726C42.1171 63.5089 45.9626 65.1043 49.9737 65.1087C51.2572 65.1047 52.5349 64.9374 53.7761 64.6109L59.4294 72.994L67.5586 67.5846L61.9253 59.2315C63.9849 56.5875 65.1021 53.3312 65.0994 49.9797Z" fill="#E22901"/>
<path d="M50 0C36.7392 0 24.0215 5.26784 14.6447 14.6447C5.26783 24.0215 0 36.7392 0 50C0 63.2608 5.26783 75.9785 14.6447 85.3553C19.2876 89.9983 24.7995 93.6812 30.8658 96.194C36.9321 98.7067 43.4339 100 50 100C63.2608 100 75.9785 94.7322 85.3553 85.3553C94.7322 75.9785 100 63.2608 100 50C100 36.7392 94.7322 24.0215 85.3553 14.6447C75.9785 5.26784 63.2608 0 50 0V0ZM73.0967 75.8067L65.0233 81.2533L59.4267 72.96C56.4358 74.1883 53.2333 74.819 50 74.8167C43.417 74.8167 37.1034 72.2025 32.4472 67.5488C27.7911 62.8952 25.1735 56.583 25.17 50C25.1638 43.5196 27.7013 37.2956 32.2367 32.6667C34.5252 30.3185 37.2553 28.446 40.27 27.1567C43.3463 25.8463 46.6562 25.1728 50 25.1767C56.5842 25.1767 62.8988 27.7918 67.5551 32.4468C72.2115 37.1019 74.8282 43.4158 74.83 50C74.8345 53.2661 74.1924 56.5008 72.9407 59.5175C71.6889 62.5342 69.8522 65.2733 67.5367 67.5767L73.0967 75.8067Z" fill="#E22901"/>
<path d="M137.181 34.8184H154.439C155.611 34.7946 156.772 35.0546 157.823 35.5763C158.755 36.0505 159.584 36.7063 160.259 37.5052C160.9 38.2692 161.401 39.1397 161.741 40.077C162.065 40.9435 162.237 41.8593 162.249 42.7842V54.6686C162.239 55.9557 161.911 57.2203 161.295 58.3502C160.619 59.6 159.578 60.6133 158.31 61.2537L158.12 61.3348L161.234 64.8H153.911L142.026 51.4742H149.349L154.337 57.0441H155.082C155.452 57.055 155.818 56.976 156.151 56.8139C156.438 56.666 156.695 56.4663 156.909 56.225C157.112 56.0045 157.27 55.7473 157.376 55.4671C157.478 55.2133 157.531 54.9423 157.532 54.6686V42.2021C157.528 41.9179 157.461 41.6381 157.335 41.3832C157.203 41.0933 157.02 40.8297 156.794 40.6049C156.55 40.3644 156.266 40.1674 155.955 40.0228C155.607 39.8613 155.228 39.7805 154.845 39.7861H137.194C136.818 39.779 136.444 39.86 136.105 40.0228C135.809 40.1628 135.544 40.3608 135.326 40.6049C135.124 40.8255 134.965 41.0827 134.859 41.3629C134.757 41.6167 134.704 41.8879 134.704 42.1616V54.6686C134.704 54.9423 134.757 55.2133 134.859 55.4671C134.965 55.7473 135.124 56.0045 135.326 56.225C135.544 56.4712 135.809 56.6715 136.105 56.8139C136.445 56.9744 136.818 57.0533 137.194 57.0441H140.389L144.713 62.0319H137.194C136.115 62.0583 135.045 61.8263 134.074 61.3551C133.213 60.9188 132.447 60.3162 131.821 59.582C131.23 58.8754 130.772 58.0685 130.467 57.1997C130.168 56.3959 130.01 55.5465 130 54.6889V42.1817C130.01 41.3241 130.168 40.4747 130.467 39.6709C130.77 38.8035 131.229 37.9985 131.821 37.2954C132.444 36.5574 133.21 35.9542 134.074 35.5223C135.039 35.0439 136.104 34.8025 137.181 34.8184V34.8184Z" fill="#E2E2E2"/>
<path d="M171.264 34.8193H176.001V54.101C176.009 54.448 176.075 54.7912 176.197 55.1161C176.326 55.476 176.523 55.8071 176.779 56.0907C177.058 56.3871 177.388 56.6302 177.754 56.8081C178.175 57.0123 178.64 57.1121 179.108 57.0991H195.784C196.251 57.1103 196.715 57.0106 197.137 56.8081C197.491 56.6416 197.808 56.4062 198.069 56.1156C198.331 55.8251 198.531 55.4853 198.66 55.1161C198.782 54.7912 198.848 54.448 198.856 54.101V34.8532H203.594V54.101C203.581 55.0258 203.41 55.9416 203.086 56.8081C202.749 57.7517 202.25 58.629 201.611 59.4002C200.935 60.1991 200.107 60.8548 199.174 61.329C198.125 61.8538 196.963 62.1141 195.79 62.0871H179.114C177.941 62.1141 176.78 61.8538 175.73 61.329C174.798 60.8548 173.97 60.1991 173.294 59.4002C172.65 58.631 172.148 57.7532 171.812 56.8081C171.488 55.9416 171.316 55.0258 171.304 54.101L171.264 34.8193Z" fill="#E2E2E2"/>
<path d="M210.962 62.0532L224.498 34.8193H229.445L242.926 62.0532H236.883L226.948 42.027L217.053 62.0532H210.962Z" fill="#E2E2E2"/>
<path d="M251.142 34.8193H255.879V62.0532H251.142V34.8193Z" fill="#E2E2E2"/>
<path d="M285.817 62.0532V34.8193H290.88L313.363 55.935V34.8193H318.1V62.0532H313.187L290.555 40.9375V62.0532H285.817Z" fill="#E2E2E2"/>
<path d="M327.116 34.8193H356.651V39.8072H327.116V34.8193ZM327.116 45.966H356.651V50.9133H331.833V57.0652H356.651V62.0532H327.116V45.966Z" fill="#E2E2E2"/>
<path d="M364.917 34.8193H397.173V39.8072H383.4V62.0532H378.663V39.8072H364.87L364.917 34.8193Z" fill="#E2E2E2"/>
<path d="M410.072 34.8193L417.24 55.1229L422.464 40.3554H428.555L433.773 55.1229L440.941 34.8193H447.018L436.264 62.0532H431.351L425.544 47.4076L419.744 62.0532H414.796L403.968 34.8193H410.072Z" fill="#E2E2E2"/>
<path d="M454.519 42.8052C454.531 41.8803 454.702 40.9645 455.026 40.098C455.361 39.1597 455.86 38.2887 456.501 37.5262C457.177 36.7273 458.005 36.0715 458.938 35.5973C459.988 35.0756 461.149 34.8156 462.322 34.8394H478.923C480.096 34.8156 481.257 35.0756 482.307 35.5973C483.241 36.076 484.073 36.7311 484.757 37.5262C485.409 38.2859 485.918 39.1572 486.26 40.098C486.584 40.9645 486.755 41.8803 486.767 42.8052V54.1007C486.755 55.0255 486.583 55.9414 486.26 56.8078C485.921 57.7564 485.412 58.635 484.757 59.4C484.073 60.1951 483.241 60.85 482.307 61.3287C481.258 61.8535 480.096 62.1138 478.923 62.0868H462.322C461.149 62.1138 459.987 61.8535 458.938 61.3287C458.005 60.8545 457.177 60.1988 456.501 59.4C455.857 58.6321 455.357 57.7538 455.026 56.8078C454.702 55.9414 454.531 55.0255 454.519 54.1007V42.8052ZM459.256 54.0668C459.264 54.4138 459.33 54.757 459.452 55.082C459.581 55.4418 459.778 55.7729 460.034 56.0565C460.314 56.3514 460.644 56.5943 461.009 56.7739C461.43 56.9782 461.894 57.0779 462.362 57.0649H478.964C479.4 57.0748 479.833 56.9899 480.232 56.8158C480.632 56.6416 480.989 56.3824 481.279 56.0565C481.526 55.7688 481.718 55.4386 481.847 55.082C481.967 54.7567 482.031 54.4135 482.037 54.0668V42.8052C482.032 42.4606 481.968 42.1195 481.847 41.7968C481.72 41.4394 481.527 41.1088 481.279 40.8221C481.014 40.5173 480.689 40.2708 480.324 40.098C479.902 39.8963 479.439 39.7965 478.971 39.8069H462.369C461.901 39.7939 461.437 39.8938 461.016 40.098C460.649 40.2776 460.319 40.523 460.041 40.8221C459.784 41.1047 459.586 41.4362 459.459 41.7968C459.336 42.1192 459.27 42.4603 459.263 42.8052L459.256 54.0668Z" fill="#E2E2E2"/>
<path d="M520.221 34.8206C521.393 34.7968 522.554 35.0568 523.604 35.5785C524.537 36.0527 525.365 36.7086 526.041 37.5074C526.682 38.2714 527.183 39.1419 527.523 40.0793C527.842 40.9469 528.011 41.8622 528.024 42.7864V45.7102C528.011 46.6343 527.842 47.5496 527.523 48.4173C527.187 49.3624 526.685 50.24 526.041 51.0093C525.365 51.8081 524.537 52.464 523.604 52.9382C522.555 53.463 521.393 53.7231 520.221 53.6961H518.508L527.584 62.0341H520.336L506.8 49.6828V48.7083H520.241C520.709 48.7195 521.173 48.6198 521.594 48.4173C521.958 48.2429 522.285 47.9992 522.556 47.6999C522.802 47.4129 522.992 47.0824 523.117 46.7253C523.239 46.4004 523.306 46.0572 523.314 45.7102V42.7864C523.31 42.2192 523.147 41.6644 522.843 41.1856C522.539 40.7068 522.106 40.3234 521.594 40.0793C521.173 39.8768 520.709 39.7771 520.241 39.7883H500.486V62.0341H495.748V34.8003L520.221 34.8206Z" fill="#E2E2E2"/>
<path d="M536.806 34.8193H541.543V45.9795H544.893L557.285 34.8329H564.534L549.726 48.4296L564.534 62.0667H557.285L544.893 50.9269H541.543V62.0667H536.806V34.8193Z" fill="#E2E2E2"/>
</svg>
