<svg width="186" height="75" viewBox="0 0 186 75" fill="none" xmlns="http://www.w3.org/2000/svg">
<path fill-rule="evenodd" clip-rule="evenodd" d="M54.6249 18.0805C53.2084 19.7683 50.9419 21.0995 48.6754 20.9093C48.3921 18.6273 49.5017 16.2026 50.8002 14.705C52.2168 12.9696 54.6957 11.7335 56.7025 11.6384C56.9386 14.0156 56.0178 16.3452 54.6249 18.0805ZM56.6788 21.361C54.682 21.2453 52.8601 21.9656 51.3885 22.5475C50.4415 22.9219 49.6395 23.239 49.0294 23.239C48.3447 23.239 47.5097 22.9049 46.5721 22.5299C45.3436 22.0385 43.939 21.4767 42.4661 21.5036C39.09 21.5512 35.95 23.4767 34.2265 26.5432C30.6852 32.6763 33.3058 41.757 36.7291 46.749C38.4053 49.2212 40.4121 51.9312 43.0563 51.8361C44.2196 51.7919 45.0564 51.4344 45.9224 51.0644C46.9195 50.6384 47.9552 50.1959 49.5724 50.1959C51.1336 50.1959 52.124 50.6269 53.0748 51.0406C53.9788 51.434 54.847 51.8117 56.1357 51.7886C58.8744 51.741 60.5979 49.3163 62.2741 46.8441C64.083 44.1907 64.878 41.6012 64.9986 41.2082L65.0088 41.1752L65.0128 41.1627C65.0099 41.1598 64.9875 41.1495 64.9481 41.1313C64.3434 40.8526 59.7214 38.7221 59.6771 33.0091C59.6326 28.2138 63.3431 25.7842 63.9272 25.4018L63.9272 25.4018L63.9276 25.4015L63.9278 25.4014C63.963 25.3783 63.9868 25.3628 63.9976 25.3546C61.6367 21.8364 57.9536 21.4561 56.6788 21.361ZM75.637 51.5272V14.4674H89.4483C96.5782 14.4674 101.56 19.4119 101.56 26.6384C101.56 33.8649 96.4838 38.857 89.2594 38.857H81.3504V51.5272H75.637ZM81.35 19.3165H87.9369C92.8948 19.3165 95.7279 21.9789 95.7279 26.6619C95.7279 31.3449 92.8948 34.0311 87.9133 34.0311H81.35V19.3165ZM120.424 47.0816C118.913 49.9817 115.584 51.8121 111.995 51.8121C106.683 51.8121 102.977 48.6267 102.977 43.8249C102.977 39.0706 106.565 36.3369 113.199 35.9327L120.329 35.5049V33.4605C120.329 30.4415 118.37 28.8013 114.875 28.8013C111.995 28.8013 109.894 30.2989 109.469 32.581H104.322C104.487 27.7791 108.973 24.2847 115.041 24.2847C121.58 24.2847 125.83 27.7316 125.83 33.0802V51.5269H120.542V47.0816H120.424ZM113.529 47.4146C110.484 47.4146 108.548 45.9407 108.548 43.6824C108.548 41.3528 110.413 39.9978 113.978 39.7839L120.329 39.3798V41.4717C120.329 44.9423 117.401 47.4146 113.529 47.4146ZM143.371 52.9773C141.081 59.4669 138.461 61.6063 132.889 61.6063C132.464 61.6063 131.048 61.5588 130.717 61.4637V57.0184C131.071 57.066 131.945 57.1135 132.393 57.1135C134.919 57.1135 136.336 56.0438 137.21 53.2625L137.729 51.6223L128.049 24.6416H134.022L140.751 46.5352H140.869L147.598 24.6416H153.405L143.371 52.9773Z" fill="black"/>
</svg>
