<svg width="36" height="41" viewBox="0 0 36 41" fill="none" xmlns="http://www.w3.org/2000/svg">
<path d="M13.0705 1.15055C13.0785 6.46603 13.0805 11.7939 13.0765 17.1342C13.0755 17.8267 12.5672 18.4195 11.8164 18.4245C8.34612 18.4457 4.87583 18.4275 1.40553 18.4316C0.91102 18.4322 0.517156 18.2682 0.223939 17.9394C0.0763242 17.6502 0.00251617 17.3063 0.00251617 16.9078C-0.000838722 12.0056 -0.000838722 7.1038 0.00251617 2.20231C0.00251617 1.60379 0.0404269 1.21664 0.116247 1.04084C0.266546 0.690593 0.515814 0.457764 0.864052 0.342356C1.03448 0.285994 1.3334 0.257812 1.76081 0.257812C5.04793 0.261838 8.33505 0.262174 11.6222 0.258819C12.2811 0.258148 12.7638 0.555391 13.0705 1.15055Z" fill="#0C79F1"/>
<path d="M34.5264 6.78478C34.5619 7.08269 34.6082 7.37088 34.6653 7.64933C34.7451 8.0385 34.7928 8.32568 34.8082 8.51087C34.9035 9.66696 34.7978 10.7828 34.4911 11.8584C33.9524 13.7465 32.9073 15.3015 31.356 16.5233C29.7537 17.7855 27.7659 18.4356 25.7238 18.4336C23.1318 18.4309 20.5026 18.4303 17.8361 18.4316C17.3571 18.4316 16.9713 18.2736 16.6787 17.9576C16.5237 17.712 16.4459 17.3872 16.4452 16.9833C16.4392 10.7157 16.4395 5.55756 16.4462 1.50888C16.4472 0.801335 17.0652 0.255831 17.7607 0.256837C20.5653 0.258179 23.1905 0.258515 25.6363 0.257844C26.6555 0.257844 27.6411 0.40982 28.5933 0.713773C30.7702 1.41025 32.5728 2.93504 33.7534 4.89363C33.891 5.1231 34.0282 5.43544 34.1651 5.83065C34.2784 6.1601 34.3989 6.47814 34.5264 6.78478Z" fill="#0C79F1"/>
<path d="M13.0702 1.15063C13.1339 1.22578 13.1732 1.31536 13.1879 1.41936C13.1953 1.46901 13.205 1.51162 13.2171 1.54718C13.2339 1.59482 13.2483 1.6438 13.2604 1.69413C13.2664 1.72097 13.2825 1.73942 13.3087 1.74948C13.3174 1.75284 13.3265 1.75485 13.3359 1.75552C13.354 1.75753 13.3661 1.76693 13.3721 1.7837C13.4613 2.0427 13.506 2.29734 13.506 2.54761C13.5026 7.41622 13.5009 12.4915 13.5009 17.7734C13.5016 18.749 12.9648 19.2378 11.8906 19.2399C8.54644 19.2445 5.16639 19.2449 1.75044 19.2409C1.31095 19.2402 0.932856 19.0949 0.616155 18.8051C0.499405 18.6977 0.368564 18.4092 0.223633 17.9395C0.51685 18.2683 0.910714 18.4323 1.40522 18.4317C4.87552 18.4276 8.34582 18.4458 11.8161 18.4246C12.5669 18.4196 13.0752 17.8268 13.0762 17.1343C13.0802 11.794 13.0782 6.46612 13.0702 1.15063Z" fill="black"/>
<path d="M34.5264 6.78467C34.6143 6.93832 34.6881 7.09231 34.7478 7.24664C34.7753 7.31709 34.7884 7.38788 34.7871 7.459C34.7857 7.50731 34.7968 7.55092 34.8203 7.58984C34.8464 7.63345 34.8642 7.68042 34.8736 7.73075C34.9206 7.97767 34.9763 8.22157 35.0407 8.46245C35.0407 8.46312 35.04 8.46379 35.0387 8.46446C35.0313 8.46714 35.0296 8.46849 35.0336 8.46849C35.039 8.46849 35.041 8.46614 35.0397 8.46144C35.0242 8.40374 35.0263 8.3514 35.0457 8.30443C35.0665 8.25478 35.0769 8.25679 35.0769 8.31047C35.0762 8.42454 35.094 8.54095 35.1303 8.65972C35.1645 8.77311 35.1836 8.8855 35.1876 8.99688C35.2057 9.46791 35.2631 9.95 35.249 10.421C35.2356 10.8887 35.1913 11.3188 35.1162 11.7113C35.0752 11.9274 35.0444 12.13 35.0236 12.3192C35.0209 12.3427 35.0108 12.3625 34.9934 12.3786C34.9746 12.3967 34.9645 12.4192 34.9632 12.446C34.9612 12.4836 34.9551 12.5198 34.9451 12.5547C34.6545 13.5719 34.2379 14.4697 33.695 15.248C32.29 17.2643 30.3791 18.5305 27.9622 19.0464C27.4026 19.1662 26.836 19.1803 26.2683 19.2216C26.0462 19.237 25.8268 19.2447 25.6101 19.2447C23.3932 19.242 20.9686 19.242 18.3364 19.2447C17.3913 19.2457 16.883 18.8743 16.6787 17.9574C16.9713 18.2735 17.3571 18.4315 17.8361 18.4315C20.5026 18.4302 23.1318 18.4308 25.7238 18.4335C27.7659 18.4355 29.7537 17.7853 31.356 16.5232C32.9073 15.3014 33.9524 13.7464 34.4912 11.8583C34.7978 10.7827 34.9035 9.66685 34.8082 8.51076C34.7928 8.32557 34.7451 8.03839 34.6653 7.64922C34.6082 7.37077 34.5619 7.08258 34.5264 6.78467Z" fill="black"/>
<path d="M13.0111 22.1968C13.0473 22.385 13.0805 22.5632 13.0805 22.7564C13.0778 27.9102 13.0772 33.0291 13.0785 38.1131C13.0785 38.6921 12.8114 39.1095 12.2773 39.3651C12.0509 39.4738 11.7037 39.4778 11.445 39.4778C8.06529 39.4745 4.68524 39.4738 1.30485 39.4758C0.921726 39.4758 0.574159 39.3222 0.262155 39.0149C0.0890425 38.7284 0.00248626 38.4214 0.00248626 38.094C0.000473329 33.1858 0.000473329 28.2782 0.00248626 23.3714C0.00248626 22.7507 0.0400613 22.3518 0.115211 22.1747C0.42017 21.4561 1.00694 21.3846 1.76783 21.3896C6.4271 21.4171 9.70314 21.4192 11.596 21.3957C12.2609 21.387 12.7326 21.654 13.0111 22.1968Z" fill="#1152B8"/>
<path d="M34.3381 27.4373C34.7649 28.7216 34.9165 30.0253 34.7931 31.3484C34.7578 31.7289 34.6683 32.0832 34.5988 32.4525C34.5525 32.7021 34.4827 32.9635 34.3895 33.2366C33.5769 35.6205 32.0256 37.3953 29.7356 38.5608C29.4065 38.7278 29.0653 38.8345 28.7211 38.9694C28.4627 39.0714 28.1984 39.1472 27.928 39.1969C27.5314 39.2703 27.161 39.373 26.7544 39.4062C26.2324 39.4491 25.8429 39.4706 25.5859 39.4706C22.9946 39.4733 20.4197 39.474 17.8613 39.4726C17.3641 39.4726 16.9622 39.2975 16.6555 38.9473C16.516 38.7077 16.4462 38.4064 16.4462 38.0434C16.4408 32.9621 16.4405 27.9375 16.4452 22.9696C16.4452 22.5798 16.4911 22.2869 16.5831 22.091C16.7985 21.6313 17.2061 21.4012 17.8059 21.4005C20.6093 21.3945 23.2402 21.3945 25.6986 21.4005C27.5801 21.4052 29.2612 21.8954 30.742 22.871C31.929 23.652 32.9284 24.691 33.7403 25.988C33.8134 26.1041 33.8762 26.2299 33.9285 26.3654C33.9862 26.515 34.055 26.6563 34.1348 26.7891C34.1509 26.8153 34.158 26.8438 34.156 26.8747C34.1546 26.9049 34.1657 26.928 34.1892 26.9441C34.2247 26.969 34.2405 27.0032 34.2365 27.0468C34.2244 27.1817 34.2583 27.3118 34.3381 27.4373Z" fill="#0C79F1"/>
<path d="M13.0111 22.1968C13.2131 22.5095 13.3402 22.7262 13.3926 22.847C13.4677 23.0201 13.505 23.2408 13.5043 23.5092C13.4956 28.404 13.4966 33.4618 13.5073 38.6827C13.5093 39.6368 13.0786 40.2407 12.0228 40.2427C8.43773 40.2481 5.01541 40.2528 1.7558 40.2568C0.930501 40.2582 0.432635 39.8442 0.262207 39.0148C0.574212 39.3221 0.921778 39.4758 1.30491 39.4758C4.68529 39.4738 8.06534 39.4744 11.4451 39.4778C11.7037 39.4778 12.0509 39.4738 12.2774 39.3651C12.8115 39.1094 13.0785 38.6921 13.0785 38.113C13.0772 33.029 13.0779 27.9102 13.0806 22.7564C13.0806 22.5631 13.0473 22.385 13.0111 22.1968Z" fill="black"/>
<path d="M34.3379 27.4375C34.4922 27.6723 34.5942 27.9327 34.6438 28.2185C34.6492 28.2514 34.6626 28.2809 34.6841 28.3071C34.719 28.348 34.7421 28.3916 34.7535 28.4379C34.7911 28.5869 34.8368 28.7422 34.8904 28.9039C34.9193 28.9925 34.9347 29.0801 34.9367 29.1666C34.9387 29.2512 34.9629 29.3297 35.0092 29.4021C35.0151 29.41 35.0186 29.4198 35.0193 29.4303L35.1732 30.7961C35.1753 30.8142 35.185 30.8216 35.2024 30.8182C35.2138 30.8169 35.2222 30.8209 35.2276 30.8303C35.233 30.839 35.2356 30.8487 35.2356 30.8595C35.2625 31.5224 35.2246 32.14 35.1219 32.7124C35.079 32.9513 35.0233 33.2153 34.9548 33.5045C34.8958 33.7534 34.822 33.9976 34.7334 34.2372C33.5528 37.4337 30.8726 39.6198 27.503 40.1351C27.0132 40.2096 26.416 40.2475 25.7115 40.2488C23.3422 40.2515 20.9801 40.2515 18.6249 40.2488C17.8983 40.2478 17.385 40.2649 16.9864 39.7265C16.8502 39.5426 16.7398 39.2829 16.6553 38.9474C16.9619 39.2977 17.3638 39.4728 17.861 39.4728C20.4195 39.4742 22.9943 39.4735 25.5856 39.4708C25.8426 39.4708 26.2321 39.4493 26.7542 39.4064C27.1608 39.3732 27.5311 39.2705 27.9277 39.1971C28.1981 39.1474 28.4625 39.0716 28.7208 38.9696C29.065 38.8347 29.4062 38.728 29.7353 38.561C32.0254 37.3955 33.5767 35.6207 34.3892 33.2368C34.4825 32.9637 34.5523 32.7023 34.5986 32.4527C34.668 32.0833 34.7576 31.7291 34.7928 31.3486C34.9163 30.0255 34.7646 28.7218 34.3379 27.4375Z" fill="black"/>
</svg>
