<svg width="50" height="51" viewBox="0 0 50 51" fill="none" xmlns="http://www.w3.org/2000/svg">
<path fill-rule="evenodd" clip-rule="evenodd" d="M47.8005 25.9384C47.7957 26.0933 47.5854 26.1343 47.5246 25.9915C47.4986 25.9299 47.4719 25.8681 47.4448 25.8062C47.3952 25.6931 47.4091 25.5616 47.4831 25.4627C47.4984 25.4424 47.5295 25.4015 47.5668 25.3527C47.6668 25.2217 47.811 25.2412 47.811 25.3867C47.811 25.5776 47.8065 25.7428 47.8005 25.9384ZM46.6934 22.9076C46.523 23.2154 46.0859 23.2296 45.8966 22.9328C45.8672 22.8869 45.8376 22.8411 45.8078 22.795C45.1255 21.7448 44.3403 20.7139 43.4634 19.712C43.2481 19.466 43.4242 19.08 43.7507 19.0798H43.7586C45.8078 19.0798 46.882 19.5872 47.2099 20.2069C47.4836 20.7251 47.3997 21.6314 46.6934 22.9076ZM46.2355 33.6508C46.1256 33.9312 46.0105 34.2097 45.8896 34.4856C45.8708 34.5236 45.8531 34.5621 45.8336 34.5998C45.0793 36.0552 43.8137 37.2012 42.1225 37.9987C41.743 38.1775 41.3279 37.8294 41.4409 37.4247C42.0025 35.4097 42.4275 33.2245 42.7029 30.9336C42.7543 30.5065 42.9644 30.1143 43.2892 29.8328C43.9846 29.2296 44.6341 28.6273 45.2316 28.0292L45.2381 28.0224C45.5321 27.7284 46.0336 27.8549 46.1534 28.2538C46.7437 30.2209 46.7764 32.0531 46.2355 33.6508ZM41.6383 40.9256C41.4663 41.11 41.2906 41.2921 41.1117 41.4715C40.7999 41.7836 40.4808 42.0856 40.1547 42.3772C39.949 42.5609 39.638 42.3311 39.7544 42.0806C39.7875 42.0091 39.8205 41.9372 39.8533 41.8646C39.9903 41.5617 40.1226 41.251 40.2513 40.9344C40.2818 40.8598 40.346 40.804 40.424 40.784C40.7483 40.7015 41.0646 40.6104 41.3725 40.5108C41.6221 40.4303 41.8177 40.7336 41.6383 40.9256ZM38.2623 39.1067C37.5796 39.2059 36.8617 39.2699 36.1106 39.2965C34.278 39.3608 32.3403 39.2023 30.3498 38.8349C30.1072 38.7901 30.0605 38.4612 30.2805 38.3497C30.7147 38.1293 31.1491 37.904 31.5833 37.6734C34.629 36.055 37.4708 34.286 39.9584 32.4722C40.145 32.3362 40.4021 32.4967 40.3642 32.7249C40.0192 34.8035 39.5415 36.7603 38.9416 38.5365C38.8393 38.8391 38.5778 39.0608 38.2623 39.1067ZM37.5583 41.876C35.9253 45.0957 33.9142 46.9034 31.9648 46.867C29.8461 46.8292 27.7334 44.6172 26.1689 40.7988L26.1671 40.7946C26.0677 40.5522 26.1819 40.2747 26.4214 40.1704C26.438 40.163 26.4546 40.1558 26.4712 40.1484C26.5739 40.1036 26.6892 40.0955 26.7973 40.1261C29.7239 40.9495 32.6074 41.3791 35.309 41.3791C35.6026 41.3791 35.8941 41.3742 36.1832 41.3641C36.5217 41.3519 36.8547 41.3328 37.1819 41.3067C37.4854 41.2827 37.6964 41.604 37.5583 41.876ZM27.8884 47.9988C26.9175 48.1238 25.9323 48.1879 24.9374 48.1879C20.4914 48.1879 16.2389 46.9248 12.5879 44.5678C12.3367 44.4054 12.4435 44.0147 12.742 44.001C12.8039 43.998 12.8617 43.9949 12.9126 43.9917C13.8405 43.9313 14.8578 43.795 15.9601 43.5821C18.3049 43.1299 20.9114 42.3543 23.6406 41.3097C23.8853 41.2161 24.1585 41.3378 24.2581 41.5806L24.2599 41.5849C25.3175 44.1664 26.6192 46.1171 28.0808 47.358C28.3224 47.5633 28.2024 47.9583 27.8884 47.9988ZM14.6609 31.9319C16.6764 30.2866 19.0381 28.6448 21.6287 27.0905C21.6843 30.4122 22.0476 33.6013 22.6906 36.482C21.7298 36.0712 20.7719 35.6188 19.8223 35.1244C17.9831 34.1661 16.2526 33.0928 14.6609 31.9319ZM8.3926 40.8323C7.91176 39.9229 8.53322 37.8161 11.6903 34.6142C12.02 34.2803 11.99 33.7308 11.6219 33.4401C11.4955 33.3405 11.3699 33.2398 11.2452 33.1391C10.9307 32.8843 10.4757 32.9077 10.1902 33.1944C10.1276 33.2571 10.0809 33.3043 10.0673 33.3185C8.48904 34.9425 7.38449 36.4458 6.76571 37.7979C6.59033 38.181 6.06059 38.2224 5.82869 37.8708C3.37938 34.1589 2.06378 29.8095 2.06378 25.2567C2.06378 23.6291 2.23244 22.0274 2.56055 20.4715C2.61012 20.2361 2.94137 20.221 3.0109 20.4513C3.48546 22.022 4.25786 23.6467 5.32519 25.2896C6.7619 27.5015 8.65658 29.6278 10.9018 31.5783C11.6681 32.244 12.4776 32.8879 13.3217 33.5092C15.0329 34.768 16.8924 35.9298 18.8707 36.9602C19.7477 37.4171 20.6017 37.853 21.4764 38.2478C21.9633 38.4675 22.5175 38.4846 23.0145 38.289C23.4269 38.1271 23.8422 37.9587 24.2601 37.7835C24.7145 37.5935 24.9609 37.0969 24.8405 36.6182C24.8255 36.5584 24.8136 36.5103 24.8069 36.482C24.1181 33.5762 23.7353 30.305 23.6902 26.8787C23.6897 26.838 23.6886 26.7973 23.6882 26.7562C23.6862 26.5689 23.6873 26.3802 23.6839 26.1934C23.6828 26.1338 23.6846 26.0329 23.6853 25.9731C23.6857 25.9492 23.6853 25.9256 23.6853 25.902C23.6864 25.6875 23.6888 25.473 23.6927 25.2578C23.7032 24.6701 23.7243 24.0867 23.7546 23.5079C23.9669 19.3734 24.6651 15.4891 25.7777 12.2211C25.8807 11.9187 25.7199 11.5904 25.4182 11.4872C25.1242 11.3865 24.8304 11.2903 24.5371 11.1981C24.2403 11.1048 23.9232 11.2653 23.823 11.5605C22.617 15.1096 21.8729 19.3201 21.6744 23.7757C21.6491 24.341 21.3423 24.8554 20.8567 25.1439C18.2244 26.7078 15.8069 28.3658 13.7185 30.037C13.2834 30.3853 12.6619 30.372 12.2412 30.0062C10.148 28.1868 8.38632 26.2107 7.05458 24.1604C4.43751 20.1318 3.81559 16.3365 5.30388 13.4757C5.30792 13.469 5.31151 13.462 5.31532 13.4555C5.50506 13.1398 5.70242 12.8284 5.90786 12.5213C7.61796 10.252 10.8009 8.93691 15.0222 8.78829C15.2893 8.77884 15.5582 8.77412 15.8296 8.77412C18.4188 8.77412 21.1976 9.20244 24.0237 10.0199C24.0856 10.0379 24.1482 10.0559 24.2101 10.0741C24.2578 10.0883 24.3056 10.1016 24.3534 10.116C25.0065 10.3116 25.6613 10.5285 26.3171 10.7651C26.3324 10.7705 26.3479 10.7761 26.3631 10.7815C26.534 10.8433 26.7047 10.9067 26.8754 10.9712C26.9287 10.9915 26.9823 11.0119 27.0357 11.0326C27.0871 11.0524 27.1384 11.0715 27.19 11.0915C28.5702 11.6271 29.9486 12.2508 31.3104 12.9604C33.9463 14.3332 36.3591 15.9426 38.4587 17.7083C34.4516 18.6285 29.7938 20.4038 25.1108 22.7975C24.8948 22.9081 24.7526 23.1257 24.7389 23.3685C24.7225 23.6595 24.701 24.2445 24.6855 24.7095C24.6759 25.0013 24.9838 25.1947 25.2417 25.0589L25.2444 25.0573C29.8811 22.6165 34.5086 20.7921 38.4825 19.828C39.2253 19.6479 39.7061 18.9327 39.6018 18.1739C39.5287 17.6437 39.4464 17.1219 39.3554 16.6093C39.241 15.9653 38.8893 15.3895 38.3704 14.9933C36.5091 13.5719 34.4579 12.2681 32.262 11.1241C30.7822 10.3534 29.2807 9.67797 27.776 9.10194C27.4542 8.97873 27.3163 8.5974 27.4843 8.29589C29.0344 5.51578 30.8782 3.95878 32.6744 3.95878C32.6931 3.95878 32.7117 3.95878 32.7303 3.95923C34.849 3.99723 36.9617 6.20895 38.5262 10.0274C39.3181 11.9603 39.9318 14.1893 40.3512 16.6117L40.3446 16.6059C40.5236 17.6397 40.6678 18.7081 40.7748 19.8042C40.7656 19.81 40.7557 19.8152 40.7465 19.8211C40.7591 19.8339 40.7723 19.8467 40.7851 19.8597C40.9625 21.6989 41.0374 23.6141 41.0024 25.5683C40.9805 26.8045 40.9148 28.0236 40.8084 29.2163C37.9738 31.5128 34.4691 33.7983 30.6167 35.845C29.3507 36.5177 28.0849 37.1439 26.8314 37.7204C26.8119 37.7294 26.7926 37.7381 26.7731 37.7471C26.6773 37.791 26.5813 37.8355 26.4856 37.8789C25.4469 38.3499 24.4159 38.785 23.4042 39.1829C23.3471 39.2054 23.2908 39.2279 23.2338 39.2502C23.1627 39.278 23.0916 39.3055 23.0207 39.3329C22.851 39.3981 22.6819 39.4624 22.5132 39.5256C22.4668 39.5429 22.4201 39.5611 22.3737 39.5782C22.1689 39.6544 21.9653 39.7284 21.7623 39.8012C21.737 39.8102 21.7116 39.8199 21.6865 39.8289C19.5184 40.603 17.4522 41.1873 15.5701 41.5505C11.022 42.4282 8.8804 41.7548 8.3926 40.8323ZM11.6592 6.58039C15.5086 3.81691 20.1085 2.32579 24.9374 2.32579C26.2119 2.32579 27.4701 2.43034 28.703 2.63427C29.0331 2.6889 29.1439 3.11137 28.8806 3.31845C27.6859 4.25737 26.5759 5.64664 25.5936 7.44826C25.3539 7.88781 24.8454 8.10276 24.3646 7.96696C21.1101 7.0485 17.9082 6.61636 14.9497 6.72046C13.8584 6.75891 12.825 6.86975 11.8541 7.04917C11.5813 7.09953 11.4338 6.74204 11.6592 6.58039ZM43.0573 23.2925C43.0505 23.0297 43.3869 22.9175 43.539 23.1316C43.7258 23.3944 43.9059 23.6586 44.0784 23.9241C44.3076 24.2771 44.5209 24.6281 44.7191 24.9768C44.8427 25.1942 44.8131 25.4669 44.6449 25.6518C44.3778 25.9459 44.088 26.2498 43.7734 26.5651C43.6585 26.6799 43.5415 26.7951 43.4222 26.9104C43.2741 27.0538 43.0259 26.9446 43.0339 26.7382C43.0485 26.362 43.0593 25.9845 43.066 25.6052C43.0799 24.8282 43.0765 24.0568 43.0573 23.2925ZM40.6851 8.62551C40.8289 8.76221 40.9711 8.90116 41.1117 9.04213C43.3158 11.2518 45.0136 13.8339 46.1489 16.6459C46.2635 16.9294 46.0233 17.2262 45.723 17.172C45.0661 17.0538 44.3269 17.0009 43.5085 17.0146C42.9413 17.0241 42.4484 16.6257 42.3488 16.0658C41.904 13.5659 41.261 11.2566 40.4353 9.24111C40.3882 9.12622 40.3406 9.01268 40.2924 8.90026C40.1874 8.65496 40.492 8.44159 40.6851 8.62551ZM49.3363 20.0571C48.3508 15.3632 46.0336 11.0504 42.5708 7.57889C37.8608 2.85708 31.5986 0.256836 24.9374 0.256836C18.2764 0.256836 12.014 2.85708 7.30397 7.57889C6.15837 8.72736 5.13949 9.96823 4.25114 11.284C3.98694 11.6365 3.75033 12.0089 3.53996 12.3985C1.23239 16.2425 0 20.6548 0 25.2567C0 31.9346 2.59397 38.2125 7.30397 42.9343C12.014 47.6561 18.2764 50.2568 24.9374 50.2568C31.5986 50.2568 37.8608 47.6561 42.5708 42.9343C44.7938 40.706 46.5447 38.1307 47.7747 35.3306C47.9249 35.0203 48.0561 34.7026 48.1689 34.3786C49.2885 31.5106 49.875 28.429 49.875 25.2567C49.875 23.5106 49.696 21.7927 49.35 20.1219C49.3453 20.1003 49.341 20.0787 49.3363 20.0571Z" fill="black"/>
</svg>
