<svg width="48" height="41" viewBox="0 0 48 41" fill="none" xmlns="http://www.w3.org/2000/svg">
<path d="M37.8303 17.6566C37.5821 19.5589 37.1965 21.4407 36.6765 23.2873C35.1381 28.9488 29.5381 31.0103 24.1382 31.0257H8.30759C8.27683 31.0257 8.26144 31.0719 8.26144 31.1026L6.56915 40.1794C6.56915 40.2256 6.59992 40.2564 6.63069 40.2564H24.5536C26.3898 40.2651 28.2246 40.152 30.0458 39.9179C32.4765 39.5948 34.815 38.7948 37.015 37.5179C42.2149 34.518 45.1687 28.9796 46.5533 23.195C47.2302 20.3181 47.6302 17.5028 47.6764 14.7797C47.7841 10.8106 46.8764 6.68753 43.861 3.96448C41.5999 2.08188 38.8327 0.909701 35.9073 0.595294C34.4149 0.373579 32.9084 0.260462 31.3996 0.256836H13.5075C13.4768 0.256836 13.4614 0.256836 13.4614 0.302989L11.9999 9.4875H28.3843C30.8612 9.4875 35.3688 9.54903 36.8303 11.7644C37.938 13.4567 38.0457 15.7336 37.8149 17.6566H37.8303ZM4.86148 15.8105C2.70766 16.272 1.47691 17.8566 0.984604 20.072C0.624555 21.6653 0.296288 23.2656 0 24.8719H17.6921C18.3844 24.8719 18.9536 24.8412 19.4152 24.7642C20.3285 24.6409 21.1865 24.2556 21.8854 23.655C22.5844 23.0543 23.0943 22.264 23.3536 21.3797C23.5074 20.9335 23.6305 20.5181 23.7228 20.1028C24.0375 18.6201 24.3299 17.1328 24.5997 15.6413H6.21531C5.78455 15.6413 5.3384 15.7028 4.86148 15.7951V15.8105Z" fill="#008DE4"/>
</svg>
