<svg width="187" height="35" viewBox="0 0 187 35" fill="none" xmlns="http://www.w3.org/2000/svg">
<g opacity="0.5" clip-path="url(#clip0_148_1046)">
<path d="M12.4796 9.30078C5.17437 9.30078 0 14.6478 0 21.8202C0 28.9528 5.13135 34.2563 12.6087 34.2563C17.74 34.2563 22.5223 31.7769 24.3047 26.1249H17.8697C17.043 28.0374 14.9558 29.1254 12.5657 29.1254C9.34948 29.1254 6.74103 27.2129 6.35003 23.3879H24.6978C25.304 15.5175 20.392 9.30078 12.4796 9.30078ZM6.64912 18.8229C7.43218 16.2575 9.39037 14.4289 12.4339 14.4289C15.4344 14.4289 17.3894 16.2145 18.0864 18.8229H6.64912Z" fill="#2C2C2C"/>
<path d="M38.8228 28.5177C35.1689 28.5177 32.6465 25.7797 32.6895 21.7767C32.6465 17.8205 35.0801 15.0389 38.8658 15.0389C41.385 15.0389 43.6471 16.3 44.3855 18.909H50.7781C49.8654 12.822 44.691 9.30029 38.8658 9.30029C31.6472 9.30029 26.3862 14.6904 26.3862 21.7767C26.3862 28.8631 31.6456 34.2563 38.8223 34.2563C44.5598 34.2563 49.8192 30.9094 50.7754 24.6046H44.386C43.6487 27.2135 41.3855 28.5177 38.8228 28.5177Z" fill="#2C2C2C"/>
<path d="M77.5659 33.7356H69.6066L61.7559 24.4961H69.7735L77.5659 33.7356Z" fill="#2C2C2C"/>
<path d="M75.9 9.82199L64.9871 21.2131L60.8306 25.3605L58.9 27.2879V33.7357H52.6802V0.256836H58.9V19.7792L67.9876 9.82199H75.9Z" fill="#2C2C2C"/>
<path d="M86.9796 9.30079C83.6844 9.32229 80.5315 10.6464 78.209 12.9841C75.8865 15.3218 74.583 18.4832 74.583 21.7785C74.583 25.0738 75.8865 28.2353 78.209 30.573C80.5315 32.9107 83.6844 34.2348 86.9796 34.2563C93.9794 34.2563 99.4592 28.9969 99.4592 21.7767C99.4881 20.13 99.1851 18.4944 98.5681 16.9675C97.9512 15.4405 97.033 14.0534 95.8683 12.8891C94.7035 11.7247 93.3162 10.8069 91.7891 10.1904C90.2619 9.57391 88.6262 9.27135 86.9796 9.30079ZM86.9796 28.345C83.5015 28.345 80.8065 25.7334 80.8065 21.7772C80.8065 17.864 83.5015 15.212 86.9796 15.212C90.4577 15.212 93.1559 17.864 93.1559 21.7772C93.1564 25.7334 90.4582 28.3445 86.9796 28.3445V28.345Z" fill="#2C2C2C"/>
<path d="M112.755 3.4668C117.586 3.4668 121.554 4.86878 124.66 7.67272C127.766 10.4767 129.319 14.1145 129.319 18.5862C129.319 23.0582 127.766 26.7031 124.66 29.5209C121.554 32.3386 117.586 33.7477 112.755 33.748H102.101V3.4668H112.755ZM109.476 28.1402H112.755C115.573 28.1402 117.786 27.2776 119.395 25.5525C121.005 23.8273 121.81 21.5123 121.811 18.6074C121.811 15.7033 121.006 13.3882 119.395 11.6624C117.785 9.93654 115.571 9.0738 112.755 9.07415H109.476V28.1402Z" fill="#FF00B8"/>
<path d="M149.493 33.7482L147.811 28.6577H136.938L135.256 33.7482H127.408L137.933 3.38086H146.905L157.387 33.7482H149.493ZM138.798 23.0509H145.958L142.378 12.2666L138.798 23.0509Z" fill="#FF00B8"/>
<path d="M160.288 29.65C157.282 26.7164 155.78 23.0067 155.78 18.5208C155.781 14.035 157.283 10.3325 160.288 7.41346C163.269 4.60148 167.211 3.03516 171.309 3.03516C175.407 3.03516 179.349 4.60148 182.33 7.41346C185.305 10.3325 186.793 14.035 186.793 18.5208C186.793 23.0067 185.297 26.7164 182.306 29.65C179.336 32.4746 175.394 34.0497 171.296 34.0497C167.197 34.0497 163.255 32.4746 160.285 29.65H160.288ZM177.111 24.8618C178.563 23.2805 179.289 21.1668 179.289 18.5208C179.289 15.8749 178.563 13.7612 177.111 12.1798C175.554 10.6588 173.464 9.80725 171.288 9.80725C169.111 9.80725 167.021 10.6588 165.464 12.1798C164.012 13.7615 163.286 15.8752 163.286 18.5208C163.286 21.1665 164.012 23.2801 165.464 24.8618C167.021 26.3826 169.111 27.234 171.288 27.234C173.464 27.234 175.554 26.3826 177.111 24.8618Z" fill="#FF00B8"/>
</g>
<defs>
<clipPath id="clip0_148_1046">
<rect width="186.795" height="34" fill="white" transform="translate(0 0.256836)"/>
</clipPath>
</defs>
</svg>
