<svg width="50" height="51" viewBox="0 0 50 51" fill="none" xmlns="http://www.w3.org/2000/svg">
<path fill-rule="evenodd" clip-rule="evenodd" d="M16.0566 35.3727C15.7997 35.8865 15.2538 36.2076 14.6758 36.2076V36.2237H2.52089C0.899172 32.916 0 29.1909 0 25.2731C0 11.4483 11.2075 0.256836 25.0162 0.256836C32.1775 0.256836 38.6162 3.25942 43.1763 8.07641H31.4068C30.8287 8.07641 30.2988 8.39754 30.0259 8.91136L23.0413 22.142H14.0495C13.1985 22.142 12.4921 22.8324 12.4921 23.6995V26.8305C12.4921 27.6815 13.1825 28.388 14.0495 28.388H19.7336L16.0566 35.3727ZM33.9433 15.141C34.2002 14.6272 34.7462 14.3061 35.3242 14.3061V14.29H47.4791C49.1008 17.5977 50 21.3228 50 25.2406C50 39.0654 38.7924 50.2568 24.9837 50.2568C17.8225 50.2568 11.3838 47.2542 6.82371 42.4373H18.5932C19.1713 42.4373 19.7011 42.1161 19.9741 41.6023L26.9587 28.3717H35.9504C36.8014 28.3717 37.5079 27.6812 37.5079 26.8142V23.6831C37.5079 22.8321 36.8175 22.1256 35.9504 22.1256H30.2664L33.9433 15.141Z" fill="#9B1C2E"/>
</svg>
