<svg width="183" height="61" viewBox="0 0 183 61" fill="none" xmlns="http://www.w3.org/2000/svg">
<path d="M56.2578 41.2834V19.4214H59.6166V28.5072H60.1359C61.5011 27.0031 64.2183 23.9752 68.2916 19.4214H72.6893C71.0393 21.2316 67.7525 24.8191 62.8245 30.184C64.5336 32.0335 67.9454 35.7325 73.0553 41.2834H68.5043C67.1192 39.7378 64.33 36.6485 60.1359 32.0138H59.6166V41.2834H56.2578Z" fill="#0B1D2E"/>
<path d="M73.9707 41.2834C75.0092 37.6454 77.0867 30.3567 80.2003 19.4214H86.1558C87.1947 23.0592 89.2718 30.348 92.3855 41.2834H88.9039C88.6584 40.4305 88.1807 38.7125 87.4685 36.1304H78.8877C78.6643 36.983 78.1843 38.7015 77.4527 41.2834H73.9707ZM79.7425 33.0195H86.6141C86.0838 31.0891 85.0254 27.2567 83.439 21.5245H82.9198C82.3895 23.4352 81.3311 27.2676 79.7447 33.0195H79.7425Z" fill="#0B1D2E"/>
<path d="M94.5273 41.2834V19.4214H103.292C106.204 19.4214 108.433 20.1647 109.98 21.6469C111.546 23.1314 112.331 25.3569 112.331 28.3236V32.4095C112.331 35.3981 111.546 37.6236 109.98 39.0862C108.433 40.5486 106.202 41.2811 103.292 41.2811H94.5273V41.2834ZM97.9479 38.2336H103.323C105.216 38.2336 106.621 37.7569 107.539 36.8016C108.455 35.8265 108.913 34.3924 108.913 32.5014V28.2011C108.913 26.2904 108.455 24.8672 107.539 23.9315C106.623 22.998 105.218 22.5301 103.323 22.5301H97.9479V38.2336Z" fill="#0B1D2E"/>
<path d="M116.147 41.2834V19.4214H129.921V22.5017H119.507V28.752H129.067V31.8324H119.507V38.2355H130.075V41.2853H116.147V41.2834Z" fill="#0B1D2E"/>
<path d="M133.621 41.2834V19.4214H140.126C141.104 22.6941 143.078 29.2286 146.051 39.0273H146.571V19.4214H149.899V41.2834H143.394C142.416 38.0105 140.442 31.4651 137.469 21.6469H136.949V41.2834H133.621Z" fill="#0B1D2E"/>
<path d="M152.857 41.2834C153.896 37.6454 155.973 30.3567 159.087 19.4214H165.043C166.081 23.0592 168.159 30.348 171.272 41.2834H167.791C167.545 40.4305 167.067 38.7125 166.355 36.1304H157.774C157.551 36.983 157.071 38.7015 156.339 41.2834H152.857ZM158.629 33.0195H165.501C164.97 31.0891 163.912 27.2567 162.326 21.5245H161.806C161.276 23.4352 160.218 27.2676 158.631 33.0195H158.629Z" fill="#0B1D2E"/>
<path d="M49.7483 48.7169H36.3952L36.3864 48.7105L36.2812 48.6296L19.7334 35.7638L26.5063 30.353L49.6366 48.6296L49.7483 48.7169Z" fill="#4A9079"/>
<path d="M49.7483 11.9893H36.3952L36.3864 11.9958L36.2812 12.0767L19.7334 24.9424L26.5063 30.3532L49.6366 12.0767L49.7483 11.9893Z" fill="#4A9079"/>
<path d="M19.7355 31.1687V35.7509V35.7662L19.7377 48.6296V48.7173L19.729 48.7105L19.626 48.6296L11.5733 42.2897L11.5536 42.2745L11.4375 42.1849V18.5216L11.5536 18.4319L11.5733 18.4166L19.626 12.0767L19.729 11.9958L19.7377 11.9893V12.0767L19.7355 24.9402V24.9555V30.3532V31.1687Z" fill="#4A9079"/>
</svg>
