<svg width="36" height="36" viewBox="0 0 36 36" fill="none" xmlns="http://www.w3.org/2000/svg">
<rect x="0.48744" y="0.48744" width="35.0251" height="35.0251" rx="17.5126" stroke="#98A7B9" stroke-opacity="0.25" stroke-width="0.97488"/>
<path d="M17.9998 10.6667C13.9497 10.6667 10.6665 13.9499 10.6665 18C10.6665 22.0501 13.9497 25.3333 17.9998 25.3333C21.5946 25.3333 24.5852 22.7468 25.2123 19.3333M14.9003 24.4165C14.9599 22.477 15.5205 19.2683 17.6317 20.6622C20.2707 22.4046 19.713 21.9101 21.1734 21.6112C22.3418 21.3721 23.3775 21.9717 23.7492 22.3014M11.6402 21.1273C11.6844 20.1038 12.1166 17.804 13.492 16.7922C15.2112 15.5274 17.0568 16.367 15.6888 11.1692M23.3332 14L21.6177 15.2964C21.5526 15.3456 21.4471 15.3456 21.382 15.2964L20.6665 14.7557M25.3332 14.6667C25.3332 16.5076 23.8408 18 21.9998 18C20.1589 18 18.6665 16.5076 18.6665 14.6667C18.6665 12.8257 20.1589 11.3333 21.9998 11.3333C23.8408 11.3333 25.3332 12.8257 25.3332 14.6667Z" stroke="#98A7B9" stroke-linecap="round"/>
</svg>
