<svg width="38" height="40" viewBox="0 0 38 40" fill="none" xmlns="http://www.w3.org/2000/svg">
<path d="M37.5361 0.849954C37.4541 1.14477 37.3617 1.43654 37.2921 1.7344C37.0222 2.88873 36.5028 3.90933 35.6791 4.77979C34.7968 5.71165 33.7512 6.35173 32.4956 6.6897C31.8111 6.87388 31.1321 6.98086 30.4248 6.98451C27.1396 6.99971 23.8551 7.0301 20.5705 7.05077C19.5496 7.05745 18.5287 7.05198 17.4412 7.05198C18.1781 7.48357 18.8565 7.83856 19.4886 8.26042C20.9759 9.25306 21.9568 10.6104 22.4109 12.3367C22.597 13.0455 22.7633 13.7506 22.775 14.488C22.7855 15.1505 22.8397 15.8131 22.8409 16.4757C22.8471 20.8845 22.8428 25.2934 22.8453 29.7028C22.8453 30.5824 22.857 31.4613 22.8668 32.3403C22.873 32.8953 22.8483 33.4539 22.9032 34.0046C23.0172 35.145 23.2642 36.2483 24.1564 37.0829C24.7731 37.6597 25.5525 37.9333 26.3442 38.174C26.6745 38.2743 27.0084 38.3636 27.3861 38.4706C27.0102 38.6919 26.6627 38.9502 26.274 39.1113C25.6677 39.3624 25.0417 39.5769 24.4084 39.7502C23.9888 39.8651 23.5409 39.8784 23.1059 39.9404C23.0141 39.9538 22.9241 39.9799 22.8329 40H22.5871C22.5477 39.9799 22.5076 39.941 22.4682 39.9423C21.4319 39.9647 20.4547 39.6863 19.5065 39.3241C18.4917 38.9368 17.5805 38.3831 16.8325 37.5764C16.0999 36.7856 15.6151 35.8756 15.3988 34.8374C15.2842 34.2879 15.214 33.7189 15.2127 33.1585C15.1979 24.5828 15.1979 16.0064 15.1942 7.43068C15.1942 7.32188 15.1942 7.21307 15.1942 7.07508H0.0333139C-0.0424692 6.3888 0.00990124 5.73778 0.202131 5.10682C0.791761 3.16774 1.97225 1.69063 3.79413 0.743578C4.36712 0.445725 4.99741 0.294367 5.64619 0.243914C6.4607 0.180088 7.27522 0.110792 8.09097 0.0645943C8.75145 0.0269067 9.41316 0.00320007 10.0749 0.00320007C19.2286 -0.00105497 28.3823 0.000160757 37.5361 0.000160757V0.849954Z" fill="black"/>
</svg>
