<svg width="40" height="40" viewBox="0 0 40 40" fill="none" xmlns="http://www.w3.org/2000/svg">
<path d="M14.1317 24.7989H18.0277C19.1344 24.7977 20.2271 24.5518 21.2277 24.0789C22.178 23.606 23.0272 22.9525 23.7277 22.1549C24.4263 21.3263 24.9685 20.3775 25.3277 19.3549C25.7101 18.3301 25.9052 17.2448 25.9037 16.1509C25.9098 15.0781 25.6975 14.0152 25.2797 13.0269C24.8749 12.0262 24.3058 11.1001 23.5957 10.2869C22.8794 9.47369 22.0146 8.80441 21.0477 8.31495C20.0584 7.8052 18.9606 7.54175 17.8477 7.54695H7.5957V32.3989H14.1317V24.7989ZM14.1317 13.5469H17.4517C17.9114 13.5788 18.3411 13.7865 18.6517 14.1269C19.0517 14.5269 19.2757 15.1829 19.2757 16.2389C19.2757 17.2949 19.0357 17.9229 18.6997 18.2389C18.5684 18.4095 18.4018 18.5497 18.2112 18.6498C18.0206 18.7499 17.8107 18.8076 17.5957 18.8189H14.1317V13.5469Z" fill="#348AFF"/>
<path d="M0 2.29601V37.704C-1.83433e-06 38.0062 0.0596523 38.3054 0.175537 38.5845C0.291422 38.8636 0.461256 39.117 0.675308 39.3303C0.889359 39.5437 1.14341 39.7126 1.4229 39.8275C1.70239 39.9424 2.00181 40.001 2.304 40H37.708C38.3173 40 38.9017 39.7582 39.3329 39.3277C39.7641 38.8973 40.0069 38.3133 40.008 37.704V2.29601C40.0074 1.99364 39.9473 1.69433 39.831 1.41522C39.7147 1.13611 39.5444 0.882677 39.3301 0.669421C39.1157 0.456166 38.8614 0.287272 38.5817 0.172408C38.302 0.0575432 38.0024 -0.00103827 37.7 1.39384e-05H2.304C2.00181 -0.00103899 1.70239 0.0575722 1.4229 0.172485C1.14341 0.287399 0.889359 0.456353 0.675308 0.669661C0.461256 0.882969 0.291422 1.13643 0.175537 1.41552C0.0596523 1.69461 -1.83433e-06 1.99382 0 2.29601ZM32.988 35.288H6.96C6.35069 35.288 5.76628 35.0462 5.33506 34.6158C4.90385 34.1853 4.66106 33.6013 4.66 32.992V6.96001C4.66106 6.35071 4.90385 5.76672 5.33506 5.33625C5.76628 4.90578 6.35069 4.66401 6.96 4.66401H32.988C33.2898 4.66349 33.5888 4.72249 33.8678 4.83763C34.1469 4.95278 34.4005 5.12182 34.6141 5.33508C34.8277 5.54833 34.9972 5.80162 35.1128 6.08045C35.2285 6.35927 35.288 6.65816 35.288 6.96001V32.992C35.288 33.2938 35.2285 33.5927 35.1128 33.8716C34.9972 34.1504 34.8277 34.4037 34.6141 34.6169C34.4005 34.8302 34.1469 34.9992 33.8678 35.1144C33.5888 35.2295 33.2898 35.2885 32.988 35.288Z" fill="#348AFF"/>
<path d="M32.3995 27.7422H17.0635V32.4542H32.3995V27.7422Z" fill="#348AFF"/>
</svg>
