<svg width="51" height="50" viewBox="0 0 51 50" fill="none" xmlns="http://www.w3.org/2000/svg">
<path d="M31.4217 1.25C31.4217 1.25 31.422 1.1286 31.4221 0.887208C31.4224 0.64582 31.3236 0.41479 31.1485 0.247482C30.9734 0.0801731 30.7374 -0.00894529 30.4948 0.000710334C20.7428 0.480183 12.9684 8.27444 12.5682 17.9729C12.5671 18.1833 12.6531 18.3848 12.8061 18.5301C12.959 18.6754 13.1654 18.7519 13.3767 18.7413H14.8628C15.3217 18.7453 15.7039 18.3926 15.7338 17.9375C16.1548 9.94428 22.5793 3.55751 30.6196 3.13891C31.2319 3.06208 31.4217 2.72816 31.4217 2.32334C31.4217 1.9185 31.4217 1.25 31.4217 1.25ZM18.641 18.7563C19.009 18.7562 19.1314 18.7548 19.583 18.7561C20.0348 18.7573 20.4108 18.4119 20.4451 17.9641C20.8355 12.5166 25.2094 8.19106 30.691 7.83144C31.1216 7.80142 31.4477 7.43244 31.4221 7.00405V5.57679C31.4169 5.33739 31.3144 5.11032 31.138 4.94724C30.9616 4.78415 30.7264 4.69894 30.4858 4.71097C23.4047 5.17686 17.7645 10.7827 17.2943 17.8223C17.2822 18.0614 17.3679 18.2952 17.532 18.4706C17.696 18.6459 17.9244 18.751 18.1652 18.7563C18.406 18.7615 18.4553 18.7563 18.641 18.7563ZM31.4221 10.2841V11.7173C31.4182 12.1458 31.0901 12.5024 30.6612 12.5447C27.7985 12.8932 25.54 15.1311 25.1802 17.9759C25.1255 18.4135 24.7556 18.7447 24.3122 18.7531H23.0667C22.3891 18.7531 21.9818 18.3158 22.0324 17.8104C22.4843 13.3738 26.0141 9.86595 30.477 9.41828C30.7205 9.39754 30.9616 9.47952 31.1414 9.64419C31.3212 9.80886 31.423 10.0411 31.4221 10.2841ZM47.9428 31.2202C47.5356 31.2202 47.1998 31.0251 47.1224 30.4164C46.7066 22.4133 40.2722 16.0178 32.2217 15.606C31.764 15.5763 31.4091 15.1963 31.4133 14.7402V13.2627C31.4027 13.0526 31.4794 12.8475 31.6256 12.6954C31.7718 12.5434 31.9745 12.4578 32.1861 12.4589C41.9429 12.8553 49.7848 20.5846 50.2672 30.2806C50.2777 30.5191 50.1908 30.7519 50.0263 30.926C49.8618 31.1001 49.6336 31.2009 49.3933 31.2055L47.9428 31.2202ZM31.4221 18.0439C31.4275 17.8039 31.5303 17.5764 31.7074 17.4133C31.8844 17.2501 32.1204 17.1652 32.3615 17.1781C39.4404 17.6452 45.0785 23.249 45.55 30.2864C45.563 30.5261 45.4776 30.7607 45.3135 30.9366C45.1494 31.1126 44.9204 31.2149 44.6791 31.2202H43.2434C42.8093 31.2455 42.4366 30.916 42.4112 30.4844C42.0467 25.0384 37.698 20.6937 32.2217 20.3045C31.7714 20.2704 31.4239 19.8965 31.4252 19.4475L31.4221 18.0439ZM39.5861 31.2209C39.5861 31.2209 38.9275 31.2248 38.4965 31.2209C38.0655 31.2169 37.7067 30.8872 37.6642 30.4608C37.3133 27.6138 35.0608 25.3683 32.198 25.0118C31.7578 24.9575 31.4246 24.5898 31.4162 24.1489V22.7541C31.4153 22.5106 31.5175 22.2778 31.698 22.1131C31.8785 21.9483 32.1204 21.8668 32.3644 21.8884C36.8274 22.336 40.3572 25.8439 40.809 30.2806C40.8299 30.5226 40.7474 30.7624 40.5817 30.9411C40.4162 31.1198 40.1825 31.2211 39.9381 31.2202L39.5861 31.2209ZM2.31635 18.7501C2.72357 18.7501 3.05946 18.9451 3.13674 19.5539C3.553 27.5603 9.9924 33.9569 18.0463 34.3644C18.5041 34.394 18.8589 34.774 18.8548 35.2301V36.7076C18.8655 36.9177 18.7887 37.1228 18.6425 37.2749C18.4962 37.427 18.2935 37.5124 18.082 37.5114C8.32515 37.115 0.483261 29.3858 0.000845588 19.6898C-0.00961029 19.4512 0.0772548 19.2184 0.241762 19.0444C0.406269 18.8702 0.634493 18.7695 0.874733 18.7649L2.31635 18.7501ZM18.8459 31.9146C18.8406 32.1546 18.7378 32.3821 18.5607 32.5452C18.3837 32.7085 18.1476 32.7933 17.9066 32.7805C10.832 32.3124 5.19663 26.7138 4.72102 19.681C4.7081 19.4413 4.79344 19.2068 4.95758 19.0308C5.12172 18.8548 5.3506 18.7524 5.59194 18.7472H7.02762C7.4618 18.722 7.83438 19.0513 7.85989 19.4829C8.2227 24.9291 12.5702 29.2751 18.0463 29.6659C18.4967 29.6999 18.8442 30.0738 18.843 30.5228L18.8459 31.9146ZM10.3181 18.7501H11.7597C12.1907 18.7541 12.5495 19.0802 12.5919 19.5066C12.9428 22.3536 15.1955 24.599 18.0583 24.9557C18.4984 25.0099 18.8315 25.3776 18.8399 25.8185V27.2162C18.8383 27.4571 18.7358 27.6864 18.5569 27.849C18.3781 28.0116 18.1392 28.0928 17.8977 28.0732C13.4348 27.6254 9.90499 24.1176 9.45311 19.681C9.43495 19.4413 9.5178 19.2049 9.68184 19.0284C9.84588 18.8519 10.0763 18.7511 10.3181 18.7501ZM18.843 47.6884C18.843 47.2835 19.0391 46.9496 19.6514 46.8729C27.7019 46.461 34.1363 40.0656 34.5521 32.0624C34.582 31.6072 34.9643 31.2545 35.423 31.2586H36.9092C37.1206 31.2481 37.3269 31.3245 37.4799 31.4698C37.6328 31.6151 37.7189 31.8166 37.7178 32.027C37.3175 41.7265 29.5413 49.5212 19.7881 49.9992C19.5482 50.0096 19.314 49.9232 19.1388 49.7597C18.9637 49.5961 18.8623 49.3693 18.8578 49.1305L18.843 47.6884ZM32.0969 31.2557C32.3382 31.2609 32.5672 31.3633 32.7313 31.5393C32.8954 31.7152 32.9808 31.9498 32.9678 32.1895C32.4963 39.2269 26.8582 44.8307 19.7793 45.2979C19.5382 45.3107 19.3022 45.2258 19.1251 45.0626C18.9481 44.8995 18.8453 44.6719 18.8399 44.432V43.0047C18.8146 42.5731 19.1459 42.2027 19.5801 42.1773C25.0584 41.8167 29.4299 37.4947 29.8231 32.0506C29.8573 31.6028 30.2334 31.2573 30.6851 31.2586L32.0969 31.2557ZM18.8489 39.7247V38.2915C18.8528 37.8631 19.1809 37.5063 19.6098 37.4641C22.4726 37.1156 24.731 34.8777 25.091 32.0328C25.1455 31.5952 25.5154 31.264 25.9589 31.2557H27.2043C27.8821 31.2557 28.2892 31.693 28.2387 32.1983C27.7869 36.6349 24.2571 40.1428 19.7941 40.5905C19.5506 40.6112 19.3094 40.5293 19.1296 40.3646C18.9499 40.1999 18.848 39.9677 18.8489 39.7247ZM18.8489 47.6884C18.8489 47.2835 19.045 46.9496 19.6573 46.8729C27.7079 46.461 34.1422 40.0656 34.5581 32.0624C34.588 31.6072 34.9702 31.2545 35.4289 31.2586H36.9151C37.1265 31.2481 37.3329 31.3245 37.4858 31.4698C37.6388 31.6151 37.7248 31.8166 37.7237 32.027C37.3234 41.7265 29.5472 49.5212 19.7941 49.9992C19.5541 50.0096 19.32 49.9232 19.1448 49.7597C18.9696 49.5961 18.8683 49.3693 18.8638 49.1305L18.8489 47.6884ZM32.1028 31.2557C32.3442 31.2609 32.5731 31.3633 32.7372 31.5393C32.9013 31.7152 32.9867 31.9498 32.9738 32.1895C32.5022 39.2269 26.8641 44.8307 19.7852 45.2979C19.5441 45.3107 19.3082 45.2258 19.1312 45.0626C18.9541 44.8995 18.8512 44.6719 18.8459 44.432V43.0047C18.8206 42.5731 19.1519 42.2027 19.5861 42.1773C25.0643 41.8167 29.4359 37.4947 29.829 32.0506C29.8632 31.6028 30.2393 31.2573 30.691 31.2586L32.1028 31.2557ZM18.8489 39.7247V38.2915C18.8528 37.8631 19.1809 37.5063 19.6098 37.4641C22.4726 37.1156 24.731 34.8777 25.091 32.0328C25.1455 31.5952 25.5154 31.264 25.9589 31.2557H27.2043C27.8821 31.2557 28.2892 31.693 28.2387 32.1983C27.7869 36.6349 24.2571 40.1428 19.7941 40.5905C19.5506 40.6112 19.3094 40.5293 19.1296 40.3646C18.9499 40.1999 18.848 39.9677 18.8489 39.7247Z" fill="#FF5C00"/>
</svg>
