<svg width="46" height="50" viewBox="0 0 46 50" fill="none" xmlns="http://www.w3.org/2000/svg">
<path d="M45.5591 37.6428C46.0776 36.2429 46.1027 34.968 45.6343 33.818C45.1994 32.7514 44.3631 31.8515 43.1253 31.1182C41.9711 30.4516 40.5744 29.9683 38.9352 29.6683C37.4464 29.4016 35.8239 29.285 34.0676 29.3183C32.3781 29.3683 30.7389 29.5516 29.1498 29.8683C27.6277 30.1849 26.2895 30.5849 25.1353 31.0682C23.9979 31.5515 23.1114 32.0765 22.4757 32.6431C21.8401 33.2431 21.5056 33.8597 21.4721 34.493C21.4219 35.243 21.8067 36.0513 22.6263 36.9179C23.379 37.7178 24.4328 38.5011 25.7877 39.2677C27.1426 40.0344 28.6397 40.6927 30.2789 41.2426C32.0352 41.8259 33.7665 42.2009 35.4727 42.3676C36.5766 42.4676 37.6054 42.4842 38.5588 42.4176C39.5959 42.3176 40.5577 42.1009 41.4442 41.7676C42.3976 41.4009 43.2089 40.8926 43.878 40.2427C44.6307 39.5261 45.1911 38.6594 45.5591 37.6428ZM35.0712 33.718C35.6399 34.018 36.0581 34.3847 36.3257 34.818C36.5934 35.3013 36.6519 35.8513 36.5014 36.4679C36.3843 36.9012 36.1919 37.2762 35.9243 37.5928C35.6734 37.8761 35.3388 38.1011 34.9207 38.2678C34.5694 38.4178 34.1429 38.5261 33.641 38.5928C33.156 38.6428 32.6709 38.6511 32.1858 38.6178C31.3327 38.5678 30.396 38.4011 29.3756 38.1178C28.4891 37.8511 27.636 37.5178 26.8164 37.1179C26.0637 36.7512 25.4448 36.3679 24.9597 35.9679C24.4913 35.5513 24.2655 35.1846 24.2823 34.868C24.3157 34.6013 24.5081 34.343 24.8593 34.093C25.2106 33.8597 25.6957 33.6514 26.3146 33.4681C26.9335 33.2681 27.6193 33.1181 28.372 33.0181C29.2251 32.9181 30.0364 32.8681 30.8058 32.8681C31.6589 32.8848 32.4283 32.9514 33.1141 33.0681C33.8501 33.2181 34.5025 33.4347 35.0712 33.718Z" fill="url(#paint0_linear_148_1468)"/>
<path d="M33.0639 7.49457C32.997 5.69468 32.5454 4.19476 31.709 2.99483C30.8225 1.67824 29.5178 0.778289 27.7949 0.294983C27.4102 0.178323 27.0004 0.0949946 26.5655 0.0449974C26.1808 -0.00499972 25.7877 -0.0133326 25.3862 0.0199989C25.0182 0.0199989 24.6502 0.0616632 24.2822 0.144992C23.9644 0.211655 23.6132 0.319982 23.2284 0.469973C21.9906 0.953279 20.8699 1.80323 19.8663 3.01983C18.9296 4.11977 18.1267 5.48636 17.4576 7.1196C16.8722 8.50285 16.4038 10.0194 16.0525 11.6693C15.718 13.2192 15.4922 14.7942 15.3751 16.3941C15.2747 17.844 15.2664 19.2356 15.35 20.5688C15.4504 21.8854 15.6344 23.077 15.902 24.1436C16.4373 26.3268 17.2569 27.6684 18.3609 28.1684C18.4612 28.2184 18.5616 28.2601 18.6619 28.2934L19.3143 28.3934C19.3979 28.3934 19.5234 28.3851 19.6907 28.3684C20.3932 28.3017 21.1877 28.0101 22.0743 27.4934C22.9273 26.9768 23.8222 26.2685 24.759 25.3686C25.7626 24.4019 26.7327 23.277 27.6695 21.9938C28.6564 20.6605 29.5345 19.2522 30.304 17.769C31.2072 16.0191 31.9014 14.3025 32.3865 12.6193C32.8883 10.7694 33.1141 9.06115 33.0639 7.49457ZM23.5044 11.5443C23.6717 11.5777 23.8139 11.6193 23.931 11.6693C25.2859 12.136 25.98 13.2109 26.0135 14.8942C26.0302 16.2774 25.6037 17.869 24.7339 19.6689C24.0146 21.1688 23.1532 22.4854 22.1495 23.6187C21.2128 24.6853 20.4267 25.2519 19.791 25.3186L19.6656 25.3436L19.4398 25.3186L19.3143 25.2686C18.8459 25.0519 18.5198 24.3436 18.3358 23.1437C18.1518 21.9271 18.1601 20.5355 18.3609 18.9689C18.5783 17.219 18.9881 15.6858 19.5903 14.3692C20.3096 12.8026 21.1961 11.8777 22.2499 11.5943C22.4339 11.5443 22.5677 11.5193 22.6513 11.5193C22.7852 11.5027 22.919 11.4943 23.0528 11.4943C23.1866 11.4943 23.3372 11.511 23.5044 11.5443Z" fill="url(#paint1_linear_148_1468)"/>
<path d="M0.998219 16.769C0.797494 17.0356 0.630224 17.3273 0.496407 17.6439C0.345864 18.0273 0.237138 18.4189 0.17023 18.8189C-0.181038 20.4521 0.011323 22.0354 0.747313 23.5686C1.34949 24.8352 2.31966 26.0268 3.65782 27.1434C4.84544 28.1267 6.1836 28.9266 7.67231 29.5433C9.17774 30.1599 10.4908 30.4432 11.6115 30.3932C11.829 30.3932 12.0632 30.3682 12.3141 30.3182C12.565 30.2682 12.7741 30.2016 12.9413 30.1182C13.1086 30.0349 13.2675 29.9266 13.4181 29.7933C13.5686 29.6599 13.6857 29.5099 13.7693 29.3433C14.1708 28.5767 14.062 27.3934 13.4431 25.7935C12.8075 24.2436 11.8457 22.652 10.5577 21.0187C9.21956 19.3188 7.82285 17.9773 6.3676 16.994C4.79526 15.944 3.46546 15.5524 2.3782 15.819C2.11057 15.8857 1.85966 16.0024 1.62548 16.169C1.3913 16.319 1.18222 16.519 0.998219 16.769ZM4.71162 21.7437C4.79526 21.5937 4.87889 21.4771 4.96253 21.3937C5.04616 21.3104 5.14653 21.2354 5.26362 21.1687C5.39743 21.1187 5.51452 21.0854 5.61488 21.0687C6.15015 20.9688 6.82759 21.2021 7.64722 21.7687C8.38321 22.252 9.1192 22.9353 9.85519 23.8186C10.5243 24.6185 11.0595 25.4018 11.461 26.1685C11.8457 26.9517 11.9628 27.5017 11.8123 27.8184C11.7788 27.885 11.737 27.935 11.6868 27.9684C11.6366 28.035 11.5781 28.0767 11.5112 28.0933C11.4777 28.1267 11.4108 28.1517 11.3104 28.1683L11.0344 28.2183C10.4992 28.2517 9.80501 28.1017 8.95193 27.7684C8.11558 27.4351 7.32941 26.9934 6.59342 26.4434C5.80724 25.8601 5.2218 25.2268 4.83708 24.5436C4.40217 23.7603 4.30181 22.977 4.53599 22.1937C4.58617 22.027 4.64471 21.877 4.71162 21.7437Z" fill="url(#paint2_linear_148_1468)"/>
<path d="M17.1818 37.0679H17.0815C16.5629 37.0512 16.0862 37.2262 15.6513 37.5928C15.2499 37.9428 14.907 38.4428 14.6226 39.0927C14.3717 39.676 14.1961 40.3343 14.0957 41.0676C13.9953 41.8009 13.9786 42.5426 14.0455 43.2925C14.1793 44.8758 14.6477 46.2173 15.4506 47.3173C16.3873 48.5839 17.692 49.4172 19.3647 49.8171H19.4149L19.5654 49.8671H19.6407C21.464 50.2171 22.685 49.8755 23.3039 48.8422C23.5883 48.3589 23.7305 47.7423 23.7305 46.9923C23.7137 46.2757 23.5799 45.4924 23.329 44.6424C23.0781 43.7758 22.7269 42.9092 22.2752 42.0426C21.8236 41.1593 21.3134 40.3593 20.7447 39.6427C20.1425 38.8928 19.5404 38.2928 18.9382 37.8428C18.3025 37.3762 17.7171 37.1179 17.1818 37.0679ZM16.4793 40.1677C16.7469 39.4344 17.0898 39.0844 17.508 39.1177H17.5331C17.9513 39.1677 18.4447 39.6011 19.0134 40.4177C19.5822 41.2343 20.0087 42.0926 20.2931 42.9925C20.6109 43.9758 20.6778 44.7591 20.4938 45.3424C20.2763 45.959 19.7411 46.209 18.888 46.0924H18.8629L18.8378 46.0674H18.7625C17.9262 45.9007 17.2822 45.4674 16.8306 44.7674C16.4458 44.1341 16.2284 43.3675 16.1782 42.4676C16.128 41.5843 16.2284 40.8176 16.4793 40.1677Z" fill="url(#paint3_linear_148_1468)"/>
<path d="M11.0343 34.7931C10.8838 34.6764 10.6998 34.5764 10.4824 34.4931C10.2649 34.4098 10.0391 34.3514 9.80491 34.3181C9.58746 34.2681 9.35328 34.2348 9.10238 34.2181C8.38311 34.2014 7.68058 34.3098 6.99477 34.5431C6.32569 34.7597 5.78206 35.0847 5.36388 35.518C4.9457 35.9847 4.74498 36.5013 4.76171 37.0679C4.77843 37.6846 5.07116 38.3512 5.63988 39.0678C5.79042 39.2511 5.97442 39.4511 6.19187 39.6678C6.35914 39.8344 6.5515 39.9844 6.76895 40.1178C6.93622 40.2178 7.12022 40.3094 7.32095 40.3927C7.55512 40.4761 7.73912 40.5177 7.87294 40.5177C8.47511 40.6011 9.06056 40.4761 9.62928 40.1428C10.1813 39.8261 10.658 39.3761 11.0594 38.7928C11.4776 38.1929 11.7369 37.5762 11.8372 36.9429C11.9376 36.243 11.8122 35.668 11.4609 35.218C11.3271 35.0514 11.1849 34.9097 11.0343 34.7931ZM10.5325 35.818C10.6831 36.018 10.7165 36.2846 10.6329 36.618C10.566 36.9346 10.4154 37.2596 10.1813 37.5929C9.94709 37.9096 9.67946 38.1595 9.37837 38.3429C9.06056 38.5429 8.75111 38.6262 8.45002 38.5928L8.17402 38.5429C8.07366 38.5095 7.98166 38.4595 7.89803 38.3929C7.83112 38.3595 7.73912 38.2929 7.62203 38.1929C7.55512 38.1262 7.47149 38.0345 7.37113 37.9179C7.07004 37.5346 6.95295 37.1846 7.01986 36.8679C7.05331 36.5846 7.22895 36.3346 7.54676 36.118C7.83112 35.918 8.17402 35.768 8.57547 35.668C8.97692 35.568 9.36164 35.5264 9.72964 35.543L10.0056 35.568L10.2315 35.618C10.2984 35.6514 10.3569 35.6847 10.4071 35.718L10.5325 35.818Z" fill="url(#paint4_linear_148_1468)"/>
<path d="M26.0384 9.59446C28.3802 9.59446 30.6551 9.87777 32.863 10.4444C33.0303 9.39447 33.0972 8.41119 33.0638 7.49457C32.9969 5.69468 32.5452 4.19476 31.7089 2.99483C30.8223 1.67824 29.5176 0.778289 27.7947 0.294983C27.41 0.178323 27.0002 0.0949946 26.5653 0.0449974C26.1806 -0.00499972 25.7875 -0.0133326 25.386 0.0199989C25.0181 0.0199989 24.6501 0.0616632 24.2821 0.144992C23.9642 0.211655 23.613 0.319982 23.2283 0.469973C21.9905 0.953279 20.8697 1.80323 19.8661 3.01983C18.9294 4.11977 18.1265 5.48636 17.4574 7.1196C16.9054 8.45285 16.4538 9.87777 16.1025 11.3944C19.264 10.1944 22.5759 9.59446 26.0384 9.59446Z" fill="url(#paint5_linear_148_1468)"/>
<path d="M0.17023 18.8189C-0.181038 20.4521 0.011323 22.0354 0.747313 23.5686C0.998218 24.1019 1.30767 24.6102 1.67566 25.0935C2.84656 22.227 4.57781 19.6438 6.86941 17.344C6.73559 17.244 6.56832 17.1273 6.3676 16.994C4.79526 15.944 3.46546 15.5524 2.3782 15.819C2.11057 15.8857 1.85966 16.0024 1.62548 16.169C1.3913 16.319 1.18222 16.519 0.998218 16.769C0.797494 17.0356 0.630224 17.3273 0.496407 17.6439C0.345864 18.0273 0.237138 18.4189 0.17023 18.8189Z" fill="url(#paint6_linear_148_1468)"/>
<defs>
<linearGradient id="paint0_linear_148_1468" x1="29.0941" y1="-21.2745" x2="42.2873" y2="-21.2745" gradientUnits="userSpaceOnUse">
<stop stop-color="#1F2022"/>
<stop offset="1" stop-color="#635E69"/>
</linearGradient>
<linearGradient id="paint1_linear_148_1468" x1="20" y1="28.75" x2="27.5" y2="-1.25" gradientUnits="userSpaceOnUse">
<stop stop-color="#2087E2"/>
<stop offset="1" stop-color="#B63FFF"/>
</linearGradient>
<linearGradient id="paint2_linear_148_1468" x1="15.4694" y1="0.114553" x2="30.1842" y2="0.114553" gradientUnits="userSpaceOnUse">
<stop stop-color="#100F0F"/>
<stop offset="1" stop-color="#49261F"/>
</linearGradient>
<linearGradient id="paint3_linear_148_1468" x1="-14.2165" y1="-36.6269" x2="-14.2165" y2="-49.5601" gradientUnits="userSpaceOnUse">
<stop stop-color="#222020"/>
<stop offset="1" stop-color="#49261F"/>
</linearGradient>
<linearGradient id="paint4_linear_148_1468" x1="-4.97247" y1="-33.7764" x2="-4.97247" y2="-40.1027" gradientUnits="userSpaceOnUse">
<stop stop-color="#1E1C1C"/>
<stop offset="1" stop-color="#49261F"/>
</linearGradient>
<linearGradient id="paint5_linear_148_1468" x1="16.1025" y1="0" x2="16.1025" y2="11.3944" gradientUnits="userSpaceOnUse">
<stop stop-color="white" stop-opacity="0.5"/>
<stop offset="1" stop-color="white" stop-opacity="0.2"/>
</linearGradient>
<linearGradient id="paint6_linear_148_1468" x1="0" y1="15.738" x2="0" y2="25.0935" gradientUnits="userSpaceOnUse">
<stop stop-color="white" stop-opacity="0.5"/>
<stop offset="1" stop-color="white" stop-opacity="0.2"/>
</linearGradient>
</defs>
</svg>
