<svg width="47" height="46" viewBox="0 0 47 46" fill="none" xmlns="http://www.w3.org/2000/svg">
<path d="M0.0764824 24.5451C0.152965 23.8143 0 22.9682 0.152965 22.0835C0.382412 20.6604 1.18548 19.545 2.44744 18.9296C2.75337 18.7758 2.90633 18.6219 2.98281 18.1988C3.51819 15.1218 4.78015 12.2756 6.61573 9.73709C6.84517 9.42939 6.99814 9.27554 6.69221 8.85245C6.38628 8.3909 6.61573 7.89089 6.92166 7.50627C9.52206 4.58313 12.5814 2.42923 16.2143 1.2369C24.9333 -1.5324 32.5815 0.352263 39.1972 6.85241C39.8091 7.46781 40.6122 8.04474 39.8091 9.08323C39.6561 9.23708 39.8856 9.39093 40.0385 9.54478C41.9124 12.1602 43.1743 15.0834 43.7479 18.2373C43.8244 18.545 44.0539 18.6988 44.2833 18.8527C45.8512 19.6604 46.6543 21.0066 46.6543 22.8143C46.6543 24.3913 46.8072 25.9682 46.5778 27.5452C46.1954 29.8529 43.9009 31.4299 41.6829 30.9299C41.0711 30.776 40.8034 30.3145 40.8034 29.6606C40.8034 27.0452 40.8798 24.4297 40.8034 21.8143C40.5739 14.7757 37.5146 9.46785 31.4343 6.08316C21.4151 0.544574 8.41306 6.81395 6.23332 18.2757C5.8509 20.2373 5.92739 22.3143 5.92739 24.2759C5.92739 26.1605 5.92739 28.0067 5.8509 29.8914C5.8509 30.5068 5.46849 30.9299 4.74191 30.9299C1.87382 31.0837 0 29.276 0 26.3528C0.0764824 25.8913 0.0764824 25.3144 0.0764824 24.5451Z" fill="#1C80BE"/>
<path d="M19.9237 33.7761C20.9562 33.3915 21.721 32.6607 21.9505 31.4684C22.1799 30.2761 20.8415 28.6222 19.0441 26.8914C17.1703 25.0836 14.7229 23.1605 13.3844 22.4682C11.4341 21.2759 9.59856 22.3144 9.21614 24.6221C8.75725 27.1606 9.21614 29.5453 10.5546 31.6607C11.5106 33.1607 12.8491 33.8146 14.4934 33.9685C15.4112 33.93 19.1206 34.1223 19.9237 33.7761ZM28.3367 34.5069C29.5222 34.6608 30.6312 34.8916 31.8167 34.9685C33.3846 35.0454 34.5701 34.5839 35.4496 33.6223C36.5586 32.43 37.094 30.9299 37.0175 29.353C36.941 27.6991 35.6026 26.7375 33.8052 27.0452C32.1609 27.276 30.7459 28.0068 29.2545 28.5453C27.9161 29.0837 26.7306 29.7376 25.7746 30.5838C24.4361 31.853 25.1627 33.5838 27.266 34.2377C27.5337 34.3531 27.9161 34.43 28.3367 34.5069ZM40.8416 33.0838C40.6122 32.853 40.2298 33.0069 40.0386 33.3146C39.312 35.6223 35.9467 43.3533 24.4744 44.161C10.937 45.1226 31.702 48.0457 37.6294 43.6225C39.6561 42.0456 41.9506 40.4686 41.8741 35.93C41.8741 35.0454 41.4535 33.5454 40.8416 33.0838Z" fill="#1C80BE"/>
</svg>
