<svg width="60" height="61" viewBox="0 0 60 61" fill="none" xmlns="http://www.w3.org/2000/svg">
<g opacity="0.5" clip-path="url(#clip0_148_1029)">
<path d="M59.8279 30.2567C59.8279 34.1738 59.0564 38.0525 57.5574 41.6714C56.0584 45.2903 53.8613 48.5785 51.0915 51.3483C48.3217 54.1181 45.0335 56.3152 41.4146 57.8142C37.7957 59.3132 33.917 60.0848 29.9999 60.0848C22.089 60.0848 14.5021 56.9422 8.9083 51.3483C3.31446 45.7545 0.171875 38.1676 0.171875 30.2567C0.171875 22.3459 3.31446 14.759 8.9083 9.16514C14.5021 3.5713 22.089 0.428711 29.9999 0.428711C33.917 0.428711 37.7957 1.20024 41.4146 2.69923C45.0335 4.19823 48.3217 6.39535 51.0915 9.16514C53.8613 11.9349 56.0584 15.2231 57.5574 18.842C59.0564 22.4609 59.8279 26.3397 59.8279 30.2567ZM42.0572 9.74591L39.6114 11.9051L38.2088 13.1548L36.9095 14.309C33.8063 17.0402 30.7005 19.8032 27.5923 22.5981C25.3375 24.6236 23.9884 26.1217 23.5566 28.9344C23.2458 30.9574 23.6063 32.8822 24.6381 34.709C25.0789 35.4911 26.2891 36.7752 28.2687 38.5612C30.8037 40.8491 33.3388 43.1166 35.8738 45.3637L37.2534 46.5981L38.0751 47.3319L39.8521 48.9293L41.6942 50.5536L44.1897 52.7586C44.2242 52.7903 44.2685 52.8093 44.3156 52.8128C44.3626 52.8162 44.4098 52.8039 44.4496 52.7778C60.726 42.1192 60.9859 18.4937 44.4993 7.79304C44.462 7.7697 44.4184 7.75894 44.3749 7.76239C44.3315 7.76584 44.2906 7.7833 44.2585 7.81215L42.0572 9.74591ZM8.52219 25.2083C8.52219 25.0071 8.58716 24.9829 8.7171 25.1357L14.2088 31.5217C14.2591 31.5802 14.3214 31.6273 14.3915 31.6597C14.4616 31.692 14.5378 31.709 14.615 31.7093C14.6921 31.7097 14.7685 31.6935 14.8389 31.6618C14.9092 31.63 14.972 31.5836 15.0228 31.5255L20.4802 25.1739C20.633 24.9981 20.7095 25.0262 20.7095 25.258V37.8962C20.7095 38.0389 20.7795 38.1102 20.9196 38.1102H21.7681C21.8954 38.1102 21.9591 38.0453 21.9591 37.9153V23.2516C21.9591 22.0695 21.577 21.9293 20.8126 22.8313L14.7706 29.9472C14.6661 30.0695 14.563 30.0695 14.461 29.9472L8.41901 22.8313C7.65468 21.9293 7.27251 22.0695 7.27251 23.2516L7.26869 38.0032C7.26869 38.0465 7.29035 38.0707 7.33366 38.0758C7.76678 38.1344 8.14385 38.1319 8.46487 38.0682C8.50308 38.0606 8.52219 38.0376 8.52219 37.9994V25.2083Z" fill="#861A6E"/>
<path d="M47.6562 24.7688L49.2996 23.2937C49.7225 22.8351 50.1747 22.5077 50.6562 22.3115L52.1773 22.3803C52.4932 22.3956 52.5352 22.5115 52.3034 22.7281L51.4282 23.5574L48.8677 25.8542L47.6371 26.9434L44.4308 29.844C44.4163 29.8573 44.4047 29.8734 44.3966 29.8913C44.3885 29.9093 44.3842 29.9286 44.3838 29.9483C44.3835 29.9679 44.3871 29.9875 44.3945 30.0057C44.4019 30.0239 44.413 30.0404 44.4269 30.0542L47.3887 32.8555L48.7301 34.1204L51.4703 36.7001L52.6473 37.8657C52.7416 37.9599 52.7238 38.0224 52.5938 38.0529C52.311 38.1217 52.0027 38.137 51.669 38.0988C50.4193 38.2669 50.2168 37.6975 49.3875 37.0134L47.962 35.6262L46.8881 34.5867L43.1429 31.0096C43.1331 31.0008 43.121 30.9951 43.108 30.993C43.095 30.9909 43.0817 30.9925 43.0696 30.9978C43.0576 31.003 43.0473 31.0116 43.0399 31.0225C43.0326 31.0334 43.0285 31.0462 43.0282 31.0593L43.032 37.9574C43.032 38.0542 42.9849 38.1026 42.8906 38.1026H41.4652C41.3276 38.1026 41.2588 38.0351 41.2588 37.9001V22.4911C41.2588 22.4096 41.2996 22.3688 41.3811 22.3688H42.8983C42.99 22.3688 43.0359 22.4147 43.0359 22.5064L43.0244 28.7472C43.0245 28.7681 43.0306 28.7886 43.0419 28.8062C43.0532 28.8238 43.0692 28.8378 43.0879 28.8463C43.1066 28.8549 43.1273 28.8576 43.1472 28.8543C43.1672 28.8509 43.1856 28.8416 43.2002 28.8274L47.6562 24.7688Z" fill="#861A6E"/>
<path d="M32.316 37.9729C36.5774 37.9729 40.0319 34.5183 40.0319 30.2569C40.0319 25.9956 36.5774 22.541 32.316 22.541C28.0546 22.541 24.6001 25.9956 24.6001 30.2569C24.6001 34.5183 28.0546 37.9729 32.316 37.9729Z" fill="#861A6E"/>
<path fill-rule="evenodd" clip-rule="evenodd" d="M41.6942 50.5535C49.5134 46.4987 55.6815 40.2236 55.8993 30.914C56.121 21.593 50.2662 13.7892 42.0573 9.74587L44.2586 7.81211C44.2907 7.78326 44.3316 7.7658 44.375 7.76235C44.4184 7.7589 44.4621 7.76966 44.4993 7.793C60.986 18.4936 60.7261 42.1191 44.4497 52.7777C44.4099 52.8039 44.3627 52.8162 44.3156 52.8127C44.2686 52.8093 44.2243 52.7902 44.1898 52.7586L41.6942 50.5535ZM42.0572 9.74588C50.2661 13.7892 56.1209 21.593 55.8993 30.914C55.6814 40.2236 49.5133 46.4987 41.6942 50.5535L39.8522 48.9293C39.8521 48.9293 39.8521 48.9294 39.8521 48.9294L38.0751 47.3319C42.9999 45.0975 46.7706 41.658 49.3872 37.0134C49.5674 37.1621 49.7181 37.3054 49.8563 37.4369C50.354 37.9102 50.6906 38.2304 51.6687 38.0988C51.6687 38.0988 51.6687 38.0988 51.6687 38.0987C52.0025 38.137 52.3107 38.1217 52.5935 38.0529C52.7235 38.0223 52.7413 37.9599 52.647 37.8656L51.47 36.7001L51.47 36.7L48.7299 34.1205C48.7919 33.9648 48.8504 33.8088 48.9055 33.6526C48.8504 33.8088 48.7919 33.9647 48.7299 34.1204L47.3885 32.8554L47.3885 32.8554L44.4267 30.0542C44.4127 30.0403 44.4017 30.0238 44.3943 30.0056C44.3869 29.9874 44.3833 29.9679 44.3836 29.9482C44.384 29.9286 44.3883 29.9092 44.3964 29.8913C44.4044 29.8734 44.4161 29.8573 44.4305 29.844L47.6369 26.9433L47.6369 26.9433L48.8675 25.8541L48.8675 25.8542L51.428 23.5574L51.4279 23.5573L52.3031 22.728C52.5349 22.5115 52.4929 22.3956 52.177 22.3803L50.656 22.3115L50.6559 22.3115C50.1744 22.5076 49.7222 22.835 49.2993 23.2936L49.2993 23.2936L47.656 24.7688L43.2 28.8274C43.1854 28.8415 43.167 28.8509 43.147 28.8542C43.127 28.8576 43.1064 28.8548 43.0877 28.8463C43.069 28.8377 43.053 28.8238 43.0417 28.8061C43.0304 28.7885 43.0243 28.768 43.0242 28.7471L43.0356 22.5064C43.0356 22.4146 42.9898 22.3688 42.8981 22.3688H41.3809C41.2993 22.3688 41.2586 22.4096 41.2586 22.4911V37.9C41.2586 38.035 41.3274 38.1025 41.4649 38.1025H42.8904C42.9847 38.1025 43.0318 38.0541 43.0318 37.9573L43.028 31.0592C43.0283 31.0461 43.0324 31.0333 43.0397 31.0224C43.047 31.0115 43.0574 31.0029 43.0694 30.9977C43.0815 30.9925 43.0948 30.9908 43.1078 30.9929C43.1208 30.995 43.1329 31.0008 43.1427 31.0096L46.8879 34.5866C46.7728 34.8704 46.6536 35.1469 46.5303 35.4165C46.6536 35.1469 46.7728 34.8704 46.8879 34.5866L47.9617 35.6261L47.9617 35.626L49.3872 37.0133C46.7706 41.6579 42.9999 45.0974 38.0751 47.3318L37.2535 46.5981L37.2534 46.598L35.8739 45.3637C33.3388 43.1166 30.8038 40.849 28.2688 38.5611C26.2891 36.7752 25.079 35.4911 24.6382 34.7089C23.6063 32.8822 23.2458 30.9573 23.5567 28.9344C23.9885 26.1217 25.3376 24.6236 27.5923 22.5981C30.7006 19.8032 33.8063 17.0401 36.9095 14.3089L36.9095 14.3089L38.2089 13.1548L38.2089 13.1548L39.6114 11.9051L39.6114 11.9051L42.0572 9.74588ZM37.7719 24.8007C39.2189 26.2477 40.0318 28.2103 40.0318 30.2567C40.0318 32.3031 39.2189 34.2657 37.7719 35.7127C36.3249 37.1597 34.3623 37.9726 32.3159 37.9726C30.2695 37.9726 28.3069 37.1597 26.8599 35.7127C25.4129 34.2657 24.6 32.3031 24.6 30.2567C24.6 28.2103 25.4129 26.2477 26.8599 24.8007C28.3069 23.3537 30.2695 22.5408 32.3159 22.5408C34.3623 22.5408 36.3249 23.3537 37.7719 24.8007Z" fill="url(#paint0_radial_148_1029)"/>
<path d="M8.52206 25.2086V37.9997C8.52206 38.0379 8.50295 38.0609 8.46473 38.0685C8.14371 38.1322 7.76664 38.1347 7.33352 38.0762C7.29021 38.0711 7.26855 38.0469 7.26855 38.0035L7.27238 23.2519C7.27238 22.0698 7.65454 21.9297 8.41887 22.8316L14.4609 29.9475C14.5628 30.0698 14.666 30.0698 14.7705 29.9475L20.8125 22.8316C21.5768 21.9297 21.959 22.0698 21.959 23.2519V37.9156C21.959 38.0456 21.8953 38.1105 21.7679 38.1105H20.9195C20.7794 38.1105 20.7093 38.0392 20.7093 37.8965V25.2583C20.7093 25.0265 20.6329 24.9984 20.48 25.1742L15.0227 31.5258C14.9718 31.5839 14.9091 31.6304 14.8387 31.6621C14.7684 31.6938 14.692 31.71 14.6148 31.7096C14.5376 31.7093 14.4614 31.6923 14.3914 31.66C14.3213 31.6276 14.259 31.5805 14.2087 31.522L8.71696 25.136C8.58703 24.9832 8.52206 25.0074 8.52206 25.2086Z" fill="white"/>
</g>
<defs>
<radialGradient id="paint0_radial_148_1029" cx="0" cy="0" r="1" gradientUnits="userSpaceOnUse" gradientTransform="translate(31.1464 30.4478) scale(25.7962 26.0231)">
<stop stop-color="white"/>
<stop offset="0.540735" stop-color="white"/>
<stop offset="1" stop-color="#C590B9"/>
</radialGradient>
<clipPath id="clip0_148_1029">
<rect width="60" height="60" fill="white" transform="translate(0 0.256836)"/>
</clipPath>
</defs>
</svg>
