<svg width="50" height="51" viewBox="0 0 50 51" fill="none" xmlns="http://www.w3.org/2000/svg">
<path d="M23.7837 0.268615C21.2687 0.435301 19.4736 0.754924 17.4247 1.39875C8.58316 4.17766 1.99365 11.6899 0.369168 20.8511C0.106232 22.324 0 23.6069 0 25.2279C0 26.5664 0.0370129 27.1871 0.184584 28.3773C0.71983 32.6291 2.35345 36.6955 4.90999 40.1414C5.67139 41.1695 6.27129 41.8642 7.30501 42.8971C8.65238 44.2448 9.62601 45.0508 11.1628 46.0697C14.056 47.9964 17.3141 49.284 20.7611 49.863C21.8963 50.0574 22.5008 50.1177 24.5636 50.2472C24.9881 50.2752 25.4358 50.2472 27.1524 50.0945C35.1818 49.3904 42.4452 44.7126 46.4645 37.6681C47.0367 36.6586 47.7705 35.1302 48.0796 34.2825C48.9886 31.8186 49.4455 29.8502 49.644 27.5436C49.8562 25.1213 49.8562 25.2742 49.644 22.889C49.3762 19.8971 48.5641 17.007 47.2259 14.2512C45.2878 10.2681 42.2099 6.76214 38.5274 4.35375C35.0664 2.08431 31.3101 0.768915 27.1247 0.356662C26.4232 0.287189 24.319 0.231707 23.7837 0.268615ZM36.1093 8.59159C37.1245 8.85549 37.9414 9.39728 38.5504 10.2078C39.1825 11.0463 39.3902 11.8151 39.2888 12.8941C39.2287 13.5193 39.1503 13.8112 38.9335 14.2466C38.4074 15.3025 37.6645 15.9926 36.6676 16.3585C35.5418 16.7708 34.3096 16.7939 33.2807 16.4234C33.1006 16.3585 32.6207 16.1455 32.2099 15.9557C30.2256 15.0294 28.9612 14.5662 27.9183 14.3901C27.2908 14.2835 27.0461 14.2652 26.2571 14.2652C25.2464 14.2652 24.8681 14.3067 24.0606 14.5059C23.2254 14.7144 22.9069 14.8441 20.5258 15.9325C19.0352 16.6179 18.4584 16.7614 17.4247 16.7151C15.7221 16.6364 14.3791 15.7842 13.6962 14.3438C13.4194 13.7557 13.3362 13.3017 13.3686 12.5375C13.3963 11.852 13.5071 11.3657 13.7424 10.8702C14.2546 9.78637 15.3991 8.9018 16.6772 8.60075C17.0695 8.51271 18.2092 8.50812 18.6706 8.59617C19.123 8.68422 19.3907 8.78602 20.5535 9.33263C22.4962 10.2404 23.3684 10.5691 24.3651 10.7776C25.7358 11.0646 27.2999 11.0369 28.5875 10.7081C29.6765 10.4256 30.018 10.2867 32.8283 8.96211C33.7373 8.53128 34.1851 8.42949 35.0664 8.46181C35.5048 8.4758 35.7862 8.50812 36.1093 8.59159ZM27.4523 20.3185C28.6983 20.5223 29.7411 21.1799 30.4333 22.2034C30.8626 22.8381 31.0378 23.417 31.0378 24.209C31.0332 25.177 30.8811 25.7513 30.4287 26.4924C29.6212 27.803 28.306 28.4745 26.5525 28.4654C25.5788 28.4608 25.2558 28.3681 23.553 27.5808C22.2102 26.9555 20.8164 26.4181 20.2074 26.2886C19.146 26.0616 17.6879 25.9875 16.7972 26.1079C15.5466 26.284 15.0205 26.4692 12.2011 27.7661C10.9044 28.3587 10.2538 28.5394 9.40922 28.5394C7.42951 28.5394 5.77763 27.3861 5.22387 25.6216C5.13158 25.3159 5.11764 25.1862 5.11764 24.51C5.12221 23.6023 5.18229 23.3198 5.50988 22.6342C5.96678 21.6802 6.97262 20.8511 8.11713 20.476C8.38944 20.388 8.56946 20.3694 9.28472 20.3508C10.4751 20.3231 10.729 20.388 12.2426 21.1058C13.3501 21.6245 14.1483 21.9718 14.716 22.1851C16.322 22.7732 18.0755 22.9307 19.769 22.6297C20.4566 22.5093 21.6656 22.1248 22.3301 21.8146C22.6623 21.6616 23.41 21.3097 23.9914 21.0364C24.5773 20.7631 25.159 20.4992 25.2835 20.4574C25.8834 20.2536 26.7231 20.1981 27.4523 20.3185ZM36.1186 32.1937C37.4153 32.5503 38.3981 33.3422 38.9843 34.5049C39.3719 35.2783 39.4087 36.6769 39.058 37.5523C38.4442 39.0901 37.3321 39.9469 35.574 40.234C35.0479 40.322 34.6696 40.322 34.1435 40.234C33.5527 40.1414 33.1699 40.0024 32.0854 39.4975C30.5948 38.8122 29.1782 38.2564 28.5367 38.1081C27.683 37.9137 27.2817 37.8719 26.1833 37.8719C25.1866 37.8765 25.0527 37.8859 24.5081 38.0017C23.4422 38.2284 22.9901 38.4 20.8534 39.3863C19.4921 40.0164 19.0722 40.1691 18.3892 40.2849C16.788 40.549 15.0712 39.9098 14.1531 38.7056C13.8207 38.2748 13.5162 37.6358 13.4285 37.1912C13.3271 36.7 13.3362 35.8895 13.4424 35.3709C13.6131 34.5512 13.9315 33.986 14.5636 33.3748C15.3991 32.5734 16.2573 32.1891 17.3418 32.1243C18.02 32.0871 18.643 32.1566 19.16 32.3327C19.3907 32.4113 20.0228 32.68 20.5626 32.9302C22.4315 33.8054 23.1377 34.0832 24.0236 34.3011C25.3666 34.6344 27.0185 34.6576 28.306 34.3751C28.929 34.2362 30.1427 33.8425 30.498 33.6664C31.6516 33.0969 33.4604 32.2818 33.7512 32.2029C34.268 32.064 34.2728 32.064 35.0433 32.0825C35.5925 32.0917 35.8418 32.1197 36.1186 32.1937Z" fill="#711A4B"/>
</svg>
