<svg width="50" height="51" viewBox="0 0 50 51" fill="none" xmlns="http://www.w3.org/2000/svg">
<path d="M50 25.2568C50 31.8872 47.3661 38.2461 42.6777 42.9345C37.9893 47.6229 31.6304 50.2568 25 50.2568C18.3696 50.2568 12.0107 47.6229 7.32233 42.9345C2.63392 38.2461 0 31.8872 0 25.2568C0 18.6264 2.63392 12.2676 7.32233 7.57917C12.0107 2.89076 18.3696 0.256836 25 0.256836C31.6304 0.256836 37.9893 2.89076 42.6777 7.57917C47.3661 12.2676 50 18.6264 50 25.2568ZM30.5269 17.8197C30.1148 17.6932 29.7292 17.6056 29.3704 17.5568C29.1419 17.5257 28.8754 17.5105 28.5707 17.511C26.8045 17.5149 25.0831 17.8483 23.4067 18.511C22.4103 18.9051 21.479 19.4114 20.5372 19.9185C20.3287 20.0307 20.1014 20.1296 19.8553 20.2149C18.9711 20.5221 18.0538 20.6885 17.121 20.7572C16.4029 20.8105 15.6115 20.8711 14.7466 20.939C14.3406 20.9709 13.9414 21.0205 13.549 21.0877C13.0565 21.172 12.5651 21.3068 12.0747 21.492C11.5628 21.6853 11.0834 21.9837 10.7399 22.3742C10.1609 23.0331 9.7498 23.9616 9.80316 24.8691C9.81739 25.1118 9.90659 25.3321 10.0708 25.53C10.3834 25.9074 10.8166 26.1991 11.2482 26.4588C11.6074 26.6749 11.9993 26.8957 12.4241 27.1213C12.4974 27.16 12.58 27.1815 12.6719 27.1857C13.0182 27.2015 13.3498 27.0944 13.6407 26.9039C13.8933 26.7383 14.1375 26.5746 14.4111 26.4355C15.1207 26.0742 15.9041 25.926 16.7613 25.9908C17.1 26.0165 17.3621 26.1236 17.6462 26.3268C18.0152 26.5908 18.4599 26.8252 18.9806 27.03C19.1731 27.1055 19.3775 27.1924 19.5636 27.2525C20.1186 27.4319 20.7582 27.6202 21.4826 27.8173C21.6474 27.862 22.2399 28.0351 22.1624 28.2924C22.1406 28.3662 22.0988 28.4371 22.0372 28.5051C21.8261 28.738 21.5968 28.969 21.3494 29.1979C20.7634 29.7405 20.1466 30.2754 19.4992 30.8027C19.2873 30.9754 19.0648 31.1817 18.8119 31.2928C18.1731 31.573 17.7672 32.0742 17.617 32.7604C17.568 32.9849 17.4767 33.2375 17.3506 33.4169C16.2729 34.9489 15.2184 36.4612 14.1874 37.9537C13.8802 38.3987 13.6103 38.6972 13.0929 38.7734C12.5561 38.8529 11.7818 38.9232 11.8126 39.6699C11.8206 39.8612 11.8515 40.0537 11.9055 40.2473C11.9885 40.545 11.9549 40.8047 11.8091 41.077C11.5356 41.5877 11.3486 42.113 11.3648 42.7015C11.3723 42.9722 11.3794 43.5426 11.7885 43.5157C11.9107 43.5078 12.0399 43.4782 12.1209 43.377C12.1673 43.319 12.2042 43.262 12.2316 43.2058C12.3901 42.8821 12.5348 42.5331 12.7668 42.2521C12.9984 41.9712 13.2399 41.6944 13.4913 41.4217C13.6036 41.2994 13.7018 41.1838 13.7862 41.075C13.881 40.9522 13.973 40.831 14.0621 40.7114C15.5769 38.674 17.0477 36.6662 18.4743 34.6881C18.5987 34.5157 18.7528 34.3364 18.9368 34.1501C19.0743 34.0107 19.2166 33.9113 19.3636 33.8517C19.9609 33.6094 20.3727 33.207 20.5119 32.5564C20.5391 32.4284 20.7676 32.2572 20.8648 32.1786C21.5578 31.6173 22.2883 31.0445 23.0561 30.46C23.2257 30.3307 23.3624 30.2596 23.551 30.1715C24.0696 29.9288 24.5876 29.7138 25.1051 29.5264C25.1291 29.5177 25.1341 29.524 25.1202 29.5454C24.4344 30.6019 23.7664 31.6715 23.2328 32.8039C23.0518 33.1881 22.9727 33.5323 22.9704 33.9371C22.9685 34.2562 23.0827 34.5253 23.313 34.7446C23.6364 35.0521 24.0897 35.0347 24.4668 34.8541C24.7375 34.7244 24.996 34.5691 25.2731 34.4442C25.3706 34.4002 25.4867 34.3567 25.6213 34.3138C27.5375 33.704 29.1943 33.1862 30.5917 32.7604C30.7858 32.7015 31.1079 32.6774 31.1656 32.9462C31.2332 33.2604 31.3763 33.6086 31.7059 33.7252C31.9261 33.8027 32.1534 33.8402 32.3854 33.8343C32.6316 33.828 32.8609 33.9138 33.0455 34.0813C33.2751 34.2904 33.6984 34.511 33.9917 34.3122C34.2273 34.1521 34.1241 33.7853 33.9937 33.5798C33.5689 32.9097 33.1362 32.2464 32.6956 31.59C32.557 31.3832 32.4329 31.2365 32.3233 31.1501C32.0553 30.9383 31.7265 30.8417 31.3368 30.8604C31.2129 30.8665 31.1238 30.8769 31.0696 30.8916C30.7283 30.9854 30.3937 31.0824 30.0656 31.1825C28.3568 31.7048 26.7177 32.2052 25.1482 32.6837C25.1311 32.689 25.1278 32.6844 25.1383 32.6699C25.1984 32.5881 25.2755 32.4849 25.3158 32.3904C25.3379 32.3375 25.3858 32.2924 25.4182 32.2426C25.537 32.06 25.6601 31.8809 25.7874 31.7055C25.8865 31.5686 25.9859 31.4325 26.0846 31.2979C26.5569 30.6525 27.0241 30.03 27.5664 29.4719C27.6233 29.4134 27.6834 29.362 27.7466 29.3177C28.064 29.0952 28.4324 28.8553 28.8292 28.7849C29.775 28.6178 30.7266 28.4086 31.6842 28.1572C32.1477 28.0355 32.6055 27.8968 33.0577 27.741C33.434 27.6114 33.8431 27.4422 34.1387 27.1691C34.4705 26.8624 34.7337 26.4894 34.9285 26.0501C34.9959 25.8975 35.0585 25.7421 35.1162 25.5837C35.1304 25.5444 35.1412 25.5058 35.1486 25.4679C35.1684 25.3679 35.2051 25.2758 35.2293 25.1778C35.3489 24.6943 35.4125 24.2321 35.4202 23.7912C35.4273 23.3636 35.387 22.9853 35.7609 22.6928C35.8099 22.6546 35.9144 22.5903 36.0743 22.4999C36.6996 22.1474 37.2925 21.7086 37.8711 21.2189C38.0759 21.0455 38.2648 20.867 38.4379 20.6833C38.7723 20.3281 39.0129 20.0408 39.1597 19.8213C39.4401 19.402 39.6718 18.9575 39.8549 18.4877C39.9595 18.2189 40.043 17.928 40.1051 17.6149C40.3905 16.1758 40.0478 14.6224 38.9474 13.6102C38.7743 13.4509 38.604 13.2908 38.4186 13.1398C37.9356 12.7462 37.4225 12.3647 37.0063 11.9221C36.8643 11.7708 36.7685 11.6422 36.719 11.5363C36.5253 11.1197 36.7043 10.6007 37.1755 10.46C37.3412 10.4105 37.4891 10.3786 37.619 10.3643C38.0991 10.3114 38.5892 10.2974 39.0893 10.3224C39.2704 10.3314 39.4271 10.3277 39.5597 10.3114C39.7138 10.2924 40.2103 10.1865 40.1285 9.93154C40.0711 9.75367 39.8577 9.59122 39.7051 9.52601C39.5908 9.47699 39.4553 9.43549 39.2988 9.4015C38.966 9.32917 38.5905 9.19162 38.3115 8.95881C38.1167 8.79649 37.9228 8.63839 37.7296 8.4845C37.2985 8.14063 36.8209 7.98674 36.2968 8.02284C35.7933 8.05723 35.3704 8.30782 35.1332 8.73273C34.3972 10.0529 34.8055 11.6398 35.7866 12.7161C36.2854 13.2636 36.9186 13.7489 37.4628 14.226C37.6549 14.3944 37.8634 14.6036 38.0881 14.8537C38.2491 15.0329 38.3787 15.1964 38.4767 15.3442C38.6739 15.6414 38.7613 16.0798 38.7486 16.445C38.7283 17.0371 38.5665 17.6388 38.2632 18.2501C38.2148 18.3479 38.1581 18.4309 38.0933 18.4991C37.6445 18.9711 37.1319 19.2429 36.5553 19.3145C36.1692 19.3624 35.7711 19.3754 35.381 19.3501C34.9107 19.3197 34.4502 19.1778 33.9842 19.0181C32.832 18.6228 31.6933 18.1778 30.5269 17.8197Z" fill="#8D45DD"/>
</svg>
