<svg width="276" height="74" viewBox="0 0 276 74" fill="none" xmlns="http://www.w3.org/2000/svg">
<path d="M19.6313 2.56831C19.3728 2.99262 19.2092 3.40368 19.1407 3.80147L18.3286 6.25454C18.028 7.03908 17.839 7.84793 17.7617 8.68109C17.7252 9.07888 17.46 9.46342 17.5297 9.91094C17.5495 10.0236 17.5893 10.0314 17.649 9.93414C18.0446 9.27778 18.5451 8.73413 19.1507 8.30318L20.1253 7.75953C20.2512 7.68881 20.2998 7.72417 20.2711 7.86561L20.238 8.02141L19.7076 9.2148C18.965 10.4811 18.5341 11.8259 18.4147 13.2491C18.375 13.7364 18.4612 14.28 18.4413 14.8005C18.4236 15.2093 18.4943 15.5696 18.6534 15.8812C19.0136 16.595 19.4026 17.2094 19.8203 17.7243C20.3341 18.3641 21.1761 18.8514 21.796 19.5376C21.8711 19.6193 21.964 19.658 22.0745 19.6536C22.4159 19.637 22.6148 19.5807 22.9662 19.6834C24.9585 20.2669 27.2657 20.0149 29.4171 20.0249C32.5818 20.0425 35.5785 20.5785 38.4072 21.6326C39.5874 22.0724 40.6946 22.7144 41.7288 23.5586C41.9786 23.7641 42.0393 24.0326 41.9112 24.3641C41.8625 24.4901 41.8824 24.6061 41.9708 24.7122C42.2029 24.9863 42.2902 25.2945 42.2327 25.6371C42.2084 25.7829 42.2703 25.8603 42.4183 25.8691L43.4692 25.9388C43.5925 25.9469 43.7115 25.9884 43.8136 26.059C43.9157 26.1296 43.9972 26.2266 44.0493 26.3399C45.0526 28.5366 45.3974 30.8504 45.0836 33.2814C44.6791 36.4306 43.3786 38.9754 41.1819 40.9157C38.9454 42.7522 36.3918 43.8605 33.521 44.2406C33.0039 44.3102 32.8249 44.118 32.5762 43.7069C32.4702 43.5478 32.3464 43.4351 32.205 43.3688C32.0746 43.3113 32.0083 43.3533 32.0061 43.4948C32.0039 43.5898 32.0503 43.6981 32.1453 43.8196C32.2867 44.2108 32.2072 44.424 31.9066 44.4594C31.5751 44.497 30.7729 44.5268 29.5 44.5489H28.1143C27.995 44.5489 27.9364 44.6086 27.9386 44.7279L27.9519 47.2639L27.9883 56.8043C28.0723 57.9004 28.2182 58.9966 28.4259 60.0927C28.4812 60.3867 28.4535 60.6927 28.343 61.011C28.3165 61.0905 28.343 61.1491 28.4226 61.1867C28.4367 61.1934 28.4522 61.1969 28.4679 61.197C28.4836 61.1971 28.4992 61.1937 28.5137 61.1871C28.5281 61.1805 28.5411 61.1708 28.5517 61.1588C28.5623 61.1467 28.5703 61.1325 28.5751 61.1171C28.6127 60.9999 28.6834 60.9171 28.7872 60.8684C28.8933 60.8176 28.9883 60.8353 29.0723 60.9215L29.3309 61.1867L29.7685 61.8729L29.8049 61.9889C29.8403 62.0994 29.7994 62.1535 29.6823 62.1513L27.2126 62.1115C26.364 62.2022 25.5784 62.1248 24.8557 61.8795C24.7518 61.8441 24.6458 61.8386 24.5375 61.8629C24.0303 61.9823 23.5529 62.1149 23.0259 62.1182C19.8568 62.1292 16.7098 62.1281 13.5849 62.1149C13.5156 62.1141 13.448 62.0939 13.3898 62.0565C13.3315 62.0191 13.285 61.966 13.2556 61.9033C13.2261 61.8407 13.215 61.771 13.2234 61.7023C13.2318 61.6335 13.2594 61.5686 13.3031 61.5149C13.3561 61.4508 13.3716 61.3867 13.3495 61.3226C13.3119 61.1944 13.25 61.1811 13.1639 61.2828L12.418 62.1513L11.4036 62.1414C11.2113 62.106 11.008 62.106 10.7937 62.1414L10.5053 62.1115C9.99034 62.2375 9.64669 62.2198 9.47431 62.0585C9.42348 61.8132 9.61685 61.6707 10.0544 61.6309C10.3616 61.5867 10.6356 61.4198 10.8765 61.1303L12.3782 59.7215C14.4003 57.517 15.4943 54.6894 16.2368 51.8153C16.2656 51.707 16.3341 51.6418 16.4423 51.6197C16.902 51.5158 17.207 51.3788 17.3573 51.2087C17.3595 50.5059 17.7009 49.8241 18.3816 49.1633C18.4266 49.1187 18.4533 49.0587 18.4563 48.995C18.4594 48.9313 18.4387 48.8684 18.3982 48.8186L17.2843 47.486C17.1716 47.0174 17.123 46.7003 17.1385 46.5346C17.6313 41.3146 17.6523 36.0936 17.2015 30.8714C17.1971 30.8117 17.0899 30.1554 16.8799 28.9023C16.754 28.1576 16.7705 27.4835 16.9296 26.8802C17.3959 26.4227 17.9153 26.2216 18.4877 26.2769C18.596 26.2879 18.6302 26.2426 18.5904 26.141C18.407 25.6791 18.1518 25.3675 17.8247 25.2061C16.9517 24.7774 16.2578 24.3719 15.7429 23.9896C15.2434 23.7398 14.7672 23.3133 14.3141 22.71L13.9329 21.8017C13.8909 21.6978 13.8202 21.6183 13.7208 21.563L12.8522 21.0691C12.5406 20.6116 12.2036 20.2901 11.8412 20.1044C8.99364 18.6558 6.28532 17.1342 3.99469 14.8602C2.25102 13.2049 1.03775 11.2336 0.354866 8.94629L0.212323 7.91865C0.294092 7.75732 0.338291 7.7297 0.344921 7.83578C0.42448 7.57721 0.381386 7.26671 0.215638 6.90427C0.197959 6.81587 0.163702 6.72637 0.112873 6.63576C0.0496844 6.5291 0.0132797 6.40737 0.00679449 6.28106C-0.030775 5.33077 0.0874583 4.35949 0.361495 3.36721C0.412324 3.18158 0.460944 3.18268 0.507354 3.37053L0.616748 3.79816C0.753766 4.99375 1.07311 6.13962 1.57477 7.23577C2.23776 8.75844 3.06761 10.1739 4.0643 11.4822C4.31624 11.8137 4.53171 12.1695 4.71072 12.5496C4.71956 12.6734 4.74608 12.7839 4.79028 12.8811C4.83669 12.9806 4.91404 13.0292 5.02232 13.027C5.2389 13.0226 5.43006 13.0999 5.59581 13.259C6.28532 13.9309 7.0345 14.5497 7.84335 15.1154C7.86327 15.1292 7.88636 15.1377 7.91046 15.1401C7.93456 15.1424 7.95887 15.1386 7.9811 15.129C8.00332 15.1194 8.02273 15.1043 8.03749 15.0851C8.05225 15.0659 8.06187 15.0432 8.06545 15.0193L8.20468 14.0745C8.47872 12.9806 8.94502 12.0281 9.60359 11.217C10.008 10.2977 10.5826 9.48883 11.3274 8.79048C11.4997 8.62915 11.5417 8.65788 11.4533 8.87667C11.2478 9.37723 11.0025 9.86121 10.85 10.3817C10.4522 11.7541 10.0942 13.1298 9.77597 14.5088L9.92183 16.0668C9.93067 16.1751 9.98371 16.2558 10.0809 16.3088L11.7318 17.2171L13.6677 18.2149L15.9783 19.3586C16.1661 19.4492 16.2247 19.3972 16.1539 19.2028L15.2026 16.5243C14.9285 15.0127 14.8898 13.4933 15.0865 11.9662C15.4512 9.85348 16.0998 7.8181 17.0324 5.86006C18.0335 3.79153 19.2391 1.85118 20.649 0.0389998C20.6822 -0.00519964 20.722 -0.01183 20.7684 0.0191096L20.838 0.0655188C20.8402 0.0699387 20.8402 0.0732533 20.838 0.0754632L19.6313 2.56831ZM27.6204 26.9896L27.6535 30.4902C27.616 30.6272 27.511 30.72 27.3386 30.7686C27.2369 30.7974 27.2016 30.8626 27.2325 30.9642C27.4845 31.8106 27.6082 32.4979 27.6038 33.0261C27.5883 34.8825 27.5861 36.7223 27.5972 38.5455L27.4745 41.3732C27.3353 41.4881 27.2646 41.6119 27.2624 41.7445C27.2579 41.8616 27.3132 41.908 27.4281 41.8837C27.5077 41.8682 27.5662 41.813 27.6038 41.7179C28.3198 41.3312 29.0723 40.9853 29.8613 40.6804C30.9596 40.256 32.111 39.3024 33.3155 37.8196C33.5431 37.6361 33.7586 37.5908 33.9619 37.6836C34.0216 37.7102 34.0392 37.6925 34.0149 37.6306C33.9972 37.5886 33.974 37.5488 33.9453 37.5113C33.879 37.4229 33.8613 37.3267 33.8923 37.2229L33.9884 36.8914L35.0625 34.8261C36.1895 31.9454 35.4437 28.0139 32.3873 26.6614C31.0237 26.0581 29.4944 25.7874 27.7994 25.8492C27.6778 25.8537 27.6171 25.9166 27.6171 26.0382L27.6204 26.9896Z" fill="white"/>
<path d="M120.781 13.5376L120.98 17.015C120.984 17.1246 121.025 17.2306 121.096 17.3166C121.657 18.0105 121.876 18.8205 121.752 19.7465C121.704 19.9255 121.588 20.0824 121.404 20.2172L121.096 20.5222C120.992 21.5012 120.542 22.2426 119.747 22.7465C118.531 23.5156 117.73 24.0548 117.343 24.3642L117.247 23.8769C117.272 23.7509 117.26 23.5775 117.211 23.3565C117.069 22.3355 117.022 21.4691 117.068 20.7575C117.088 20.4636 117.234 20.2194 117.506 20.0249C117.523 20.0137 117.535 19.9976 117.542 19.9789C117.549 19.9602 117.55 19.9397 117.545 19.92C117.54 19.9003 117.529 19.8824 117.514 19.8686C117.499 19.8548 117.48 19.8457 117.46 19.8426C117.247 19.8139 117.159 19.6912 117.194 19.4746C117.391 18.2967 117.737 17.3741 118.232 16.7067C118.645 16.1453 118.579 16.0812 118.033 16.5144C117.372 17.0359 116.79 17.7597 116.286 18.6857C115.687 19.784 115.557 21.2448 115.895 23.0681C114.472 21.1432 114.317 19.1862 115.431 17.1973C116.286 15.6746 117.476 14.5298 119.001 13.763C119.282 13.5331 119.59 13.363 119.926 13.2525L120.718 12.9608C120.849 12.9144 120.9 12.9586 120.874 13.0934L120.781 13.5376Z" fill="white"/>
<path d="M171.904 24.2516L172.537 26.476C173.081 28.5136 172.822 30.0429 171.762 31.0639C171.278 31.4462 170.882 31.5324 170.575 31.3224C170.237 31.0904 169.963 30.8119 169.753 30.4871C169.68 30.3744 169.649 30.2394 169.667 30.1063C169.684 29.9733 169.749 29.8508 169.849 29.7611C171.165 28.581 171.884 27.6362 171.891 25.7467C171.891 25.7172 171.885 25.6881 171.874 25.6609C171.862 25.6338 171.846 25.6091 171.825 25.5885C171.804 25.5678 171.779 25.5515 171.752 25.5405C171.724 25.5296 171.695 25.5241 171.665 25.5246L171.573 25.5279C171.541 25.5279 171.511 25.5403 171.488 25.5625C171.465 25.5847 171.452 25.615 171.45 25.6472C171.387 26.9832 170.658 27.6826 169.686 28.4285C167.154 30.3711 168.951 31.3854 170.323 33.1026L171.47 34.8429C171.934 35.5545 172.227 36.2905 172.348 37.0507C171.946 37.4021 171.48 37.6794 170.949 37.8827C170.733 37.8805 170.59 37.8905 170.522 37.9126C170.078 38.0629 170.086 38.1778 170.548 38.2573C170.694 38.2816 170.928 38.2684 171.251 38.2176C171.686 38.2662 172.147 38.4562 172.633 38.7877L173.141 39.2551C173.227 39.3347 173.284 39.433 173.313 39.5502C174.29 43.5966 174.177 47.5392 172.975 51.3779C172.957 51.4333 172.927 51.4837 172.886 51.5252C172.845 51.5667 172.795 51.598 172.74 51.6166C172.507 51.6917 172.28 51.7072 172.057 51.663C171.84 51.6188 171.819 51.6641 171.994 51.7989C172.113 51.8917 172.236 51.9614 172.362 52.0078C172.549 52.1735 172.601 52.3536 172.517 52.5481C171.943 53.8851 171.207 55.1404 170.31 56.3139C167.227 60.0222 163.248 62.1095 158.373 62.5758C153.924 63.0024 149.824 62.0366 146.074 59.6786C145.767 59.4841 145.625 59.2609 145.65 59.009C145.886 58.6288 146.107 58.4023 146.313 58.3294C146.81 58.1548 146.801 58.0145 146.286 57.9084C145.619 57.7736 144.829 57.7625 143.916 57.8752C143.405 57.4377 142.958 56.9901 142.573 56.5327C140.251 53.757 138.873 50.526 138.44 46.8398L138.337 42.2121C138.518 41.2927 138.707 40.3579 138.904 39.4076C139.087 38.5126 139.661 37.9413 140.624 37.6938C140.927 37.6341 141.098 37.6076 141.138 37.6142C141.775 37.7402 141.86 37.5767 141.393 37.1236C141.225 36.9579 141.083 36.7115 140.966 36.3844C141.244 35.4595 141.403 34.1733 141.897 33.4042C142.52 32.4363 143.641 31.4119 144.354 30.8053L144.645 30.5534L145.444 29.9534C145.541 29.9136 145.628 29.8583 145.703 29.7876C145.91 29.697 146.11 29.5622 146.303 29.3832C151.395 26.529 157.066 26.0881 162.725 27.7025C163.332 27.8749 163.952 27.918 164.568 28.0075L167.071 28.0406C167.084 28.1401 167.117 28.2185 167.17 28.276C167.25 28.3644 167.337 28.3721 167.432 28.2992C167.926 27.9147 168.162 27.4174 168.695 27.0992C169.232 26.7832 169.71 26.4285 170.127 26.0351C170.691 25.5047 171.069 24.9135 171.261 24.2616C171.215 24.2704 171.223 24.2019 171.288 24.0561C171.285 23.9301 171.311 23.8185 171.364 23.7212C171.426 23.6107 171.506 23.5942 171.606 23.6715C171.776 23.8019 171.875 23.9953 171.904 24.2516ZM151.282 32.2838C150.183 33.212 149.482 34.4507 149.177 35.9998L149.001 36.7457C148.975 36.8562 148.912 36.938 148.812 36.991C148.655 37.075 148.492 37.1093 148.322 37.0938C148.162 37.0783 148.138 37.1269 148.249 37.2396C148.386 37.3811 148.53 37.4993 148.683 37.5943C148.727 37.6237 148.763 37.6641 148.786 37.7113C148.81 37.7586 148.82 37.8109 148.815 37.8628C148.767 38.391 148.726 38.9325 148.693 39.4872C148.432 43.8651 149.462 47.8795 151.782 51.5304L152.455 52.515C152.9 53.1757 153.105 53.8641 153.072 54.5802C153.067 54.6891 153.037 54.7959 152.982 54.8918L152.644 55.4686C152.543 55.641 152.58 55.6796 152.757 55.5846C153.732 55.0586 154.589 55.073 155.329 55.6277C156.37 56.4056 157.161 56.9216 157.703 57.1758C160.872 58.8001 162.649 55.8034 163.226 53.2674C163.31 52.8984 163.47 52.8608 163.706 53.1547C163.808 53.2829 163.921 53.4012 164.044 53.5094C164.246 53.684 164.297 53.6465 164.2 53.3967C163.971 52.8266 163.594 52.0741 163.63 51.4343C163.645 51.1846 163.67 50.9392 163.703 50.6984C164.333 45.716 162.692 39.7756 159.917 35.7844C158.389 33.5866 156.281 31.9423 153.569 31.7037C152.725 31.6285 151.962 31.8219 151.282 32.2838Z" fill="white"/>
<path d="M49.7212 27.2582L49.9499 27.2781C52.8383 27.2914 55.719 27.2936 58.592 27.2847C58.8638 27.2847 59.1611 27.4008 59.4837 27.6328C59.7158 27.7787 60.1732 27.6394 60.8561 27.2151C61.234 27.1886 61.5025 27.3886 61.6616 27.8151C61.8627 28.2063 61.9335 28.6406 61.8738 29.1179C62.402 31.6351 63.2031 34.0539 64.2771 36.3744C64.6484 37.1766 64.7711 37.8429 64.4329 38.602C64.349 38.7943 64.3965 38.8352 64.5755 38.7247C65.1191 38.3932 65.5744 38.6031 65.9412 39.3545L67.8374 41.8042L68.4241 42.4109C67.9755 42.4639 67.5291 42.3302 67.0849 42.0098C66.6694 41.7092 66.2816 41.4186 65.9213 41.1379C65.7733 41.0252 65.7523 41.0451 65.8584 41.1976L68.1821 44.5921L69.5181 46.0573L69.7435 46.2065L69.8761 46.3192L70.2739 46.6938L70.5391 47.0054C70.3468 47.0408 70.0131 46.9712 69.538 46.7966L67.1247 45.222C66.9744 45.0186 66.8208 44.8927 66.6639 44.8441C66.5335 44.8021 66.497 44.8419 66.5545 44.9634C66.6319 45.1247 66.739 45.2617 66.8761 45.3745L69.5943 48.9413L70.5888 49.9458L72.5579 51.537C72.8165 51.7469 72.78 51.8353 72.4485 51.8022C72.0065 51.7602 71.4794 51.5955 70.8673 51.3082L69.8662 50.7513L69.4684 50.4795L67.4263 48.8452C67.1169 48.5977 67.0241 48.6629 67.1479 49.0408C67.5589 50.2983 67.9678 51.6187 68.3744 53.0022C68.4871 53.3867 68.5015 53.7734 68.4175 54.1624C68.3313 54.5514 68.244 54.9425 68.1556 55.3359C68.0761 55.6707 67.8175 55.9889 67.8639 56.3238C67.8816 56.4497 67.9534 56.5238 68.0794 56.5459C68.475 56.6144 68.8142 56.7536 69.0971 56.9635C69.1413 57.0321 69.1943 57.0696 69.2562 57.0763C69.6639 57.4111 69.9954 57.5735 70.2474 58.0641C70.5523 58.6608 70.8794 59.2376 71.2286 59.7945C71.507 60.2453 71.7899 60.6884 72.0772 61.1238C72.3137 61.4796 72.3192 61.8376 72.0938 62.1979C71.6805 62.0896 71.296 62.073 70.9402 62.1481L68.9114 62.1017C68.7877 62.0995 68.6849 62.0531 68.6032 61.9625L68.3678 61.7106C68.2794 61.6177 68.1877 61.6122 68.0926 61.694C67.8308 61.9161 67.5821 62.1183 67.2142 62.1183C64.6595 62.1227 62.0948 62.1227 59.5202 62.1183C59.5047 62.0144 59.4693 61.9316 59.4141 61.8697L59.5533 59.2509L58.297 53.5259C58.2801 53.4473 58.2366 53.3769 58.1737 53.3268C58.1109 53.2766 58.0326 53.2498 57.9522 53.2508C56.6152 53.2663 55.2814 53.2806 53.951 53.2939C53.2019 53.3027 52.5831 53.2309 52.0947 53.0784C51.9886 53.0453 51.8891 53.0596 51.7963 53.1215C51.4958 53.3182 51.3433 53.6386 51.3389 54.0828L50.5002 57.2155C50.2239 58.0619 50.1477 59.0277 50.2714 60.1128L50.3908 61.757C50.4151 62.115 49.9941 62.241 49.1278 62.1349L39.9122 62.1282L37.8404 62.1481C37.8054 62.1485 37.771 62.1402 37.74 62.1241C37.709 62.1079 37.6825 62.0844 37.6628 62.0555C37.6432 62.0266 37.6309 61.9934 37.6272 61.9586C37.6235 61.9239 37.6284 61.8888 37.6415 61.8564C37.8647 61.3282 38.1674 60.8708 38.5498 60.484C40.9664 57.4973 41.9807 53.8309 43.3067 50.3005C43.3863 50.0861 43.6504 49.843 44.099 49.5712C44.1108 49.5644 44.1205 49.5543 44.1269 49.542C44.1334 49.5297 44.1363 49.5157 44.1355 49.5016C44.0924 48.9679 43.9399 48.5203 44.1255 47.99C45.1775 44.9999 46.2526 42.0175 47.351 39.0429C47.7156 38.0583 47.8018 37.3788 48.8792 36.9478L50.4339 36.9313C50.46 36.931 50.4855 36.9227 50.5067 36.9073C50.5279 36.892 50.5438 36.8704 50.5521 36.8457C50.5605 36.8209 50.561 36.7941 50.5534 36.769C50.5459 36.744 50.5308 36.7219 50.5101 36.7058L49.9366 36.2616C49.8438 36.1909 49.7764 36.1014 49.7344 35.9931C49.4493 35.2881 49.3212 34.5467 49.3499 33.7688L49.6515 32.4461C49.9322 31.8649 50.1046 31.2362 50.1687 30.5599L50.7554 29.9964C50.8372 29.919 50.8427 29.8362 50.772 29.7478C50.4759 29.3698 50.0748 29.0881 49.5687 28.9024L48.2957 27.3742C48.7355 27.2505 49.2107 27.2118 49.7212 27.2582ZM56.6594 47.1181C56.8472 47.2573 57.0693 47.359 57.3257 47.4231C57.3664 47.4334 57.4093 47.4318 57.4492 47.4184C57.4891 47.405 57.5242 47.3804 57.5505 47.3475C57.5767 47.3146 57.5929 47.2748 57.5971 47.233C57.6014 47.1911 57.5934 47.149 57.5743 47.1115C57.4218 46.8165 57.2494 46.5877 57.1864 46.243C56.5544 42.8396 55.9544 39.5081 55.3864 36.2484C55.2781 35.623 55.1511 35.6196 55.0052 36.2384C55.003 36.2473 55.0052 36.3456 55.0118 36.5335C55.0163 36.6285 55.0063 36.7224 54.982 36.8152C54.1599 40.1545 53.3311 43.4993 52.4958 46.8496C52.4671 46.9689 52.5146 47.0286 52.6383 47.0286L56.3809 47.0253C56.4826 47.0253 56.5754 47.0562 56.6594 47.1181Z" fill="white"/>
<path d="M75.5684 27.2216C75.6722 27.2923 75.8059 27.3077 75.9695 27.268L77.7032 27.2879L79.364 27.4636C79.4347 27.5232 79.5187 27.5663 79.6159 27.5928C79.7183 27.6207 79.8283 27.6088 79.9242 27.5597C80.2844 27.3763 80.6049 27.2868 80.8855 27.2912C82.4613 27.3177 84.0425 27.3077 85.6292 27.2613L87.7011 27.2481C88.1431 27.2348 88.3022 27.3243 88.1785 27.5166L87.7575 27.9442C87.4105 28.4393 86.9232 28.605 86.2956 28.4415C86.2838 28.4385 86.2716 28.438 86.2596 28.44C86.2476 28.4419 86.2362 28.4463 86.2259 28.4528C86.2157 28.4593 86.2069 28.4679 86.2001 28.4779C86.1932 28.4879 86.1885 28.4992 86.1862 28.5111L86.1663 28.6205C86.153 28.6801 86.1773 28.7166 86.2392 28.7299C86.5442 28.7984 86.7862 28.9431 86.9652 29.1641C86.9541 29.5354 86.9232 29.9155 86.8724 30.3045C86.8127 30.7575 86.7817 31.1387 86.7795 31.4481C86.7619 33.6006 86.7597 35.7543 86.7729 37.909C86.7762 38.4593 86.6204 38.7775 86.2127 39.0957C86.1825 39.1192 86.1477 39.1359 86.1105 39.1447C86.0733 39.1535 86.0346 39.1541 85.9972 39.1466C85.9597 39.139 85.9243 39.1235 85.8934 39.1009C85.8625 39.0784 85.8369 39.0495 85.8182 39.0162C85.774 38.941 85.7088 38.8946 85.6226 38.8769C85.4746 38.8482 85.437 38.9001 85.5099 39.0327C85.7596 39.4858 86.0635 39.8869 86.4215 40.2361C86.8094 40.614 86.8027 40.8493 86.7961 41.3565C86.7674 43.9776 86.7541 48.2936 86.7563 54.3048L86.5674 55.8097C86.5519 55.918 86.5862 56.0064 86.6701 56.0749L86.7994 56.1876C86.8945 56.2672 86.9906 56.2683 87.0878 56.191C87.3696 55.9622 87.6215 55.7932 88.0127 55.7965C89.6127 55.8097 91.1928 55.6639 92.7531 55.3589L96.0448 54.3545L96.6714 54.076L97.8117 53.5125C97.9178 53.4594 97.9565 53.4904 97.9277 53.6053L97.6725 54.6197L97.2681 55.8926C97.1973 56.1843 97.057 56.37 96.8471 56.4495C96.7299 56.4959 96.7001 56.5755 96.7576 56.6882L96.8205 56.8075C96.8759 56.9181 96.8866 57.0452 96.8504 57.1622L95.405 61.8662C95.3719 61.9722 95.3034 62.0463 95.1995 62.0883C95.0316 62.1568 94.8139 62.1888 94.5465 62.1844L92.9719 62.1082C92.8636 62.1037 92.7984 62.0474 92.7763 61.9391C92.752 61.8087 92.752 61.6816 92.7763 61.5579C92.7962 61.4452 92.7553 61.3623 92.6536 61.3093C92.605 61.2827 92.5531 61.2805 92.4978 61.3026C92.3034 61.0352 92.2017 60.7225 92.1929 60.3645C92.1906 60.3092 92.1619 60.2805 92.1067 60.2783L92.0039 60.2717C91.9465 60.2695 91.9177 60.2971 91.9177 60.3545L91.921 60.928C91.8879 61.3877 91.742 61.7446 91.4835 61.9988C91.4026 62.0775 91.2932 62.1215 91.1785 62.1214H82.364C82.1948 62.1214 82.0312 62.06 81.9033 61.9486C81.7754 61.8372 81.6918 61.6831 81.6679 61.5148C81.6369 61.2827 81.5706 61.0739 81.469 60.8883C81.4582 60.8682 81.4422 60.8514 81.4227 60.8396C81.4031 60.8279 81.3807 60.8218 81.3579 60.8218C81.3351 60.8218 81.3128 60.8279 81.2932 60.8396C81.2737 60.8514 81.2576 60.8682 81.2469 60.8883L80.7132 61.9424C80.6557 62.0595 80.5607 62.1181 80.4281 62.1181L75.9827 62.1413L75.3562 62.1082C75.2435 62.1037 75.1893 62.0441 75.1938 61.9292C75.2114 61.591 75.3109 61.2264 75.4921 60.8352C76.0291 59.7744 76.2999 58.4319 76.3043 56.8075C76.3197 51.1279 76.3253 45.4472 76.3209 39.7654C76.3209 39.0659 76.4833 38.3797 76.8115 37.7697C76.8778 37.6416 76.8391 37.5731 76.6954 37.5642C76.607 37.5598 76.5297 37.5333 76.4634 37.4847C76.3728 37.4162 76.3275 37.3255 76.3275 37.2128C76.3341 34.4526 76.3231 32.6161 76.2943 31.7034C76.2634 30.7465 76.0424 29.8382 75.6313 28.9785L75.2833 28.3619C75.1286 28.1343 75.0004 27.9089 74.8987 27.6857C74.8479 27.5752 74.8457 27.4868 74.8921 27.4205C74.9452 27.3431 75.0413 27.2989 75.1805 27.2879L75.5684 27.2216Z" fill="white"/>
<path d="M96.9331 27.2779L97.6028 27.2813L104.216 27.3078C104.324 27.3078 104.423 27.3398 104.511 27.4039C104.604 27.4724 104.704 27.521 104.813 27.5498C105.003 27.8481 105.245 27.9188 105.539 27.7619C106.089 27.4724 106.465 27.3056 106.666 27.2614L107.584 27.2315L108.386 27.2945C108.506 27.3056 108.545 27.3674 108.506 27.4802L108.274 28.1299C108.037 28.7199 107.918 29.3553 107.916 30.036C107.854 30.8161 107.853 31.3708 107.912 31.7001C108.277 33.773 108.654 35.8449 109.043 37.9156C109.078 38.1035 108.979 38.4703 108.744 39.0162C108.7 39.1134 108.721 39.1952 108.807 39.2615C109.086 39.4759 109.298 39.7355 109.444 40.0405L109.656 41.151C109.886 42.6317 110.151 44.0969 110.452 45.5467C110.513 45.8472 110.458 46.1577 110.286 46.4782C110.195 46.6439 110.179 46.8174 110.236 46.9986C110.285 47.1423 110.374 47.2439 110.505 47.3036C110.639 47.3655 110.729 47.3257 110.773 47.1843L113.216 39.2615L113.776 37.5974C113.814 37.4891 113.889 37.4217 114.002 37.3952L114.542 37.2692C114.949 37.2029 115.371 37.2626 115.809 37.4482C115.84 37.462 115.875 37.4664 115.909 37.4608C115.943 37.4553 115.975 37.44 116 37.4169C116.026 37.3938 116.044 37.3639 116.053 37.3306C116.062 37.2974 116.061 37.2622 116.05 37.2294C115.858 36.6327 115.51 36.0957 115.006 35.6184C114.467 35.2714 114.554 34.3432 115.268 32.8338L115.954 30.4305L116.531 28.5873C116.604 28.1962 116.767 27.8857 117.018 27.6558C117.05 27.6264 117.089 27.6057 117.131 27.5956C117.174 27.5856 117.218 27.5867 117.259 27.5987C117.301 27.6107 117.339 27.6332 117.369 27.6641C117.4 27.6951 117.422 27.7333 117.433 27.7752L117.645 28.5575L118.255 30.5531C119.327 34.0007 120.417 37.4372 121.527 40.8626C121.531 40.8759 121.54 40.8825 121.553 40.8825C121.56 40.8803 121.567 40.8792 121.573 40.8792C121.567 40.9212 121.567 40.9632 121.573 41.0052C121.582 41.0737 121.562 41.1322 121.514 41.1809L120.774 41.9201C120.514 42.1787 120.567 42.2936 120.933 42.2649C121.614 42.2118 122.058 42.5577 122.266 43.3024C122.474 44.045 122.708 44.7942 122.969 45.55L123.337 46.9224C123.357 46.9953 123.404 47.0351 123.479 47.0417C123.515 47.0439 123.547 47.0362 123.575 47.0185C123.62 46.992 123.647 46.9367 123.658 46.8528C123.727 46.3577 123.785 45.8616 123.834 45.3643L124.5 41.4991L124.785 39.9411L124.911 39.0958C125.042 38.7532 125.07 38.4803 124.998 38.277C125.831 35.1786 126.181 32.0526 126.048 28.899C125.894 28.6205 125.804 28.226 125.78 27.7155L126.267 27.2779C129.277 27.2978 132.272 27.3078 135.251 27.3078C135.352 27.3078 135.519 27.3962 135.751 27.573C135.762 27.6835 135.798 27.7774 135.857 27.8547C135.928 27.9498 136.02 27.9774 136.132 27.9376C136.415 27.8382 136.665 27.6824 136.882 27.4702C136.959 27.3929 137.052 27.3442 137.16 27.3244L137.664 27.2315C138.148 27.2183 138.418 27.3453 138.473 27.6128L137.21 29.8503C136.657 31.1631 136.209 32.6095 135.864 34.1896C135.773 34.6073 135.563 35.0018 135.234 35.3731C135.159 35.4593 135.138 35.5576 135.171 35.6681L135.294 36.0692C135.329 36.1819 135.332 36.2946 135.304 36.4073C134.599 39.3201 133.896 42.2317 133.195 45.1422C133.083 45.613 132.837 45.908 132.552 46.2693L131.797 47.1378C131.779 47.1596 131.756 47.1767 131.73 47.1876L131.044 47.529C130.916 47.5909 130.904 47.6715 131.008 47.771L132.032 48.7622C132.054 50.181 131.834 51.4849 131.372 52.6738C131.164 53.2086 131.014 53.6661 130.921 54.0462C130.824 54.4506 130.706 54.8473 130.567 55.2363C130.445 55.5766 130.36 55.9368 130.311 56.317C130.108 57.8661 129.704 59.7314 129.098 61.9126C129.074 61.9988 129.02 62.0574 128.936 62.0883C128.772 62.1502 128.547 62.1778 128.259 62.1712C127.848 62.0231 127.446 61.7314 127.053 61.296C126.984 61.2187 126.959 61.2308 126.977 61.3325C126.992 61.412 127.036 61.4828 127.109 61.5446C127.175 61.7325 127.154 61.8817 127.046 61.9922C126.975 62.0673 126.853 62.106 126.678 62.1082C124.882 62.1303 123.084 62.1303 121.285 62.1082C121.179 62.106 121.086 62.0684 121.006 61.9955L120.483 61.5082C120.178 61.159 119.969 60.6651 119.856 60.0264L119.777 59.6949L119.1 56.9236C119.088 56.8716 119.087 56.8174 119.098 56.7647C119.109 56.712 119.131 56.6622 119.163 56.6186L119.614 56.0087C119.707 55.8827 119.677 55.8009 119.525 55.7634C119.01 55.6396 118.706 55.3987 118.613 55.0407C118.116 53.1048 117.667 51.2285 117.267 49.4119C117.152 48.8926 117.036 48.8926 116.919 49.4119L115.414 56.0982C115.016 57.7998 114.625 59.5004 114.241 61.1999C114.236 61.2198 114.218 61.3336 114.187 61.5413C114.117 62.0386 113.771 62.2441 113.15 62.1579C112.529 62.1535 111.976 62.1027 111.492 62.0054C111.078 61.9225 110.776 62.0585 110.372 62.075C108.885 62.1325 107.254 62.1446 105.479 62.1115C105.419 62.1115 105.37 62.0883 105.33 62.0419C105.303 62.0132 105.284 61.98 105.27 61.9424L104.945 60.6065C104.382 58.3678 103.798 56.1368 103.195 53.9136C103.131 53.6794 103.145 53.3711 103.238 52.9887C103.262 52.8827 103.239 52.7887 103.169 52.707C102.892 52.3843 102.733 52.1434 102.691 51.9843C100.963 45.3345 99.2337 38.6847 97.5033 32.0349C97.4768 31.9266 97.4768 31.8183 97.5033 31.71C97.6448 31.162 97.6536 30.6095 97.5298 30.0526C97.5055 29.9421 97.4425 29.8592 97.3409 29.8039C97.279 29.7686 97.2127 29.7443 97.142 29.731C96.8392 29.6205 96.5552 29.4426 96.29 29.1973L95.6735 28.2293L95.1331 27.4636C95.0558 27.3531 95.0845 27.2978 95.2193 27.2978L96.9331 27.2779Z" fill="white"/>
<path d="M178.451 27.235L181.617 27.3113C181.725 27.3135 181.819 27.35 181.899 27.4207C181.958 27.4759 181.997 27.5433 182.015 27.6229C182.081 27.9478 182.225 27.9875 182.446 27.7422C182.757 27.3975 183.072 27.308 183.533 27.3047C188.021 27.2737 190.933 27.2726 192.268 27.3014C192.836 27.3124 193.692 27.4251 194.837 27.6395C195.018 27.9467 195.196 27.9864 195.371 27.7588L196.425 27.9643L197.751 28.4848C201.921 30.1688 204.662 33.7257 204.062 38.3998C203.877 39.7656 203.435 41.0441 202.736 42.2352C202.604 42.4606 202.436 42.5756 202.232 42.58L200.492 42.5071C200.344 42.4452 200.2 42.4087 200.061 42.3977C199.937 42.3888 199.869 42.4452 199.856 42.5667C199.847 42.6286 199.873 42.6938 199.935 42.7623C199.997 42.8352 200.126 42.8794 200.323 42.8949C200.683 43.2573 200.767 43.791 200.575 44.496C200.42 44.7369 200.187 44.9524 199.876 45.1424L198.387 45.8419C198.285 45.8883 198.256 45.9634 198.298 46.0673L199.06 47.8872L200.545 50.6055C200.867 51.1127 201.291 51.7094 201.384 52.316C201.419 52.5525 201.576 52.7414 201.855 52.8829C201.974 52.9425 202.07 53.0265 202.143 53.1348C204.247 56.2288 206.518 59.189 208.955 62.0156C208.94 62.0443 208.925 62.0719 208.912 62.0984C208.894 62.136 208.865 62.1548 208.823 62.1548L206.22 62.1316L199.829 62.1283C199.65 62.1283 199.495 62.0653 199.365 61.9393L197.873 60.4708C197.792 60.389 197.748 60.2907 197.744 60.1758C197.737 59.9857 197.798 59.8067 197.926 59.6387C198.028 59.5061 197.995 59.4465 197.827 59.4597L197.22 59.5061C197.101 59.515 197.001 59.4752 196.922 59.3868C195.598 57.9282 194.422 56.3934 193.395 54.7823C191.782 52.2895 190.461 49.6784 189.433 46.9491C189.347 46.7193 189.274 46.7226 189.215 46.959C189.173 47.1336 189.186 47.3093 189.254 47.4861C189.308 47.619 189.314 47.7666 189.271 47.9038C189.187 48.1778 188.969 48.3657 188.618 48.4673C188.585 48.4773 188.555 48.4967 188.532 48.5231C188.509 48.5496 188.494 48.582 188.489 48.6165C188.485 48.6511 188.49 48.6863 188.504 48.7181C188.519 48.7498 188.542 48.7767 188.572 48.7955C189.5 49.379 189.298 50.6585 189.294 51.5967L189.264 53.6188C189.264 53.7359 189.216 53.8276 189.119 53.8939C188.829 54.0972 188.528 54.1845 188.217 54.1558C188.014 54.1359 187.984 54.1978 188.127 54.3414C188.62 54.8343 188.997 55.3823 189.258 55.9857C189.187 57.6962 189.451 59.2631 190.05 60.6863L190.647 61.7404C190.702 61.8421 190.696 61.9404 190.63 62.0355C190.575 62.115 190.501 62.1548 190.408 62.1548C190.322 62.157 190.246 62.1216 190.179 62.0487C190.098 61.9559 190.02 61.8631 189.947 61.7703C189.874 61.6774 189.794 61.6719 189.705 61.7537C189.637 61.82 189.582 61.9183 189.54 62.0487L188.035 62.1117L184.839 62.0653L184.043 60.862C184.033 60.8464 184.019 60.8337 184.002 60.8251C183.985 60.8164 183.967 60.812 183.948 60.8124C183.929 60.8127 183.911 60.8177 183.894 60.8269C183.878 60.8362 183.864 60.8494 183.854 60.8653L183.069 62.1316L178.378 62.1879C178.159 62.1747 177.994 62.1294 177.881 62.052C177.764 61.9747 177.724 61.8332 177.761 61.6277C177.848 61.1725 178.001 60.7404 178.222 60.3316C178.58 59.4807 178.774 58.5813 178.802 57.6332C178.829 56.758 178.838 55.8884 178.829 55.0243C178.824 54.6265 178.902 54.0033 179.061 53.1547C179.207 52.3923 179.212 51.6508 179.078 50.9304C178.918 50.0729 178.839 49.4541 178.839 49.074C178.837 44.3292 178.838 39.5866 178.842 34.8462C178.842 34.7335 178.878 34.6329 178.948 34.5445C179.216 34.2108 179.538 33.939 179.916 33.729C180.053 33.7843 180.173 33.7987 180.274 33.7721C180.402 33.7412 180.441 33.6639 180.39 33.5401C180.3 33.3191 180.075 33.1832 179.717 33.1324C178.746 32.6915 178.749 31.5942 178.806 30.6229C178.826 30.2826 178.649 29.8992 178.275 29.4726C178.222 29.2406 178.143 29.0406 178.037 28.8726L177.506 27.845C177.458 27.7478 177.47 27.6594 177.543 27.5798C177.77 27.3345 178.073 27.2196 178.451 27.235ZM188.94 33.5169L188.88 36.3512C189.001 37.0385 188.904 37.612 188.588 38.0716C188.524 38.1645 188.524 38.2562 188.588 38.3468L188.804 38.6551C188.863 38.7391 188.893 38.833 188.893 38.9368L188.896 41.4695L188.923 44.2905C188.923 44.3205 188.93 44.3501 188.943 44.3772C188.957 44.4042 188.976 44.4279 188.999 44.4466C189.023 44.4654 189.05 44.4786 189.079 44.4854C189.108 44.4923 189.139 44.4925 189.168 44.4861C192.393 43.7701 194.49 41.8518 195.46 38.7313C195.805 37.3921 195.747 36.181 195.288 35.0981C194.3 32.771 191.485 32.002 189.112 32.1379C188.995 32.1445 188.936 32.2064 188.936 32.3235L188.94 33.5169Z" fill="white"/>
<path d="M223.133 27.2118C223.24 27.4173 223.489 27.583 223.883 27.709L223.17 29.1775C222.636 30.9378 222.775 32.7378 222.739 34.5212C222.737 34.632 222.706 34.7405 222.65 34.8362L221.575 36.6395C221.498 36.7699 221.532 36.813 221.678 36.7688C222.023 36.6627 222.126 36.3213 222.398 36.2284C222.475 36.2019 222.548 36.2008 222.616 36.2251C222.727 36.2649 222.782 36.3434 222.782 36.4605L222.769 54.1458L222.335 55.906C222.259 55.9502 222.231 56.0651 222.248 56.2508C222.253 56.2896 222.267 56.3266 222.289 56.3584C222.312 56.3901 222.343 56.4154 222.378 56.4317C222.413 56.4481 222.452 56.455 222.491 56.4518C222.53 56.4485 222.568 56.4352 222.6 56.4132C222.746 56.316 222.877 56.1745 222.994 55.9889L224.884 55.7568L226.16 55.6939L228.822 55.3425L231.016 54.769C231.673 54.4419 232.308 54.3436 232.923 54.474C233.188 54.2706 233.426 53.9734 233.639 53.5822C233.674 53.5756 233.708 53.5579 233.741 53.5292C233.786 53.4916 233.835 53.4795 233.891 53.4927C233.992 53.5193 234.028 53.5767 233.997 53.6651C233.773 54.3259 233.56 54.9778 233.357 55.6209L232.591 56.7215C232.531 56.8077 232.524 56.8983 232.568 56.9933C232.899 57.716 232.372 59.0154 231.981 60.0464C231.82 60.4729 231.553 60.5768 231.182 60.358C231.142 60.3339 231.098 60.3183 231.052 60.312C231.006 60.3057 230.959 60.309 230.914 60.3215C230.618 60.4033 230.308 60.4254 229.986 60.3878C229.84 60.3702 229.805 60.4232 229.883 60.547C230.139 60.9536 230.433 61.1028 230.765 60.9945C231.114 60.8796 231.324 61.0033 231.394 61.3658C231.412 61.4519 231.43 61.5437 231.447 61.6409C231.511 61.968 231.377 62.1315 231.043 62.1315L229.82 62.1282L220.959 62.0984C220.851 62.0984 220.779 62.0464 220.743 61.9426L220.591 61.4718L220.498 61.0276C220.467 60.8906 220.4 60.8685 220.296 60.9613C220.214 61.032 220.159 61.1403 220.13 61.2862C219.742 61.81 219.388 62.105 218.685 62.1083C216.283 62.1282 213.883 62.1293 211.485 62.1116C211.244 62.1713 211.027 62.1845 210.835 62.1514C210.705 62.1293 210.677 62.0652 210.752 61.9591L211.418 61.0077C211.949 60.1171 212.239 59.1447 212.29 58.0906C212.341 57.0298 212.35 55.1259 212.317 52.3789C212.316 52.328 212.326 52.2774 212.346 52.2305C212.367 52.1835 212.398 52.1414 212.436 52.1071L212.93 51.6761C213.472 51.3292 213.961 51.2132 214.399 51.3281C215.075 51.5049 215.167 51.3457 214.674 50.8507C214.253 50.4264 213.563 50.085 213.182 49.5711C212.715 48.928 212.993 48.0794 212.751 47.3236C212.727 46.9811 212.611 46.6264 212.403 46.2595C212.348 46.1645 212.32 46.0617 212.32 45.9512C212.327 41.1158 212.323 36.2826 212.31 31.4516C212.31 30.6339 212.053 29.7223 211.538 28.7168L211.18 28.1399C211.142 28.0781 211.117 28.0184 211.104 27.9609C211.079 27.846 211.123 27.7676 211.236 27.7256C211.51 27.6195 211.755 27.4703 211.972 27.2781L215.93 27.3079C216.049 27.3079 216.157 27.3444 216.252 27.4173L216.689 27.7587C216.782 27.8317 216.869 27.8272 216.951 27.7455L217.289 27.4206L219.146 27.2847L221.698 27.2714L223.133 27.2118Z" fill="white"/>
<path d="M236.96 27.2151C237.55 27.2549 238.703 27.2803 240.418 27.2914C240.977 27.2958 241.539 27.5422 242.105 28.0306C242.492 28.4549 242.987 28.8339 243.59 29.1676C243.689 29.2229 243.761 29.1975 243.805 29.0914C243.951 28.7356 243.96 28.3411 243.832 27.9079C243.808 27.7068 243.816 27.5499 243.858 27.4372C243.896 27.3267 243.974 27.2715 244.094 27.2715C246.79 27.2582 248.548 27.2704 249.368 27.3079C251.624 27.4096 253.845 28.0251 256.031 29.1544C258.214 30.3676 259.911 31.8251 261.119 33.5268C261.608 34.2097 261.596 34.9279 261.083 35.6815C260.997 35.8119 261.025 35.8484 261.169 35.7909L261.471 35.6782C261.59 35.6318 261.703 35.6462 261.809 35.7213L262.813 36.434C262.906 36.5003 262.976 36.5854 263.022 36.6893L263.43 37.6075C264.447 40.3368 264.856 43.0396 264.66 45.7159C264.64 45.9833 264.485 46.1314 264.196 46.1601C264.172 46.1625 264.15 46.1705 264.13 46.1835C264.111 46.1964 264.095 46.2138 264.083 46.2343C264.072 46.2548 264.066 46.2777 264.065 46.3012C264.064 46.3246 264.069 46.3479 264.08 46.3689C264.719 47.6518 264.405 49.0209 264.066 50.4231C263.708 51.9104 263.385 53.3966 263.095 54.8817C262.81 55.9094 262.835 56.8674 263.171 57.7558C264.493 59.8752 266.44 60.8476 269.012 60.673C271.296 60.5205 273.143 59.2409 273.779 57.0431C273.868 56.7359 273.962 56.4431 274.061 56.1646C274.176 55.8353 274.202 55.4895 274.141 55.127C273.995 54.2917 274.051 53.5326 273.63 52.6773C273.579 52.5756 273.512 52.5613 273.428 52.6342C272.341 53.5801 271.305 53.5116 270.322 52.4287C269.962 52.0309 269.788 51.6463 269.801 51.2751C270.033 51.253 270.269 51.2939 270.507 51.3977C270.576 51.4287 270.637 51.4187 270.69 51.3679C270.716 51.3436 270.732 51.3171 270.736 51.2883C270.745 51.2397 270.72 51.1878 270.66 51.1325C269.641 50.1889 269.005 49.043 268.75 47.6949C269.007 47.3899 268.881 46.7711 268.373 45.8385C268.481 45.7988 268.51 45.6419 268.459 45.3678C268.386 44.0993 268.533 43.7645 268.9 44.3634C269.229 44.8363 269.591 45.1634 269.987 45.3446C270.581 45.78 271.239 46.0396 271.959 46.1236C272.969 46.4308 273.749 47.0087 274.3 47.8573C274.359 47.948 274.379 48.0463 274.359 48.1524L274.32 48.3413C274.3 48.443 274.331 48.527 274.412 48.5933C274.607 48.7524 274.712 49.0331 274.727 49.4353C274.743 49.822 274.718 50.1988 274.654 50.5657C274.657 50.6519 274.654 50.7027 274.648 50.7182C274.634 50.7444 274.614 50.7667 274.59 50.7832C274.565 50.7996 274.537 50.8096 274.508 50.8123C274.478 50.8149 274.449 50.8101 274.421 50.7983C274.394 50.7865 274.371 50.768 274.353 50.7447C273.754 49.9557 273.019 49.432 272.148 49.1734C271.87 49.0076 271.606 48.9292 271.356 48.938C271.23 48.9402 271.205 48.9922 271.28 49.0938C271.399 49.2574 271.562 49.3712 271.767 49.4353C273.232 50.3856 274.292 51.7115 274.946 53.4132L275.288 54.5768L275.39 55.737C275.505 56.7691 275.394 57.7337 275.055 58.631C274.815 59.263 274.683 59.6111 274.661 59.6752C274.515 60.0884 274.341 60.4862 274.137 60.8686C273.366 61.7901 272.458 62.5603 271.412 63.1791C267.849 65.2841 263.569 65.4432 260.327 62.6951C260.098 62.5028 260.055 62.3072 260.045 62.0288C260.041 61.9205 259.987 61.8509 259.883 61.8199C259.452 61.6896 259.108 61.4531 258.852 61.1105C258.359 60.463 258.067 59.7801 257.977 59.0619C257.971 59.0126 257.951 58.966 257.919 58.9278C257.887 58.8896 257.845 58.8614 257.798 58.8464L257.688 58.8066C257.574 58.7691 257.515 58.8111 257.513 58.9326L257.509 59.2608C257.507 59.3713 257.46 59.4564 257.367 59.516L256.349 60.1459C255.229 60.7868 254.014 61.2697 252.706 61.5945C252.056 61.7536 251.586 61.5315 250.946 61.452C250.581 61.2929 250.286 61.189 250.061 61.1404C249.654 61.0498 249.599 61.1503 249.895 61.442C249.966 61.5105 250.117 61.5581 250.349 61.5846C250.482 61.7304 250.545 61.8465 250.538 61.9326C250.529 62.0144 250.444 62.0564 250.283 62.0586C245.872 62.1249 241.342 62.1503 236.695 62.1349L236.33 62.0918C236.217 62.0785 236.137 62.0199 236.088 61.9161C236.031 61.7923 235.998 61.652 235.989 61.4951C236.252 60.9028 236.476 60.326 236.662 59.7647C236.825 59.2652 236.926 58.6619 236.963 57.9547C237.019 56.8409 237.114 55.7525 237.248 54.6895L237.981 52.8331C238.014 52.7523 238.065 52.6788 238.13 52.6176C238.583 52.1823 238.861 51.6828 238.962 51.1193C238.967 51.0922 238.965 51.0645 238.956 51.0385C238.947 51.0125 238.932 50.9891 238.912 50.9703C238.892 50.9516 238.868 50.9382 238.841 50.9312C238.815 50.9242 238.787 50.9239 238.76 50.9303L237.305 51.295C237.272 51.303 237.238 51.3035 237.205 51.2964C237.172 51.2894 237.141 51.2749 237.115 51.2541C237.088 51.2334 237.067 51.2069 237.052 51.1766C237.037 51.1464 237.03 51.1131 237.03 51.0795C237.058 47.2651 237.068 43.4728 237.059 39.7026C237.056 38.5954 237.301 37.5744 237.587 36.5268C237.619 36.4137 237.608 36.2913 237.557 36.1821C236.582 34.1732 237.444 32.0218 236.642 29.94L236.092 28.5941L235.886 28.2527L235.392 27.4704C235.377 27.447 235.369 27.4201 235.368 27.3925C235.367 27.3649 235.374 27.3376 235.387 27.3133C235.4 27.289 235.419 27.2686 235.443 27.2543C235.467 27.24 235.494 27.2322 235.521 27.2317L236.96 27.2151ZM246.779 34.4616L246.799 36.7058C246.801 38.5158 246.788 40.3434 246.759 42.1888C246.757 42.3877 246.588 42.675 246.252 43.0507C246.035 43.486 245.589 43.6175 244.913 43.4451C244.738 43.4208 244.611 43.4374 244.531 43.4949C244.428 43.5722 244.423 43.6683 244.518 43.7833C244.595 43.8783 244.724 43.9358 244.903 43.9556C245.19 44.4043 245.541 44.7667 245.957 45.0429L246.666 45.6695L246.829 47.1678L246.799 53.4696C246.749 54.4375 246.918 56.0851 246.471 56.9105C246.323 57.0365 246.234 57.1713 246.205 57.3149C246.181 57.4365 246.23 57.5083 246.351 57.5304C246.57 57.5724 246.776 57.5006 246.968 57.3149C247.276 57.0464 247.555 56.8674 247.992 56.8343C254.901 56.3436 255.355 48.4839 255.186 43.3026C255.156 42.4473 255.295 41.6849 255.766 41.065C255.865 40.9346 255.834 40.8528 255.673 40.8197C255.193 40.7225 254.926 40.4628 254.871 40.0407C254.599 38.0252 253.872 36.2351 252.689 34.6705C251.772 33.6561 250.662 33.0008 249.358 32.7047C248.624 32.5367 247.854 32.4273 247.047 32.3765C246.857 32.3655 246.763 32.455 246.766 32.645L246.779 34.4616Z" fill="white"/>
<path d="M138.29 66.9151L138.903 67.5051L141.403 70.0344C141.482 70.114 141.484 70.1925 141.406 70.2698L138.39 73.3129C138.365 73.3372 138.332 73.3508 138.297 73.3508C138.262 73.3508 138.229 73.3372 138.204 73.3129L135.177 70.293C135.091 70.2068 135.091 70.1206 135.177 70.0344L138.29 66.9151ZM140.444 70.2185C140.452 70.2102 140.458 70.2003 140.463 70.1894C140.467 70.1785 140.47 70.1669 140.47 70.1551C140.47 70.1434 140.467 70.1317 140.463 70.1209C140.458 70.1101 140.451 70.1002 140.443 70.0919L138.34 68.0037C138.323 67.987 138.301 67.9776 138.277 67.9777C138.253 67.9778 138.23 67.9873 138.214 68.0041L136.13 70.1023C136.122 70.1106 136.115 70.1205 136.111 70.1314C136.106 70.1423 136.104 70.1539 136.104 70.1657C136.104 70.1774 136.107 70.1891 136.111 70.1999C136.116 70.2108 136.122 70.2206 136.131 70.2289L138.233 72.3171C138.25 72.3338 138.273 72.3432 138.297 72.3431C138.321 72.343 138.343 72.3335 138.36 72.3167L140.444 70.2185Z" fill="white"/>
<path d="M130.958 70.9925L98.7697 70.714L44.3812 70.4223L14.951 70.2632C14.8406 70.2632 14.7378 70.2875 14.6428 70.3361C14.5124 70.4002 14.3831 70.3936 14.2549 70.3162C14.205 70.288 14.149 70.2731 14.0925 70.2731C11.8118 70.2134 9.2659 70.2256 6.45482 70.3096C6.45136 70.31 6.44784 70.3096 6.44447 70.3085C6.4411 70.3074 6.43794 70.3056 6.43517 70.3031C6.4324 70.3006 6.43007 70.2976 6.42833 70.2942C6.42658 70.2907 6.42544 70.2869 6.42498 70.2831C6.42056 70.177 6.41725 70.1604 6.41504 70.2333C6.41504 70.2466 6.42167 70.2532 6.43493 70.2532C10.025 70.1869 13.7245 70.0444 17.1953 70.0278C26.044 69.9858 34.8938 69.9394 43.7448 69.8886L131.041 69.3847C131.151 69.3825 131.244 69.3427 131.319 69.2654L131.78 68.7847C131.895 68.6654 132.011 68.6654 132.128 68.7847L133.312 69.9947C133.418 70.1052 133.418 70.2157 133.312 70.3262L132.035 71.6422C132.031 71.6449 132.027 71.6464 132.022 71.6464C132.017 71.6464 132.013 71.6449 132.009 71.6422C131.458 71.1626 131.108 70.946 130.958 70.9925Z" fill="white"/>
<path d="M233.635 69.8819L255.845 70.0046C255.847 70.0731 255.819 70.1836 255.759 70.3361L232.475 70.4289L180.735 70.714C169.168 70.7361 157.598 70.8101 146.024 70.9361C145.52 70.9427 145.384 70.883 145.046 71.3007C144.953 71.4156 144.839 71.5051 144.705 71.5692C144.603 71.6178 144.512 71.6024 144.433 71.5228L143.206 70.293C143.169 70.2797 143.142 70.2477 143.127 70.1968C143.121 70.1777 143.12 70.1571 143.125 70.1373C143.129 70.1175 143.139 70.0991 143.153 70.0841L144.473 68.7648C144.57 68.6675 144.667 68.6675 144.764 68.7648L145.288 69.2852C145.365 69.3626 145.459 69.4012 145.57 69.4012L233.635 69.8819Z" fill="white"/>
</svg>
