<svg width="186" height="75" viewBox="0 0 186 75" fill="none" xmlns="http://www.w3.org/2000/svg">
<path d="M71.8739 27.4311H62.6133C61.9798 27.4311 61.4407 27.8759 61.3416 28.4813L57.5962 51.4432C57.5306 51.8505 57.8186 52.2319 58.2398 52.296C58.2793 52.3018 58.3195 52.3051 58.3603 52.3051H62.7813C63.4155 52.3051 63.9546 51.8589 64.053 51.2535L65.0635 45.0601C65.1613 44.4553 65.7004 44.0092 66.3338 44.0086H69.2656C75.3661 44.0086 78.8865 41.1543 79.8059 35.4977C80.2204 33.0229 79.8233 31.0785 78.6253 29.7168C77.3088 28.2217 74.9744 27.4304 71.8752 27.4304L71.8739 27.4311ZM72.942 35.8176C72.4357 39.0305 69.8964 39.0305 67.4415 39.0305H66.0439L67.0243 33.0301C67.0839 32.6675 67.4066 32.4 67.7863 32.4H68.4265C70.0986 32.4 71.6763 32.4 72.4913 33.3221C72.9775 33.8718 73.1261 34.689 72.9406 35.8176H72.942ZM99.5559 35.714H95.1215C94.7418 35.714 94.4184 35.9814 94.3594 36.344L94.1632 37.5432L93.8532 37.1087C92.8929 35.7613 90.752 35.3112 88.6152 35.3112C83.7147 35.3112 79.5287 38.9004 78.7137 43.9347C78.2898 46.4458 78.8925 48.8474 80.3657 50.5218C81.7171 52.0616 83.651 52.7033 85.9513 52.7033C89.9002 52.7033 92.0893 50.2486 92.0893 50.2486L91.8918 51.44C91.8241 51.8473 92.1114 52.23 92.532 52.2947C92.5721 52.3012 92.6123 52.3038 92.6525 52.3038H96.647C97.2811 52.3038 97.8202 51.8576 97.9186 51.2522L100.315 36.5758C100.383 36.1705 100.097 35.7884 99.6778 35.7237C99.6376 35.7172 99.5968 35.714 99.5559 35.714ZM93.3744 44.0597C92.9465 46.5092 90.9355 48.1539 88.3708 48.1539C87.083 48.1539 86.0538 47.7544 85.3928 46.9975C84.7372 46.2457 84.4881 45.176 84.697 43.9846C85.0968 41.5558 87.1413 39.8574 89.6665 39.8574C90.9261 39.8574 91.9494 40.2621 92.6237 41.0255C93.2994 41.7967 93.5672 42.8728 93.3737 44.0591L93.3744 44.0597ZM123.175 35.714H118.718C118.291 35.7146 117.892 35.9192 117.653 36.2598L111.507 45.0141L108.901 36.6017C108.737 36.0746 108.235 35.714 107.666 35.714H103.287C102.86 35.7127 102.514 36.0462 102.512 36.4586C102.512 36.5415 102.527 36.6231 102.554 36.7014L107.463 50.63L102.848 56.9289C102.601 57.265 102.683 57.7312 103.03 57.9695C103.161 58.0595 103.317 58.1074 103.477 58.1074H107.929C108.35 58.1074 108.746 57.9086 108.986 57.5732L123.808 36.8853C124.051 36.5467 123.964 36.0818 123.614 35.8467C123.485 35.76 123.331 35.7133 123.174 35.7133L123.175 35.714Z" fill="#253B80"/>
<path d="M137.929 27.431H128.667C128.034 27.431 127.495 27.8765 127.396 28.4812L123.651 51.4432C123.585 51.8498 123.871 52.2312 124.291 52.2953C124.331 52.3011 124.372 52.3043 124.412 52.3043H129.165C129.608 52.3043 129.985 51.9916 130.054 51.5688L131.116 45.06C131.214 44.4553 131.753 44.0091 132.387 44.0085H135.317C141.419 44.0085 144.938 41.1543 145.859 35.4976C146.275 33.0229 145.875 31.0784 144.677 29.7167C143.362 28.2216 141.029 27.4303 137.929 27.4303L137.929 27.431ZM138.997 35.8175C138.492 39.0304 135.953 39.0304 133.496 39.0304H132.1L133.082 33.03C133.14 32.6674 133.463 32.4 133.843 32.4H134.483C136.154 32.4 137.733 32.4 138.548 33.322C139.034 33.8717 139.181 34.6889 138.996 35.8175H138.997ZM165.61 35.7139H161.178C160.798 35.7126 160.475 35.9807 160.417 36.3439L160.221 37.5431L159.909 37.1086C158.949 35.7612 156.81 35.3112 154.673 35.3112C149.772 35.3112 145.588 38.9003 144.773 43.9347C144.35 46.4457 144.95 48.8473 146.423 50.5218C147.777 52.0615 149.709 52.7032 152.009 52.7032C155.958 52.7032 158.147 50.2485 158.147 50.2485L157.949 51.4399C157.882 51.8472 158.169 52.2299 158.59 52.2946C158.63 52.3011 158.672 52.3043 158.713 52.3037H162.706C163.339 52.3037 163.878 51.8576 163.976 51.2521L166.374 36.5757C166.439 36.1678 166.15 35.7858 165.728 35.723C165.689 35.7171 165.649 35.7139 165.61 35.7145V35.7139ZM159.428 44.0596C159.003 46.5091 156.989 48.1538 154.424 48.1538C153.139 48.1538 152.107 47.7543 151.446 46.9974C150.791 46.2456 150.544 45.1759 150.751 43.9845C151.153 41.5557 153.195 39.8573 155.72 39.8573C156.98 39.8573 158.003 40.262 158.677 41.0254C159.356 41.7966 159.623 42.8727 159.427 44.059L159.428 44.0596ZM170.837 28.061L167.037 51.4432C166.97 51.8498 167.257 52.2312 167.677 52.2953C167.717 52.3011 167.757 52.3043 167.797 52.3043H171.618C172.253 52.3043 172.792 51.8589 172.89 51.2528L176.638 28.2922C176.704 27.8849 176.417 27.5029 175.996 27.4388C175.956 27.4329 175.917 27.4297 175.877 27.4297H171.598C171.218 27.431 170.896 27.6984 170.837 28.061H170.837Z" fill="#179BD7"/>
<path d="M19.1375 56.7671L19.846 52.4171L18.2683 52.3815H10.7354L15.97 20.2865C16.0022 20.0838 16.183 19.9343 16.3952 19.9356H29.0972C33.314 19.9356 36.2236 20.7838 37.7431 22.4589C38.4556 23.2443 38.9089 24.0654 39.1286 24.9686C39.3589 25.9166 39.363 27.0491 39.138 28.4309L39.1219 28.5319V29.417L39.8344 29.8075C40.3782 30.0736 40.867 30.4342 41.2768 30.8707C41.8862 31.5421 42.28 32.3962 42.4467 33.4082C42.6188 34.4494 42.5619 35.6881 42.28 37.09C41.9552 38.7029 41.4295 40.108 40.7204 41.2573C40.0942 42.2875 39.2525 43.1791 38.2493 43.8759C37.3071 44.5227 36.1868 45.0135 34.9212 45.3282C33.6944 45.6371 32.2955 45.7931 30.7613 45.7931H29.7729C29.0657 45.7931 28.3793 46.0392 27.8403 46.4808C27.3019 46.9269 26.9449 47.5427 26.8331 48.2193L26.7588 48.6111L25.5079 56.2776L25.4509 56.5592C25.4362 56.6486 25.4101 56.6926 25.3726 56.7231C25.3358 56.7522 25.2902 56.7684 25.2427 56.769H19.1395L19.1375 56.7671Z" fill="#253B80"/>
<path d="M40.508 28.6335C40.4698 28.8679 40.427 29.1075 40.3781 29.3536C38.7033 37.6695 32.9724 40.5419 25.6531 40.5419H21.9265C21.0312 40.5419 20.2771 41.1706 20.1379 42.024L18.23 53.7245L17.6896 57.041C17.6072 57.5441 17.9622 58.0161 18.4825 58.0958C18.5314 58.1036 18.5809 58.1068 18.6311 58.1068H25.2406C26.0234 58.1068 26.6884 57.5571 26.8116 56.8105L26.8766 56.4861L28.1208 48.85L28.2005 48.4311C28.3223 47.6819 28.9886 47.1322 29.7715 47.1322H30.7599C37.1637 47.1322 42.1768 44.6186 43.642 37.3438C44.254 34.3051 43.9373 31.7675 42.3174 29.983C41.8038 29.4306 41.191 28.9741 40.508 28.6342V28.6335Z" fill="#179BD7"/>
<path d="M38.7562 27.9574C38.2212 27.8078 37.6774 27.6913 37.1269 27.6077C36.0401 27.4465 34.9412 27.3688 33.8416 27.3759H23.8859C23.1031 27.3759 22.4368 27.927 22.3163 28.6748L20.1981 41.6451L20.1372 42.0232C20.2738 41.1698 21.0332 40.5404 21.9258 40.5411H25.6525C32.9718 40.5411 38.702 37.6668 40.3774 29.3528C40.4277 29.1067 40.4698 28.8671 40.5073 28.6327C40.0654 28.4087 39.6047 28.2209 39.1299 28.0714C39.0053 28.0312 38.8808 27.9937 38.7549 27.9574H38.7562Z" fill="#222D65"/>
<path d="M22.3163 28.6749C22.4355 27.9264 23.1025 27.3747 23.886 27.3773H33.8417C35.0209 27.3773 36.1218 27.4517 37.127 27.6091C37.8067 27.7127 38.4777 27.8668 39.1326 28.0714C39.6268 28.23 40.0862 28.4172 40.5101 28.6328C41.0083 25.5597 40.506 23.4676 38.7877 21.573C36.8919 19.4874 33.4727 18.5945 29.0979 18.5945H16.3959C15.5019 18.5945 14.7399 19.2232 14.6019 20.0779L9.31099 52.5038C9.21656 53.0794 9.62304 53.6201 10.2184 53.7114C10.2746 53.7198 10.3309 53.7244 10.3878 53.7244H18.2294L20.1982 41.6458L22.3163 28.6755V28.6749Z" fill="#253B80"/>
</svg>
