<svg width="40" height="41" viewBox="0 0 40 41" fill="none" xmlns="http://www.w3.org/2000/svg">
<g clip-path="url(#clip0_148_1233)">
<path d="M31.4984 20.1068L30.5079 19.4932C30.4996 19.3966 30.4901 19.3003 30.4796 19.2044L31.3326 18.4102C31.4193 18.3294 31.4582 18.2098 31.4346 18.0943C31.4118 17.9781 31.3304 17.8825 31.2196 17.8416L30.1298 17.4355C30.1023 17.3412 30.0737 17.2476 30.0446 17.1535L30.7237 16.2104C30.7929 16.1145 30.8071 15.9898 30.7621 15.881C30.7168 15.772 30.6182 15.6939 30.5026 15.6748L29.354 15.4879C29.3093 15.4009 29.2629 15.3151 29.2159 15.2308L29.6987 14.1703C29.7482 14.0625 29.7379 13.9379 29.6721 13.8387C29.6065 13.7403 29.4951 13.6828 29.3765 13.6873L28.2101 13.7279C28.1498 13.6525 28.0884 13.5779 28.0259 13.5045L28.2943 12.3697C28.3215 12.2544 28.2873 12.1328 28.2034 12.0493C28.1201 11.9658 27.9993 11.9313 27.8832 11.9584L26.7481 12.2269C26.6745 12.1646 26.5998 12.103 26.5242 12.0428L26.5651 10.8763C26.5696 10.7583 26.5121 10.6462 26.4137 10.5807C26.3151 10.5148 26.1903 10.5049 26.082 10.5539L25.0237 11.0367C24.9382 10.9898 24.8525 10.9433 24.7665 10.8984L24.5792 9.75C24.5603 9.63359 24.4822 9.53475 24.373 9.49053C24.264 9.4452 24.1383 9.45987 24.0436 9.52889L23.1004 10.208C23.0074 10.1784 22.914 10.15 22.8206 10.1229L22.4144 9.0332C22.3731 8.9222 22.2775 8.84075 22.1617 8.81773C22.0457 8.79495 21.9271 8.83353 21.8458 8.91973L21.0516 9.77256C20.9557 9.76195 20.8591 9.75225 20.7627 9.74437L20.149 8.75164C20.087 8.65123 19.9771 8.59009 19.8579 8.59009C19.7388 8.59009 19.6301 8.65123 19.5691 8.75164L18.9554 9.74437C18.8588 9.75225 18.7622 9.76195 18.6666 9.77256L17.8723 8.91973C17.7918 8.83353 17.6722 8.79495 17.5564 8.81773C17.4402 8.84098 17.3446 8.9222 17.3037 9.0332L16.8976 10.1229C16.8032 10.15 16.7098 10.1787 16.6178 10.208L15.6746 9.52889C15.5787 9.45962 15.4537 9.44495 15.3452 9.49053C15.2362 9.53567 15.1579 9.63448 15.1389 9.75L14.9516 10.8984C14.865 10.9433 14.7792 10.9896 14.6944 11.0367L13.6362 10.5539C13.5286 10.5047 13.4038 10.5148 13.3045 10.5807C13.2061 10.6462 13.1486 10.7583 13.1531 10.8763L13.1937 12.0428C13.1183 12.103 13.0436 12.1646 12.9699 12.2269L11.8349 11.9584C11.7196 11.9315 11.598 11.9658 11.5145 12.0493C11.4306 12.133 11.3965 12.2537 11.4236 12.3697L11.6898 13.5045C11.6277 13.5781 11.5664 13.6525 11.5061 13.7279L10.3396 13.6873C10.222 13.6839 10.1094 13.7403 10.044 13.8387C9.97811 13.9366 9.96819 14.062 10.0171 14.1703L10.5 15.2308C10.4531 15.3158 10.4066 15.4016 10.3617 15.4879L9.21319 15.6748C9.09652 15.6937 8.99816 15.7718 8.95372 15.881C8.90858 15.9904 8.92325 16.1156 8.99205 16.2104L9.67125 17.1535C9.64169 17.2467 9.61302 17.3403 9.58594 17.4355L8.49611 17.8416C8.38555 17.8829 8.30408 17.9786 8.28108 18.0943C8.25805 18.2103 8.29664 18.329 8.38305 18.4102L9.23597 19.2044C9.22539 19.3003 9.21591 19.3968 9.20777 19.4932L8.21722 20.1068C8.1168 20.1689 8.05566 20.2786 8.05566 20.3979C8.05566 20.5173 8.1168 20.6258 8.21722 20.6867L9.20777 21.3004C9.21591 21.3969 9.22539 21.4933 9.23597 21.5892L8.38305 22.3834C8.29664 22.4639 8.25805 22.5835 8.28108 22.6992C8.30408 22.8154 8.38555 22.9109 8.49611 22.9519L9.58594 23.358C9.61302 23.4523 9.64169 23.546 9.67125 23.6401L8.99205 24.5831C8.92302 24.6793 8.90836 24.804 8.95372 24.9126C8.99905 25.022 9.09766 25.1 9.21544 25.1188L10.3639 25.3056C10.4089 25.3927 10.4549 25.4784 10.5023 25.5628L10.0194 26.6209C9.97022 26.7286 9.98036 26.8533 10.0462 26.9526C10.1121 27.0512 10.2243 27.1087 10.3418 27.104L11.5061 27.0632C11.5668 27.139 11.628 27.2132 11.6902 27.287L11.424 28.4218C11.3969 28.537 11.431 28.6565 11.5149 28.7401C11.5982 28.8243 11.7194 28.8579 11.8354 28.8306L12.9703 28.5645C13.0441 28.627 13.1188 28.6881 13.1941 28.7481L13.1535 29.9145C13.149 30.0326 13.2066 30.1448 13.3049 30.2101C13.4029 30.2756 13.5283 30.2856 13.6366 30.2365L14.6949 29.7537C14.7802 29.8009 14.8659 29.847 14.9521 29.892L15.1394 31.0404C15.1583 31.1573 15.2364 31.2562 15.3456 31.302C15.4546 31.3476 15.5803 31.3329 15.6751 31.264L16.6182 30.5848C16.7114 30.6145 16.8051 30.6434 16.9003 30.6704L17.3064 31.7601C17.3477 31.8706 17.4434 31.9526 17.5591 31.9751C17.6751 31.9987 17.7938 31.9598 17.875 31.8731L18.6693 31.0204C18.7652 31.0315 18.8617 31.0406 18.9581 31.0493L19.5718 32.0395C19.6337 32.1395 19.7436 32.2012 19.8607 32.2012C19.9777 32.2012 20.0886 32.1398 20.1517 32.0395L20.7655 31.0493C20.8621 31.0406 20.9584 31.0315 21.0543 31.0204L21.8485 31.8731C21.9291 31.9598 22.0487 31.9987 22.1644 31.9751C22.2806 31.9523 22.3763 31.8706 22.4171 31.7601L22.8233 30.6704C22.9176 30.6434 23.0112 30.6145 23.1054 30.5848L24.0485 31.264C24.1444 31.3329 24.2694 31.3476 24.3779 31.302C24.4872 31.2573 24.5652 31.1581 24.5842 31.0404L24.7715 29.892C24.8581 29.847 24.9439 29.8004 25.0287 29.7537L26.0869 30.2365C26.1946 30.2856 26.3194 30.2756 26.4186 30.2101C26.517 30.1443 26.5743 30.0326 26.57 29.9145L26.5294 28.7481C26.6048 28.6879 26.6795 28.627 26.753 28.5645L27.8879 28.8306C28.0032 28.8579 28.1248 28.8243 28.2084 28.7401C28.2923 28.6562 28.3265 28.5359 28.2993 28.4218L28.0332 27.287C28.0954 27.2132 28.1568 27.139 28.2168 27.0632L29.3834 27.104C29.5009 27.1087 29.6134 27.0512 29.679 26.9526C29.7448 26.8542 29.7548 26.729 29.7054 26.6209L29.2226 25.5628C29.2698 25.4773 29.3159 25.3915 29.3607 25.3056L30.5093 25.1188C30.6262 25.1 30.7246 25.022 30.7687 24.9126C30.8137 24.8036 30.7996 24.6779 30.7304 24.5831L30.0512 23.6401C30.0807 23.5469 30.1093 23.4533 30.1365 23.358L31.2262 22.9519C31.3371 22.9104 31.4187 22.815 31.4415 22.6992C31.4648 22.5833 31.4259 22.4646 31.3393 22.3834L30.4865 21.5892C30.4968 21.4933 30.5062 21.3967 30.5146 21.3004L31.5051 20.6867C31.6057 20.6249 31.6668 20.515 31.6668 20.3979C31.6668 20.2808 31.6059 20.17 31.5054 20.1068H31.4984ZM24.8647 28.342C24.4856 28.2604 24.2464 27.8862 24.3276 27.5072C24.4086 27.1281 24.7812 26.8867 25.1602 26.9679C25.5393 27.0489 25.7807 27.4237 25.6995 27.8028C25.6183 28.1818 25.246 28.4231 24.8669 28.342H24.8647ZM24.5284 26.0632C24.1832 25.9892 23.8425 26.2089 23.7703 26.5551L23.4183 28.1976C22.333 28.6895 21.1168 28.9648 19.8532 28.9648C18.5535 28.9648 17.3261 28.6781 16.2204 28.1637L15.8684 26.5212C15.7944 26.176 15.4555 25.9549 15.1103 26.0294L13.6594 26.3407C13.3909 26.0632 13.1404 25.7676 12.9103 25.4563H19.9728C20.0527 25.4563 20.1059 25.4419 20.1059 25.3692V22.8648C20.1059 22.7922 20.0527 22.7777 19.9728 22.7777H17.9082V21.1961H20.1398C20.3435 21.1961 21.2296 21.2544 21.5117 22.3874C21.6003 22.7349 21.796 23.8675 21.9291 24.2307C22.0618 24.6368 22.6015 25.4491 23.1769 25.4491H26.6969C26.7368 25.4491 26.7794 25.4446 26.8243 25.4364C26.5806 25.7681 26.3121 26.0817 26.0256 26.375L24.5409 26.0569L24.5284 26.0632ZM14.7583 28.3081C14.3792 28.3898 14.0069 28.1484 13.9257 27.7689C13.8447 27.3899 14.0854 27.0153 14.4649 26.9341C14.844 26.8531 15.2163 27.0945 15.2976 27.4733C15.3786 27.8524 15.1376 28.227 14.7583 28.3081ZM12.0732 17.4558C12.2302 17.81 12.0705 18.2252 11.7167 18.3831C11.3624 18.5404 10.9495 18.3804 10.7916 18.0266C10.6336 17.6729 10.7942 17.2573 11.1481 17.0993C11.5023 16.9423 11.9152 17.102 12.0732 17.4558ZM11.2496 19.4052L12.7614 18.7328C13.084 18.5896 13.2307 18.2116 13.0863 17.889L12.7749 17.1851H13.9979V22.6902H11.5384C11.3243 21.9366 11.209 21.1424 11.209 20.3212C11.209 20.0076 11.2259 19.6985 11.2584 19.3939L11.2496 19.4052ZM17.8834 18.8704V17.246H20.7941C20.9446 17.246 21.8569 17.4199 21.8569 18.1011C21.8569 18.6674 21.1574 18.8704 20.582 18.8704H17.8744H17.8834ZM28.4659 20.3325C28.4659 20.5482 28.4579 20.7611 28.4421 20.9732H27.5554C27.4667 20.9732 27.4311 21.0314 27.4311 21.1183V21.5244C27.4311 22.4811 26.8918 22.6909 26.4179 22.7428C25.9667 22.7935 25.468 22.5541 25.4071 22.278C25.1408 20.7821 24.6986 20.464 23.9991 19.909C24.8678 19.3585 25.7704 18.544 25.7704 17.4497C25.7704 16.2743 24.9648 15.5342 24.4165 15.171C23.6449 14.6633 22.7919 14.5618 22.5618 14.5618H13.4008C14.6441 13.1765 16.3341 12.1928 18.2295 11.8318L19.3103 12.9644C19.554 13.2194 19.9579 13.2306 20.2151 12.9852L21.4246 11.83C23.9517 12.3015 26.0953 13.8764 27.3363 16.0491L26.5082 17.9172C26.3654 18.2398 26.5111 18.6189 26.8331 18.761L28.4262 19.4695C28.4537 19.7515 28.4682 20.038 28.4682 20.3268L28.4659 20.3325ZM19.3049 10.879C19.5847 10.6105 20.0292 10.6218 20.2955 10.9018C20.5617 11.1816 20.5527 11.626 20.2722 11.8945C19.9924 12.163 19.5479 12.1517 19.2817 11.8715C19.0154 11.5917 19.0244 11.1475 19.3049 10.879ZM27.5182 17.4897C27.675 17.1354 28.089 16.9753 28.4432 17.1332C28.7976 17.2902 28.9579 17.7063 28.7998 18.0605C28.6429 18.4147 28.229 18.5749 27.8746 18.4169C27.5204 18.2599 27.3602 17.8439 27.5182 17.4897Z" fill="black"/>
<path d="M34.1668 13.0033V38.0346H5.8335V2.479H23.3258L34.1668 13.0033ZM34.1668 7.11742L29.3502 2.479H34.1668V7.11742Z" stroke="black" stroke-width="3"/>
</g>
<defs>
<clipPath id="clip0_148_1233">
<rect width="40" height="40" fill="white" transform="translate(0 0.256836)"/>
</clipPath>
</defs>
</svg>
