<svg width="186" height="75" viewBox="0 0 186 75" fill="none" xmlns="http://www.w3.org/2000/svg">
<path fill-rule="evenodd" clip-rule="evenodd" d="M98.3655 13.3552L87.8822 15.6712V6.9218L98.3655 4.64868V13.3552ZM120.167 18.2016C116.074 18.2016 113.442 20.1745 111.981 21.5469L111.438 18.8878H102.249V68.8966L112.691 66.6234L112.732 54.4858C114.236 55.6009 116.45 57.1878 120.125 57.1878C127.601 57.1878 134.409 51.0118 134.409 37.4159C134.367 24.9781 127.476 18.2016 120.167 18.2016ZM117.661 47.7519C115.197 47.7519 113.735 46.8512 112.732 45.7361L112.691 29.8243C113.777 28.5805 115.28 27.7227 117.661 27.7227C121.462 27.7227 124.093 32.0974 124.093 37.7158C124.093 43.463 121.503 47.7519 117.661 47.7519ZM167.321 37.8448C167.321 26.8652 162.142 18.2016 152.243 18.2016C142.303 18.2016 136.289 26.8652 136.289 37.759C136.289 50.6686 143.389 57.1878 153.58 57.1878C158.55 57.1878 162.309 56.0298 165.149 54.4V45.8222C162.309 47.2804 159.051 48.181 154.916 48.181C150.865 48.181 147.273 46.7228 146.814 41.6619H167.237C167.237 41.4255 167.252 40.8885 167.27 40.2698C167.293 39.4292 167.321 38.4377 167.321 37.8448ZM146.688 33.7701C146.688 28.9236 149.57 26.9078 152.201 26.9078C154.749 26.9078 157.464 28.9236 157.464 33.7701H146.688ZM87.8818 18.9307H98.3651V56.4586H87.8818V18.9307ZM75.9794 18.9308L76.6477 22.1046C79.1119 17.4725 83.9985 18.4161 85.335 18.9308V28.7953C84.0402 28.3235 79.8637 27.723 77.3995 31.0255V56.4587H66.958V18.9308H75.9794ZM55.7641 9.62375L45.5732 11.854L45.5315 46.2081C45.5315 52.5557 50.1675 57.2306 56.3488 57.2306C59.7736 57.2306 62.2796 56.5873 63.6579 55.8153V47.1088C62.3214 47.6664 55.7223 49.6393 55.7223 43.2917V28.0661H63.6579V18.9307H55.7223L55.7641 9.62375ZM31.0812 27.5085C28.8676 27.5085 27.5311 28.1519 27.5311 29.8245C27.5311 31.6508 29.8313 32.4542 32.6849 33.4509C37.3369 35.0757 43.4598 37.2142 43.4857 45.1359C43.4857 52.8131 37.5132 57.2307 28.8259 57.2307C25.234 57.2307 21.308 56.5016 17.4238 54.786V44.5784C20.9321 46.5513 25.3593 48.0095 28.8259 48.0095C31.1648 48.0095 32.8354 47.3662 32.8354 45.3933C32.8354 43.3703 30.342 42.4457 27.3318 41.3293C22.7474 39.6293 16.9644 37.4847 16.9644 30.3392C16.9644 22.7478 22.6028 18.2016 31.0812 18.2016C34.5478 18.2016 37.9726 18.7591 41.4392 20.1745V30.2534C38.265 28.495 34.2554 27.5085 31.0812 27.5085Z" fill="#6461FC"/>
</svg>
