<svg width="50" height="51" viewBox="0 0 50 51" fill="none" xmlns="http://www.w3.org/2000/svg">
<mask id="mask0_148_1262" style="mask-type:luminance" maskUnits="userSpaceOnUse" x="0" y="0" width="50" height="51">
<path d="M50 0.256836H0V50.2568H50V0.256836Z" fill="white"/>
</mask>
<g mask="url(#mask0_148_1262)">
<path d="M10.4168 5.04858L49.1668 31.5069L39.5835 45.6736L0.833496 19.0069L10.4168 5.04858Z" fill="url(#paint0_linear_148_1262)"/>
<path d="M49.1671 31.5069C45.8337 36.2985 34.5837 34.4236 23.9587 26.9236C13.1254 19.6319 7.29206 9.84022 10.4171 5.04855C13.7504 0.256886 25.0004 2.13189 35.6254 9.63189C46.4587 16.7152 52.2921 26.7152 49.1671 31.5069Z" fill="url(#paint1_linear_148_1262)"/>
<path d="M39.5835 45.4652C36.2502 50.2569 25.0002 48.3819 14.3752 40.8819C3.75019 33.3819 -2.29148 23.7986 1.04186 18.7986C4.37519 14.0069 15.6252 15.8819 26.2502 23.3819C36.8752 30.8819 42.7085 40.6736 39.5835 45.4652Z" fill="url(#paint2_linear_148_1262)"/>
<path d="M49.167 31.507L39.5837 45.6736C36.2503 50.4653 25.0003 48.382 14.3753 41.0903C12.292 39.632 10.417 38.1736 8.54199 36.507C10.0003 36.2986 11.8753 35.4653 13.7503 33.382C17.0837 29.8403 18.7503 29.007 20.2087 29.2153C21.667 29.2153 23.3337 30.6736 26.042 34.2153C28.7503 37.7569 32.5003 38.7986 34.792 36.9236C35.0003 36.7153 35.2087 36.7153 35.417 36.507C37.292 35.0486 37.917 34.4236 41.4587 27.757C42.292 26.0903 45.2087 23.382 49.167 24.632C50.2087 27.3403 50.2087 29.632 49.167 31.507Z" fill="#0E0F23"/>
<path fill-rule="evenodd" clip-rule="evenodd" d="M47.7083 30.6736C44.7916 34.8402 34.5833 32.7569 24.7916 25.8819C14.7916 19.0069 8.95829 10.2569 11.875 6.09023C14.7916 1.92356 25 4.0069 34.7916 10.8819C44.5833 17.7569 50.4166 26.5069 47.7083 30.6736ZM38.5416 24.4236C37.0833 26.5069 32.0833 25.4652 27.0833 22.1319C22.2916 18.7986 19.375 14.4236 20.8333 12.3402C22.2916 10.2569 27.2916 11.2986 32.2916 14.6319C37.0833 17.9652 40 22.3402 38.5416 24.4236Z" fill="white"/>
<path d="M9.58333 9.84028C9.58333 9.63195 9.375 9.42362 9.16667 9.63195C8.95833 9.84028 8.75 9.84028 8.75 10.0486C8.95833 10.6736 9.16667 11.0903 9.16667 11.5069C9.16667 11.7153 9.375 11.9236 9.58333 11.7153C9.79167 11.7153 10 11.5069 9.79167 11.2986C9.79167 10.8819 9.79167 10.4653 9.58333 9.84028Z" fill="white"/>
<path d="M10.625 13.1735C10.625 12.9652 10.4167 12.7569 10.2083 12.9652C10 13.1735 10 13.1735 10 13.3819C12.2917 18.5902 17.0833 24.2152 23.3333 28.3819C23.5417 28.5902 23.75 28.3819 23.9583 28.3819C24.1667 28.1735 23.9583 27.9652 23.9583 27.7569C17.5 23.5902 12.9167 18.1735 10.625 13.1735Z" fill="white"/>
<path d="M35.8337 33.5903C35.6253 33.5903 35.417 33.5903 35.417 33.7987C35.417 34.007 35.417 34.2153 35.6253 34.2153C36.2503 34.4237 37.0837 34.632 37.7087 34.8403C37.917 34.8403 38.1253 34.8403 38.1253 34.632C38.1253 34.4237 38.1253 34.2153 37.917 34.2153C37.292 34.007 36.4587 33.7987 35.8337 33.5903Z" fill="white"/>
<path d="M39.5837 34.4236C39.3753 34.4236 39.167 34.6319 39.167 34.8403C39.167 35.0486 39.3753 35.2569 39.5837 35.2569C41.2503 35.4652 43.1253 35.6736 44.5837 35.4653C44.792 35.4653 45.0003 35.2569 45.0003 35.0486C45.0003 34.8403 44.792 34.6319 44.5837 34.6319C42.917 34.8403 41.2503 34.6319 39.5837 34.4236Z" fill="white"/>
</g>
<defs>
<linearGradient id="paint0_linear_148_1262" x1="18.0089" y1="1.28671" x2="25.6935" y2="27.6746" gradientUnits="userSpaceOnUse">
<stop stop-color="#03B8FF"/>
<stop offset="1" stop-color="#FA52A0"/>
</linearGradient>
<linearGradient id="paint1_linear_148_1262" x1="24.3375" y1="-0.556448" x2="32.0223" y2="25.8317" gradientUnits="userSpaceOnUse">
<stop stop-color="#03B8FF"/>
<stop offset="1" stop-color="#FA52A0"/>
</linearGradient>
<linearGradient id="paint2_linear_148_1262" x1="11.7002" y1="3.12376" x2="19.385" y2="29.5119" gradientUnits="userSpaceOnUse">
<stop stop-color="#03B8FF"/>
<stop offset="1" stop-color="#FA52A0"/>
</linearGradient>
</defs>
</svg>
