<svg width="186" height="75" viewBox="0 0 186 75" fill="none" xmlns="http://www.w3.org/2000/svg">
<path fill-rule="evenodd" clip-rule="evenodd" d="M34.8596 57.5888H25.2064L17.9677 29.1605C17.6241 27.8528 16.8946 26.6967 15.8215 26.1518C13.1435 24.7825 10.1924 23.6928 6.97314 23.1432V22.0487H22.5236C24.6698 22.0487 26.2795 23.6928 26.5478 25.6022L30.3036 46.1085L39.9521 22.0487H49.337L34.8596 57.5888ZM54.7023 57.5888H45.5857L53.0926 22.0487H62.2093L54.7023 57.5888ZM74.0039 31.8944C74.2722 29.9802 75.8818 28.8857 77.7597 28.8857C80.7108 28.6109 83.9253 29.1605 86.6081 30.5251L88.2177 22.8731C85.535 21.7786 82.584 21.229 79.9059 21.229C71.0576 21.229 64.619 26.1518 64.619 32.9841C64.619 38.1817 69.1797 40.9109 72.399 42.555C75.8818 44.1943 77.2232 45.2888 76.9549 46.9282C76.9549 49.3872 74.2722 50.4817 71.5941 50.4817C68.3748 50.4817 65.1555 49.662 62.2092 48.2927L60.5996 55.9494C63.8189 57.314 67.3017 57.8636 70.521 57.8636C80.4425 58.1337 86.6081 53.2156 86.6081 45.8337C86.6081 36.5376 74.0039 35.9928 74.0039 31.8944ZM118.514 57.5888L111.276 22.0487H103.5C101.891 22.0487 100.281 23.1432 99.7446 24.7825L86.3403 57.5888H95.7252L97.5984 52.3959H109.13L110.203 57.5888H118.514ZM104.842 31.6198L107.52 45.0143H100.013L104.842 31.6198Z" fill="#172B85"/>
<path fill-rule="evenodd" clip-rule="evenodd" d="M146.21 53.3882C142.718 56.3312 138.189 58.1079 133.24 58.1079C122.198 58.1079 113.246 49.2625 113.246 38.3512C113.246 27.4399 122.198 18.5945 133.24 18.5945C138.189 18.5945 142.718 20.3712 146.21 23.3142C149.701 20.3712 154.23 18.5945 159.18 18.5945C170.222 18.5945 179.174 27.4399 179.174 38.3512C179.174 49.2625 170.222 58.1079 159.18 58.1079C154.23 58.1079 149.701 56.3313 146.21 53.3882Z" fill="#ED0006"/>
<path fill-rule="evenodd" clip-rule="evenodd" d="M146.21 53.3883C150.509 49.7646 153.235 44.3724 153.235 38.3512C153.235 32.33 150.509 26.9378 146.21 23.3141C149.701 20.3711 154.23 18.5945 159.179 18.5945C170.222 18.5945 179.174 27.4399 179.174 38.3512C179.174 49.2625 170.222 58.1079 159.179 58.1079C154.23 58.1079 149.701 56.3313 146.21 53.3883Z" fill="#F9A000"/>
<path fill-rule="evenodd" clip-rule="evenodd" d="M146.21 53.3882C150.509 49.7645 153.235 44.3724 153.235 38.3512C153.235 32.33 150.509 26.938 146.21 23.3142C141.911 26.938 139.185 32.33 139.185 38.3512C139.185 44.3724 141.911 49.7645 146.21 53.3882Z" fill="#FF5E00"/>
</svg>
