<svg width="1440" height="378" viewBox="0 0 1440 378" fill="none" xmlns="http://www.w3.org/2000/svg">
<g style="mix-blend-mode:luminosity" opacity="0.15">
<path d="M1439.26 377.806H0.375V-3.05176e-05H1439.26V377.806Z" fill="#FAFBFC"/>
<mask id="mask0_323_2596" style="mask-type:alpha" maskUnits="userSpaceOnUse" x="0" y="0" width="1439" height="378">
<path d="M1438.88 377.806H0V-3.05176e-05H1438.88V377.806Z" fill="#2B61D1"/>
</mask>
<g mask="url(#mask0_323_2596)">
<ellipse cx="549.7" cy="275.107" rx="345.572" ry="343.609" transform="rotate(90 549.7 275.107)" fill="url(#paint0_linear_323_2596)" fill-opacity="0.5"/>
<ellipse cx="914.479" cy="275.107" rx="345.572" ry="343.047" transform="rotate(90 914.479 275.107)" fill="url(#paint1_linear_323_2596)" fill-opacity="0.5"/>
<ellipse cx="228.39" cy="275.107" rx="345.572" ry="343.796" transform="rotate(90 228.39 275.107)" fill="url(#paint2_linear_323_2596)" fill-opacity="0.5"/>
<ellipse cx="-104.921" cy="275.107" rx="345.572" ry="343.234" transform="rotate(90 -104.921 275.107)" fill="url(#paint3_linear_323_2596)" fill-opacity="0.5"/>
<ellipse cx="1242.54" cy="275.107" rx="345.572" ry="343.234" transform="rotate(90 1242.54 275.107)" fill="url(#paint4_linear_323_2596)" fill-opacity="0.5"/>
</g>
</g>
<defs>
<linearGradient id="paint0_linear_323_2596" x1="552.921" y1="-8.03387" x2="584.768" y2="661.356" gradientUnits="userSpaceOnUse">
<stop/>
<stop offset="1" stop-color="#BBD1FF"/>
</linearGradient>
<linearGradient id="paint1_linear_323_2596" x1="914.371" y1="979.586" x2="872.598" y2="-73.2565" gradientUnits="userSpaceOnUse">
<stop/>
<stop offset="1" stop-color="#BBD1FF"/>
</linearGradient>
<linearGradient id="paint2_linear_323_2596" x1="231.61" y1="-8.18812" x2="263.492" y2="661.565" gradientUnits="userSpaceOnUse">
<stop/>
<stop offset="1" stop-color="#BBD1FF"/>
</linearGradient>
<linearGradient id="paint3_linear_323_2596" x1="-101.701" y1="-7.72511" x2="-69.9231" y2="660.938" gradientUnits="userSpaceOnUse">
<stop/>
<stop offset="1" stop-color="#BBD1FF"/>
</linearGradient>
<linearGradient id="paint4_linear_323_2596" x1="1245.76" y1="-7.72511" x2="1277.53" y2="660.938" gradientUnits="userSpaceOnUse">
<stop/>
<stop offset="1" stop-color="#BBD1FF"/>
</linearGradient>
</defs>
</svg>
