<svg width="13" height="20" viewBox="0 0 13 20" fill="none" xmlns="http://www.w3.org/2000/svg">
<path d="M8.50389 12.7999C8.50389 12.7999 8.26101 12.3799 8.05862 12.0088C8.54737 11.8428 8.97989 11.4304 9.27899 10.8477C9.03686 11.0821 8.77675 11.2752 8.50389 11.4228C8.19055 11.617 7.86222 11.7581 7.52639 11.8428C6.94919 11.9969 6.35699 11.9936 5.78054 11.833C5.44246 11.7375 5.11038 11.5975 4.78955 11.4141C4.62089 11.3197 4.45672 11.209 4.2978 11.0821C4.27756 11.0625 4.25732 11.0528 4.23708 11.0332C4.22734 11.0256 4.21759 11.0159 4.2101 11.0039C4.08866 10.9063 4.0212 10.8379 4.0212 10.8379C4.3098 11.4098 4.72733 11.8167 5.20109 11.9893C4.99869 12.3604 4.74982 12.7999 4.74982 12.7999C3.93649 12.8303 3.16589 12.2757 2.69363 11.3165C2.71537 9.33821 3.04745 7.39359 3.66438 5.62803C4.2071 5.00949 4.86901 4.65247 5.55865 4.60256L5.62537 4.72084C4.97695 4.95306 4.37201 5.3893 3.85328 5.99808C3.85328 5.99808 4.00096 5.88088 4.25058 5.71593C4.73483 5.39581 5.25131 5.18746 5.78054 5.10065C5.81877 5.08979 5.857 5.08328 5.89523 5.08111C6.34725 4.99647 6.80451 4.98996 7.25728 5.06158C7.96866 5.17986 8.65831 5.49782 9.28574 5.99808C8.79324 5.41751 8.22128 4.99647 7.60735 4.75882L7.7018 4.60256C8.39145 4.65247 9.05336 5.01058 9.59608 5.62803C10.213 7.39359 10.5451 9.33821 10.5668 11.3165C10.0908 12.2747 9.31872 12.8292 8.50389 12.7999ZM11.1058 0.0557232H2.0737C1.30834 0.058979 0.68991 0.95858 0.691409 2.06544V15.2589C0.68991 16.3657 1.30834 17.2653 2.0737 17.2686H9.71751L9.35995 15.4629L10.2228 16.624L11.0383 17.7167L12.4873 19.5713V2.06544C12.4896 0.95858 11.8712 0.058979 11.1058 0.0557232ZM7.82999 8.24328C7.41695 8.19227 7.05338 8.63611 7.01815 9.23403C6.98292 9.83195 7.28951 10.3583 7.7033 10.4093C8.11634 10.4603 8.4799 10.0164 8.51438 9.41742C8.51663 9.38595 8.51738 9.35557 8.51738 9.32627C8.53462 8.75222 8.22653 8.26715 7.83074 8.24328H7.82999ZM5.36975 8.24328C4.9882 8.24328 4.67936 8.69036 4.67936 9.24163C4.67936 9.79289 4.9882 10.2411 5.36975 10.2411C5.75056 10.2411 6.0594 9.79289 6.0594 9.24163C6.0594 8.69036 5.75056 8.24328 5.36975 8.24328Z" fill="#98A7B9"/>
</svg>
