<svg width="368" height="81" viewBox="0 0 368 81" fill="none" xmlns="http://www.w3.org/2000/svg">
<path d="M39.722 0.700413C47.5144 0.752651 55.1169 3.10991 61.5707 7.47493C68.0245 11.84 73.0406 18.0173 75.9865 25.2279C78.9324 32.4385 79.6761 40.3595 78.1239 47.992C76.5717 55.6245 72.793 62.6267 67.2644 68.1156C61.7358 73.6046 54.7049 77.3344 47.0582 78.8348C39.4116 80.3351 31.4916 79.5389 24.2972 76.5463C17.1027 73.5538 10.9559 68.4991 6.63182 62.0196C2.30778 55.5401 0.000175275 47.9259 0 40.1374C0.0353754 29.643 4.24016 19.5926 11.6894 12.1968C19.1387 4.80096 29.2222 0.66562 39.722 0.700413Z" fill="white"/>
<path d="M32.7407 52.7495L25.8664 56.7274L18.9863 52.7596L18.9805 44.8139L25.8547 40.8359L32.7349 44.8037L32.7407 52.7495Z" fill="#3F3F3F"/>
<path d="M61.4106 52.7504L49.3562 59.7259L37.2915 52.7682L37.2812 38.8349L49.3356 31.8594L61.4003 38.8171L61.4106 52.7504Z" fill="#95B0E8"/>
<path d="M30.5078 59.4021L35.0271 56.79L44.7237 62.3841L40.2098 64.9989L30.5078 59.4021Z" fill="#2B61D1"/>
<path d="M18.9883 39.4803L24.568 36.2698C24.568 36.2698 25.808 35.4699 27.0479 36.1936C28.3857 36.9446 32.6657 39.4531 32.6657 39.4531L32.6625 37.9508C32.6625 37.9508 32.487 36.1939 34.0093 35.3945C35.5674 34.5402 47.9203 27.3457 47.9203 27.3457C47.9203 27.3457 49.3227 26.3739 50.634 27.2641C52.0915 28.1619 61.3965 33.4783 61.3965 33.4783L61.3802 28.2381L40.1815 16.0273L19.0046 28.2817L18.9883 39.4803Z" fill="#2B61D1"/>
<path d="M110.106 24.9355V38.4741H134.864V47.9757H110.106V66.64H97.7266V15.4082H138.147V24.9355H110.106Z" fill="white"/>
<path d="M143.57 15.4082H155.487V66.6349H143.57V15.4082Z" fill="white"/>
<path d="M206.196 25.542V66.6302H194.891V61.7432C193.286 63.525 191.316 64.9389 189.113 65.8879C186.911 66.8369 184.529 67.2986 182.132 67.2414C171.816 67.2414 164.555 61.4377 164.555 48.7517V25.542H176.476V47.0106C176.476 53.8851 179.531 56.9411 184.804 56.9411C190.305 56.9411 194.277 53.428 194.277 45.8627V25.542H206.196Z" fill="white"/>
<path d="M240.584 66.6353L231.569 54.0289L222.26 66.6353H209.254L225.068 45.932L209.793 25.542H223.154L231.89 37.5346L240.831 25.542H253.516L238.231 45.6264L254.109 66.6353H240.584Z" fill="white"/>
<path d="M286.111 70.3004C280.643 70.3004 275.674 69.091 271.204 66.6722C266.787 64.2009 263.317 60.8356 260.793 56.5764C258.321 52.3173 257.086 47.5323 257.086 42.2215C257.086 36.9107 258.321 32.1257 260.793 27.8665C263.317 23.6074 266.787 20.2684 271.204 17.8496C275.674 15.3783 280.643 14.1426 286.111 14.1426C291.58 14.1426 296.496 15.352 300.86 17.7708C305.277 20.1895 308.748 23.5548 311.272 27.8665C313.796 32.1257 315.058 36.9107 315.058 42.2215C315.058 47.5323 313.796 52.3436 311.272 56.6553C308.748 60.9145 305.277 64.2534 300.86 66.6722C296.496 69.091 291.58 70.3004 286.111 70.3004ZM286.111 65.0947C290.475 65.0947 294.419 64.122 297.942 62.1764C301.465 60.1783 304.226 57.444 306.224 53.9736C308.222 50.4506 309.221 46.5332 309.221 42.2215C309.221 37.9097 308.222 34.0187 306.224 30.5482C304.226 27.0252 301.465 24.291 297.942 22.3454C294.419 20.3473 290.475 19.3482 286.111 19.3482C281.747 19.3482 277.777 20.3473 274.201 22.3454C270.678 24.291 267.891 27.0252 265.841 30.5482C263.843 34.0187 262.844 37.9097 262.844 42.2215C262.844 46.5332 263.843 50.4506 265.841 53.9736C267.891 57.444 270.678 60.1783 274.201 62.1764C277.777 64.122 281.747 65.0947 286.111 65.0947ZM343.363 70.3004C339.261 70.3004 335.318 69.6431 331.532 68.3286C327.798 67.014 324.906 65.2788 322.856 63.1229L325.143 58.6271C327.141 60.6253 329.797 62.2553 333.109 63.5173C336.422 64.7267 339.84 65.3314 343.363 65.3314C348.305 65.3314 352.012 64.4375 354.484 62.6497C356.955 60.8093 358.191 58.4431 358.191 55.5511C358.191 53.3426 357.507 51.5811 356.14 50.2666C354.826 48.952 353.196 47.953 351.25 47.2694C349.304 46.5332 346.597 45.7445 343.126 44.9032C338.972 43.8515 335.659 42.8525 333.188 41.906C330.717 40.9069 328.587 39.4083 326.799 37.4102C325.064 35.4121 324.196 32.7041 324.196 29.2863C324.196 26.4994 324.933 23.9755 326.405 21.7144C327.877 19.4008 330.138 17.5604 333.188 16.1933C336.238 14.8262 340.024 14.1426 344.546 14.1426C347.701 14.1426 350.777 14.5895 353.774 15.4834C356.824 16.3248 359.453 17.5079 361.661 19.0327L359.689 23.6863C357.376 22.1614 354.905 21.0309 352.275 20.2947C349.646 19.506 347.07 19.1116 344.546 19.1116C339.708 19.1116 336.054 20.0581 333.582 21.951C331.164 23.7914 329.954 26.1839 329.954 29.1285C329.954 31.337 330.612 33.1248 331.926 34.4919C333.293 35.8065 334.976 36.8318 336.974 37.568C339.025 38.2515 341.759 39.014 345.177 39.8553C349.226 40.8544 352.486 41.8534 354.957 42.8525C357.481 43.799 359.611 45.2713 361.346 47.2694C363.081 49.2149 363.949 51.8703 363.949 55.2356C363.949 58.0224 363.186 60.5727 361.661 62.8863C360.189 65.1473 357.902 66.9614 354.799 68.3286C351.697 69.6431 347.885 70.3004 343.363 70.3004Z" fill="white"/>
</svg>
