<svg width="16" height="21" viewBox="0 0 16 21" fill="none" xmlns="http://www.w3.org/2000/svg">
<path d="M8.03782 0.612314C4.14732 0.612314 0.992191 5.19713 0.992191 10.8541C0.989193 15.2555 2.92994 19.1686 5.81221 20.5717C6.16453 20.665 6.29271 20.3482 6.29271 20.0769C6.29271 19.8338 6.28672 19.1892 6.28297 18.3352C4.32348 18.9537 3.90969 16.9614 3.90969 16.9614C3.5896 15.7796 3.12709 15.4649 3.12709 15.4649C2.48692 14.829 3.17507 14.8421 3.17507 14.8421C3.88195 14.9148 4.25376 15.8979 4.25376 15.8979C4.88269 17.4616 5.90366 17.0102 6.30546 16.7476C6.36842 16.0867 6.55133 15.6353 6.75298 15.3781C5.18853 15.1199 3.54313 14.242 3.54313 10.318C3.54313 9.19921 3.81824 8.2855 4.26876 7.56821C4.19604 7.30994 3.95467 6.26818 4.33772 4.85964C4.33772 4.85964 4.92917 4.58401 6.27547 5.90899C6.85043 5.68111 7.44337 5.565 8.03932 5.56391C8.63526 5.56608 9.22895 5.68219 9.80391 5.91008C11.1487 4.58509 11.7402 4.86073 11.7402 4.86073C12.124 6.27144 11.8826 7.31102 11.8106 7.57038C12.2619 8.28658 12.534 9.20138 12.534 10.3191C12.534 14.2528 10.8871 15.1188 9.31741 15.3727C9.57078 15.6885 9.79566 16.3135 9.79566 17.2685C9.79566 18.6369 9.78742 19.7416 9.78742 20.0769C9.78742 20.3514 9.9141 20.6694 10.2717 20.5695C13.1509 19.1643 15.0887 15.2522 15.0849 10.8541C15.0849 5.19713 11.9298 0.612314 8.03782 0.612314Z" fill="#98A7B9"/>
</svg>
