<svg width="19" height="29" viewBox="0 0 19 29" fill="none" xmlns="http://www.w3.org/2000/svg">
<g clip-path="url(#clip0_521_642)">
<path d="M16.8792 0C18.6833 0.35614 19.2482 1.37877 18.5738 3.0679C18.0055 4.48906 17.3859 5.4286 16.7149 5.88649C15.2531 6.88029 13.9761 7.94023 12.8841 9.06632C12.8501 9.10077 12.8249 9.14265 12.8104 9.18866C12.7959 9.23466 12.7925 9.28353 12.8004 9.33139C12.8084 9.37926 12.8275 9.42481 12.8563 9.46446C12.8851 9.5041 12.9227 9.53675 12.9662 9.55983C14.2363 10.2144 15.0203 11.2388 15.3181 12.6328C15.3347 12.7115 15.3669 12.7862 15.4127 12.8525C15.4585 12.9189 15.5171 12.9756 15.5851 13.0195C16.1842 13.3994 16.5095 13.9777 16.5608 14.7544C16.6361 15.9822 16.2356 16.9302 15.3592 17.5984C15.2154 17.7104 15.1983 17.8375 15.3078 17.98C17.1154 20.3068 17.4663 22.7896 16.3605 25.4284C16.2955 25.5912 16.2886 25.7557 16.34 25.9219C16.8604 27.567 16.2613 28.593 14.5427 29H12.8943L11.287 28.2521C11.133 28.1809 10.9721 28.1571 10.8043 28.1809C9.50514 28.3793 8.47297 27.8756 7.31757 28.0588C6.74586 28.147 5.99099 28.1436 5.05297 28.0486C4.20396 27.9638 3.6682 27.9451 3.44568 27.9926C2.3827 28.2114 0.616216 28.5574 0.272162 27.3974C-0.0872973 26.1933 0.356036 25.3029 1.60216 24.7263C2.19099 24.455 2.95784 24.4278 3.9027 24.6449C4.08072 24.6856 4.15946 24.6144 4.13892 24.4312C3.93694 22.8235 4.46928 21.4922 5.73595 20.4374C5.80058 20.3848 5.85155 20.3176 5.88461 20.2415C5.91766 20.1653 5.93184 20.0825 5.92595 19.9998C5.88144 19.3757 5.99441 18.8161 6.26486 18.3209C6.3436 18.1784 6.31964 18.058 6.19297 17.9596C4.84414 16.898 4.47613 15.7533 5.08892 14.5254C5.5682 13.5723 5.84378 12.933 5.91568 12.6074C6.03207 12.0749 6.39667 11.4372 7.00946 10.6944C7.12586 10.5519 7.14126 10.401 7.05568 10.2416C6.5182 9.24099 5.96703 8.55924 5.40216 8.19632C3.61514 7.05667 1.0373 6.99561 0 3.98368V2.9814C1.31973 0.549474 4.33405 1.77053 5.95162 3.26123C7.72153 4.89269 8.99333 6.87012 9.76703 9.19351C9.85946 9.46825 9.92279 9.46146 9.95703 9.17316C10.0632 8.36252 10.1693 7.64854 10.2754 7.03123C10.4637 5.93906 10.9173 4.73328 11.6362 3.41386C12.6119 1.61959 14.0309 0.481637 15.8932 0H16.8792ZM7.20459 26.2984C8.30351 27.0819 9.4418 27.3838 10.6195 27.204C10.7872 27.1769 10.9053 27.087 10.9738 26.9344C11.2477 26.3103 11.7064 25.9236 12.35 25.7744C12.5486 25.7269 12.6958 25.793 12.7916 25.9728C12.8601 26.1119 12.8413 26.2984 12.7351 26.5325C12.6906 26.6342 12.5468 26.7614 12.3038 26.914C12.2281 26.9614 12.1677 27.0292 12.1298 27.1095C12.0919 27.1899 12.0781 27.2793 12.09 27.3672C12.1019 27.455 12.139 27.5377 12.1969 27.6053C12.2549 27.6729 12.3312 27.7225 12.4168 27.7484C13.2692 28.0164 14.0617 28.0282 14.7943 27.784C15.4516 27.567 15.6587 27.1345 15.4157 26.4867L15.2 25.9118C15.135 25.7422 15.1469 25.5692 15.2359 25.3928C16.3794 23.1576 16.1894 20.9495 14.6659 18.7686C14.4777 18.504 14.3904 18.5329 14.4041 18.8551C14.4588 20.1101 14.0737 21.0598 13.2486 21.7042C12.475 22.308 11.6978 22.4267 10.9173 22.0604C10.631 21.9261 10.4069 21.6889 10.2906 21.3969C10.1742 21.105 10.1743 20.7801 10.2908 20.4882C10.5715 19.7861 11.2237 19.2129 12.2473 18.7686C12.3145 18.7388 12.3889 18.7287 12.4617 18.7395C12.5345 18.7504 12.6027 18.7816 12.6581 18.8296C12.795 18.9518 12.8464 19.118 12.8122 19.3282C12.7848 19.4978 12.6735 19.6505 12.4784 19.7861C11.9546 20.1491 11.6602 20.3611 11.5951 20.4221C11.0337 20.9716 11.1073 21.2361 11.8159 21.2158C13.1562 21.1802 13.4643 19.5318 13.3359 18.4735C13.312 18.2666 13.3976 18.1225 13.5927 18.0411C13.8323 17.9427 13.9436 17.7273 13.9265 17.3949C13.9162 17.1948 14.0035 17.0557 14.1884 16.9777C15.3455 16.4757 15.7477 15.5616 15.3951 14.2354C15.3575 14.0862 15.2548 13.9777 15.087 13.9098L14.6762 13.747C14.4708 13.6622 14.3578 13.5316 14.3373 13.3553C14.1627 11.7679 13.3411 10.7181 11.8724 10.206C11.8027 10.1816 11.7388 10.1431 11.685 10.0928C11.6312 10.0425 11.5887 9.98155 11.5601 9.91395C11.5316 9.84634 11.5177 9.77356 11.5193 9.70029C11.5209 9.62703 11.538 9.55491 11.5695 9.4886C12.273 8.00298 13.2589 7.12281 14.6351 6.17649C16.0935 5.16912 17.1565 3.91754 17.8241 2.42175C17.8798 2.29682 17.9073 2.16132 17.9046 2.02475C17.9019 1.88818 17.869 1.75385 17.8083 1.63119C17.7477 1.50853 17.6606 1.40052 17.5533 1.31472C17.4461 1.22893 17.3211 1.16744 17.1873 1.13456C15.9377 0.83269 14.82 1.21257 13.8341 2.27421C11.9409 4.31608 11.02 6.75988 11.0714 9.60561C11.0748 9.78199 10.9943 9.90409 10.83 9.97193C10.5253 10.0974 9.95189 10.3247 9.10973 10.6537C7.64793 11.2269 6.86225 12.2377 6.7527 13.686C6.73931 13.853 6.66652 14.0098 6.5473 14.1286C5.87631 14.7968 5.70856 15.4836 6.04405 16.1891C6.33676 16.8149 7.10189 17.2728 7.51784 17.6137C7.56375 17.6511 7.60176 17.697 7.62971 17.749C7.65766 17.801 7.67499 17.8579 7.68072 17.9165C7.68644 17.9751 7.68044 18.0342 7.66307 18.0905C7.64569 18.1468 7.61728 18.1992 7.57946 18.2446C6.67568 19.3537 6.78522 20.3102 7.90811 21.114C8.01081 21.1887 8.16658 21.2022 8.3754 21.1547C8.41985 21.1448 8.46089 21.124 8.49505 21.0939C8.52921 21.0638 8.55547 21.0254 8.5716 20.9819C8.58774 20.9385 8.59326 20.8912 8.58771 20.8443C8.58216 20.7973 8.5657 20.752 8.53973 20.7121L7.84649 19.6233C7.79862 19.5489 7.77323 19.4622 7.77323 19.3731C7.77323 19.2839 7.79862 19.1961 7.84649 19.1197C7.91495 19.0145 8.00568 18.9314 8.11865 18.8704C8.26243 18.7991 8.43874 18.8653 8.64757 19.0688C9.42126 19.8116 9.70883 20.6104 9.51027 21.4651C9.4741 21.6256 9.37655 21.766 9.23811 21.8568C8.32063 22.4572 7.44937 22.2893 6.62432 21.3532C6.47369 21.1836 6.32477 21.1836 6.17757 21.3532C5.04441 22.6522 4.82874 23.9377 5.53054 25.2097C6.13991 26.3188 5.8609 26.6173 4.69351 26.1051C3.98144 25.793 3.61171 25.6336 3.58432 25.6268C2.28 25.3148 1.46865 25.7099 1.15027 26.8123C1.13264 26.8702 1.13061 26.9316 1.14441 26.9905C1.1582 27.0494 1.18733 27.1036 1.22889 27.1479C1.27044 27.1922 1.32298 27.2249 1.38127 27.2428C1.43955 27.2606 1.50155 27.2631 1.56108 27.2498C3.05369 26.931 4.59595 26.8903 6.18784 27.1277C6.35216 27.1515 6.45315 27.0836 6.49081 26.9242C6.54901 26.6393 6.63459 26.4426 6.74757 26.334C6.89135 26.195 7.04369 26.1831 7.20459 26.2984ZM8.35486 9.91088L8.46784 9.75825C8.55346 9.64579 8.61344 9.5229 8.64217 9.40102C8.67091 9.27914 8.66746 9.16225 8.63216 9.06123C7.8482 6.88029 6.50793 5.00801 4.61135 3.44439C3.83423 2.80673 2.8945 2.54725 1.79216 2.66596C1.67275 2.67853 1.55743 2.71624 1.45394 2.77659C1.35045 2.83693 1.26118 2.91851 1.19212 3.01584C1.12306 3.11317 1.07581 3.22401 1.05353 3.34092C1.03126 3.45783 1.03448 3.57811 1.06297 3.69368C1.31631 4.74854 1.97703 5.50491 3.04513 5.96281C5.53054 7.03632 6.80405 7.38228 7.97486 9.83965C7.99272 9.87564 8.01878 9.90742 8.05061 9.93201C8.08244 9.95661 8.11901 9.97324 8.15692 9.98034C8.19484 9.98745 8.23286 9.98481 8.26747 9.97266C8.30208 9.96052 8.33214 9.93927 8.35486 9.91088Z" fill="#141414"/>
<path d="M7.59549 13.7228C7.61443 14.0932 7.86628 14.3816 8.15802 14.367C8.44976 14.3523 8.67091 14.0402 8.65197 13.6697C8.63303 13.2993 8.38117 13.0109 8.08943 13.0255C7.79769 13.0402 7.57655 13.3523 7.59549 13.7228Z" fill="#141414"/>
<path d="M11.5004 13.6297C11.4615 13.9902 11.6677 14.3075 11.961 14.3386C12.2543 14.3696 12.5235 14.1026 12.5624 13.7422C12.6013 13.3818 12.3951 13.0644 12.1018 13.0334C11.8085 13.0023 11.5392 13.2693 11.5004 13.6297Z" fill="#141414"/>
<path d="M9.74117 14.2864C9.97738 14.283 10.1468 14.5221 10.2495 15.0038C10.2592 15.0501 10.278 15.0942 10.3045 15.133C10.3311 15.1718 10.3649 15.2046 10.4036 15.2291C10.4424 15.2536 10.4854 15.2693 10.5296 15.2752C10.5739 15.2811 10.6184 15.277 10.6604 15.2633L11.1122 15.1208C11.1992 15.0921 11.2889 15.0961 11.3686 15.1323C11.4482 15.1685 11.5137 15.235 11.5554 15.3223C11.5971 15.4095 11.613 15.5129 11.6007 15.6175C11.5885 15.7221 11.5487 15.8226 11.4871 15.9043C11.0763 16.464 10.5525 16.1994 9.7463 16.2045C8.93495 16.2045 8.4163 16.469 8.00036 15.9094C7.93849 15.8276 7.89843 15.7271 7.88598 15.6223C7.87352 15.5175 7.88933 15.4139 7.9311 15.3266C7.97288 15.2393 8.03845 15.1728 8.1183 15.1367C8.19816 15.1006 8.28815 15.0968 8.37522 15.1259L8.82712 15.2683C8.8694 15.2821 8.9143 15.286 8.95882 15.2798C9.00335 15.2736 9.04648 15.2574 9.08535 15.2324C9.12421 15.2074 9.15792 15.174 9.18423 15.1346C9.21054 15.0952 9.22884 15.0506 9.23793 15.0038C9.3372 14.5221 9.50495 14.283 9.74117 14.2864Z" fill="#141414"/>
</g>
<defs>
<clipPath id="clip0_521_642">
<rect width="19" height="29" fill="white"/>
</clipPath>
</defs>
</svg>
