<svg width="16" height="18" viewBox="0 0 16 18" fill="none" xmlns="http://www.w3.org/2000/svg">
<path d="M15.0258 2.25658C14.4733 2.60275 13.8894 2.8328 13.2912 2.93698C13.9224 2.39223 14.3946 1.53386 14.6218 0.521406C14.0288 1.03252 13.3804 1.39279 12.7035 1.58595C11.5753 -0.185036 9.66907 -0.296806 8.4457 1.33636C7.64211 2.40959 7.30329 4.02757 7.5589 5.56524C5.13615 5.38836 2.87831 3.72806 1.3491 1.00105C1.08374 1.67168 0.945058 2.43021 0.945058 3.20284C0.943558 4.66022 1.44505 6.0221 2.28237 6.83163C1.80337 6.81209 1.33411 6.62545 0.915823 6.28905V6.34222C0.923319 8.41379 1.9368 10.1924 3.34082 10.5971C3.07846 10.7122 2.80635 10.774 2.53274 10.7784C2.34309 10.7751 2.15344 10.7501 1.96678 10.7035C2.36408 12.4756 3.49375 13.6888 4.78158 13.7246C3.72088 14.9335 2.41205 15.5921 1.06275 15.5976C0.816873 15.5987 0.57175 15.577 0.328125 15.5335C1.70517 16.8216 3.31084 17.5042 4.95025 17.502C9.65408 17.5715 13.5071 12.1099 13.5558 5.30046C13.5566 5.2245 13.5566 5.15071 13.5558 5.07583V4.51155C14.1323 3.88975 14.63 3.1258 15.0258 2.25658Z" fill="#98A7B9"/>
</svg>
