<svg width="121" height="120" viewBox="0 0 121 120" fill="none" xmlns="http://www.w3.org/2000/svg">
<path d="M109.162 63.759C109.257 62.5185 109.305 61.2649 109.305 60.0001C109.305 52.3793 107.556 45.1669 104.438 38.7422C98.2527 44.614 90.8904 49.2578 82.7416 52.2832C82.949 54.8281 83.0547 57.4018 83.0547 60.0001C83.0547 65.5061 82.58 70.9013 81.6694 76.1468C91.636 73.6389 100.913 69.3964 109.162 63.759Z" fill="#CBD3DC"/>
<path d="M73.7262 77.7508C74.9246 72.0222 75.5547 66.0847 75.5547 60.0001C75.5547 58.1582 75.4969 56.3298 75.3832 54.5165C70.625 55.65 65.6599 56.2501 60.5547 56.2501C55.4495 56.2501 50.4844 55.65 45.7262 54.5165C45.6124 56.3298 45.5547 58.1582 45.5547 60.0001C45.5547 66.0847 46.1847 72.0222 47.3832 77.7508C51.6776 78.4088 56.0763 78.7501 60.5547 78.7501C65.0331 78.7501 69.4318 78.4088 73.7262 77.7508Z" fill="#CBD3DC"/>
<path d="M49.4159 85.5953C53.0686 86.0277 56.7857 86.2501 60.5547 86.2501C64.3237 86.2501 68.0408 86.0277 71.6935 85.5953C69.1246 93.8736 65.3423 101.618 60.5547 108.62C55.767 101.618 51.9848 93.8736 49.4159 85.5953Z" fill="#CBD3DC"/>
<path d="M39.44 76.1468C38.5293 70.9013 38.0547 65.5061 38.0547 60.0001C38.0547 57.4018 38.1604 54.8281 38.3677 52.2832C30.219 49.2578 22.8567 44.614 16.6713 38.7422C13.5534 45.1669 11.8047 52.3793 11.8047 60.0001C11.8047 61.2649 11.8529 62.5185 11.9475 63.759C20.196 69.3964 29.4734 73.6389 39.44 76.1468Z" fill="#CBD3DC"/>
<path d="M107.335 73.7628C102.257 91.0526 87.8533 104.353 69.9426 107.847C74.2746 100.562 77.6474 92.6397 79.8869 84.2547C89.6861 82.2004 98.9226 78.616 107.335 73.7628Z" fill="#CBD3DC"/>
<path d="M13.7744 73.7628C22.1868 78.616 31.4233 82.2004 41.2225 84.2547C43.462 92.6397 46.8348 100.562 51.1668 107.847C33.2561 104.353 18.8529 91.0526 13.7744 73.7628Z" fill="#CBD3DC"/>
<path d="M69.9426 12.1533C82.5504 14.6127 93.4202 21.9315 100.523 32.0804C95.2302 37.4247 88.8733 41.713 81.7961 44.6013C79.8649 32.9146 75.7723 21.9571 69.9426 12.1533Z" fill="#CBD3DC"/>
<path d="M60.5547 11.3799C67.698 21.8279 72.6032 33.9273 74.5795 46.9877C70.0962 48.1383 65.3969 48.7501 60.5547 48.7501C55.7125 48.7501 51.0132 48.1383 46.5298 46.9877C48.5062 33.9273 53.4113 21.8279 60.5547 11.3799Z" fill="#CBD3DC"/>
<path d="M51.1668 12.1533C45.3371 21.9571 41.2445 32.9146 39.3133 44.6013C32.2361 41.713 25.8791 37.4247 20.5864 32.0804C27.6891 21.9315 38.5589 14.6127 51.1668 12.1533Z" fill="#CBD3DC"/>
</svg>
