<svg width="102" height="85" viewBox="0 0 102 85" fill="none" xmlns="http://www.w3.org/2000/svg">
<path d="M101.126 10.9706C97.8512 12.3798 94.4087 13.3611 90.8834 13.8903C92.5316 13.6077 94.9568 10.641 95.9221 9.44016C97.3887 7.62882 98.5065 5.56103 99.2185 3.34184C99.2185 3.17702 99.3833 2.94156 99.2185 2.82383C99.1355 2.77849 99.0424 2.75473 98.9477 2.75473C98.8531 2.75473 98.76 2.77849 98.677 2.82383C94.8489 4.89684 90.7748 6.47902 86.551 7.53296C86.4038 7.57793 86.2471 7.58197 86.0977 7.54463C85.9484 7.5073 85.8121 7.43001 85.7033 7.32105C85.3745 6.92955 85.0206 6.55989 84.6438 6.2144C82.921 4.67087 80.9664 3.40755 78.8516 2.47065C75.9967 1.29943 72.9131 0.792206 69.8336 0.987272C66.8455 1.17598 63.9281 1.97745 61.263 3.34184C58.6385 4.78029 56.3319 6.73448 54.4818 9.08697C52.5357 11.5083 51.1307 14.3183 50.3613 17.3279C49.7269 20.1907 49.6549 23.1496 50.1494 26.0398C50.1494 26.5343 50.1494 26.6049 49.7256 26.5343C32.9376 24.062 19.1634 18.1049 7.90857 5.31967C7.41411 4.75457 7.15511 4.75457 6.75483 5.31967C1.85734 12.7601 4.23545 24.5329 10.3573 30.3487C11.1814 31.1257 12.0291 31.8791 12.9238 32.5855C10.117 32.3862 7.37867 31.6256 4.87118 30.3487C4.40027 30.0426 4.14127 30.2074 4.11772 30.7725C4.05097 31.5559 4.05097 32.3436 4.11772 33.1271C4.60901 36.8816 6.08867 40.4384 8.40538 43.4335C10.7221 46.4287 13.7927 48.7549 17.3033 50.1741C18.1591 50.5407 19.0508 50.8169 19.9639 50.9982C17.3655 51.5098 14.7005 51.5893 12.0761 51.2337C11.511 51.1159 11.2991 51.422 11.511 51.9636C14.9723 61.3818 22.4833 64.2544 27.993 65.8555C28.7465 65.9732 29.4999 65.9732 30.3476 66.1616C30.3476 66.1616 30.3476 66.1616 30.2063 66.3029C28.5816 69.2696 22.0124 71.271 18.9986 72.307C13.4975 74.2829 7.63241 75.0382 1.81025 74.5203C0.89197 74.379 0.680059 74.4026 0.444603 74.5203C0.209146 74.638 0.444603 74.897 0.703605 75.1325C1.88089 75.9095 3.05817 76.5923 4.28254 77.2516C7.92751 79.2397 11.781 80.819 15.7728 81.9607C36.4459 87.6588 59.709 83.4676 75.2255 68.0452C87.4222 55.9428 91.7075 39.2489 91.7075 22.5315C91.7075 21.8958 92.4845 21.5191 92.9318 21.1894C96.0175 18.7852 98.7379 15.9458 101.008 12.7601C101.401 12.2852 101.603 11.6806 101.573 11.0648C101.573 10.7116 101.573 10.7823 101.126 10.9706Z" fill="#CBD3DC"/>
</svg>
