<svg width="66" height="66" viewBox="0 0 66 66" fill="none" xmlns="http://www.w3.org/2000/svg">
<path d="M32.8288 51.0115C42.6321 51.0115 50.5794 43.0643 50.5794 33.2609C50.5794 23.4575 42.6321 15.5103 32.8288 15.5103C23.0254 15.5103 15.0781 23.4575 15.0781 33.2609C15.0781 43.0643 23.0254 51.0115 32.8288 51.0115Z" fill="#CBD3DC"/>
<path d="M22.6876 32.8719C22.6876 32.8719 31.4804 29.1312 34.5298 27.814C35.6988 27.2871 39.6632 25.6011 39.6632 25.6011C39.6632 25.6011 41.4929 24.8635 41.3404 26.6549C41.2896 27.3925 40.883 29.9741 40.4764 32.7665C39.8665 36.7181 39.2058 41.0384 39.2058 41.0384C39.2058 41.0384 39.1041 42.2502 38.2401 42.4609C37.3761 42.6717 35.9529 41.7234 35.6988 41.5126C35.4955 41.3545 31.8869 38.9836 30.5655 37.8245C30.2097 37.5084 29.8031 36.8762 30.6163 36.1385C32.446 34.3998 34.6315 32.2397 35.9529 30.8699C36.5629 30.2376 37.1727 28.7624 34.6315 30.5537C31.0229 33.1354 27.4652 35.559 27.4652 35.559C27.4652 35.559 26.6519 36.0858 25.1272 35.6116C23.6024 35.1375 21.8235 34.5052 21.8235 34.5052C21.8235 34.5052 20.6038 33.7149 22.6876 32.8719Z" fill="white"/>
</svg>
