<svg width="38" height="21" viewBox="0 0 38 21" fill="none" xmlns="http://www.w3.org/2000/svg">
<path d="M21.2978 10.3778C21.2978 15.9356 16.6442 20.4485 10.8794 20.4485C5.1145 20.4485 0.460938 15.9356 0.460938 10.3778C0.460938 4.82004 5.1145 0.307129 10.8794 0.307129C16.6442 0.307129 21.2978 4.82004 21.2978 10.3778ZM32.7117 10.3778C32.7117 15.6021 30.3734 19.8483 27.5025 19.8483C24.6317 19.8483 22.2933 15.6021 22.2933 10.3778C22.2933 5.15351 24.6317 0.907365 27.5025 0.907365C30.3734 0.907365 32.7117 5.13128 32.7117 10.3778ZM37.3884 10.3778C37.3884 15.0686 36.5781 18.8701 35.5594 18.8701C34.5407 18.8701 33.7304 15.0686 33.7304 10.3778C33.7304 5.68706 34.5407 1.88553 35.5594 1.88553C36.5781 1.88553 37.3884 5.68706 37.3884 10.3778Z" fill="#CBD3DC"/>
</svg>
