<svg width="37" height="37" viewBox="0 0 37 37" fill="none" xmlns="http://www.w3.org/2000/svg">
<path d="M12.8074 18.2693C12.8074 15.0036 15.4556 12.3555 18.7233 12.3555C21.991 12.3555 24.6406 15.0036 24.6406 18.2693C24.6406 21.535 21.991 24.1831 18.7233 24.1831C15.4556 24.1831 12.8074 21.535 12.8074 18.2693ZM9.60855 18.2693C9.60855 23.3003 13.6892 27.3786 18.7233 27.3786C23.7574 27.3786 27.838 23.3003 27.838 18.2693C27.838 13.2382 23.7574 9.16001 18.7233 9.16001C13.6892 9.16001 9.60855 13.2382 9.60855 18.2693ZM26.0688 8.79883C26.0686 9.21986 26.1934 9.63149 26.4273 9.98167C26.6612 10.3318 26.9938 10.6048 27.3829 10.7661C27.7721 10.9274 28.2004 10.9697 28.6136 10.8877C29.0268 10.8058 29.4064 10.6032 29.7044 10.3056C30.0025 10.008 30.2055 9.62873 30.2878 9.21582C30.3702 8.80291 30.3282 8.37486 30.1671 7.98581C30.0061 7.59676 29.7332 7.26418 29.383 7.03012C29.0328 6.79606 28.621 6.67105 28.1997 6.67088H28.1989C27.6342 6.67114 27.0926 6.89539 26.6933 7.29438C26.2939 7.69337 26.0693 8.23446 26.0688 8.79883ZM11.552 32.7092C9.82142 32.6304 8.88078 32.3423 8.25567 32.0989C7.42693 31.7765 6.83562 31.3925 6.21392 30.772C5.59222 30.1515 5.20739 29.5611 4.88617 28.7329C4.64249 28.1084 4.35422 27.1681 4.27555 25.4385C4.1895 23.5686 4.17231 23.0069 4.17231 18.2694C4.17231 13.532 4.19092 12.9718 4.27555 11.1003C4.35436 9.37076 4.64476 8.43225 4.88617 7.80595C5.20881 6.97771 5.59307 6.38676 6.21392 5.76543C6.83477 5.14411 7.42551 4.7595 8.25567 4.43848C8.88049 4.19495 9.82142 3.90685 11.552 3.82822C13.4231 3.74222 13.9851 3.72505 18.7233 3.72505C23.4614 3.72505 24.0241 3.74364 25.8967 3.82822C27.6273 3.90699 28.5664 4.19722 29.193 4.43848C30.0218 4.7595 30.6131 5.14496 31.2348 5.76543C31.8565 6.38591 32.2399 6.97771 32.5625 7.80595C32.8062 8.4304 33.0945 9.37076 33.1732 11.1003C33.2592 12.9718 33.2764 13.532 33.2764 18.2694C33.2764 23.0069 33.2592 23.567 33.1732 25.4385C33.0943 27.1681 32.8047 28.1082 32.5625 28.7329C32.2399 29.5611 31.8556 30.1521 31.2348 30.772C30.6139 31.3919 30.0218 31.7765 29.193 32.0989C28.5682 32.3425 27.6273 32.6306 25.8967 32.7092C24.0256 32.7952 23.4636 32.8124 18.7233 32.8124C13.983 32.8124 13.4225 32.7952 11.552 32.7092ZM11.4051 0.63673C9.5154 0.722734 8.22414 1.02218 7.09648 1.46072C5.92863 1.91358 4.93999 2.52114 3.95206 3.50692C2.96414 4.49269 2.35777 5.4823 1.90464 6.64945C1.46584 7.77715 1.16621 9.06691 1.08015 10.9554C0.992679 12.847 0.972656 13.4517 0.972656 18.2693C0.972656 23.0869 0.992679 23.6916 1.08015 25.5831C1.16621 27.4718 1.46584 28.7614 1.90464 29.8891C2.35777 31.0556 2.96428 32.0463 3.95206 33.0316C4.93985 34.017 5.92863 34.6237 7.09648 35.0779C8.22627 35.5164 9.5154 35.8158 11.4051 35.9018C13.2987 35.9878 13.9028 36.0093 18.7233 36.0093C23.5438 36.0093 24.1489 35.9893 26.0415 35.9018C27.9313 35.8158 29.2217 35.5164 30.3501 35.0779C31.5172 34.6237 32.5066 34.0174 33.4945 33.0316C34.4824 32.0459 35.0875 31.0556 35.5419 29.8891C35.9807 28.7614 36.2818 27.4717 36.3664 25.5831C36.4525 23.6902 36.4725 23.0869 36.4725 18.2693C36.4725 13.4517 36.4525 12.847 36.3664 10.9554C36.2804 9.06677 35.9807 7.77644 35.5419 6.64945C35.0875 5.48301 34.4809 4.49425 33.4945 3.50692C32.5081 2.51958 31.5172 1.91358 30.3515 1.46072C29.2217 1.02218 27.9312 0.721314 26.0429 0.63673C24.1503 0.550727 23.5452 0.529297 18.7247 0.529297C13.9042 0.529297 13.2987 0.549308 11.4051 0.63673Z" fill="url(#paint0_radial_1264_289)"/>
<path d="M12.8074 18.2693C12.8074 15.0036 15.4556 12.3555 18.7233 12.3555C21.991 12.3555 24.6406 15.0036 24.6406 18.2693C24.6406 21.535 21.991 24.1831 18.7233 24.1831C15.4556 24.1831 12.8074 21.535 12.8074 18.2693ZM9.60855 18.2693C9.60855 23.3003 13.6892 27.3786 18.7233 27.3786C23.7574 27.3786 27.838 23.3003 27.838 18.2693C27.838 13.2382 23.7574 9.16001 18.7233 9.16001C13.6892 9.16001 9.60855 13.2382 9.60855 18.2693ZM26.0688 8.79883C26.0686 9.21986 26.1934 9.63149 26.4273 9.98167C26.6612 10.3318 26.9938 10.6048 27.3829 10.7661C27.7721 10.9274 28.2004 10.9697 28.6136 10.8877C29.0268 10.8058 29.4064 10.6032 29.7044 10.3056C30.0025 10.008 30.2055 9.62873 30.2878 9.21582C30.3702 8.80291 30.3282 8.37486 30.1671 7.98581C30.0061 7.59676 29.7332 7.26418 29.383 7.03012C29.0328 6.79606 28.621 6.67105 28.1997 6.67088H28.1989C27.6342 6.67114 27.0926 6.89539 26.6933 7.29438C26.2939 7.69337 26.0693 8.23446 26.0688 8.79883ZM11.552 32.7092C9.82142 32.6304 8.88078 32.3423 8.25567 32.0989C7.42693 31.7765 6.83562 31.3925 6.21392 30.772C5.59222 30.1515 5.20739 29.5611 4.88617 28.7329C4.64249 28.1084 4.35422 27.1681 4.27555 25.4385C4.1895 23.5686 4.17231 23.0069 4.17231 18.2694C4.17231 13.532 4.19092 12.9718 4.27555 11.1003C4.35436 9.37076 4.64476 8.43225 4.88617 7.80595C5.20881 6.97771 5.59307 6.38676 6.21392 5.76543C6.83477 5.14411 7.42551 4.7595 8.25567 4.43848C8.88049 4.19495 9.82142 3.90685 11.552 3.82822C13.4231 3.74222 13.9851 3.72505 18.7233 3.72505C23.4614 3.72505 24.0241 3.74364 25.8967 3.82822C27.6273 3.90699 28.5664 4.19722 29.193 4.43848C30.0218 4.7595 30.6131 5.14496 31.2348 5.76543C31.8565 6.38591 32.2399 6.97771 32.5625 7.80595C32.8062 8.4304 33.0945 9.37076 33.1732 11.1003C33.2592 12.9718 33.2764 13.532 33.2764 18.2694C33.2764 23.0069 33.2592 23.567 33.1732 25.4385C33.0943 27.1681 32.8047 28.1082 32.5625 28.7329C32.2399 29.5611 31.8556 30.1521 31.2348 30.772C30.6139 31.3919 30.0218 31.7765 29.193 32.0989C28.5682 32.3425 27.6273 32.6306 25.8967 32.7092C24.0256 32.7952 23.4636 32.8124 18.7233 32.8124C13.983 32.8124 13.4225 32.7952 11.552 32.7092ZM11.4051 0.63673C9.5154 0.722734 8.22414 1.02218 7.09648 1.46072C5.92863 1.91358 4.93999 2.52114 3.95206 3.50692C2.96414 4.49269 2.35777 5.4823 1.90464 6.64945C1.46584 7.77715 1.16621 9.06691 1.08015 10.9554C0.992679 12.847 0.972656 13.4517 0.972656 18.2693C0.972656 23.0869 0.992679 23.6916 1.08015 25.5831C1.16621 27.4718 1.46584 28.7614 1.90464 29.8891C2.35777 31.0556 2.96428 32.0463 3.95206 33.0316C4.93985 34.017 5.92863 34.6237 7.09648 35.0779C8.22627 35.5164 9.5154 35.8158 11.4051 35.9018C13.2987 35.9878 13.9028 36.0093 18.7233 36.0093C23.5438 36.0093 24.1489 35.9893 26.0415 35.9018C27.9313 35.8158 29.2217 35.5164 30.3501 35.0779C31.5172 34.6237 32.5066 34.0174 33.4945 33.0316C34.4824 32.0459 35.0875 31.0556 35.5419 29.8891C35.9807 28.7614 36.2818 27.4717 36.3664 25.5831C36.4525 23.6902 36.4725 23.0869 36.4725 18.2693C36.4725 13.4517 36.4525 12.847 36.3664 10.9554C36.2804 9.06677 35.9807 7.77644 35.5419 6.64945C35.0875 5.48301 34.4809 4.49425 33.4945 3.50692C32.5081 2.51958 31.5172 1.91358 30.3515 1.46072C29.2217 1.02218 27.9312 0.721314 26.0429 0.63673C24.1503 0.550727 23.5452 0.529297 18.7247 0.529297C13.9042 0.529297 13.2987 0.549308 11.4051 0.63673Z" fill="url(#paint1_radial_1264_289)"/>
<defs>
<radialGradient id="paint0_radial_1264_289" cx="0" cy="0" r="1" gradientUnits="userSpaceOnUse" gradientTransform="translate(5.68921 36.1769) scale(46.3439 46.3161)">
<stop offset="0.09" stop-color="#CBD3DC"/>
<stop offset="0.78" stop-color="#CBD3DC"/>
</radialGradient>
<radialGradient id="paint1_radial_1264_289" cx="0" cy="0" r="1" gradientUnits="userSpaceOnUse" gradientTransform="translate(22.5026 37.7664) scale(36.5254 36.5035)">
<stop offset="0.64" stop-color="#CBD3DC" stop-opacity="0"/>
<stop offset="1" stop-color="#CBD3DC"/>
</radialGradient>
</defs>
</svg>
