<svg width="56" height="57" viewBox="0 0 56 57" fill="none" xmlns="http://www.w3.org/2000/svg">
<path d="M23.0705 9.15055C23.0785 14.466 23.0805 19.7939 23.0765 25.1342C23.0755 25.8267 22.5672 26.4195 21.8164 26.4245C18.3461 26.4457 14.8758 26.4275 11.4055 26.4316C10.911 26.4322 10.5172 26.2682 10.2239 25.9394C10.0763 25.6502 10.0025 25.3063 10.0025 24.9078C9.99916 20.0056 9.99916 15.1038 10.0025 10.2023C10.0025 9.60379 10.0404 9.21664 10.1162 9.04084C10.2665 8.69059 10.5158 8.45776 10.8641 8.34236C11.0345 8.28599 11.3334 8.25781 11.7608 8.25781C15.0479 8.26184 18.335 8.26217 21.6222 8.25882C22.2811 8.25815 22.7638 8.55539 23.0705 9.15055Z" fill="#0C79F1"/>
<path d="M44.5264 14.7848C44.5619 15.0827 44.6082 15.3709 44.6653 15.6493C44.7451 16.0385 44.7928 16.3257 44.8082 16.5109C44.9035 17.667 44.7978 18.7828 44.4911 19.8584C43.9524 21.7465 42.9073 23.3015 41.356 24.5233C39.7537 25.7855 37.7659 26.4356 35.7238 26.4336C33.1318 26.4309 30.5026 26.4303 27.8361 26.4316C27.3571 26.4316 26.9713 26.2736 26.6787 25.9576C26.5237 25.712 26.4459 25.3872 26.4452 24.9833C26.4392 18.7157 26.4395 13.5576 26.4462 9.50888C26.4472 8.80134 27.0652 8.25583 27.7607 8.25684C30.5653 8.25818 33.1905 8.25851 35.6363 8.25784C36.6555 8.25784 37.6411 8.40982 38.5933 8.71377C40.7702 9.41025 42.5728 10.935 43.7534 12.8936C43.891 13.1231 44.0282 13.4354 44.1651 13.8306C44.2784 14.1601 44.3989 14.4781 44.5264 14.7848Z" fill="#0C79F1"/>
<path d="M23.0702 9.15063C23.1339 9.22578 23.1732 9.31536 23.1879 9.41936C23.1953 9.46901 23.205 9.51162 23.2171 9.54718C23.2339 9.59482 23.2483 9.6438 23.2604 9.69413C23.2664 9.72097 23.2825 9.73942 23.3087 9.74948C23.3174 9.75284 23.3265 9.75485 23.3359 9.75552C23.354 9.75753 23.3661 9.76693 23.3721 9.7837C23.4613 10.0427 23.506 10.2973 23.506 10.5476C23.5026 15.4162 23.5009 20.4915 23.5009 25.7734C23.5016 26.749 22.9648 27.2378 21.8906 27.2399C18.5464 27.2445 15.1664 27.2449 11.7504 27.2409C11.311 27.2402 10.9329 27.0949 10.6162 26.8051C10.4994 26.6977 10.3686 26.4092 10.2236 25.9395C10.5168 26.2683 10.9107 26.4323 11.4052 26.4317C14.8755 26.4276 18.3458 26.4458 21.8161 26.4246C22.5669 26.4196 23.0752 25.8268 23.0762 25.1343C23.0802 19.794 23.0782 14.4661 23.0702 9.15063Z" fill="black"/>
<path d="M44.5264 14.7847C44.6143 14.9383 44.6881 15.0923 44.7478 15.2466C44.7753 15.3171 44.7884 15.3879 44.7871 15.459C44.7857 15.5073 44.7968 15.5509 44.8203 15.5898C44.8464 15.6335 44.8642 15.6804 44.8736 15.7307C44.9206 15.9777 44.9763 16.2216 45.0407 16.4624C45.0407 16.4631 45.04 16.4638 45.0387 16.4645C45.0313 16.4671 45.0296 16.4685 45.0336 16.4685C45.039 16.4685 45.041 16.4661 45.0397 16.4614C45.0242 16.4037 45.0263 16.3514 45.0457 16.3044C45.0665 16.2548 45.0769 16.2568 45.0769 16.3105C45.0762 16.4245 45.094 16.541 45.1303 16.6597C45.1645 16.7731 45.1836 16.8855 45.1876 16.9969C45.2057 17.4679 45.2631 17.95 45.249 18.421C45.2356 18.8887 45.1913 19.3188 45.1162 19.7113C45.0752 19.9274 45.0444 20.13 45.0236 20.3192C45.0209 20.3427 45.0108 20.3625 44.9934 20.3786C44.9746 20.3967 44.9645 20.4192 44.9632 20.446C44.9612 20.4836 44.9551 20.5198 44.9451 20.5547C44.6545 21.5719 44.2379 22.4697 43.695 23.248C42.29 25.2643 40.3791 26.5305 37.9622 27.0464C37.4026 27.1662 36.836 27.1803 36.2683 27.2216C36.0462 27.237 35.8268 27.2447 35.6101 27.2447C33.3932 27.242 30.9686 27.242 28.3364 27.2447C27.3913 27.2457 26.883 26.8743 26.6787 25.9574C26.9713 26.2735 27.3571 26.4315 27.8361 26.4315C30.5026 26.4302 33.1318 26.4308 35.7238 26.4335C37.7659 26.4355 39.7537 25.7853 41.356 24.5232C42.9073 23.3014 43.9524 21.7464 44.4912 19.8583C44.7978 18.7827 44.9035 17.6669 44.8082 16.5108C44.7928 16.3256 44.7451 16.0384 44.6653 15.6492C44.6082 15.3708 44.5619 15.0826 44.5264 14.7847Z" fill="black"/>
<path d="M23.0111 30.1968C23.0473 30.385 23.0805 30.5632 23.0805 30.7564C23.0778 35.9102 23.0772 41.0291 23.0785 46.1131C23.0785 46.6921 22.8114 47.1095 22.2773 47.3651C22.0509 47.4738 21.7037 47.4778 21.445 47.4778C18.0653 47.4745 14.6852 47.4738 11.3049 47.4758C10.9217 47.4758 10.5742 47.3222 10.2622 47.0149C10.089 46.7284 10.0025 46.4214 10.0025 46.094C10.0005 41.1858 10.0005 36.2782 10.0025 31.3714C10.0025 30.7507 10.0401 30.3518 10.1152 30.1747C10.4202 29.4561 11.0069 29.3846 11.7678 29.3896C16.4271 29.4171 19.7031 29.4192 21.596 29.3957C22.2609 29.387 22.7326 29.654 23.0111 30.1968Z" fill="#1152B8"/>
<path d="M44.3381 35.4373C44.7649 36.7216 44.9165 38.0253 44.7931 39.3484C44.7578 39.7289 44.6683 40.0832 44.5988 40.4525C44.5525 40.7021 44.4827 40.9635 44.3895 41.2366C43.5769 43.6205 42.0256 45.3953 39.7356 46.5608C39.4065 46.7278 39.0653 46.8345 38.7211 46.9694C38.4627 47.0714 38.1984 47.1472 37.928 47.1969C37.5314 47.2703 37.161 47.373 36.7544 47.4062C36.2324 47.4491 35.8429 47.4706 35.5859 47.4706C32.9946 47.4733 30.4197 47.474 27.8613 47.4726C27.3641 47.4726 26.9622 47.2975 26.6555 46.9473C26.516 46.7077 26.4462 46.4064 26.4462 46.0434C26.4408 40.9621 26.4405 35.9375 26.4452 30.9696C26.4452 30.5798 26.4911 30.2869 26.5831 30.091C26.7985 29.6313 27.2061 29.4012 27.8059 29.4005C30.6093 29.3945 33.2402 29.3945 35.6986 29.4005C37.5801 29.4052 39.2612 29.8954 40.742 30.871C41.929 31.652 42.9284 32.691 43.7403 33.988C43.8134 34.1041 43.8762 34.2299 43.9285 34.3654C43.9862 34.515 44.055 34.6563 44.1348 34.7891C44.1509 34.8153 44.158 34.8438 44.156 34.8747C44.1546 34.9049 44.1657 34.928 44.1892 34.9441C44.2247 34.969 44.2405 35.0032 44.2365 35.0468C44.2244 35.1817 44.2583 35.3118 44.3381 35.4373Z" fill="#0C79F1"/>
<path d="M23.0111 30.1968C23.2131 30.5095 23.3402 30.7262 23.3926 30.847C23.4677 31.0201 23.505 31.2408 23.5043 31.5092C23.4956 36.404 23.4966 41.4618 23.5073 46.6827C23.5093 47.6368 23.0786 48.2407 22.0228 48.2427C18.4377 48.2481 15.0154 48.2528 11.7558 48.2568C10.9305 48.2582 10.4326 47.8442 10.2622 47.0148C10.5742 47.3221 10.9218 47.4758 11.3049 47.4758C14.6853 47.4738 18.0653 47.4744 21.4451 47.4778C21.7037 47.4778 22.0509 47.4738 22.2774 47.3651C22.8115 47.1094 23.0785 46.6921 23.0785 46.113C23.0772 41.029 23.0779 35.9102 23.0806 30.7564C23.0806 30.5631 23.0473 30.385 23.0111 30.1968Z" fill="black"/>
<path d="M44.3379 35.4375C44.4922 35.6723 44.5942 35.9327 44.6438 36.2185C44.6492 36.2514 44.6626 36.2809 44.6841 36.3071C44.719 36.348 44.7421 36.3916 44.7535 36.4379C44.7911 36.5869 44.8368 36.7422 44.8904 36.9039C44.9193 36.9925 44.9347 37.0801 44.9367 37.1666C44.9387 37.2512 44.9629 37.3297 45.0092 37.4021C45.0151 37.41 45.0186 37.4198 45.0193 37.4303L45.1732 38.7961C45.1753 38.8142 45.185 38.8216 45.2024 38.8182C45.2138 38.8169 45.2222 38.8209 45.2276 38.8303C45.233 38.839 45.2356 38.8487 45.2356 38.8595C45.2625 39.5224 45.2246 40.14 45.1219 40.7124C45.079 40.9513 45.0233 41.2153 44.9548 41.5045C44.8958 41.7534 44.822 41.9976 44.7334 42.2372C43.5528 45.4337 40.8726 47.6198 37.503 48.1351C37.0132 48.2096 36.416 48.2475 35.7115 48.2488C33.3422 48.2515 30.9801 48.2515 28.6249 48.2488C27.8983 48.2478 27.385 48.2649 26.9864 47.7265C26.8502 47.5426 26.7398 47.2829 26.6553 46.9474C26.9619 47.2977 27.3638 47.4728 27.861 47.4728C30.4195 47.4742 32.9943 47.4735 35.5856 47.4708C35.8426 47.4708 36.2321 47.4493 36.7542 47.4064C37.1608 47.3732 37.5311 47.2705 37.9277 47.1971C38.1981 47.1474 38.4625 47.0716 38.7208 46.9696C39.065 46.8347 39.4062 46.728 39.7353 46.561C42.0254 45.3955 43.5767 43.6207 44.3892 41.2368C44.4825 40.9637 44.5523 40.7023 44.5986 40.4527C44.668 40.0833 44.7576 39.7291 44.7928 39.3486C44.9163 38.0255 44.7646 36.7218 44.3379 35.4375Z" fill="black"/>
</svg>
