<svg width="46" height="46" viewBox="0 0 46 46" fill="none" xmlns="http://www.w3.org/2000/svg">
<g clip-path="url(#clip0_39_13)">
<path d="M23 46C35.7025 46 46 35.7025 46 23C46 10.2975 35.7025 0 23 0C10.2975 0 0 10.2975 0 23C0 35.7025 10.2975 46 23 46Z" fill="#FDFF52"/>
<path d="M14.6919 22.9284C14.6919 27.5165 18.4119 31.2366 23 31.2366C26.2907 31.2366 29.1359 29.3229 30.4805 26.5458H34.3812V34.3807H11.6188V11.6188H34.3812V19.501H30.5717C29.2645 16.623 26.3657 14.6216 23 14.6216C18.4119 14.6216 14.6919 18.3399 14.6919 22.928V22.9284Z" fill="black"/>
</g>
<defs>
<clipPath id="clip0_39_13">
<rect width="46" height="46" fill="white"/>
</clipPath>
</defs>
</svg>
