<svg width="180" height="180" viewBox="0 0 180 180" fill="none" xmlns="http://www.w3.org/2000/svg">
<g clip-path="url(#clip0_274_340)">
<path d="M90 0C139.706 0 180 40.2944 180 90V90C180 139.706 139.706 180 90 180V180C40.2944 180 0 139.706 0 90V90C0 40.2944 40.2944 0 90 0V0ZM89.19 155.9C103.13 171.24 128.75 167.78 138.19 149.52C142.043 142.08 142.297 133.92 138.95 125.04C138.837 124.74 138.927 124.52 139.22 124.38C144.393 121.893 148.023 118.777 150.11 115.03C154.963 106.323 154.35 97.9067 148.27 89.78C148.141 89.6038 148.073 89.3902 148.076 89.1716C148.08 88.9531 148.155 88.7418 148.29 88.57C154.56 80.58 155.04 70.4 149.22 62.22C147.113 59.2667 144.32 56.85 140.84 54.97C140.579 54.8274 140.373 54.6006 140.257 54.3265C140.141 54.0523 140.121 53.747 140.2 53.46C141.66 48.2067 141.877 43.2633 140.85 38.63C138.57 28.34 130.25 19.91 120.03 17.06C109.08 14 97.42 16.98 89.53 25.41C89.488 25.4546 89.4378 25.4905 89.3822 25.5157C89.3266 25.5409 89.2667 25.5549 89.2062 25.5567C89.1457 25.5586 89.0856 25.5483 89.0296 25.5266C88.9736 25.5048 88.9227 25.472 88.88 25.43C80.6467 17.45 71.1533 14.4867 60.4 16.54C52.77 17.99 45.73 22.73 41.53 29.03C36.43 36.67 35.38 45.16 38.38 54.5C38.48 54.8133 38.39 55.05 38.11 55.21C30.57 59.53 26.57 65.7767 26.11 73.95C25.79 79.48 27.82 84.77 31.39 88.97C31.55 89.1633 31.55 89.3567 31.39 89.55C27.02 94.69 25.13 101.57 26.54 108.13C28.0333 115.043 32.1467 120.247 38.88 123.74C39.1733 123.893 39.26 124.123 39.14 124.43C36.1333 132.01 35.8967 139.113 38.43 145.74C43.44 158.87 56.22 166.19 70.11 164.7C77.0433 163.953 83.1533 161.013 88.44 155.88C88.4899 155.831 88.5492 155.792 88.6143 155.766C88.6795 155.741 88.7492 155.728 88.8193 155.73C88.8893 155.732 88.9583 155.748 89.022 155.777C89.0857 155.806 89.1428 155.848 89.19 155.9Z" fill="black"/>
<path d="M89.1901 155.9C89.1429 155.848 89.0858 155.806 89.0221 155.777C88.9584 155.748 88.8894 155.732 88.8193 155.73C88.7493 155.728 88.6796 155.741 88.6144 155.766C88.5492 155.792 88.4899 155.831 88.4401 155.88C83.1534 161.013 77.0434 163.953 70.1101 164.7C56.2201 166.19 43.4401 158.87 38.4301 145.74C35.8968 139.113 36.1334 132.01 39.1401 124.43C39.2601 124.123 39.1734 123.893 38.8801 123.74C32.1468 120.247 28.0334 115.043 26.5401 108.13C25.1301 101.57 27.0201 94.69 31.3901 89.55C31.5501 89.3567 31.5501 89.1633 31.3901 88.97C27.8201 84.77 25.7901 79.48 26.1101 73.95C26.5701 65.7767 30.5701 59.53 38.1101 55.21C38.3901 55.05 38.4801 54.8133 38.3801 54.5C35.3801 45.16 36.4301 36.67 41.5301 29.03C45.7301 22.73 52.7701 17.99 60.4001 16.54C71.1534 14.4867 80.6468 17.45 88.8801 25.43C88.9228 25.472 88.9737 25.5048 89.0297 25.5266C89.0857 25.5483 89.1457 25.5586 89.2063 25.5567C89.2668 25.5549 89.3267 25.5409 89.3823 25.5157C89.4379 25.4905 89.4881 25.4546 89.5301 25.41C97.4201 16.98 109.08 14 120.03 17.06C130.25 19.91 138.57 28.34 140.85 38.63C141.877 43.2633 141.66 48.2067 140.2 53.46C140.121 53.747 140.141 54.0523 140.257 54.3265C140.373 54.6006 140.579 54.8274 140.84 54.97C144.32 56.85 147.113 59.2667 149.22 62.22C155.04 70.4 154.56 80.58 148.29 88.57C148.155 88.7418 148.08 88.9531 148.076 89.1716C148.073 89.3902 148.141 89.6038 148.27 89.78C154.35 97.9067 154.963 106.323 150.11 115.03C148.023 118.777 144.393 121.893 139.22 124.38C138.927 124.52 138.837 124.74 138.95 125.04C142.297 133.92 142.043 142.08 138.19 149.52C128.75 167.78 103.13 171.24 89.1901 155.9ZM137.88 92.05C135.2 89.38 137.13 86.83 139.54 84.84C143.27 81.76 145.03 77.65 144.22 72.73C143.46 68.2033 140.897 64.8767 136.53 62.75C135.957 62.47 134.183 61.8333 131.21 60.84C130.483 60.6 129.867 59.7233 129.36 58.21C129.1 57.43 129.23 56.47 129.75 55.33C130.95 52.6967 131.673 50.8967 131.92 49.93C134.05 41.55 131.27 34.02 124.41 28.86C115.63 22.26 104.17 23.64 96.2401 31.06C94.3001 32.87 92.8301 36.7 90.6701 37.45C86.7001 38.83 85.5101 35.35 83.6001 33.09C80.9868 29.9967 78.2034 27.8067 75.2501 26.52C60.0701 19.92 42.2301 32.26 46.0001 49.03C46.5401 51.44 47.4201 52.99 48.6201 55.68C50.6401 60.18 46.3201 61.35 43.1501 62.67C35.0101 66.04 31.9101 76.36 38.2901 83.32C40.7801 86.03 44.9201 88.64 41.3801 92.13C38.8534 94.6167 37.3234 96.3233 36.7901 97.25C34.5301 101.15 34.2568 105 35.9701 108.8C37.7501 112.74 40.5701 115.277 44.4301 116.41C46.6501 117.063 48.0101 117.547 48.5101 117.86C50.1568 118.88 50.8534 120.127 50.6001 121.6C50.5068 122.147 49.9468 123.32 48.9201 125.12C44.5001 132.82 44.3568 139.87 48.4901 146.27C51.6501 151.163 56.0034 154.273 61.5501 155.6C67.4568 157.02 73.1901 155.97 78.7501 152.45C81.7501 150.56 83.7101 147.54 85.6001 145.36C89.7001 140.64 92.5701 145.87 94.8101 148.82C101.42 157.52 114.67 159.21 123.55 153.12C126.603 151.033 128.807 148.64 130.16 145.94C133.593 139.073 133.243 132.357 129.11 125.79C128.063 124.137 127.463 123.017 127.31 122.43C126.917 120.923 127.313 119.597 128.5 118.45C129.047 117.917 130.573 117.413 133.08 116.94C139.26 115.77 144.29 110.54 144.43 104.2C144.57 98.19 141.69 95.86 137.88 92.05Z" fill="#05FDFE"/>
<path d="M139.54 84.84C137.13 86.83 135.2 89.38 137.88 92.05C141.69 95.86 144.57 98.19 144.43 104.2C144.29 110.54 139.26 115.77 133.08 116.94C130.573 117.413 129.046 117.917 128.5 118.45C127.313 119.597 126.916 120.923 127.31 122.43C127.463 123.017 128.063 124.137 129.11 125.79C133.243 132.357 133.593 139.073 130.16 145.94C128.806 148.64 126.603 151.033 123.55 153.12C114.67 159.21 101.42 157.52 94.8095 148.82C92.5695 145.87 89.6995 140.64 85.5995 145.36C83.7095 147.54 81.7495 150.56 78.7495 152.45C73.1895 155.97 67.4562 157.02 61.5495 155.6C56.0029 154.273 51.6495 151.163 48.4895 146.27C44.3562 139.87 44.4995 132.82 48.9195 125.12C49.9462 123.32 50.5062 122.147 50.5995 121.6C50.8529 120.127 50.1562 118.88 48.5095 117.86C48.0095 117.547 46.6495 117.063 44.4295 116.41C40.5695 115.277 37.7495 112.74 35.9695 108.8C34.2562 105 34.5295 101.15 36.7895 97.25C37.3229 96.3233 38.8529 94.6167 41.3795 92.13C44.9195 88.64 40.7795 86.03 38.2895 83.32C31.9095 76.36 35.0095 66.04 43.1495 62.67C46.3195 61.35 50.6395 60.18 48.6195 55.68C47.4195 52.99 46.5395 51.44 45.9995 49.03C42.2295 32.26 60.0695 19.92 75.2495 26.52C78.2029 27.8067 80.9862 29.9967 83.5995 33.09C85.5095 35.35 86.6995 38.83 90.6695 37.45C92.8295 36.7 94.2995 32.87 96.2395 31.06C104.17 23.64 115.63 22.26 124.41 28.86C131.27 34.02 134.05 41.55 131.92 49.93C131.673 50.8967 130.95 52.6967 129.75 55.33C129.23 56.47 129.1 57.43 129.36 58.21C129.866 59.7233 130.483 60.6 131.21 60.84C134.183 61.8333 135.956 62.47 136.53 62.75C140.896 64.8767 143.46 68.2033 144.22 72.73C145.03 77.65 143.27 81.76 139.54 84.84ZM121.16 94.08C122.65 95.05 124.23 96.18 126.04 96.25C128.52 96.3433 129.98 95.1833 130.42 92.77C130.78 90.8033 130.193 89.3233 128.66 88.33C127.34 87.4833 125.74 86.5033 123.86 85.39C123.735 85.3176 123.633 85.2089 123.562 85.0752C123.492 84.9416 123.456 84.7879 123.46 84.63L123.5 82.53C123.506 82.1233 123.72 81.9133 124.14 81.9L129.98 81.78C132.58 81.72 134.023 80.3267 134.31 77.6C134.316 77.58 134.31 77.4433 134.29 77.19C134.123 74.5167 132.676 73.17 129.95 73.15L120.31 73.07C119.963 73.0633 119.676 72.98 119.45 72.82C118.383 72.08 117.476 71.4267 116.73 70.86C112.643 67.72 108.01 66.98 102.83 68.64C100.21 69.48 98.5595 70.93 96.0095 72.8C95.7495 72.9933 95.4529 73.09 95.1195 73.09H85.5095C85.1829 73.09 84.8995 72.9967 84.6595 72.81C82.1662 70.7833 80.1829 69.4867 78.7095 68.92C74.1095 67.14 69.5729 67.4733 65.0995 69.92C62.7195 71.22 62.2895 73.02 58.9695 73.04C54.8962 73.0533 52.8195 73.0633 52.7395 73.07C50.9595 73.11 49.6862 73.4067 48.9195 73.96C46.0095 76.06 47.3095 81.1 50.8295 81.82C50.8362 81.8267 52.8329 81.88 56.8195 81.98C56.8935 81.9826 56.9663 81.9998 57.0334 82.0307C57.1005 82.0615 57.1606 82.1053 57.21 82.1595C57.2595 82.2136 57.2974 82.277 57.3214 82.3458C57.3453 82.4147 57.3549 82.4875 57.3495 82.56L57.1895 85.01C57.1695 85.3967 57.0229 85.6867 56.7495 85.88C56.3762 86.16 55.4129 86.7833 53.8595 87.75C51.3695 89.3 50.0495 91.82 51.7495 94.33C53.0495 96.2567 54.8529 96.7667 57.1595 95.86C58.1262 95.48 58.9529 95.0267 59.6395 94.5C60.0195 94.2133 60.3662 94.2467 60.6795 94.6C71.5995 106.9 89.7095 98.71 88.6095 82.59C88.5629 81.95 88.8862 81.66 89.5795 81.72L91.1795 81.87C91.3913 81.887 91.5893 81.9781 91.7351 82.1258C91.881 82.2735 91.9645 82.4674 91.9695 82.67C92.0429 85.39 92.1795 87.14 92.3795 87.92C93.6529 92.9067 96.3195 96.4567 100.38 98.57C106.706 101.85 112.646 101.177 118.2 96.55C118.79 96.06 119.7 95.05 120.28 94.25C120.52 93.91 120.813 93.8533 121.16 94.08Z" fill="black"/>
<path d="M120.28 94.25C119.7 95.05 118.79 96.06 118.2 96.55C112.647 101.177 106.707 101.85 100.38 98.57C96.3202 96.4567 93.6535 92.9067 92.3802 87.92C92.1802 87.14 92.0435 85.39 91.9702 82.67C91.9652 82.4674 91.8817 82.2735 91.7358 82.1258C91.5899 81.9781 91.392 81.887 91.1802 81.87L89.5802 81.72C88.8869 81.66 88.5635 81.95 88.6102 82.59C89.7102 98.71 71.6002 106.9 60.6802 94.6C60.3669 94.2467 60.0202 94.2133 59.6402 94.5C58.9535 95.0267 58.1269 95.48 57.1602 95.86C54.8535 96.7667 53.0502 96.2567 51.7502 94.33C50.0502 91.82 51.3702 89.3 53.8602 87.75C55.4135 86.7833 56.3769 86.16 56.7502 85.88C57.0235 85.6867 57.1702 85.3967 57.1902 85.01L57.3502 82.56C57.3556 82.4875 57.346 82.4147 57.322 82.3458C57.2981 82.277 57.2602 82.2136 57.2107 82.1595C57.1612 82.1053 57.1011 82.0615 57.034 82.0307C56.9669 81.9998 56.8942 81.9826 56.8202 81.98C52.8335 81.88 50.8369 81.8267 50.8302 81.82C47.3102 81.1 46.0102 76.06 48.9202 73.96C49.6869 73.4067 50.9602 73.11 52.7402 73.07C52.8202 73.0633 54.8969 73.0533 58.9702 73.04C62.2902 73.02 62.7202 71.22 65.1002 69.92C69.5735 67.4733 74.1102 67.14 78.7102 68.92C80.1835 69.4867 82.1669 70.7833 84.6602 72.81C84.9002 72.9967 85.1835 73.09 85.5102 73.09H95.1202C95.4535 73.09 95.7502 72.9933 96.0102 72.8C98.5602 70.93 100.21 69.48 102.83 68.64C108.01 66.98 112.644 67.72 116.73 70.86C117.477 71.4267 118.384 72.08 119.45 72.82C119.677 72.98 119.964 73.0633 120.31 73.07L129.95 73.15C132.677 73.17 134.124 74.5167 134.29 77.19C134.31 77.4433 134.317 77.58 134.31 77.6C134.024 80.3267 132.58 81.72 129.98 81.78L124.14 81.9C123.72 81.9133 123.507 82.1233 123.5 82.53L123.46 84.63C123.457 84.7879 123.493 84.9416 123.563 85.0752C123.633 85.2089 123.736 85.3176 123.86 85.39C125.74 86.5033 127.34 87.4833 128.66 88.33C130.194 89.3233 130.78 90.8033 130.42 92.77C129.98 95.1833 128.52 96.3433 126.04 96.25C124.23 96.18 122.65 95.05 121.16 94.08C120.814 93.8533 120.52 93.91 120.28 94.25ZM72.7882 91.778C74.6416 91.8201 76.4372 91.062 77.78 89.6706C79.1228 88.2792 79.9028 86.3684 79.9484 84.3586C79.994 82.3488 79.3015 80.4046 78.0232 78.9537C76.7449 77.5028 74.9856 76.6641 73.1322 76.622C71.2788 76.5799 69.4832 77.338 68.1404 78.7294C66.7976 80.1208 66.0176 82.0316 65.972 84.0414C65.9264 86.0512 66.6189 87.9954 67.8972 89.4463C69.1755 90.8972 70.9348 91.7359 72.7882 91.778ZM107.793 91.73C108.711 91.7284 109.62 91.531 110.467 91.1491C111.315 90.7672 112.084 90.2082 112.732 89.5042C113.38 88.8001 113.894 87.9647 114.243 87.0456C114.593 86.1266 114.772 85.1419 114.77 84.1478C114.768 83.1537 114.586 82.1696 114.233 81.2518C113.88 80.334 113.364 79.5004 112.714 78.7986C112.063 78.0968 111.292 77.5405 110.443 77.1616C109.594 76.7826 108.685 76.5884 107.767 76.59C106.849 76.5916 105.94 76.789 105.093 77.1709C104.246 77.5528 103.476 78.1117 102.828 78.8158C102.18 79.5199 101.667 80.3553 101.317 81.2743C100.968 82.1934 100.788 83.1781 100.79 84.1722C100.792 85.1663 100.974 86.1504 101.327 87.0682C101.68 87.986 102.197 88.8196 102.847 89.5214C103.497 90.2232 104.269 90.7795 105.117 91.1584C105.966 91.5374 106.875 91.7316 107.793 91.73Z" fill="#05FDFE"/>
<path d="M65.9717 84.0414C65.8768 88.2267 68.9285 91.6905 72.788 91.778C76.6475 91.8656 79.8532 88.5438 79.9481 84.3586C80.0431 80.1733 76.9914 76.7095 73.1319 76.6219C69.2724 76.5344 66.0667 79.8562 65.9717 84.0414Z" fill="black"/>
<path d="M100.79 84.1722C100.797 88.353 103.933 91.7367 107.793 91.73C111.654 91.7233 114.777 88.3286 114.77 84.1478C114.763 79.967 111.627 76.5833 107.767 76.59C103.906 76.5968 100.783 79.9914 100.79 84.1722Z" fill="black"/>
</g>
<defs>
<clipPath id="clip0_274_340">
<rect width="180" height="180" fill="white"/>
</clipPath>
</defs>
</svg>
