<svg width="306" height="308" viewBox="0 0 306 308" fill="none" xmlns="http://www.w3.org/2000/svg">
<path d="M133.67 24.93C133.386 25.1306 133.154 25.397 132.994 25.7067C132.833 26.0165 132.75 26.3606 132.75 26.71L132.76 46.97C132.76 47.353 132.86 47.7294 133.052 48.0612C133.243 48.393 133.519 48.6685 133.85 48.86L148.63 57.38C148.675 57.4044 148.712 57.4404 148.738 57.4842C148.763 57.5281 148.777 57.5784 148.777 57.63C148.777 57.6817 148.763 57.7328 148.738 57.7785C148.712 57.8241 148.675 57.8625 148.63 57.89L138.75 63.81C138.48 63.9706 138.171 64.0562 137.857 64.0579C137.542 64.0597 137.233 63.9776 136.96 63.82L122.06 55.22C121.89 55.1194 121.748 54.9771 121.65 54.807C121.552 54.6369 121.5 54.4449 121.5 54.25V26.72C121.501 26.3317 121.403 25.9499 121.215 25.6105C121.028 25.2712 120.758 24.9854 120.43 24.78C107.07 16.43 116.92 -3.83 132.13 1.87C136.79 3.62 139.78 8.26 140 13.22C140.207 17.9533 138.097 21.8567 133.67 24.93ZM132.14 13.76C132.14 12.4339 131.613 11.1621 130.676 10.2245C129.738 9.28678 128.466 8.76 127.14 8.76C125.814 8.76 124.542 9.28678 123.605 10.2245C122.667 11.1621 122.14 12.4339 122.14 13.76C122.14 15.0861 122.667 16.3578 123.605 17.2955C124.542 18.2332 125.814 18.76 127.14 18.76C128.466 18.76 129.738 18.2332 130.676 17.2955C131.613 16.3578 132.14 15.0861 132.14 13.76Z" fill="#FF4DC2"/>
<path d="M124.69 96.07C124.412 96.3993 124.26 96.8137 124.26 97.24L124.31 137.24C124.31 137.571 124.218 137.895 124.045 138.176C123.872 138.456 123.624 138.683 123.33 138.83L113.48 143.82C113.414 143.854 113.341 143.871 113.267 143.869C113.193 143.867 113.121 143.846 113.058 143.808C112.994 143.769 112.942 143.715 112.906 143.651C112.869 143.587 112.85 143.514 112.85 143.44L112.82 90.9C112.819 90.49 112.928 90.0865 113.135 89.7301C113.343 89.3738 113.641 89.0771 114 88.87L181.86 49.57C182.58 49.1567 182.94 48.5333 182.94 47.7V26.69C182.94 26.4447 182.887 26.2025 182.785 25.9799C182.683 25.7573 182.535 25.5595 182.35 25.4C181.09 24.29 179.06 22.94 178.16 21.51C174.146 15.1767 174.743 9.42665 179.95 4.25999C181.95 2.27332 184.756 1.16998 188.37 0.949981C191.43 0.763315 194.07 1.56665 196.29 3.35998C202.29 8.21999 203.28 16.66 198.02 22.31C197.373 23.0033 196.343 24.0067 194.93 25.32C194.697 25.5377 194.511 25.8013 194.386 26.0939C194.26 26.3866 194.197 26.702 194.2 27.02L194.29 54.22C194.292 54.6786 194.174 55.1292 193.948 55.5261C193.721 55.923 193.394 56.2521 193 56.48C151.866 80.1133 129.443 93.0333 125.73 95.24C125.276 95.5067 124.93 95.7833 124.69 96.07ZM193.53 13.73C193.53 12.4092 193.005 11.1425 192.071 10.2086C191.137 9.27466 189.871 8.74998 188.55 8.74998C187.229 8.74998 185.962 9.27466 185.028 10.2086C184.094 11.1425 183.57 12.4092 183.57 13.73C183.57 15.0508 184.094 16.3174 185.028 17.2514C185.962 18.1853 187.229 18.71 188.55 18.71C189.871 18.71 191.137 18.1853 192.071 17.2514C193.005 16.3174 193.53 15.0508 193.53 13.73Z" fill="#5E17EB"/>
<path d="M56.0595 64.11C52.8595 65.57 51.0595 66.48 47.0295 65.74C34.2695 63.38 32.3295 46.52 44.0695 41.05C46.0295 40.13 48.0829 39.8067 50.2295 40.08C57.0429 40.9467 61.0362 45.0367 62.2095 52.35C62.4029 53.5433 63.1129 54.4867 64.3395 55.18C66.5062 56.4 74.0695 60.7867 87.0295 68.34C87.4097 68.5617 87.7252 68.8788 87.9445 69.2595C88.1638 69.6402 88.2793 70.0714 88.2795 70.51L88.2595 148.51C88.2591 148.959 88.3782 149.401 88.6047 149.791C88.8313 150.181 89.1572 150.505 89.5495 150.73L123.69 170.25C124.071 170.469 124.383 170.791 124.591 171.179C124.8 171.568 124.896 172.008 124.87 172.45L124.24 183.03C124.213 183.51 123.996 183.63 123.59 183.39L78.1395 157.24C77.3062 156.76 76.8895 156.037 76.8895 155.07L76.9395 77.22C76.94 76.7402 76.8136 76.2685 76.5731 75.8524C76.3325 75.4363 75.9864 75.0906 75.5695 74.85L57.0795 64.16C56.7462 63.9667 56.4062 63.95 56.0595 64.11ZM54.2295 53.03C54.2295 51.6986 53.7006 50.4217 52.7592 49.4803C51.8178 48.5389 50.5409 48.01 49.2095 48.01C47.8781 48.01 46.6013 48.5389 45.6598 49.4803C44.7184 50.4217 44.1895 51.6986 44.1895 53.03C44.1895 54.3614 44.7184 55.6382 45.6598 56.5797C46.6013 57.5211 47.8781 58.05 49.2095 58.05C50.5409 58.05 51.8178 57.5211 52.7592 56.5797C53.7006 55.6382 54.2295 54.3614 54.2295 53.03Z" fill="#5E17EB"/>
<path d="M253.6 72.7801L234.99 83.5401C234.657 83.7268 234.49 84.0101 234.49 84.3901L234.5 102.06C234.5 102.447 234.33 102.547 233.99 102.36L223.57 96.5301C223.404 96.4398 223.265 96.3048 223.168 96.1393C223.071 95.9739 223.02 95.7841 223.02 95.5901L223 78.3301C223 78.0115 223.084 77.6985 223.244 77.4228C223.404 77.1471 223.634 76.9185 223.91 76.7601L247.79 62.9901C248.077 62.8234 248.253 62.5768 248.32 62.2501C248.67 60.5701 248.75 58.7201 249.3 57.2401C252.85 47.6901 265.65 45.6601 271.8 53.9001C276.58 60.3101 274.54 69.2201 267.54 73.0701C263.727 75.1701 259.383 75.0634 254.51 72.7501C254.197 72.6034 253.893 72.6134 253.6 72.7801ZM266.47 61.6601C266.47 60.334 265.943 59.0622 265.006 58.1246C264.068 57.1869 262.796 56.6601 261.47 56.6601C260.144 56.6601 258.872 57.1869 257.934 58.1246C256.997 59.0622 256.47 60.334 256.47 61.6601C256.47 62.9862 256.997 64.258 257.934 65.1956C258.872 66.1333 260.144 66.6601 261.47 66.6601C262.796 66.6601 264.068 66.1333 265.006 65.1956C265.943 64.258 266.47 62.9862 266.47 61.6601Z" fill="#FF4DC2"/>
<path d="M259.23 127.35L278.39 116.27C278.644 116.123 278.856 115.918 279.007 115.673C279.157 115.428 279.241 115.151 279.25 114.87C279.49 108.29 283.35 103.22 290.12 102.16C293.98 101.553 297.397 102.523 300.37 105.07C304.89 108.96 306.32 114.39 303.97 119.96C300.84 127.35 292.47 129.82 285.76 126.15C285.516 126.019 285.243 125.951 284.966 125.955C284.69 125.958 284.419 126.032 284.18 126.17L259.26 140.55C258.967 140.717 258.677 140.717 258.39 140.55L190.22 101.07C189.79 100.821 189.301 100.691 188.804 100.693C188.307 100.694 187.819 100.828 187.39 101.08L153.32 120.9C152.64 121.3 151.967 121.283 151.3 120.85L142.12 114.95C142.057 114.909 142.005 114.852 141.97 114.786C141.935 114.719 141.918 114.645 141.92 114.569C141.922 114.494 141.943 114.421 141.982 114.356C142.02 114.291 142.075 114.238 142.14 114.2L187.33 87.8599C187.713 87.6377 188.148 87.5198 188.59 87.5181C189.032 87.5163 189.467 87.6308 189.85 87.8499L258.34 127.35C258.477 127.429 258.631 127.471 258.788 127.471C258.944 127.471 259.097 127.429 259.23 127.35ZM297.23 114.87C297.23 113.528 296.697 112.241 295.748 111.292C294.799 110.343 293.512 109.81 292.17 109.81C290.828 109.81 289.541 110.343 288.592 111.292C287.643 112.241 287.11 113.528 287.11 114.87C287.11 116.212 287.643 117.499 288.592 118.448C289.541 119.397 290.828 119.93 292.17 119.93C293.512 119.93 294.799 119.397 295.748 118.448C296.697 117.499 297.23 116.212 297.23 114.87Z" fill="#5E17EB"/>
<path d="M32.3204 107.63L50.2404 117.99C50.5295 118.157 50.8585 118.244 51.194 118.242C51.5295 118.241 51.8594 118.15 52.1503 117.98L66.9504 109.42C67.0047 109.391 67.0655 109.376 67.1271 109.377C67.1887 109.378 67.249 109.395 67.3022 109.426C67.3554 109.458 67.3997 109.502 67.4309 109.555C67.4621 109.608 67.4791 109.668 67.4804 109.73L67.5004 121.76C67.5004 122.127 67.3404 122.403 67.0204 122.59L51.8304 131.37C51.6447 131.476 51.4351 131.532 51.2227 131.532C51.0103 131.532 50.8025 131.476 50.6203 131.37L26.6804 117.54C26.4108 117.381 26.1058 117.292 25.7943 117.284C25.4828 117.275 25.1751 117.346 24.9004 117.49C20.9404 119.523 17.1037 119.717 13.3904 118.07C7.50035 115.46 4.63036 109.58 5.98036 103.24C7.62036 95.5399 16.1204 91.2699 23.4504 94.3699C27.8904 96.2499 30.497 99.6132 31.2704 104.46C31.4837 105.787 31.6437 106.617 31.7504 106.95C31.8504 107.25 32.0404 107.477 32.3204 107.63ZM23.5304 106.24C23.5304 104.909 23.0015 103.632 22.06 102.69C21.1186 101.749 19.8417 101.22 18.5104 101.22C17.8511 101.22 17.1983 101.35 16.5893 101.602C15.9802 101.854 15.4268 102.224 14.9607 102.69C14.4945 103.156 14.1248 103.71 13.8725 104.319C13.6202 104.928 13.4904 105.581 13.4904 106.24C13.4904 106.899 13.6202 107.552 13.8725 108.161C14.1248 108.77 14.4945 109.323 14.9607 109.79C15.4268 110.256 15.9802 110.625 16.5893 110.878C17.1983 111.13 17.8511 111.26 18.5104 111.26C19.8417 111.26 21.1186 110.731 22.06 109.79C23.0015 108.848 23.5304 107.571 23.5304 106.24Z" fill="#FF4DC2"/>
<path d="M243.31 254.58C243.288 254.467 243.242 254.359 243.174 254.264C243.107 254.169 243.021 254.09 242.92 254.03L218.9 240.19C218.438 239.922 218.054 239.537 217.787 239.073C217.52 238.61 217.38 238.085 217.38 237.55L217.55 159.84C217.553 159.421 217.444 159.008 217.235 158.644C217.026 158.281 216.724 157.979 216.36 157.77L181.65 137.77C181.377 137.614 181.153 137.385 181.002 137.107C180.852 136.83 180.782 136.516 180.8 136.2L181.45 125.23C181.453 125.152 181.476 125.076 181.517 125.01C181.558 124.943 181.616 124.889 181.685 124.851C181.753 124.814 181.83 124.795 181.909 124.797C181.987 124.798 182.063 124.82 182.13 124.86L227.91 151.27C228.166 151.419 228.378 151.631 228.525 151.885C228.673 152.14 228.75 152.427 228.75 152.72L228.74 231.45C228.74 231.834 228.842 232.211 229.035 232.545C229.228 232.878 229.506 233.156 229.84 233.35L248.5 244.09C248.8 244.263 249.117 244.3 249.45 244.2C250.72 243.83 252.06 242.98 253.33 242.71C266.91 239.84 275.46 256.57 264.34 265.44C261.013 268.093 257.397 268.897 253.49 267.85C249.65 266.817 246.86 264.73 245.12 261.59C243.89 259.37 243.81 257.36 243.31 254.58ZM261.45 255.29C261.45 253.964 260.923 252.692 259.986 251.754C259.048 250.817 257.776 250.29 256.45 250.29C255.124 250.29 253.852 250.817 252.915 251.754C251.977 252.692 251.45 253.964 251.45 255.29C251.45 256.616 251.977 257.888 252.915 258.826C253.852 259.763 255.124 260.29 256.45 260.29C257.776 260.29 259.048 259.763 259.986 258.826C260.923 257.888 261.45 256.616 261.45 255.29Z" fill="#5E17EB"/>
<path d="M156.29 148.66C149.54 147.61 148.94 160.3 157.72 158.14C158.827 157.867 160.017 157.297 161.29 156.43C161.583 156.223 161.893 156.197 162.22 156.35C167.38 158.71 165.59 164.53 161.31 166.41C155.66 168.9 146.88 167.45 143.35 161.92C141.803 159.493 141.04 156.64 141.06 153.36C141.113 146.653 144.703 142.287 151.83 140.26C155.577 139.193 159.64 139.85 164.02 142.23C164.293 142.377 164.447 142.603 164.48 142.91C164.92 147.11 162.27 149.51 158.26 148.96C158.16 148.947 157.503 148.847 156.29 148.66Z" fill="#FF4DC2"/>
<path d="M111.41 281.97L111.38 253.94C111.377 253.537 111.482 253.14 111.684 252.79C111.887 252.441 112.178 252.15 112.53 251.95L180.59 212.73C180.86 212.575 181.085 212.35 181.241 212.078C181.397 211.806 181.48 211.496 181.48 211.18L181.44 171.23C181.439 170.836 181.55 170.449 181.758 170.112C181.966 169.775 182.265 169.501 182.62 169.32L192.43 164.33C192.468 164.311 192.51 164.303 192.552 164.305C192.594 164.307 192.634 164.319 192.67 164.341C192.706 164.363 192.736 164.394 192.757 164.43C192.778 164.467 192.789 164.508 192.79 164.55L192.82 217.44C192.82 217.896 192.7 218.343 192.471 218.736C192.243 219.13 191.915 219.455 191.52 219.68L124.24 258.27C123.273 258.83 122.79 259.667 122.79 260.78V281.97C122.79 282.153 122.831 282.334 122.911 282.499C122.991 282.664 123.107 282.808 123.25 282.92C125.25 284.51 127.91 286.72 128.87 288.99C131.24 294.65 129.69 301.34 124.74 304.92C122.727 306.38 120.01 307.153 116.59 307.24C105.21 307.54 99.98 291.89 108.32 285.06C109.787 283.86 110.683 283.123 111.01 282.85C111.283 282.617 111.417 282.323 111.41 281.97ZM122.07 294.51C122.07 293.856 121.941 293.208 121.691 292.604C121.441 292 121.074 291.451 120.611 290.989C120.149 290.526 119.6 290.159 118.996 289.909C118.392 289.659 117.744 289.53 117.09 289.53C116.436 289.53 115.788 289.659 115.184 289.909C114.58 290.159 114.031 290.526 113.569 290.989C113.106 291.451 112.739 292 112.489 292.604C112.239 293.208 112.11 293.856 112.11 294.51C112.11 295.831 112.635 297.097 113.569 298.031C114.502 298.965 115.769 299.49 117.09 299.49C118.411 299.49 119.677 298.965 120.611 298.031C121.545 297.097 122.07 295.831 122.07 294.51Z" fill="#5E17EB"/>
<path d="M117.33 207.6L152.64 187.23C152.912 187.071 153.224 186.992 153.539 187.003C153.854 187.013 154.159 187.113 154.42 187.29L163.54 193.47C163.967 193.757 163.957 194.03 163.51 194.29L118.13 220.41C117.74 220.632 117.301 220.749 116.855 220.749C116.409 220.749 115.973 220.632 115.59 220.41L47.6403 181.14C47.4155 181.009 47.1595 180.94 46.8979 180.94C46.6364 180.94 46.3785 181.009 46.1503 181.14L27.4203 191.9C27.1463 192.057 26.9147 192.278 26.7457 192.545C26.5767 192.811 26.4753 193.115 26.4503 193.43C26.1569 197.51 24.5869 200.723 21.7403 203.07C16.0103 207.79 8.06027 207.37 3.44027 201.61C1.4336 199.11 0.553602 195.903 0.800269 191.99C1.0336 188.257 2.8336 185.163 6.20026 182.71C7.76026 181.577 9.2936 180.877 10.8003 180.61C14.4103 179.97 16.5003 180.75 19.5703 181.99C21.1903 182.64 21.8903 182.06 23.4303 181.16C35.1903 174.333 42.8636 169.877 46.4503 167.79C46.7303 167.623 47.0103 167.62 47.2903 167.78L116.48 207.6C116.767 207.767 117.05 207.767 117.33 207.6ZM18.4703 193.29C18.4703 192.632 18.3407 191.98 18.0889 191.373C17.8371 190.765 17.4681 190.213 17.0029 189.747C16.5376 189.282 15.9853 188.913 15.3775 188.661C14.7697 188.409 14.1182 188.28 13.4603 188.28C12.8023 188.28 12.1509 188.409 11.543 188.661C10.9352 188.913 10.3829 189.282 9.91766 189.747C9.45244 190.213 9.0834 190.765 8.83162 191.373C8.57985 191.98 8.45026 192.632 8.45026 193.29C8.45026 194.619 8.9781 195.893 9.91766 196.833C10.8572 197.772 12.1315 198.3 13.4603 198.3C14.789 198.3 16.0633 197.772 17.0029 196.833C17.9424 195.893 18.4703 194.619 18.4703 193.29Z" fill="#5E17EB"/>
<path d="M274.19 201.81C274.174 201.579 274.102 201.356 273.98 201.161C273.858 200.966 273.689 200.804 273.49 200.69L255.29 190.18C255.044 190.034 254.764 189.956 254.477 189.954C254.191 189.953 253.909 190.027 253.66 190.17L239 198.67C238.932 198.711 238.854 198.734 238.775 198.738C238.696 198.742 238.618 198.727 238.548 198.694C238.479 198.661 238.42 198.611 238.378 198.549C238.337 198.487 238.313 198.415 238.31 198.34L238.03 186.7C238.024 186.515 238.068 186.333 238.156 186.171C238.243 186.009 238.373 185.874 238.53 185.78L253.23 177.3C253.628 177.069 254.08 176.948 254.54 176.948C255 176.948 255.452 177.069 255.85 177.3L279.1 190.8C279.393 190.967 279.703 191.017 280.03 190.95C281.69 190.59 283.59 189.46 285.46 189.19C288.9 188.703 292.076 189.57 294.99 191.79C298.73 194.637 300.39 198.473 299.97 203.3C299.19 212.29 289.41 217.65 281.29 213.51C276.93 211.283 274.563 207.383 274.19 201.81ZM292.17 202.05C292.17 200.724 291.643 199.452 290.705 198.515C289.768 197.577 288.496 197.05 287.17 197.05C285.844 197.05 284.572 197.577 283.634 198.515C282.697 199.452 282.17 200.724 282.17 202.05C282.17 203.376 282.697 204.648 283.634 205.586C284.572 206.523 285.844 207.05 287.17 207.05C288.496 207.05 289.768 206.523 290.705 205.586C291.643 204.648 292.17 203.376 292.17 202.05Z" fill="#FF4DC2"/>
<path d="M51.2602 235.47C51.6336 235.583 51.9869 235.543 52.3203 235.35L70.4202 224.89C70.6693 224.747 70.8763 224.54 71.0202 224.289C71.1642 224.037 71.2401 223.752 71.2402 223.46V206.48C71.2409 206.401 71.2622 206.323 71.3019 206.254C71.3416 206.185 71.3985 206.128 71.467 206.087C71.5355 206.047 71.6132 206.025 71.6926 206.024C71.7721 206.023 71.8505 206.042 71.9202 206.08L81.5502 211.39C81.9142 211.593 82.2174 211.89 82.4283 212.251C82.6393 212.611 82.7504 213.022 82.7502 213.44V229.56C82.75 229.982 82.6398 230.396 82.4309 230.76C82.2219 231.123 81.9216 231.423 81.5602 231.63C74.9069 235.463 67.3569 239.81 58.9102 244.67C58.3169 245.01 57.8836 245.373 57.6102 245.76C57.4236 246.02 57.2769 246.54 57.1702 247.32C56.2102 254.273 52.4536 258.283 45.9002 259.35C35.6902 261.01 27.6703 249.6 33.0203 240.24C35.6803 235.587 39.9402 233.427 45.8002 233.76C47.5802 233.87 49.6002 234.97 51.2602 235.47ZM49.2302 246.58C49.2302 245.254 48.7035 243.982 47.7658 243.044C46.8281 242.107 45.5563 241.58 44.2302 241.58C42.9042 241.58 41.6324 242.107 40.6947 243.044C39.757 243.982 39.2302 245.254 39.2302 246.58C39.2302 247.906 39.757 249.178 40.6947 250.115C41.6324 251.053 42.9042 251.58 44.2302 251.58C45.5563 251.58 46.8281 251.053 47.7658 250.115C48.7035 249.178 49.2302 247.906 49.2302 246.58Z" fill="#FF4DC2"/>
<path d="M185.17 283.32C190.457 287.06 192.42 291.813 191.06 297.58C189.79 302.99 185.27 306.95 179.75 307.26C174.457 307.56 170.457 305.667 167.75 301.58C164.63 296.87 165.08 290.41 168.68 286.19C169.6 285.12 172.99 283.26 172.99 280.99C172.997 276.517 173.003 270.143 173.01 261.87C173.01 261.332 172.869 260.804 172.6 260.339C172.331 259.873 171.945 259.488 171.48 259.22L157.51 251.17C156.943 250.843 156.943 250.507 157.51 250.16L166.66 244.59C167.002 244.382 167.395 244.27 167.798 244.266C168.201 244.263 168.599 244.368 168.95 244.57L183.4 252.93C183.656 253.08 183.868 253.29 184.015 253.541C184.163 253.792 184.24 254.074 184.24 254.36V281.52C184.24 281.873 184.325 282.22 184.487 282.533C184.648 282.846 184.883 283.116 185.17 283.32ZM183.56 294.5C183.56 293.171 183.032 291.897 182.093 290.957C181.153 290.018 179.879 289.49 178.55 289.49C177.221 289.49 175.947 290.018 175.007 290.957C174.068 291.897 173.54 293.171 173.54 294.5C173.54 295.829 174.068 297.103 175.007 298.043C175.947 298.982 177.221 299.51 178.55 299.51C179.879 299.51 181.153 298.982 182.093 298.043C183.032 297.103 183.56 295.829 183.56 294.5Z" fill="#FF4DC2"/>
</svg>
