<svg width="41" height="34" viewBox="0 0 41 34" fill="none" xmlns="http://www.w3.org/2000/svg">
<g clip-path="url(#clip0_276_766)">
<path d="M32.0001 25.76L40.2201 34H32.1101L18.5101 20.4H26.9301C28.7336 20.4 30.4632 19.6836 31.7385 18.4083C33.0137 17.1331 33.7301 15.4035 33.7301 13.6C33.7301 11.7965 33.0137 10.0669 31.7385 8.79167C30.4632 7.51643 28.7336 6.8 26.9301 6.8H24.1901L17.3901 0H26.6201C30.2271 0 33.6863 1.43285 36.2368 3.98335C38.7873 6.53384 40.2201 9.99306 40.2201 13.6C40.2201 19.12 37.7901 23.44 32.0001 25.76Z" fill="#2BDCA6"/>
<path d="M8.25 8.25L0 0H8.11L21.71 13.6H13.29C11.4865 13.6 9.75692 14.3164 8.48167 15.5917C7.20643 16.8669 6.49 18.5965 6.49 20.4C6.49 22.2035 7.20643 23.9331 8.48167 25.2083C9.75692 26.4836 11.4865 27.2 13.29 27.2H16L22.8 34H13.6C9.99306 34 6.53384 32.5671 3.98335 30.0167C1.43285 27.4662 0 24.0069 0 20.4C0 14.88 2.43 10.56 8.25 8.25Z" fill="#2473FF"/>
</g>
<defs>
<clipPath id="clip0_276_766">
<rect width="40.22" height="34" fill="white"/>
</clipPath>
</defs>
</svg>
