<svg width="205" height="205" viewBox="0 0 205 205" fill="none" xmlns="http://www.w3.org/2000/svg">
<circle cx="102.5" cy="102.5" r="102.5" fill="url(#paint0_linear_277_885)"/>
<path d="M132.124 60.64C136.171 63.5533 139.708 67.0567 142.734 71.15C147.421 78.0967 150.274 86.3067 151.294 95.78C152.248 104.667 151.444 113.143 148.884 121.21C146.464 128.823 142.218 135.423 136.144 141.01C130.791 145.517 124.884 148.623 118.424 150.33C114.671 151.317 108.168 151.81 98.9144 151.81C92.1744 151.817 85.4277 151.823 78.6744 151.83L63.0644 151.84C62.9742 151.84 62.8877 151.804 62.824 151.74C62.7602 151.677 62.7244 151.59 62.7244 151.5L62.7344 136.65L62.8244 98.89C62.8311 98.5567 63.0011 98.3867 63.3344 98.38L84.7144 98.29C85.0744 98.25 85.3977 98.2633 85.6844 98.33C86.0444 98.4167 86.2244 98.64 86.2244 99L86.2044 127.26C86.2044 127.342 86.2381 127.421 86.2981 127.479C86.3581 127.537 86.4395 127.57 86.5244 127.57C98.4977 127.563 104.818 127.553 105.484 127.54C115.034 127.39 123.124 118.65 126.054 110.18C130.394 97.6 123.414 83.93 111.564 78.47C109.558 77.5433 106.621 77.1467 102.754 77.28C102.454 77.2867 94.6977 77.28 79.4844 77.26C74.1111 77.2533 69.201 75.21 64.7544 71.13C59.6544 66.4567 55.7411 60.54 53.0144 53.38C53.0016 53.3457 52.9973 53.3088 53.0017 53.2724C53.006 53.2361 53.019 53.2013 53.0396 53.1709C53.0601 53.1406 53.0876 53.1156 53.1198 53.0981C53.1519 53.0805 53.1878 53.0709 53.2244 53.07C84.4711 53.0233 102.391 53 106.984 53C116.131 53 124.511 55.5467 132.124 60.64Z" fill="white"/>
<defs>
<linearGradient id="paint0_linear_277_885" x1="205" y1="6.10948e-06" x2="-6.10948e-06" y2="205" gradientUnits="userSpaceOnUse">
<stop stop-color="#ED2A5B"/>
<stop offset="1" stop-color="#F13D45"/>
</linearGradient>
</defs>
</svg>
