<svg width="64" height="64" viewBox="0 0 64 64" fill="none" xmlns="http://www.w3.org/2000/svg">
<path d="M32.0452 0.000174332C38.2827 0.0419892 44.3682 1.92889 49.5341 5.42293C54.7001 8.91697 58.7153 13.8617 61.0734 19.6335C63.4314 25.4053 64.0268 31.7458 62.7843 37.8553C61.5418 43.9649 58.5171 49.5699 54.0917 53.9636C49.6663 58.3573 44.0384 61.3429 37.9176 62.5438C31.7968 63.7448 25.4572 63.1074 19.6983 60.7121C13.9395 58.3167 9.0192 54.2705 5.55799 49.0839C2.09679 43.8973 0.249652 37.8025 0.249512 31.568C0.277828 23.1677 3.64357 15.1226 9.60637 9.20258C15.5692 3.28251 23.6406 -0.0276765 32.0452 0.000174332Z" fill="#1B63EF"/>
<g clip-path="url(#clip0_148_1542)">
<path d="M26.4754 41.6649L20.9729 44.8491L15.4656 41.673L15.4609 35.3127L20.9635 32.1285L26.4707 35.3046L26.4754 41.6649Z" fill="white"/>
<path d="M49.4277 41.6655L39.7787 47.2491L30.1215 41.6797L30.1133 30.5266L39.7623 24.943L49.4195 30.5124L49.4277 41.6655Z" fill="white"/>
<path d="M24.6875 46.9879L28.305 44.8971L36.0667 49.375L32.4535 51.468L24.6875 46.9879Z" fill="white"/>
<path d="M15.4688 31.0424L19.9351 28.4725C19.9351 28.4725 20.9276 27.8322 21.9201 28.4115C22.991 29.0126 26.4169 31.0206 26.4169 31.0206L26.4144 29.8181C26.4144 29.8181 26.2739 28.4117 27.4924 27.7719C28.7396 27.088 38.6276 21.3291 38.6276 21.3291C38.6276 21.3291 39.7501 20.5512 40.7998 21.2638C41.9664 21.9825 49.4147 26.238 49.4147 26.238L49.4016 22.0434L32.433 12.2692L15.4818 22.0783L15.4688 31.0424Z" fill="white"/>
</g>
<defs>
<clipPath id="clip0_148_1542">
<rect width="39.6614" height="39.6849" fill="white" transform="translate(12.4331 11.9385)"/>
</clipPath>
</defs>
</svg>
