<svg width="46" height="46" viewBox="0 0 46 46" fill="none" xmlns="http://www.w3.org/2000/svg">
<g clip-path="url(#clip0_38_10)">
<path d="M23.0054 45.9351C35.6638 45.9351 45.9255 35.6521 45.9255 22.9675C45.9255 10.2829 35.6638 0 23.0054 0C10.347 0 0.0853271 10.2829 0.0853271 22.9675C0.0853271 35.6521 10.347 45.9351 23.0054 45.9351Z" fill="#B4F9BA"/>
<path d="M17.5392 9.56124L22.7785 6.52935C22.9277 6.4431 23.1128 6.4431 23.262 6.52935L37.0705 14.5182C37.2197 14.6045 37.3115 14.764 37.3129 14.9366L37.3315 20.4311C37.3315 20.6051 37.2397 20.7661 37.0891 20.8523L31.857 23.8799C31.5356 24.0669 31.1325 23.8339 31.1311 23.4616L31.1138 18.5306C31.1138 18.3581 31.0206 18.1985 30.8714 18.1122L17.5392 10.4009C17.2164 10.214 17.2164 9.74819 17.5392 9.56124Z" fill="#010101"/>
<path d="M14.1539 34.4489L8.91604 31.4185C8.7654 31.3323 8.67358 31.1727 8.67358 30.9988V15.021C8.67358 14.8486 8.7654 14.6889 8.91461 14.6012L13.6546 11.8368C13.8053 11.749 13.9904 11.749 14.1396 11.8368L19.3717 14.8644C19.6931 15.0512 19.6945 15.5156 19.3732 15.7039L15.1208 18.1838C14.9717 18.2701 14.8799 18.4296 14.8799 18.6036V34.0307C14.8799 34.4044 14.4767 34.6373 14.1539 34.4505V34.4489Z" fill="#010101"/>
<path d="M37.3361 24.9361V30.9971C37.3361 31.171 37.2443 31.3307 37.0936 31.4169L23.2852 39.4057C23.136 39.492 22.9523 39.492 22.8031 39.4057L18.0444 36.6743C17.8938 36.588 17.8005 36.4269 17.8005 36.253V30.1992C17.8005 29.8269 18.2023 29.594 18.525 29.778L22.7946 32.2291C22.9437 32.3154 23.1274 32.314 23.2765 32.2291L36.6087 24.5149C36.9315 24.328 37.3347 24.5609 37.3347 24.9347L37.3361 24.9361Z" fill="#010101"/>
</g>
<defs>
<clipPath id="clip0_38_10">
<rect width="46" height="46" fill="white"/>
</clipPath>
</defs>
</svg>
