<svg width="242" height="294" viewBox="0 0 242 294" fill="none" xmlns="http://www.w3.org/2000/svg">
<path d="M3.61996 123.494C19.0866 56.5603 67.0866 9.62692 129.487 0.826935C142.287 -1.03973 172.553 0.426941 187.887 3.49362C202.82 6.5603 218.287 12.1603 219.353 15.0936C220.153 17.227 215.62 85.627 214.42 87.3603C214.02 88.027 209.22 87.3603 203.753 85.8936C198.153 84.5603 186.82 83.0936 177.753 82.5603C144.82 81.0936 120.153 91.627 106.153 113.36C83.8866 147.894 96.9533 196.694 130.153 203.627C139.353 205.494 154.287 203.627 162.287 199.627C167.487 196.827 169.087 193.494 169.087 184.694V180.827H160.02C154.953 180.827 144.42 180.427 136.553 179.894L122.153 179.094L123.087 150.96C123.62 135.494 124.42 122.427 124.953 121.894C125.353 121.494 151.487 120.427 183.087 119.494C223.753 118.427 240.687 117.494 241.353 116.427L238.42 255.494L230.153 262.16C212.953 276.027 184.687 287.627 157.353 292.16C146.82 293.894 138.953 294.294 124.02 293.76C102.687 293.094 93.62 291.227 76.9533 284.16C37.8866 267.76 9.21996 230.96 1.61996 187.227C-1.18004 171.227 -0.246711 140.027 3.61996 123.494Z" fill="#337AB7"/>
</svg>
