<?xml version="1.0" encoding="UTF-8" standalone="no"?>
<!DOCTYPE svg PUBLIC "-//W3C//DTD SVG 1.1//EN" "http://www.w3.org/Graphics/SVG/1.1/DTD/svg11.dtd">
<svg xmlns="http://www.w3.org/2000/svg" version="1.1" viewBox="0.00 0.00 512.00 512.00">
<path fill="#000000" d="
  M 133.12 78.62
  Q 133.19 78.62 133.26 78.60
  Q 133.39 78.57 133.40 78.56
  Q 137.43 74.41 138.82 73.31
  C 141.36 71.28 145.27 71.69 147.58 74.00
  C 149.89 76.31 150.30 80.22 148.27 82.76
  Q 147.17 84.15 143.02 88.18
  Q 143.01 88.19 142.98 88.32
  Q 142.96 88.39 142.96 88.46
  Q 142.96 88.52 142.98 88.59
  Q 143.01 88.72 143.02 88.73
  Q 147.17 92.76 148.27 94.15
  C 150.30 96.69 149.89 100.60 147.57 102.91
  C 145.26 105.23 141.35 105.64 138.81 103.61
  Q 137.42 102.51 133.39 98.36
  Q 133.38 98.35 133.25 98.32
  Q 133.18 98.30 133.12 98.30
  Q 133.05 98.30 132.98 98.32
  Q 132.85 98.35 132.84 98.36
  Q 128.81 102.51 127.42 103.61
  C 124.88 105.64 120.97 105.23 118.66 102.91
  C 116.35 100.60 115.94 96.69 117.97 94.15
  Q 119.07 92.76 123.22 88.73
  Q 123.23 88.72 123.26 88.59
  Q 123.28 88.52 123.28 88.46
  Q 123.28 88.39 123.26 88.32
  Q 123.23 88.19 123.22 88.18
  Q 119.07 84.15 117.97 82.76
  C 115.94 80.22 116.35 76.31 118.67 74.00
  C 120.98 71.68 124.89 71.28 127.43 73.31
  Q 128.82 74.41 132.85 78.56
  Q 132.86 78.57 132.99 78.60
  Q 133.06 78.62 133.12 78.62
  Z"
/>
<path fill="#000000" d="
  M 296.94 98.69
  A 20.46 20.46 0.0 0 1 276.48 119.15
  A 20.46 20.46 0.0 0 1 256.02 98.69
  A 20.46 20.46 0.0 0 1 276.48 78.23
  A 20.46 20.46 0.0 0 1 296.94 98.69
  Z
  M 283.28 98.70
  A 6.80 6.80 0.0 0 0 276.48 91.90
  A 6.80 6.80 0.0 0 0 269.68 98.70
  A 6.80 6.80 0.0 0 0 276.48 105.50
  A 6.80 6.80 0.0 0 0 283.28 98.70
  Z"
/>
<circle fill="#000000" cx="379.44" cy="92.53" r="7.27"/>
<circle fill="#000000" cx="188.29" cy="126.68" r="7.27"/>
<path fill="#000000" d="
  M 453.96 424.35
  A 15.64 15.64 0.0 0 1 438.32 439.99
  L 73.68 439.99
  A 15.64 15.64 0.0 0 1 58.04 424.35
  L 58.04 168.97
  A 15.64 15.64 0.0 0 1 73.68 153.33
  L 438.32 153.33
  A 15.64 15.64 0.0 0 1 453.96 168.97
  L 453.96 424.35
  Z
  M 440.33 169.12
  A 2.19 2.19 0.0 0 0 438.14 166.93
  L 73.86 166.93
  A 2.19 2.19 0.0 0 0 71.67 169.12
  L 71.67 424.22
  A 2.19 2.19 0.0 0 0 73.86 426.41
  L 438.14 426.41
  A 2.19 2.19 0.0 0 0 440.33 424.22
  L 440.33 169.12
  Z"
/>
<circle fill="#000000" cx="92.15" cy="180.61" r="6.80"/>
<circle fill="#000000" cx="112.63" cy="180.61" r="6.80"/>
<circle fill="#000000" cx="133.12" cy="180.61" r="6.80"/>
<path fill="#000000" d="
  M 180.91 255.71
  Q 184.20 255.71 187.42 255.67
  A 0.30 0.30 0.0 0 0 187.72 255.37
  Q 187.74 246.86 187.70 245.13
  Q 187.60 240.37 188.63 238.68
  C 191.40 234.14 197.67 234.06 200.48 238.65
  Q 201.36 240.08 201.39 244.13
  Q 201.39 245.04 201.39 262.52
  Q 201.39 280.00 201.39 280.91
  Q 201.36 284.96 200.48 286.39
  C 197.67 290.98 191.40 290.90 188.63 286.36
  Q 187.60 284.67 187.70 279.91
  Q 187.74 278.18 187.72 269.67
  A 0.30 0.30 0.0 0 0 187.42 269.37
  Q 184.20 269.33 180.91 269.33
  Q 177.62 269.33 174.40 269.37
  A 0.30 0.30 0.0 0 0 174.10 269.67
  Q 174.08 278.18 174.12 279.91
  Q 174.22 284.67 173.19 286.36
  C 170.42 290.90 164.15 290.98 161.34 286.39
  Q 160.46 284.96 160.43 280.91
  Q 160.43 280.00 160.43 262.52
  Q 160.43 245.04 160.43 244.13
  Q 160.46 240.08 161.34 238.65
  C 164.15 234.06 170.42 234.14 173.19 238.68
  Q 174.22 240.37 174.12 245.13
  Q 174.08 246.86 174.10 255.37
  A 0.30 0.30 0.0 0 0 174.40 255.67
  Q 177.62 255.71 180.91 255.71
  Z"
/>
<path fill="#000000" d="
  M 242.32 262.53
  C 242.32 267.06 238.55 269.57 234.24 269.37
  Q 231.35 269.23 222.25 269.35
  Q 221.85 269.36 221.85 269.74
  L 221.87 275.77
  Q 221.87 276.22 222.30 276.21
  Q 224.08 276.20 233.93 276.16
  Q 237.68 276.15 239.32 277.35
  C 245.08 281.59 242.04 289.83 235.02 289.85
  Q 229.40 289.87 218.36 289.89
  Q 213.46 289.90 211.83 289.03
  Q 208.28 287.15 208.21 282.48
  Q 208.20 282.19 208.20 262.53
  Q 208.20 242.87 208.21 242.58
  Q 208.28 237.91 211.83 236.03
  Q 213.46 235.16 218.36 235.16
  Q 229.40 235.18 235.02 235.20
  C 242.04 235.22 245.08 243.46 239.32 247.70
  Q 237.68 248.90 233.93 248.89
  Q 224.08 248.85 222.30 248.84
  Q 221.87 248.83 221.87 249.28
  L 221.85 255.31
  Q 221.85 255.69 222.25 255.70
  Q 231.35 255.82 234.24 255.68
  C 238.55 255.48 242.32 257.99 242.32 262.53
  Z"
/>
<path fill="#000000" d="
  M 263.40 276.19
  Q 270.18 276.28 274.21 276.14
  Q 278.48 275.98 280.48 277.51
  C 284.55 280.63 284.11 286.95 279.38 289.16
  Q 277.80 289.89 273.95 289.89
  Q 265.20 289.87 256.51 289.85
  Q 252.21 289.83 250.17 286.54
  Q 249.06 284.75 249.13 280.26
  Q 249.21 275.27 249.15 244.89
  Q 249.14 240.29 249.99 238.79
  C 253.70 232.33 262.88 235.20 262.86 242.75
  Q 262.79 265.50 262.86 275.63
  Q 262.86 276.18 263.40 276.19
  Z"
/>
<path fill="#000000" d="
  M 304.35 276.18
  Q 311.48 276.29 314.88 276.14
  Q 319.33 275.96 321.34 277.43
  C 325.48 280.48 325.13 286.97 320.33 289.16
  Q 318.85 289.84 315.00 289.86
  Q 303.47 289.90 299.71 289.89
  Q 295.30 289.88 293.52 288.94
  Q 290.14 287.14 290.14 282.76
  Q 290.16 262.48 290.12 243.98
  Q 290.11 240.22 291.02 238.70
  C 294.79 232.41 303.80 235.26 303.80 242.51
  Q 303.79 264.45 303.80 275.63
  Q 303.80 276.17 304.35 276.18
  Z"
/>
<path fill="#000000" d="
  M 365.21 273.78
  A 16.07 16.07 0.0 0 1 349.14 289.85
  L 340.34 289.85
  A 16.07 16.07 0.0 0 1 324.27 273.78
  L 324.27 251.26
  A 16.07 16.07 0.0 0 1 340.34 235.19
  L 349.14 235.19
  A 16.07 16.07 0.0 0 1 365.21 251.26
  L 365.21 273.78
  Z
  M 351.58 251.28
  A 2.41 2.41 0.0 0 0 349.17 248.87
  L 340.33 248.87
  A 2.41 2.41 0.0 0 0 337.92 251.28
  L 337.92 273.78
  A 2.41 2.41 0.0 0 0 340.33 276.19
  L 349.17 276.19
  A 2.41 2.41 0.0 0 0 351.58 273.78
  L 351.58 251.28
  Z"
/>
<path fill="#000000" d="
  M 167.25 324.19
  Q 171.21 324.19 173.67 328.02
  Q 174.08 328.66 174.08 327.90
  Q 174.13 320.18 174.03 312.95
  Q 173.96 308.32 175.33 306.35
  C 178.21 302.18 184.61 302.66 187.11 307.48
  Q 187.78 308.74 187.73 312.36
  Q 187.68 315.48 187.75 350.75
  C 187.76 356.24 182.69 359.78 177.64 357.25
  Q 176.06 356.46 174.16 353.50
  Q 170.94 348.53 167.46 343.46
  Q 167.40 343.38 167.31 343.37
  Q 167.26 343.36 167.25 343.36
  Q 167.25 343.36 167.20 343.37
  Q 167.11 343.38 167.05 343.46
  Q 163.57 348.53 160.35 353.50
  Q 158.45 356.46 156.87 357.25
  C 151.82 359.78 146.75 356.24 146.76 350.75
  Q 146.82 315.48 146.77 312.36
  Q 146.72 308.74 147.39 307.48
  C 149.89 302.66 156.29 302.18 159.17 306.35
  Q 160.54 308.32 160.47 312.95
  Q 160.37 320.18 160.42 327.90
  Q 160.43 328.66 160.83 328.02
  Q 163.29 324.19 167.25 324.19
  Z"
/>
<path fill="#000000" d="
  M 235.4806 342.1315
  A 16.09 16.09 0.0 0 1 219.3346 358.1652
  L 210.5346 358.1345
  A 16.09 16.09 0.0 0 1 194.5009 341.9884
  L 194.5794 319.5085
  A 16.09 16.09 0.0 0 1 210.7254 303.4748
  L 219.5254 303.5055
  A 16.09 16.09 0.0 0 1 235.5591 319.6516
  L 235.4806 342.1315
  Z
  M 221.8896 319.5519
  A 2.40 2.40 0.0 0 0 219.4938 317.1478
  L 210.6338 317.1323
  A 2.40 2.40 0.0 0 0 208.2296 319.5281
  L 208.1904 342.0281
  A 2.40 2.40 0.0 0 0 210.5862 344.4322
  L 219.4462 344.4477
  A 2.40 2.40 0.0 0 0 221.8504 342.0519
  L 221.8896 319.5519
  Z"
/>
<path fill="#000000" d="
  M 256.59 344.13
  A 0.33 0.33 0.0 0 0 256.05 344.38
  C 255.97 348.01 256.49 352.10 255.20 354.39
  C 252.48 359.18 246.31 359.35 243.28 354.70
  Q 242.26 353.14 242.35 349.15
  Q 242.36 348.49 242.35 310.76
  Q 242.35 306.32 246.04 304.30
  Q 247.74 303.37 252.63 303.45
  Q 254.84 303.49 269.52 303.46
  Q 279.59 303.45 282.91 313.60
  Q 283.44 315.23 283.32 322.40
  Q 283.22 328.11 281.59 330.87
  Q 278.15 336.72 271.08 337.56
  Q 270.39 337.64 270.93 338.08
  Q 275.89 342.11 278.13 343.84
  Q 281.75 346.62 282.46 348.03
  C 285.79 354.62 278.08 361.17 272.22 356.58
  Q 264.41 350.46 256.59 344.13
  Z
  M 269.8710 317.1953
  A 0.43 0.43 0.0 0 0 269.4358 316.7706
  L 256.3967 316.9299
  A 0.43 0.43 0.0 0 0 255.9720 317.3651
  L 256.0490 323.6647
  A 0.43 0.43 0.0 0 0 256.4842 324.0894
  L 269.5233 323.9301
  A 0.43 0.43 0.0 0 0 269.9480 323.4949
  L 269.8710 317.1953
  Z"
/>
<path fill="#000000" d="
  M 304.42 344.43
  Q 308.48 344.54 314.49 344.43
  Q 318.84 344.34 320.42 345.16
  C 324.56 347.32 325.54 352.73 322.32 356.02
  Q 320.29 358.11 316.49 358.13
  Q 305.26 358.18 299.46 358.15
  C 295.38 358.14 292.34 357.69 290.75 354.03
  Q 290.14 352.64 290.14 349.89
  Q 290.14 349.07 290.13 312.64
  Q 290.13 308.78 290.77 307.45
  C 294.08 300.65 303.82 303.23 303.80 310.75
  Q 303.74 335.27 303.85 343.86
  Q 303.86 344.41 304.42 344.43
  Z"
/>
<path fill="#000000" d="
  M 331.11 310.50
  A 7.13 7.13 0.0 0 1 338.25 303.39
  L 355.75 303.42
  A 16.60 16.43 -89.9 0 1 372.15 320.05
  L 372.11 341.63
  A 16.60 16.43 -89.9 0 1 355.65 358.20
  L 338.15 358.17
  A 7.13 7.13 0.0 0 1 331.03 351.02
  L 331.11 310.50
  Z
  M 344.74 330.79
  Q 344.74 342.44 344.84 343.88
  Q 344.88 344.49 345.45 344.48
  L 356.35 344.41
  A 2.01 1.94 -0.0 0 0 358.34 342.49
  Q 358.40 336.72 358.40 330.79
  Q 358.40 324.87 358.34 319.10
  A 2.01 1.94 -0.0 0 0 356.35 317.18
  L 345.45 317.11
  Q 344.88 317.10 344.84 317.71
  Q 344.74 319.15 344.74 330.79
  Z"
/>
<circle fill="#000000" cx="236.07" cy="392.92" r="7.27"/>
<circle fill="#000000" cx="256.56" cy="392.91" r="7.27"/>
<circle fill="#000000" cx="277.04" cy="392.91" r="7.27"/>
</svg>
