<svg width="16" height="10" viewBox="0 0 16 10" fill="none" xmlns="http://www.w3.org/2000/svg">
<path d="M14.9594 0.76811C14.723 0.581746 14.4412 0.3272 13.9275 0.263564C13.4457 0.199927 12.9548 0.522655 12.623 0.736291C12.2912 0.949928 11.6639 1.5772 11.4048 1.76811C11.1457 1.95902 10.4821 2.13629 9.41391 2.7772C8.34573 3.41811 4.15482 6.10902 4.15482 6.10902L5.24573 6.12266L0.382093 8.62721H0.868457L0.168457 9.15903C0.168457 9.15903 0.786639 9.32266 1.30482 8.99539V9.14539C1.30482 9.14539 7.09573 6.86357 8.21391 7.45448L7.53209 7.65448C7.59119 7.65448 8.69119 7.72721 8.69119 7.72721C8.71788 7.95499 8.79445 8.1741 8.91544 8.36893C9.03642 8.56377 9.19886 8.72955 9.39119 8.85448C10.0548 9.29085 10.0685 9.53176 10.0685 9.53176C10.0685 9.53176 9.723 9.67267 9.723 9.84994C9.723 9.84994 10.2321 9.69539 10.7048 9.70903C11.0048 9.72041 11.3024 9.76772 11.5912 9.84994C11.5912 9.84994 11.5548 9.65903 11.0957 9.53176C10.6366 9.40448 10.1821 8.90448 9.95937 8.63175C9.82294 8.45816 9.73403 8.25205 9.70135 8.03369C9.66868 7.81533 9.69337 7.59223 9.773 7.3863C9.9321 6.97266 10.4866 6.74539 11.6321 6.15448C12.9821 5.45448 13.2912 4.9363 13.4821 4.53175C13.673 4.1272 13.9548 3.32266 14.1139 2.94539C14.3139 2.45902 14.5594 2.19993 14.7639 2.04538C14.9685 1.89084 15.8775 1.54993 15.8775 1.54993C15.8775 1.54993 15.1821 0.945383 14.9594 0.76811Z" fill="black"/>
</svg>
