<svg width="83" height="71" viewBox="0 0 83 71" fill="none" xmlns="http://www.w3.org/2000/svg">
<path d="M35.7783 70.7578C55.3175 70.7578 71.1572 54.9181 71.1572 35.3789C71.1572 15.8397 55.3175 0 35.7783 0C16.2391 0 0.399414 15.8397 0.399414 35.3789C0.399414 54.9181 16.2391 70.7578 35.7783 70.7578Z" fill="#2EB6EA"/>
<path d="M35.5859 70.7577C0.399136 70.7577 -13.4879 24.4676 17.5924 4.95959C13.8962 43.6486 33.5585 44.5044 51.8044 43.6486C82.3782 42.2146 82.3987 70.7577 82.3987 70.7577H35.5859Z" fill="#1542CD"/>
<path fill-rule="evenodd" clip-rule="evenodd" d="M69.22 46.9525C63.8972 60.5946 50.808 70.3498 35.3867 70.7841C35.7492 70.7941 36.114 70.7992 36.4811 70.7992H83C83 70.7992 82.988 54.0696 69.22 46.9525Z" fill="#745DDF"/>
</svg>
