<svg width="600" height="560" viewBox="0 0 600 560" fill="none" xmlns="http://www.w3.org/2000/svg">
<path d="M359.907 79.7902L359.9 279.46L439.98 399.86L439.96 519.41L80.1502 519.33V360.55L79.943 320.117L40.1802 320L0.20043 80.1502L359.907 79.7902ZM40.1002 199.91L79.5402 199.86C79.8802 199.86 80.0502 199.69 80.0502 199.35L80.4002 160.04L119.29 160.05C119.407 160.05 119.523 160.027 119.631 159.982C119.739 159.938 119.837 159.872 119.92 159.79C120.002 159.707 120.068 159.609 120.112 159.501C120.157 159.393 120.18 159.277 120.18 159.16L120.07 120.04C133.424 119.974 146.68 119.994 159.84 120.1C159.934 120.1 160.017 120.12 160.09 120.16C160.37 120.314 160.374 120.417 160.1 120.47L160.08 160.21V239.34C160.083 239.532 160.16 239.715 160.295 239.85C160.429 239.985 160.611 240.06 160.8 240.06L200.06 239.97L200.03 279.38C200.03 279.542 200.096 279.697 200.212 279.812C200.328 279.926 200.486 279.99 200.65 279.99L239.95 279.98L320.01 279.94L319.92 319.33C319.92 319.416 319.903 319.5 319.871 319.579C319.838 319.658 319.79 319.729 319.73 319.79C319.669 319.85 319.598 319.898 319.519 319.931C319.44 319.963 319.356 319.98 319.27 319.98L280.5 320.01C280.368 320.01 280.24 320.062 280.147 320.154C280.053 320.246 280 320.37 280 320.5L280.01 359.21C280.01 359.69 280.247 359.93 280.72 359.93L320.07 359.92L399.95 359.9L399.94 399.12C399.94 399.654 400.207 399.92 400.74 399.92L439.98 399.86L439.96 519.41C439.96 519.543 439.906 519.67 439.811 519.764C439.715 519.858 439.585 519.91 439.45 519.91L400.55 519.92C400.47 519.92 400.391 519.904 400.317 519.873C400.243 519.842 400.175 519.796 400.119 519.739C400.062 519.681 400.017 519.613 399.987 519.537C399.956 519.462 399.94 519.382 399.94 519.3L399.95 440.33C399.95 440.237 399.912 440.148 399.845 440.083C399.777 440.017 399.686 439.98 399.59 439.98H360.26C360.194 439.98 360.13 440.008 360.083 440.056C360.037 440.105 360.01 440.171 360.01 440.24L359.98 479.23C359.98 479.71 359.744 479.95 359.27 479.95L280.76 479.96C280.559 479.96 280.365 479.879 280.223 479.735C280.08 479.59 280 479.394 280 479.19L280.01 440.75C280.01 440.549 279.93 440.355 279.788 440.213C279.645 440.07 279.452 439.99 279.25 439.99L240.51 439.98C240.375 439.98 240.245 440.034 240.15 440.13C240.054 440.225 240 440.355 240 440.49V519.33C240 519.487 239.939 519.637 239.83 519.747C239.722 519.858 239.574 519.92 239.42 519.92L200.64 519.91C200.47 519.91 200.308 519.843 200.188 519.723C200.068 519.603 200 519.44 200 519.27L200.01 440.75C200.01 440.244 199.757 439.99 199.25 439.99H160.3C160.242 439.99 160.186 440.013 160.145 440.055C160.103 440.096 160.08 440.152 160.08 440.21L160.09 519.29C160.09 519.457 160.024 519.618 159.906 519.736C159.788 519.854 159.627 519.92 159.46 519.92L120.49 519.91C120.374 519.91 120.262 519.865 120.179 519.784C120.097 519.704 120.05 519.594 120.05 519.48V360.53C120.05 360.392 119.994 360.26 119.895 360.162C119.796 360.065 119.661 360.01 119.52 360.01L80.7002 359.99C80.3335 359.99 80.1502 360.177 80.1502 360.55V559.49C80.1502 559.578 80.185 559.662 80.2468 559.724C80.3087 559.785 80.3927 559.82 80.4802 559.82H279.37C279.83 559.82 280.06 559.59 280.06 559.13L280.05 520.2C280.05 520.099 280.09 520.003 280.161 519.931C280.233 519.86 280.329 519.82 280.43 519.82L319.5 519.81C319.558 519.81 319.615 519.822 319.669 519.844C319.722 519.866 319.77 519.898 319.811 519.939C319.852 519.98 319.885 520.028 319.907 520.082C319.929 520.135 319.94 520.192 319.94 520.25L319.92 559.24C319.92 559.394 319.98 559.542 320.087 559.65C320.194 559.759 320.339 559.82 320.49 559.82H479.47C479.523 559.82 479.575 559.81 479.623 559.79C479.672 559.77 479.716 559.74 479.753 559.703C479.79 559.666 479.82 559.622 479.84 559.573C479.86 559.525 479.87 559.473 479.87 559.42L479.86 400.52C479.86 400.441 479.876 400.363 479.907 400.291C479.937 400.218 479.982 400.152 480.039 400.096C480.095 400.04 480.163 399.996 480.237 399.966C480.311 399.936 480.39 399.92 480.47 399.92L519.32 399.95C519.458 399.95 519.59 399.895 519.688 399.798C519.785 399.7 519.84 399.568 519.84 399.43L519.85 360.81C519.85 360.587 519.939 360.374 520.096 360.216C520.254 360.059 520.467 359.97 520.69 359.97L559.52 360.02C559.597 360.02 559.671 359.99 559.725 359.935C559.78 359.881 559.81 359.807 559.81 359.73V320.43C559.81 320.292 559.864 320.16 559.96 320.062C560.055 319.965 560.185 319.91 560.32 319.91L599.44 319.93C599.488 319.932 599.536 319.923 599.581 319.905C599.626 319.887 599.667 319.86 599.701 319.825C599.736 319.791 599.763 319.75 599.782 319.704C599.801 319.659 599.81 319.61 599.81 319.56V240.43C599.81 240.332 599.771 240.238 599.702 240.169C599.632 240.099 599.538 240.06 599.44 240.06H560.43C560.268 240.06 560.113 239.996 559.999 239.882C559.884 239.767 559.82 239.612 559.82 239.45L559.8 200.4C559.8 200.297 559.759 200.198 559.686 200.124C559.613 200.051 559.514 200.01 559.41 200.01L480.42 199.98C480.02 199.98 479.82 200.18 479.82 200.58V239.38C479.82 239.563 479.746 239.739 479.615 239.868C479.484 239.997 479.306 240.07 479.12 240.07L440.14 240.05C440.061 240.05 439.984 240.081 439.928 240.135C439.872 240.19 439.84 240.263 439.84 240.34V319.43C439.84 319.565 439.786 319.695 439.691 319.791C439.595 319.886 439.465 319.94 439.33 319.94H400.58C400.18 319.94 399.98 319.737 399.98 319.33L399.94 280.72C399.94 280.532 399.865 280.351 399.732 280.218C399.599 280.085 399.418 280.01 399.23 280.01L360.46 280.02C360.312 280.02 360.169 279.961 360.064 279.856C359.959 279.751 359.9 279.609 359.9 279.46L359.91 0.540176C359.91 0.444698 359.872 0.35313 359.805 0.285617C359.737 0.218104 360.003 79.7902 359.907 79.7902L240.5 0.180176C240.352 0.180176 240.209 0.239176 240.104 0.344196C239.999 0.449216 239.94 0.591655 239.94 0.740176L239.95 39.2702C239.95 39.5089 239.855 39.7378 239.687 39.9066C239.518 40.0754 239.289 40.1702 239.05 40.1702H200.54C200.394 40.1702 200.254 40.2281 200.151 40.3313C200.048 40.4344 199.99 40.5743 199.99 40.7202L199.97 79.5802C199.97 79.9602 199.78 80.1502 199.4 80.1502L120.53 80.1402C120.437 80.1402 120.348 80.1033 120.283 80.0377C120.217 79.972 120.18 79.883 120.18 79.7902V40.5602C120.18 40.4567 120.139 40.3575 120.066 40.2844C119.993 40.2113 119.894 40.1702 119.79 40.1702H80.9102C80.4435 40.1702 80.2102 39.9368 80.2102 39.4702L80.2002 0.560176C80.2002 0.510273 80.1904 0.46086 80.1713 0.414756C80.1522 0.368652 80.1242 0.326761 80.0889 0.291475C80.0536 0.256189 80.0117 0.228198 79.9656 0.209102C79.9195 0.190005 79.8701 0.180176 79.8202 0.180176H0.510195C0.425325 0.180176 0.343932 0.212836 0.28392 0.270973C0.223909 0.329109 0.20043 80.068 0.20043 80.1502L0.200195 319.44C0.200195 319.567 0.250767 319.69 0.340784 319.78C0.430802 319.87 0.552891 319.92 0.680195 319.92L39.5702 319.93C39.9035 319.93 40.0702 319.757 40.0702 319.41L40.0852 259.66L40.1002 199.91ZM120 280.05L120.09 319.16C120.09 319.388 120.18 319.607 120.339 319.768C120.499 319.93 120.715 320.02 120.94 320.02L159.55 319.99C159.715 319.99 159.872 319.924 159.989 319.806C160.105 319.688 160.17 319.527 160.17 319.36L160.18 280.8C160.18 280.574 160.091 280.357 159.932 280.196C159.773 280.035 159.557 279.943 159.33 279.94L120.1 279.66L120.09 200.68C120.09 200.604 120.075 200.529 120.047 200.458C120.018 200.388 119.976 200.324 119.923 200.27C119.87 200.216 119.807 200.173 119.738 200.144C119.669 200.115 119.595 200.1 119.52 200.1H80.5302C80.2635 200.1 80.1302 200.237 80.1302 200.51V279.52C80.1302 279.658 80.1839 279.79 80.2796 279.888C80.3752 279.985 80.5049 280.04 80.6402 280.04L120 280.05ZM80.0602 320.4C80.0602 320.294 80.018 320.192 79.943 320.117C79.868 320.042 79.7663 320 79.6602 320H40.5802C40.4741 320 40.3724 320.042 40.2973 320.117C40.2223 320.192 40.1802 319.894 40.1802 320V359.48C40.1802 359.586 40.2223 359.688 40.2973 359.763C40.3724 359.838 40.4741 359.88 40.5802 359.88H79.6602C79.7663 359.88 79.868 359.838 79.943 359.763C80.018 359.688 80.0602 359.586 80.0602 359.48V320.4Z" fill="white"/>
<path d="M439.98 399.86L439.97 360.54C439.97 360.2 440.137 360.03 440.47 360.03L518.93 360C519.604 360 519.94 359.664 519.94 358.99L519.92 280.57C519.92 280.23 520.09 280.06 520.43 280.06L559.3 280.07C559.465 280.07 559.623 280.005 559.739 279.889C559.855 279.772 559.92 279.615 559.92 279.45L559.89 240.43C559.89 240.124 559.737 239.97 559.43 239.97L481.37 239.99C480.437 239.99 479.97 240.457 479.97 241.39L479.84 319.27C479.84 319.448 479.77 319.618 479.644 319.744C479.519 319.87 479.348 319.94 479.17 319.94L441.02 319.97C440.75 319.97 440.49 320.077 440.299 320.266C440.108 320.455 440 320.712 440 320.98L439.93 359.29C439.93 359.657 439.747 359.84 439.38 359.84L399.95 359.9L399.94 320.7C399.94 320.501 399.861 320.311 399.721 320.17C399.58 320.029 399.389 319.95 399.19 319.95L320.98 319.96C320.846 319.96 320.714 319.987 320.59 320.039C320.466 320.09 320.354 320.166 320.259 320.262C320.164 320.358 320.089 320.471 320.038 320.596C319.987 320.721 319.96 320.855 319.96 320.99L320.07 359.92L280.72 359.93C280.247 359.93 280.01 359.69 280.01 359.21L280 320.5C280 320.37 280.053 320.246 280.147 320.154C280.241 320.062 280.368 320.01 280.5 320.01L319.27 319.98C319.356 319.98 319.44 319.963 319.519 319.931C319.598 319.898 319.67 319.85 319.73 319.79C319.79 319.729 319.838 319.658 319.871 319.579C319.904 319.5 319.92 319.416 319.92 319.33L320.01 279.94L320.02 120.07L319.95 40.6102C319.95 40.2702 319.784 40.1002 319.45 40.1002L240.54 40.1202C240.214 40.1202 240.05 40.2835 240.05 40.6102L240.02 80.2102L200.62 80.1102C200.234 80.1102 200.04 80.3002 200.04 80.6802L200.06 119.55C200.06 119.692 200.005 119.828 199.906 119.929C199.807 120.03 199.672 120.088 199.53 120.09L160.1 120.47C160.374 120.417 160.37 120.314 160.09 120.16C160.017 120.12 159.934 120.1 159.84 120.1C146.68 119.994 133.424 119.974 120.07 120.04L120.18 80.9902C120.18 80.3835 119.877 80.0802 119.27 80.0802L80.0904 80.0902L80.1604 40.7702C80.1604 40.5978 80.093 40.4325 79.973 40.3106C79.853 40.1887 79.6902 40.1202 79.5204 40.1202L40.4904 40.1302C40.441 40.1302 40.392 40.1399 40.3465 40.1586C40.3009 40.1773 40.2597 40.2047 40.2252 40.2392C40.1907 40.2737 40.1637 40.3146 40.1457 40.3594C40.1277 40.4042 40.1191 40.4521 40.1204 40.5002L40.3504 120.14L40.1004 199.91L40.0704 319.41C40.0704 319.757 39.9038 319.93 39.5704 319.93L0.680429 319.92C0.553126 319.92 0.431036 319.87 0.341019 319.78C0.251001 319.69 0.20043 319.567 0.20043 319.44L0.19043 0.490176C0.19043 0.407959 0.224143 0.329109 0.284155 0.270973C0.344167 0.212836 0.42556 0.180176 0.510429 0.180176H79.8204C79.8703 0.180176 79.9197 0.190005 79.9658 0.209102C80.0119 0.228198 80.0538 0.256189 80.0891 0.291475C80.1244 0.326761 80.1524 0.368652 80.1715 0.414756C80.1906 0.46086 80.2004 0.510273 80.2004 0.560176L80.2104 39.4702C80.2104 39.9368 80.4438 40.1702 80.9104 40.1702H119.79C119.894 40.1702 119.993 40.2113 120.066 40.2844C120.139 40.3575 120.18 40.4567 120.18 40.5602V79.7902C120.18 79.883 120.217 79.972 120.283 80.0377C120.349 80.1033 120.438 80.1402 120.53 80.1402L199.4 80.1502C199.78 80.1502 199.97 79.9602 199.97 79.5802L199.99 40.7202C199.99 40.5743 200.048 40.4344 200.152 40.3313C200.255 40.2281 200.395 40.1702 200.54 40.1702H239.05C239.289 40.1702 239.518 40.0754 239.687 39.9066C239.856 39.7378 239.95 39.5089 239.95 39.2702L239.94 0.740176C239.94 0.591655 239.999 0.449216 240.104 0.344196C240.209 0.239176 240.352 0.180176 240.5 0.180176H359.55C359.646 0.180176 359.737 0.218104 359.805 0.285617C359.873 0.35313 359.91 0.444698 359.91 0.540176L359.9 279.46C359.9 279.609 359.959 279.751 360.064 279.856C360.169 279.961 360.312 280.02 360.46 280.02L399.23 280.01C399.419 280.01 399.599 280.085 399.732 280.218C399.866 280.351 399.94 280.532 399.94 280.72L399.98 319.33C399.98 319.737 400.18 319.94 400.58 319.94H439.33C439.466 319.94 439.595 319.886 439.691 319.791C439.787 319.695 439.84 319.565 439.84 319.43V240.34C439.84 240.263 439.872 240.19 439.928 240.135C439.985 240.081 440.061 240.05 440.14 240.05L479.12 240.07C479.306 240.07 479.484 239.997 479.615 239.868C479.747 239.739 479.82 239.563 479.82 239.38V200.58C479.82 200.18 480.02 199.98 480.42 199.98L559.41 200.01C559.514 200.01 559.613 200.051 559.686 200.124C559.759 200.198 559.8 200.297 559.8 200.4L559.82 239.45C559.82 239.612 559.885 239.767 559.999 239.882C560.113 239.996 560.269 240.06 560.43 240.06H599.44C599.539 240.06 599.633 240.099 599.702 240.169C599.771 240.238 599.81 240.332 599.81 240.43V319.56C599.81 319.61 599.801 319.659 599.782 319.704C599.763 319.75 599.736 319.791 599.701 319.825C599.667 319.86 599.626 319.887 599.581 319.905C599.536 319.923 599.489 319.932 599.44 319.93L560.32 319.91C560.185 319.91 560.055 319.965 559.96 320.062C559.864 320.16 559.81 320.292 559.81 320.43V359.73C559.81 359.807 559.78 359.881 559.725 359.935C559.671 359.99 559.597 360.02 559.52 360.02L520.69 359.97C520.468 359.97 520.254 360.059 520.096 360.216C519.939 360.374 519.85 360.587 519.85 360.81L519.84 399.43C519.84 399.568 519.786 399.7 519.688 399.798C519.591 399.895 519.458 399.95 519.32 399.95L480.47 399.92C480.39 399.92 480.311 399.936 480.237 399.966C480.163 399.996 480.096 400.04 480.039 400.096C479.982 400.152 479.938 400.218 479.907 400.291C479.876 400.363 479.86 400.441 479.86 400.52L479.87 559.42C479.87 559.473 479.86 559.525 479.84 559.573C479.82 559.622 479.79 559.666 479.753 559.703C479.716 559.74 479.672 559.77 479.624 559.79C479.575 559.81 479.523 559.82 479.47 559.82H320.49C320.339 559.82 320.194 559.759 320.087 559.65C319.98 559.542 319.92 559.394 319.92 559.24L319.94 520.25C319.94 520.192 319.929 520.135 319.907 520.082C319.885 520.028 319.852 519.98 319.812 519.939C319.771 519.898 319.722 519.866 319.669 519.844C319.615 519.822 319.558 519.81 319.5 519.81L280.43 519.82C280.33 519.82 280.233 519.86 280.162 519.931C280.09 520.003 280.05 520.099 280.05 520.2L280.06 559.13C280.06 559.59 279.83 559.82 279.37 559.82H80.4804C80.3929 559.82 80.309 559.785 80.2471 559.724C80.1852 559.662 80.1504 559.578 80.1504 559.49V360.55C80.1504 360.177 80.3338 359.99 80.7004 359.99L119.52 360.01C119.661 360.01 119.796 360.065 119.895 360.162C119.995 360.26 120.05 360.392 120.05 360.53V519.48C120.05 519.594 120.097 519.704 120.179 519.784C120.262 519.865 120.374 519.91 120.49 519.91L159.46 519.92C159.628 519.92 159.788 519.854 159.906 519.736C160.024 519.618 160.09 519.457 160.09 519.29L160.08 440.21C160.08 440.152 160.104 440.096 160.145 440.055C160.186 440.013 160.242 439.99 160.3 439.99H199.25C199.757 439.99 200.01 440.244 200.01 440.75L200 519.27C200 519.44 200.068 519.603 200.188 519.723C200.308 519.843 200.471 519.91 200.64 519.91L239.42 519.92C239.574 519.92 239.722 519.858 239.831 519.747C239.939 519.637 240 519.487 240 519.33V440.49C240 440.355 240.054 440.225 240.15 440.13C240.245 440.034 240.375 439.98 240.51 439.98L279.25 439.99C279.452 439.99 279.645 440.07 279.788 440.213C279.93 440.355 280.01 440.549 280.01 440.75L280 479.19C280 479.394 280.08 479.59 280.223 479.735C280.366 479.879 280.559 479.96 280.76 479.96L359.27 479.95C359.744 479.95 359.98 479.71 359.98 479.23L360.01 440.24C360.01 440.171 360.037 440.105 360.084 440.056C360.131 440.008 360.194 439.98 360.26 439.98H399.59C399.686 439.98 399.777 440.017 399.845 440.083C399.912 440.148 399.95 440.237 399.95 440.33L399.94 519.3C399.94 519.382 399.956 519.462 399.987 519.537C400.018 519.613 400.062 519.681 400.119 519.739C400.176 519.796 400.243 519.842 400.317 519.873C400.391 519.904 400.47 519.92 400.55 519.92L439.45 519.91C439.586 519.91 439.715 519.858 439.811 519.764C439.907 519.67 439.96 519.543 439.96 519.41L439.98 399.86Z" fill="black"/>
<path d="M80.0902 80.0901L80.1203 120.14H40.3503L40.1203 40.5001C40.1189 40.452 40.1275 40.4042 40.1455 40.3593C40.1635 40.3145 40.1905 40.2737 40.225 40.2392C40.2595 40.2047 40.3008 40.1773 40.3463 40.1585C40.3919 40.1398 40.4408 40.1301 40.4903 40.1301L79.5202 40.1201C79.69 40.1201 79.8528 40.1886 79.9728 40.3105C80.0928 40.4324 80.1603 40.5977 80.1603 40.7701L80.0902 80.0901Z" fill="#F2CEAE"/>
<path d="M320.02 120.07L240.03 120.09L240.02 80.2101L240.05 40.6101C240.05 40.2834 240.213 40.1201 240.54 40.1201L319.45 40.1001C319.783 40.1001 319.95 40.2701 319.95 40.6101L320.02 120.07Z" fill="#F2CEAE"/>
<path d="M120.07 120.04L120.18 159.16C120.18 159.277 120.157 159.393 120.112 159.501C120.067 159.609 120.002 159.707 119.919 159.789C119.837 159.872 119.738 159.938 119.63 159.982C119.522 160.027 119.407 160.05 119.29 160.05L80.3998 160.04L80.1199 120.14L80.0898 80.0901L119.27 80.0801C119.877 80.0801 120.18 80.3834 120.18 80.9901L120.07 120.04Z" fill="#5C5F6E"/>
<path d="M240.02 80.2099L240.03 120.09L201.75 120.04C200.61 120.04 200.04 120.607 200.04 121.74L200.1 159.49C200.1 159.649 200.037 159.802 199.924 159.914C199.812 160.027 199.659 160.09 199.5 160.09C187.34 160.05 174.767 160.06 161.78 160.12C161.587 160.12 161.41 160.16 161.25 160.24C161.063 160.333 160.89 160.427 160.73 160.52C160.537 160.633 160.373 160.603 160.24 160.43L160.08 160.21L160.1 120.47L199.53 120.09C199.672 120.087 199.806 120.029 199.905 119.928C200.005 119.827 200.06 119.691 200.06 119.55L200.04 80.6799C200.04 80.2999 200.233 80.1099 200.62 80.1099L240.02 80.2099Z" fill="#5C5F6E"/>
<path d="M80.1196 120.14L80.3996 160.04L80.0496 199.35C80.0496 199.69 79.8796 199.86 79.5396 199.86L40.0996 199.91L40.3496 120.14H80.1196Z" fill="#BC8312"/>
<path d="M240.03 120.09L320.02 120.07L320.01 279.94L239.95 279.98L239.94 200.55C239.94 200.425 239.891 200.306 239.802 200.218C239.714 200.13 239.595 200.08 239.47 200.08L200.51 200.07C200.388 200.07 200.271 200.118 200.185 200.205C200.099 200.291 200.05 200.408 200.05 200.53L200.06 239.97L160.8 240.06C160.611 240.06 160.429 239.984 160.294 239.85C160.16 239.715 160.083 239.532 160.08 239.34V160.21L160.24 160.43C160.373 160.603 160.537 160.633 160.73 160.52C160.89 160.427 161.063 160.333 161.25 160.24C161.41 160.16 161.587 160.12 161.78 160.12C174.767 160.06 187.34 160.05 199.5 160.09C199.659 160.09 199.812 160.027 199.924 159.914C200.037 159.802 200.1 159.649 200.1 159.49L200.04 121.74C200.04 120.607 200.61 120.04 201.75 120.04L240.03 120.09Z" fill="#BC8312"/>
<path d="M120.1 279.66C120.093 279.067 120.06 279.197 120 280.05L80.6399 280.04C80.5046 280.04 80.3749 279.985 80.2793 279.888C80.1836 279.79 80.1299 279.658 80.1299 279.52V200.51C80.1299 200.237 80.2632 200.1 80.5299 200.1H119.52C119.595 200.1 119.669 200.115 119.738 200.144C119.807 200.173 119.87 200.216 119.923 200.27C119.976 200.324 120.018 200.388 120.047 200.458C120.075 200.528 120.09 200.604 120.09 200.68L120.1 279.66Z" fill="#342606"/>
<path d="M239.95 279.98L200.65 279.99C200.486 279.99 200.328 279.926 200.212 279.811C200.096 279.697 200.03 279.542 200.03 279.38L200.06 239.97L200.05 200.53C200.05 200.408 200.099 200.291 200.185 200.205C200.271 200.118 200.388 200.07 200.51 200.07L239.47 200.08C239.595 200.08 239.714 200.129 239.803 200.217C239.891 200.306 239.94 200.425 239.94 200.55L239.95 279.98Z" fill="#342606"/>
<path d="M439.98 399.86L400.74 399.92C400.207 399.92 399.94 399.654 399.94 399.12L399.95 359.9L439.38 359.84C439.747 359.84 439.93 359.657 439.93 359.29L440 320.98C440 320.712 440.107 320.455 440.299 320.266C440.49 320.077 440.749 319.97 441.02 319.97L479.17 319.94C479.348 319.94 479.518 319.87 479.644 319.744C479.769 319.618 479.84 319.448 479.84 319.27L479.97 241.39C479.97 240.457 480.437 239.99 481.37 239.99L559.43 239.97C559.737 239.97 559.89 240.124 559.89 240.43L559.92 279.45C559.92 279.615 559.855 279.772 559.738 279.889C559.622 280.005 559.464 280.07 559.3 280.07L520.43 280.06C520.09 280.06 519.92 280.23 519.92 280.57L519.94 358.99C519.94 359.664 519.603 360 518.93 360L440.47 360.03C440.137 360.03 439.97 360.2 439.97 360.54L439.98 399.86Z" fill="#BC8312"/>
<path d="M120 280.05C120.06 279.197 120.093 279.067 120.1 279.66L159.33 279.94C159.556 279.943 159.773 280.034 159.932 280.195C160.091 280.356 160.18 280.574 160.18 280.8L160.17 319.36C160.17 319.527 160.105 319.687 159.988 319.805C159.872 319.924 159.714 319.99 159.55 319.99L120.94 320.02C120.715 320.02 120.498 319.929 120.339 319.768C120.18 319.607 120.09 319.388 120.09 319.16L120 280.05Z" fill="#FF987F"/>
<path d="M79.6597 320H40.5797C40.3588 320 40.1797 320.179 40.1797 320.4V359.48C40.1797 359.701 40.3588 359.88 40.5797 359.88H79.6597C79.8806 359.88 80.0597 359.701 80.0597 359.48V320.4C80.0597 320.179 79.8806 320 79.6597 320Z" fill="black"/>
<path d="M399.95 359.9L320.07 359.92L319.96 320.99C319.96 320.855 319.986 320.721 320.038 320.596C320.089 320.471 320.164 320.358 320.259 320.262C320.353 320.166 320.466 320.09 320.59 320.039C320.713 319.987 320.846 319.96 320.98 319.96L399.19 319.95C399.389 319.95 399.58 320.029 399.72 320.17C399.861 320.311 399.94 320.501 399.94 320.7L399.95 359.9Z" fill="#BC8312"/>
</svg>
