<svg width="256" height="256" viewBox="0 0 256 256" fill="none" xmlns="http://www.w3.org/2000/svg">
<g clip-path="url(#clip0_276_717)">
<path d="M132.49 0C155.363 0.986667 176.117 7.24 194.75 18.76C211.037 28.8267 224.327 41.62 234.62 57.14C247.733 76.9 254.86 98.91 256 123.17V132.89C255.033 153.07 249.963 171.613 240.79 188.52C232.477 203.84 221.803 216.763 208.77 227.29C186.823 245.017 161.437 254.587 132.61 256H123.64C103.26 255.127 84.54 250.057 67.48 240.79C50.2933 231.457 36.0967 219.143 24.89 203.85C9.70333 183.13 1.40667 159.62 0 133.32V123.02C2.3 84.3333 17.8933 53.01 46.78 29.05C68.48 11.0433 94.0533 1.36 123.5 0H132.49ZM245.74 127.99C245.74 112.528 242.695 97.2177 236.778 82.9329C230.861 68.648 222.188 55.6684 211.255 44.7352C200.322 33.8021 187.342 25.1294 173.057 19.2124C158.772 13.2954 143.462 10.25 128 10.25C96.7734 10.25 66.8258 22.6547 44.7452 44.7352C22.6647 66.8158 10.26 96.7634 10.26 127.99C10.26 159.217 22.6647 189.164 44.7452 211.245C66.8258 233.325 96.7734 245.73 128 245.73C143.462 245.73 158.772 242.685 173.057 236.768C187.342 230.851 200.322 222.178 211.255 211.245C222.188 200.312 230.861 187.332 236.778 173.047C242.695 158.762 245.74 143.452 245.74 127.99Z" fill="#460063"/>
<path d="M245.74 127.99C245.74 143.452 242.694 158.762 236.777 173.047C230.86 187.332 222.188 200.312 211.255 211.245C200.321 222.178 187.342 230.851 173.057 236.768C158.772 242.685 143.462 245.73 128 245.73C96.7732 245.73 66.8255 233.325 44.745 211.245C22.6645 189.164 10.2598 159.217 10.2598 127.99C10.2598 96.7634 22.6645 66.8158 44.745 44.7352C66.8255 22.6547 96.7732 10.25 128 10.25C143.462 10.25 158.772 13.2954 173.057 19.2124C187.342 25.1294 200.321 33.8021 211.255 44.7352C222.188 55.6684 230.86 68.648 236.777 82.9329C242.694 97.2177 245.74 112.528 245.74 127.99ZM91.1798 112.57C109.753 137.263 132.18 167.113 158.46 202.12C159.253 203.18 159.873 204.35 160.32 205.63C163.07 213.46 169.02 219.05 176.68 220.83C198.68 225.94 214.29 200.29 199.38 183.19C199.212 182.99 199.12 182.738 199.12 182.48V73.65C199.12 73.333 199.23 73.0258 199.43 72.78C205.26 65.69 206.94 56.66 203.34 48.46C199.2 39.05 190.03 33.6 179.68 34.63C176.3 34.9633 173.236 35.98 170.49 37.68C167.176 39.7333 164.743 41.9933 163.19 44.46C157.283 53.8467 157.796 63.2833 164.73 72.77C165.07 73.2367 165.243 74.2333 165.25 75.76C165.256 76.62 165.256 102.713 165.25 154.04C165.25 154.52 165.106 154.567 164.82 154.18L96.5198 63.29C96.3664 63.0833 96.3098 62.8533 96.3498 62.6C97.5231 55.5 96.3098 49.4167 92.7098 44.35C83.5598 31.47 64.6798 31.02 55.1698 44C48.6798 52.86 49.5698 64.24 56.5898 72.86C56.7898 73.1067 56.8898 73.39 56.8898 73.71C56.8698 82.01 56.8664 117.947 56.8798 181.52C56.8798 183.23 56.1198 183.79 55.2398 184.95C46.7298 196.29 50.9198 212.02 62.6798 218.64C70.0398 222.79 79.9098 222.48 86.8698 217.42C98.5498 208.92 99.9598 194.23 91.0898 183.23C90.8564 182.937 90.7398 182.603 90.7398 182.23V112.72C90.7398 112.227 90.8864 112.177 91.1798 112.57Z" fill="white"/>
<path d="M91.1795 112.57C90.8862 112.177 90.7395 112.227 90.7395 112.72V182.23C90.7395 182.603 90.8562 182.937 91.0895 183.23C99.9595 194.23 98.5495 208.92 86.8695 217.42C79.9095 222.48 70.0395 222.79 62.6795 218.64C50.9195 212.02 46.7295 196.29 55.2395 184.95C56.1195 183.79 56.8795 183.23 56.8795 181.52C56.8662 117.947 56.8695 82.0099 56.8895 73.7099C56.8895 73.3899 56.7895 73.1066 56.5895 72.8599C49.5695 64.2399 48.6795 52.8599 55.1695 43.9999C64.6795 31.0199 83.5595 31.4699 92.7095 44.3499C96.3095 49.4166 97.5229 55.4999 96.3495 62.5999C96.3095 62.8532 96.3662 63.0833 96.5195 63.2899L164.82 154.18C165.106 154.567 165.25 154.52 165.25 154.04C165.256 102.713 165.256 76.6199 165.25 75.7599C165.243 74.2333 165.07 73.2366 164.73 72.7699C157.796 63.2832 157.283 53.8466 163.19 44.4599C164.743 41.9933 167.176 39.7333 170.49 37.6799C173.236 35.9799 176.3 34.9633 179.68 34.6299C190.03 33.5999 199.2 39.0499 203.34 48.4599C206.94 56.6599 205.26 65.6899 199.43 72.7799C199.229 73.0257 199.12 73.3329 199.12 73.6499V182.48C199.12 182.738 199.212 182.989 199.38 183.19C214.29 200.29 198.68 225.94 176.68 220.83C169.02 219.05 163.07 213.46 160.32 205.63C159.873 204.35 159.253 203.18 158.46 202.12C132.18 167.113 109.753 137.263 91.1795 112.57ZM89.1395 57.4999C89.1395 53.4368 87.5255 49.5401 84.6524 46.667C81.7793 43.794 77.8826 42.1799 73.8195 42.1799C69.7564 42.1799 65.8597 43.794 62.9866 46.667C60.1136 49.5401 58.4995 53.4368 58.4995 57.4999C58.4995 61.563 60.1136 65.4597 62.9866 68.3328C65.8597 71.2059 69.7564 72.8199 73.8195 72.8199C77.8826 72.8199 81.7793 71.2059 84.6524 68.3328C87.5255 65.4597 89.1395 61.563 89.1395 57.4999ZM197.5 57.4999C197.5 53.4368 195.885 49.5401 193.012 46.667C190.139 43.794 186.243 42.1799 182.18 42.1799C178.116 42.1799 174.22 43.794 171.347 46.667C168.474 49.5401 166.86 53.4368 166.86 57.4999C166.86 61.563 168.474 65.4597 171.347 68.3328C174.22 71.2059 178.116 72.8199 182.18 72.8199C186.243 72.8199 190.139 71.2059 193.012 68.3328C195.885 65.4597 197.5 61.563 197.5 57.4999ZM89.1395 198.51C89.1395 194.447 87.5255 190.55 84.6524 187.677C81.7793 184.804 77.8826 183.19 73.8195 183.19C69.7564 183.19 65.8597 184.804 62.9866 187.677C60.1136 190.55 58.4995 194.447 58.4995 198.51C58.4995 202.573 60.1136 206.47 62.9866 209.343C65.8597 212.216 69.7564 213.83 73.8195 213.83C77.8826 213.83 81.7793 212.216 84.6524 209.343C87.5255 206.47 89.1395 202.573 89.1395 198.51ZM197.5 198.51C197.5 194.447 195.885 190.55 193.012 187.677C190.139 184.804 186.243 183.19 182.18 183.19C178.116 183.19 174.22 184.804 171.347 187.677C168.474 190.55 166.86 194.447 166.86 198.51C166.86 202.573 168.474 206.47 171.347 209.343C174.22 212.216 178.116 213.83 182.18 213.83C186.243 213.83 190.139 212.216 193.012 209.343C195.885 206.47 197.5 202.573 197.5 198.51Z" fill="#460063"/>
<path d="M73.82 72.8199C82.281 72.8199 89.14 65.9609 89.14 57.4999C89.14 49.0389 82.281 42.1799 73.82 42.1799C65.359 42.1799 58.5 49.0389 58.5 57.4999C58.5 65.9609 65.359 72.8199 73.82 72.8199Z" fill="white"/>
<path d="M182.18 72.8199C190.641 72.8199 197.5 65.9609 197.5 57.4999C197.5 49.0389 190.641 42.1799 182.18 42.1799C173.719 42.1799 166.86 49.0389 166.86 57.4999C166.86 65.9609 173.719 72.8199 182.18 72.8199Z" fill="white"/>
<path d="M73.82 213.83C82.281 213.83 89.14 206.971 89.14 198.51C89.14 190.049 82.281 183.19 73.82 183.19C65.359 183.19 58.5 190.049 58.5 198.51C58.5 206.971 65.359 213.83 73.82 213.83Z" fill="white"/>
<path d="M182.18 213.83C190.641 213.83 197.5 206.971 197.5 198.51C197.5 190.049 190.641 183.19 182.18 183.19C173.719 183.19 166.86 190.049 166.86 198.51C166.86 206.971 173.719 213.83 182.18 213.83Z" fill="white"/>
</g>
<defs>
<clipPath id="clip0_276_717">
<rect width="256" height="256" fill="white"/>
</clipPath>
</defs>
</svg>
