<svg width="29" height="32" viewBox="0 0 29 32" fill="none" xmlns="http://www.w3.org/2000/svg">
<path d="M28.2535 6.08071C27.9405 4.85598 26.9343 3.63126 25.1232 2.26787C23.6698 1.18178 22.1271 0.557861 20.8973 0.557861C20.6513 0.557861 20.4278 0.580964 20.2042 0.627184C19.6452 0.742727 19.1533 1.15867 18.8403 1.78259C18.4601 2.52206 18.3707 3.51572 18.6167 4.11653C18.7061 4.3014 18.8179 4.53246 18.9521 4.74043C17.7671 5.47991 17.0962 5.68789 17.0068 5.71101C20.0924 6.77394 22.6637 8.99238 24.2736 11.8809L24.2959 11.6036C24.363 10.841 24.5866 9.96288 24.8996 9.06168C25.2126 9.1541 25.5257 9.20035 25.8387 9.20035C26.666 9.20035 27.3815 8.8537 27.8287 8.22977C28.2759 7.60585 28.4548 6.77394 28.2535 6.08071Z" fill="#5E12A0"/>
<path d="M25.034 8.39165C27.0687 8.9694 27.8959 7.35184 27.6276 6.26571C27.337 5.17966 26.3979 4.07044 24.7432 2.82259C23.0887 1.57475 21.4118 1.06636 20.3385 1.29745C19.2652 1.52853 18.9522 3.21543 19.2206 3.86246C19.3323 4.11665 19.5783 4.48635 19.9137 4.9023C19.4889 5.2027 19.0864 5.43381 18.751 5.64178C20.808 6.58924 22.5968 8.06819 23.9383 9.91685C24.0948 9.29293 24.3185 8.7383 24.5197 8.25305C24.6762 8.27617 24.8551 8.32235 25.034 8.39165Z" fill="url(#paint0_radial_277_1068)"/>
<path d="M13.3845 31.0375C20.2875 31.0375 25.8834 25.2541 25.8834 18.12C25.8834 10.9859 20.2875 5.20251 13.3845 5.20251C6.48167 5.20251 0.885742 10.9859 0.885742 18.12C0.885742 25.2541 6.48167 31.0375 13.3845 31.0375Z" fill="url(#paint1_radial_277_1068)"/>
<path opacity="0.6" d="M26.5993 5.20256C24.9 3.35388 23.4691 2.86861 21.7474 2.47577C20.4058 2.15225 20.7636 1.36658 22.3958 1.52833C21.6132 1.25103 20.8753 1.18171 20.3387 1.29725C19.2655 1.52833 18.9525 3.21524 19.2208 3.86227C19.3325 4.11645 19.5785 4.4862 19.9139 4.90215C19.3102 5.31811 18.7959 5.61851 18.3711 5.84961C18.5724 5.94203 18.8183 6.05751 19.109 6.21931C19.8692 6.63526 20.6965 7.32849 20.6965 7.32849C19.4444 6.21931 19.7127 5.71093 21.4343 4.46308C21.9709 4.07024 22.9548 4.11645 23.8715 4.60175C24.7882 5.087 25.8615 6.31174 25.8615 6.31174L24.833 8.34525C24.9 8.36837 24.9671 8.3915 25.0342 8.41462C25.6826 8.59947 26.1969 8.55322 26.5993 8.3915C27.0689 8.0911 28.2986 7.07434 26.5993 5.20256Z" fill="#A98698"/>
<path d="M21.7243 3.58524C22.1715 3.77011 22.7528 4.09363 23.4683 4.57893C24.318 5.15661 25.0558 5.80367 25.5253 6.31204C24.7428 7.37497 24.2285 8.8308 23.9155 9.84756C24.072 10.0787 24.2509 10.3098 24.4074 10.5409C24.5639 9.96311 24.8323 9.10808 25.19 8.25313C25.2795 8.27625 25.3912 8.27625 25.503 8.27625C25.7713 8.27625 26.0843 8.23 26.3303 8.02203C26.5092 7.88335 26.7104 7.6292 26.688 7.167C26.688 6.72799 26.3526 6.17337 25.6596 5.50326C25.1676 5.01794 24.4968 4.48643 23.8261 4.0012C21.9032 2.68402 20.5616 2.31429 19.9579 2.93821C19.5555 3.35417 19.6002 3.86255 19.7343 4.23228C19.0188 4.71753 18.4151 5.06419 18.0127 5.29529C18.281 5.38771 18.527 5.50326 18.7953 5.61874C19.5107 5.22591 20.5393 4.55581 21.7243 3.58524ZM25.9502 6.88972C26.0173 7.00527 26.0396 7.12082 26.0396 7.19012C26.0396 7.3981 25.9725 7.4674 25.9279 7.51365C25.8384 7.58295 25.6595 7.6292 25.503 7.6292C25.6372 7.35192 25.7937 7.12082 25.9502 6.88972ZM20.4275 3.4466C20.4945 3.37728 20.6734 3.33105 20.9641 3.37727C20.7405 3.56214 20.5169 3.7239 20.2933 3.88565C20.271 3.7239 20.2933 3.56214 20.4275 3.4466Z" fill="#5E12A0"/>
<path d="M13.3852 4.44031C6.07365 4.44031 0.148438 10.564 0.148438 18.1204C0.148438 25.6768 6.07365 31.8005 13.3852 31.8005C20.6966 31.8005 26.6218 25.6768 26.6218 18.1204C26.6218 10.564 20.6742 4.44031 13.3852 4.44031ZM13.3852 31.0379C6.47609 31.0379 0.886297 25.2609 0.886297 18.1204C0.886297 10.98 6.47609 5.20291 13.3852 5.20291C20.2941 5.20291 25.884 10.98 25.884 18.1204C25.884 25.2609 20.2718 31.0379 13.3852 31.0379Z" fill="#5E12A0"/>
<path opacity="0.6" d="M13.3845 31.0375C20.2875 31.0375 25.8834 25.2541 25.8834 18.12C25.8834 10.9859 20.2875 5.20251 13.3845 5.20251C6.48167 5.20251 0.885742 10.9859 0.885742 18.12C0.885742 25.2541 6.48167 31.0375 13.3845 31.0375Z" fill="url(#paint2_linear_277_1068)"/>
<path opacity="0.6" d="M13.2953 29.4664C6.47569 28.3341 1.84731 21.7021 2.96525 14.654C3.45718 11.5345 4.97756 8.87702 7.1241 6.95898C3.99378 8.83077 1.66844 12.089 1.04238 16.0637C-0.0532289 23.1117 4.57512 29.7438 11.3724 30.8761C15.1734 31.5231 18.8403 30.2983 21.5458 27.895C19.1534 29.3278 16.2467 29.9517 13.2953 29.4664Z" fill="#A98698"/>
<path opacity="0.6" d="M15.3748 5.38741C12.2222 4.8559 9.159 5.59538 6.65481 7.23607C6.61007 7.28232 6.5654 7.32849 6.5654 7.32849C7.5268 6.72769 8.9355 6.19619 8.9355 6.19619C5.31325 8.36837 4.19531 10.841 4.19531 10.841C5.60395 8.0218 9.7404 6.03446 12.9824 5.89578C16.2246 5.75718 18.3487 6.75081 20.9423 8.89987C23.536 11.0721 25.1012 15.5089 24.9446 19.0213C24.8105 22.5337 23.0218 25.3761 23.0218 25.3761C24.2515 23.7354 24.9894 22.5337 25.459 21.309C25.5484 20.9393 25.6378 20.5696 25.6826 20.1767C26.8005 13.1518 22.1944 6.51971 15.3748 5.38741Z" fill="url(#paint3_linear_277_1068)"/>
<path d="M25.2581 18.0048C25.2581 24.7755 19.9366 30.2753 13.3854 30.2753C6.8341 30.2753 1.49023 24.7755 1.49023 18.0048H25.2581Z" fill="url(#paint4_linear_277_1068)"/>
<g opacity="0.6">
<path opacity="0.6" d="M24.3182 18.0048C24.3182 24.6137 19.2651 30.021 12.915 30.2753C13.0716 30.2753 13.2281 30.2753 13.3845 30.2753C19.9358 30.2753 25.2573 24.7755 25.2573 18.0048H24.3182Z" fill="url(#paint5_linear_277_1068)"/>
</g>
<g opacity="0.7">
<path opacity="0.7" d="M3.16718 18.0048H1.49023C1.49023 24.7755 6.81176 30.2753 13.363 30.2753C13.6537 30.2753 13.922 30.2753 14.1903 30.2521C8.04148 29.79 3.16718 24.4751 3.16718 18.0048Z" fill="url(#paint6_linear_277_1068)"/>
</g>
<path d="M25.2358 18.1198C25.2358 16.7103 22.8657 15.9015 19.713 15.6242C17.4324 15.4393 15.1294 15.6704 12.491 16.5023C10.2103 17.1955 8.15328 17.08 6.65521 16.8951C3.32366 16.5023 1.49023 16.456 1.49023 18.1198C1.49023 20.5231 6.23035 23.5272 13.3406 22.4873C16.9405 21.9558 18.7963 20.8698 20.9204 20.1303C23.2234 19.3446 25.2358 19.3677 25.2358 18.1198Z" fill="url(#paint7_linear_277_1068)"/>
<path d="M17.275 12.2969C18.3864 12.2969 19.2873 11.3658 19.2873 10.2172C19.2873 9.0686 18.3864 8.13745 17.275 8.13745C16.1636 8.13745 15.2627 9.0686 15.2627 10.2172C15.2627 11.3658 16.1636 12.2969 17.275 12.2969Z" fill="white"/>
<path d="M20.5606 13.8452C21.0299 13.8452 21.4102 13.4521 21.4102 12.9671C21.4102 12.4821 21.0299 12.089 20.5606 12.089C20.0913 12.089 19.7109 12.4821 19.7109 12.9671C19.7109 13.4521 20.0913 13.8452 20.5606 13.8452Z" fill="white"/>
<g opacity="0.6">
<path opacity="0.6" d="M23.6029 8.55293C23.5806 8.55293 23.5582 8.55293 23.5582 8.55293C23.424 8.5298 23.3346 8.3912 23.3569 8.2294C23.5582 7.16647 24.4078 6.14964 24.4525 6.10347C24.5419 5.98792 24.7208 5.98792 24.8103 6.08034C24.9221 6.17277 24.9221 6.35762 24.8326 6.45012C24.8103 6.47317 24.0277 7.42062 23.8489 8.34495C23.8265 8.48363 23.7147 8.55293 23.6029 8.55293Z" fill="url(#paint8_linear_277_1068)"/>
</g>
<path opacity="0.2" d="M12.5587 27.7561C12.9044 27.7561 13.1847 27.4664 13.1847 27.1091C13.1847 26.7517 12.9044 26.462 12.5587 26.462C12.2129 26.462 11.9326 26.7517 11.9326 27.1091C11.9326 27.4664 12.2129 27.7561 12.5587 27.7561Z" fill="white"/>
<g opacity="0.4">
<path opacity="0.6" d="M12.1997 27.5258C11.9538 27.2716 11.9538 26.8557 12.1997 26.6015C12.2444 26.5553 12.2891 26.5322 12.3338 26.486C12.2444 26.5091 12.1773 26.5553 12.1103 26.6246C11.8643 26.8788 11.8643 27.2947 12.1103 27.549C12.3115 27.7569 12.6245 27.8031 12.8705 27.6645C12.6469 27.7569 12.3786 27.7107 12.1997 27.5258Z" fill="url(#paint9_linear_277_1068)"/>
</g>
<path opacity="0.3" d="M12.7806 26.924C12.8547 26.924 12.9149 26.862 12.9149 26.7854C12.9149 26.7088 12.8547 26.6467 12.7806 26.6467C12.7065 26.6467 12.6465 26.7088 12.6465 26.7854C12.6465 26.862 12.7065 26.924 12.7806 26.924Z" fill="white"/>
<path opacity="0.2" d="M15.8233 27.4329C16.1691 27.4329 16.4494 27.1433 16.4494 26.786C16.4494 26.4286 16.1691 26.1389 15.8233 26.1389C15.4776 26.1389 15.1973 26.4286 15.1973 26.786C15.1973 27.1433 15.4776 27.4329 15.8233 27.4329Z" fill="white"/>
<g opacity="0.4">
<path opacity="0.6" d="M15.4643 27.2022C15.2183 26.948 15.2183 26.5321 15.4643 26.2779C15.509 26.2317 15.5537 26.2086 15.5984 26.1624C15.509 26.1855 15.442 26.2317 15.3749 26.301C15.1289 26.5552 15.1289 26.9711 15.3749 27.2254C15.5761 27.4333 15.8892 27.4795 16.135 27.3409C15.9115 27.4333 15.6432 27.3871 15.4643 27.2022Z" fill="url(#paint10_linear_277_1068)"/>
</g>
<path opacity="0.3" d="M16.0453 26.601C16.1194 26.601 16.1794 26.5389 16.1794 26.4623C16.1794 26.3857 16.1194 26.3236 16.0453 26.3236C15.9712 26.3236 15.9111 26.3857 15.9111 26.4623C15.9111 26.5389 15.9712 26.601 16.0453 26.601Z" fill="white"/>
<path opacity="0.2" d="M14.2128 28.9347C14.4721 28.9347 14.6823 28.7175 14.6823 28.4494C14.6823 28.1814 14.4721 27.9641 14.2128 27.9641C13.9534 27.9641 13.7432 28.1814 13.7432 28.4494C13.7432 28.7175 13.9534 28.9347 14.2128 28.9347Z" fill="white"/>
<g opacity="0.4">
<path opacity="0.6" d="M13.9444 28.7506C13.7655 28.5658 13.7655 28.2423 13.9444 28.0574C13.9668 28.0343 14.0115 28.0112 14.0338 27.988C13.9668 28.0112 13.922 28.0574 13.8773 28.1036C13.6985 28.2884 13.6985 28.612 13.8773 28.7968C14.0338 28.9586 14.2574 28.9817 14.4587 28.8662C14.2798 28.9355 14.0786 28.8893 13.9444 28.7506Z" fill="url(#paint11_linear_277_1068)"/>
</g>
<path opacity="0.3" d="M14.3678 28.2879C14.4171 28.2879 14.4572 28.2465 14.4572 28.1955C14.4572 28.1444 14.4171 28.103 14.3678 28.103C14.3184 28.103 14.2783 28.1444 14.2783 28.1955C14.2783 28.2465 14.3184 28.2879 14.3678 28.2879Z" fill="white"/>
<path opacity="0.2" d="M17.0965 28.5881C17.3558 28.5881 17.566 28.3708 17.566 28.1028C17.566 27.8348 17.3558 27.6176 17.0965 27.6176C16.8372 27.6176 16.627 27.8348 16.627 28.1028C16.627 28.3708 16.8372 28.5881 17.0965 28.5881Z" fill="white"/>
<g opacity="0.4">
<path opacity="0.6" d="M16.8282 28.4042C16.6493 28.2193 16.6493 27.8958 16.8282 27.7109C16.8505 27.6878 16.8953 27.6647 16.9176 27.6416C16.8505 27.6647 16.8058 27.7109 16.7611 27.7572C16.5822 27.942 16.5822 28.2655 16.7611 28.4504C16.9176 28.6122 17.1412 28.6352 17.3425 28.5197C17.1636 28.5891 16.9623 28.5428 16.8282 28.4042Z" fill="url(#paint12_linear_277_1068)"/>
</g>
<path opacity="0.3" d="M17.2535 27.9415C17.3029 27.9415 17.343 27.9001 17.343 27.849C17.343 27.798 17.3029 27.7566 17.2535 27.7566C17.2041 27.7566 17.1641 27.798 17.1641 27.849C17.1641 27.9001 17.2041 27.9415 17.2535 27.9415Z" fill="white"/>
<path opacity="0.2" d="M9.89666 27.5251C10.4648 27.5251 10.9252 27.0491 10.9252 26.4621C10.9252 25.875 10.4648 25.399 9.89666 25.399C9.32856 25.399 8.86816 25.875 8.86816 26.4621C8.86816 27.0491 9.32856 27.5251 9.89666 27.5251Z" fill="white"/>
<g opacity="0.4">
<path opacity="0.6" d="M9.31588 27.1327C8.91338 26.7167 8.91338 26.0466 9.31588 25.6306C9.38288 25.5613 9.44998 25.515 9.53948 25.4689C9.40528 25.515 9.29348 25.6075 9.18168 25.7C8.77928 26.1159 8.77928 26.786 9.18168 27.202C9.51718 27.5486 10.0314 27.6179 10.4339 27.3637C10.0538 27.5255 9.60658 27.4562 9.31588 27.1327Z" fill="url(#paint13_linear_277_1068)"/>
</g>
<path opacity="0.3" d="M10.2548 26.1385C10.3783 26.1385 10.4784 26.0351 10.4784 25.9075C10.4784 25.7798 10.3783 25.6764 10.2548 25.6764C10.1314 25.6764 10.0312 25.7798 10.0312 25.9075C10.0312 26.0351 10.1314 26.1385 10.2548 26.1385Z" fill="white"/>
<path opacity="0.2" d="M19.0861 24.9143C19.6541 24.9143 20.1147 24.4384 20.1147 23.8513C20.1147 23.2642 19.6541 22.7883 19.0861 22.7883C18.5181 22.7883 18.0576 23.2642 18.0576 23.8513C18.0576 24.4384 18.5181 24.9143 19.0861 24.9143Z" fill="white"/>
<g opacity="0.4">
<path opacity="0.6" d="M18.4829 24.5214C18.0804 24.1054 18.0804 23.4353 18.4829 23.0193C18.5499 22.95 18.617 22.9038 18.7065 22.8575C18.5724 22.9038 18.4605 22.9962 18.3487 23.0886C17.9463 23.5046 17.9463 24.1748 18.3487 24.5907C18.6841 24.9373 19.1984 25.0067 19.6009 24.7525C19.2208 24.9142 18.7959 24.8449 18.4829 24.5214Z" fill="url(#paint14_linear_277_1068)"/>
</g>
<path opacity="0.3" d="M19.4434 23.5273C19.5669 23.5273 19.6669 23.4238 19.6669 23.2962C19.6669 23.1685 19.5669 23.0651 19.4434 23.0651C19.3198 23.0651 19.2197 23.1685 19.2197 23.2962C19.2197 23.4238 19.3198 23.5273 19.4434 23.5273Z" fill="white"/>
<defs>
<radialGradient id="paint0_radial_277_1068" cx="0" cy="0" r="1" gradientUnits="userSpaceOnUse" gradientTransform="translate(27.2198 4.80988) scale(9.99335 10.3281)">
<stop stop-color="#FFEAFF" stop-opacity="0.6"/>
<stop offset="0.6807" stop-color="#A087C9"/>
<stop offset="1" stop-color="#10002F"/>
</radialGradient>
<radialGradient id="paint1_radial_277_1068" cx="0" cy="0" r="1" gradientUnits="userSpaceOnUse" gradientTransform="translate(21.6598 9.2144) scale(24.4501 25.2691)">
<stop stop-color="#FFEAFF" stop-opacity="0.6"/>
<stop offset="0.6807" stop-color="#A087C9"/>
<stop offset="1" stop-color="#10002F"/>
</radialGradient>
<linearGradient id="paint2_linear_277_1068" x1="11.3796" y1="30.8543" x2="15.6423" y2="5.40871" gradientUnits="userSpaceOnUse">
<stop stop-color="#81FFFF"/>
<stop offset="0.6202" stop-color="white" stop-opacity="0"/>
</linearGradient>
<linearGradient id="paint3_linear_277_1068" x1="22.1933" y1="9.34738" x2="11.5477" y2="18.7985" gradientUnits="userSpaceOnUse">
<stop offset="0.2888" stop-color="white"/>
<stop offset="0.7796" stop-color="white" stop-opacity="0"/>
</linearGradient>
<linearGradient id="paint4_linear_277_1068" x1="1.50028" y1="24.1329" x2="25.2524" y2="24.1329" gradientUnits="userSpaceOnUse">
<stop stop-color="#0002E9"/>
<stop offset="0.9952" stop-color="#FF00C7"/>
</linearGradient>
<linearGradient id="paint5_linear_277_1068" x1="26.376" y1="19.0815" x2="13.0467" y2="31.27" gradientUnits="userSpaceOnUse">
<stop offset="0.2888" stop-color="white"/>
<stop offset="0.7796" stop-color="white" stop-opacity="0"/>
</linearGradient>
<linearGradient id="paint6_linear_277_1068" x1="1.50028" y1="24.1329" x2="14.2075" y2="24.1329" gradientUnits="userSpaceOnUse">
<stop stop-color="#000292"/>
<stop offset="0.9952" stop-color="#7D00C7"/>
</linearGradient>
<linearGradient id="paint7_linear_277_1068" x1="1.51623" y1="19.1392" x2="25.2364" y2="19.1392" gradientUnits="userSpaceOnUse">
<stop stop-color="#000292"/>
<stop offset="0.9952" stop-color="#BE00C7"/>
</linearGradient>
<linearGradient id="paint8_linear_277_1068" x1="24.8466" y1="5.9909" x2="23.0591" y2="8.80142" gradientUnits="userSpaceOnUse">
<stop offset="0.2888" stop-color="white"/>
<stop offset="0.7796" stop-color="white" stop-opacity="0"/>
</linearGradient>
<linearGradient id="paint9_linear_277_1068" x1="11.9252" y1="27.1297" x2="12.8712" y2="27.1297" gradientUnits="userSpaceOnUse">
<stop offset="0.2888" stop-color="white"/>
<stop offset="0.7796" stop-color="white" stop-opacity="0"/>
</linearGradient>
<linearGradient id="paint10_linear_277_1068" x1="15.1875" y1="26.8017" x2="16.1335" y2="26.8017" gradientUnits="userSpaceOnUse">
<stop offset="0.2888" stop-color="white"/>
<stop offset="0.7796" stop-color="white" stop-opacity="0"/>
</linearGradient>
<linearGradient id="paint11_linear_277_1068" x1="13.7403" y1="28.4558" x2="14.4505" y2="28.4558" gradientUnits="userSpaceOnUse">
<stop offset="0.2888" stop-color="white"/>
<stop offset="0.7796" stop-color="white" stop-opacity="0"/>
</linearGradient>
<linearGradient id="paint12_linear_277_1068" x1="16.6144" y1="28.1084" x2="17.3245" y2="28.1084" gradientUnits="userSpaceOnUse">
<stop offset="0.2888" stop-color="white"/>
<stop offset="0.7796" stop-color="white" stop-opacity="0"/>
</linearGradient>
<linearGradient id="paint13_linear_277_1068" x1="8.86968" y1="26.4896" x2="10.4145" y2="26.4896" gradientUnits="userSpaceOnUse">
<stop offset="0.2888" stop-color="white"/>
<stop offset="0.7796" stop-color="white" stop-opacity="0"/>
</linearGradient>
<linearGradient id="paint14_linear_277_1068" x1="18.0452" y1="23.8775" x2="19.5901" y2="23.8775" gradientUnits="userSpaceOnUse">
<stop offset="0.2888" stop-color="white"/>
<stop offset="0.7796" stop-color="white" stop-opacity="0"/>
</linearGradient>
</defs>
</svg>
