<svg width="56" height="51" viewBox="0 0 56 51" fill="none" xmlns="http://www.w3.org/2000/svg">
<path d="M29.0322 8.25099L40.3602 0.00999451L42.2722 5.87799L29.0322 15.514V8.24999V8.25099Z" fill="#FFC800"/>
<path d="M31.0964 17.097L45.2064 6.828L42.9844 0.006L50.4444 0L55.5164 15.571L42.2764 25.205L31.0964 17.097ZM29.0264 18.675L42.2434 28.267L29.0324 37.986L29.0264 18.676V18.675ZM29.0354 41.072L39.8104 33.23L42.2724 40.785L29.0324 50.421L29.0354 41.072Z" fill="#FFC800"/>
<path d="M26.4842 8.25099L15.1562 0.00999451L13.2432 5.87799L26.4842 15.514V8.24999V8.25099Z" fill="#E1AA00"/>
<path d="M24.42 17.097L10.307 6.828L12.529 0.006L5.071 0L0 15.571L13.24 25.205L24.42 17.097ZM26.49 18.675L13.27 28.267L26.484 37.986L26.49 18.676V18.675ZM26.481 41.072L15.703 33.23L13.243 40.785L26.484 50.421L26.481 41.072Z" fill="#E1AA00"/>
</svg>
