<svg width="417" height="486" viewBox="0 0 417 486" fill="none" xmlns="http://www.w3.org/2000/svg">
<path d="M36.7996 67.5C35.3996 69.4 34.5996 71.7 34.5996 74.1V311.5C34.5996 367.1 151.1 426 204.3 447.5C206.9 448.6 209.9 448.6 212.5 447.5C242.9 435.3 293.8 410.9 331.8 381.9C334.8 379.6 337.9 377.3 340.7 374.9C350.7 366.7 359.5 358.2 366.4 349.5C208.7 329.6 79.9996 216.7 36.7996 67.5Z" fill="url(#paint0_linear_277_1210)"/>
<path d="M374.899 336.9C376.699 333.6 378.299 330.2 379.399 326.9C380.699 323.1 381.599 319.4 381.899 315.6C381.999 314.3 382.099 313.1 382.099 311.8V74.1C382.099 73.4 381.999 72.8 381.899 72.1C381.699 70.8 381.199 69.6 380.599 68.5C380.299 67.9 379.899 67.4 379.499 66.9C377.799 65 375.499 63.6 372.799 63.2L363.299 61.7L210.199 37.2C209.599 37.1 208.999 37.1 208.499 37.1C207.899 37.1 207.299 37.1 206.799 37.2L59.5992 60.7L43.7992 63.2C40.8992 63.7 38.3992 65.3 36.6992 67.5C79.8992 216.7 208.599 329.5 366.299 349.5C366.799 348.9 367.299 348.3 367.799 347.6C369.999 344.9 373.999 338.7 374.899 336.9Z" fill="url(#paint1_linear_277_1210)"/>
<path d="M389.7 28.5L213.5 0.4C211.8 0.0999996 210.1 0 208.4 0H208.3V20.1H208.4C209 20.1 209.7 20.1 210.3 20.3L386.4 48.5C392.2 49.4 396.5 54.4 396.5 60.3V317.6C396.5 323.1 395.5 328.5 393.6 334C392.3 337.6 390.7 341.2 388.7 344.8C387.6 346.7 383.3 353.5 381 356.5C373.3 366.6 363.2 376.5 351.6 386C348.6 388.5 345.2 391 342 393.5C300.8 424.9 245.7 451.3 212.8 464.5C211.4 465.1 209.9 465.4 208.4 465.4V485.5C212.5 485.5 216.5 484.7 220.3 483.2C258.4 467.8 313.6 440.4 354.2 409.5C354.3 409.4 354.4 409.4 354.4 409.3C355.4 408.5 356.4 407.7 357.5 406.9C359.8 405.1 362.1 403.3 364.4 401.4C377.8 390.5 388.7 379.4 397 368.5C399.9 364.7 404.8 357.1 406.3 354.4C408.9 349.8 411 345.1 412.6 340.5C415.3 332.8 416.6 325.1 416.6 317.5V60.2C416.6 44.3 405.3 31.1 389.7 28.5Z" fill="url(#paint2_linear_277_1210)"/>
<path d="M207.2 465.3C206.1 465.2 205 464.9 203.9 464.5C146.3 441.2 20.1 377.5 20.1 317.2V60.2C20.1 54.3 24.4 49.3 30.2 48.4L47.3 45.7L206.6 20.2C206.8 20.2 207.9 20.1 208.4 20.1V0C207.7 0 204.6 0.2 203.5 0.4L44.1 25.8L27 28.5C11.4 31 0 44.3 0 60.1V317.2C0 336.2 8.6 355.8 25.5 375.4C38.4 390.4 56.4 405.8 79.1 421.2C127.3 454 181 476.8 196.3 483C199.8 484.4 203.4 485.2 207.1 485.3H208.2V465.2C208 465.4 207.6 465.4 207.2 465.3Z" fill="url(#paint3_linear_277_1210)"/>
<path d="M396.6 60.2C396.6 54.3 392.3 49.3 386.5 48.4L210.4 20.2C209.8 20.1 209.1 20 208.5 20H208.4C207.9 20 206.8 20.1 206.6 20.1L47.2996 45.6L30.1996 48.3C24.3996 49.2 20.0996 54.2 20.0996 60.1V317.2C20.0996 377.4 146.3 441.2 203.9 464.5C205 464.9 206.1 465.2 207.2 465.3C207.6 465.3 208 465.4 208.3 465.4C209.8 465.4 211.3 465.1 212.7 464.5C245.6 451.3 300.7 424.9 341.9 393.5C345.1 391 348.5 388.5 351.5 386C363.1 376.5 373.2 366.6 380.9 356.5C383.2 353.4 387.5 346.7 388.6 344.8C390.6 341.2 392.2 337.6 393.5 334C395.4 328.6 396.4 323.1 396.4 317.6V60.2H396.6ZM382.2 311.7C382.2 313 382.1 314.2 382 315.5C381.6 319.3 380.8 323.1 379.5 326.8C378.3 330.2 376.8 333.5 375 336.8C374 338.6 370 344.8 367.9 347.6C360.8 356.9 351.5 366.1 340.7 374.9C338 377.2 334.8 379.5 331.8 381.9C293.8 410.9 242.8 435.3 212.5 447.5C211.2 448 209.8 448.3 208.4 448.3C207 448.3 205.6 448 204.3 447.5C151.1 426 34.5996 367.2 34.5996 311.5V74.1C34.5996 68.7 38.4996 64.1 43.8996 63.2L59.5996 60.7L206.7 37.2C207.3 37.1 207.9 37.1 208.4 37.1C209 37.1 209.6 37.1 210.1 37.2L363.4 61.7L372.9 63.2C375.6 63.6 377.9 65 379.6 66.9C380 67.4 380.4 67.9 380.7 68.5C381.3 69.6 381.8 70.8 382 72.1C382.1 72.7 382.2 73.4 382.2 74.1V311.7Z" fill="white"/>
<path d="M221.399 191.9C228.199 191.9 233.699 186.4 233.699 179.6C233.699 172.8 228.199 167.3 221.399 167.3H126.399C125.399 167.3 124.699 168.1 124.699 169V179.6C124.699 186.2 129.899 191.6 136.399 192L221.399 191.9Z" fill="white"/>
<path d="M244.8 95.4H144.2C143.2 95.4 142.5 96.2 142.5 97.1V107.7C142.5 114.3 147.7 119.7 154.2 120.1L239.7 119.9C242.9 119.9 245.8 120 245.8 120C277.3 121.5 302.4 147.7 302.4 179.6C302.4 211.8 276.8 237.9 244.9 238.9H154.9C154.3 238.9 153.7 238.9 153.1 239C147.5 239.8 143.1 244.5 142.7 250.3V371.8C142.7 372.8 143.5 373.5 144.4 373.5H155C161.6 373.5 167 368.3 167.4 361.8V265.1C167.4 264.3 168.2 263.6 169 263.6L246.7 263.5C253.4 263.2 259.9 262.1 266.1 260.4C301.4 250.3 327.2 218 327.2 179.5C327 133.7 290.4 96.5 244.8 95.4Z" fill="white"/>
<defs>
<linearGradient id="paint0_linear_277_1210" x1="34.5996" y1="257.913" x2="382.211" y2="257.913" gradientUnits="userSpaceOnUse">
<stop stop-color="#2A1B42"/>
<stop offset="1" stop-color="#4D3077"/>
</linearGradient>
<linearGradient id="paint1_linear_277_1210" x1="36.6992" y1="193.3" x2="382.099" y2="193.3" gradientUnits="userSpaceOnUse">
<stop stop-color="#4D3077"/>
<stop offset="1" stop-color="#662D91"/>
</linearGradient>
<linearGradient id="paint2_linear_277_1210" x1="208.3" y1="242.75" x2="416.6" y2="242.75" gradientUnits="userSpaceOnUse">
<stop stop-color="#4D3077"/>
<stop offset="1" stop-color="#662D91"/>
</linearGradient>
<linearGradient id="paint3_linear_277_1210" x1="0" y1="242.65" x2="208.4" y2="242.65" gradientUnits="userSpaceOnUse">
<stop stop-color="#2A1B42"/>
<stop offset="1" stop-color="#4D3077"/>
</linearGradient>
</defs>
</svg>
