<svg width="60" height="58" viewBox="0 0 60 58" fill="none" xmlns="http://www.w3.org/2000/svg">
<path fill-rule="evenodd" clip-rule="evenodd" d="M57.0565 58.0002C55.8394 58.0002 54.862 57.0296 54.862 55.8209C54.862 54.6122 55.8394 53.6415 57.0565 53.6415C58.2736 53.6415 59.251 54.6122 59.251 55.8209C59.251 57.0296 58.2736 58.0002 57.0565 58.0002ZM55.9501 34.4303C54.733 34.4303 53.7371 33.4413 53.7371 32.2326C53.7371 31.0056 54.733 30.035 55.9501 30.035C57.1672 30.035 58.163 31.0239 58.163 32.2326C58.163 33.4413 57.1672 34.4303 55.9501 34.4303ZM55.9501 27.819C54.733 27.819 53.7371 26.83 53.7371 25.6213C53.7371 24.3943 54.733 23.4237 55.9501 23.4237C57.1672 23.4237 58.163 24.4126 58.163 25.6213C58.163 26.83 57.1672 27.819 55.9501 27.819ZM51.4689 23.8998V27.9289H46.9877V23.3138V22.9841C46.9877 22.4164 47.209 21.8487 47.6516 21.4275L52.8889 16.2629C53.5712 15.5853 54.6408 15.3473 55.5075 15.7868C56.9459 16.5193 57.1487 18.3141 56.0976 19.3397L51.4689 23.8998ZM55.5075 42.2869C54.6408 42.7265 53.5712 42.4884 52.8889 41.8108L47.6516 36.6463C47.209 36.2251 46.9877 35.6573 46.9877 35.0896V34.7599V30.1449H51.4689V34.1739L56.0976 38.7341C57.1487 39.7596 56.9459 41.5544 55.5075 42.2869ZM44.7564 20.9147V28.8812V36.8477L57.4807 49.4843C58.163 50.1619 58.4027 51.2241 57.9601 52.0665C57.2225 53.5133 55.3968 53.6965 54.3457 52.6709L40.9391 39.3384C40.4965 38.8989 40.2752 38.3311 40.2752 37.7634V36.8477V28.8812V20.9147V19.999C40.2752 19.4312 40.4965 18.8635 40.9391 18.424L49.1453 10.256C49.8461 9.56008 50.9157 9.322 51.7824 9.77984C53.2024 10.5307 53.4052 12.3255 52.3725 13.351L44.7564 20.9147ZM39.5929 16.9039C39.1503 17.3435 38.5786 17.5632 38.007 17.5632H37.0849H29.0815H21.0781H20.156C19.5844 17.5632 19.0127 17.3435 18.5701 16.9039L10.3454 8.71764C9.6631 8.04002 9.42336 6.97782 9.86595 6.13538C10.6036 4.7069 12.4293 4.50545 13.4619 5.53103L21.0596 13.0947H29.0631H37.0665L44.6088 5.58597C45.3096 4.89004 46.3792 4.65196 47.2459 5.10981C48.6659 5.86068 48.8687 7.65543 47.836 8.68101L39.5929 16.9039ZM37.1587 10.2194C36.7161 10.6589 36.1444 10.8787 35.5727 10.8787H35.2408H30.5568V6.42841H34.6507L39.2241 1.88657C39.9248 1.19064 40.9944 0.952561 41.8611 1.41041C43.2811 2.16128 43.4839 3.95603 42.4512 4.98161L37.1587 10.2194ZM32.4009 4.41388C31.1838 4.41388 30.188 3.42493 30.188 2.21622C30.188 0.989189 31.1838 0.0185547 32.4009 0.0185547C33.618 0.0185547 34.6138 1.0075 34.6138 2.21622C34.6322 3.42493 33.6364 4.41388 32.4009 4.41388ZM23.3095 10.8787C22.7378 10.8787 22.1661 10.6589 21.7235 10.2194L16.4863 4.99992C15.804 4.32231 15.5642 3.26011 16.0068 2.41767C16.7445 0.989189 18.5701 0.787737 19.6028 1.81331L24.2315 6.41009H28.3254V10.8604H23.6414H23.3095V10.8787ZM25.7437 4.41388C24.5266 4.41388 23.5307 3.42493 23.5307 2.21622C23.5307 0.989189 24.5266 0.0185547 25.7437 0.0185547C26.9608 0.0185547 27.9566 1.0075 27.9566 2.21622C27.975 3.42493 26.9792 4.41388 25.7437 4.41388ZM17.8694 20.0173V20.933V28.8995V36.866V37.7817C17.8694 38.3495 17.6481 38.9172 17.2055 39.3567L8.99922 47.5247C8.29846 48.2206 7.22888 48.4587 6.36215 48.0009C4.94219 47.25 4.73934 45.4552 5.77204 44.4297L13.3882 36.866V28.8995V20.933L5.80892 13.4243C5.1266 12.7467 4.88687 11.6845 5.32946 10.842C6.0671 9.39525 7.89276 9.21211 8.9439 10.2377L17.2055 18.4606C17.6481 18.8818 17.8694 19.4496 17.8694 20.0173ZM10.4929 21.4275C10.9355 21.8487 11.1568 22.4164 11.1568 22.9841V23.3138V27.9289H6.65721V23.8998L2.08384 19.3946C1.38308 18.717 1.14334 17.6548 1.60437 16.7941C2.36045 15.3839 4.16767 15.2007 5.20037 16.2263L10.4929 21.4275ZM2.21292 23.4054C3.43003 23.4054 4.42585 24.3943 4.42585 25.603C4.42585 26.83 3.43003 27.8007 2.21292 27.8007C0.995815 27.8007 0 26.8117 0 25.603C0 24.3943 0.995815 23.4054 2.21292 23.4054ZM2.21292 30.0167C3.43003 30.0167 4.42585 31.0056 4.42585 32.2143C4.42585 33.4413 3.43003 34.412 2.21292 34.412C0.995815 34.412 0 33.423 0 32.2143C0 31.0056 0.995815 30.0167 2.21292 30.0167ZM6.65721 34.1739V30.1449H11.1384V34.7599V35.0896C11.1384 35.6573 10.9171 36.2251 10.4745 36.6463L5.23725 41.8108C4.55493 42.4884 3.48535 42.7265 2.61863 42.2869C1.18023 41.5544 0.977374 39.7596 2.02851 38.7341L6.65721 34.1739ZM18.5517 40.4556C18.9943 40.016 19.5659 39.7963 20.1376 39.7963H21.0596H29.0631H37.0665H37.9885C38.5602 39.7963 39.1319 40.016 39.5744 40.4556L52.9257 53.7331C53.6081 54.4107 53.8478 55.4729 53.4052 56.3154C52.6676 57.7438 50.8419 57.9453 49.8092 56.9197L37.0665 44.2465H29.0631H21.0596L13.5173 51.7552C12.8165 52.4511 11.7469 52.6892 10.8802 52.2314C9.46025 51.4805 9.25739 49.6857 10.2901 48.6602L18.5517 40.4556ZM21.7235 47.1218C22.1661 46.6823 22.7378 46.4625 23.3095 46.4625H23.6414H28.3254V50.9128H24.2315L19.6581 55.4546C18.9574 56.1505 17.8878 56.3886 17.0211 55.9308C15.6011 55.1799 15.3983 53.3851 16.431 52.3596L21.7235 47.1218ZM25.7437 53.4218C26.9608 53.4218 27.9566 54.4107 27.9566 55.6194C27.9566 56.8465 26.9608 57.8171 25.7437 57.8171C24.5266 57.8171 23.5307 56.8281 23.5307 55.6194C23.5307 54.4107 24.5266 53.4218 25.7437 53.4218ZM35.5727 46.4808C36.1444 46.4808 36.7161 46.7006 37.1587 47.1401L42.4144 52.3596C43.0967 53.0372 43.3364 54.0994 42.8938 54.9418C42.1562 56.3703 40.3305 56.5718 39.2978 55.5462L34.6691 50.9494H30.5752V46.4991H35.2592H35.5727V46.4808ZM32.4009 53.4218C33.618 53.4218 34.6138 54.4107 34.6138 55.6194C34.6138 56.8465 33.618 57.8171 32.4009 57.8171C31.1838 57.8171 30.188 56.8281 30.188 55.6194C30.188 54.4107 31.1838 53.4218 32.4009 53.4218Z" fill="#0644F9"/>
<path fill-rule="evenodd" clip-rule="evenodd" d="M51.4689 23.8998V27.9289H46.9877V23.3138V22.9841C46.9877 22.4164 47.209 21.8487 47.6516 21.4275L52.8889 16.263C53.5712 15.5853 54.6408 15.3473 55.5075 15.7868C56.9459 16.5193 57.1487 18.3141 56.0976 19.3397L51.4689 23.8998ZM55.5075 42.2869C54.6408 42.7265 53.5712 42.4884 52.8889 41.8108L47.6516 36.6463C47.209 36.2251 46.9877 35.6573 46.9877 35.0896V34.7599V30.1449H51.4689V34.1739L56.0976 38.7341C57.1487 39.7596 56.9459 41.5544 55.5075 42.2869ZM39.5929 16.9039C39.1503 17.3435 38.5786 17.5632 38.007 17.5632H37.0849H29.0815H21.0781H20.156C19.5844 17.5632 19.0127 17.3435 18.5701 16.9039L10.3454 8.71764C9.6631 8.04003 9.42336 6.97782 9.86595 6.13538C10.6036 4.7069 12.4293 4.50545 13.462 5.53103L21.0597 13.0947H29.0631H37.0665L44.6088 5.58597C45.3096 4.89004 46.3792 4.65196 47.2459 5.10981C48.6659 5.86068 48.8687 7.65544 47.836 8.68101L39.5929 16.9039ZM37.1587 10.2194C36.7161 10.6589 36.1444 10.8787 35.5727 10.8787H35.2408H30.5568V6.42841H34.6507L39.2241 1.88657C39.9248 1.19064 40.9944 0.952562 41.8611 1.41041C43.2811 2.16128 43.4839 3.95603 42.4512 4.98161L37.1587 10.2194ZM32.4009 4.41388C31.1838 4.41388 30.188 3.42493 30.188 2.21622C30.188 0.989189 31.1838 0.0185547 32.4009 0.0185547C33.618 0.0185547 34.6138 1.0075 34.6138 2.21622C34.6322 3.42493 33.6364 4.41388 32.4009 4.41388ZM23.3095 10.8787C22.7378 10.8787 22.1661 10.6589 21.7235 10.2194L16.4863 4.99992C15.804 4.32231 15.5642 3.26011 16.0068 2.41767C16.7445 0.989189 18.5701 0.787737 19.6028 1.81331L24.2315 6.41009H28.3254V10.8604H23.6414H23.3095V10.8787ZM25.7437 4.41388C24.5266 4.41388 23.5308 3.42493 23.5308 2.21622C23.5308 0.989189 24.5266 0.0185547 25.7437 0.0185547C26.9608 0.0185547 27.9566 1.0075 27.9566 2.21622C27.975 3.42493 26.9792 4.41388 25.7437 4.41388ZM17.8694 20.0173V20.933V28.8995V36.866V37.7817C17.8694 38.3495 17.6481 38.9172 17.2055 39.3567L8.99922 47.5247C8.29846 48.2206 7.22888 48.4587 6.36215 48.0009C4.9422 47.25 4.73934 45.4552 5.77204 44.4297L13.3882 36.866V28.8995V20.933L5.80892 13.4243C5.12661 12.7467 4.88687 11.6845 5.32946 10.842C6.0671 9.39525 7.89276 9.21211 8.9439 10.2377L17.2055 18.4606C17.6481 18.8818 17.8694 19.4496 17.8694 20.0173ZM10.4929 21.4275C10.9355 21.8487 11.1568 22.4164 11.1568 22.9841V23.3138V27.9289H6.65721V23.8998L2.08384 19.3946C1.38308 18.717 1.14334 17.6548 1.60437 16.7941C2.36045 15.3839 4.16767 15.2007 5.20037 16.2263L10.4929 21.4275ZM2.21292 23.4054C3.43003 23.4054 4.42585 24.3943 4.42585 25.603C4.42585 26.83 3.43003 27.8007 2.21292 27.8007C0.995816 27.8007 0 26.8117 0 25.603C0 24.3943 0.995816 23.4054 2.21292 23.4054ZM2.21292 30.0167C3.43003 30.0167 4.42585 31.0056 4.42585 32.2143C4.42585 33.4413 3.43003 34.412 2.21292 34.412C0.995816 34.412 0 33.423 0 32.2143C0 31.0056 0.995816 30.0167 2.21292 30.0167ZM6.65721 34.1739V30.1449H11.1384V34.7599V35.0896C11.1384 35.6573 10.9171 36.2251 10.4745 36.6463L5.23725 41.8108C4.55493 42.4884 3.48535 42.7265 2.61863 42.2869C1.18023 41.5544 0.977374 39.7596 2.02851 38.7341L6.65721 34.1739ZM18.5517 40.4556C18.9943 40.016 19.5659 39.7963 20.1376 39.7963H21.0597H29.0631H37.0665H37.9885C38.5602 39.7963 39.1319 40.016 39.5744 40.4556L52.9257 53.7331C53.6081 54.4107 53.8478 55.4729 53.4052 56.3154C52.6676 57.7438 50.8419 57.9453 49.8092 56.9197L37.0665 44.2465H29.0631H21.0597L13.5173 51.7552C12.8165 52.4511 11.7469 52.6892 10.8802 52.2314C9.46025 51.4805 9.2574 49.6857 10.2901 48.6602L18.5517 40.4556ZM21.7235 47.1218C22.1661 46.6823 22.7378 46.4625 23.3095 46.4625H23.6414H28.3254V50.9128H24.2315L19.6581 55.4546C18.9574 56.1505 17.8878 56.3886 17.0211 55.9308C15.6011 55.1799 15.3983 53.3851 16.431 52.3596L21.7235 47.1218ZM25.7437 53.4218C26.9608 53.4218 27.9566 54.4107 27.9566 55.6194C27.9566 56.8465 26.9608 57.8171 25.7437 57.8171C24.5266 57.8171 23.5308 56.8282 23.5308 55.6194C23.5308 54.4107 24.5266 53.4218 25.7437 53.4218ZM35.5727 46.4808C36.1444 46.4808 36.7161 46.7006 37.1587 47.1401L42.4144 52.3596C43.0967 53.0372 43.3364 54.0994 42.8938 54.9418C42.1562 56.3703 40.3305 56.5718 39.2978 55.5462L34.6691 50.9494H30.5752V46.4991H35.2592H35.5727V46.4808ZM32.4009 53.4218C33.618 53.4218 34.6138 54.4107 34.6138 55.6194C34.6138 56.8465 33.618 57.8171 32.4009 57.8171C31.1838 57.8171 30.188 56.8282 30.188 55.6194C30.188 54.4107 31.1838 53.4218 32.4009 53.4218Z" fill="#0644F9"/>
</svg>
