<svg width="1000" height="1000" viewBox="0 0 1000 1000" fill="none" xmlns="http://www.w3.org/2000/svg">
<path d="M204.43 160.96C204.402 160.989 204.383 161.025 204.376 161.064C204.369 161.104 204.374 161.144 204.39 161.181C204.406 161.218 204.433 161.248 204.467 161.27C204.501 161.291 204.54 161.302 204.58 161.3C314.694 161.387 424.667 161.497 534.5 161.63C547.66 161.65 556.41 161.723 560.75 161.85C607.57 163.26 653.66 176.3 691.95 202.74C741.04 236.63 770.86 290.04 780.57 348.73C789.69 403.88 777.34 459.6 745.1 505.37C730.834 525.623 712.37 542.15 689.71 554.95C678.337 561.383 666.44 566.407 654.02 570.02C643.967 572.94 633.61 574.333 622.95 574.2C622.591 574.194 622.248 574.051 621.99 573.8L501 452.8C500.607 452.407 500.687 452.213 501.24 452.22C504.8 452.24 509.87 452.267 516.45 452.3C522.837 452.333 527.87 452.013 531.55 451.34C547.67 448.4 561.01 440.877 571.57 428.77C584.42 414.04 590.17 394.68 587.45 375.27C583.34 345.86 560.25 322.32 530.78 317.76C527.094 317.193 520.417 316.907 510.75 316.9C380.544 316.773 310.114 316.713 299.46 316.72C290.914 316.72 284.26 316.407 279.5 315.78C255.867 312.653 234.98 303.587 216.84 288.58C213.72 286 208.894 281.437 202.36 274.89C162.414 234.937 124.757 197.287 89.3903 161.94C88.8703 161.413 88.9803 161.15 89.7203 161.15L177.27 161.24C177.508 161.24 177.742 161.188 177.957 161.088C178.171 160.987 178.36 160.841 178.51 160.66C196.384 138.787 216.414 118.87 238.6 100.91C245.207 95.5567 250.47 91.4601 254.39 88.6201C322.85 39.0601 399.237 12.3701 483.55 8.55006C509.43 7.37673 536.674 8.99673 565.28 13.4101C643.67 25.5001 715.96 60.2501 775.48 112.53C780.814 117.217 785.697 121.737 790.13 126.09C843.537 178.53 880.357 240.483 900.59 311.95C911.724 351.27 916.76 392.053 915.7 434.3C913.874 507.26 894.284 575.013 856.93 637.56C836.244 672.213 810.687 703.49 780.26 731.39C780.142 731.499 779.987 731.557 779.826 731.553C779.666 731.55 779.513 731.484 779.4 731.37L765.98 717.96C765.938 717.917 765.904 717.865 765.882 717.809C765.86 717.752 765.85 717.692 765.851 717.631C765.853 717.57 765.867 717.51 765.893 717.455C765.919 717.4 765.955 717.351 766 717.31C804.8 682.017 835.47 640.743 858.01 593.49C861.09 587.037 863.794 580.953 866.12 575.24C893.114 509.147 901.787 440.34 892.14 368.82C887.98 338 879.724 307.03 867.37 275.91C864.777 269.377 862.157 263.313 859.51 257.72C829.99 195.367 788.114 144.343 733.88 104.65C673.014 60.1034 604.207 34.9167 527.46 29.0901C521.694 28.6567 515.03 28.3867 507.47 28.2801C435.47 27.2801 368.357 44.1701 306.13 78.9501C268.02 100.24 233.49 128.4 204.43 160.96Z" fill="#FFFCDD"/>
<path d="M559.15 814.91C559.07 814.823 558.823 814.633 558.41 814.34C558.337 814.293 446.377 702.34 222.53 478.48C216.39 472.333 211.9 465.397 209.06 457.67C202.61 440.08 205.94 420.09 216.95 405.22C225.157 394.133 235.893 387.087 249.16 384.08C253.507 383.093 260.13 382.613 269.03 382.64C279.79 382.68 318.683 382.693 385.71 382.68C386.344 382.68 386.958 382.935 387.42 383.39L836.16 832.13C836.633 832.603 836.53 832.84 835.85 832.84C785.61 832.827 701.03 832.82 582.11 832.82C578.983 832.82 575.307 833.183 571.08 833.91C566.427 834.71 562.367 835.337 558.9 835.79C480.947 846.003 407.363 836.403 338.15 806.99C272.37 779.043 217.05 736.587 172.19 679.62C168.243 674.607 164.263 669.247 160.25 663.54C120.443 606.907 96.1733 543.83 87.44 474.31C83.4867 442.877 83.2033 411.54 86.59 380.3C90.85 340.987 100.38 303.193 115.18 266.92C118.747 258.18 122.28 250.083 125.78 242.63C125.8 242.59 125.829 242.555 125.864 242.529C125.9 242.502 125.941 242.484 125.984 242.476C126.027 242.468 126.07 242.471 126.112 242.484C126.153 242.497 126.19 242.519 126.22 242.55L140.72 257.34C140.9 257.52 140.937 257.723 140.83 257.95C122.343 297.81 110.867 339.677 106.4 383.55C105.7 390.423 105.197 397.067 104.89 403.48C101.29 479.133 117.62 549.99 153.88 616.05C157.02 621.763 160.407 627.503 164.04 633.27C202.08 693.65 252.577 740.66 315.53 774.3C321.583 777.533 327.55 780.497 333.43 783.19C404.783 815.91 479.94 826.727 558.9 815.64C558.977 815.629 559.048 815.598 559.108 815.548C559.167 815.499 559.212 815.433 559.238 815.359C559.263 815.284 559.269 815.203 559.253 815.124C559.238 815.045 559.202 814.971 559.15 814.91Z" fill="#FFFCDD"/>
<path d="M151.58 945.54C151.557 945.546 151.536 945.556 151.518 945.57C151.499 945.585 151.485 945.603 151.475 945.623C151.465 945.644 151.461 945.666 151.462 945.688C151.462 945.71 151.469 945.731 151.48 945.75L174.2 990.26C174.219 990.299 174.227 990.341 174.225 990.384C174.223 990.427 174.209 990.469 174.186 990.505C174.163 990.541 174.131 990.57 174.093 990.591C174.055 990.611 174.013 990.621 173.97 990.62L155.29 990.61C154.75 990.61 154.36 990.373 154.12 989.9C147.92 977.793 142.213 966.593 137 956.3C134.846 952.053 131.943 949.053 128.29 947.3C125.79 946.1 121.886 945.54 116.58 945.62C111.066 945.693 106.93 945.707 104.17 945.66C103.77 945.653 103.57 945.85 103.57 946.25V990.09C103.57 990.523 103.35 990.74 102.91 990.74L86.6498 990.75C86.2498 990.75 86.0498 990.55 86.0498 990.15L86.0598 893.2C86.0598 892.813 86.2531 892.62 86.6398 892.62C90.2465 892.6 109.096 892.577 143.19 892.55C149.463 892.55 153.956 893.04 156.67 894.02C170.09 898.9 177.94 913.91 172.95 927.8C169.49 937.427 162.366 943.34 151.58 945.54ZM103.66 911.01L103.68 927.45C103.68 927.543 103.698 927.635 103.734 927.72C103.77 927.806 103.822 927.883 103.888 927.949C103.954 928.014 104.033 928.065 104.119 928.1C104.205 928.134 104.297 928.151 104.39 928.15L147.74 928.07C150.14 928.065 152.44 927.12 154.133 925.443C155.827 923.767 156.775 921.496 156.77 919.13C156.767 917.959 156.531 916.799 156.073 915.718C155.616 914.637 154.947 913.655 154.105 912.828C153.263 912.002 152.264 911.347 151.165 910.901C150.066 910.456 148.888 910.227 147.7 910.23L104.35 910.31C104.166 910.313 103.99 910.388 103.861 910.519C103.732 910.65 103.66 910.826 103.66 911.01Z" fill="#FFFCDD"/>
<path d="M346.79 893.32C346.79 893.142 346.861 892.972 346.986 892.846C347.112 892.721 347.282 892.65 347.46 892.65L395.41 892.48C401.924 892.457 408.378 893.704 414.405 896.148C420.431 898.592 425.911 902.187 430.533 906.726C435.155 911.264 438.827 916.659 441.34 922.602C443.853 928.544 445.158 934.919 445.18 941.36V941.48C445.225 954.489 440.042 966.982 430.772 976.213C421.502 985.443 408.904 990.655 395.75 990.7L347.8 990.87C347.622 990.87 347.452 990.799 347.326 990.674C347.201 990.548 347.13 990.378 347.13 990.2L346.79 893.32ZM364.59 910.84L364.69 972.62C364.69 972.774 364.751 972.921 364.86 973.03C364.969 973.139 365.116 973.2 365.27 973.2L395.78 973.15C404.206 973.137 412.281 969.819 418.23 963.926C424.179 958.034 427.513 950.05 427.5 941.73V941.53C427.494 937.41 426.665 933.332 425.063 929.529C423.46 925.725 421.115 922.271 418.16 919.362C415.205 916.454 411.699 914.149 407.842 912.579C403.985 911.008 399.852 910.203 395.68 910.21L365.17 910.26C365.016 910.26 364.869 910.321 364.76 910.43C364.651 910.539 364.59 910.686 364.59 910.84Z" fill="#FFFCDD"/>
<path d="M504.21 892.62H487.53C487.254 892.62 487.03 892.844 487.03 893.12V990.18C487.03 990.456 487.254 990.68 487.53 990.68H504.21C504.486 990.68 504.71 990.456 504.71 990.18V893.12C504.71 892.844 504.486 892.62 504.21 892.62Z" fill="#FFFCDD"/>
<path d="M694.76 990.84L677.68 990.83C677.595 990.83 677.514 990.796 677.454 990.736C677.394 990.676 677.36 990.595 677.36 990.51L677.35 893.37C677.35 893.31 677.367 893.251 677.399 893.199C677.431 893.148 677.477 893.107 677.531 893.081C677.586 893.055 677.646 893.045 677.706 893.052C677.766 893.059 677.823 893.082 677.87 893.12L757.36 954.4C757.407 954.438 757.464 954.461 757.524 954.468C757.584 954.475 757.644 954.465 757.699 954.439C757.753 954.412 757.799 954.371 757.831 954.32C757.863 954.269 757.88 954.21 757.88 954.15L757.82 892.98C757.82 892.895 757.854 892.814 757.914 892.754C757.974 892.694 758.055 892.66 758.14 892.66L775.22 892.67C775.305 892.67 775.386 892.704 775.446 892.764C775.506 892.824 775.54 892.905 775.54 892.99L775.55 990.13C775.55 990.19 775.533 990.249 775.501 990.3C775.469 990.351 775.423 990.392 775.369 990.419C775.314 990.445 775.254 990.455 775.194 990.448C775.134 990.441 775.077 990.418 775.03 990.38L695.53 929.1C695.483 929.062 695.426 929.039 695.366 929.032C695.306 929.025 695.246 929.035 695.191 929.061C695.137 929.087 695.091 929.128 695.059 929.18C695.027 929.231 695.01 929.29 695.01 929.35L695.08 990.52C695.08 990.605 695.046 990.686 694.986 990.746C694.926 990.806 694.845 990.84 694.76 990.84Z" fill="#FFFCDD"/>
<path d="M260.72 931.86C260.64 931.86 260.566 931.877 260.5 931.91C260.446 931.937 260.4 931.987 260.36 932.06C251.226 950.08 241.336 969.493 230.69 990.3C230.623 990.429 230.522 990.538 230.396 990.614C230.271 990.69 230.127 990.73 229.98 990.73L211.16 990.78C211.1 990.78 211.041 990.765 210.988 990.736C210.936 990.706 210.892 990.663 210.861 990.611C210.83 990.559 210.813 990.499 210.811 990.438C210.809 990.376 210.822 990.315 210.85 990.26C227.45 957.7 243.97 925.29 260.41 893.03C260.47 892.917 260.573 892.86 260.72 892.86C260.86 892.86 260.96 892.917 261.02 893.03C277.466 925.29 293.99 957.697 310.59 990.25C310.617 990.305 310.63 990.366 310.628 990.428C310.626 990.489 310.609 990.549 310.578 990.601C310.547 990.653 310.503 990.696 310.451 990.726C310.398 990.755 310.34 990.77 310.28 990.77L291.46 990.73C291.312 990.73 291.168 990.69 291.043 990.614C290.917 990.538 290.816 990.429 290.75 990.3C280.103 969.493 270.213 950.08 261.08 932.06C261.04 931.987 260.993 931.937 260.94 931.91C260.873 931.877 260.8 931.86 260.72 931.86Z" fill="#FFFCDD"/>
<path d="M591.06 892.85C591.206 892.85 591.32 892.927 591.4 893.08C597.693 905.453 614.19 937.813 640.89 990.16C640.921 990.223 640.935 990.293 640.933 990.363C640.93 990.433 640.909 990.501 640.873 990.56C640.837 990.619 640.786 990.668 640.726 990.701C640.666 990.735 640.598 990.751 640.53 990.75H621.93C621.747 990.751 621.567 990.699 621.41 990.602C621.253 990.505 621.125 990.366 621.04 990.2C611.12 970.873 601.253 951.497 591.44 932.07C591.36 931.91 591.233 931.83 591.06 931.83C590.886 931.83 590.76 931.91 590.68 932.07C580.86 951.497 570.99 970.87 561.07 990.19C560.985 990.356 560.857 990.495 560.7 990.592C560.543 990.689 560.363 990.741 560.18 990.74H541.58C541.511 990.741 541.444 990.725 541.383 990.691C541.323 990.658 541.273 990.609 541.237 990.55C541.201 990.491 541.18 990.423 541.177 990.353C541.174 990.283 541.189 990.213 541.22 990.15C567.926 937.81 584.43 905.453 590.73 893.08C590.81 892.927 590.92 892.85 591.06 892.85Z" fill="#FFFCDD"/>
<path d="M866.4 892.71C897.287 892.717 913.417 892.74 914.79 892.78C915.217 892.793 915.43 892.953 915.43 893.26L915.42 909.7C915.42 909.862 915.356 910.017 915.241 910.131C915.127 910.246 914.972 910.31 914.81 910.31L875.73 910.28C875.597 910.28 875.47 910.332 875.376 910.424C875.283 910.515 875.23 910.64 875.23 910.77V990.23C875.23 990.59 875.047 990.77 874.68 990.77C871.947 990.757 869.177 990.75 866.37 990.75C863.57 990.75 860.803 990.753 858.07 990.76C857.703 990.76 857.52 990.58 857.52 990.22L857.57 910.76C857.57 910.63 857.517 910.505 857.423 910.414C857.33 910.322 857.202 910.27 857.07 910.27L817.99 910.28C817.91 910.28 817.83 910.264 817.756 910.234C817.682 910.203 817.615 910.158 817.559 910.101C817.502 910.045 817.457 909.978 817.426 909.904C817.396 909.829 817.38 909.75 817.38 909.67V893.23C817.38 892.923 817.593 892.763 818.02 892.75C819.393 892.71 835.52 892.697 866.4 892.71Z" fill="#FFFCDD"/>
<path d="M103.66 911.01C103.66 910.826 103.733 910.65 103.862 910.519C103.991 910.388 104.166 910.313 104.35 910.31L147.7 910.23C148.889 910.227 150.066 910.455 151.165 910.901C152.264 911.347 153.263 912.002 154.105 912.828C154.948 913.655 155.616 914.637 156.074 915.718C156.531 916.799 156.768 917.959 156.77 919.13C156.775 921.496 155.827 923.767 154.134 925.443C152.44 927.12 150.14 928.065 147.74 928.07L104.39 928.15C104.297 928.151 104.205 928.134 104.119 928.1C104.033 928.065 103.955 928.014 103.889 927.949C103.823 927.883 103.77 927.806 103.734 927.72C103.699 927.635 103.68 927.543 103.68 927.45L103.66 911.01Z" fill="black"/>
<path d="M364.59 910.84C364.59 910.686 364.651 910.539 364.76 910.43C364.869 910.321 365.016 910.26 365.17 910.26L395.68 910.21C399.852 910.203 403.985 911.008 407.842 912.579C411.699 914.149 415.205 916.454 418.16 919.362C421.114 922.271 423.46 925.725 425.063 929.529C426.665 933.332 427.493 937.41 427.5 941.53V941.73C427.513 950.05 424.178 958.034 418.23 963.926C412.281 969.819 404.206 973.137 395.78 973.15L365.27 973.2C365.116 973.2 364.968 973.139 364.86 973.03C364.751 972.921 364.69 972.774 364.69 972.62L364.59 910.84Z" fill="black"/>
</svg>
