<svg width="48" height="21" viewBox="0 0 48 21" fill="none" xmlns="http://www.w3.org/2000/svg">
<g clip-path="url(#clip0_148_1205)">
<path d="M10.7451 0.256836C13.4576 0.794336 12.1601 4.65434 9.77507 3.53684C9.02757 3.18684 8.68007 2.35434 8.88257 1.55184C9.05257 0.885169 9.52674 0.453503 10.3051 0.256836H10.7451Z" fill="#DF012D"/>
<path d="M45.775 0.256836C48.3475 0.756836 47.3125 4.46434 44.955 3.60934C43.235 2.98434 43.585 0.699336 45.31 0.256836H45.775Z" fill="#DF012D"/>
<path d="M0 7.33424V4.75174L1.515 4.74924C1.61 4.74924 1.6575 4.70174 1.6575 4.60674L1.66 2.37674C1.66 2.27174 1.7125 2.21924 1.8175 2.21924L4.875 2.22174C4.98667 2.22174 5.0425 2.27757 5.0425 2.38924L5.0325 4.59174C5.0325 4.69007 5.08167 4.73924 5.18 4.73924L7.3225 4.73424C7.36451 4.73423 7.40483 4.75075 7.43476 4.78021C7.4647 4.80968 7.48184 4.84974 7.4825 4.89174L7.5075 7.13424C7.50783 7.16005 7.50297 7.18568 7.49319 7.20962C7.48341 7.23357 7.46892 7.25536 7.45054 7.27373C7.43217 7.2921 7.41029 7.30669 7.38616 7.31665C7.36204 7.32661 7.33615 7.33174 7.31 7.33174L5.1775 7.33424C5.07917 7.33424 5.03 7.38424 5.03 7.48424C5.04 8.7159 5.04167 9.93674 5.035 11.1467C5.03167 11.5667 5.10167 11.9642 5.245 12.3392C5.285 12.4426 5.35333 12.5217 5.45 12.5767C5.97833 12.8701 6.60083 12.8959 7.3175 12.6542C7.32154 12.6531 7.32579 12.6527 7.32993 12.6533C7.33406 12.6538 7.33797 12.6552 7.34135 12.6574C7.34474 12.6596 7.3475 12.6625 7.34943 12.6658C7.35137 12.6692 7.35241 12.6729 7.3525 12.6767L7.3975 15.1217C7.3975 15.1751 7.37167 15.2084 7.32 15.2217C4.3775 15.9792 1.6575 15.3542 1.67 11.7242C1.675 10.4076 1.6775 8.99424 1.6775 7.48424C1.6775 7.3909 1.63083 7.34424 1.5375 7.34424L0 7.33424Z" fill="#DF012D"/>
<path d="M17.1202 5.98674C18.1502 4.60008 19.5719 4.13008 21.3852 4.57674C22.1952 4.77674 22.8219 5.27841 23.2652 6.08174C23.2713 6.09326 23.2803 6.10296 23.2913 6.10995C23.3024 6.11695 23.3151 6.121 23.3283 6.12175C23.3415 6.1225 23.3547 6.11991 23.3669 6.11423C23.379 6.10855 23.3896 6.09995 23.3977 6.08924C24.386 4.72091 25.7652 4.18841 27.5352 4.49174C29.5927 4.84674 30.4877 6.81674 30.4802 8.75674C30.4719 10.9017 30.476 12.9859 30.4927 15.0092C30.4927 15.1242 30.4352 15.1817 30.3202 15.1817H27.1752C27.0669 15.1817 27.0135 15.1276 27.0152 15.0192C27.0285 13.1176 27.0285 11.1592 27.0152 9.14424C27.0102 8.45424 26.7977 7.54924 26.0477 7.34424C24.5902 6.93924 23.7902 8.21924 23.7902 9.49424C23.7885 11.3259 23.7885 13.1701 23.7902 15.0267C23.7902 15.1301 23.7385 15.1817 23.6352 15.1817H20.5002C20.3952 15.1834 20.3427 15.1317 20.3427 15.0267C20.361 12.9501 20.3602 10.9201 20.3402 8.93674C20.3302 7.95924 19.7577 7.14424 18.6752 7.27424C17.5502 7.40674 17.1452 8.51424 17.1477 9.51674C17.151 11.3384 17.1519 13.1751 17.1502 15.0267C17.1502 15.1301 17.0985 15.1817 16.9952 15.1817L13.8002 15.1842C13.7052 15.1842 13.6577 15.1367 13.6577 15.0417L13.6602 4.82924C13.6602 4.79079 13.6752 4.7539 13.702 4.72671C13.7287 4.69952 13.7649 4.68424 13.8027 4.68424L16.8902 4.69174C16.9088 4.69174 16.9272 4.69544 16.9444 4.70263C16.9615 4.70982 16.9771 4.72036 16.9901 4.73363C17.0031 4.74689 17.0134 4.76262 17.0203 4.7799C17.0272 4.79717 17.0305 4.81565 17.0302 4.83424L17.0077 5.94674C17.0044 6.07841 17.0419 6.09174 17.1202 5.98674Z" fill="#DF012D"/>
<path d="M34.905 20.2568H31.4775L31.4825 4.82679C31.4825 4.73179 31.53 4.68429 31.625 4.68429L34.6275 4.69179C34.7142 4.69179 34.7567 4.73512 34.755 4.82179L34.74 5.80179C34.7367 5.96012 34.7892 5.98179 34.8975 5.86679C35.8375 4.85179 36.9725 4.34929 38.35 4.41429C44.9925 4.72679 44.5275 15.8893 37.8275 15.4718C36.6709 15.4001 35.7425 14.966 35.0425 14.1693C34.9475 14.061 34.9 14.0793 34.9 14.2243L34.905 20.2568ZM37.2689 12.6317C37.932 12.6375 38.5703 12.358 39.0435 11.8549C39.5168 11.3517 39.7862 10.666 39.7924 9.94861C39.7955 9.5934 39.7339 9.2411 39.6112 8.91183C39.4884 8.58256 39.3069 8.28276 39.0769 8.02956C38.847 7.77636 38.5731 7.57471 38.271 7.43613C37.9689 7.29755 37.6444 7.22475 37.3161 7.22189C36.6531 7.2161 36.0148 7.49553 35.5415 7.99871C35.0683 8.50188 34.7989 9.18758 34.7926 9.90496C34.7895 10.2602 34.8511 10.6125 34.9739 10.9417C35.0967 11.271 35.2782 11.5708 35.5081 11.824C35.7381 12.0772 36.0119 12.2789 36.3141 12.4174C36.6162 12.556 36.9406 12.6288 37.2689 12.6317Z" fill="#DF012D"/>
<path d="M12.1727 4.69189H8.9227C8.86885 4.69189 8.8252 4.73555 8.8252 4.78939V15.0894C8.8252 15.1432 8.86885 15.1869 8.9227 15.1869H12.1727C12.2265 15.1869 12.2702 15.1432 12.2702 15.0894V4.78939C12.2702 4.73555 12.2265 4.69189 12.1727 4.69189Z" fill="#DF012D"/>
<path d="M47.2125 4.69189H43.9275C43.8764 4.69189 43.835 4.73331 43.835 4.78439V15.0944C43.835 15.1455 43.8764 15.1869 43.9275 15.1869H47.2125C47.2635 15.1869 47.305 15.1455 47.305 15.0944V4.78439C47.305 4.73331 47.2635 4.69189 47.2125 4.69189Z" fill="#DF012D"/>
</g>
<defs>
<clipPath id="clip0_148_1205">
<rect width="47.5" height="20" fill="white" transform="translate(0 0.256836)"/>
</clipPath>
</defs>
</svg>
