<svg width="33" height="33" viewBox="0 0 33 33" fill="none" xmlns="http://www.w3.org/2000/svg">
<mask id="mask0_277_919" style="mask-type:luminance" maskUnits="userSpaceOnUse" x="0" y="0" width="33" height="33">
<path d="M16.4997 32.9995C25.6123 32.9995 32.9995 25.6123 32.9995 16.4997C32.9995 7.38719 25.6123 0 16.4997 0C7.38719 0 0 7.38719 0 16.4997C0 25.6123 7.38719 32.9995 16.4997 32.9995Z" fill="white"/>
</mask>
<g mask="url(#mask0_277_919)">
<path d="M16.4997 32.9995C25.6123 32.9995 32.9995 25.6123 32.9995 16.4997C32.9995 7.38719 25.6123 0 16.4997 0C7.38719 0 0 7.38719 0 16.4997C0 25.6123 7.38719 32.9995 16.4997 32.9995Z" fill="white"/>
</g>
<mask id="mask1_277_919" style="mask-type:luminance" maskUnits="userSpaceOnUse" x="0" y="0" width="33" height="33">
<path d="M16.4997 32.9995C25.6123 32.9995 32.9995 25.6123 32.9995 16.4997C32.9995 7.38719 25.6123 0 16.4997 0C7.38719 0 0 7.38719 0 16.4997C0 25.6123 7.38719 32.9995 16.4997 32.9995Z" fill="white"/>
</mask>
<g mask="url(#mask1_277_919)">
<path d="M27.7674 4.44641L16.5083 20.1624L12.0328 14.3921H4.74791L2.7491 16.7483H6.50958L15.6036 28.6256C15.9071 28.9141 16.2087 29.0584 16.5083 29.0584C16.8079 29.0584 17.0936 28.9141 17.3653 28.6256L31.285 9.16775C32.3824 11.3765 32.9995 13.866 32.9995 16.4997C32.9995 25.6122 25.6123 32.9994 16.4997 32.9994C7.38719 32.9994 0 25.6122 0 16.4997C0 7.38717 7.38719 0 16.4997 0C20.8562 0 24.8183 1.68835 27.7674 4.44641Z" fill="#048652"/>
</g>
</svg>
