<svg width="44" height="51" viewBox="0 0 44 51" fill="none" xmlns="http://www.w3.org/2000/svg">
<path d="M21.6667 22.4438L0 35.156V42.1425L21.6667 29.4305L43.3333 42.1425V35.156L21.6667 22.4438Z" fill="#0D67A7"/>
<path d="M6.3308 14.7339L21.6674 5.88629L37.0037 14.7339L42.7294 12.4077L21.6674 0.256836L0.605469 12.4077L6.3308 14.7339Z" fill="#2DB9F1"/>
<path d="M37.003 16.2123V35.7774L34.7251 37.0917L39.5629 39.9299L43.3333 37.7546V13.6405L37.003 16.2123ZM8.60823 37.0917L6.31162 35.7666V16.2048L0 13.6404V37.7546L3.77036 39.9299L8.60823 37.0917Z" fill="#0D67A7"/>
<path d="M33.3746 37.873L21.6666 44.6275L9.95848 37.873L5.12061 40.7114L21.6666 50.2568L38.2124 40.7114L33.3746 37.873Z" fill="#2DB9F1"/>
</svg>
