<svg width="50" height="51" viewBox="0 0 50 51" fill="none" xmlns="http://www.w3.org/2000/svg">
<g clip-path="url(#clip0_148_1245)">
<mask id="mask0_148_1245" style="mask-type:luminance" maskUnits="userSpaceOnUse" x="0" y="0" width="50" height="51">
<path d="M50 0.256836H0V50.2568H50V0.256836Z" fill="white"/>
</mask>
<g mask="url(#mask0_148_1245)">
<path d="M50 0.256836H0V50.2568H50V0.256836Z" fill="#685E7A"/>
<path fill-rule="evenodd" clip-rule="evenodd" d="M27.3109 31.5652C25.6557 32.4477 23.7645 32.948 21.7561 32.948C15.2418 32.948 9.96094 27.6848 9.96094 21.1922C9.96094 14.6997 15.2418 9.43652 21.7561 9.43652C28.2705 9.43652 33.5514 14.6997 33.5514 21.1922C33.5514 23.5502 32.8547 25.7461 31.6555 27.5865L40.0391 37.2275L35.5822 41.0771L27.3109 31.5652ZM28.9643 21.1922C28.9643 25.16 25.7371 28.3764 21.7561 28.3764C17.7752 28.3764 14.5479 25.16 14.5479 21.1922C14.5479 17.2246 17.7752 14.0082 21.7561 14.0082C25.7371 14.0082 28.9643 17.2246 28.9643 21.1922Z" fill="white"/>
</g>
</g>
<defs>
<clipPath id="clip0_148_1245">
<rect y="0.256836" width="50" height="50" rx="25" fill="white"/>
</clipPath>
</defs>
</svg>
