<svg width="414" height="240" viewBox="0 0 414 240" fill="none" xmlns="http://www.w3.org/2000/svg">
<g clip-path="url(#clip0_274_375)">
<path d="M303.88 0C309.753 1.88 313.31 5.30333 314.55 10.27C315.17 12.7567 314.9 17.2167 313.74 23.65C310.873 39.57 309.2 49.1767 308.72 52.47C308.667 52.8633 308.833 53.0567 309.22 53.05H345.27C345.583 53.05 345.803 52.9033 345.93 52.61C348.323 46.9567 352.76 43.94 359.24 43.56C359.553 43.5467 359.75 43.3867 359.83 43.08C361.043 38.2333 363.697 34.95 367.79 33.23C374.07 30.6033 379.71 31.9267 384.71 37.2C384.815 37.3079 384.947 37.3847 385.092 37.4218C385.236 37.4589 385.388 37.4548 385.53 37.41C386.61 37.06 387.94 36.38 389.01 36.21C394.097 35.41 398.357 36.73 401.79 40.17C405.317 43.6967 406.61 48.05 405.67 53.23C405.61 53.55 405.723 53.79 406.01 53.95C410.03 56.1167 412.693 59.44 414 63.92V69.85C412.707 74.2433 410.1 77.5033 406.18 79.63C405.88 79.79 405.753 80.0367 405.8 80.37C407 88.2233 404.117 93.7167 397.15 96.85C393.717 98.3967 389.963 98.27 385.89 96.47C385.57 96.33 385.297 96.3933 385.07 96.66C383.597 98.3667 381.803 99.7467 379.69 100.8C379.377 100.953 379.19 101.2 379.13 101.54C366.343 174.22 359.757 211.573 359.37 213.6C358.343 219.033 355.56 222.687 351.02 224.56C348.867 225.453 344.733 225.9 338.62 225.9C305.127 225.907 287.637 225.91 286.15 225.91C282.37 225.903 279.533 225.467 277.64 224.6C273.493 222.68 270.773 219.38 269.48 214.7C268.927 212.687 269.057 209.733 269.87 205.84C270.097 204.773 270.867 200.43 272.18 192.81C272.24 192.463 272.093 192.29 271.74 192.29L189.72 192.03C189.393 192.03 189.173 192.183 189.06 192.49C186.633 199.257 181.693 202.64 174.24 202.64C150.527 202.633 130.303 202.633 113.57 202.64C113.223 202.64 113.02 202.81 112.96 203.15C111.907 208.963 110.78 215.76 109.58 223.54C108.86 228.213 107.88 231.53 106.64 233.49C104.693 236.59 101.723 238.76 97.73 240H11.21C5.41667 238.353 1.68 234.627 0 228.82V222.9C11.12 160.567 22.15 98.2733 33.09 36.02C33.9233 31.26 36.5533 27.69 40.98 25.31C42.76 24.35 45.2133 23.9 48.34 23.96C50.6667 24 76.89 24.01 127.01 23.99C130.737 23.99 133.71 24.8833 135.93 26.67C139.183 29.2967 141.077 32.6233 141.61 36.65C141.79 38.0633 141.517 40.6333 140.79 44.36C140.343 46.6667 139.943 49.0667 139.59 51.56C139.543 51.8867 139.677 52.05 139.99 52.05L200.52 52.28C200.84 52.28 201.03 52.1133 201.09 51.78C202.877 41.8333 204.91 30.0967 207.19 16.57C208.01 11.69 208.993 8.33667 210.14 6.51C212.1 3.38333 215.107 1.21333 219.16 0H303.88ZM246.32 145.36C246.308 145.429 246.273 145.492 246.22 145.537C246.167 145.583 246.1 145.609 246.03 145.61L233.38 145.6C233.336 145.601 233.292 145.592 233.252 145.573C233.212 145.555 233.177 145.529 233.148 145.495C233.119 145.462 233.098 145.423 233.087 145.38C233.075 145.338 233.073 145.293 233.08 145.25L250.36 47.11C250.372 47.0411 250.407 46.9784 250.46 46.9327C250.513 46.8871 250.58 46.8614 250.65 46.86H263.32C263.364 46.8594 263.408 46.8684 263.448 46.8865C263.488 46.9046 263.523 46.9313 263.552 46.9647C263.581 46.9981 263.602 47.0374 263.613 47.0798C263.625 47.1222 263.627 47.1666 263.62 47.21L256.76 86.11C256.753 86.1534 256.755 86.1978 256.767 86.2402C256.778 86.2826 256.799 86.3219 256.828 86.3553C256.857 86.3887 256.892 86.4154 256.932 86.4335C256.972 86.4516 257.016 86.4606 257.06 86.46H289.19C289.26 86.4586 289.327 86.4329 289.38 86.3873C289.433 86.3416 289.468 86.2789 289.48 86.21L302.09 14.63C302.097 14.5866 302.095 14.5422 302.083 14.4998C302.072 14.4574 302.051 14.4181 302.022 14.3847C301.993 14.3513 301.958 14.3246 301.918 14.3065C301.878 14.2884 301.834 14.2794 301.79 14.28H223.66C223.59 14.2814 223.523 14.3071 223.47 14.3527C223.417 14.3984 223.382 14.4611 223.37 14.53L194.59 177.91C194.583 177.953 194.585 177.998 194.597 178.04C194.608 178.083 194.629 178.122 194.658 178.155C194.687 178.189 194.722 178.215 194.762 178.233C194.802 178.252 194.846 178.261 194.89 178.26H273.03C273.1 178.259 273.167 178.233 273.22 178.187C273.273 178.142 273.308 178.079 273.32 178.01L286.71 99.62C286.717 99.5766 286.715 99.5322 286.703 99.4898C286.692 99.4474 286.671 99.4081 286.642 99.3747C286.613 99.3413 286.578 99.3146 286.538 99.2965C286.498 99.2784 286.454 99.2694 286.41 99.27L254.7 99.28C254.63 99.2814 254.563 99.3071 254.51 99.3527C254.457 99.3984 254.422 99.4611 254.41 99.53L246.32 145.36ZM70.22 179.33C70.2753 179.33 70.3298 179.343 70.3796 179.367C70.4294 179.391 70.4731 179.426 70.5077 179.469C70.5422 179.512 70.5666 179.562 70.5791 179.616C70.5917 179.67 70.592 179.726 70.58 179.78L67.95 192.44C67.9318 192.522 67.8863 192.595 67.8209 192.648C67.7554 192.701 67.674 192.73 67.59 192.73H21.46C21.3732 192.731 21.2895 192.763 21.2237 192.82C21.1579 192.876 21.1141 192.954 21.1 193.04L15.45 225.65C15.4414 225.703 15.4442 225.756 15.4582 225.808C15.4723 225.859 15.4972 225.907 15.5314 225.948C15.5656 225.988 15.6082 226.021 15.6562 226.044C15.7043 226.067 15.7568 226.079 15.81 226.08H95.61C95.6968 226.079 95.7805 226.047 95.8463 225.99C95.9121 225.934 95.9559 225.856 95.97 225.77L128.58 38.71C128.589 38.6575 128.586 38.6037 128.572 38.5523C128.558 38.501 128.533 38.4533 128.499 38.4124C128.464 38.3716 128.422 38.3387 128.374 38.3158C128.326 38.2929 128.273 38.2807 128.22 38.28H95.84C95.7546 38.2808 95.6721 38.3111 95.6065 38.3657C95.5408 38.4204 95.4962 38.4961 95.48 38.58L76.18 145.7C76.1638 145.784 76.1192 145.86 76.0536 145.914C75.9879 145.969 75.9054 145.999 75.82 146L63.43 145.99C63.3758 145.99 63.3223 145.977 63.2734 145.954C63.2245 145.93 63.1813 145.896 63.1469 145.854C63.1126 145.812 63.0879 145.763 63.0746 145.711C63.0613 145.658 63.0597 145.603 63.07 145.55L82.3 38.72C82.3103 38.6667 82.3087 38.6119 82.2954 38.5593C82.2821 38.5067 82.2574 38.4577 82.223 38.4157C82.1887 38.3737 82.1455 38.3398 82.0966 38.3163C82.0477 38.2929 81.9942 38.2805 81.94 38.28H48.79C48.7032 38.2812 48.6195 38.3129 48.5537 38.3696C48.4879 38.4263 48.4441 38.5043 48.43 38.59L23.73 178.9C23.7214 178.953 23.7242 179.006 23.7382 179.058C23.7523 179.109 23.7772 179.157 23.8114 179.198C23.8456 179.238 23.8882 179.271 23.9362 179.294C23.9843 179.317 24.0368 179.329 24.09 179.33H70.22ZM368.82 66.95C368.862 66.9925 368.89 67.0465 368.901 67.1051C368.912 67.1637 368.905 67.2242 368.881 67.2789C368.858 67.3336 368.818 67.38 368.768 67.4123C368.718 67.4445 368.66 67.4612 368.6 67.46H346.49C346.42 67.4614 346.353 67.4871 346.3 67.5327C346.247 67.5784 346.212 67.6411 346.2 67.71L331.36 149.95C331.348 150.019 331.313 150.082 331.26 150.127C331.207 150.173 331.14 150.199 331.07 150.2H321.6C321.556 150.201 321.512 150.192 321.472 150.173C321.432 150.155 321.397 150.129 321.368 150.095C321.339 150.062 321.318 150.023 321.307 149.98C321.295 149.938 321.293 149.893 321.3 149.85L336.07 67.8C336.077 67.7566 336.075 67.7122 336.063 67.6698C336.052 67.6274 336.031 67.5881 336.002 67.5547C335.973 67.5213 335.938 67.4946 335.898 67.4765C335.858 67.4584 335.814 67.4494 335.77 67.45L310.35 67.46C310.28 67.4614 310.213 67.4871 310.16 67.5327C310.107 67.5784 310.072 67.6411 310.06 67.71L291.08 175.51C291.073 175.553 291.075 175.598 291.087 175.64C291.098 175.683 291.119 175.722 291.148 175.755C291.177 175.789 291.212 175.815 291.252 175.833C291.292 175.852 291.336 175.861 291.38 175.86H326.75C326.795 175.859 326.84 175.868 326.881 175.887C326.922 175.906 326.958 175.933 326.987 175.968C327.015 176.002 327.036 176.043 327.047 176.087C327.058 176.13 327.059 176.176 327.05 176.22L325.05 185.84C325.036 185.907 325 185.967 324.947 186.011C324.895 186.055 324.828 186.079 324.76 186.08H289.36C289.29 186.081 289.223 186.107 289.17 186.153C289.117 186.198 289.082 186.261 289.07 186.33L284.73 211.37C284.723 211.413 284.725 211.458 284.737 211.5C284.748 211.543 284.769 211.582 284.798 211.615C284.827 211.649 284.862 211.675 284.902 211.693C284.942 211.712 284.986 211.721 285.03 211.72H346.28C346.35 211.719 346.417 211.693 346.47 211.647C346.523 211.602 346.558 211.539 346.57 211.47L370.45 76.03C370.461 75.9643 370.493 75.904 370.542 75.8587C370.591 75.8135 370.654 75.7858 370.72 75.78L372.86 75.59C372.936 75.5842 373.012 75.608 373.072 75.6563C373.131 75.7047 373.17 75.774 373.18 75.85L375.02 87.29C375.031 87.3481 375.058 87.4019 375.099 87.4445C375.14 87.4871 375.192 87.5166 375.25 87.5294C375.308 87.5423 375.368 87.5377 375.423 87.5165C375.478 87.4953 375.526 87.4582 375.56 87.41L382.09 77.75C382.133 77.687 382.198 77.6427 382.272 77.626C382.346 77.6093 382.424 77.6215 382.49 77.66L392.57 83.48C392.622 83.5116 392.683 83.5264 392.744 83.5224C392.805 83.5184 392.864 83.4959 392.912 83.4578C392.959 83.4197 392.995 83.3679 393.012 83.3093C393.03 83.2507 393.029 83.1882 393.01 83.13L389.5 72.02C389.477 71.947 389.483 71.868 389.517 71.7993C389.55 71.7305 389.608 71.6771 389.68 71.65L400.53 67.33C400.587 67.3082 400.635 67.2698 400.67 67.2198C400.704 67.1698 400.722 67.1106 400.722 67.05C400.722 66.9894 400.704 66.9301 400.67 66.8802C400.635 66.8302 400.587 66.7918 400.53 66.77L389.63 62.56C389.558 62.5329 389.5 62.4795 389.467 62.4107C389.433 62.3419 389.427 62.263 389.45 62.19L392.81 51.08C392.826 51.0225 392.825 50.9615 392.806 50.9048C392.787 50.8481 392.752 50.7983 392.705 50.7618C392.657 50.7253 392.6 50.7037 392.541 50.6998C392.481 50.6959 392.422 50.7099 392.37 50.74L382.34 56.61C382.274 56.6486 382.196 56.6607 382.122 56.644C382.048 56.6273 381.983 56.583 381.94 56.52L375.27 46.86C375.236 46.808 375.187 46.7678 375.13 46.7447C375.073 46.7216 375.009 46.7169 374.949 46.7311C374.889 46.7453 374.835 46.7779 374.794 46.8242C374.752 46.8706 374.727 46.9285 374.72 46.99L373.11 58.57C373.1 58.646 373.061 58.7153 373.002 58.7637C372.942 58.812 372.866 58.8358 372.79 58.83L361.17 58.06C361.109 58.0545 361.047 58.0679 360.994 58.0985C360.94 58.1291 360.898 58.1754 360.872 58.231C360.845 58.2867 360.837 58.3491 360.847 58.4097C360.858 58.4704 360.887 58.5263 360.93 58.57L368.82 66.95ZM169.15 90.81C169.195 90.8094 169.24 90.8187 169.281 90.8373C169.323 90.856 169.359 90.8834 169.389 90.9177C169.419 90.952 169.44 90.9924 169.452 91.036C169.465 91.0796 169.467 91.1253 169.46 91.17L167.86 100.28C167.848 100.352 167.812 100.417 167.757 100.464C167.702 100.512 167.633 100.539 167.56 100.54H133.93C133.856 100.539 133.784 100.565 133.727 100.612C133.67 100.66 133.632 100.727 133.62 100.8L118.24 188.1C118.233 188.145 118.235 188.19 118.248 188.234C118.26 188.278 118.281 188.318 118.311 188.352C118.341 188.387 118.377 188.414 118.419 188.433C118.46 188.451 118.505 188.461 118.55 188.46H176.34C176.414 188.461 176.486 188.435 176.543 188.388C176.6 188.34 176.638 188.273 176.65 188.2L197.99 66.9C197.997 66.8553 197.995 66.8096 197.982 66.766C197.97 66.7224 197.949 66.682 197.919 66.6477C197.889 66.6134 197.853 66.5859 197.811 66.5673C197.77 66.5487 197.725 66.5394 197.68 66.54H139.92C139.846 66.539 139.774 66.5647 139.717 66.6125C139.66 66.6602 139.622 66.7267 139.61 66.8L135.44 90.44C135.433 90.4847 135.435 90.5304 135.448 90.574C135.46 90.6176 135.481 90.658 135.511 90.6923C135.541 90.7266 135.577 90.754 135.619 90.7727C135.66 90.7913 135.705 90.8006 135.75 90.8L169.15 90.81Z" fill="#2080C0"/>
<path d="M246.32 145.36L254.41 99.53C254.422 99.4611 254.457 99.3984 254.51 99.3527C254.563 99.3071 254.63 99.2814 254.7 99.28L286.41 99.27C286.454 99.2694 286.498 99.2784 286.538 99.2965C286.578 99.3146 286.613 99.3413 286.642 99.3747C286.671 99.4081 286.692 99.4474 286.703 99.4898C286.715 99.5322 286.717 99.5766 286.71 99.62L273.32 178.01C273.309 178.079 273.273 178.142 273.22 178.187C273.167 178.233 273.1 178.259 273.03 178.26H194.89C194.846 178.261 194.803 178.252 194.763 178.233C194.722 178.215 194.687 178.189 194.658 178.155C194.63 178.122 194.609 178.083 194.597 178.04C194.585 177.998 194.583 177.953 194.59 177.91L223.37 14.53C223.382 14.4611 223.417 14.3984 223.47 14.3527C223.523 14.3071 223.59 14.2814 223.66 14.28H301.79C301.834 14.2794 301.878 14.2884 301.918 14.3065C301.958 14.3246 301.993 14.3513 302.022 14.3847C302.051 14.4181 302.072 14.4574 302.083 14.4998C302.095 14.5422 302.097 14.5866 302.09 14.63L289.48 86.21C289.469 86.2789 289.433 86.3416 289.38 86.3873C289.327 86.4329 289.26 86.4586 289.19 86.46H257.06C257.016 86.4606 256.973 86.4516 256.932 86.4335C256.892 86.4154 256.857 86.3887 256.828 86.3553C256.8 86.3219 256.779 86.2826 256.767 86.2402C256.755 86.1978 256.753 86.1534 256.76 86.11L263.62 47.21C263.627 47.1666 263.625 47.1222 263.613 47.0798C263.602 47.0374 263.581 46.9981 263.552 46.9647C263.523 46.9313 263.488 46.9046 263.448 46.8865C263.408 46.8684 263.364 46.8594 263.32 46.86H250.65C250.58 46.8614 250.513 46.8871 250.46 46.9327C250.407 46.9784 250.372 47.0411 250.36 47.11L233.08 145.25C233.073 145.293 233.075 145.338 233.087 145.38C233.099 145.423 233.12 145.462 233.148 145.495C233.177 145.529 233.212 145.555 233.252 145.573C233.293 145.592 233.336 145.601 233.38 145.6L246.03 145.61C246.1 145.609 246.167 145.583 246.22 145.537C246.273 145.492 246.309 145.429 246.32 145.36Z" fill="#E9F3F9"/>
<path d="M70.2202 179.33H24.0902C24.037 179.329 23.9845 179.317 23.9365 179.294C23.8884 179.271 23.8458 179.238 23.8116 179.198C23.7774 179.157 23.7525 179.109 23.7384 179.058C23.7244 179.006 23.7216 178.953 23.7302 178.9L48.4302 38.59C48.4443 38.5043 48.4881 38.4263 48.5539 38.3696C48.6197 38.3129 48.7034 38.2812 48.7902 38.28H81.9402C81.9945 38.2805 82.0479 38.2929 82.0968 38.3163C82.1458 38.3398 82.1889 38.3737 82.2233 38.4157C82.2576 38.4577 82.2823 38.5067 82.2956 38.5593C82.3089 38.6119 82.3105 38.6667 82.3002 38.72L63.0702 145.55C63.06 145.603 63.0615 145.658 63.0748 145.711C63.0881 145.763 63.1128 145.812 63.1472 145.854C63.1815 145.896 63.2247 145.93 63.2736 145.954C63.3225 145.977 63.376 145.99 63.4302 145.99L75.8202 146C75.9056 145.999 75.9881 145.969 76.0538 145.914C76.1194 145.86 76.1641 145.784 76.1802 145.7L95.4802 38.58C95.4964 38.4961 95.541 38.4204 95.6067 38.3657C95.6723 38.3111 95.7548 38.2808 95.8402 38.28H128.22C128.273 38.2807 128.326 38.2929 128.374 38.3158C128.422 38.3387 128.465 38.3716 128.499 38.4124C128.533 38.4533 128.558 38.501 128.572 38.5523C128.586 38.6037 128.589 38.6575 128.58 38.71L95.9702 225.77C95.9561 225.856 95.9124 225.934 95.8465 225.99C95.7807 226.047 95.6971 226.079 95.6102 226.08H15.8102C15.757 226.079 15.7045 226.067 15.6565 226.044C15.6084 226.021 15.5658 225.988 15.5316 225.948C15.4974 225.907 15.4725 225.859 15.4584 225.808C15.4444 225.756 15.4416 225.703 15.4502 225.65L21.1002 193.04C21.1143 192.954 21.1581 192.876 21.2239 192.82C21.2897 192.763 21.3734 192.731 21.4602 192.73H67.5902C67.6742 192.73 67.7557 192.701 67.8211 192.648C67.8865 192.595 67.932 192.522 67.9502 192.44L70.5802 179.78C70.5922 179.726 70.5919 179.67 70.5794 179.616C70.5668 179.562 70.5424 179.512 70.5079 179.469C70.4734 179.426 70.4296 179.391 70.3798 179.367C70.33 179.343 70.2755 179.33 70.2202 179.33Z" fill="#E9F3F9"/>
<path d="M368.82 66.95L360.93 58.57C360.886 58.5263 360.858 58.4704 360.847 58.4097C360.837 58.3491 360.845 58.2867 360.871 58.2311C360.898 58.1754 360.94 58.1291 360.994 58.0985C361.047 58.0679 361.109 58.0545 361.17 58.06L372.79 58.83C372.866 58.8358 372.942 58.812 373.002 58.7637C373.061 58.7153 373.1 58.646 373.11 58.57L374.72 46.99C374.727 46.9285 374.752 46.8706 374.793 46.8242C374.834 46.7779 374.889 46.7453 374.949 46.7311C375.009 46.7169 375.072 46.7216 375.13 46.7447C375.187 46.7678 375.236 46.808 375.27 46.86L381.94 56.52C381.983 56.583 382.048 56.6273 382.122 56.644C382.196 56.6607 382.274 56.6486 382.34 56.61L392.37 50.74C392.421 50.7099 392.481 50.6959 392.54 50.6998C392.6 50.7037 392.657 50.7253 392.704 50.7618C392.752 50.7983 392.787 50.8481 392.806 50.9048C392.824 50.9615 392.826 51.0225 392.81 51.08L389.45 62.19C389.427 62.263 389.433 62.342 389.466 62.4107C389.5 62.4795 389.558 62.5329 389.63 62.56L400.53 66.77C400.586 66.7918 400.635 66.8302 400.669 66.8802C400.704 66.9302 400.722 66.9894 400.722 67.05C400.722 67.1106 400.704 67.1699 400.669 67.2198C400.635 67.2698 400.586 67.3082 400.53 67.33L389.68 71.65C389.608 71.6771 389.55 71.7305 389.516 71.7993C389.483 71.8681 389.477 71.947 389.5 72.02L393.01 83.13C393.029 83.1882 393.029 83.2507 393.012 83.3093C392.994 83.3679 392.959 83.4197 392.911 83.4578C392.863 83.4959 392.805 83.5184 392.744 83.5224C392.683 83.5264 392.622 83.5116 392.57 83.48L382.49 77.66C382.424 77.6215 382.346 77.6093 382.272 77.626C382.198 77.6427 382.133 77.6871 382.09 77.75L375.56 87.41C375.526 87.4582 375.478 87.4953 375.423 87.5165C375.368 87.5378 375.308 87.5423 375.25 87.5294C375.192 87.5166 375.14 87.4871 375.099 87.4445C375.058 87.4019 375.03 87.3481 375.02 87.29L373.18 75.85C373.17 75.774 373.131 75.7047 373.072 75.6563C373.012 75.608 372.936 75.5842 372.86 75.59L370.72 75.78C370.653 75.7858 370.591 75.8135 370.542 75.8587C370.493 75.904 370.461 75.9643 370.45 76.03L346.57 211.47C346.558 211.539 346.523 211.602 346.47 211.647C346.417 211.693 346.35 211.719 346.28 211.72H285.03C284.986 211.721 284.942 211.712 284.902 211.693C284.862 211.675 284.826 211.649 284.798 211.615C284.769 211.582 284.748 211.543 284.736 211.5C284.725 211.458 284.722 211.413 284.73 211.37L289.07 186.33C289.081 186.261 289.117 186.198 289.17 186.153C289.223 186.107 289.29 186.081 289.36 186.08H324.76C324.828 186.079 324.894 186.055 324.947 186.011C325 185.967 325.036 185.907 325.05 185.84L327.05 176.22C327.059 176.176 327.058 176.13 327.047 176.087C327.036 176.043 327.015 176.002 326.986 175.968C326.958 175.933 326.921 175.906 326.88 175.887C326.839 175.868 326.795 175.859 326.75 175.86H291.38C291.336 175.861 291.292 175.852 291.252 175.833C291.212 175.815 291.176 175.789 291.148 175.755C291.119 175.722 291.098 175.683 291.086 175.64C291.075 175.598 291.072 175.553 291.08 175.51L310.06 67.71C310.071 67.6411 310.107 67.5784 310.16 67.5327C310.213 67.4871 310.28 67.4614 310.35 67.46L335.77 67.45C335.814 67.4494 335.857 67.4585 335.897 67.4766C335.938 67.4947 335.973 67.5213 336.002 67.5547C336.03 67.5881 336.051 67.6274 336.063 67.6698C336.075 67.7122 336.077 67.7566 336.07 67.8L321.3 149.85C321.292 149.893 321.295 149.938 321.306 149.98C321.318 150.023 321.339 150.062 321.368 150.095C321.396 150.129 321.432 150.155 321.472 150.173C321.512 150.192 321.556 150.201 321.6 150.2H331.07C331.14 150.199 331.207 150.173 331.26 150.127C331.313 150.082 331.348 150.019 331.36 149.95L346.2 67.71C346.211 67.6411 346.247 67.5784 346.3 67.5327C346.353 67.4871 346.42 67.4614 346.49 67.46H368.6C368.659 67.4612 368.718 67.4446 368.768 67.4123C368.818 67.38 368.857 67.3336 368.881 67.2789C368.905 67.2242 368.911 67.1637 368.901 67.1051C368.89 67.0465 368.862 66.9925 368.82 66.95Z" fill="#E9F3F9"/>
<path d="M169.15 90.81L135.75 90.8C135.705 90.8006 135.66 90.7913 135.619 90.7727C135.578 90.7541 135.541 90.7266 135.511 90.6923C135.482 90.658 135.46 90.6176 135.448 90.574C135.436 90.5304 135.433 90.4847 135.44 90.44L139.61 66.8C139.622 66.7267 139.66 66.6602 139.717 66.6125C139.774 66.5647 139.846 66.539 139.92 66.54H197.68C197.726 66.5394 197.771 66.5487 197.812 66.5673C197.853 66.586 197.89 66.6134 197.919 66.6477C197.949 66.682 197.971 66.7224 197.983 66.766C197.995 66.8096 197.998 66.8553 197.99 66.9L176.65 188.2C176.638 188.273 176.601 188.34 176.544 188.388C176.487 188.435 176.415 188.461 176.34 188.46H118.55C118.505 188.461 118.46 188.451 118.419 188.433C118.378 188.414 118.341 188.387 118.311 188.352C118.282 188.318 118.26 188.278 118.248 188.234C118.236 188.19 118.233 188.145 118.24 188.1L133.62 100.8C133.632 100.727 133.67 100.66 133.727 100.612C133.784 100.565 133.856 100.539 133.93 100.54H167.56C167.633 100.539 167.703 100.512 167.757 100.464C167.812 100.417 167.849 100.352 167.86 100.28L169.46 91.17C169.468 91.1253 169.465 91.0796 169.453 91.036C169.441 90.9924 169.419 90.952 169.389 90.9177C169.36 90.8834 169.323 90.856 169.282 90.8374C169.241 90.8187 169.196 90.8094 169.15 90.81ZM163.39 125.17C163.399 125.123 163.397 125.074 163.385 125.028C163.373 124.981 163.351 124.938 163.321 124.901C163.291 124.864 163.252 124.833 163.209 124.813C163.166 124.792 163.118 124.781 163.07 124.78L153.71 124.79C153.632 124.789 153.556 124.815 153.496 124.865C153.436 124.914 153.395 124.983 153.38 125.06L146.72 163.79C146.712 163.837 146.713 163.886 146.725 163.932C146.737 163.979 146.759 164.022 146.79 164.059C146.82 164.096 146.858 164.127 146.902 164.147C146.945 164.168 146.992 164.179 147.04 164.18L156.4 164.17C156.478 164.171 156.554 164.145 156.615 164.095C156.675 164.046 156.716 163.977 156.73 163.9L163.39 125.17Z" fill="#E9F3F9"/>
<path d="M163.39 125.17L156.73 163.9C156.716 163.977 156.675 164.046 156.615 164.095C156.554 164.145 156.478 164.171 156.4 164.17L147.04 164.18C146.992 164.179 146.945 164.168 146.902 164.147C146.858 164.127 146.82 164.096 146.79 164.059C146.759 164.022 146.737 163.979 146.725 163.932C146.713 163.886 146.712 163.837 146.72 163.79L153.38 125.06C153.395 124.983 153.435 124.914 153.496 124.865C153.556 124.815 153.632 124.789 153.71 124.79L163.07 124.78C163.118 124.781 163.166 124.792 163.209 124.813C163.252 124.833 163.29 124.864 163.321 124.901C163.351 124.938 163.373 124.981 163.385 125.028C163.397 125.074 163.399 125.123 163.39 125.17Z" fill="#2080C0"/>
</g>
<defs>
<clipPath id="clip0_274_375">
<rect width="414" height="240" fill="white"/>
</clipPath>
</defs>
</svg>
