<svg width="249" height="249" viewBox="0 0 249 249" fill="none" xmlns="http://www.w3.org/2000/svg">
<path d="M126.976 0C127.894 0.0337056 128.812 0.07022 129.73 0.109543C147.5 0.867919 164.282 5.17942 180.076 13.0441C180.998 13.5028 181.835 13.9326 182.587 14.3333C195.485 21.1924 206.778 29.9348 216.464 40.5605C225.507 50.4811 232.735 61.4799 238.148 73.5568C244.531 87.7974 248.1 102.766 248.855 118.461C248.905 119.485 248.953 120.511 249 121.537V127.538C248.948 128.444 248.9 129.35 248.857 130.257C247.869 150.865 242.207 169.98 231.872 187.602C231.464 188.297 230.978 189.098 230.416 190.004C223.465 201.189 214.998 211.014 205.016 219.481C195.152 227.846 184.299 234.499 172.456 239.442C159.078 245.026 145.094 248.166 130.504 248.864C129.357 248.919 128.21 248.964 127.064 249H121.878C120.145 248.941 119.053 248.901 118.603 248.879C100.635 248.008 83.7982 243.563 68.0923 235.542C56.858 229.804 46.7417 222.564 37.7432 213.82C28.1863 204.534 20.0745 193.702 13.9373 181.833C5.64756 165.802 1.04487 148.727 0.129205 130.609C0.10018 130.027 0.0571122 128.874 0 127.15V121.87C0.0411957 120.758 0.0894134 119.646 0.144653 118.534C1.12586 98.7171 6.45087 80.2563 16.1197 63.1516C16.6459 62.2219 17.1159 61.412 17.5297 60.722C24.8569 48.5206 33.9476 37.8888 44.8017 28.8267C55.0979 20.2308 66.5451 13.4593 79.1435 8.51206C91.99 3.46746 105.412 0.662876 119.41 0.0983079C120.194 0.0664749 120.978 0.0337056 121.761 0H126.976ZM124.389 81.1673C123.641 80.4828 122.754 79.6299 121.729 78.6084C121.727 78.6056 119.232 76.1124 114.244 71.1286C113.64 70.5257 113.01 69.8909 112.353 69.2242C100.039 56.7232 91.5813 48.148 86.9815 43.4985C85.3055 41.8038 83.8501 40.3493 82.6152 39.135C82.5751 39.0956 82.5212 39.0735 82.4652 39.0735C82.4092 39.0735 82.3556 39.0956 82.3161 39.135C79.2835 42.1095 76.0899 45.3158 72.7352 48.7537C72.5499 48.9447 72.4193 49.1624 72.196 49.3885C69.0529 52.5699 65.9122 55.7444 62.7738 58.9117C62.767 58.9185 62.7615 58.9266 62.7578 58.9355C62.754 58.9445 62.7521 58.954 62.7521 58.9637C62.7521 58.9734 62.754 58.9829 62.7578 58.9919C62.7615 59.0008 62.767 59.0089 62.7738 59.0157L110.436 107.473C110.512 107.55 110.554 107.653 110.554 107.761V152.912C110.554 152.925 110.558 152.937 110.565 152.947C110.572 152.957 110.582 152.965 110.594 152.969C110.625 152.98 110.662 152.985 110.703 152.985C119.938 152.988 129.167 152.989 138.392 152.988C138.406 152.988 138.419 152.983 138.429 152.973C138.439 152.963 138.444 152.949 138.444 152.935V107.813C138.444 107.674 138.499 107.541 138.596 107.442L186.211 59.0353C186.258 58.9876 186.26 58.9417 186.216 58.8977L166.611 38.9019C166.601 38.8915 166.589 38.883 166.576 38.877C166.563 38.871 166.549 38.8676 166.535 38.8669C166.522 38.8663 166.508 38.8684 166.495 38.8732C166.483 38.878 166.471 38.8854 166.462 38.8948C159.126 46.3279 150.437 55.1395 140.395 65.3298C135.069 70.7349 130.277 75.552 126.021 79.7811C125.157 80.6397 124.693 81.1003 124.629 81.163C124.597 81.1944 124.555 81.2124 124.51 81.2132C124.465 81.214 124.422 81.1975 124.389 81.1673ZM82.5731 138.694C82.5543 136.3 82.6789 134.196 82.9466 132.381C83.1161 131.237 83.4443 129.556 83.9311 127.338C83.9901 127.064 83.955 126.831 83.8061 126.625C83.4091 126.079 83.0075 125.583 82.6011 125.136C81.4552 123.874 80.4524 122.802 79.5929 121.919C77.5828 119.856 72.1758 114.344 63.3721 105.383C63.3175 105.328 63.2614 105.274 63.2072 105.226C63.1531 105.177 63.1021 105.135 63.0575 105.101C63.0129 105.068 62.9757 105.044 62.9481 105.031C62.9206 105.018 62.9033 105.017 62.8974 105.027C62.5842 105.574 62.1714 106.128 61.9031 106.65C61.0474 108.311 60.2895 110.005 59.6294 111.731C57.5069 117.286 55.9957 123.053 55.096 129.033C54.8619 130.589 54.7173 131.96 54.662 133.145C54.5029 136.551 54.5192 140.143 54.7112 143.923C54.7842 145.345 54.8366 146.278 54.8685 146.723C55.0117 148.731 55.3174 150.862 55.7855 153.116C58.1131 164.333 62.764 174.393 69.7383 183.294C70.2925 184.001 70.8871 184.724 71.5218 185.465C79.3008 194.537 89.2131 201.62 100.434 205.789C112.01 210.092 123.954 211.206 136.265 209.133C137.362 208.949 138.282 208.774 139.026 208.609C150.524 206.066 160.624 201.128 169.327 193.797C178.854 185.773 185.797 175.879 190.158 164.115C191.288 161.071 192.223 158.016 192.964 154.952C193.71 151.869 194.191 148.788 194.408 145.708C194.654 142.212 194.697 138.468 194.536 134.475C194.401 131.12 194.065 128.04 193.528 125.237C192.35 119.093 190.401 113.165 187.683 107.455C187.239 106.522 186.821 105.732 186.43 105.083C186.361 104.967 186.272 104.95 186.164 105.032C186.037 105.13 185.883 105.266 185.704 105.442C183.198 107.882 180.924 110.148 178.88 112.241C177.671 113.477 174.687 116.532 169.928 121.406C168.483 122.886 167.345 124.089 166.515 125.014C166.048 125.536 165.19 126.458 165.319 127.049C165.397 127.397 165.572 128.263 165.844 129.646C166.445 132.696 166.725 135.735 166.775 138.823C166.846 143.228 166.214 147.567 164.879 151.842C163.555 156.08 161.618 159.998 159.066 163.596C156.277 167.529 152.925 170.928 149.008 173.794C145.637 176.262 141.905 178.205 137.812 179.621C134.716 180.694 131.475 181.307 128.09 181.458C125.056 181.594 122.317 181.584 119.871 181.429C118.835 181.363 117.909 181.262 117.095 181.124C115.582 180.869 113.857 180.425 111.919 179.79C107.122 178.22 102.775 175.883 98.8781 172.78C91.9502 167.265 86.7469 159.727 84.2499 151.226C83.4616 148.544 82.9724 146.1 82.7823 143.893C82.6578 142.456 82.588 140.723 82.5731 138.694Z" fill="#0557F9"/>
<path d="M124.389 81.1673C124.422 81.1975 124.465 81.214 124.51 81.2132C124.555 81.2124 124.597 81.1944 124.629 81.163C124.693 81.1003 125.157 80.6397 126.021 79.7811C130.277 75.552 135.068 70.7349 140.395 65.3298C150.437 55.1395 159.126 46.3279 166.462 38.8948C166.471 38.8854 166.483 38.878 166.495 38.8732C166.508 38.8684 166.521 38.8663 166.535 38.8669C166.549 38.8676 166.563 38.871 166.576 38.877C166.589 38.883 166.601 38.8915 166.611 38.9019L186.216 58.8977C186.26 58.9417 186.258 58.9876 186.211 59.0353L138.596 107.442C138.499 107.541 138.444 107.674 138.444 107.813V152.935C138.444 152.949 138.439 152.963 138.429 152.973C138.419 152.983 138.406 152.988 138.392 152.988C129.167 152.989 119.937 152.988 110.703 152.985C110.662 152.985 110.625 152.98 110.593 152.969C110.582 152.965 110.572 152.957 110.565 152.947C110.558 152.937 110.554 152.925 110.554 152.912V107.761C110.554 107.653 110.512 107.55 110.436 107.473L62.7737 59.0157C62.7668 59.0089 62.7613 59.0008 62.7576 58.9919C62.7539 58.9829 62.752 58.9734 62.752 58.9637C62.752 58.954 62.7539 58.9445 62.7576 58.9355C62.7613 58.9266 62.7668 58.9185 62.7737 58.9117C65.912 55.7444 69.0527 52.5699 72.1958 49.3885C72.4191 49.1624 72.5497 48.9447 72.7351 48.7537C76.0897 45.3158 79.2833 42.1095 82.3159 39.135C82.3555 39.0956 82.4091 39.0736 82.4651 39.0736C82.5211 39.0736 82.5749 39.0956 82.615 39.135C83.85 40.3493 85.3054 41.8038 86.9813 43.4985C91.5812 48.148 100.038 56.7232 112.353 69.2242C113.009 69.8909 113.64 70.5257 114.243 71.1286C119.232 76.1124 121.727 78.6056 121.729 78.6084C122.754 79.6299 123.641 80.4829 124.389 81.1673Z" fill="white"/>
<path d="M82.573 138.694C82.588 140.723 82.6577 142.456 82.7822 143.893C82.9723 146.1 83.4615 148.544 84.2498 151.226C86.7469 159.727 91.9501 167.265 98.878 172.78C102.775 175.883 107.122 178.22 111.919 179.79C113.856 180.425 115.582 180.869 117.095 181.124C117.909 181.262 118.835 181.363 119.871 181.429C122.317 181.584 125.056 181.594 128.09 181.458C131.475 181.307 134.716 180.694 137.812 179.621C141.905 178.205 145.637 176.262 149.008 173.794C152.924 170.928 156.277 167.529 159.066 163.596C161.618 159.998 163.555 156.08 164.879 151.842C166.214 147.567 166.846 143.228 166.775 138.823C166.725 135.735 166.445 132.696 165.844 129.646C165.572 128.263 165.396 127.397 165.319 127.049C165.19 126.458 166.048 125.536 166.515 125.014C167.345 124.089 168.482 122.886 169.928 121.406C174.687 116.532 177.671 113.477 178.88 112.241C180.924 110.148 183.198 107.882 185.704 105.442C185.883 105.266 186.037 105.13 186.164 105.032C186.272 104.95 186.36 104.967 186.43 105.083C186.821 105.732 187.239 106.522 187.682 107.455C190.401 113.165 192.35 119.093 193.528 125.237C194.065 128.04 194.401 131.12 194.536 134.475C194.697 138.468 194.654 142.212 194.408 145.708C194.191 148.788 193.71 151.869 192.964 154.952C192.223 158.016 191.288 161.071 190.158 164.115C185.797 175.879 178.853 185.773 169.327 193.797C160.624 201.128 150.524 206.066 139.026 208.609C138.282 208.774 137.362 208.949 136.265 209.133C123.954 211.206 112.01 210.092 100.434 205.789C89.213 201.62 79.3007 194.537 71.5218 185.465C70.887 184.724 70.2924 184.001 69.7382 183.294C62.7639 174.393 58.113 164.333 55.7855 153.116C55.3173 150.861 55.0116 148.731 54.8684 146.723C54.8366 146.278 54.7841 145.345 54.7111 143.923C54.5192 140.143 54.5028 136.551 54.6619 133.145C54.7172 131.96 54.8618 130.589 55.0959 129.033C55.9957 123.053 57.5068 117.286 59.6293 111.731C60.2894 110.005 61.0473 108.311 61.903 106.65C62.1713 106.128 62.5842 105.574 62.8973 105.027C62.9032 105.017 62.9205 105.018 62.948 105.031C62.9756 105.044 63.0128 105.068 63.0574 105.101C63.102 105.135 63.153 105.177 63.2071 105.226C63.2613 105.274 63.3174 105.328 63.372 105.383C72.1757 114.344 77.5827 119.856 79.5928 121.919C80.4523 122.802 81.4551 123.874 82.6011 125.136C83.0074 125.583 83.4091 126.079 83.806 126.625C83.9549 126.831 83.99 127.064 83.931 127.338C83.4442 129.556 83.116 131.237 82.9465 132.381C82.6788 134.196 82.5543 136.3 82.573 138.694Z" fill="white"/>
</svg>
