<svg width="290" height="30" viewBox="0 0 290 30" fill="none" xmlns="http://www.w3.org/2000/svg">
<path d="M3.46375 21.28C3.46375 23.4667 3.71708 24.9733 4.22375 25.8C4.73042 26.6 5.45042 27 6.38375 27C7.31708 27 8.01042 26.6533 8.46375 25.96C8.94375 25.24 9.26375 23.8933 9.42375 21.92L12.2238 22.28C11.9838 25 11.3704 26.9067 10.3838 28C9.42375 29.0667 8.03708 29.6 6.22375 29.6C4.41042 29.6 2.97042 28.9467 1.90375 27.64C0.837083 26.3333 0.30375 23.9333 0.30375 20.44V9.56C0.30375 6.06667 0.837083 3.66667 1.90375 2.36C2.97042 1.05333 4.39708 0.399999 6.18375 0.399999C7.99708 0.399999 9.37042 0.866666 10.3038 1.8C11.2638 2.73333 11.8504 4.4 12.0638 6.8L9.14375 7.52C8.98375 5.81333 8.67708 4.64 8.22375 4C7.79708 3.33333 7.14375 3 6.26375 3C5.41042 3 4.73042 3.42667 4.22375 4.28C3.71708 5.10667 3.46375 6.64 3.46375 8.88V21.28ZM22.3447 29H19.2247V19.64L13.9447 0.999998H17.0647L20.7847 15.44L24.4647 0.999998H27.5847L22.3447 19.64V29ZM30.7856 29V0.999998H35.3456C37.3456 0.999998 38.879 1.56 39.9456 2.68C41.039 3.8 41.5856 5.76 41.5856 8.56C41.5856 11.8133 40.4523 13.8133 38.1856 14.56C40.8523 15.1467 42.1856 17.2933 42.1856 21C42.1856 23.96 41.639 26.04 40.5456 27.24C39.4523 28.4133 37.9323 29 35.9856 29H30.7856ZM39.0656 21.76V20.68C39.0656 17.3467 38.0123 15.68 35.9056 15.68H33.9856V26.48H35.9056C36.919 26.48 37.6923 26.1333 38.2256 25.44C38.7856 24.7467 39.0656 23.52 39.0656 21.76ZM38.6256 8.88V7.92C38.6256 6.24 38.359 5.09333 37.8256 4.48C37.2923 3.84 36.5323 3.52 35.5456 3.52H33.9856V13.56H35.5456C37.599 13.56 38.6256 12 38.6256 8.88ZM49.2591 16.32V26.44H56.2191V29H46.0591V0.999998H56.0991V3.56H49.2591V13.76H55.4991V16.32H49.2591ZM60.4341 29V0.999998H65.3941C67.3674 0.999998 68.9007 1.62666 69.9941 2.88C71.0874 4.13333 71.6341 6.38667 71.6341 9.64V9.84C71.6341 13.8933 70.6474 16.4667 68.6741 17.56L71.9941 29H68.7141L65.5941 18.28H63.6341V29H60.4341ZM68.4741 10.24V9.04C68.4741 6.98667 68.1941 5.56 67.6341 4.76C67.1007 3.96 66.3541 3.56 65.3941 3.56H63.6341V15.76H65.3941C67.4474 15.76 68.4741 13.92 68.4741 10.24ZM84.7259 29H81.6059V0.999998H86.4859L89.8859 20.4L93.3259 0.999998H98.2059V29H95.0859V3.72L91.6859 23H88.1259L84.7259 3.72V29ZM106.447 16.32V26.44H113.407V29H103.247V0.999998H113.287V3.56H106.447V13.76H112.687V16.32H106.447ZM117.622 29V0.999998H123.062C125.088 0.999998 126.648 1.65333 127.742 2.96C128.835 4.24 129.382 6.57333 129.382 9.96V20.04C129.382 23.4267 128.835 25.7733 127.742 27.08C126.648 28.36 125.088 29 123.062 29H117.622ZM126.222 20.76V9.28C126.222 5.46667 125.168 3.56 123.062 3.56H120.822V26.48H123.062C125.168 26.48 126.222 24.5733 126.222 20.76ZM133.872 29V0.999998H137.072V29H133.872ZM151.514 29L150.274 21.72H144.634L143.434 29H140.234L145.354 0.999998H149.594L154.714 29H151.514ZM147.474 5.04L145.074 19.16H149.834L147.474 5.04ZM166.198 21.28C166.198 23.4667 166.451 24.9733 166.958 25.8C167.465 26.6 168.185 27 169.118 27C170.051 27 170.745 26.6533 171.198 25.96C171.678 25.24 171.998 23.8933 172.158 21.92L174.958 22.28C174.718 25 174.105 26.9067 173.118 28C172.158 29.0667 170.771 29.6 168.958 29.6C167.145 29.6 165.705 28.9467 164.638 27.64C163.571 26.3333 163.038 23.9333 163.038 20.44V9.56C163.038 6.06667 163.571 3.66667 164.638 2.36C165.705 1.05333 167.131 0.399999 168.918 0.399999C170.731 0.399999 172.105 0.866666 173.038 1.8C173.998 2.73333 174.585 4.4 174.798 6.8L171.878 7.52C171.718 5.81333 171.411 4.64 170.958 4C170.531 3.33333 169.878 3 168.998 3C168.145 3 167.465 3.42667 166.958 4.28C166.451 5.10667 166.198 6.64 166.198 8.88V21.28ZM178.559 29V0.999998H183.519C185.492 0.999998 187.026 1.62666 188.119 2.88C189.212 4.13333 189.759 6.38667 189.759 9.64V9.84C189.759 13.8933 188.772 16.4667 186.799 17.56L190.119 29H186.839L183.719 18.28H181.759V29H178.559ZM186.599 10.24V9.04C186.599 6.98667 186.319 5.56 185.759 4.76C185.226 3.96 184.479 3.56 183.519 3.56H181.759V15.76H183.519C185.572 15.76 186.599 13.92 186.599 10.24ZM197.189 16.32V26.44H204.149V29H193.989V0.999998H204.029V3.56H197.189V13.76H203.429V16.32H197.189ZM217.764 29L216.524 21.72H210.884L209.684 29H206.484L211.604 0.999998H215.844L220.964 29H217.764ZM213.724 5.04L211.324 19.16H216.084L213.724 5.04ZM220.934 3.56V0.999998H231.854V3.56H227.974V29H224.814V3.56H220.934ZM234.887 29V0.999998H238.087V29H234.887ZM255.089 9.36V20.64C255.089 24.0267 254.543 26.3733 253.449 27.68C252.383 28.96 250.836 29.6 248.809 29.6C246.809 29.6 245.263 28.96 244.169 27.68C243.103 26.3733 242.569 24.0267 242.569 20.64V9.36C242.569 5.97333 243.103 3.64 244.169 2.36C245.263 1.05333 246.809 0.399999 248.809 0.399999C250.836 0.399999 252.383 1.05333 253.449 2.36C254.543 3.64 255.089 5.97333 255.089 9.36ZM251.929 21.24V8.76C251.929 4.92 250.903 3 248.849 3C247.863 3 247.089 3.41333 246.529 4.24C245.996 5.06667 245.729 6.57333 245.729 8.76V21.24C245.729 23.4267 245.996 24.9333 246.529 25.76C247.089 26.5867 247.863 27 248.849 27C250.903 27 251.929 25.08 251.929 21.24ZM262.695 29H259.575V0.999998H262.895L269.415 21.48V0.999998H272.535V29H269.215L262.695 8.56V29ZM286.183 22.72C286.183 20.5867 285.463 18.9467 284.023 17.8L280.823 15.44C278.423 13.7333 277.223 11.2133 277.223 7.88C277.223 5.10667 277.743 3.17333 278.783 2.08C279.849 0.959999 281.289 0.399999 283.103 0.399999C284.943 0.399999 286.369 0.919998 287.383 1.96C288.396 2.97333 289.009 4.82667 289.223 7.52L286.183 8.2C286.076 4.78667 285.076 3.08 283.183 3.08C281.316 3.08 280.383 4.53333 280.383 7.44C280.383 8.72 280.516 9.76 280.783 10.56C281.076 11.36 281.623 12.08 282.423 12.72L285.583 15.08C286.329 15.6133 286.929 16.12 287.383 16.6C287.836 17.08 288.263 17.8533 288.663 18.92C289.089 19.96 289.303 21.2 289.303 22.64C289.303 25.2 288.743 27 287.623 28.04C286.529 29.08 285.036 29.6 283.143 29.6C281.249 29.6 279.769 28.9867 278.703 27.76C277.636 26.5333 276.983 24.3467 276.743 21.2L279.743 20.68C279.849 22.9467 280.169 24.56 280.703 25.52C281.263 26.48 282.036 26.96 283.023 26.96C285.129 26.96 286.183 25.5467 286.183 22.72Z" fill="white"/>
</svg>
