<svg width="171" height="56" viewBox="0 0 171 56" fill="none" xmlns="http://www.w3.org/2000/svg">
<g clip-path="url(#clip0_1457_557)">
<path d="M16.2545 11.7939C17.5864 12.5055 18.5591 13.3648 19.1763 14.3686C19.7934 15.3758 20.1002 16.5892 20.1002 18.0123C20.1002 20.0748 19.3506 21.7557 17.8514 23.062C16.3521 24.3682 14.2288 25.0213 11.4779 25.0213H0V0.532715H10.0588C12.7086 0.532715 14.7832 1.16521 16.2824 2.42677C17.7816 3.69176 18.5312 5.29019 18.5312 7.22893C18.5312 8.1983 18.3499 9.04392 17.9908 9.76923C17.6282 10.4945 17.0494 11.1683 16.2545 11.7939ZM11.2338 9.30173C11.5929 8.86517 11.7742 8.35298 11.7742 7.76517C11.7742 7.17737 11.5894 6.66862 11.2233 6.24581C10.8573 5.823 10.3482 5.60987 9.70319 5.60987H6.69775V9.95141H9.74154C10.3761 9.95141 10.8747 9.73485 11.2338 9.29829V9.30173ZM10.8224 19.9476C11.6313 19.9476 12.2519 19.707 12.6877 19.2223C13.1235 18.7376 13.3397 18.1567 13.3397 17.4829C13.3397 16.7714 13.1166 16.1561 12.6668 15.6336C12.2205 15.1111 11.6034 14.8498 10.8189 14.8498H6.69426V19.9476H10.8189H10.8224Z" fill="white"/>
<path d="M45.2033 0.532715V12.8423C45.2033 14.3514 45.1022 15.7195 44.8965 16.9467C44.6908 18.1739 44.3352 19.3323 43.8331 20.4254C43.3275 21.5185 42.679 22.4295 41.8841 23.1685C41.0891 23.9041 40.0711 24.4885 38.8333 24.9182C37.5956 25.3479 36.1661 25.561 34.5483 25.561C32.9305 25.561 31.4801 25.3479 30.2354 24.9182C28.9907 24.4885 27.9691 23.9076 27.1741 23.1685C26.3792 22.4329 25.7237 21.5185 25.2147 20.4254C24.7056 19.3323 24.3465 18.1739 24.1408 16.9467C23.9351 15.7195 23.834 14.3514 23.834 12.8423V0.532715H30.5352V13.1551C30.5352 15.6954 30.8804 17.5242 31.5707 18.6379C32.2611 19.7551 33.2652 20.312 34.5866 20.312C37.2365 20.312 38.5614 17.9264 38.5614 13.1551V0.532715H45.2068H45.2033Z" fill="white"/>
<path d="M58.9232 0C61.6113 0 64.2855 0.515622 66.9493 1.54687L65.5686 6.64465C63.1036 5.71309 60.9524 5.2456 59.1114 5.2456C58.2014 5.2456 57.5181 5.43122 57.0578 5.8059C56.5976 6.18059 56.3675 6.6309 56.3675 7.15683C56.3675 7.63464 56.6046 8.05058 57.0753 8.39777C57.5494 8.74839 58.4071 9.16089 59.6519 9.6387C62.5388 10.7181 64.6691 11.9556 66.0428 13.3546C67.4165 14.7537 68.1068 16.4587 68.1068 18.4696C68.1068 20.7383 67.2457 22.488 65.5233 23.7152C63.8009 24.9424 61.4893 25.5542 58.5884 25.5542C55.5028 25.5542 52.3405 24.7395 49.1084 23.1067L50.4717 17.9368C52.2882 18.7721 53.7665 19.3565 54.9031 19.6933C56.0432 20.0302 57.0892 20.1986 58.048 20.1986C60.1121 20.1986 61.1476 19.5661 61.1476 18.3046C61.1476 17.6549 60.8443 17.1255 60.2411 16.7233C59.6379 16.3177 58.4594 15.754 56.7057 15.0321C54.1919 14.0009 52.3544 12.8906 51.1899 11.7012C50.0254 10.5118 49.4431 9.11276 49.4431 7.50746C49.4431 5.38653 50.3252 3.60248 52.0929 2.16218C53.8606 0.721871 56.1374 0 58.9232 0Z" fill="white"/>
<path d="M78.6856 0.532715V25.0248H71.9844V0.532715H78.6856Z" fill="white"/>
<path d="M98.4722 0.532715H104.779V25.0248H100.376L90.0556 12.1067V25.0248H83.71V0.532715H88.1135L98.4722 13.4508V0.532715Z" fill="white"/>
<path d="M116.536 19.7826H127.044V25.0282H109.838V0.532715H126.971V5.75769H116.539V10.2848H125.779V15.5304H116.539V19.7826H116.536Z" fill="white"/>
<path d="M140.074 0C142.762 0 145.436 0.515622 148.1 1.54687L146.719 6.64465C144.254 5.71309 142.103 5.2456 140.262 5.2456C139.352 5.2456 138.668 5.43122 138.208 5.8059C137.748 6.18059 137.518 6.6309 137.518 7.15683C137.518 7.63464 137.755 8.05058 138.226 8.39777C138.7 8.74839 139.558 9.16089 140.802 9.6387C143.689 10.7181 145.819 11.9556 147.193 13.3546C148.567 14.7537 149.257 16.4587 149.257 18.4696C149.257 20.7383 148.396 22.488 146.674 23.7152C144.951 24.9424 142.64 25.5542 139.739 25.5542C136.653 25.5542 133.491 24.7395 130.259 23.1067L131.622 17.9368C133.439 18.7721 134.917 19.3565 136.054 19.6933C137.194 20.0302 138.24 20.1986 139.198 20.1986C141.262 20.1986 142.298 19.5661 142.298 18.3046C142.298 17.6549 141.995 17.1255 141.391 16.7233C140.788 16.3177 139.61 15.754 137.856 15.0321C135.342 14.0009 133.505 12.8906 132.34 11.7012C131.176 10.5118 130.593 9.11276 130.593 7.50746C130.593 5.38653 131.476 3.60248 133.243 2.16218C135.011 0.721871 137.288 0 140.074 0Z" fill="white"/>
<path d="M161.817 0C164.505 0 167.179 0.515622 169.843 1.54687L168.462 6.64465C165.997 5.71309 163.846 5.2456 162.005 5.2456C161.095 5.2456 160.412 5.43122 159.951 5.8059C159.491 6.18059 159.261 6.6309 159.261 7.15683C159.261 7.63464 159.498 8.05058 159.969 8.39777C160.443 8.74839 161.301 9.16089 162.545 9.6387C165.432 10.7181 167.563 11.9556 168.936 13.3546C170.31 14.7537 171 16.4587 171 18.4696C171 20.7383 170.139 22.488 168.417 23.7152C166.694 24.9424 164.383 25.5542 161.482 25.5542C158.396 25.5542 155.234 24.7395 152.002 23.1067L153.365 17.9368C155.182 18.7721 156.66 19.3565 157.797 19.6933C158.937 20.0302 159.983 20.1986 160.942 20.1986C163.006 20.1986 164.041 19.5661 164.041 18.3046C164.041 17.6549 163.738 17.1255 163.135 16.7233C162.531 16.3177 161.353 15.754 159.599 15.0321C157.085 14.0009 155.248 12.8906 154.083 11.7012C152.919 10.5118 152.337 9.11276 152.337 7.50746C152.337 5.38653 153.219 3.60248 154.986 2.16218C156.754 0.721871 159.031 0 161.817 0Z" fill="white"/>
<path d="M21.8536 30.9751V55.4671H15.1523V30.9751H21.8536Z" fill="white"/>
<path d="M41.6402 30.9751H47.9474V55.4671H43.5438L33.2235 42.5491V55.4671H26.8779V30.9751H31.2815L41.6402 43.8932V30.9751Z" fill="white"/>
<path d="M61.6849 30.4424C64.373 30.4424 67.0473 30.958 69.711 31.9892L68.3303 37.087C65.8653 36.1555 63.7141 35.688 61.8732 35.688C60.9632 35.688 60.2798 35.8736 59.8196 36.2483C59.3593 36.623 59.1292 37.0733 59.1292 37.5992C59.1292 38.077 59.3663 38.493 59.837 38.8401C60.3112 39.1908 61.1689 39.6033 62.4136 40.0811C65.3005 41.1604 67.4308 42.3979 68.8045 43.797C70.1782 45.1961 70.8686 46.901 70.8686 48.912C70.8686 51.1807 70.0074 52.9304 68.285 54.1576C66.5626 55.3847 64.251 55.9966 61.3502 55.9966C58.2645 55.9966 55.1022 55.1819 51.8701 53.5491L53.2334 48.3792C55.0499 49.2145 56.5282 49.7988 57.6648 50.1357C58.805 50.4726 59.8509 50.641 60.8097 50.641C62.8738 50.641 63.9093 50.0085 63.9093 48.747C63.9093 48.0973 63.606 47.5679 63.0028 47.1657C62.3996 46.7601 61.2212 46.1964 59.4674 45.4745C56.9536 44.4432 55.1161 43.3329 53.9516 42.1436C52.7871 40.9542 52.2048 39.5551 52.2048 37.9498C52.2048 35.8289 53.0869 34.0449 54.8546 32.6046C56.6223 31.1643 58.8991 30.4424 61.6849 30.4424Z" fill="white"/>
<path d="M81.4503 30.9751V55.4671H74.749V30.9751H81.4503Z" fill="white"/>
<path d="M96.6023 30.9751C98.2829 30.9751 99.8379 31.202 101.267 31.6557C102.697 32.1095 103.917 32.7248 104.925 33.5051C105.932 34.2854 106.79 35.1963 107.501 36.2379C108.209 37.2795 108.736 38.3898 109.077 39.5585C109.419 40.7307 109.59 41.9338 109.59 43.1747C109.59 44.4157 109.419 45.6257 109.077 46.8082C108.736 47.9906 108.206 49.1078 107.491 50.1563C106.776 51.2047 105.915 52.1225 104.907 52.9062C103.9 53.69 102.679 54.3156 101.25 54.7728C99.8204 55.2334 98.2689 55.4637 96.6023 55.4637H86.4668V30.9717H96.6023V30.9751ZM96.6023 50.2216C97.5716 50.2216 98.4502 50.0188 99.2347 49.6131C100.019 49.2075 100.654 48.6713 101.138 48.0044C101.623 47.3375 101.993 46.5882 102.251 45.7597C102.505 44.9313 102.634 44.0685 102.634 43.1747C102.634 41.9613 102.418 40.8373 101.989 39.806C101.56 38.7748 100.877 37.9188 99.946 37.2313C99.0116 36.5438 97.8993 36.2001 96.6058 36.2001H93.1332V50.2216H96.6058H96.6023Z" fill="white"/>
<path d="M120.231 50.2216H130.74V55.4671H113.533V30.9751H130.666V36.2001H120.234V40.7272H129.474V45.9728H120.234V50.225L120.231 50.2216Z" fill="white"/>
<path d="M148.975 55.4671L144.31 48.1625H141.789V55.4671H135.088V30.9751H145.297C146.74 30.9751 148.048 31.2192 149.216 31.7004C150.384 32.1851 151.332 32.8348 152.054 33.6495C152.775 34.4641 153.326 35.3751 153.706 36.3823C154.086 37.3894 154.275 38.4379 154.275 39.5275C154.275 40.9644 153.957 42.305 153.323 43.5563C152.688 44.8075 151.729 45.8147 150.45 46.5744L156.123 55.4637H148.975V55.4671ZM141.789 35.9079V42.9203H144.456C145.44 42.9203 146.203 42.5766 146.744 41.8891C147.284 41.2016 147.556 40.38 147.556 39.4244C147.556 38.4688 147.281 37.6576 146.733 36.9598C146.186 36.2619 145.426 35.9113 144.456 35.9113H141.789V35.9079Z" fill="white"/>
</g>
<defs>
<clipPath id="clip0_1457_557">
<rect width="171" height="56" fill="white"/>
</clipPath>
</defs>
</svg>
