<svg width="139" height="38" viewBox="0 0 139 38" fill="none" xmlns="http://www.w3.org/2000/svg">
<path d="M0.00386047 35.3806C2.05204 35.1606 3.32157 34.7882 3.81245 34.2634C4.32027 33.7218 4.57417 32.3253 4.57417 30.074V7.55249C4.57417 5.70744 4.29488 4.50562 3.73628 3.94702C3.17769 3.3715 1.93355 3.01603 0.00386047 2.88062V1.91577H27.705L27.8828 9.38062H26.4355C26.08 6.9939 25.4114 5.48739 24.4296 4.86108C23.4479 4.21785 21.5097 3.89624 18.6152 3.89624H11.5058C10.8118 3.89624 10.3632 4.01473 10.1601 4.25171C9.97391 4.48869 9.88081 4.95418 9.88081 5.64819V17.2517H17.3964C19.6139 17.2517 21.0273 16.9216 21.6367 16.2615C22.246 15.6013 22.7369 14.2641 23.1093 12.2498H24.3281V24.2849H23.1093C22.72 22.2706 22.2207 20.9418 21.6113 20.2986C21.0019 19.6384 19.597 19.3083 17.3964 19.3083H9.88081V30.6833C9.88081 32.5961 10.1686 33.8233 10.7441 34.365C11.3365 34.8897 12.6145 35.2283 14.5781 35.3806V36.3201H0.00386047V35.3806ZM29.6855 24.5388C29.6855 21.1703 30.7519 18.3266 32.8847 16.0076C35.0345 13.6716 37.7936 12.5037 41.1621 12.5037C44.5136 12.5037 47.2897 13.6039 49.4902 15.8044C51.6907 18.005 52.791 20.9333 52.791 24.5896C52.791 27.9581 51.7246 30.8865 49.5918 33.3748C47.4589 35.863 44.6998 37.1072 41.3144 37.1072C38.0644 37.1072 35.3138 35.9138 33.0625 33.5271C30.8112 31.1404 29.6855 28.1443 29.6855 24.5388ZM40.4511 14.0271C39.1139 14.0271 37.9544 14.4672 36.9726 15.3474C35.2799 16.8878 34.4335 19.5453 34.4335 23.3201C34.4335 26.3331 35.1106 29.143 36.4648 31.7498C37.8359 34.3565 39.7317 35.6599 42.1523 35.6599C44.0481 35.6599 45.5039 34.7882 46.5195 33.0447C47.552 31.3012 48.0683 29.016 48.0683 26.1892C48.0683 23.2608 47.4166 20.5017 46.1132 17.9119C44.8099 15.322 42.9225 14.0271 40.4511 14.0271ZM54.5937 35.4822C56.151 35.3468 57.1835 35.0759 57.6914 34.6697C58.1992 34.2465 58.4531 33.3578 58.4531 32.0037V20.5525C58.4531 18.8767 58.2923 17.6833 57.9707 16.9724C57.666 16.2445 57.0989 15.8806 56.2695 15.8806C56.1002 15.8806 55.8717 15.906 55.5839 15.9568C55.3131 15.9906 55.0253 16.0414 54.7207 16.1091V15.2712C55.6855 14.9327 56.6757 14.5857 57.6914 14.2302C58.707 13.8748 59.4095 13.6208 59.7988 13.4685C60.6451 13.1469 61.5169 12.783 62.414 12.3767C62.5325 12.3767 62.6002 12.419 62.6171 12.5037C62.651 12.5883 62.6679 12.766 62.6679 13.0369V17.2009C63.7513 15.6944 64.7923 14.518 65.791 13.6716C66.8066 12.8253 67.8561 12.4021 68.9394 12.4021C69.8027 12.4021 70.5052 12.6645 71.0468 13.1892C71.5885 13.697 71.8593 14.3403 71.8593 15.1189C71.8593 15.8129 71.6477 16.3969 71.2246 16.8708C70.8183 17.3448 70.302 17.5818 69.6757 17.5818C69.0325 17.5818 68.3808 17.2856 67.7207 16.6931C67.0774 16.1007 66.5696 15.8044 66.1972 15.8044C65.6048 15.8044 64.8769 16.2869 64.0136 17.2517C63.1503 18.1996 62.7187 19.1814 62.7187 20.197V31.6482C62.7187 33.1039 63.0572 34.1195 63.7343 34.6951C64.4114 35.2537 65.5371 35.516 67.1113 35.4822V36.3201H54.5937V35.4822ZM71.8593 4.02319V3.15991C73.789 2.71981 75.524 2.22892 77.0644 1.68726C78.6048 1.14559 79.4342 0.874756 79.5527 0.874756C79.5865 0.976318 79.6035 1.07788 79.6035 1.17944V16.6423C80.0436 15.8298 80.7037 15.0597 81.5839 14.3318C83.1412 13.0623 84.9355 12.4275 86.9668 12.4275C89.455 12.4275 91.5794 13.477 93.3398 15.5759C95.1002 17.6749 95.9804 20.4001 95.9804 23.7517C95.9804 27.3403 94.8378 30.4125 92.5527 32.9685C90.2675 35.5245 87.263 36.8025 83.539 36.8025C81.6601 36.8025 79.8151 36.4301 78.0039 35.6853C76.1927 34.9405 75.2871 34.1957 75.2871 33.4509V6.61304C75.2871 5.63127 75.1516 4.93726 74.8808 4.53101C74.61 4.10783 73.9837 3.89624 73.0019 3.89624L71.8593 4.02319ZM79.5019 32.613C79.6543 33.4932 80.3144 34.128 81.4824 34.5173C82.6503 34.8897 83.6744 35.0759 84.5546 35.0759C86.9244 35.0759 88.6764 34.1873 89.8105 32.4099C90.9615 30.6326 91.5371 28.4828 91.5371 25.9607C91.5371 23.4386 91.0039 21.1111 89.9375 18.9783C88.871 16.8285 87.1445 15.7537 84.7578 15.7537C83.5559 15.7537 82.3795 16.1261 81.2285 16.8708C80.0774 17.5987 79.5019 18.5297 79.5019 19.6638V32.613ZM109.59 12.5037C111.977 12.5037 114.067 13.3331 115.861 14.9919C117.656 16.6339 118.553 18.9698 118.553 21.9998H102.43C102.599 25.9268 103.488 28.7875 105.096 30.5818C106.704 32.3761 108.608 33.2732 110.809 33.2732C112.586 33.2732 114.084 32.8077 115.303 31.8767C116.521 30.9457 117.647 29.6254 118.68 27.9158L119.568 28.2205C118.874 30.3702 117.571 32.3591 115.658 34.1873C113.762 36.0154 111.435 36.9294 108.676 36.9294C105.493 36.9294 103.031 35.7276 101.287 33.324C99.5605 30.9203 98.6972 28.1528 98.6972 25.0212C98.6972 21.6189 99.7044 18.682 101.719 16.2107C103.733 13.7393 106.357 12.5037 109.59 12.5037ZM108.117 14.3572C106.187 14.3572 104.715 15.212 103.699 16.9216C103.158 17.8357 102.768 18.9867 102.531 20.3748H113.246C113.06 18.682 112.738 17.421 112.281 16.5916C111.452 15.102 110.064 14.3572 108.117 14.3572ZM123.478 28.322H124.316C124.706 30.2517 125.23 31.7328 125.891 32.7654C127.075 34.6612 128.811 35.6091 131.096 35.6091C132.365 35.6091 133.364 35.2621 134.092 34.5681C134.837 33.8572 135.209 32.9431 135.209 31.8259C135.209 31.115 134.997 30.4294 134.574 29.7693C134.151 29.1091 133.406 28.4659 132.34 27.8396L129.496 26.2146C127.414 25.0974 125.882 23.9718 124.9 22.8376C123.919 21.7035 123.428 20.3663 123.428 18.8259C123.428 16.9301 124.105 15.3728 125.459 14.1541C126.813 12.9353 128.514 12.3259 130.562 12.3259C131.46 12.3259 132.441 12.4952 133.508 12.8337C134.591 13.1723 135.2 13.3416 135.336 13.3416C135.641 13.3416 135.861 13.2992 135.996 13.2146C136.131 13.13 136.25 12.9945 136.352 12.8083H136.961L137.139 19.8923H136.352C136.013 18.2504 135.556 16.9724 134.98 16.0583C133.931 14.3656 132.416 13.5193 130.436 13.5193C129.251 13.5193 128.32 13.8832 127.643 14.6111C126.965 15.3389 126.627 16.1938 126.627 17.1755C126.627 18.7328 127.795 20.1208 130.131 21.3396L133.482 23.1423C137.088 25.1059 138.891 27.391 138.891 29.9978C138.891 31.9952 138.137 33.6287 136.631 34.8982C135.141 36.1677 133.186 36.8025 130.766 36.8025C129.75 36.8025 128.599 36.6332 127.312 36.2947C126.026 35.9561 125.264 35.7869 125.027 35.7869C124.824 35.7869 124.646 35.863 124.494 36.0154C124.342 36.1508 124.223 36.3201 124.139 36.5232H123.478V28.322Z" fill="white"/>
</svg>
