<svg width="165" height="65" viewBox="0 0 165 65" fill="none" xmlns="http://www.w3.org/2000/svg">
<path d="M60.7006 54.6393V50.3826H62.5277V46.7815C62.5277 43.0102 64.2906 41.1245 67.815 41.1245C68.5389 41.1245 69.3841 41.2486 70.3562 41.4969V45.953C69.9936 45.7438 69.6519 45.6392 69.3283 45.6392C68.2976 45.6392 67.7844 46.3533 67.7844 47.7815V50.3826H70.3004V54.6686L67.7844 54.5542V64.2405H62.5263V54.5542L60.6992 54.6393H60.7006Z" fill="white"/>
<path d="M70.8135 45.8398C70.8135 45.0782 71.1175 44.406 71.7298 43.8244C72.3393 43.2442 73.0617 42.9541 73.9 42.9541C74.7382 42.9541 75.462 43.24 76.0715 43.8105C76.681 44.3823 76.9879 45.0573 76.9879 45.8398C76.9879 46.6222 76.688 47.2693 76.0855 47.8398C75.4858 48.4116 74.7577 48.6975 73.9 48.6975C73.0422 48.6975 72.3393 48.4158 71.7298 47.8551C71.1189 47.293 70.8135 46.6222 70.8135 45.8398ZM71.243 64.2416V50.3837H76.529V64.2416H71.243Z" fill="white"/>
<path d="M79.0703 64.2403V50.3824H84.3005L84.1861 52.5819C85.3089 50.8873 86.804 50.0393 88.6715 50.0393C89.9853 50.0393 91.0718 50.4005 91.9296 51.1258C92.9965 51.9821 93.5293 53.4117 93.5293 55.4117V64.2403H88.2433V56.9264C88.2433 55.2681 87.6436 54.4396 86.4442 54.4396C85.0718 54.4396 84.387 55.2792 84.387 56.9543V64.2403H79.0717H79.0703Z" fill="white"/>
<path d="M106.215 52.3532V50.3825H111.415L111.473 64.2404H106.215V62.1832C105.357 63.7829 103.862 64.5835 101.73 64.5835C99.918 64.5835 98.4285 63.9029 97.2583 62.5402C96.0868 61.179 95.501 59.4593 95.501 57.3826C95.501 55.3058 96.1007 53.4955 97.3002 52.0687C98.4996 50.6391 99.9947 49.925 101.786 49.925C103.804 49.925 105.281 50.7354 106.215 52.3532ZM103.557 54.2389C102.776 54.2389 102.099 54.5248 101.529 55.0966C101.013 55.6671 100.756 56.4007 100.756 57.2961C100.756 58.1343 101.011 58.8387 101.529 59.4105C102.062 59.9447 102.738 60.211 103.557 60.211C104.376 60.211 105.024 59.9251 105.557 59.3547C106.091 58.7829 106.357 58.0785 106.357 57.2403C106.357 56.4021 106.097 55.6448 105.571 55.0827C105.048 54.5206 104.376 54.2403 103.557 54.2403V54.2389Z" fill="white"/>
<path d="M113.959 64.2403V50.3824H119.189L119.075 52.5819C120.198 50.8873 121.693 50.0393 123.56 50.0393C124.874 50.0393 125.96 50.4005 126.818 51.1258C127.885 51.9821 128.418 53.4117 128.418 55.4117V64.2403H123.132V56.9264C123.132 55.2681 122.532 54.4396 121.333 54.4396C119.96 54.4396 119.276 55.2792 119.276 56.9543V64.2403H113.96H113.959Z" fill="white"/>
<path d="M141.477 50.6683V55.5833C140.619 54.7827 139.723 54.3838 138.79 54.3838C137.913 54.3838 137.205 54.6656 136.661 55.2262C136.12 55.7883 135.846 56.4982 135.846 57.3546C135.846 58.2109 136.118 58.9166 136.661 59.4689C137.205 60.0212 137.894 60.2974 138.732 60.2974C139.665 60.2974 140.58 59.9348 141.475 59.2109V63.925C140.103 64.4006 138.873 64.6391 137.789 64.6391C135.617 64.6391 133.841 63.978 132.46 62.6531C131.079 61.3281 130.389 59.5917 130.389 57.4382C130.389 55.2848 131.089 53.5052 132.489 52.0951C133.889 50.6864 135.656 49.9807 137.79 49.9807C139.009 49.9807 140.237 50.2081 141.477 50.6655V50.6683Z" fill="white"/>
<path d="M158.077 58.3546H147.99C147.99 60.2793 148.848 61.2417 150.562 61.2417C151.687 61.2417 152.515 60.6894 153.047 59.5834L157.735 60.4397C157.181 61.7926 156.268 62.8498 154.992 63.6113C153.715 64.3728 152.256 64.7536 150.621 64.7536C148.276 64.7536 146.386 64.0827 144.95 62.7396C143.51 61.3965 142.792 59.6196 142.792 57.4104C142.792 55.2012 143.506 53.3546 144.936 51.925C146.364 50.4954 148.209 49.7827 150.477 49.7827C152.745 49.7827 154.625 50.5149 156.007 51.9822C157.388 53.4494 158.078 55.4201 158.078 57.8971V58.3546H158.077ZM150.534 53.183C149.848 53.183 149.262 53.4313 148.777 53.9264C148.291 54.4215 148.049 55.0687 148.049 55.8692H152.879C152.879 55.0129 152.662 54.3504 152.234 53.8832C151.806 53.4173 151.238 53.183 150.534 53.183Z" fill="white"/>
<path d="M0 14.8982H9.69464L13.3711 24.7825C13.8495 26.1187 14.1828 27.7742 14.3739 29.7491C14.3739 28.9527 14.452 28.1661 14.611 27.385C14.77 26.6054 15.0266 25.7379 15.3767 24.7839L18.9095 14.8996H28.2708L13.7072 48.9431H4.20087L10.0768 36.1954L0 14.8982Z" fill="white"/>
<path d="M45.1227 18.1911V14.8982H53.8117L53.9094 38.056H45.1241V34.6194C43.6903 37.2931 41.191 38.6292 37.6289 38.6292C34.6024 38.6292 32.1114 37.4911 30.156 35.215C28.1978 32.9402 27.2188 30.0657 27.2188 26.5956C27.2188 23.1256 28.2215 20.1005 30.2257 17.7141C32.2313 15.3264 34.7293 14.1311 37.7209 14.1311C41.0933 14.1311 43.562 15.4854 45.1241 18.1897L45.1227 18.1911ZM40.6805 21.3432C39.3751 21.3432 38.2439 21.8215 37.2914 22.7769C36.428 23.7309 36.0013 24.9569 36.0013 26.4534C36.0013 27.8537 36.428 29.0322 37.2914 29.9876C38.1812 30.8788 39.3123 31.3237 40.6805 31.3237C42.0487 31.3237 43.1324 30.8453 44.0222 29.8913C44.9163 28.936 45.3584 27.7574 45.3584 26.3571C45.3584 24.9569 44.9232 23.6919 44.0446 22.7504C43.1701 21.8118 42.0473 21.3418 40.6791 21.3418L40.6805 21.3432Z" fill="white"/>
<path d="M58.0635 38.0561V0H66.9938V18.5748C68.68 15.7086 71.1989 14.2777 74.5406 14.2777C76.9576 14.2777 78.9088 15.0503 80.3886 16.5943C81.8698 18.1382 82.6076 20.1522 82.6076 22.6348V38.0575H73.7749V26.0253C73.7749 25.102 73.6815 24.275 73.4876 23.5427C73.1068 22.1745 72.1668 21.4897 70.6703 21.4897C68.2532 21.4897 67.0454 22.9709 67.0454 25.9319V38.0603H58.0649L58.0635 38.0561Z" fill="white"/>
<path d="M85.8086 26.5023C85.8086 22.9039 87.0638 19.9192 89.5813 17.5496C92.096 15.1772 95.2619 13.9917 99.0821 13.9917C102.902 13.9917 106.181 15.1535 108.726 17.4771C111.272 19.8007 112.547 22.7923 112.547 26.4534C112.547 30.1146 111.284 32.9793 108.75 35.335C106.22 37.692 103.03 38.8692 99.1797 38.8692C95.3289 38.8692 92.135 37.699 89.605 35.3587C87.075 33.0198 85.8086 30.0685 85.8086 26.5023ZM99.1797 21.4869C97.8742 21.4869 96.7515 21.9722 95.8101 22.9444C94.8742 23.9165 94.4028 25.0852 94.4028 26.4534C94.4028 27.8217 94.8617 29.0323 95.7864 29.9876C96.7111 30.9416 97.838 31.42 99.1783 31.42C100.519 31.42 101.595 30.9416 102.52 29.9876C102.964 29.4786 103.297 28.9444 103.523 28.3865C103.745 27.8314 103.858 27.1857 103.858 26.4534C103.858 25.0211 103.418 23.837 102.544 22.8955C101.665 21.9569 100.547 21.4869 99.1783 21.4869H99.1797Z" fill="white"/>
<path d="M114.839 26.5023C114.839 22.9039 116.094 19.9192 118.612 17.5496C121.126 15.1772 124.292 13.9917 128.112 13.9917C131.932 13.9917 135.211 15.1535 137.757 17.4771C140.302 19.8007 141.577 22.7923 141.577 26.4534C141.577 30.1146 140.315 32.9793 137.78 35.335C135.25 37.692 132.061 38.8692 128.21 38.8692C124.359 38.8692 121.165 37.699 118.635 35.3587C116.105 33.0198 114.839 30.0685 114.839 26.5023ZM128.21 21.4869C126.905 21.4869 125.782 21.9722 124.84 22.9444C123.904 23.9165 123.433 25.0852 123.433 26.4534C123.433 27.8217 123.892 29.0323 124.817 29.9876C125.741 30.9416 126.868 31.42 128.209 31.42C129.549 31.42 130.626 30.9416 131.55 29.9876C131.994 29.4786 132.327 28.9444 132.553 28.3865C132.775 27.8314 132.888 27.1857 132.888 26.4534C132.888 25.0211 132.448 23.837 131.574 22.8955C130.695 21.9569 129.577 21.4869 128.209 21.4869H128.21Z" fill="white"/>
<path d="M147.266 26.4048L155.973 2.48267H164.999L156.292 26.4048H147.266Z" fill="white"/>
<path d="M144.394 33.5443C144.394 32.2388 144.927 31.084 145.995 30.0826C147.059 29.0798 148.342 28.5791 149.838 28.5791C151.333 28.5791 152.679 29.0728 153.778 30.0603C154.874 31.0477 155.425 32.2095 155.425 33.5457C155.425 34.978 154.889 36.1803 153.824 37.1496C152.755 38.1217 151.441 38.6071 149.884 38.6071C148.326 38.6071 147.097 38.1287 146.017 37.1747C144.934 36.2193 144.393 35.0101 144.393 33.5457L144.394 33.5443Z" fill="white"/>
</svg>
