<svg width="86" height="83" viewBox="0 0 86 83" fill="none" xmlns="http://www.w3.org/2000/svg">
<path d="M43 0.0297852L26.9775 10.0299H13.25V18.5046L4.6225 23.9707C2.1575 25.4538 0.5 28.1233 0.5 31.2166V73.59C0.5 75.8376 1.39553 77.9932 2.98959 79.5825C4.58365 81.1718 6.74566 82.0647 9 82.0647H77C81.7175 82.0647 85.5 78.2934 85.5 73.59V31.2166C85.5 28.1233 83.8425 25.4538 81.3775 23.9707L72.75 18.5046V10.0299H59.0225M21.75 18.5046H64.25V39.1828L43 52.4033L21.75 39.1828M26 22.7419V29.0979H60V22.7419M13.25 28.5894V33.8861L9 31.2166M72.75 28.5894L77 31.2166L72.75 33.8861M26 33.3353V39.6913H60V33.3353H26Z" fill="#0B0D12"/>
</svg>
