<svg width="65" height="65" viewBox="0 0 65 65" fill="none" xmlns="http://www.w3.org/2000/svg">
<path d="M32.4999 65C50.4496 65 64.9997 50.4495 64.9997 32.5002C64.9997 14.5508 50.4496 0 32.4999 0C14.551 0 0 14.5508 0 32.5002C0 50.4495 14.551 65 32.4999 65Z" fill="#2B61D1"/>
<path d="M36.0704 51.1541L32.397 53.3039L24.5 48.691L28.0896 46.5982L28.1809 46.5413L28.3145 46.6195L36.0779 51.1541H36.0704Z" fill="white"/>
<path d="M50.1839 22.1314V26.4595L40.2946 20.6863L26.1834 28.9226V31.471L20.2713 28.0184L14.584 31.3357V22.1314L32.3769 11.7383L50.1698 22.1314H50.1839Z" fill="white"/>
<path d="M50.185 31.3857V42.9321L40.2957 48.7052H40.2816L30.4072 42.9321V31.3857L40.2957 25.6125L50.185 31.3857Z" fill="white"/>
<path d="M25.9724 36.2621V42.9037L20.2859 46.2281L14.5986 42.9037V36.2621L20.2859 32.9448L25.9724 36.2621Z" fill="white"/>
</svg>
