<?xml version="1.0" encoding="UTF-8"?>
<svg id="Camada_1" data-name="Camada 1" xmlns="http://www.w3.org/2000/svg" version="1.1" viewBox="0 0 1235 432">
  <defs>
    <style>
      .cls-1 {
        fill: #9cd857;
        stroke-width: 0px;
      }
    </style>
  </defs>
  <path class="cls-1" d="M163.3,130.8l42.9-67.8H0v67.8h163.3ZM163.3,130.8h91.3l-37.4,65.1h-92.7l38.7-65.1ZM28.4,216h84.1l46.4,76.3c.4.6.4,1.4,0,2l-41.5,73.4c-.3.5-.9.7-1.4.4-.2,0-.3-.2-.4-.4L27.5,217.5c-.3-.5-.1-1.1.4-1.4.2,0,.3-.1.5-.1M415.5,223.2c32.6,0,48,17.3,48,41s-17,42.6-42.6,42.6-41.6-15.4-41.6-42.2h-40.3c0,50.6,35.5,78.7,81.3,78.7s84.8-30.4,84.8-78.4-27.8-67.5-63.7-74.6l57-52.5v-32.6h-148.5v36.2h97.3l-60.2,55.4v26.6h28.5ZM615.3,339c67.8,0,114.6-47.7,114.6-116.5s-47.7-117.4-116.8-117.4h-81.9v233.9h84.2ZM609.2,142.8c48.3,0,77.4,30.1,77.4,79.7s-28.5,78.7-75.2,78.7h-39.4v-158.4h37.1ZM798.7,339v-165.8l110.1,165.8h40.3V105.1h-40.3v165.8l-109.8-165.8h-40.6v233.9h40.3ZM975.4,170.4c0,35.8,20.8,58.6,60.5,67.2l37.1,8.3c19.2,4.2,27.2,13.4,27.2,29.1s-17.3,31.4-44.5,31.4-42.2-11.8-42.6-31.7h-41c1,41.9,33.6,68.5,83.5,68.5s85.4-28.2,85.4-71.7-19.5-55.4-59.5-64l-36.8-8c-19.5-4.5-28.5-13.8-28.5-30.4s16.3-31.7,41.6-31.7,37.4,11.8,38.4,32h41c-1.3-42.2-31.4-68.5-78.7-68.5s-83.2,28.5-83.2,69.4M1187.5,342.8c14.1,0,25.9-11.5,25.9-25.3s-11.8-25.6-25.9-25.6-25.9,11.5-25.9,25.6,11.8,25.3,25.9,25.3"/>
</svg>