<svg width="180" height="30" viewBox="0 0 180 30" fill="none" xmlns="http://www.w3.org/2000/svg">
<path d="M15 0H30V10H15V0Z" fill="#FBC241"/>
<circle cx="5" cy="5" r="5" fill="#FBC241"/>
<path d="M15 30C23.2843 30 30 23.2843 30 15H20C20 17.7614 17.7614 20 15 20C12.2386 20 10 17.7614 10 15H0C0 23.2843 6.71572 30 15 30Z" fill="#FBC241"/>
<path fill-rule="evenodd" clip-rule="evenodd" d="M81.5196 25C77.3214 25 72.8037 21.6358 72.8037 15.05C72.8037 8.75877 77.3299 5 81.5886 5C84.3091 5 86.3885 6.101 87.2917 6.67835C87.5631 6.85141 87.6142 7.21319 87.4072 7.45487L86.6978 8.27913C86.5203 8.48501 86.2117 8.53498 85.9768 8.39027C85.2643 7.95166 83.647 7.12293 81.5886 7.12293C78.9472 7.12293 75.0172 9.50097 75.0172 15.05C75.0172 20.5587 78.52 22.8778 81.5196 22.8778C83.854 22.8778 85.6411 22.0782 86.4133 21.6619C86.6575 21.5299 86.9653 21.6 87.1289 21.8193L87.7739 22.6861C87.9639 22.9405 87.8864 23.2963 87.6049 23.4522C86.6482 23.9803 84.4262 25 81.5196 25Z" fill="#1D1E1C"/>
<path fill-rule="evenodd" clip-rule="evenodd" d="M90.3471 13.7843H103.31C102.749 8.34594 99.5454 7.16223 96.8644 7.16223C94.3996 7.16223 90.8136 8.94919 90.3471 13.7843ZM96.7957 25C92.5998 25 88.084 21.5727 88.084 14.8648C88.084 8.45768 92.6076 5 96.8646 5C99.3899 5 105.297 5.95806 105.597 14.8291C105.607 15.1223 105.495 15.4057 105.287 15.6169C105.078 15.8274 104.791 15.9459 104.492 15.9459H90.3427C90.7627 20.6982 93.9977 22.8385 96.7957 22.8385C99.1295 22.8385 100.916 22.0232 101.687 21.5993C101.931 21.4648 102.238 21.537 102.402 21.7604L103.047 22.6432C103.236 22.9015 103.159 23.2647 102.877 23.4235C101.921 23.9614 99.7006 25 96.7957 25Z" fill="#1D1E1C"/>
<path fill-rule="evenodd" clip-rule="evenodd" d="M68.2542 5H63.805C63.5959 5 63.4238 5.17753 63.4238 5.39425V6.80065C63.4238 7.01737 63.5959 7.1949 63.805 7.1949H66.6658L66.6666 24.4528C66.6666 24.7541 66.9046 25 67.1953 25H68.2542C68.5456 25 68.7836 24.7541 68.7836 24.4528L68.7829 5.54642C68.7829 5.24593 68.5456 5 68.2542 5Z" fill="#1D1E1C"/>
<path fill-rule="evenodd" clip-rule="evenodd" d="M138.103 21.235C137.745 21.2557 137.304 21.2732 137.24 21.2755C136.767 21.2923 136.293 21.2908 135.821 21.2587C135.218 21.2182 134.614 21.1434 134.033 20.9768C133.492 20.821 132.896 20.575 132.51 20.1541C132.182 19.7989 132.022 19.3085 132.021 18.8318C132.019 18.4644 132.106 18.0916 132.3 17.7776C132.537 17.3942 132.92 17.1161 133.333 16.9282C134.223 16.5241 135.253 16.3874 136.223 16.3522C137.16 16.3186 137.984 16.3958 138.594 16.4912C138.593 18.0763 138.576 21.1892 138.576 21.1892C138.576 21.1892 138.36 21.2198 138.103 21.235ZM143.474 12.3677C143.471 10.9179 143.468 9.27549 142.242 7.57887C139.829 4.24065 135.134 3.45155 128.979 5.33302C128.619 5.44302 128.424 5.82879 128.544 6.18171L129.669 9.50084C129.785 9.84306 130.154 10.0333 130.504 9.92938C132.514 9.33202 136.793 8.36339 138.256 10.387C138.55 10.7933 138.574 11.2066 138.577 12.3861C137.869 12.2959 137.043 12.2371 136.108 12.2554C135.341 12.2722 134.499 12.3402 133.587 12.5266C131.524 12.9483 129.662 13.9528 128.577 15.7892C128.274 16.3018 128.043 16.8572 127.902 17.4347C127.419 19.4231 128.004 21.6743 129.436 23.1623C129.631 23.3655 129.845 23.5542 130.067 23.7292C131.09 24.5228 132.172 24.9346 133.168 25.2035C135.995 25.946 138.999 25.684 141.848 25.1989C142.672 25.0583 143.149 24.9407 143.183 24.9292C143.333 24.8918 143.472 24.765 143.474 24.6053C143.488 23.021 143.474 12.3677 143.474 12.3677Z" fill="#1D1E1C"/>
<path fill-rule="evenodd" clip-rule="evenodd" d="M147.428 19.8904C147.538 19.5303 147.923 19.3295 148.284 19.4426C148.8 19.6057 149.316 19.7673 149.831 19.9327C149.806 19.9258 149.78 19.9181 149.771 19.9158C151.364 20.3474 153.919 21.2792 155.275 19.8511C155.478 19.6388 155.638 19.3756 155.667 19.0856C155.751 18.27 154.752 17.9837 154.153 17.759C152.845 17.2712 151.517 16.8342 150.211 16.3394C149.172 15.9455 148.149 15.4523 147.332 14.7013C145.62 13.1263 145.11 10.5718 145.957 8.43428C147.087 5.70817 149.907 4.26164 152.776 4.27549C154.979 4.29857 157.053 4.9372 159.13 5.59045C159.484 5.70202 159.682 6.07443 159.575 6.42683L158.692 9.33298C158.585 9.68769 158.209 9.88928 157.851 9.78464C156.685 9.44224 155.522 9.06598 154.317 8.88517C153.216 8.72051 151.809 8.6074 150.875 9.32759C150.424 9.67615 150.037 10.3171 150.265 10.8926C150.458 11.3774 151 11.569 151.451 11.7398C152.006 11.9506 152.57 12.136 153.134 12.3176C154.26 12.6785 155.397 13.0193 156.482 13.4948C157.573 13.9734 158.615 14.5898 159.378 15.5177C160.468 16.8427 160.854 18.6847 160.479 20.3543C159.735 23.6745 156.495 25.5803 153.235 25.6211C153.2 25.6219 153.165 25.6219 153.131 25.6219C150.952 25.628 148.839 25.0271 146.766 24.4223C146.405 24.3169 146.199 23.9399 146.308 23.5814L147.428 19.8904Z" fill="#1D1E1C"/>
<path fill-rule="evenodd" clip-rule="evenodd" d="M124.835 4.99609H121.15C120.78 4.99609 120.48 5.29735 120.48 5.66855V12.5729H113.445L113.444 5.66855C113.444 5.29735 113.145 4.99609 112.775 4.99609H109.09C108.72 4.99609 108.42 5.29735 108.42 5.66855V24.3229C108.42 24.6948 108.72 24.9961 109.09 24.9961H112.775C113.145 24.9961 113.444 24.6948 113.444 24.3229L113.445 16.6085H120.48L120.479 24.3229C120.479 24.6948 120.779 24.9961 121.15 24.9961H124.835C125.204 24.9961 125.504 24.6948 125.504 24.3229V5.66855C125.504 5.29735 125.204 4.99609 124.835 4.99609Z" fill="#1D1E1C"/>
<path fill-rule="evenodd" clip-rule="evenodd" d="M53.5674 5.48349C51.3701 5.48349 48.9694 6.17837 47.2696 7.87943V5.54652C47.2696 5.24521 47.0137 5 46.7022 5H45.5674C45.2559 5 45 5.24521 45 5.54652V24.4535C45 24.754 45.2559 25 45.5674 25H46.7022C47.0137 25 47.2696 24.754 47.2696 24.4535V14.0449C47.2696 8.13002 52.0901 7.67036 53.5674 7.67036C55.1202 7.67036 58.7312 8.29144 58.7312 14.0449V17.0766C58.7312 17.0773 58.7312 17.0781 58.7312 17.0789V21.159V24.4535C58.7312 24.754 58.9863 25 59.2986 25H60.4326C60.7449 25 61 24.754 61 24.4535V21.159V20.9668V14.0449C61 5.89627 54.8087 5.48349 53.5674 5.48349Z" fill="#1D1E1C"/>
<path fill-rule="evenodd" clip-rule="evenodd" d="M179.331 5H175.646C175.276 5 174.976 5.30126 174.976 5.67246V12.5769H167.941V5.67246C167.941 5.30126 167.641 5 167.271 5H163.586C163.216 5 162.916 5.30126 162.916 5.67246V24.3268C162.916 24.6987 163.216 25 163.586 25H167.271C167.641 25 167.941 24.6987 167.941 24.3268V16.6124H174.976V24.3268C174.976 24.6987 175.275 25 175.646 25H179.331C179.7 25 180 24.6987 180 24.3268V5.67246C180 5.30126 179.7 5 179.331 5Z" fill="#1D1E1C"/>
</svg>
