<svg width="500" height="100" viewBox="0 0 500 100" fill="none" xmlns="http://www.w3.org/2000/svg">
<g clip-path="url(#clip0_1228_339)">
<path d="M399.365 22.166H419.356C429.41 22.166 436.559 27.3518 436.559 36.5357C436.635 38.9554 436.044 41.3492 434.851 43.4561C433.659 45.5629 431.911 47.3018 429.798 48.483V48.6359C435.924 50.4468 438.829 56.103 438.829 61.7591C438.829 72.9068 429.88 77.9398 419.591 77.9398H399.365V22.166ZM419.356 44.9435C423.754 44.9435 426.27 41.8038 426.27 37.794C426.27 33.7841 423.918 30.8796 419.215 30.8796H409.56V44.9906L419.356 44.9435ZM420.379 69.2145C425.565 69.2145 428.469 65.8396 428.469 61.1242C428.469 56.4087 425.482 53.1162 420.379 53.1162H409.549V69.2027L420.379 69.2145Z" fill="#01AAEB"/>
<path d="M381.82 77.9514H392.403L372.66 22.0601H362.076L342.403 77.9514H352.869L356.526 66.3451H378.292L381.82 77.9514ZM359.078 58.149L367.392 31.7379L375.623 58.149H359.078Z" fill="#01AAEB"/>
<path d="M318.673 30.7971H300.341V22.0601H347.166V30.7971H328.833V77.9514H318.673V30.7971Z" fill="#01AAEB"/>
<path d="M246.496 22.0601H256.644L282.068 61.124V22.0601H292.133V77.9514H282.068L256.644 38.958V77.9514H246.496V22.0601Z" fill="#01AAEB"/>
<path d="M230.127 30.2444C225.544 25.6823 219.521 22.8502 213.085 22.2307C206.648 21.6111 200.196 23.2424 194.827 26.8466C189.458 30.4508 185.505 35.8049 183.641 41.9968C181.778 48.1887 182.118 54.8353 184.605 60.8042C187.092 66.7732 191.572 71.6952 197.281 74.7317C202.99 77.7682 209.575 78.7314 215.915 77.4571C222.254 76.1828 227.956 72.75 232.048 67.7434C236.141 62.7367 238.371 56.4661 238.358 49.9998C238.36 46.3262 237.634 42.6888 236.221 39.2978C234.808 35.9068 232.737 32.8297 230.127 30.2444ZM223.542 63.17C220.493 66.2197 216.482 68.1181 212.191 68.5417C207.899 68.9653 203.594 67.8879 200.008 65.4931C196.422 63.0983 193.778 59.5343 192.525 55.4083C191.272 51.2823 191.489 46.8495 193.138 42.8654C194.787 38.8812 197.767 35.592 201.569 33.5584C205.371 31.5247 209.761 30.8723 213.991 31.7124C218.22 32.5525 222.027 34.833 224.764 38.1654C227.5 41.4979 228.997 45.676 228.998 49.988C229.007 52.4378 228.53 54.8651 227.596 57.1297C226.661 59.3943 225.287 61.4513 223.553 63.1818L223.542 63.17Z" fill="#01AAEB"/>
<path d="M175.129 63.1818C172.523 65.7893 169.202 67.5653 165.586 68.2852C161.97 69.005 158.222 68.6364 154.816 67.226C151.41 65.8156 148.498 63.4267 146.45 60.3614C144.402 57.2962 143.308 53.6923 143.308 50.0056C143.308 46.319 144.402 42.7151 146.45 39.6499C148.498 36.5846 151.41 34.1957 154.816 32.7853C158.222 31.3748 161.97 31.0063 165.586 31.7261C169.202 32.446 172.523 34.222 175.129 36.8295L181.667 30.2796C177.758 26.3696 172.778 23.7065 167.355 22.6272C161.933 21.5479 156.313 22.1008 151.204 24.2161C146.096 26.3314 141.73 29.914 138.659 34.5109C135.587 39.1077 133.947 44.5122 133.947 50.0409C133.947 55.5696 135.587 60.9742 138.659 65.571C141.73 70.1678 146.096 73.7504 151.204 75.8657C156.313 77.981 161.933 78.534 167.355 77.4547C172.778 76.3754 177.758 73.7123 181.667 69.8022L175.129 63.1818Z" fill="#01AAEB"/>
<path d="M107.761 41.4862C104.586 38.302 100.814 35.7759 96.6615 34.0526C92.5087 32.3293 88.0565 31.4427 83.5603 31.4438C79.0623 31.4425 74.6082 32.3288 70.4534 34.0521C66.2986 35.7754 62.5247 38.3017 59.3481 41.4862L51.54 49.212L58.8425 56.5144L66.6035 48.7416C69.9525 45.3958 74.2182 43.1178 78.8614 42.1957C83.5047 41.2736 88.3171 41.7487 92.6904 43.5609C97.0637 45.3732 100.802 48.4412 103.432 52.3773C106.062 56.3134 107.466 60.9409 107.467 65.6748C107.467 72.0236 104.946 78.1127 100.459 82.6041C95.9721 87.0956 89.8855 89.622 83.5367 89.6282C78.553 89.6234 73.6961 88.0565 69.6492 85.148L69.4257 85.3714C69.4257 85.3714 64.1341 90.7454 62.3702 92.568C68.3919 97.3446 75.8506 99.9469 83.5367 99.9528C92.6166 99.9434 101.321 96.3307 107.74 89.9081C114.158 83.4855 117.765 74.7781 117.768 65.6983C117.778 61.2021 116.899 56.7482 115.182 52.5929C113.465 48.4376 110.942 44.663 107.761 41.4862Z" fill="#01AAEB"/>
<path d="M51.1877 82.6551C48.9707 84.8907 46.3329 86.6652 43.4266 87.8761C40.5203 89.0871 37.403 89.7106 34.2545 89.7106C31.1039 89.7075 27.9849 89.0829 25.0761 87.8726C22.1672 86.6623 19.5258 84.8901 17.3029 82.6574C15.08 80.4247 13.3194 77.7754 12.122 74.8612C10.9245 71.9471 10.3137 68.8254 10.3246 65.6748C10.3339 59.3343 12.8592 53.2567 17.3459 48.7766C21.8326 44.2965 27.914 41.7802 34.2545 41.7802C39.2131 41.7828 44.0473 43.3325 48.0833 46.2134L48.2832 46.0017L55.468 38.8169C49.4412 34.051 41.985 31.4538 34.3015 31.4439C29.8016 31.4392 25.3448 32.321 21.1857 34.0387C17.0266 35.7565 13.2465 38.2766 10.0613 41.4553C6.8761 44.6339 4.34817 48.4088 2.62186 52.5644C0.895537 56.72 0.00463033 61.1749 0 65.6748C-5.35375e-07 74.7545 3.60609 83.4625 10.0253 89.8839C16.4445 96.3053 25.1513 99.9144 34.231 99.9175C38.7232 99.9297 43.1738 99.0563 47.3283 97.3473C51.4828 95.6383 55.2597 93.1272 58.4431 89.9575C58.9252 89.4871 66.0983 82.1965 66.0983 82.1965L58.7959 74.894L51.1877 82.6551Z" fill="#FFB400"/>
<path d="M32.8669 26.8698C34.413 22.0597 37.4483 17.8658 41.5342 14.8939C45.6201 11.9219 50.545 10.3259 55.5974 10.3364C58.7442 10.336 61.8599 10.9593 64.7643 12.1703C67.6688 13.3814 70.3044 15.1561 72.5188 17.3919C75.2639 20.1441 77.284 23.5338 78.3984 27.2578C79.8216 27.0659 81.2547 26.9559 82.6905 26.9286H84.3133C85.9146 26.9599 87.5127 27.0856 89.0993 27.3049C87.5297 19.588 83.3378 12.6521 77.2353 7.67495C71.1328 2.69775 63.4957 -0.014021 55.6209 5.45191e-05C47.4712 -0.0112857 39.5869 2.89636 33.396 8.19638C27.2051 13.4964 23.117 20.8383 21.8721 28.8923C25.4197 27.6891 29.1233 27.0078 32.8669 26.8698Z" fill="#01AAEB"/>
<path d="M491.803 30.2444C487.221 25.6823 481.198 22.8502 474.762 22.2307C468.325 21.6111 461.873 23.2424 456.504 26.8466C451.135 30.4508 447.182 35.8049 445.318 41.9968C443.454 48.1887 443.795 54.8353 446.282 60.8042C448.769 66.7732 453.249 71.6952 458.958 74.7317C464.667 77.7682 471.252 78.7314 477.592 77.4571C483.931 76.1828 489.633 72.75 493.725 67.7434C497.817 62.7367 500.047 56.4661 500.035 49.9998C500.037 46.3261 499.311 42.6885 497.898 39.2974C496.485 35.9064 494.414 32.8293 491.803 30.2444ZM485.218 63.17C482.169 66.2227 478.155 68.1234 473.86 68.5482C469.566 68.9729 465.258 67.8955 461.669 65.4994C458.08 63.1033 455.433 59.537 454.179 55.408C452.925 51.2791 453.142 46.8431 454.792 42.856C456.443 38.8689 459.425 35.5775 463.23 33.5426C467.035 31.5077 471.428 30.8552 475.66 31.6965C479.893 32.5377 483.702 34.8205 486.44 38.1559C489.178 41.4913 490.674 45.6729 490.675 49.988C490.683 52.4388 490.206 54.867 489.269 57.1318C488.332 59.3966 486.956 61.453 485.218 63.1818V63.17Z" fill="#01AAEB"/>
</g>
<defs>
<clipPath id="clip0_1228_339">
<rect width="500" height="100" fill="white"/>
</clipPath>
</defs>
</svg>
