<?xml version="1.0" encoding="UTF-8" standalone="no"?>
<!DOCTYPE svg PUBLIC "-//W3C//DTD SVG 1.1//EN" "http://www.w3.org/Graphics/SVG/1.1/DTD/svg11.dtd">
<svg xmlns="http://www.w3.org/2000/svg" version="1.1" viewBox="0.00 0.00 570.00 240.00">
<circle fill="#ffffff" cx="129.62" cy="20.90" r="20.77"/>
<path fill="#ffffff" d="
  M 570.00 14.14
  L 570.00 27.78
  Q 567.52 34.22 562.24 37.92
  C 549.98 46.52 532.35 39.46 529.93 24.54
  C 528.61 16.37 531.71 8.67 538.38 3.91
  C 549.79 -4.23 565.34 1.30 570.00 14.14
  Z"
/>
<path fill="#ffffff" d="
  M 22.46 84.81
  L 3.27 84.83
  Q 2.95 84.83 2.95 84.52
  L 2.95 54.37
  A 0.43 0.42 0.0 0 1 3.38 53.95
  L 22.29 53.96
  Q 22.79 53.96 22.79 53.46
  L 22.80 23.94
  A 0.26 0.26 0.0 0 1 23.06 23.68
  L 62.95 23.68
  Q 63.48 23.68 63.48 24.20
  L 63.49 53.47
  Q 63.49 53.96 63.97 53.96
  L 92.53 53.94
  Q 93.12 53.94 93.12 54.54
  L 93.13 84.35
  A 0.49 0.49 0.0 0 1 92.64 84.84
  L 63.77 84.81
  A 0.29 0.29 0.0 0 0 63.48 85.10
  Q 63.51 109.76 63.46 132.27
  C 63.45 139.18 64.67 147.36 72.40 149.78
  Q 79.62 152.03 90.37 148.93
  Q 91.37 148.64 91.38 149.68
  L 91.76 178.74
  A 0.47 0.46 -10.3 0 1 91.44 179.19
  Q 75.60 184.13 58.51 182.35
  C 32.62 179.66 23.00 162.22 23.03 137.89
  Q 23.07 111.52 23.03 85.38
  Q 23.03 84.81 22.46 84.81
  Z"
/>
<path fill="#ffffff" d="
  M 207.29 70.01
  Q 207.29 71.57 208.08 70.22
  C 217.99 53.22 237.58 47.17 256.29 50.88
  Q 274.04 54.40 282.93 70.53
  Q 283.29 71.19 283.72 70.57
  Q 296.76 51.48 318.87 50.00
  Q 327.46 49.43 335.16 51.02
  C 358.91 55.94 369.15 79.30 369.18 101.29
  Q 369.24 139.60 369.20 178.96
  A 0.25 0.25 0.0 0 1 368.95 179.21
  L 328.26 179.21
  Q 327.70 179.21 327.70 178.65
  Q 327.73 144.63 327.69 109.74
  C 327.68 98.24 325.09 84.31 310.35 84.07
  C 295.20 83.82 288.92 97.96 288.88 111.00
  Q 288.78 144.95 288.84 178.83
  A 0.38 0.37 90.0 0 1 288.47 179.21
  L 247.96 179.21
  Q 247.32 179.21 247.32 178.57
  Q 247.31 142.27 247.30 105.81
  C 247.30 94.93 242.84 84.39 230.16 84.07
  C 214.97 83.69 208.78 97.94 208.77 111.13
  Q 208.75 143.68 208.77 178.90
  A 0.31 0.31 0.0 0 1 208.46 179.21
  L 167.23 179.21
  Q 167.00 179.21 167.00 178.98
  L 167.00 53.75
  A 0.37 0.36 90.0 0 1 167.36 53.38
  L 206.71 53.38
  Q 207.29 53.38 207.29 53.96
  L 207.29 70.01
  Z"
/>
<path fill="#ffffff" d="
  M 422.36 240.00
  L 380.89 240.00
  L 380.90 53.75
  Q 380.90 53.38 381.27 53.38
  L 419.93 53.38
  A 0.38 0.38 0.0 0 1 420.31 53.76
  L 420.34 68.24
  Q 420.34 69.64 421.21 68.54
  C 429.72 57.68 443.32 50.71 457.42 49.97
  Q 483.03 48.64 500.67 65.18
  C 528.82 91.57 527.44 145.58 497.47 170.02
  Q 480.02 184.25 456.91 182.64
  C 444.58 181.78 430.83 176.29 423.36 166.07
  Q 422.37 164.72 422.37 166.39
  L 422.36 240.00
  Z
  M 478.94 127.06
  C 484.89 106.93 474.41 83.84 451.25 83.83
  C 432.46 83.82 420.48 99.92 420.94 117.76
  C 421.29 130.93 430.91 144.71 444.04 147.51
  C 460.48 151.01 474.27 142.84 478.94 127.06
  Z"
/>
<path fill="#ffffff" d="
  M 108.81 178.89
  L 108.81 53.70
  A 0.32 0.32 0.0 0 1 109.13 53.38
  L 150.00 53.38
  A 0.32 0.32 0.0 0 1 150.32 53.70
  L 150.33 178.89
  A 0.32 0.32 0.0 0 1 150.01 179.21
  L 109.13 179.21
  A 0.32 0.32 0.0 0 1 108.81 178.89
  Z"
/>
<path fill="#ffffff" d="
  M 570.00 53.38
  L 570.00 179.21
  L 530.15 179.13
  Q 529.58 179.13 529.58 178.56
  L 529.58 53.76
  A 0.38 0.37 90.0 0 1 529.95 53.38
  L 570.00 53.38
  Z"
/>
</svg>
