<svg width="416" height="100" viewBox="0 0 416 100" fill="none" xmlns="http://www.w3.org/2000/svg">
<path d="M53.5509 22.7732L0.1733 22.692C0.127337 22.692 0.083257 22.6737 0.0507561 22.6412C0.0182553 22.6087 0 22.5647 0 22.5187L0.0108256 0.173304C0.0108256 0.150545 0.0153135 0.128013 0.0240228 0.106987C0.0327322 0.0859608 0.0454972 0.066853 0.06159 0.0507603C0.0776827 0.0346675 0.0967822 0.0219025 0.117808 0.0131931C0.138835 0.00448378 0.161375 0 0.184134 0L67.724 0.146223C67.7549 0.14633 67.7852 0.154704 67.8118 0.170469C67.8383 0.186235 67.8602 0.208825 67.8751 0.235894C67.8901 0.262963 67.8975 0.293529 67.8966 0.324424C67.8957 0.355318 67.8866 0.385414 67.8702 0.411598L53.6972 22.692C53.6816 22.7168 53.6601 22.7372 53.6345 22.7514C53.6089 22.7656 53.5802 22.7731 53.5509 22.7732Z" fill="white"/>
<path d="M40.8014 44.5227L53.6747 23.0546C53.6898 23.0295 53.7113 23.0088 53.737 22.9945C53.7626 22.9803 53.7916 22.973 53.8209 22.9734L83.8892 23.0276C83.9183 23.0277 83.9469 23.0354 83.9722 23.0499C83.9974 23.0645 84.0185 23.0853 84.0333 23.1105C84.048 23.1356 84.056 23.1641 84.0563 23.1933C84.0567 23.2224 84.0495 23.2512 84.0354 23.2767L71.6008 44.7285C71.5857 44.7536 71.5642 44.7744 71.5385 44.7886C71.5129 44.8029 71.4839 44.8101 71.4546 44.8097L40.9477 44.7772C40.9177 44.7777 40.8882 44.7701 40.8622 44.7553C40.8362 44.7405 40.8146 44.7189 40.7996 44.693C40.7847 44.667 40.777 44.6375 40.7774 44.6076C40.7777 44.5776 40.786 44.5483 40.8014 44.5227Z" fill="white"/>
<path d="M37.2494 50.2528L52.1752 75.1382C52.2369 75.2421 52.2699 75.3605 52.2709 75.4814C52.2718 75.6022 52.2407 75.7211 52.1806 75.826L38.495 99.6553C38.4354 99.76 38.3491 99.8471 38.2449 99.9076C38.1408 99.9682 38.0224 100 37.902 100C37.7815 100 37.6631 99.9682 37.559 99.9076C37.4548 99.8471 37.3685 99.76 37.3089 99.6553L8.97914 50.8485C8.91904 50.7445 8.88749 50.6263 8.8877 50.5062C8.8879 50.386 8.91986 50.268 8.98032 50.1641C9.04077 50.0602 9.1276 49.9741 9.232 49.9146C9.3364 49.855 9.45468 49.8241 9.57486 49.825L36.6645 49.9224C36.7822 49.9224 36.8979 49.9528 37.0004 50.0107C37.1029 50.0686 37.1886 50.152 37.2494 50.2528Z" fill="white"/>
<path d="M406.452 89.8368C401.781 89.8368 397.854 86.0152 397.854 81.4505C397.854 76.7796 401.781 72.958 406.452 72.958C411.123 72.958 415.051 76.7796 415.051 81.4505C415.051 86.0152 411.123 89.8368 406.452 89.8368Z" fill="white"/>
<path d="M332.895 32.6187C332.895 19.0307 344.147 9.58276 360.495 9.58276C376.206 9.58276 386.185 18.2876 386.61 32.3002H373.022C372.703 25.6123 367.926 21.6846 360.283 21.6846C351.897 21.6846 346.483 25.7185 346.483 32.194C346.483 37.7141 349.455 40.7927 355.93 42.2789L368.138 44.9328C381.408 47.799 387.883 54.593 387.883 66.164C387.883 80.6012 376.631 89.9429 359.54 89.9429C342.979 89.9429 332.151 81.132 331.833 67.2255H345.421C345.527 73.8072 350.835 77.735 359.54 77.735C368.563 77.735 374.295 73.8072 374.295 67.3317C374.295 62.13 371.642 59.0515 365.272 57.6715L352.958 54.9114C339.795 52.0452 332.895 44.5081 332.895 32.6187Z" fill="white"/>
<path d="M271.112 88.563H257.736V10.9629H271.218L307.63 65.9518V10.9629H321.005V88.563H307.63L271.112 33.5741V88.563Z" fill="white"/>
<path d="M207.074 88.563H179.155V10.9629H206.331C229.261 10.9629 245.078 26.7802 245.078 49.9222C245.078 72.7458 229.579 88.563 207.074 88.563ZM205.057 23.4893H192.743V76.0366H205.8C221.299 76.0366 230.747 66.0579 230.747 49.9222C230.747 33.468 221.087 23.4893 205.057 23.4893Z" fill="white"/>
<path d="M137.613 50.1345H128.165V41.3235L148.122 22.9585H115.851V10.9629H165.107V21.7908L146.211 39.2004C158.101 41.5359 167.336 50.2406 167.336 63.9348C167.336 79.8582 154.916 89.943 139.205 89.943C124.025 89.943 112.241 80.6013 112.241 63.8286H125.617C125.617 72.7458 131.137 77.8412 139.417 77.8412C147.91 77.8412 153.536 72.3211 153.536 63.7225C153.536 55.8669 148.44 50.1345 137.613 50.1345Z" fill="white"/>
</svg>
