<svg width="200" height="200" viewBox="0 0 200 200" fill="none" xmlns="http://www.w3.org/2000/svg">
<path d="M104.467 44.9114C104.92 46.1002 105.32 47.2921 105.667 48.4872C105.7 48.5959 105.659 48.6488 105.546 48.6457C104.15 48.6115 102.839 48.6729 101.613 48.8298C101.407 48.8578 101.261 48.7762 101.177 48.5851C100.231 46.425 99.1845 44.4297 98.0376 42.5991C96.5038 40.1515 94.7851 38.0528 92.8814 36.303C90.9421 34.5206 88.7882 33.2681 86.4199 32.5454C85.674 32.3186 84.7626 32.2067 83.6856 32.2098C83.6748 32.2098 83.6693 32.2051 83.6693 32.1958L83.667 32.1352C83.667 32.1057 83.6818 32.0901 83.7113 32.0886C87.2591 31.8399 89.9778 31.728 91.8675 31.7529C93.1728 31.77 94.5163 32.1779 95.8978 32.9767C97.2622 33.7677 98.5124 34.85 99.6483 36.2238C100.68 37.4732 101.607 38.8671 102.429 40.4056C103.021 41.5151 103.565 42.6752 104.061 43.8858C104.199 44.2261 104.334 44.568 104.467 44.9114Z" fill="white"/>
<path d="M103.527 32.8856C105.777 33.3006 107.737 33.7124 109.406 34.1211C110.737 34.4474 111.741 35.5686 112.42 36.7341C112.867 37.5002 113.18 38.2081 113.357 38.8577C113.448 39.1949 113.554 39.5181 113.674 39.8274C114.037 40.7668 114.096 41.8507 114.317 42.8553C114.459 43.4909 114.556 44.3277 114.609 45.3658C114.688 46.9027 114.741 48.379 114.769 49.7947C114.771 49.8398 114.75 49.8569 114.706 49.846C113.159 49.456 111.737 49.177 110.441 49.0092C110.33 48.9952 110.263 48.9338 110.238 48.825C110.175 48.557 110.215 48.3145 110.14 48.0372C109.825 46.8507 109.734 45.6479 109.394 44.4497C109.254 43.9618 109.117 43.4381 108.984 42.8786C108.905 42.5461 108.793 42.2205 108.648 41.902C108.466 41.4987 108.424 41.0232 108.24 40.5873C108.001 40.0138 107.755 39.442 107.504 38.8717C106.761 37.1887 105.826 35.7535 104.699 34.5663C103.96 33.7877 103.058 33.1786 101.993 32.7388C101.912 32.7061 101.829 32.6898 101.744 32.6898C101.66 32.6914 101.577 32.6782 101.494 32.6502C101.375 32.6114 101.377 32.588 101.501 32.5803C102.194 32.536 102.877 32.7668 103.527 32.8856Z" fill="white"/>
<path d="M85.261 42.0628C84.8228 41.7271 84.3814 41.3946 83.937 41.0651C82.2276 39.7955 80.383 38.7054 78.4032 37.7947C75.9712 36.6759 73.4195 36.0465 70.7482 35.9066C69.0683 35.818 67.4265 36.0185 65.8228 36.508C65.8135 36.5096 65.8072 36.5065 65.8041 36.4987L65.7855 36.4404C65.7746 36.4093 65.7847 36.3876 65.8158 36.3752C67.7303 35.6246 69.6814 34.9478 71.6689 34.3449C73.3302 33.8398 74.7847 33.578 76.0326 33.5593C78.4024 33.5236 80.7303 34.055 83.0163 35.1537C84.2952 35.7675 85.425 36.4233 86.4055 37.1211C88.4413 38.571 90.3185 40.278 92.0372 42.2423C93.7031 44.1444 95.4218 46.5539 97.1934 49.4707C97.2618 49.5842 97.2315 49.6564 97.1025 49.6875C95.8966 49.9766 94.7785 50.3666 93.7482 50.8577C93.6612 50.8996 93.5873 50.8825 93.5267 50.8064C92.6433 49.6898 91.8041 48.55 90.8531 47.494C89.9347 46.4754 89.0559 45.4707 88.0745 44.5523C87.1561 43.6922 86.2517 42.818 85.261 42.0628Z" fill="white"/>
<path d="M118.664 37.1073C120.931 38.0133 123.11 38.9651 125.2 39.9628C126.09 40.387 126.107 41.8742 126.032 42.7647C125.92 44.1096 125.755 45.45 125.412 46.7413C125.149 47.739 124.939 48.7437 124.606 49.7157C124.421 50.2565 124.354 50.7996 124.137 51.3241C123.924 51.8416 123.769 52.3777 123.671 52.9325C123.644 53.0832 123.562 53.1252 123.424 53.0584C122.134 52.4305 120.775 51.8478 119.347 51.3101C119.327 51.3028 119.31 51.2892 119.299 51.2714C119.288 51.2536 119.284 51.2327 119.286 51.2122C119.521 49.279 119.722 47.3676 119.89 45.4779C120.07 43.4484 119.922 41.3637 119.445 39.2239C119.338 38.7413 119.058 38.3754 118.871 37.9185C118.742 37.6015 118.522 37.3295 118.212 37.1026C117.979 36.9317 118 36.8882 118.277 36.9721C118.406 37.011 118.535 37.056 118.664 37.1073Z" fill="white"/>
<path d="M90.14 52.7903C89.1905 53.4041 88.321 54.0623 87.5316 54.7647C87.471 54.8191 87.4096 54.8191 87.3474 54.7647C85.2573 52.8672 83.039 51.1423 80.6924 49.5898C77.3047 47.349 73.7468 45.6372 70.0188 44.4546C63.161 42.2798 54.9512 42.0933 49.0304 46.6621C49.0149 46.673 49.0009 46.6714 48.9885 46.6574L48.9861 46.6551C48.9753 46.6411 48.976 46.6279 48.9885 46.6155C49.1858 46.4228 49.3964 46.2394 49.6202 46.0654C51.1726 44.8564 52.8455 43.6023 54.6388 42.3031C57.7903 40.0203 61.4018 38.9434 65.4733 39.0724C69.429 39.2006 73.3661 40.3964 76.8882 42.1749C79.3902 43.4352 81.7437 44.9426 83.9488 46.6971C86.2216 48.5059 88.3148 50.4313 90.1749 52.5292C90.2651 52.6302 90.2534 52.7173 90.14 52.7903Z" fill="white"/>
<path d="M131.811 47.2099C131.98 46.6505 132.182 46.1034 132.417 45.5689C132.603 45.1446 132.655 44.6971 132.669 44.2402C132.673 44.1205 132.725 44.0949 132.825 44.1633L139.284 48.5689C139.362 48.6217 139.368 48.6815 139.303 48.7484C138.637 49.4212 137.986 50.1532 137.347 50.9442C135.849 52.7981 134.226 54.8191 132.477 57.0071C132.204 57.349 131.963 57.6978 131.755 58.0537C131.711 58.1283 131.655 58.1384 131.585 58.084C130.453 57.1998 129.209 56.3459 127.85 55.5222C127.768 55.471 127.749 55.4026 127.794 55.3171C129.002 52.997 130.118 50.7857 131.142 48.6831C131.247 48.4655 131.337 48.248 131.41 48.0304C131.512 47.7204 131.715 47.5199 131.811 47.2099Z" fill="white"/>
<path d="M39.2825 57.4686C40.1217 56.1601 40.988 54.9985 41.8816 53.9837C44.6811 50.7949 48.6088 48.8789 52.8396 48.042C54.3594 47.7421 55.9507 47.5766 57.6135 47.5455C64.8489 47.4127 72.2359 49.7064 78.6391 53.2775C80.176 54.1337 81.723 55.0918 83.2802 56.1516C83.8489 56.5401 84.3921 56.9441 84.9095 57.3637C84.9701 57.4134 84.9795 57.4709 84.9375 57.5362L83.1566 60.2914C83.1193 60.352 83.0696 60.3645 83.0074 60.3287C73.4457 54.8719 62.1333 51.2565 51.1286 53.1772C48.1652 53.6947 45.4021 54.6761 42.8396 56.1213C40.4837 57.4499 38.4923 59.1951 36.8652 61.3567C36.8528 61.3707 36.8396 61.373 36.8256 61.3637H36.8233C36.8077 61.3528 36.8054 61.3388 36.8163 61.3217C37.5948 60.0257 38.4503 58.7646 39.2825 57.4686Z" fill="white"/>
<path d="M150.791 59.5314C149.936 59.3589 148.995 59.4327 147.968 59.7528C147.073 60.0325 146.256 60.341 145.518 60.6782C143.288 61.6992 141.025 62.9579 138.73 64.4545C138.662 64.4995 138.6 64.491 138.546 64.4288C137.556 63.299 136.525 62.2563 135.453 61.3006C135.433 61.2829 135.417 61.2613 135.407 61.2372C135.396 61.2131 135.391 61.1871 135.391 61.1607C135.391 61.1344 135.396 61.1083 135.407 61.0843C135.417 61.0602 135.433 61.0386 135.453 61.0209C137.596 59.0597 139.77 57.2656 141.977 55.6386C142.909 54.951 143.961 54.2656 145.035 53.9626C145.655 53.7878 145.858 54.0419 146.245 54.4195C148.045 56.1755 149.776 57.9308 151.439 59.6852C151.547 59.8002 151.529 59.8282 151.383 59.7691C151.178 59.6876 151.01 59.578 150.791 59.5314Z" fill="white"/>
<path d="M30.1002 79.6786C30.007 79.8433 29.9347 80.0166 29.8834 80.1984C29.8648 80.2636 29.843 80.2644 29.8182 80.2007C29.8042 80.1665 29.8011 80.1323 29.8088 80.0981C30.0342 79.2077 30.2486 78.2924 30.4522 77.3522C30.5548 76.8814 30.7024 76.3305 30.8951 75.6995C31.0614 75.1587 31.2012 74.6079 31.3147 74.0469C31.4001 73.6288 31.519 73.2318 31.6713 72.8557C31.8764 72.3476 31.951 71.8674 32.2028 71.3569C33.0622 69.6164 33.9456 68.1891 34.8531 67.0748C39.8065 60.9863 47.5804 58.5364 55.1841 58.1494C58.1445 58.0002 61.1057 58.116 64.0676 58.4967C70.0474 59.2675 75.8865 60.9676 81.5851 63.597C81.6566 63.6296 81.6814 63.684 81.6597 63.7601C81.3364 64.8744 81.0948 65.9948 80.9347 67.1215C80.9207 67.2194 80.8671 67.2528 80.7739 67.2217C78.575 66.4804 76.3372 65.8503 74.0606 65.3312C67.6861 63.8814 61.4071 63.4517 55.2238 64.0422C52.2401 64.3266 49.2626 64.928 46.2914 65.8464C42.2191 67.1051 38.4988 69.0445 35.3986 71.8184C34.1243 72.9591 32.9503 74.3398 31.8764 75.9606C31.6433 76.3118 31.4413 76.6646 31.2704 77.0189C31.0932 77.3872 30.9091 77.7532 30.7179 78.1168C30.4475 78.6343 30.3846 79.1774 30.1002 79.6786Z" fill="white"/>
<path d="M122.871 80.5828C122.986 80.9573 123.122 81.3225 123.279 81.6784C123.62 82.4476 123.704 83.2518 123.955 84.0211C124.097 84.4562 124.203 84.8905 124.275 85.3241C124.596 87.2619 124.784 89.1259 124.836 90.9162C124.85 91.38 124.697 91.7949 124.713 92.2565C124.725 92.6776 124.685 93.098 124.592 93.5176C124.41 94.3241 124.45 95.1632 124.233 95.9301C124.121 96.3233 124.02 96.7188 123.93 97.1166C123.523 98.9146 122.899 100.533 122.058 101.972C121.991 102.087 121.895 102.1 121.769 102.009C121.739 101.988 121.715 101.958 121.7 101.924C121.685 101.89 121.68 101.853 121.685 101.816C121.816 100.758 122.051 99.7134 122.177 98.6551C122.394 96.8167 122.509 95.1555 122.519 93.6714C122.532 92.2542 122.435 90.6753 122.228 88.9348C122.147 88.2619 122.018 87.6023 121.839 86.9558C121.676 86.3684 121.547 85.7895 121.452 85.2192C121.41 84.9651 121.263 84.8812 121.209 84.6691C121.004 83.8369 120.785 83.0024 120.431 82.2238C120.24 81.8012 120.077 81.3785 119.944 80.9558C119.903 80.8268 119.848 80.819 119.778 80.9325C118.735 82.5937 117.615 84.1516 116.417 85.6061C115.659 86.5261 114.892 87.3264 114.119 88.0071C113.943 88.1609 113.872 88.1228 113.906 87.8928C113.948 87.6193 114.041 87.3629 114.184 87.1236C115.545 84.8641 116.932 82.5448 118.345 80.1656C118.353 80.1522 118.357 80.1366 118.357 80.1208C118.357 80.1049 118.352 80.0895 118.343 80.0764C118.334 80.0633 118.322 80.0531 118.307 80.047C118.292 80.0409 118.276 80.0392 118.261 80.042C112.935 80.8859 107.544 81.6768 102.088 82.415C100.073 82.6869 98.1527 82.8789 96.3283 82.9908C95.7471 83.0265 95.1457 83.0172 94.5241 82.9628C94.489 82.96 94.4555 82.9466 94.4281 82.9244C94.4007 82.9022 94.3807 82.8723 94.3706 82.8385C94.3605 82.8047 94.3609 82.7687 94.3716 82.7351C94.3824 82.7016 94.403 82.672 94.4309 82.6504C94.6034 82.5168 94.8077 82.4088 95.0439 82.3264C96.0043 81.9907 96.9204 81.7141 97.7922 81.4966C103.181 80.1508 108.988 78.9511 115.212 77.8975C115.735 77.8089 116.272 77.7289 116.82 77.6574C116.972 77.6372 116.979 77.5937 116.841 77.5269C114.847 76.5556 113.092 75.7592 111.575 75.1376C109.726 74.3777 107.85 73.5385 105.946 72.6201C105.907 72.6015 105.874 72.5734 105.849 72.5384C105.823 72.5034 105.807 72.4626 105.802 72.4197L105.795 72.3567C105.79 72.3179 105.806 72.3039 105.843 72.3148C108.634 73.143 111.31 74.0327 113.871 74.9838C115.09 75.4375 116.133 75.8835 117.002 76.3218C117.532 76.589 117.618 76.4857 117.261 76.0117C117.101 75.8004 116.959 75.5758 116.836 75.3381C116.717 75.1065 116.586 74.8929 116.443 74.697C115.846 73.8765 115.227 73.0381 114.587 72.1819C114.042 71.4515 113.456 70.7382 112.829 70.042C112.222 69.366 111.614 68.6893 111.007 68.0117C110.497 67.4461 109.916 66.8664 109.263 66.2728C108.459 65.5409 107.701 64.7204 106.86 64.0047C105.904 63.192 104.912 62.3062 103.883 61.3474C103.683 61.1609 103.495 60.9612 103.319 60.7483C103.185 60.5867 103.218 60.537 103.417 60.5991C104.071 60.8043 104.655 61.0677 105.17 61.3893C107.743 62.9946 109.393 64.1042 110.119 64.718C111.333 65.746 112.708 66.76 113.827 67.8812C114.53 68.5883 115.223 69.2845 115.909 69.9698C116.437 70.4997 116.934 71.0716 117.398 71.6854C118.478 73.1143 119.606 74.4057 120.475 75.9977C120.484 76.0136 120.497 76.0266 120.513 76.0352C120.529 76.0439 120.547 76.0478 120.565 76.0466C120.583 76.0454 120.601 76.039 120.615 76.0283C120.63 76.0176 120.641 76.003 120.648 75.9861C120.828 75.4997 121.047 75.0723 121.305 74.704C121.445 74.5067 121.551 74.2984 121.622 74.0793C121.741 73.7227 121.976 73.5012 122.128 73.1796C122.603 72.1695 123.206 71.1819 123.937 70.2169C124.086 70.0211 124.264 69.8649 124.471 69.7483C124.495 69.7345 124.524 69.728 124.552 69.7297C124.58 69.7314 124.608 69.7411 124.631 69.7578C124.654 69.7744 124.671 69.7973 124.682 69.8237C124.692 69.8501 124.695 69.8789 124.69 69.9068C124.547 70.6357 124.347 71.3326 124.091 71.9977C123.774 72.8252 123.634 73.6294 123.256 74.4756C122.892 75.2837 122.53 76.0156 122.167 76.6714C122.098 76.7973 122.134 76.8493 122.277 76.8276C126.596 76.192 130.699 75.8827 134.587 75.8998C136.223 75.9076 137.761 76.0723 139.2 76.394C139.562 76.4748 139.921 76.6209 140.277 76.8322C140.306 76.8499 140.331 76.8743 140.349 76.9035C140.367 76.9327 140.377 76.9657 140.379 76.9998C140.382 77.0339 140.376 77.0681 140.362 77.0994C140.348 77.1307 140.327 77.1582 140.3 77.1796C140.007 77.4127 139.228 77.4593 138.878 77.4919C136.773 77.6862 134.819 77.8827 133.016 78.0817C129.906 78.4235 126.834 78.8074 123.799 79.2332C123.49 79.2767 123.472 79.3746 123.746 79.5269C125.561 80.5385 127.251 81.6986 128.818 83.0071C129.68 83.7281 130.465 84.5152 131.172 85.3684C131.561 85.8361 131.488 85.9239 130.955 85.6318C130.007 85.1096 129.158 84.366 128.244 83.7437C126.535 82.5828 124.781 81.4989 122.983 80.4919C122.871 80.4282 122.834 80.4585 122.871 80.5828Z" fill="white"/>
<path d="M141.685 68.0863C144.298 66.9099 146.882 66.0334 149.438 65.4569C151.366 65.021 154.639 64.5548 156.343 65.8905C156.672 66.15 157.03 66.5587 157.417 67.1166C158.866 69.1989 160.119 71.1321 161.177 72.9161C161.301 73.1259 161.28 73.1414 161.114 72.9627C160.451 72.2541 159.676 71.7343 158.79 71.4033C157.113 70.777 155.207 70.4988 153.07 70.5688C150.079 70.6667 147.347 71.1632 144.175 71.9627C144.099 71.9814 144.041 71.9565 144.002 71.8881C143.881 71.6737 143.76 71.4654 143.639 71.2634C143.247 70.6107 142.808 69.9254 142.322 69.2075C142.106 68.8904 141.88 68.5688 141.646 68.2424C141.596 68.1741 141.609 68.122 141.685 68.0863Z" fill="white"/>
<path d="M31.8251 82.6059C31.8826 82.525 31.9409 82.445 32 82.3658C33.5447 80.3145 35.4918 78.487 37.8415 76.8832C43.3799 73.1024 50.1958 70.9205 56.9277 69.9345C63.2789 69.0052 69.6495 69.0674 76.0396 70.121C77.6091 70.379 79.0808 70.6874 80.4545 71.0464C80.5478 71.0713 80.5936 71.1319 80.5921 71.2282C80.5827 72.5165 80.6713 73.7706 80.8578 74.9905C80.8733 75.0946 80.8283 75.1389 80.7226 75.1233C78.8547 74.8498 76.9712 74.6836 75.0722 74.6245C67.7436 74.3945 60.5322 75.3595 53.4382 77.5196C50.5136 78.41 47.6604 79.5336 44.8788 80.8902C42.4638 82.0682 40.1593 83.4877 37.965 85.149C35.8858 86.7216 34.129 88.4505 32.6946 90.3355C31.6534 91.703 30.8065 93.2407 30.1538 94.9485C29.69 96.163 29.5711 97.4194 29.3007 98.6571C29.2929 98.6944 29.2929 98.7333 29.3007 98.7737C29.3038 98.7923 29.3038 98.811 29.3007 98.8296C29.2851 98.9151 29.275 98.9143 29.2704 98.8273C29.1554 96.6734 29.021 94.4031 28.8671 92.0161C28.7412 90.0581 29.0513 88.1552 29.7972 86.3075C30.3318 84.9804 31.0077 83.7465 31.8251 82.6059Z" fill="white"/>
<path d="M168.114 88.3822C168.184 88.5757 168.282 88.8228 168.294 89.0232C168.301 89.1848 168.281 89.188 168.233 89.0326C168.188 88.8911 168.126 88.7552 168.046 88.6246C167.314 87.4063 166.534 86.4257 165.706 85.6829C163.858 84.0232 161.437 82.7443 158.443 81.8461C156.412 81.2369 154.324 80.8197 152.179 80.5943C150.68 80.4358 149.218 80.3387 147.795 80.3029C147.675 80.2998 147.597 80.2408 147.559 80.1258C147.412 79.6813 147.285 79.2315 147.179 78.7761C147.065 78.2913 146.746 77.8904 146.648 77.4125C146.559 76.9898 146.383 76.585 146.119 76.1981C146.111 76.1859 146.106 76.1718 146.105 76.1573C146.104 76.1427 146.106 76.1281 146.112 76.1149C146.118 76.1016 146.128 76.0901 146.139 76.0814C146.151 76.0727 146.165 76.0671 146.179 76.0652C150.475 75.5594 155.049 75.5174 159.112 76.6876C160.911 77.205 162.809 78.1025 164.098 79.4498C164.982 80.3713 165.629 81.4444 166.039 82.6689C166.223 83.2128 166.417 83.766 166.622 84.3286C167.098 85.6293 167.595 86.9805 168.114 88.3822Z" fill="white"/>
<path d="M77.1397 79.4871C78.7341 79.369 80.2672 79.3325 81.7388 79.3776C81.8243 79.3807 81.8732 79.4242 81.8856 79.5081C81.9229 79.7692 81.9812 80.0139 82.0605 80.2424C82.4428 81.3519 82.8476 82.4195 83.2749 83.4452C83.3153 83.5415 83.2835 83.5967 83.1794 83.6107C80.2718 83.9976 77.4645 84.5469 74.7574 85.2587C69.3076 86.6915 63.9408 88.7101 58.6572 91.3146C54.4909 93.369 50.6898 95.6441 47.2539 98.1398C42.9463 101.268 38.9486 104.907 36.212 109.387C35.5236 110.514 34.9773 111.695 34.5733 112.932C34.3122 113.726 34.1615 114.482 34.1211 115.198C34.076 115.977 34.118 116.754 34.247 117.529C34.2485 117.545 34.247 117.545 34.2423 117.529C33.4031 115.262 32.6083 113.061 31.8577 110.928C31.4692 109.821 31.2578 108.942 31.2236 108.291C31.1786 107.379 31.2252 106.414 31.3635 105.396C31.4148 105.019 31.5142 104.662 31.6619 104.326C31.8414 103.921 31.874 103.496 32.0488 103.1C32.9921 100.97 34.2609 99.0108 35.8553 97.2237C39.4264 93.2237 44.1094 89.979 48.9299 87.4848C54.8243 84.4374 61.1545 82.1996 67.9206 80.7715C70.8297 80.1577 73.9027 79.7295 77.1397 79.4871Z" fill="white"/>
<path d="M155.107 85.6922C159.152 86.8204 163.198 88.4941 166.331 91.3775C167.493 92.4467 168.403 93.5725 169.058 94.7551C170.012 96.4723 170.581 98.2516 170.765 100.093C170.971 102.177 171.114 104.386 171.193 106.72C171.195 106.737 171.187 106.746 171.17 106.746H171.168C171.145 106.749 171.131 106.738 171.128 106.713C171.042 105.83 170.942 105.021 170.622 104.161C169.626 101.468 168.085 99.1188 165.998 97.1141C164.299 95.4793 162.457 94.0877 160.471 92.9393C156.89 90.8647 153.063 89.3441 148.988 88.3775C148.933 88.364 148.884 88.3327 148.848 88.2883C148.813 88.244 148.793 88.1893 148.793 88.1328C148.785 86.8274 148.702 85.5648 148.545 84.3449C148.538 84.2936 148.559 84.2726 148.611 84.2819C150.904 84.6533 153.07 85.1234 155.107 85.6922Z" fill="white"/>
<path d="M85.7084 88.2026C86.1186 88.8086 86.5079 89.4186 86.8762 90.0324C87.1606 90.5056 87.5056 90.9368 87.8366 91.3797C87.9018 91.4652 87.8855 91.5297 87.7876 91.5732C85.5918 92.5709 83.6431 93.5312 81.9415 94.4543C73.9042 98.8148 66.1474 104.229 58.6711 110.697C54.7659 114.074 51.3898 117.471 48.5429 120.89C47.8467 121.725 47.1738 122.597 46.5242 123.506C45.0976 125.501 43.9881 127.331 43.2119 129.496C42.8272 130.569 42.6524 132.014 43.0231 133.077C43.0728 133.221 43.0534 133.231 42.9648 133.107C42.093 131.878 41.2857 130.69 40.5429 129.543C39.9275 128.592 39.3183 127.597 38.7154 126.559C38.3642 125.956 38.1528 125.35 38.0813 124.741C37.9679 123.782 38.051 122.822 38.3307 121.86C38.783 120.3 39.4706 118.804 40.3937 117.373C40.72 116.868 41.0673 116.348 41.4356 115.813C41.7993 115.286 42.1878 114.771 42.6011 114.268C44.2717 112.237 46.0852 110.328 48.0417 108.541C51.9718 104.951 56.4877 101.57 61.5895 98.3984C65.6594 95.87 69.8513 93.6408 74.1652 91.7107C77.6555 90.149 81.3393 88.8047 85.2165 87.6781C85.2833 87.6585 85.3551 87.6662 85.4162 87.6994C85.4774 87.7326 85.5229 87.7886 85.5429 87.8552C85.5786 87.978 85.6338 88.0938 85.7084 88.2026Z" fill="white"/>
<path d="M168.893 125.592C168.883 125.622 168.864 125.632 168.834 125.625C168.813 125.618 168.804 125.605 168.809 125.585C169.113 124.143 169.212 122.733 169.105 121.357C169.043 120.55 168.946 119.665 168.813 118.702C168.745 118.192 168.63 117.733 168.468 117.326C168.226 116.716 168.123 116.077 167.869 115.443C167.096 113.514 166.183 111.755 165.13 110.166C163.751 108.082 162.112 106.127 160.214 104.303C157.51 101.705 154.54 99.4856 151.303 97.6457C150.211 97.0256 149.048 96.3986 147.816 95.7646C147.71 95.7102 147.682 95.6286 147.732 95.5198C147.943 95.0567 148.085 94.5649 148.158 94.0443C148.247 93.4242 148.464 92.8648 148.557 92.2448C148.558 92.2347 148.562 92.2251 148.568 92.2167C148.573 92.2083 148.581 92.2014 148.59 92.1964C148.599 92.1914 148.608 92.1886 148.618 92.1881C148.629 92.1876 148.639 92.1894 148.648 92.1935C152.674 93.7622 156.501 95.7343 159.991 98.2121C162.684 100.122 164.925 102.263 166.713 104.636C167.674 105.911 168.479 107.259 169.128 108.681C169.975 110.53 170.51 112.505 170.732 114.606C170.965 116.809 170.482 119.007 170.058 121.121C169.786 122.473 169.398 123.963 168.893 125.592Z" fill="white"/>
<path d="M80.7392 111.879C76.1487 116.791 72.0982 121.318 68.5877 125.461C65.9878 128.529 63.4074 131.717 60.8464 135.025C60.4486 135.54 59.5294 136.817 58.0889 138.858C56.9607 140.458 55.9917 141.996 55.1821 143.471C54.8091 144.15 54.5582 144.938 54.4292 145.837C54.4152 145.925 54.3764 145.938 54.3126 145.876C52.3561 143.988 50.5496 142.175 48.8931 140.438C48.0352 139.538 48.3336 138.077 48.7579 137.051C49.0096 136.445 49.3018 135.812 49.6343 135.151C49.9218 134.579 50.2466 134.015 50.6087 133.457C52.4175 130.655 54.4028 128.001 56.5644 125.494C58.8472 122.846 61.2816 120.22 63.8674 117.615C69.4976 111.942 75.4502 106.641 81.7252 101.713C84.5116 99.5235 87.5232 97.3541 90.7602 95.2049C90.8441 95.149 90.9195 95.1583 90.9863 95.2329C91.9311 96.2912 92.9723 97.3354 94.1098 98.3657C94.1767 98.4264 94.1774 98.4877 94.1122 98.5499C89.2948 103.053 84.8371 107.496 80.7392 111.879Z" fill="white"/>
<path d="M155.925 106.653C158.819 109.504 161.208 112.627 163.093 116.021C163.242 116.288 163.368 116.557 163.471 116.828C163.62 117.222 163.898 117.471 164.014 117.872C164.152 118.352 164.422 118.762 164.611 119.252C165.218 120.832 165.654 122.225 165.916 123.429C166.132 124.428 166.289 125.64 166.387 127.063C166.48 128.409 166.402 129.964 166.152 131.73C165.905 133.452 165.259 135.058 164.469 136.664C164.416 136.772 164.348 136.87 164.266 136.961C164.061 137.184 163.998 137.548 163.802 137.807C163.671 137.982 163.553 138.164 163.448 138.352C163.135 138.912 162.801 139.469 162.445 140.023C161.64 141.274 160.845 142.531 160.061 143.793C160.045 143.819 160.025 143.825 160 143.809L159.998 143.807C159.973 143.791 159.968 143.771 159.984 143.746C161.406 141.413 162.403 138.783 162.716 136.11C163.034 133.373 162.908 130.648 162.336 127.935C162.163 127.117 161.969 126.295 161.753 125.469C161.643 125.058 161.424 124.702 161.333 124.296C161.208 123.727 160.944 123.247 160.758 122.709C160.483 121.918 160.159 121.13 159.786 120.345C158.005 116.586 155.694 113.077 152.853 109.818C150.37 106.968 147.594 104.386 144.527 102.07C144.454 102.014 144.445 101.95 144.501 101.879C145.134 101.054 145.713 100.141 146.238 99.14C146.28 99.0577 146.34 99.0413 146.42 99.0911C149.872 101.32 153.077 103.846 155.925 106.653Z" fill="white"/>
<path d="M81.086 138.837C78.6213 142.596 76.1225 146.236 73.5895 149.758C72.6633 151.043 71.6843 152.311 70.6524 153.562C69.9966 154.357 69.2577 155.132 68.4356 155.886C68.3286 155.984 68.1915 156.043 68.0465 156.054C67.9014 156.064 67.7568 156.026 67.6361 155.944L61.1932 151.585C61.1107 151.53 61.0535 151.445 61.0338 151.347C61.0142 151.25 61.0337 151.149 61.0883 151.065C62.0191 149.654 62.9593 148.285 63.9088 146.958C68.7107 140.256 73.4325 133.803 78.0743 127.599C84.842 118.556 91.4185 109.882 97.8039 101.576C97.8505 101.515 97.9041 101.508 97.9647 101.555C99.1846 102.479 100.429 103.322 101.699 104.084C101.766 104.126 101.781 104.182 101.746 104.252C100.659 106.309 99.9492 107.637 99.6151 108.235C93.7596 118.719 87.5832 128.919 81.086 138.837Z" fill="white"/>
<path d="M153.748 119.811C155.885 123.845 157.315 128.08 158.039 132.515C158.448 135.016 158.518 137.575 158.249 140.194C158.147 141.194 157.888 142.249 157.655 143.268C157.226 145.124 156.396 146.96 155.431 148.587C153.972 151.049 151.792 152.967 149.443 154.753C148.094 155.779 146.767 156.765 145.461 157.711C145.433 157.731 145.409 157.727 145.389 157.699L145.387 157.697C145.368 157.672 145.37 157.65 145.394 157.632C148.585 155.096 150.753 151.685 151.96 147.774C152.457 146.164 152.775 144.64 152.913 143.201C153.229 139.915 153.103 136.647 152.536 133.394C151.913 129.823 150.833 126.242 149.296 122.65C147.956 119.518 146.338 116.497 144.44 113.59C144.108 113.082 143.6 112.35 142.916 111.396C141.781 109.816 140.541 108.345 139.27 106.879C139.211 106.809 139.22 106.75 139.296 106.702C140.23 106.111 141.105 105.444 141.92 104.699C141.992 104.634 142.063 104.634 142.135 104.699C145.605 107.87 148.676 111.506 151.347 115.608C152.258 117.007 152.981 118.364 153.748 119.811Z" fill="white"/>
<path d="M102.319 135.797C102.147 136.208 102.035 136.627 101.853 137.035C101.227 138.443 100.597 139.891 99.9648 141.38C99.8452 141.663 99.7053 141.961 99.5452 142.275C99.4007 142.556 99.2593 142.852 99.121 143.163C98.1777 145.269 97.006 147.58 95.6058 150.096C94.6082 151.884 93.5204 153.689 92.3424 155.508C91.1412 157.364 89.7814 159.094 88.2632 160.699C87.0231 162.009 84.6944 164.061 82.7783 163.317C80.2702 162.345 77.8623 161.408 75.5336 160.219C75.4093 160.156 75.4163 160.122 75.5546 160.119C76.7294 160.086 78.1746 158.73 78.9788 157.828C79.4528 157.296 79.933 156.752 80.4194 156.196C80.912 155.632 81.3665 155.063 81.783 154.49C83.3246 152.379 84.755 150.276 86.0744 148.18C86.9679 146.761 87.8016 145.386 88.5755 144.054C92.1793 137.861 95.4326 131.63 98.3354 125.361C99.5553 122.729 100.652 120.235 101.624 117.879C101.727 117.629 101.874 117.452 101.951 117.187C102.161 116.45 102.536 115.837 102.776 115.114C102.917 114.689 103.079 114.28 103.261 113.888C103.415 113.554 103.538 113.222 103.631 112.893C103.769 112.417 104.065 112.028 104.189 111.536C104.266 111.227 104.374 110.926 104.513 110.634C104.788 110.056 104.895 109.434 105.154 108.832C105.466 108.107 105.676 107.338 105.879 106.562C105.907 106.456 105.969 106.428 106.065 106.478C107.415 107.171 108.789 107.762 110.186 108.25C110.261 108.276 110.294 108.329 110.286 108.408C110.227 108.986 110.129 109.549 109.99 110.098C109.75 111.058 109.685 112.051 109.429 113.005C109.189 113.9 109.074 114.846 108.799 115.73C108.689 116.086 108.597 116.452 108.524 116.83C108.284 118.082 107.855 119.282 107.564 120.541C107.46 120.998 107.326 121.428 107.163 121.832C106.946 122.371 106.944 122.935 106.701 123.473C106.417 124.1 106.303 124.776 106.084 125.434C105.468 127.278 104.851 129.099 104.231 130.895C104.13 131.187 104.022 131.464 103.907 131.725C103.779 132.011 103.662 132.305 103.555 132.606C103.16 133.71 102.748 134.773 102.319 135.797Z" fill="white"/>
<path d="M127.942 165.667C127.94 165.662 127.942 165.659 127.947 165.657C130.211 164.788 132.163 163.463 133.802 161.68C134.904 160.482 135.815 159.228 136.534 157.918C137.109 156.872 137.637 155.736 138.119 154.508C138.612 153.249 139.032 151.884 139.38 150.412C139.557 149.671 139.766 148.457 140.007 146.771C140.183 145.55 140.295 144.293 140.343 143C140.45 140.176 140.408 137.8 140.217 135.872C140.004 133.726 139.728 131.611 139.387 129.527C139.338 129.228 139.205 128.993 139.156 128.699C138.908 127.259 138.596 125.891 138.222 124.597C137.431 121.857 136.871 120.063 136.543 119.214C136.135 118.159 135.742 117.174 135.366 116.259C134.55 114.271 133.603 112.297 132.525 110.335C132.486 110.267 132.438 110.208 132.383 110.158C132.198 109.998 132.222 109.884 132.457 109.816C133.595 109.482 134.71 109.075 135.804 108.597C135.868 108.567 135.921 108.581 135.963 108.639C139.015 112.761 141.542 117.436 143.543 122.662C143.672 122.997 143.783 123.336 143.877 123.678C143.993 124.098 144.275 124.482 144.35 124.89C144.42 125.283 144.526 125.662 144.669 126.025C145.156 127.27 145.315 128.606 145.714 129.876C145.972 130.699 145.986 131.585 146.224 132.405C146.341 132.806 146.421 133.2 146.464 133.585C146.598 134.738 146.734 135.893 146.872 137.051C146.996 138.086 147.069 139.152 147.091 140.249C147.121 141.845 147.101 142.92 147.033 143.473C146.862 144.848 146.695 146.184 146.532 147.48C146.427 148.315 146.145 149.03 145.998 149.837C145.945 150.13 145.869 150.429 145.769 150.732C145.504 151.546 145.233 152.318 144.956 153.049C144.541 154.149 143.937 155.346 143.145 156.639C141.532 159.269 139.428 161.219 136.835 162.487C136.226 162.785 135.517 163.089 134.709 163.398C133.222 163.97 131.772 164.573 130.315 165.021C129.549 165.257 128.78 165.498 128.007 165.743C127.986 165.75 127.971 165.743 127.963 165.722L127.942 165.667Z" fill="white"/>
<path d="M114.56 115.166C114.648 113.369 114.708 111.579 114.739 109.795C114.741 109.702 114.786 109.668 114.877 109.692C116.365 110.098 117.797 110.369 119.17 110.506C119.21 110.51 119.248 110.528 119.276 110.557C119.305 110.586 119.322 110.624 119.327 110.664C119.783 115.324 120.147 120.131 119.865 124.879C119.704 127.576 119.536 130.408 119.128 133.159C118.888 134.779 118.699 136.485 118.331 138.14C118.207 138.696 118.096 139.262 117.998 139.837C117.926 140.253 117.825 140.692 117.692 141.154C117.445 142.019 117.313 142.898 117.044 143.755C116.911 144.183 116.793 144.612 116.692 145.042C116.604 145.42 116.494 145.798 116.364 146.177C116.238 146.544 116.115 146.93 115.996 147.336C115.464 149.151 114.715 151.183 113.748 153.431C112.704 155.86 111.558 158.044 110.31 159.981C109.482 161.27 108.567 162.466 107.564 163.571C105.364 166 102.455 168.042 99.0445 167.483C97.1719 167.175 95.3335 166.832 93.5293 166.452C92.9434 166.33 92.3926 166.183 91.8766 166.014C91.6699 165.947 91.6754 165.926 91.8929 165.949C92.4866 166.017 93.0794 165.932 93.6715 165.692C94.8479 165.215 95.9209 164.524 96.8906 163.618C97.6971 162.864 98.4244 162.08 99.0724 161.266C100.32 159.693 101.473 157.993 102.529 156.166C103.079 155.218 103.588 154.285 104.054 153.366C105.76 150.019 107.182 146.695 108.32 143.394C108.464 142.976 108.611 142.59 108.76 142.236C108.894 141.92 108.995 141.608 109.063 141.298C109.229 140.543 109.613 139.912 109.772 139.145C109.884 138.599 110.149 138.133 110.273 137.592C110.436 136.877 110.629 136.174 110.851 135.483C111.014 134.973 111.145 134.469 111.245 133.97C111.313 133.62 111.409 133.281 111.532 132.951C111.811 132.201 111.865 131.385 112.096 130.611C112.225 130.179 112.336 129.734 112.429 129.278C112.631 128.274 112.837 127.254 113.047 126.219C113.303 124.963 113.434 123.627 113.709 122.338C113.819 121.818 113.897 121.297 113.942 120.776C114.105 118.891 114.469 117.035 114.56 115.166Z" fill="white"/>
<path d="M109.816 168.084C111.971 167.722 113.924 166.759 115.676 165.196C116.457 164.5 117.159 163.762 117.781 162.984C118.887 161.601 119.829 160.153 120.606 158.641C121.695 156.522 122.634 154.244 123.422 151.809C123.676 151.024 123.783 150.182 124.077 149.42C124.349 148.707 124.398 147.951 124.608 147.229C124.953 146.04 125.105 144.79 125.342 143.569C125.485 142.832 125.614 142.024 125.727 141.145C125.878 139.979 126.001 138.858 126.098 137.781C126.778 130.224 126.41 122.866 124.993 115.707C124.769 114.571 124.473 113.494 124.251 112.387C124.158 111.916 123.946 111.499 123.837 111.031C123.815 110.937 123.852 110.891 123.948 110.891C125.363 110.902 126.754 110.821 128.123 110.648C128.22 110.636 128.283 110.675 128.314 110.767C128.613 111.644 129.032 112.394 129.282 113.31C129.429 113.849 129.69 114.338 129.865 114.874C130.281 116.158 130.691 117.458 131.095 118.774C131.215 119.164 131.3 119.54 131.352 119.902C131.429 120.452 131.673 120.907 131.774 121.45C132.142 123.443 132.573 125.434 132.832 127.45C133.049 129.147 133.277 130.835 133.363 132.464C133.569 136.281 133.537 139.616 133.268 142.471C133.077 144.493 132.816 146.34 132.487 148.012C132.319 148.86 132.134 149.762 131.932 150.716C131.83 151.199 131.708 151.63 131.569 152.01C131.359 152.578 131.261 153.142 131.056 153.725C130.387 155.635 129.715 157.254 129.037 158.581C128.591 159.452 127.972 160.466 127.179 161.62C126.032 163.295 124.692 164.675 123.158 165.76C121.349 167.042 119.319 167.676 116.909 167.832C114.559 167.986 112.175 168.208 109.823 168.166C109.521 168.161 109.519 168.134 109.816 168.084Z" fill="white"/>
</svg>
