<svg width="314" height="314" viewBox="0 0 314 314" fill="none" xmlns="http://www.w3.org/2000/svg">
<path d="M164.012 70.5109C164.724 72.3773 165.352 74.2486 165.896 76.1248C165.948 76.2956 165.884 76.3785 165.706 76.3737C163.515 76.32 161.457 76.4164 159.532 76.6628C159.208 76.7067 158.98 76.5786 158.848 76.2785C157.362 72.8872 155.719 69.7545 153.918 66.8805C151.51 63.0378 148.812 59.7429 145.823 56.9957C142.778 54.1973 139.397 52.2308 135.679 51.0963C134.507 50.7401 133.076 50.5644 131.386 50.5693C131.369 50.5693 131.36 50.562 131.36 50.5473L131.356 50.4522C131.356 50.4058 131.38 50.3814 131.426 50.379C136.996 49.9886 141.264 49.813 144.231 49.852C146.281 49.8788 148.39 50.5193 150.559 51.7733C152.701 53.0152 154.664 54.7145 156.447 56.8713C158.067 58.8328 159.523 61.0213 160.813 63.4367C161.743 65.1787 162.597 67 163.375 68.9006C163.592 69.4349 163.804 69.9717 164.012 70.5109Z" fill="black"/>
<path d="M162.537 51.6307C166.07 52.2822 169.146 52.9287 171.767 53.5704C173.856 54.0827 175.434 55.843 176.499 57.6729C177.201 58.8757 177.692 59.987 177.97 61.0068C178.114 61.5363 178.28 62.0437 178.468 62.5292C179.038 64.0041 179.13 65.7058 179.478 67.2832C179.7 68.281 179.852 69.5949 179.935 71.2246C180.059 73.6376 180.144 75.9554 180.188 78.178C180.19 78.2488 180.157 78.2756 180.089 78.2585C177.659 77.6461 175.426 77.2082 173.392 76.9447C173.218 76.9227 173.112 76.8264 173.073 76.6556C172.974 76.2347 173.037 75.8541 172.919 75.4186C172.425 73.5558 172.283 71.6675 171.748 69.7864C171.529 69.0203 171.314 68.1981 171.104 67.3198C170.98 66.7976 170.804 66.2865 170.577 65.7864C170.292 65.1532 170.226 64.4067 169.937 63.7223C169.561 62.822 169.176 61.9242 168.78 61.0288C167.614 58.3865 166.147 56.1334 164.378 54.2694C163.216 53.047 161.8 52.0906 160.129 51.4002C160.002 51.3489 159.872 51.3233 159.737 51.3233C159.606 51.3258 159.475 51.305 159.346 51.2611C159.158 51.2001 159.162 51.1635 159.357 51.1513C160.444 51.0818 161.516 51.4441 162.537 51.6307Z" fill="black"/>
<path d="M133.86 66.0387C133.172 65.5117 132.479 64.9896 131.781 64.4723C129.098 62.479 126.202 60.7675 123.093 59.3378C119.275 57.5812 115.269 56.5931 111.075 56.3735C108.438 56.2344 105.86 56.5492 103.342 57.3177C103.327 57.3201 103.318 57.3152 103.313 57.303L103.283 57.2116C103.266 57.1628 103.282 57.1286 103.331 57.1091C106.337 55.9307 109.4 54.8681 112.521 53.9215C115.129 53.1286 117.412 52.7175 119.371 52.6882C123.092 52.6321 126.747 53.4665 130.336 55.1914C132.344 56.1551 134.117 57.1847 135.657 58.2802C138.853 60.5565 141.8 63.2366 144.499 66.3205C147.114 69.3068 149.813 73.0897 152.594 77.6691C152.701 77.8472 152.654 77.9607 152.451 78.0095C150.558 78.4633 148.803 79.0757 147.185 79.8466C147.048 79.9125 146.932 79.8857 146.837 79.7661C145.45 78.0131 144.133 76.2236 142.64 74.5657C141.198 72.9665 139.818 71.3891 138.277 69.9472C136.835 68.5968 135.415 67.2244 133.86 66.0387Z" fill="black"/>
<path d="M186.303 58.2583C189.862 59.6807 193.283 61.175 196.565 62.7414C197.963 63.4075 197.988 65.7423 197.871 67.1403C197.695 69.252 197.436 71.3563 196.898 73.3837C196.484 74.9501 196.155 76.5274 195.631 78.0535C195.342 78.9025 195.236 79.7552 194.896 80.5786C194.561 81.3911 194.317 82.2328 194.164 83.1038C194.122 83.3405 193.993 83.4063 193.776 83.3014C191.751 82.3158 189.617 81.4008 187.375 80.5567C187.344 80.5452 187.317 80.5238 187.3 80.4958C187.283 80.4679 187.276 80.4351 187.28 80.403C187.648 77.3679 187.964 74.367 188.228 71.4002C188.511 68.2138 188.278 64.9409 187.529 61.5813C187.36 60.8237 186.921 60.2492 186.629 59.5319C186.426 59.0341 186.081 58.6072 185.593 58.251C185.227 57.9826 185.261 57.9143 185.695 58.046C185.898 58.107 186.1 58.1778 186.303 58.2583Z" fill="black"/>
<path d="M141.52 82.8806C140.029 83.8443 138.664 84.8775 137.424 85.9803C137.329 86.0657 137.233 86.0657 137.135 85.9803C133.854 83.0013 130.371 80.2932 126.687 77.8558C121.368 74.3377 115.782 71.6503 109.929 69.7936C99.1624 66.3791 86.2731 66.0863 76.9775 73.2593C76.9531 73.2764 76.9311 73.2739 76.9116 73.252L76.9079 73.2483C76.8909 73.2264 76.8921 73.2056 76.9116 73.1861C77.2215 72.8836 77.5521 72.5957 77.9034 72.3224C80.3407 70.4243 82.9671 68.4554 85.7827 66.4157C90.7305 62.8317 96.4006 61.1409 102.793 61.3434C109.003 61.5447 115.184 63.4221 120.714 66.2144C124.642 68.1931 128.337 70.5597 131.799 73.3142C135.368 76.1541 138.654 79.177 141.574 82.4707C141.716 82.6293 141.698 82.7659 141.52 82.8806Z" fill="black"/>
<path d="M206.944 74.1196C207.21 73.2413 207.527 72.3825 207.895 71.5432C208.188 70.8771 208.269 70.1744 208.291 69.4572C208.298 69.2693 208.38 69.229 208.536 69.3364L218.677 76.2532C218.799 76.3361 218.808 76.4301 218.706 76.535C217.662 77.5914 216.638 78.7405 215.635 79.9824C213.284 82.893 210.735 86.066 207.99 89.5012C207.561 90.0379 207.183 90.5857 206.856 91.1444C206.788 91.2615 206.699 91.2773 206.589 91.192C204.813 89.8037 202.858 88.4631 200.726 87.17C200.597 87.0895 200.567 86.9821 200.638 86.8479C202.534 83.2053 204.286 79.7335 205.893 76.4325C206.059 76.0909 206.2 75.7494 206.314 75.4078C206.475 74.921 206.794 74.6063 206.944 74.1196Z" fill="black"/>
<path d="M61.673 90.2255C62.9905 88.1712 64.3507 86.3475 65.7535 84.7543C70.1488 79.7479 76.3154 76.7396 82.9577 75.4258C85.3438 74.9549 87.8421 74.6951 90.4527 74.6463C101.812 74.4377 113.41 78.0388 123.463 83.6454C125.876 84.9898 128.305 86.4939 130.749 88.1578C131.642 88.7678 132.495 89.4021 133.307 90.0608C133.403 90.1389 133.417 90.2292 133.351 90.3317L130.555 94.6574C130.497 94.7525 130.419 94.7721 130.321 94.7159C115.309 86.1487 97.5488 80.4725 80.2715 83.4881C75.6188 84.3005 71.2809 85.8412 67.2577 88.1102C63.559 90.1962 60.4324 92.9361 57.8779 96.3299C57.8584 96.3518 57.8377 96.3555 57.8157 96.3408H57.8121C57.7877 96.3238 57.784 96.3018 57.8011 96.275C59.0234 94.2402 60.3665 92.2603 61.673 90.2255Z" fill="black"/>
<path d="M236.74 93.4643C235.399 93.1934 233.921 93.3093 232.309 93.8119C230.903 94.2511 229.621 94.7354 228.462 95.2648C224.961 96.8678 221.409 98.844 217.805 101.193C217.698 101.264 217.602 101.251 217.516 101.153C215.962 99.3795 214.343 97.7424 212.66 96.242C212.629 96.2142 212.605 96.1803 212.588 96.1425C212.571 96.1046 212.562 96.0637 212.562 96.0224C212.562 95.981 212.571 95.9401 212.588 95.9023C212.605 95.8645 212.629 95.8306 212.66 95.8028C216.024 92.7238 219.439 89.9071 222.903 87.3526C224.367 86.273 226.018 85.1971 227.705 84.7213C228.678 84.4468 228.997 84.8457 229.604 85.4386C232.429 88.1956 235.147 90.9513 237.758 93.7058C237.929 93.8863 237.899 93.9303 237.67 93.8375C237.348 93.7095 237.084 93.5375 236.74 93.4643Z" fill="black"/>
<path d="M47.2575 125.095C47.1111 125.354 46.9976 125.626 46.9171 125.911C46.8878 126.014 46.8537 126.015 46.8146 125.915C46.7927 125.861 46.7878 125.807 46.8 125.754C47.1538 124.356 47.4905 122.919 47.8101 121.443C47.9711 120.703 48.2029 119.838 48.5054 118.848C48.7665 117.999 48.986 117.134 49.1641 116.253C49.2983 115.597 49.485 114.974 49.7241 114.383C50.0461 113.585 50.1632 112.831 50.5585 112.03C51.9077 109.297 53.2947 107.056 54.7195 105.307C62.4963 95.748 74.7013 91.9017 86.6392 91.2942C91.287 91.06 95.936 91.2418 100.586 91.8395C109.974 93.0496 119.142 95.7188 128.089 99.8469C128.201 99.8981 128.24 99.9835 128.206 100.103C127.698 101.852 127.319 103.611 127.068 105.38C127.046 105.534 126.961 105.586 126.815 105.538C123.363 104.374 119.85 103.385 116.275 102.57C106.267 100.293 96.4093 99.6188 86.7014 100.546C82.017 100.992 77.3424 101.937 72.6775 103.378C66.2841 105.355 60.4433 108.4 55.5759 112.755C53.5753 114.545 51.732 116.713 50.0461 119.258C49.6802 119.809 49.363 120.363 49.0946 120.919C48.8165 121.498 48.5274 122.072 48.2273 122.643C47.8027 123.455 47.7039 124.308 47.2575 125.095Z" fill="black"/>
<path d="M192.909 126.515C193.089 127.103 193.303 127.676 193.549 128.235C194.083 129.443 194.215 130.705 194.61 131.913C194.832 132.596 195 133.278 195.112 133.959C195.617 137.001 195.911 139.928 195.994 142.738C196.016 143.467 195.774 144.118 195.8 144.843C195.819 145.504 195.756 146.164 195.61 146.823C195.324 148.089 195.386 149.406 195.046 150.61C194.87 151.228 194.712 151.849 194.57 152.473C193.931 155.296 192.951 157.837 191.631 160.096C191.527 160.277 191.375 160.296 191.178 160.155C191.13 160.121 191.093 160.074 191.069 160.021C191.046 159.967 191.038 159.909 191.046 159.851C191.251 158.19 191.621 156.55 191.818 154.889C192.16 152.002 192.339 149.394 192.356 147.064C192.376 144.839 192.223 142.36 191.899 139.628C191.772 138.571 191.568 137.536 191.287 136.521C191.031 135.598 190.829 134.69 190.68 133.794C190.614 133.395 190.384 133.264 190.299 132.931C189.977 131.624 189.633 130.314 189.077 129.092C188.777 128.428 188.522 127.764 188.312 127.101C188.249 126.898 188.162 126.886 188.052 127.064C186.415 129.672 184.656 132.118 182.775 134.402C181.584 135.846 180.382 137.103 179.167 138.171C178.891 138.413 178.78 138.353 178.834 137.992C178.899 137.562 179.045 137.16 179.269 136.784C181.406 133.237 183.584 129.595 185.802 125.86C185.815 125.839 185.822 125.815 185.821 125.79C185.821 125.765 185.813 125.741 185.799 125.72C185.785 125.7 185.765 125.683 185.742 125.674C185.72 125.664 185.694 125.662 185.67 125.666C177.309 126.991 168.845 128.233 160.279 129.392C157.115 129.819 154.1 130.12 151.236 130.296C150.324 130.352 149.379 130.337 148.403 130.252C148.348 130.247 148.296 130.226 148.253 130.191C148.21 130.157 148.178 130.11 148.162 130.057C148.147 130.004 148.147 129.947 148.164 129.894C148.181 129.842 148.213 129.795 148.257 129.761C148.528 129.551 148.849 129.382 149.22 129.253C150.727 128.726 152.166 128.291 153.534 127.95C161.995 125.837 171.112 123.953 180.883 122.299C181.705 122.16 182.547 122.034 183.408 121.922C183.647 121.891 183.658 121.822 183.441 121.717C180.311 120.192 177.555 118.942 175.174 117.966C172.271 116.773 169.325 115.456 166.336 114.014C166.275 113.984 166.222 113.94 166.183 113.885C166.143 113.83 166.118 113.766 166.109 113.699L166.098 113.6C166.091 113.539 166.116 113.517 166.175 113.534C170.557 114.835 174.758 116.231 178.779 117.725C180.691 118.437 182.33 119.137 183.694 119.825C184.526 120.245 184.661 120.083 184.1 119.339C183.849 119.007 183.627 118.654 183.434 118.281C183.246 117.917 183.04 117.582 182.815 117.274C181.878 115.986 180.907 114.67 179.902 113.326C179.046 112.179 178.126 111.059 177.143 109.966C176.189 108.905 175.235 107.842 174.281 106.779C173.481 105.89 172.568 104.98 171.544 104.048C170.281 102.899 169.092 101.611 167.77 100.488C166.27 99.2115 164.712 97.8209 163.097 96.3155C162.782 96.0227 162.487 95.7092 162.211 95.375C162.002 95.1212 162.053 95.0432 162.365 95.1408C163.392 95.4628 164.31 95.8764 165.117 96.3814C169.157 98.9017 171.747 100.644 172.887 101.607C174.793 103.221 176.953 104.813 178.709 106.574C179.812 107.684 180.901 108.777 181.977 109.853C182.807 110.685 183.586 111.582 184.316 112.546C186.01 114.79 187.782 116.817 189.147 119.317C189.16 119.341 189.181 119.362 189.206 119.375C189.231 119.389 189.259 119.395 189.288 119.393C189.316 119.391 189.343 119.381 189.366 119.365C189.389 119.348 189.407 119.325 189.417 119.298C189.7 118.535 190.044 117.864 190.449 117.285C190.669 116.976 190.835 116.649 190.947 116.305C191.134 115.745 191.503 115.397 191.741 114.892C192.488 113.306 193.434 111.756 194.581 110.241C194.815 109.933 195.095 109.688 195.419 109.505C195.458 109.483 195.503 109.473 195.547 109.476C195.592 109.478 195.634 109.494 195.671 109.52C195.707 109.546 195.735 109.582 195.751 109.623C195.767 109.665 195.772 109.71 195.763 109.754C195.539 110.898 195.225 111.992 194.823 113.037C194.325 114.336 194.105 115.598 193.513 116.927C192.942 118.195 192.372 119.345 191.803 120.374C191.694 120.572 191.751 120.654 191.975 120.619C198.756 119.622 205.198 119.136 211.302 119.163C213.871 119.175 216.285 119.434 218.545 119.939C219.113 120.066 219.677 120.295 220.235 120.627C220.281 120.654 220.32 120.693 220.348 120.739C220.376 120.784 220.393 120.836 220.396 120.89C220.4 120.943 220.39 120.997 220.369 121.046C220.347 121.095 220.314 121.138 220.272 121.172C219.811 121.538 218.589 121.611 218.04 121.662C214.734 121.967 211.666 122.276 208.836 122.588C203.954 123.125 199.13 123.728 194.365 124.396C193.88 124.465 193.852 124.618 194.281 124.857C197.131 126.446 199.785 128.267 202.245 130.321C203.599 131.453 204.831 132.689 205.941 134.028C206.551 134.763 206.437 134.901 205.6 134.442C204.111 133.622 202.779 132.455 201.344 131.478C198.66 129.655 195.907 127.953 193.084 126.372C192.909 126.272 192.85 126.32 192.909 126.515Z" fill="black"/>
<path d="M222.446 106.895C226.547 105.048 230.605 103.672 234.618 102.767C237.645 102.083 242.783 101.351 245.458 103.448C245.975 103.855 246.538 104.497 247.145 105.373C249.419 108.642 251.387 111.677 253.048 114.478C253.243 114.808 253.21 114.832 252.949 114.551C251.907 113.439 250.691 112.623 249.301 112.103C246.668 111.12 243.674 110.683 240.32 110.793C235.624 110.947 231.335 111.726 226.354 112.981C226.235 113.011 226.145 112.972 226.084 112.864C225.893 112.528 225.703 112.201 225.513 111.883C224.898 110.859 224.209 109.783 223.445 108.656C223.106 108.158 222.752 107.653 222.384 107.141C222.306 107.033 222.326 106.951 222.446 106.895Z" fill="black"/>
<path d="M49.9657 129.692C50.056 129.565 50.1475 129.439 50.2402 129.315C52.6654 126.094 55.7224 123.225 59.4114 120.707C68.1067 114.771 78.8076 111.346 89.3768 109.798C99.3482 108.339 109.35 108.436 119.382 110.09C121.847 110.495 124.157 110.98 126.314 111.543C126.46 111.582 126.532 111.677 126.53 111.829C126.515 113.851 126.654 115.82 126.947 117.735C126.971 117.899 126.901 117.968 126.735 117.944C123.802 117.515 120.845 117.254 117.864 117.161C106.358 116.8 95.0358 118.315 83.8982 121.706C79.3066 123.104 74.8271 124.868 70.4599 126.998C66.6685 128.847 63.0503 131.076 59.6053 133.684C56.3409 136.153 53.5827 138.868 51.3308 141.827C49.6961 143.974 48.3665 146.388 47.3418 149.07C46.6135 150.976 46.4268 152.949 46.0023 154.892C45.9901 154.951 45.9901 155.012 46.0023 155.075C46.0072 155.104 46.0072 155.134 46.0023 155.163C45.9779 155.297 45.9621 155.296 45.9547 155.159C45.7742 151.778 45.5631 148.213 45.3216 144.466C45.124 141.392 45.6107 138.404 46.7818 135.503C47.6211 133.42 48.6824 131.482 49.9657 129.692Z" fill="black"/>
<path d="M263.939 138.76C264.049 139.064 264.203 139.452 264.221 139.767C264.233 140.02 264.202 140.025 264.126 139.781C264.055 139.559 263.958 139.346 263.833 139.141C262.684 137.228 261.459 135.689 260.159 134.522C257.258 131.917 253.457 129.909 248.755 128.499C245.566 127.542 242.289 126.887 238.922 126.533C236.567 126.284 234.273 126.132 232.038 126.076C231.85 126.071 231.727 125.978 231.668 125.798C231.436 125.1 231.238 124.394 231.072 123.679C230.892 122.918 230.391 122.288 230.237 121.538C230.098 120.874 229.821 120.239 229.407 119.631C229.394 119.612 229.386 119.59 229.385 119.567C229.383 119.544 229.387 119.521 229.396 119.501C229.406 119.48 229.421 119.462 229.439 119.448C229.457 119.434 229.479 119.426 229.502 119.423C236.246 118.628 243.427 118.563 249.806 120.4C252.631 121.212 255.61 122.621 257.634 124.736C259.022 126.183 260.038 127.868 260.682 129.79C260.97 130.644 261.275 131.513 261.597 132.396C262.344 134.438 263.124 136.56 263.939 138.76Z" fill="black"/>
<path d="M121.109 124.795C123.613 124.61 126.02 124.552 128.33 124.623C128.464 124.628 128.541 124.696 128.561 124.828C128.619 125.238 128.711 125.622 128.835 125.981C129.435 127.723 130.071 129.399 130.742 131.009C130.805 131.16 130.755 131.247 130.592 131.269C126.027 131.877 121.619 132.739 117.369 133.856C108.813 136.106 100.387 139.275 92.0919 143.364C85.5508 146.59 79.5831 150.161 74.1888 154.08C67.4257 158.991 61.1494 164.704 56.8529 171.738C55.7721 173.507 54.9145 175.362 54.2802 177.304C53.8703 178.551 53.6336 179.737 53.5702 180.861C53.4994 182.084 53.5653 183.303 53.7678 184.521C53.7702 184.545 53.7678 184.545 53.7605 184.521C52.443 180.961 51.195 177.507 50.0166 174.157C49.4067 172.42 49.0749 171.04 49.0212 170.018C48.9504 168.586 49.0236 167.07 49.2408 165.472C49.3213 164.879 49.4774 164.32 49.7092 163.793C49.991 163.156 50.0423 162.49 50.3167 161.868C51.7977 158.523 53.7898 155.447 56.293 152.642C61.8996 146.362 69.2519 141.267 76.8201 137.351C86.0742 132.567 96.0126 129.054 106.635 126.812C111.203 125.848 116.027 125.176 121.109 124.795Z" fill="black"/>
<path d="M243.518 134.537C249.868 136.308 256.221 138.936 261.14 143.463C262.965 145.141 264.392 146.909 265.421 148.766C266.919 151.462 267.812 154.255 268.1 157.146C268.425 160.418 268.649 163.886 268.774 167.551C268.776 167.578 268.764 167.591 268.737 167.591H268.733C268.697 167.596 268.676 167.579 268.671 167.54C268.536 166.153 268.378 164.883 267.877 163.532C266.313 159.304 263.893 155.617 260.616 152.469C257.95 149.903 255.057 147.718 251.939 145.915C246.318 142.658 240.309 140.27 233.912 138.753C233.825 138.732 233.747 138.682 233.691 138.613C233.636 138.543 233.605 138.457 233.604 138.368C233.592 136.319 233.463 134.337 233.216 132.422C233.204 132.341 233.238 132.308 233.319 132.323C236.92 132.906 240.32 133.644 243.518 134.537Z" fill="black"/>
<path d="M134.562 138.478C135.207 139.43 135.818 140.387 136.396 141.351C136.842 142.094 137.384 142.771 137.904 143.466C138.006 143.601 137.981 143.702 137.827 143.77C134.379 145.337 131.32 146.844 128.648 148.294C116.03 155.14 103.852 163.64 92.1139 173.794C85.9827 179.096 80.6823 184.43 76.2126 189.798C75.1196 191.108 74.0632 192.477 73.0434 193.904C70.8036 197.037 69.0616 199.91 67.843 203.309C67.2391 204.993 66.9646 207.262 67.5465 208.931C67.6246 209.158 67.5941 209.173 67.455 208.978C66.0863 207.048 64.8189 205.183 63.6526 203.383C62.6865 201.889 61.7301 200.328 60.7835 198.698C60.2321 197.752 59.9003 196.8 59.788 195.844C59.6099 194.338 59.7404 192.831 60.1796 191.32C60.8896 188.871 61.9692 186.522 63.4184 184.275C63.9308 183.483 64.4761 182.666 65.0543 181.827C65.6252 181 66.2351 180.191 66.8841 179.401C69.5069 176.212 72.3541 173.215 75.4258 170.409C81.596 164.773 88.686 159.465 96.6958 154.486C103.086 150.516 109.667 147.016 116.44 143.986C121.92 141.534 127.703 139.424 133.79 137.655C133.895 137.624 134.008 137.636 134.104 137.688C134.2 137.74 134.271 137.828 134.303 137.933C134.359 138.126 134.445 138.307 134.562 138.478Z" fill="black"/>
<path d="M265.162 197.18C265.147 197.226 265.117 197.243 265.07 197.231C265.036 197.221 265.023 197.201 265.03 197.169C265.508 194.905 265.663 192.692 265.495 190.53C265.397 189.264 265.245 187.874 265.037 186.362C264.93 185.562 264.75 184.842 264.496 184.203C264.115 183.244 263.954 182.241 263.555 181.246C262.34 178.218 260.907 175.456 259.255 172.96C257.089 169.688 254.516 166.62 251.537 163.756C247.292 159.677 242.628 156.193 237.546 153.304C235.831 152.33 234.006 151.346 232.071 150.351C231.905 150.265 231.861 150.137 231.939 149.966C232.271 149.239 232.494 148.467 232.609 147.65C232.748 146.676 233.088 145.798 233.235 144.824C233.237 144.809 233.243 144.794 233.252 144.78C233.26 144.767 233.272 144.756 233.286 144.749C233.3 144.741 233.315 144.736 233.331 144.735C233.347 144.735 233.363 144.738 233.378 144.744C239.698 147.207 245.707 150.303 251.186 154.193C255.414 157.192 258.932 160.554 261.74 164.279C263.248 166.28 264.512 168.396 265.531 170.629C266.861 173.532 267.7 176.633 268.049 179.932C268.415 183.39 267.658 186.841 266.992 190.161C266.565 192.283 265.955 194.623 265.162 197.18Z" fill="black"/>
<path d="M126.76 175.65C119.553 183.362 113.194 190.47 107.682 196.975C103.601 201.791 99.5495 206.796 95.5287 211.99C94.9041 212.798 93.461 214.803 91.1993 218.007C89.428 220.52 87.9068 222.934 86.6357 225.249C86.0501 226.315 85.6561 227.554 85.4536 228.964C85.4317 229.103 85.3707 229.124 85.2706 229.026C82.1989 226.062 79.3627 223.216 76.7619 220.488C75.4151 219.075 75.8836 216.781 76.5496 215.17C76.9449 214.219 77.4036 213.225 77.9257 212.188C78.377 211.29 78.8869 210.403 79.4554 209.527C82.2953 205.128 85.4121 200.961 88.8059 197.026C92.3899 192.868 96.2118 188.745 100.272 184.656C109.111 175.748 118.457 167.426 128.308 159.69C132.683 156.252 137.411 152.846 142.493 149.472C142.625 149.384 142.743 149.399 142.848 149.516C144.332 151.177 145.966 152.817 147.752 154.435C147.857 154.53 147.858 154.626 147.756 154.724C140.193 161.794 133.194 168.769 126.76 175.65Z" fill="black"/>
<path d="M244.803 167.445C249.346 171.922 253.097 176.825 256.056 182.153C256.29 182.573 256.488 182.995 256.649 183.419C256.883 184.038 257.319 184.429 257.502 185.059C257.718 185.813 258.142 186.457 258.439 187.225C259.393 189.707 260.076 191.893 260.488 193.784C260.827 195.352 261.074 197.254 261.227 199.489C261.374 201.602 261.251 204.044 260.858 206.816C260.47 209.52 259.456 212.042 258.215 214.563C258.133 214.732 258.026 214.886 257.897 215.028C257.575 215.379 257.476 215.95 257.169 216.356C256.964 216.632 256.778 216.918 256.613 217.213C256.122 218.091 255.598 218.966 255.039 219.837C253.775 221.801 252.527 223.773 251.295 225.754C251.271 225.796 251.239 225.804 251.2 225.78L251.196 225.776C251.157 225.752 251.15 225.72 251.174 225.681C253.407 222.018 254.973 217.89 255.463 213.692C255.964 209.396 255.765 205.118 254.867 200.858C254.596 199.574 254.291 198.284 253.952 196.986C253.78 196.342 253.436 195.782 253.293 195.145C253.096 194.252 252.682 193.498 252.389 192.653C251.957 191.411 251.449 190.174 250.863 188.942C248.067 183.04 244.439 177.531 239.979 172.415C236.081 167.94 231.723 163.885 226.907 160.25C226.792 160.162 226.779 160.062 226.867 159.95C227.86 158.654 228.769 157.221 229.593 155.65C229.659 155.52 229.754 155.495 229.879 155.573C235.299 159.072 240.331 163.039 244.803 167.445Z" fill="black"/>
<path d="M127.306 217.974C123.436 223.875 119.513 229.591 115.536 235.119C114.082 237.137 112.545 239.128 110.925 241.092C109.895 242.341 108.735 243.557 107.445 244.74C107.277 244.895 107.061 244.987 106.834 245.004C106.606 245.021 106.379 244.96 106.189 244.832L96.0739 237.988C95.9445 237.902 95.8546 237.768 95.8237 237.615C95.7929 237.462 95.8236 237.303 95.9092 237.172C97.3707 234.957 98.8467 232.807 100.337 230.724C107.876 220.201 115.29 210.07 122.577 200.33C133.203 186.133 143.528 172.514 153.553 159.474C153.626 159.379 153.71 159.368 153.805 159.441C155.72 160.892 157.675 162.216 159.668 163.412C159.773 163.477 159.797 163.565 159.741 163.675C158.036 166.905 156.921 168.99 156.396 169.929C147.203 186.388 137.506 202.403 127.306 217.974Z" fill="black"/>
<path d="M241.385 188.104C244.739 194.437 246.985 201.086 248.122 208.049C248.764 211.975 248.874 215.993 248.452 220.104C248.291 221.674 247.884 223.332 247.518 224.931C246.845 227.844 245.542 230.728 244.027 233.282C241.736 237.147 238.314 240.159 234.625 242.962C232.508 244.573 230.424 246.121 228.375 247.606C228.331 247.638 228.293 247.632 228.261 247.588L228.257 247.584C228.228 247.545 228.232 247.511 228.268 247.482C233.279 243.5 236.682 238.146 238.578 232.005C239.358 229.478 239.857 227.084 240.075 224.825C240.57 219.667 240.372 214.535 239.482 209.429C238.503 203.822 236.808 198.2 234.395 192.561C232.292 187.643 229.751 182.901 226.772 178.336C226.25 177.538 225.452 176.39 224.378 174.892C222.596 172.411 220.649 170.102 218.654 167.8C218.562 167.69 218.575 167.597 218.695 167.522C220.161 166.595 221.535 165.547 222.816 164.378C222.928 164.276 223.04 164.276 223.152 164.378C228.6 169.355 233.421 175.064 237.615 181.505C239.046 183.701 240.181 185.831 241.385 188.104Z" fill="black"/>
<path d="M160.642 213.202C160.371 213.846 160.195 214.505 159.91 215.145C158.926 217.355 157.938 219.629 156.945 221.967C156.757 222.411 156.538 222.879 156.287 223.372C156.06 223.813 155.838 224.278 155.621 224.766C154.14 228.072 152.3 231.7 150.102 235.65C148.535 238.458 146.828 241.291 144.978 244.148C143.092 247.061 140.957 249.778 138.574 252.298C136.627 254.355 132.971 257.575 129.963 256.408C126.025 254.882 122.244 253.411 118.588 251.544C118.393 251.444 118.404 251.392 118.621 251.387C120.466 251.335 122.735 249.206 123.997 247.789C124.741 246.955 125.495 246.101 126.259 245.227C127.032 244.342 127.746 243.449 128.4 242.549C130.82 239.235 133.066 235.933 135.137 232.642C136.54 230.414 137.849 228.255 139.064 226.164C144.722 216.442 149.83 206.659 154.387 196.817C156.302 192.684 158.024 188.768 159.551 185.07C159.712 184.678 159.943 184.4 160.063 183.983C160.393 182.826 160.982 181.864 161.359 180.729C161.581 180.061 161.835 179.419 162.12 178.804C162.362 178.28 162.556 177.759 162.702 177.242C162.918 176.495 163.383 175.884 163.577 175.112C163.699 174.626 163.868 174.154 164.085 173.695C164.517 172.788 164.686 171.811 165.092 170.867C165.582 169.728 165.912 168.521 166.23 167.302C166.274 167.136 166.371 167.092 166.523 167.17C168.643 168.258 170.8 169.186 172.993 169.952C173.11 169.993 173.163 170.076 173.15 170.2C173.058 171.108 172.903 171.993 172.686 172.854C172.309 174.362 172.206 175.921 171.804 177.417C171.427 178.823 171.247 180.309 170.815 181.696C170.642 182.254 170.498 182.83 170.384 183.423C170.007 185.388 169.333 187.273 168.876 189.249C168.712 189.966 168.503 190.642 168.246 191.277C167.906 192.122 167.902 193.008 167.522 193.853C167.075 194.837 166.896 195.899 166.552 196.931C165.586 199.827 164.616 202.685 163.643 205.505C163.484 205.964 163.314 206.398 163.134 206.808C162.934 207.257 162.75 207.718 162.581 208.192C161.962 209.924 161.315 211.594 160.642 213.202Z" fill="black"/>
<path d="M200.869 260.097C200.866 260.089 200.869 260.084 200.876 260.082C204.431 258.718 207.495 256.637 210.069 253.838C211.799 251.957 213.229 249.988 214.358 247.932C215.261 246.29 216.09 244.505 216.847 242.578C217.62 240.601 218.28 238.458 218.827 236.148C219.105 234.984 219.433 233.078 219.811 230.431C220.087 228.514 220.262 226.54 220.338 224.51C220.506 220.077 220.441 216.346 220.14 213.319C219.806 209.949 219.372 206.629 218.838 203.357C218.761 202.889 218.552 202.519 218.475 202.058C218.085 199.796 217.596 197.649 217.008 195.617C215.766 191.315 214.888 188.499 214.373 187.167C213.731 185.51 213.115 183.963 212.525 182.526C211.244 179.406 209.757 176.306 208.064 173.227C208.003 173.12 207.928 173.027 207.84 172.949C207.55 172.697 207.589 172.518 207.957 172.411C209.743 171.886 211.495 171.248 213.213 170.497C213.313 170.45 213.396 170.472 213.462 170.563C218.253 177.035 222.22 184.374 225.363 192.579C225.565 193.106 225.74 193.638 225.886 194.175C226.069 194.834 226.512 195.437 226.629 196.078C226.739 196.695 226.906 197.289 227.13 197.86C227.895 199.814 228.144 201.911 228.77 203.906C229.176 205.198 229.198 206.588 229.571 207.877C229.754 208.506 229.88 209.123 229.948 209.728C230.158 211.539 230.372 213.353 230.589 215.17C230.784 216.795 230.899 218.469 230.933 220.191C230.979 222.697 230.949 224.384 230.841 225.253C230.573 227.412 230.311 229.509 230.054 231.544C229.89 232.854 229.447 233.977 229.216 235.244C229.133 235.705 229.014 236.173 228.858 236.649C228.441 237.927 228.015 239.14 227.581 240.287C226.929 242.014 225.981 243.893 224.737 245.923C222.204 250.053 218.902 253.114 214.83 255.105C213.874 255.573 212.761 256.05 211.493 256.536C209.158 257.432 206.881 258.38 204.594 259.083C203.391 259.454 202.184 259.832 200.971 260.217C200.937 260.227 200.914 260.216 200.902 260.184L200.869 260.097Z" fill="black"/>
<path d="M179.858 180.81C179.997 177.989 180.091 175.179 180.14 172.378C180.142 172.232 180.214 172.178 180.356 172.217C182.693 172.854 184.94 173.279 187.097 173.494C187.16 173.501 187.219 173.529 187.263 173.574C187.308 173.62 187.336 173.679 187.342 173.743C188.06 181.059 188.63 188.605 188.188 196.06C187.935 200.294 187.672 204.74 187.031 209.059C186.654 211.602 186.358 214.281 185.78 216.88C185.584 217.753 185.41 218.641 185.256 219.544C185.144 220.198 184.984 220.887 184.777 221.612C184.389 222.969 184.18 224.349 183.759 225.696C183.55 226.367 183.365 227.04 183.207 227.716C183.068 228.309 182.896 228.903 182.691 229.498C182.493 230.074 182.3 230.68 182.113 231.317C181.278 234.167 180.102 237.357 178.585 240.887C176.945 244.7 175.146 248.128 173.187 251.171C171.886 253.193 170.449 255.072 168.876 256.807C165.421 260.62 160.854 263.826 155.499 262.948C152.559 262.464 149.673 261.925 146.841 261.33C145.921 261.137 145.056 260.908 144.246 260.642C143.921 260.537 143.93 260.503 144.272 260.539C145.204 260.647 146.134 260.513 147.064 260.137C148.911 259.388 150.595 258.302 152.118 256.88C153.384 255.697 154.526 254.466 155.543 253.187C157.502 250.718 159.312 248.049 160.971 245.18C161.834 243.692 162.632 242.226 163.364 240.785C166.043 235.529 168.275 230.311 170.061 225.128C170.288 224.472 170.519 223.866 170.753 223.31C170.963 222.814 171.121 222.324 171.229 221.838C171.489 220.653 172.092 219.661 172.341 218.457C172.517 217.601 172.934 216.869 173.128 216.02C173.384 214.897 173.687 213.793 174.036 212.708C174.292 211.907 174.498 211.116 174.654 210.332C174.761 209.783 174.912 209.25 175.104 208.733C175.543 207.555 175.628 206.274 175.99 205.059C176.192 204.381 176.367 203.683 176.513 202.965C176.83 201.389 177.154 199.789 177.483 198.164C177.886 196.191 178.091 194.094 178.522 192.071C178.696 191.253 178.818 190.436 178.888 189.619C179.145 186.658 179.715 183.745 179.858 180.81Z" fill="black"/>
<path d="M172.411 263.892C175.795 263.323 178.862 261.812 181.611 259.357C182.838 258.264 183.94 257.107 184.916 255.884C186.653 253.713 188.131 251.44 189.351 249.066C191.062 245.739 192.535 242.163 193.772 238.34C194.171 237.107 194.339 235.785 194.801 234.589C195.229 233.469 195.306 232.283 195.635 231.149C196.177 229.282 196.415 227.321 196.788 225.403C197.012 224.246 197.214 222.978 197.392 221.597C197.628 219.767 197.822 218.007 197.974 216.316C199.042 204.451 198.464 192.899 196.239 181.659C195.888 179.877 195.423 178.186 195.075 176.447C194.929 175.708 194.596 175.053 194.424 174.318C194.39 174.171 194.448 174.098 194.599 174.098C196.82 174.115 199.004 173.988 201.154 173.717C201.305 173.698 201.405 173.76 201.454 173.904C201.922 175.28 202.581 176.458 202.973 177.897C203.203 178.742 203.613 179.511 203.888 180.352C204.541 182.368 205.186 184.408 205.82 186.475C206.008 187.087 206.142 187.678 206.222 188.246C206.343 189.11 206.727 189.824 206.885 190.676C207.463 193.805 208.14 196.931 208.546 200.096C208.887 202.761 209.245 205.41 209.381 207.968C209.703 213.96 209.653 219.197 209.231 223.679C208.931 226.853 208.522 229.753 208.005 232.378C207.741 233.71 207.451 235.125 207.134 236.623C206.973 237.382 206.782 238.059 206.563 238.655C206.233 239.548 206.08 240.433 205.758 241.348C204.709 244.347 203.652 246.888 202.588 248.971C201.888 250.34 200.916 251.931 199.672 253.743C197.871 256.374 195.767 258.54 193.359 260.243C190.519 262.256 187.331 263.251 183.547 263.496C179.858 263.738 176.114 264.086 172.422 264.02C171.948 264.012 171.945 263.97 172.411 263.892Z" fill="black"/>
</svg>
