<?xml version="1.0" encoding="UTF-8"?>
<svg id="Camada_1" data-name="Camada 1" xmlns="http://www.w3.org/2000/svg" version="1.1" viewBox="0 0 270 90">
  <defs>
    <style>
      .cls-1 {
        fill: #1d1d1b;
      }

      .cls-1, .cls-2 {
        stroke-width: 0px;
      }

      .cls-2 {
        fill: #30ba78;
      }
    </style>
  </defs>
  <g id="Layer_1" data-name="Layer 1">
    <g>
      <path class="cls-1" d="M224.9,59.8c-3.3,0-6-2.7-6-6v-17.7c0-3.3,2.7-6,6-6h13.6c1.1,0,1.9.9,1.9,1.9s-.9,1.9-1.9,1.9h-13.6c-1.2,0-2.1.9-2.1,2.1v7h13.3c1,0,1.8.8,1.8,1.8s-.8,1.8-1.8,1.8h-13.3v7.1c0,1.2.9,2.1,2.1,2.1h13.6c1.1,0,1.9.9,1.9,1.9s-.9,1.9-1.9,1.9h-13.6ZM164.1,60.2c-3.9,0-6.9-1-9-2.9-2-2-3.1-4.9-3.1-8.7v-16.4c0-1.2,1-2.2,2.2-2.2s2.2,1,2.2,2.2v15.8c0,2.9.6,5,1.8,6.4,1.2,1.4,3.1,2.1,5.7,2.1s4.5-.7,5.7-2.1c1.2-1.4,1.8-3.5,1.8-6.4v-15.8c0-1.2,1-2.2,2.2-2.2s2.2,1,2.2,2.2v16.4c0,3.8-1,6.8-3.1,8.7-2,2-5,2.9-8.9,2.9M197.7,60.2c-5,0-8.9-1.4-11.4-4.2-.7-.8-.7-2.1.1-2.9h0s0,0,0,0c.4-.4.9-.6,1.5-.6s1.2.3,1.6.7c.7.8,1.5,1.5,2.4,2,1.5.9,3.5,1.3,5.8,1.3s3.9-.4,5.2-1.1c1.3-.8,1.9-1.9,1.9-3.3s-.6-2.1-1.8-2.8c-1.1-.7-3-1.3-5.8-1.8-2.7-.5-4.9-1.1-6.5-1.9-1.6-.7-2.8-1.7-3.5-2.7-.7-1.1-1.1-2.4-1.1-4s.5-3.2,1.4-4.5c.9-1.3,2.2-2.4,4-3.2,1.7-.8,3.8-1.2,6.1-1.2s5,.5,6.9,1.5c1.3.7,2.4,1.6,3.4,2.7.8.9.7,2.2-.2,3-.4.3-.9.5-1.4.5s-1.3-.3-1.7-.8c-.6-.7-1.2-1.3-1.9-1.8-1.3-.8-3-1.3-5.2-1.3s-3.8.4-5,1.3c-1.2.9-1.8,2-1.8,3.4s.6,2.3,1.8,3.1c1.1.7,3.1,1.3,6,1.9,2.7.5,4.8,1.1,6.3,1.8,1.5.7,2.7,1.6,3.4,2.7.7,1.1,1,2.4,1,4s-.5,3.2-1.4,4.5c-1,1.3-2.3,2.3-4.1,3-1.8.7-3.8,1-6.1,1M130.8,60.2c-5,0-8.9-1.4-11.4-4.3-.7-.8-.7-2.1.1-2.9h0c.4-.4.9-.6,1.5-.6s1.2.3,1.5.7c.7.8,1.5,1.5,2.4,2,1.5.9,3.5,1.3,5.8,1.3s3.9-.4,5.2-1.1c1.3-.8,1.9-1.9,1.9-3.3s-.6-2.1-1.8-2.8c-1.1-.7-3-1.3-5.8-1.8-2.7-.5-4.9-1.1-6.5-1.9-1.6-.7-2.8-1.7-3.5-2.7-.7-1.1-1.1-2.4-1.1-4s.5-3.2,1.4-4.5c.9-1.4,2.2-2.4,4-3.2,1.7-.8,3.8-1.2,6.1-1.2s5,.5,6.9,1.5c1.3.7,2.4,1.6,3.4,2.7.8.9.7,2.2-.2,3-.4.3-.9.5-1.4.5s-1.3-.3-1.7-.8c-.6-.7-1.2-1.4-1.9-1.8-1.3-.8-3-1.3-5.2-1.3s-3.8.4-5,1.3c-1.2.9-1.8,2-1.8,3.4s.6,2.3,1.8,3.1c1.1.7,3.1,1.3,6.1,1.9,2.7.5,4.8,1.1,6.4,1.8,1.5.7,2.7,1.6,3.4,2.7.7,1.1,1.1,2.4,1.1,4s-.5,3.2-1.5,4.5c-1,1.3-2.3,2.3-4.1,3-1.8.7-3.8,1-6.1,1"/>
      <path class="cls-2" d="M101.5,40.3c-.5-.5-1.3-.5-1.7,0-.5.5-.5,1.5.2,1.9.4.3.9.3,1.4,0,.7-.4.7-1.4.2-1.9M100,36.1c-3.3-.8-6.2,2.2-5.5,5.5.4,1.7,1.7,3,3.4,3.4,3.3.8,6.2-2.2,5.5-5.5-.4-1.7-1.7-3-3.4-3.4M78.3,54.6c-2.1-.8-3-.6-5.7-.6-1.9,0-2,0-4.1,0s-.9,3.2,1.5,3.9c1.1.3,2.2.5,3,1.3.4.4.6.9-.3.9h-6c-1.1,0-2,0-2.8-.7-1.2-1-1.8-2.4-2.4-3.8-.6-1.5-1.3-2.9-2.1-4.3-1.6-2.7-3.7-5.2-6.5-6.7-3.5-1.9-9.5-2.8-14.2.8-5,3.8-3.9,11,.4,14.5,1.7,1.4,4,2,6.2,1.8,4.3-.2,7.5-3.4,6.7-7.3-.3-1.3-1-2.5-2.2-3.2-.8-.5-1.8-.6-2.7-.6-1,0-2.1.2-2.8.9-.9.8-1,2.3-.3,3.3.4.5,1,1,.9,1.7,0,.5-.5.8-.9.9-.8.2-1.5-.3-2.1-.8-1.4-1.4-1.8-3.7-1.1-5.6,1-2.4,3.8-3.8,6.4-3.7,3.4.1,6.6,2.3,8,5.4,1.4,3.1,1,6.9-.9,9.7-4.3,6.2-14.8,5.5-19.6.2-3.1-3.3-4.7-6.5-4.5-12.4.2-4.2,2.6-8.3,5.7-11.2,5-4.7,11.7-8,18.4-9.4,4.1-.8,8.3-1,12.5-.6,3.7.4,7.3,1,10.8,2.1,1.8.5,3.5,1.2,5.1,2,1.5.7,3.4,1.4,4.5,2.6,0-2.1,0-4.4,0-6s.6-1,1.2-.8c2.4,1.1,8,3.8,11.8,5.5,5.1,2.3,5.4,7.8,5.6,12.6,0,.1,0,.2,0,.3-.2.3-1,.2-1.3.2-.6,0-1.5,0-2.1,0-1.2,0-2.4,0-3.6,0-2.2-.1-4.4-1.1-5.8-2.3-.1-.1-.6-.3-.8,0-.2.2-.2.6,0,.7.8.8,1.7,1.4,2.8,1.9,1.3.7,2.8.9,4.2.9,1.6,0,3.2,0,4.7,0,1.3-.1,1.6-.2.4.7-1.1.8-2.4,1.4-3.8,1.9-1.9.7-3.9,1-6,1-1.2,0-2.4,0-3.7-.2-.6,0-1.3-.2-1.9-.3-.5,0-1-.1-1.5,0-.5.1-.9.4-1.2.7-.4.5-.5,2-.3,2.6.4,1.2,1.4,1.9,2.5,2.5,1.1.7,2.6.9,2.9,2.2,0,.3-2.3.3-2.6.3h-3.2s-1.7,0-2.4-.2c0,0,0,0,0,0-.4-.2-.5-.7-.6-1.1-.2-.5-.5-1-.9-1.6-.7-1-1.8-2.1-3-2.6M102.3,40.5c0,1.9-1.5,3.4-3.4,3.4s-3.4-1.5-3.4-3.4,1.5-3.4,3.4-3.4,3.4,1.5,3.4,3.4"/>
    </g>
  </g>
</svg>