<?xml version="1.0" encoding="UTF-8"?>
<svg id="Camada_1" data-name="Camada 1" xmlns="http://www.w3.org/2000/svg" version="1.1" viewBox="0 0 234 99">
  <defs>
    <style>
      .cls-1 {
        fill: #dc1f3a;
        stroke-width: 0px;
      }
    </style>
  </defs>
  <path class="cls-1" d="M53.1,0c6.7,1.4,10,8.8,5.4,14.2-5.6,6.6-16.4,1.6-14.8-7.2.6-3.5,3-5.8,7-7,0,0,2.4,0,2.4,0Z"/>
  <path class="cls-1" d="M226.7,0c3.6.8,6,2.9,7.3,6.3v4.5c-2.3,5.7-6.2,7.6-11.5,5.9-1.9-.6-3.4-1.9-4.4-3.8C215.2,7.3,218.3,1.8,224.3,0h2.5-.1Z"/>
  <path class="cls-1" d="M0,35v-12.8h7.4c.4,0,.6-.3.6-.7v-11.3c0-.4.1-.5.5-.5h15.7c.4,0,.5.2.5.5v11.5c0,.3.1.4.4.4h11.2c.3,0,.5.2.5.5h0v11.8c0,.4-.2.5-.5.5h-11c-.4,0-.6.2-.6.6-.1,8.6,0,15.6.1,21,.2,6,6.3,6.1,10.7,4.9.4,0,.6,0,.7.5l.2,11.3c0,.4-.2.6-.5.7-4.4,1.3-9,1.7-13.6,1.1-10.3-1.3-14.1-8.4-14.1-17.9v-21.6c0-.3-.2-.5-.5-.5H0Z"/>
  <path class="cls-1" d="M84.8,28.5c.6-.8,1.2-1.9,1.9-2.6,3-3,6.7-4.7,11-5.1,7.9-.8,13.7,1.9,17.4,8,.3.5.6.5.9,0,4.4-6.3,10.8-9,19.4-7.9,10.5,1.3,15.5,11.1,15.5,20.7v31.9c0,.4-.2.6-.6.6h-15.9c-.4,0-.7-.2-.7-.7v-28.8c-.2-14.8-15.9-11.8-15.9,1v27.9c0,.4-.2.6-.6.6h-16c-.4,0-.6-.2-.6-.6v-29.2c0-4.1-1.5-8.9-6.1-9.4-6.9-.8-9.9,5.2-9.9,11.1v27.5c0,.4-.2.6-.6.6h-16c-.4,0-.6-.2-.6-.6V22.5c0-.3.2-.5.5-.5h15.6c.4,0,.6.2.6.6v5.7c0,.7.2.8.6.2h0Z"/>
  <path class="cls-1" d="M172.9,99h-17.1V22.6c0-.4.2-.6.7-.6h14.9c.4,0,.6.2.6.6v5.1c0,.6.2.6.6.2,4.7-5.6,11.1-8,19-7.2,25.9,2.5,29.3,41.9,7.4,52.4-8.3,4-19.6,2.7-25.7-4.5-.3-.3-.4-.3-.4.2v30.2ZM184.5,61.3c6.8,0,12.4-5.9,12.5-13.3,0-7.4-5.4-13.4-12.3-13.5h0c-6.8,0-12.4,5.9-12.5,13.3,0,7.4,5.4,13.4,12.3,13.5h0Z"/>
  <rect class="cls-1" x="43.5" y="22" width="17.1" height="52" rx=".3" ry=".3"/>
  <path class="cls-1" d="M234,22v51.9h-16.4c-.4,0-.6-.2-.6-.6V22.2q0-.2.2-.2h16.8Z"/>
</svg>