<svg xmlns="http://www.w3.org/2000/svg" xmlns:xlink="http://www.w3.org/1999/xlink" width="1920" zoomAndPan="magnify" viewBox="0 0 1440 809.999993" height="1080" preserveAspectRatio="xMidYMid meet" version="1.0"><defs><g/><clipPath id="0fe1eae747"><path d="M 148 292.507812 L 184 292.507812 L 184 322 L 148 322 Z M 148 292.507812 " clip-rule="nonzero"/></clipPath></defs><path fill="#03578c" d="M 182.394531 416.460938 L 132.511719 480.105469 L 126.9375 435.675781 L 94.054688 432.132812 Z M 182.394531 416.460938 " fill-opacity="1" fill-rule="nonzero"/><path fill="#03578c" d="M 131.816406 403.921875 L 94.054688 432.132812 L 101.855469 358.40625 Z M 131.816406 403.921875 " fill-opacity="1" fill-rule="nonzero"/><path fill="#0099f7" d="M 130.976562 403.789062 L 101.855469 358.40625 L 129.445312 364.675781 Z M 130.976562 403.789062 " fill-opacity="1" fill-rule="nonzero"/><path fill="#28adff" d="M 224.890625 428.726562 L 224.75 428.726562 L 217.085938 480.238281 L 132.511719 480.238281 L 132.511719 480.105469 L 182.390625 416.460938 Z M 224.890625 428.726562 " fill-opacity="1" fill-rule="nonzero"/><path fill="#0099f7" d="M 94.054688 432.132812 L 131.257812 404.332031 L 130.976562 403.789062 L 182.394531 416.460938 Z M 94.054688 432.132812 " fill-opacity="1" fill-rule="nonzero"/><path fill="#0474ba" d="M 152.019531 389.480469 L 131.8125 403.925781 L 130.976562 403.789062 L 129.445312 364.675781 L 181.695312 376.804688 L 181.835938 376.667969 L 186.292969 392.613281 Z M 152.019531 389.480469 " fill-opacity="1" fill-rule="nonzero"/><path fill="#0474ba" d="M 254.570312 425.863281 L 224.890625 428.726562 L 182.394531 416.460938 L 184.902344 415.644531 L 152.15625 389.476562 L 222.523438 415.097656 L 236.316406 420.277344 L 239.382812 417.144531 L 234.644531 395.882812 L 218.480469 395.609375 L 191.730469 393.15625 L 212.210938 384.980469 L 236.316406 393.566406 L 238.128906 354.589844 L 239.800781 355.136719 Z M 254.570312 425.863281 " fill-opacity="1" fill-rule="nonzero"/><path fill="#03578c" d="M 239.378906 417.144531 L 236.3125 420.277344 L 222.519531 415.097656 L 218.480469 395.609375 L 234.640625 395.882812 Z M 239.378906 417.144531 " fill-opacity="1" fill-rule="nonzero"/><g clip-path="url(#0fe1eae747)"><path fill="#49484d" d="M 183.507812 308.800781 L 167.484375 312.753906 L 148.671875 321.203125 L 148.953125 310.164062 L 179.1875 292.582031 Z M 183.507812 308.800781 " fill-opacity="1" fill-rule="nonzero"/></g><path fill="#ffb536" d="M 191.589844 339.191406 L 148.253906 338.917969 L 148.671875 321.203125 L 167.484375 312.753906 L 183.507812 308.800781 Z M 191.589844 339.191406 " fill-opacity="1" fill-rule="nonzero"/><path fill="#ffc767" d="M 101.855469 358.816406 L 41.386719 481.195312 L 41.246094 481.195312 L 3.625 490.871094 Z M 101.855469 358.816406 " fill-opacity="1" fill-rule="nonzero"/><path fill="#ffb536" d="M 102.136719 358.40625 L 94.054688 432.132812 L 57.546875 490.871094 L 41.386719 481.195312 L 101.855469 358.816406 Z M 102.136719 358.40625 " fill-opacity="1" fill-rule="nonzero"/><path fill="#ffc767" d="M 116.765625 434.585938 L 96.285156 485.691406 L 57.546875 490.871094 L 94.054688 432.132812 Z M 116.765625 434.585938 " fill-opacity="1" fill-rule="nonzero"/><path fill="#ffb536" d="M 132.511719 480.242188 L 128.332031 497.820312 L 96.5625 485.691406 L 96.285156 485.691406 L 116.765625 434.585938 L 126.9375 435.675781 Z M 132.511719 480.242188 " fill-opacity="1" fill-rule="nonzero"/><path fill="#ffb536" d="M 181.695312 376.804688 L 102.136719 358.40625 L 148.253906 338.917969 L 148.953125 338.917969 L 175.425781 369.445312 Z M 181.695312 376.804688 " fill-opacity="1" fill-rule="nonzero"/><path fill="#ffc767" d="M 236.734375 354.183594 L 236.59375 354.183594 L 181.695312 376.804688 L 175.425781 369.445312 L 200.367188 341.78125 Z M 236.734375 354.183594 " fill-opacity="1" fill-rule="nonzero"/><path fill="#03578c" d="M 200.367188 341.78125 L 175.425781 369.445312 L 148.253906 338.917969 L 191.589844 339.191406 L 200.226562 341.78125 Z M 200.367188 341.78125 " fill-opacity="1" fill-rule="nonzero"/><path fill="#0099f7" d="M 236.59375 354.183594 L 228.652344 370.671875 L 212.347656 384.980469 L 212.210938 384.980469 L 191.726562 393.15625 L 186.292969 392.613281 L 181.695312 376.804688 L 236.453125 354.320312 Z M 236.59375 354.183594 " fill-opacity="1" fill-rule="nonzero"/><path fill="#03578c" d="M 184.898438 415.644531 L 182.390625 416.460938 L 131.953125 404.0625 L 131.8125 403.925781 L 152.15625 389.480469 Z M 184.898438 415.644531 " fill-opacity="1" fill-rule="nonzero"/><path fill="#0099f7" d="M 222.519531 415.097656 L 152.15625 389.480469 L 152.019531 389.480469 L 186.292969 392.613281 L 191.726562 393.160156 L 218.480469 395.613281 Z M 222.519531 415.097656 " fill-opacity="1" fill-rule="nonzero"/><path fill="#03578c" d="M 238.125 354.589844 L 236.316406 393.566406 L 212.210938 384.980469 L 212.347656 384.980469 L 228.652344 370.671875 L 236.59375 354.183594 L 236.734375 354.183594 Z M 238.125 354.589844 " fill-opacity="1" fill-rule="nonzero"/><g fill="#000000" fill-opacity="1"><g transform="translate(260.183083, 466.881194)"><g><path d="M 63.84375 1.53125 C 52.820312 1.53125 42.914062 -0.738281 34.125 -5.28125 C 25.34375 -9.832031 18.484375 -16.144531 13.546875 -24.21875 C 8.617188 -32.300781 6.15625 -41.472656 6.15625 -51.734375 C 6.15625 -61.984375 8.617188 -71.144531 13.546875 -79.21875 C 18.484375 -87.300781 25.34375 -93.617188 34.125 -98.171875 C 42.914062 -102.722656 52.820312 -105 63.84375 -105 C 74.738281 -105 84.253906 -102.722656 92.390625 -98.171875 C 100.535156 -93.617188 106.46875 -87.113281 110.1875 -78.65625 L 86.921875 -66.15625 C 81.535156 -75.632812 73.78125 -80.375 63.65625 -80.375 C 55.832031 -80.375 49.351562 -77.8125 44.21875 -72.6875 C 39.09375 -67.5625 36.53125 -60.578125 36.53125 -51.734375 C 36.53125 -42.878906 39.09375 -35.890625 44.21875 -30.765625 C 49.351562 -25.640625 55.832031 -23.078125 63.65625 -23.078125 C 73.90625 -23.078125 81.660156 -27.820312 86.921875 -37.3125 L 110.1875 -24.609375 C 106.46875 -16.410156 100.535156 -10.003906 92.390625 -5.390625 C 84.253906 -0.773438 74.738281 1.53125 63.84375 1.53125 Z M 63.84375 1.53125 "/></g></g></g><g fill="#000000" fill-opacity="1"><g transform="translate(373.83117, 466.881194)"><g><path d="M 76.71875 -105 C 89.539062 -105 99.894531 -101.148438 107.78125 -93.453125 C 115.664062 -85.765625 119.609375 -74.359375 119.609375 -59.234375 L 119.609375 0 L 89.609375 0 L 89.609375 -54.609375 C 89.609375 -62.816406 87.8125 -68.9375 84.21875 -72.96875 C 80.632812 -77.007812 75.445312 -79.03125 68.65625 -79.03125 C 61.082031 -79.03125 55.050781 -76.691406 50.5625 -72.015625 C 46.082031 -67.335938 43.84375 -60.382812 43.84375 -51.15625 L 43.84375 0 L 13.84375 0 L 13.84375 -142.6875 L 43.84375 -142.6875 L 43.84375 -92.6875 C 47.820312 -96.65625 52.628906 -99.695312 58.265625 -101.8125 C 63.910156 -103.9375 70.0625 -105 76.71875 -105 Z M 76.71875 -105 "/></g></g></g><g fill="#000000" fill-opacity="1"><g transform="translate(506.709061, 466.881194)"><g><path d="M 55.578125 -105 C 71.597656 -105 83.898438 -101.179688 92.484375 -93.546875 C 101.078125 -85.921875 105.375 -74.414062 105.375 -59.03125 L 105.375 0 L 77.296875 0 L 77.296875 -12.890625 C 71.660156 -3.273438 61.148438 1.53125 45.765625 1.53125 C 37.816406 1.53125 30.925781 0.1875 25.09375 -2.5 C 19.257812 -5.1875 14.800781 -8.898438 11.71875 -13.640625 C 8.644531 -18.390625 7.109375 -23.78125 7.109375 -29.8125 C 7.109375 -39.425781 10.726562 -46.988281 17.96875 -52.5 C 25.21875 -58.007812 36.40625 -60.765625 51.53125 -60.765625 L 75.375 -60.765625 C 75.375 -67.304688 73.382812 -72.335938 69.40625 -75.859375 C 65.4375 -79.390625 59.476562 -81.15625 51.53125 -81.15625 C 46.019531 -81.15625 40.601562 -80.285156 35.28125 -78.546875 C 29.96875 -76.816406 25.453125 -74.476562 21.734375 -71.53125 L 10.953125 -92.5 C 16.597656 -96.46875 23.363281 -99.539062 31.25 -101.71875 C 39.132812 -103.90625 47.242188 -105 55.578125 -105 Z M 53.265625 -18.65625 C 58.390625 -18.65625 62.9375 -19.835938 66.90625 -22.203125 C 70.882812 -24.578125 73.707031 -28.070312 75.375 -32.6875 L 75.375 -43.265625 L 54.796875 -43.265625 C 42.492188 -43.265625 36.34375 -39.226562 36.34375 -31.15625 C 36.34375 -27.3125 37.847656 -24.265625 40.859375 -22.015625 C 43.867188 -19.773438 48.003906 -18.65625 53.265625 -18.65625 Z M 53.265625 -18.65625 "/></g></g></g><g fill="#000000" fill-opacity="1"><g transform="translate(625.356904, 466.881194)"><g><path d="M 76.71875 -105 C 89.539062 -105 99.894531 -101.148438 107.78125 -93.453125 C 115.664062 -85.765625 119.609375 -74.359375 119.609375 -59.234375 L 119.609375 0 L 89.609375 0 L 89.609375 -54.609375 C 89.609375 -62.816406 87.8125 -68.9375 84.21875 -72.96875 C 80.632812 -77.007812 75.445312 -79.03125 68.65625 -79.03125 C 61.082031 -79.03125 55.050781 -76.691406 50.5625 -72.015625 C 46.082031 -67.335938 43.84375 -60.382812 43.84375 -51.15625 L 43.84375 0 L 13.84375 0 L 13.84375 -103.453125 L 42.5 -103.453125 L 42.5 -91.34375 C 46.46875 -95.695312 51.398438 -99.0625 57.296875 -101.4375 C 63.203125 -103.8125 69.675781 -105 76.71875 -105 Z M 76.71875 -105 "/></g></g></g><g fill="#000000" fill-opacity="1"><g transform="translate(758.234771, 466.881194)"><g><path d="M 120.5625 -103.453125 L 120.5625 -17.3125 C 120.5625 1.664062 115.625 15.769531 105.75 25 C 95.882812 34.226562 81.46875 38.84375 62.5 38.84375 C 52.5 38.84375 43.007812 37.625 34.03125 35.1875 C 25.0625 32.75 17.628906 29.222656 11.734375 24.609375 L 23.65625 3.078125 C 28.007812 6.671875 33.519531 9.523438 40.1875 11.640625 C 46.851562 13.753906 53.519531 14.8125 60.1875 14.8125 C 70.570312 14.8125 78.234375 12.46875 83.171875 7.78125 C 88.109375 3.101562 90.578125 -3.972656 90.578125 -13.453125 L 90.578125 -17.890625 C 82.753906 -9.296875 71.851562 -5 57.875 -5 C 48.394531 -5 39.710938 -7.082031 31.828125 -11.25 C 23.941406 -15.414062 17.691406 -21.28125 13.078125 -28.84375 C 8.460938 -36.40625 6.15625 -45.125 6.15625 -55 C 6.15625 -64.863281 8.460938 -73.578125 13.078125 -81.140625 C 17.691406 -88.710938 23.941406 -94.582031 31.828125 -98.75 C 39.710938 -102.914062 48.394531 -105 57.875 -105 C 72.875 -105 84.285156 -100.0625 92.109375 -90.1875 L 92.109375 -103.453125 Z M 63.84375 -29.609375 C 71.789062 -29.609375 78.296875 -31.945312 83.359375 -36.625 C 88.421875 -41.3125 90.953125 -47.4375 90.953125 -55 C 90.953125 -62.5625 88.421875 -68.679688 83.359375 -73.359375 C 78.296875 -78.035156 71.789062 -80.375 63.84375 -80.375 C 55.894531 -80.375 49.351562 -78.035156 44.21875 -73.359375 C 39.09375 -68.679688 36.53125 -62.5625 36.53125 -55 C 36.53125 -47.4375 39.09375 -41.3125 44.21875 -36.625 C 49.351562 -31.945312 55.894531 -29.609375 63.84375 -29.609375 Z M 63.84375 -29.609375 "/></g></g></g><g fill="#000000" fill-opacity="1"><g transform="translate(892.843327, 466.881194)"><g><path d="M 115.1875 -51.34375 C 115.1875 -50.957031 114.992188 -48.265625 114.609375 -43.265625 L 36.34375 -43.265625 C 37.75 -36.859375 41.082031 -31.796875 46.34375 -28.078125 C 51.601562 -24.359375 58.140625 -22.5 65.953125 -22.5 C 71.335938 -22.5 76.113281 -23.300781 80.28125 -24.90625 C 84.445312 -26.507812 88.328125 -29.039062 91.921875 -32.5 L 107.875 -15.1875 C 98.132812 -4.039062 83.90625 1.53125 65.1875 1.53125 C 53.519531 1.53125 43.195312 -0.738281 34.21875 -5.28125 C 25.25 -9.832031 18.328125 -16.144531 13.453125 -24.21875 C 8.585938 -32.300781 6.15625 -41.472656 6.15625 -51.734375 C 6.15625 -61.859375 8.554688 -70.988281 13.359375 -79.125 C 18.171875 -87.269531 24.773438 -93.617188 33.171875 -98.171875 C 41.566406 -102.722656 50.957031 -105 61.34375 -105 C 71.46875 -105 80.628906 -102.816406 88.828125 -98.453125 C 97.035156 -94.097656 103.476562 -87.847656 108.15625 -79.703125 C 112.84375 -71.566406 115.1875 -62.113281 115.1875 -51.34375 Z M 61.53125 -82.296875 C 54.738281 -82.296875 49.035156 -80.375 44.421875 -76.53125 C 39.804688 -72.6875 36.984375 -67.429688 35.953125 -60.765625 L 86.921875 -60.765625 C 85.890625 -67.304688 83.066406 -72.53125 78.453125 -76.4375 C 73.835938 -80.34375 68.195312 -82.296875 61.53125 -82.296875 Z M 61.53125 -82.296875 "/></g></g></g><g fill="#5271ff" fill-opacity="1"><g transform="translate(1002.295852, 466.881194)"><g><path d="M 77.296875 -103.078125 C 89.222656 -103.078125 98.550781 -99.582031 105.28125 -92.59375 C 112.007812 -85.601562 115.375 -75.957031 115.375 -63.65625 L 115.375 0 L 93.265625 0 L 93.265625 -57.5 C 93.265625 -65.1875 91.082031 -71.238281 86.71875 -75.65625 C 82.363281 -80.082031 76.34375 -82.296875 68.65625 -82.296875 C 59.675781 -82.171875 52.554688 -79.128906 47.296875 -73.171875 C 42.046875 -67.210938 39.421875 -59.613281 39.421875 -50.375 L 39.421875 0 L 17.3125 0 L 17.3125 -142.6875 L 39.421875 -142.6875 L 39.421875 -82.296875 C 46.472656 -96.148438 59.097656 -103.078125 77.296875 -103.078125 Z M 77.296875 -103.078125 "/></g></g></g><g fill="#5271ff" fill-opacity="1"><g transform="translate(1130.943185, 466.881194)"><g><path d="M 58.453125 -103.078125 C 74.609375 -103.078125 86.691406 -98.523438 94.703125 -89.421875 C 102.710938 -80.316406 106.71875 -67.492188 106.71875 -50.953125 C 106.71875 -49.285156 106.59375 -46.53125 106.34375 -42.6875 L 29.03125 -42.6875 C 30.832031 -34.738281 34.550781 -28.488281 40.1875 -23.9375 C 45.832031 -19.382812 52.691406 -17.109375 60.765625 -17.109375 C 66.273438 -17.109375 71.53125 -18.132812 76.53125 -20.1875 C 81.53125 -22.238281 85.890625 -25.1875 89.609375 -29.03125 L 101.34375 -16.53125 C 96.21875 -11.019531 90.0625 -6.757812 82.875 -3.75 C 75.695312 -0.738281 67.75 0.765625 59.03125 0.765625 C 48.644531 0.765625 39.507812 -1.410156 31.625 -5.765625 C 23.75 -10.128906 17.628906 -16.21875 13.265625 -24.03125 C 8.910156 -31.851562 6.734375 -40.828125 6.734375 -50.953125 C 6.734375 -61.085938 8.910156 -70.09375 13.265625 -77.96875 C 17.628906 -85.851562 23.75 -92.007812 31.625 -96.4375 C 39.507812 -100.863281 48.453125 -103.078125 58.453125 -103.078125 Z M 87.109375 -58.84375 C 86.722656 -67.050781 83.96875 -73.523438 78.84375 -78.265625 C 73.71875 -83.003906 66.988281 -85.375 58.65625 -85.375 C 50.570312 -85.375 43.835938 -83.003906 38.453125 -78.265625 C 33.078125 -73.523438 29.8125 -67.050781 28.65625 -58.84375 Z M 87.109375 -58.84375 "/></g></g></g><g fill="#5271ff" fill-opacity="1"><g transform="translate(1244.014383, 466.881194)"><g><path d="M 38.453125 -81.921875 C 41.921875 -88.835938 46.664062 -94.09375 52.6875 -97.6875 C 58.71875 -101.28125 65.769531 -103.078125 73.84375 -103.078125 L 73.84375 -81.921875 C 63.71875 -82.429688 55.515625 -80.054688 49.234375 -74.796875 C 42.953125 -69.546875 39.359375 -62.429688 38.453125 -53.453125 L 38.453125 0 L 16.34375 0 L 16.34375 -102.296875 L 38.453125 -102.296875 Z M 38.453125 -81.921875 "/></g></g></g><g fill="#5271ff" fill-opacity="1"><g transform="translate(1319.779774, 466.881194)"><g><path d="M 60.1875 -103.078125 C 70.570312 -103.078125 79.800781 -100.894531 87.875 -96.53125 C 95.957031 -92.175781 102.238281 -86.085938 106.71875 -78.265625 C 111.207031 -70.441406 113.453125 -61.46875 113.453125 -51.34375 C 113.453125 -41.082031 111.207031 -32.007812 106.71875 -24.125 C 102.238281 -16.25 95.957031 -10.128906 87.875 -5.765625 C 79.800781 -1.410156 70.570312 0.765625 60.1875 0.765625 C 49.675781 0.765625 40.378906 -1.410156 32.296875 -5.765625 C 24.222656 -10.128906 17.941406 -16.25 13.453125 -24.125 C 8.972656 -32.007812 6.734375 -41.082031 6.734375 -51.34375 C 6.734375 -61.46875 8.972656 -70.441406 13.453125 -78.265625 C 17.941406 -86.085938 24.222656 -92.175781 32.296875 -96.53125 C 40.378906 -100.894531 49.675781 -103.078125 60.1875 -103.078125 Z M 60.1875 -84.21875 C 50.957031 -84.21875 43.425781 -81.109375 37.59375 -74.890625 C 31.757812 -68.679688 28.84375 -60.703125 28.84375 -50.953125 C 28.84375 -41.085938 31.757812 -33.078125 37.59375 -26.921875 C 43.425781 -20.765625 50.957031 -17.6875 60.1875 -17.6875 C 69.414062 -17.6875 76.914062 -20.765625 82.6875 -26.921875 C 88.457031 -33.078125 91.34375 -41.085938 91.34375 -50.953125 C 91.34375 -60.703125 88.425781 -68.679688 82.59375 -74.890625 C 76.757812 -81.109375 69.289062 -84.21875 60.1875 -84.21875 Z M 60.1875 -84.21875 "/></g></g></g></svg>