<svg width="671" height="513" viewBox="0 0 671 513" fill="none" xmlns="http://www.w3.org/2000/svg">
<path d="M167.867 132H200.367C202.367 132 206.367 133.2 206.367 138C206.367 142.8 206.367 145.333 206.367 146C206.367 147.833 207.267 151.5 210.867 151.5C214.467 151.5 258.201 151.5 262.367 151.5C263.867 151.5 266.867 152.2 266.867 155C266.867 157.8 266.867 159.5 266.867 160" stroke="#2B61D1" stroke-linecap="round"/>
<path d="M407.867 113H377.665C375.807 113 372.089 114.371 372.089 119.857C372.089 125.343 372.089 128.238 372.089 129C372.089 131.095 371.253 134 367.908 134C364.562 134 323.921 134 320.049 134C318.655 134 315.867 136.086 315.867 139.286C315.867 142.486 315.867 144.429 315.867 145" stroke="#2B61D1" stroke-linecap="round"/>
<g filter="url(#filter0_d_497_918)">
<circle cx="330.581" cy="289.816" r="141.415" transform="rotate(-107.086 330.581 289.816)" fill="white"/>
</g>
<path d="M265.311 169.394C264.142 167.237 264.94 164.534 267.133 163.433C269.326 162.332 271.97 163.307 273.001 165.534L288.764 199.557C289.467 201.076 288.804 202.872 287.309 203.623C285.813 204.374 283.976 203.832 283.179 202.361L265.311 169.394Z" fill="#127E2B"/>
<path d="M304.713 164.365C303.226 157.156 307.865 150.041 315.182 149.239C322.499 148.438 328.568 154.381 328.677 161.741L329.046 186.6C329.119 191.51 325.189 195.506 320.307 196.04C315.426 196.575 310.724 193.524 309.733 188.715L304.713 164.365Z" fill="#16BB3B"/>
<g filter="url(#filter1_d_497_918)">
<path d="M282.131 165.029C280.622 161.141 282.544 156.744 286.508 155.444C290.471 154.144 294.625 156.548 295.711 160.575L304.427 192.878C305.159 195.593 303.547 198.373 300.876 199.25C298.205 200.126 295.259 198.84 294.241 196.219L282.131 165.029Z" fill="#0BE23B"/>
</g>
<g filter="url(#filter2_d_497_918)">
<path d="M331.435 171.944C331.529 158.943 342.218 148.281 355.023 150.529C380.123 154.933 403.722 166.07 423.199 182.951C448.644 205.003 465.385 235.411 470.412 268.706C475.438 302 468.42 335.995 450.619 364.576C436.993 386.454 417.734 404.061 395.053 415.68C383.482 421.607 370.122 414.576 366.194 402.182C362.266 389.789 369.368 376.785 380.408 369.918C392.585 362.343 402.965 352.034 410.655 339.686C422.53 320.62 427.211 297.943 423.859 275.734C420.506 253.524 409.338 233.24 392.364 218.529C381.371 209.002 368.41 202.217 354.54 198.575C341.965 195.272 331.341 184.945 331.435 171.944Z" fill="#0BE23B"/>
</g>
<path d="M356.135 404.887C358.953 417.578 350.923 430.363 337.939 431.039C312.49 432.366 286.997 426.795 264.235 414.703C234.499 398.906 211.375 373.018 199.023 341.694C186.67 310.37 185.9 275.667 196.85 243.826C205.233 219.452 220.061 197.981 239.566 181.58C249.516 173.212 264.111 177.074 270.714 188.274V188.274C277.317 199.473 273.306 213.737 264.084 222.902C253.912 233.01 246.103 245.381 241.372 259.137C234.067 280.377 234.581 303.527 242.821 324.422C251.061 345.318 266.486 362.587 286.323 373.125C299.169 379.949 313.32 383.66 327.654 384.105C340.649 384.508 353.316 392.195 356.135 404.887V404.887Z" fill="#2B61D1"/>
<path d="M228.659 8.88V6.8H220.195V18H222.787V13.92H227.971V11.84H222.787V8.88H228.659ZM234.115 18.128C236.851 18.128 238.835 16.288 238.835 13.696C238.835 11.104 236.851 9.264 234.115 9.264C231.379 9.264 229.379 11.104 229.379 13.696C229.379 16.288 231.379 18.128 234.115 18.128ZM234.115 16.08C232.867 16.08 231.907 15.184 231.907 13.696C231.907 12.208 232.867 11.312 234.115 11.312C235.363 11.312 236.307 12.208 236.307 13.696C236.307 15.184 235.363 16.08 234.115 16.08ZM246.68 9.392V13.648C246.68 15.232 245.848 15.968 244.696 15.968C243.592 15.968 242.952 15.328 242.952 13.888V9.392H240.456V14.256C240.456 16.912 241.976 18.128 244.136 18.128C245.192 18.128 246.152 17.728 246.808 16.976V18H249.176V9.392H246.68ZM256.72 9.264C255.552 9.264 254.544 9.664 253.872 10.4V9.392H251.488V18H253.984V13.744C253.984 12.16 254.848 11.424 256.048 11.424C257.152 11.424 257.792 12.064 257.792 13.456V18H260.288V13.072C260.288 10.448 258.752 9.264 256.72 9.264ZM268.916 6.128V10.304C268.292 9.6 267.396 9.264 266.34 9.264C263.908 9.264 262.036 10.992 262.036 13.696C262.036 16.4 263.908 18.128 266.34 18.128C267.492 18.128 268.404 17.76 269.028 17.008V18H271.412V6.128H268.916ZM266.772 16.08C265.524 16.08 264.564 15.184 264.564 13.696C264.564 12.208 265.524 11.312 266.772 11.312C268.004 11.312 268.964 12.208 268.964 13.696C268.964 15.184 268.004 16.08 266.772 16.08ZM277.194 9.264C275.818 9.264 274.426 9.632 273.482 10.304L274.378 12.048C275.002 11.552 275.946 11.248 276.858 11.248C278.202 11.248 278.842 11.872 278.842 12.944H276.858C274.234 12.944 273.162 14 273.162 15.52C273.162 17.008 274.362 18.128 276.378 18.128C277.642 18.128 278.538 17.712 279.002 16.928V18H281.338V13.088C281.338 10.48 279.818 9.264 277.194 9.264ZM277.002 16.448C276.122 16.448 275.594 16.032 275.594 15.408C275.594 14.832 275.962 14.4 277.13 14.4H278.842V15.28C278.554 16.064 277.834 16.448 277.002 16.448ZM288.477 15.824C288.205 16.032 287.837 16.144 287.469 16.144C286.797 16.144 286.397 15.744 286.397 15.008V11.504H288.541V9.584H286.397V7.488H283.901V9.584H282.573V11.504H283.901V15.04C283.901 17.088 285.085 18.128 287.117 18.128C287.885 18.128 288.637 17.952 289.149 17.584L288.477 15.824ZM291.798 8.192C292.726 8.192 293.35 7.584 293.35 6.752C293.35 5.984 292.726 5.408 291.798 5.408C290.87 5.408 290.246 6.016 290.246 6.8C290.246 7.584 290.87 8.192 291.798 8.192ZM290.55 18H293.046V9.392H290.55V18ZM299.459 18.128C302.195 18.128 304.179 16.288 304.179 13.696C304.179 11.104 302.195 9.264 299.459 9.264C296.723 9.264 294.723 11.104 294.723 13.696C294.723 16.288 296.723 18.128 299.459 18.128ZM299.459 16.08C298.211 16.08 297.251 15.184 297.251 13.696C297.251 12.208 298.211 11.312 299.459 11.312C300.707 11.312 301.651 12.208 301.651 13.696C301.651 15.184 300.707 16.08 299.459 16.08ZM311.079 9.264C309.911 9.264 308.903 9.664 308.231 10.4V9.392H305.847V18H308.343V13.744C308.343 12.16 309.207 11.424 310.407 11.424C311.511 11.424 312.151 12.064 312.151 13.456V18H314.647V13.072C314.647 10.448 313.111 9.264 311.079 9.264Z" fill="#2B61D1"/>
<g filter="url(#filter3_bd_497_918)">
<rect x="223.023" y="34" width="88.6841" height="46.7389" rx="23.3695" fill="white" fill-opacity="0.67" shape-rendering="crispEdges"/>
</g>
<path d="M246.651 62.5353L250.122 59.2581C252.235 57.2961 252.645 55.9593 252.645 54.4932C252.645 51.755 250.402 50.0301 247.039 50.0301C244.322 50.0301 242.209 51.1297 241.045 52.833L243.589 54.4716C244.322 53.4583 245.422 52.9624 246.715 52.9624C248.311 52.9624 249.13 53.6523 249.13 54.8382C249.13 55.5712 248.893 56.3474 247.556 57.6195L241.735 63.1175V65.3813H253.141V62.5353H246.651ZM256.776 65.5538C257.94 65.5538 258.867 64.6698 258.867 63.4409C258.867 62.1904 257.94 61.3711 256.776 61.3711C255.612 61.3711 254.685 62.1904 254.685 63.4409C254.685 64.6698 255.612 65.5538 256.776 65.5538ZM265.739 50.0301C262.548 50.0301 260.025 51.9706 260.025 55.0538C260.025 57.8998 262.311 59.754 265.222 59.754C266.796 59.754 268.089 59.2797 268.973 58.3957C268.865 61.3064 267.227 62.7941 264.726 62.7941C263.691 62.7941 262.721 62.6 261.901 62.0394L260.608 64.6052C261.664 65.2735 263.195 65.6401 264.79 65.6401C269.361 65.6401 272.488 62.7294 272.488 57.5117C272.488 52.639 269.922 50.0301 265.739 50.0301ZM265.998 57.1452C264.445 57.1452 263.432 56.2612 263.432 54.8813C263.432 53.5014 264.467 52.639 265.955 52.639C267.615 52.639 268.585 53.5876 268.585 54.8813C268.585 56.1965 267.529 57.1452 265.998 57.1452ZM277.656 58.4388C279.855 58.4388 281.386 56.8433 281.386 54.2776C281.386 51.7119 279.855 50.1164 277.656 50.1164C275.457 50.1164 273.905 51.7334 273.905 54.2776C273.905 56.8217 275.457 58.4388 277.656 58.4388ZM276.341 65.3813H278.907L289.213 50.2889H286.647L276.341 65.3813ZM277.656 56.6708C276.729 56.6708 276.082 55.8731 276.082 54.2776C276.082 52.6821 276.729 51.8843 277.656 51.8843C278.605 51.8843 279.23 52.6605 279.23 54.2776C279.23 55.8946 278.605 56.6708 277.656 56.6708ZM287.897 65.5538C290.097 65.5538 291.649 63.9368 291.649 61.3926C291.649 58.8485 290.097 57.2314 287.897 57.2314C285.72 57.2314 284.167 58.8485 284.167 61.3926C284.167 63.9368 285.72 65.5538 287.897 65.5538ZM287.897 63.7859C286.97 63.7859 286.324 63.0097 286.324 61.3926C286.324 59.7756 286.97 58.9994 287.897 58.9994C288.846 58.9994 289.471 59.7971 289.471 61.3926C289.471 62.9881 288.846 63.7859 287.897 63.7859Z" fill="#2B61D1"/>
<path d="M384.579 64.312H389.971V66.328H384.579V64.312ZM384.771 68.92H390.867V71H382.195V59.8H390.659V61.88H384.771V68.92ZM391.572 71L395.428 65.944L395.38 67.32L391.684 62.392H394.484L396.82 65.608L395.764 65.64L398.18 62.392H400.836L397.124 67.272V65.928L400.964 71H398.132L395.684 67.576L396.724 67.72L394.292 71H391.572ZM406.07 71.128C405.142 71.128 404.315 70.9413 403.59 70.568C402.864 70.184 402.294 69.656 401.878 68.984C401.472 68.312 401.27 67.5493 401.27 66.696C401.27 65.832 401.472 65.0693 401.878 64.408C402.294 63.736 402.864 63.2133 403.59 62.84C404.315 62.456 405.142 62.264 406.07 62.264C406.976 62.264 407.766 62.456 408.438 62.84C409.11 63.2133 409.606 63.752 409.926 64.456L407.99 65.496C407.766 65.0907 407.483 64.792 407.142 64.6C406.811 64.408 406.448 64.312 406.054 64.312C405.627 64.312 405.243 64.408 404.902 64.6C404.56 64.792 404.288 65.064 404.086 65.416C403.894 65.768 403.798 66.1947 403.798 66.696C403.798 67.1973 403.894 67.624 404.086 67.976C404.288 68.328 404.56 68.6 404.902 68.792C405.243 68.984 405.627 69.08 406.054 69.08C406.448 69.08 406.811 68.9893 407.142 68.808C407.483 68.616 407.766 68.312 407.99 67.896L409.926 68.952C409.606 69.6453 409.11 70.184 408.438 70.568C407.766 70.9413 406.976 71.128 406.07 71.128ZM416.548 62.264C417.231 62.264 417.839 62.4027 418.372 62.68C418.916 62.9467 419.343 63.3627 419.652 63.928C419.961 64.4827 420.116 65.1973 420.116 66.072V71H417.62V66.456C417.62 65.7627 417.465 65.2507 417.156 64.92C416.857 64.5893 416.431 64.424 415.876 64.424C415.481 64.424 415.124 64.5093 414.804 64.68C414.495 64.84 414.249 65.0907 414.068 65.432C413.897 65.7733 413.812 66.2107 413.812 66.744V71H411.316V59.128H413.812V64.776L413.252 64.056C413.561 63.48 414.004 63.0373 414.58 62.728C415.156 62.4187 415.812 62.264 416.548 62.264ZM427.659 71V69.32L427.499 68.952V65.944C427.499 65.4107 427.333 64.9947 427.003 64.696C426.683 64.3973 426.187 64.248 425.515 64.248C425.056 64.248 424.603 64.3227 424.155 64.472C423.717 64.6107 423.344 64.8027 423.035 65.048L422.139 63.304C422.608 62.9733 423.173 62.7173 423.835 62.536C424.496 62.3547 425.168 62.264 425.851 62.264C427.163 62.264 428.181 62.5733 428.907 63.192C429.632 63.8107 429.995 64.776 429.995 66.088V71H427.659ZM425.035 71.128C424.363 71.128 423.787 71.016 423.307 70.792C422.827 70.5573 422.459 70.2427 422.203 69.848C421.947 69.4533 421.819 69.0107 421.819 68.52C421.819 68.008 421.941 67.56 422.187 67.176C422.443 66.792 422.843 66.4933 423.387 66.28C423.931 66.056 424.64 65.944 425.515 65.944H427.803V67.4H425.787C425.2 67.4 424.795 67.496 424.571 67.688C424.357 67.88 424.251 68.12 424.251 68.408C424.251 68.728 424.373 68.984 424.619 69.176C424.875 69.3573 425.221 69.448 425.659 69.448C426.075 69.448 426.448 69.352 426.779 69.16C427.109 68.9573 427.349 68.664 427.499 68.28L427.883 69.432C427.701 69.9867 427.371 70.408 426.891 70.696C426.411 70.984 425.792 71.128 425.035 71.128ZM437.486 62.264C438.168 62.264 438.776 62.4027 439.31 62.68C439.854 62.9467 440.28 63.3627 440.59 63.928C440.899 64.4827 441.054 65.1973 441.054 66.072V71H438.558V66.456C438.558 65.7627 438.403 65.2507 438.094 64.92C437.795 64.5893 437.368 64.424 436.814 64.424C436.419 64.424 436.062 64.5093 435.742 64.68C435.432 64.84 435.187 65.0907 435.006 65.432C434.835 65.7733 434.75 66.2107 434.75 66.744V71H432.254V62.392H434.638V64.776L434.19 64.056C434.499 63.48 434.942 63.0373 435.518 62.728C436.094 62.4187 436.75 62.264 437.486 62.264ZM447.427 74.232C446.616 74.232 445.832 74.1307 445.075 73.928C444.328 73.736 443.704 73.4427 443.203 73.048L444.195 71.256C444.557 71.5547 445.016 71.7893 445.571 71.96C446.136 72.1413 446.691 72.232 447.235 72.232C448.12 72.232 448.76 72.0347 449.155 71.64C449.56 71.2453 449.763 70.6587 449.763 69.88V68.584L449.923 66.424L449.891 64.248V62.392H452.259V69.56C452.259 71.16 451.843 72.3387 451.011 73.096C450.179 73.8533 448.984 74.232 447.427 74.232ZM447.043 70.584C446.243 70.584 445.517 70.4133 444.867 70.072C444.227 69.72 443.709 69.2347 443.315 68.616C442.931 67.9867 442.739 67.256 442.739 66.424C442.739 65.5813 442.931 64.8507 443.315 64.232C443.709 63.6027 444.227 63.1173 444.867 62.776C445.517 62.4347 446.243 62.264 447.043 62.264C447.768 62.264 448.408 62.4133 448.963 62.712C449.517 63 449.949 63.4533 450.259 64.072C450.568 64.68 450.723 65.464 450.723 66.424C450.723 67.3733 450.568 68.1573 450.259 68.776C449.949 69.384 449.517 69.8373 448.963 70.136C448.408 70.4347 447.768 70.584 447.043 70.584ZM447.539 68.536C447.976 68.536 448.365 68.4507 448.707 68.28C449.048 68.0987 449.315 67.848 449.507 67.528C449.699 67.208 449.795 66.84 449.795 66.424C449.795 65.9973 449.699 65.6293 449.507 65.32C449.315 65 449.048 64.7547 448.707 64.584C448.365 64.4027 447.976 64.312 447.539 64.312C447.101 64.312 446.712 64.4027 446.371 64.584C446.029 64.7547 445.757 65 445.555 65.32C445.363 65.6293 445.267 65.9973 445.267 66.424C445.267 66.84 445.363 67.208 445.555 67.528C445.757 67.848 446.029 68.0987 446.371 68.28C446.712 68.4507 447.101 68.536 447.539 68.536ZM458.854 71.128C457.872 71.128 457.008 70.936 456.262 70.552C455.526 70.168 454.955 69.6453 454.55 68.984C454.144 68.312 453.942 67.5493 453.942 66.696C453.942 65.832 454.139 65.0693 454.534 64.408C454.939 63.736 455.488 63.2133 456.182 62.84C456.875 62.456 457.659 62.264 458.534 62.264C459.376 62.264 460.134 62.4453 460.806 62.808C461.488 63.16 462.027 63.672 462.422 64.344C462.816 65.0053 463.014 65.8 463.014 66.728C463.014 66.824 463.008 66.936 462.998 67.064C462.987 67.1813 462.976 67.2933 462.966 67.4H455.974V65.944H461.654L460.694 66.376C460.694 65.928 460.603 65.5387 460.422 65.208C460.24 64.8773 459.99 64.6213 459.67 64.44C459.35 64.248 458.976 64.152 458.55 64.152C458.123 64.152 457.744 64.248 457.414 64.44C457.094 64.6213 456.843 64.8827 456.662 65.224C456.48 65.5547 456.39 65.9493 456.39 66.408V66.792C456.39 67.2613 456.491 67.6773 456.694 68.04C456.907 68.392 457.2 68.664 457.574 68.856C457.958 69.0373 458.406 69.128 458.918 69.128C459.376 69.128 459.776 69.0587 460.118 68.92C460.47 68.7813 460.79 68.5733 461.078 68.296L462.406 69.736C462.011 70.184 461.515 70.5307 460.918 70.776C460.32 71.0107 459.632 71.128 458.854 71.128ZM469.383 71V59.8H471.975V68.888H477.591V71H469.383ZM478.863 71V62.392H481.359V71H478.863ZM480.111 61.192C479.652 61.192 479.279 61.0587 478.991 60.792C478.703 60.5253 478.559 60.1947 478.559 59.8C478.559 59.4053 478.703 59.0747 478.991 58.808C479.279 58.5413 479.652 58.408 480.111 58.408C480.57 58.408 480.943 58.536 481.231 58.792C481.519 59.0373 481.663 59.3573 481.663 59.752C481.663 60.168 481.519 60.5147 481.231 60.792C480.954 61.0587 480.58 61.192 480.111 61.192ZM487.339 71.128C486.529 71.128 485.798 70.9467 485.147 70.584C484.497 70.2213 483.979 69.7093 483.595 69.048C483.222 68.3867 483.035 67.6027 483.035 66.696C483.035 65.8 483.222 65.0213 483.595 64.36C483.979 63.6987 484.497 63.1867 485.147 62.824C485.798 62.4507 486.529 62.264 487.339 62.264C488.097 62.264 488.742 62.424 489.275 62.744C489.819 63.064 490.235 63.5493 490.523 64.2C490.811 64.8507 490.955 65.6827 490.955 66.696C490.955 67.6987 490.806 68.5307 490.507 69.192C490.209 69.8427 489.787 70.328 489.243 70.648C488.699 70.968 488.065 71.128 487.339 71.128ZM487.771 69.08C488.177 69.08 488.545 68.984 488.875 68.792C489.206 68.6 489.467 68.328 489.659 67.976C489.862 67.6133 489.963 67.1867 489.963 66.696C489.963 66.1947 489.862 65.768 489.659 65.416C489.467 65.064 489.206 64.792 488.875 64.6C488.545 64.408 488.177 64.312 487.771 64.312C487.355 64.312 486.982 64.408 486.651 64.6C486.321 64.792 486.054 65.064 485.851 65.416C485.659 65.768 485.563 66.1947 485.563 66.696C485.563 67.1867 485.659 67.6133 485.851 67.976C486.054 68.328 486.321 68.6 486.651 68.792C486.982 68.984 487.355 69.08 487.771 69.08ZM489.915 74.104V69.256L490.075 66.712L490.027 64.152V62.392H492.411V74.104H489.915ZM498.354 71.128C497.64 71.128 497 70.9893 496.434 70.712C495.88 70.4347 495.448 70.0133 495.138 69.448C494.829 68.872 494.674 68.1413 494.674 67.256V62.392H497.17V66.888C497.17 67.6027 497.32 68.1307 497.618 68.472C497.928 68.8027 498.36 68.968 498.914 68.968C499.298 68.968 499.64 68.888 499.938 68.728C500.237 68.5573 500.472 68.3013 500.642 67.96C500.813 67.608 500.898 67.1707 500.898 66.648V62.392H503.394V71H501.026V68.632L501.458 69.32C501.17 69.9173 500.744 70.3707 500.178 70.68C499.624 70.9787 499.016 71.128 498.354 71.128ZM505.707 71V62.392H508.203V71H505.707ZM506.955 61.192C506.496 61.192 506.123 61.0587 505.835 60.792C505.547 60.5253 505.403 60.1947 505.403 59.8C505.403 59.4053 505.547 59.0747 505.835 58.808C506.123 58.5413 506.496 58.408 506.955 58.408C507.413 58.408 507.787 58.536 508.075 58.792C508.363 59.0373 508.507 59.3573 508.507 59.752C508.507 60.168 508.363 60.5147 508.075 60.792C507.797 61.0587 507.424 61.192 506.955 61.192ZM514.215 71.128C513.405 71.128 512.674 70.9467 512.023 70.584C511.373 70.2107 510.855 69.6933 510.471 69.032C510.098 68.3707 509.911 67.592 509.911 66.696C509.911 65.7893 510.098 65.0053 510.471 64.344C510.855 63.6827 511.373 63.1707 512.023 62.808C512.674 62.4453 513.405 62.264 514.215 62.264C514.941 62.264 515.575 62.424 516.119 62.744C516.663 63.064 517.085 63.5493 517.383 64.2C517.682 64.8507 517.831 65.6827 517.831 66.696C517.831 67.6987 517.687 68.5307 517.399 69.192C517.111 69.8427 516.695 70.328 516.151 70.648C515.618 70.968 514.973 71.128 514.215 71.128ZM514.647 69.08C515.053 69.08 515.421 68.984 515.751 68.792C516.082 68.6 516.343 68.328 516.535 67.976C516.738 67.6133 516.839 67.1867 516.839 66.696C516.839 66.1947 516.738 65.768 516.535 65.416C516.343 65.064 516.082 64.792 515.751 64.6C515.421 64.408 515.053 64.312 514.647 64.312C514.231 64.312 513.858 64.408 513.527 64.6C513.197 64.792 512.93 65.064 512.727 65.416C512.535 65.768 512.439 66.1947 512.439 66.696C512.439 67.1867 512.535 67.6133 512.727 67.976C512.93 68.328 513.197 68.6 513.527 68.792C513.858 68.984 514.231 69.08 514.647 69.08ZM516.903 71V69.24L516.951 66.68L516.791 64.136V59.128H519.287V71H516.903ZM521.597 71V62.392H524.093V71H521.597ZM522.845 61.192C522.387 61.192 522.013 61.0587 521.725 60.792C521.437 60.5253 521.293 60.1947 521.293 59.8C521.293 59.4053 521.437 59.0747 521.725 58.808C522.013 58.5413 522.387 58.408 522.845 58.408C523.304 58.408 523.677 58.536 523.965 58.792C524.253 59.0373 524.397 59.3573 524.397 59.752C524.397 60.168 524.253 60.5147 523.965 60.792C523.688 61.0587 523.315 61.192 522.845 61.192ZM529.93 71.128C528.916 71.128 528.127 70.872 527.562 70.36C526.996 69.8373 526.714 69.064 526.714 68.04V60.488H529.21V68.008C529.21 68.3707 529.306 68.6533 529.498 68.856C529.69 69.048 529.951 69.144 530.282 69.144C530.676 69.144 531.012 69.0373 531.29 68.824L531.962 70.584C531.706 70.7653 531.396 70.904 531.034 71C530.682 71.0853 530.314 71.128 529.93 71.128ZM525.386 64.504V62.584H531.354V64.504H525.386ZM534.295 74.232C533.847 74.232 533.404 74.1627 532.967 74.024C532.529 73.8853 532.172 73.6933 531.895 73.448L532.807 71.672C532.999 71.8427 533.217 71.976 533.463 72.072C533.719 72.168 533.969 72.216 534.215 72.216C534.567 72.216 534.844 72.1307 535.047 71.96C535.26 71.8 535.452 71.528 535.623 71.144L536.071 70.088L536.263 69.816L539.351 62.392H541.751L537.863 71.528C537.585 72.2213 537.265 72.7653 536.903 73.16C536.551 73.5547 536.156 73.832 535.719 73.992C535.292 74.152 534.817 74.232 534.295 74.232ZM535.767 71.336L531.927 62.392H534.503L537.479 69.592L535.767 71.336Z" fill="#2B61D1"/>
<g filter="url(#filter4_bd_497_918)">
<rect x="417.023" y="87" width="88.6841" height="46.7389" rx="23.3695" fill="white" fill-opacity="0.67" shape-rendering="crispEdges"/>
</g>
<path d="M438.174 103.289V106.092H441.193V118.381H444.686V103.289H438.174ZM449.291 118.554C450.455 118.554 451.382 117.67 451.382 116.441C451.382 115.19 450.455 114.371 449.291 114.371C448.127 114.371 447.2 115.19 447.2 116.441C447.2 117.67 448.127 118.554 449.291 118.554ZM452.333 103.289V108.593H455.438V106.135H460.44L455.028 118.381H458.823L464.429 105.553V103.289H452.333ZM469.603 111.439C471.802 111.439 473.333 109.843 473.333 107.278C473.333 104.712 471.802 103.116 469.603 103.116C467.404 103.116 465.851 104.733 465.851 107.278C465.851 109.822 467.404 111.439 469.603 111.439ZM468.288 118.381H470.853L481.159 103.289H478.594L468.288 118.381ZM469.603 109.671C468.676 109.671 468.029 108.873 468.029 107.278C468.029 105.682 468.676 104.884 469.603 104.884C470.551 104.884 471.177 105.661 471.177 107.278C471.177 108.895 470.551 109.671 469.603 109.671ZM479.844 118.554C482.043 118.554 483.596 116.937 483.596 114.393C483.596 111.848 482.043 110.231 479.844 110.231C477.667 110.231 476.114 111.848 476.114 114.393C476.114 116.937 477.667 118.554 479.844 118.554ZM479.844 116.786C478.917 116.786 478.27 116.01 478.27 114.393C478.27 112.776 478.917 111.999 479.844 111.999C480.793 111.999 481.418 112.797 481.418 114.393C481.418 115.988 480.793 116.786 479.844 116.786Z" fill="#2B61D1"/>
<path d="M521.195 195H529.403V192.888H523.787V183.8H521.195V195ZM531.923 185.192C532.851 185.192 533.475 184.584 533.475 183.752C533.475 182.984 532.851 182.408 531.923 182.408C530.995 182.408 530.371 183.016 530.371 183.8C530.371 184.584 530.995 185.192 531.923 185.192ZM530.675 195H533.171V186.392H530.675V195ZM541.84 186.392V187.384C541.216 186.632 540.304 186.264 539.152 186.264C536.72 186.264 534.848 187.992 534.848 190.696C534.848 193.4 536.72 195.128 539.152 195.128C540.208 195.128 541.104 194.792 541.728 194.088V198.104H544.224V186.392H541.84ZM539.584 193.08C538.336 193.08 537.376 192.184 537.376 190.696C537.376 189.208 538.336 188.312 539.584 188.312C540.816 188.312 541.776 189.208 541.776 190.696C541.776 192.184 540.816 193.08 539.584 193.08ZM552.711 186.392V190.648C552.711 192.232 551.879 192.968 550.727 192.968C549.623 192.968 548.983 192.328 548.983 190.888V186.392H546.487V191.256C546.487 193.912 548.007 195.128 550.167 195.128C551.223 195.128 552.183 194.728 552.839 193.976V195H555.207V186.392H552.711ZM558.767 185.192C559.695 185.192 560.319 184.584 560.319 183.752C560.319 182.984 559.695 182.408 558.767 182.408C557.839 182.408 557.215 183.016 557.215 183.8C557.215 184.584 557.839 185.192 558.767 185.192ZM557.519 195H560.015V186.392H557.519V195ZM568.604 183.128V187.304C567.98 186.6 567.084 186.264 566.028 186.264C563.596 186.264 561.724 187.992 561.724 190.696C561.724 193.4 563.596 195.128 566.028 195.128C567.18 195.128 568.092 194.76 568.716 194.008V195H571.1V183.128H568.604ZM566.46 193.08C565.212 193.08 564.252 192.184 564.252 190.696C564.252 189.208 565.212 188.312 566.46 188.312C567.692 188.312 568.652 189.208 568.652 190.696C568.652 192.184 567.692 193.08 566.46 193.08ZM574.658 185.192C575.586 185.192 576.21 184.584 576.21 183.752C576.21 182.984 575.586 182.408 574.658 182.408C573.73 182.408 573.106 183.016 573.106 183.8C573.106 184.584 573.73 185.192 574.658 185.192ZM573.41 195H575.906V186.392H573.41V195ZM583.102 192.824C582.83 193.032 582.462 193.144 582.094 193.144C581.422 193.144 581.022 192.744 581.022 192.008V188.504H583.166V186.584H581.022V184.488H578.526V186.584H577.198V188.504H578.526V192.04C578.526 194.088 579.71 195.128 581.742 195.128C582.51 195.128 583.262 194.952 583.774 194.584L583.102 192.824ZM591.163 186.392L588.731 192.232L586.315 186.392H583.739L587.467 195.064L587.435 195.144C587.099 195.912 586.715 196.216 586.027 196.216C585.531 196.216 585.003 196.008 584.619 195.672L583.707 197.448C584.267 197.944 585.227 198.232 586.107 198.232C587.659 198.232 588.843 197.608 589.675 195.528L593.563 186.392H591.163ZM611.913 195L611.881 183.8H609.753L605.625 190.76L601.433 183.8H599.289V195H601.721V188.424L605.001 193.816H606.169L609.465 188.28L609.481 195H611.913ZM615.642 185.192C616.57 185.192 617.194 184.584 617.194 183.752C617.194 182.984 616.57 182.408 615.642 182.408C614.714 182.408 614.09 183.016 614.09 183.8C614.09 184.584 614.714 185.192 615.642 185.192ZM614.394 195H616.89V186.392H614.394V195ZM624.439 186.264C623.271 186.264 622.263 186.664 621.591 187.4V186.392H619.207V195H621.703V190.744C621.703 189.16 622.567 188.424 623.767 188.424C624.871 188.424 625.511 189.064 625.511 190.456V195H628.007V190.072C628.007 187.448 626.471 186.264 624.439 186.264ZM631.517 185.192C632.445 185.192 633.069 184.584 633.069 183.752C633.069 182.984 632.445 182.408 631.517 182.408C630.589 182.408 629.965 183.016 629.965 183.8C629.965 184.584 630.589 185.192 631.517 185.192ZM630.269 195H632.765V186.392H630.269V195ZM640.314 186.264C639.146 186.264 638.138 186.664 637.466 187.4V186.392H635.082V195H637.578V190.744C637.578 189.16 638.442 188.424 639.642 188.424C640.746 188.424 641.386 189.064 641.386 190.456V195H643.882V190.072C643.882 187.448 642.346 186.264 640.314 186.264ZM652.75 186.392V187.496C652.094 186.664 651.102 186.264 649.902 186.264C647.518 186.264 645.598 187.912 645.598 190.424C645.598 192.936 647.518 194.584 649.902 194.584C651.022 194.584 651.966 194.232 652.622 193.512V193.88C652.622 195.432 651.854 196.232 650.094 196.232C648.99 196.232 647.79 195.848 647.054 195.256L646.062 197.048C647.07 197.832 648.654 198.232 650.286 198.232C653.39 198.232 655.118 196.76 655.118 193.56V186.392H652.75ZM650.398 192.536C649.086 192.536 648.126 191.688 648.126 190.424C648.126 189.16 649.086 188.312 650.398 188.312C651.71 188.312 652.654 189.16 652.654 190.424C652.654 191.688 651.71 192.536 650.398 192.536Z" fill="#2B61D1"/>
<g filter="url(#filter5_bd_497_918)">
<rect x="544.023" y="211" width="88.6841" height="46.7389" rx="23.3695" fill="white" fill-opacity="0.67" shape-rendering="crispEdges"/>
</g>
<path d="M571.368 236.366H568.91V233.541H565.612V236.366H561.558L568.156 227.289H564.49L557.375 236.862V239.212H565.504V242.381H568.91V239.212H571.368V236.366ZM571.227 227.289V232.593H574.332V230.135H579.334L573.922 242.381H577.717L583.323 229.553V227.289H571.227ZM585.809 242.554C586.973 242.554 587.9 241.67 587.9 240.441C587.9 239.19 586.973 238.371 585.809 238.371C584.644 238.371 583.717 239.19 583.717 240.441C583.717 241.67 584.644 242.554 585.809 242.554ZM594.642 232.959H593.413L593.651 230.092H599.946V227.289H590.74L589.964 235.784H593.823C596.561 235.784 597.338 236.56 597.338 237.746C597.338 238.975 596.259 239.708 594.513 239.708C592.939 239.708 591.365 239.212 590.222 238.349L588.843 241.023C590.309 242.058 592.508 242.64 594.599 242.64C598.911 242.64 600.873 240.312 600.873 237.638C600.873 234.964 599.105 232.959 594.642 232.959ZM605.573 235.439C607.772 235.439 609.303 233.843 609.303 231.278C609.303 228.712 607.772 227.116 605.573 227.116C603.374 227.116 601.821 228.733 601.821 231.278C601.821 233.822 603.374 235.439 605.573 235.439ZM604.258 242.381H606.823L617.129 227.289H614.564L604.258 242.381ZM605.573 233.671C604.646 233.671 603.999 232.873 603.999 231.278C603.999 229.682 604.646 228.884 605.573 228.884C606.522 228.884 607.147 229.661 607.147 231.278C607.147 232.895 606.522 233.671 605.573 233.671ZM615.814 242.554C618.013 242.554 619.566 240.937 619.566 238.393C619.566 235.848 618.013 234.231 615.814 234.231C613.637 234.231 612.084 235.848 612.084 238.393C612.084 240.937 613.637 242.554 615.814 242.554ZM615.814 240.786C614.887 240.786 614.24 240.01 614.24 238.393C614.24 236.776 614.887 235.999 615.814 235.999C616.763 235.999 617.388 236.797 617.388 238.393C617.388 239.988 616.763 240.786 615.814 240.786Z" fill="#2B61D1"/>
<path d="M7.04319 237.8H2.19519V249H4.78719V245.912H7.04319C10.0352 245.912 11.9072 244.36 11.9072 241.864C11.9072 239.352 10.0352 237.8 7.04319 237.8ZM6.89919 243.8H4.78719V239.912H6.89919C8.48319 239.912 9.28319 240.632 9.28319 241.864C9.28319 243.08 8.48319 243.8 6.89919 243.8ZM16.9756 240.264C15.5996 240.264 14.2076 240.632 13.2636 241.304L14.1596 243.048C14.7836 242.552 15.7276 242.248 16.6396 242.248C17.9836 242.248 18.6236 242.872 18.6236 243.944H16.6396C14.0156 243.944 12.9436 245 12.9436 246.52C12.9436 248.008 14.1436 249.128 16.1596 249.128C17.4236 249.128 18.3196 248.712 18.7836 247.928V249H21.1196V244.088C21.1196 241.48 19.5996 240.264 16.9756 240.264ZM16.7836 247.448C15.9036 247.448 15.3756 247.032 15.3756 246.408C15.3756 245.832 15.7436 245.4 16.9116 245.4H18.6236V246.28C18.3356 247.064 17.6156 247.448 16.7836 247.448ZM25.7626 241.528V240.392H23.3786V249H25.8746V244.936C25.8746 243.288 26.7866 242.536 28.1626 242.536C28.3546 242.536 28.5146 242.552 28.7226 242.568V240.264C27.3946 240.264 26.3706 240.696 25.7626 241.528ZM33.6318 240.264C32.2558 240.264 30.8638 240.632 29.9198 241.304L30.8158 243.048C31.4398 242.552 32.3838 242.248 33.2958 242.248C34.6398 242.248 35.2798 242.872 35.2798 243.944H33.2958C30.6718 243.944 29.5998 245 29.5998 246.52C29.5998 248.008 30.7998 249.128 32.8158 249.128C34.0798 249.128 34.9758 248.712 35.4398 247.928V249H37.7758V244.088C37.7758 241.48 36.2558 240.264 33.6318 240.264ZM33.4398 247.448C32.5598 247.448 32.0318 247.032 32.0318 246.408C32.0318 245.832 32.3998 245.4 33.5678 245.4H35.2798V246.28C34.9918 247.064 34.2718 247.448 33.4398 247.448ZM40.0348 249H42.5308V237.128H40.0348V249ZM44.8473 249H47.3433V237.128H44.8473V249ZM58.0918 244.728C58.0918 241.96 56.1398 240.264 53.6118 240.264C50.9878 240.264 49.0198 242.12 49.0198 244.696C49.0198 247.256 50.9558 249.128 53.9318 249.128C55.4838 249.128 56.6838 248.648 57.4838 247.736L56.1558 246.296C55.5638 246.856 54.9078 247.128 53.9958 247.128C52.6838 247.128 51.7718 246.472 51.5318 245.4H58.0438C58.0598 245.192 58.0918 244.92 58.0918 244.728ZM53.6278 242.152C54.7478 242.152 55.5638 242.856 55.7398 243.944H51.4998C51.6758 242.84 52.4918 242.152 53.6278 242.152ZM59.7536 249H62.2496V237.128H59.7536V249ZM79.1933 249L76.6813 245.4C78.1373 244.776 78.9853 243.544 78.9853 241.864C78.9853 239.352 77.1133 237.8 74.1213 237.8H69.2733V249H71.8653V245.88H74.1213H74.2493L76.4093 249H79.1933ZM76.3613 241.864C76.3613 243.08 75.5613 243.816 73.9773 243.816H71.8653V239.912H73.9773C75.5613 239.912 76.3613 240.632 76.3613 241.864ZM89.2949 244.728C89.2949 241.96 87.3429 240.264 84.8149 240.264C82.1909 240.264 80.2229 242.12 80.2229 244.696C80.2229 247.256 82.1589 249.128 85.1349 249.128C86.6869 249.128 87.8869 248.648 88.6869 247.736L87.3589 246.296C86.7669 246.856 86.1109 247.128 85.1989 247.128C83.8869 247.128 82.9749 246.472 82.7349 245.4H89.2469C89.2629 245.192 89.2949 244.92 89.2949 244.728ZM84.8309 242.152C85.9509 242.152 86.7669 242.856 86.9429 243.944H82.7029C82.8789 242.84 83.6949 242.152 84.8309 242.152ZM102.416 240.392L100.32 246.216L98.2724 240.392H96.1604L94.0484 246.216L92.0164 240.392H89.6644L92.7684 249H95.1684L97.1684 243.656L99.1044 249H101.504L104.624 240.392H102.416ZM108.976 240.264C107.6 240.264 106.208 240.632 105.264 241.304L106.16 243.048C106.784 242.552 107.728 242.248 108.64 242.248C109.984 242.248 110.624 242.872 110.624 243.944H108.64C106.016 243.944 104.944 245 104.944 246.52C104.944 248.008 106.144 249.128 108.16 249.128C109.424 249.128 110.32 248.712 110.784 247.928V249H113.12V244.088C113.12 241.48 111.6 240.264 108.976 240.264ZM108.784 247.448C107.904 247.448 107.376 247.032 107.376 246.408C107.376 245.832 107.744 245.4 108.912 245.4H110.624V246.28C110.336 247.064 109.616 247.448 108.784 247.448ZM117.763 241.528V240.392H115.379V249H117.875V244.936C117.875 243.288 118.787 242.536 120.163 242.536C120.355 242.536 120.515 242.552 120.723 242.568V240.264C119.395 240.264 118.371 240.696 117.763 241.528ZM128.401 237.128V241.304C127.777 240.6 126.881 240.264 125.825 240.264C123.393 240.264 121.521 241.992 121.521 244.696C121.521 247.4 123.393 249.128 125.825 249.128C126.977 249.128 127.889 248.76 128.513 248.008V249H130.897V237.128H128.401ZM126.257 247.08C125.009 247.08 124.049 246.184 124.049 244.696C124.049 243.208 125.009 242.312 126.257 242.312C127.489 242.312 128.449 243.208 128.449 244.696C128.449 246.184 127.489 247.08 126.257 247.08ZM136.103 249.128C138.679 249.128 140.167 247.992 140.167 246.392C140.167 243 134.967 244.424 134.967 242.952C134.967 242.504 135.447 242.152 136.567 242.152C137.351 242.152 138.199 242.312 139.047 242.792L139.879 241.016C139.063 240.536 137.751 240.264 136.567 240.264C134.055 240.264 132.583 241.416 132.583 243.048C132.583 246.488 137.783 245.048 137.783 246.456C137.783 246.936 137.351 247.24 136.199 247.24C135.143 247.24 133.975 246.904 133.207 246.408L132.375 248.2C133.175 248.728 134.647 249.128 136.103 249.128Z" fill="#2B61D1"/>
<g filter="url(#filter6_bd_497_918)">
<rect x="26.5234" y="265" width="88.6841" height="46.7389" rx="23.3695" fill="white" fill-opacity="0.67" shape-rendering="crispEdges"/>
</g>
<path d="M53.1847 290.366H50.7268V287.541H47.428V290.366H43.3746L49.9722 281.289H46.3069L39.1918 290.862V293.212H47.3202V296.381H50.7268V293.212H53.1847V290.366ZM53.0437 281.289V286.593H56.1485V284.135H61.1506L55.7388 296.381H59.5335L65.1393 283.553V281.289H53.0437ZM67.625 296.554C68.7893 296.554 69.7164 295.67 69.7164 294.441C69.7164 293.19 68.7893 292.371 67.625 292.371C66.4607 292.371 65.5336 293.19 65.5336 294.441C65.5336 295.67 66.4607 296.554 67.625 296.554ZM76.2813 293.535L79.7526 290.258C81.8655 288.296 82.2752 286.959 82.2752 285.493C82.2752 282.755 80.0329 281.03 76.6694 281.03C73.9527 281.03 71.8398 282.13 70.6755 283.833L73.2197 285.472C73.9527 284.458 75.0523 283.962 76.346 283.962C77.9415 283.962 78.7608 284.652 78.7608 285.838C78.7608 286.571 78.5236 287.347 77.1868 288.619L71.3654 294.117V296.381H82.7711V293.535H76.2813ZM87.9157 289.439C90.1148 289.439 91.6457 287.843 91.6457 285.277C91.6457 282.712 90.1148 281.116 87.9157 281.116C85.7165 281.116 84.1641 282.733 84.1641 285.277C84.1641 287.822 85.7165 289.439 87.9157 289.439ZM86.6005 296.381H89.1662L99.4722 281.289H96.9065L86.6005 296.381ZM87.9157 287.671C86.9885 287.671 86.3417 286.873 86.3417 285.277C86.3417 283.682 86.9885 282.884 87.9157 282.884C88.8643 282.884 89.4896 283.66 89.4896 285.277C89.4896 286.895 88.8643 287.671 87.9157 287.671ZM98.157 296.554C100.356 296.554 101.909 294.937 101.909 292.392C101.909 289.848 100.356 288.231 98.157 288.231C95.9794 288.231 94.427 289.848 94.427 292.392C94.427 294.937 95.9794 296.554 98.157 296.554ZM98.157 294.786C97.2299 294.786 96.5831 294.01 96.5831 292.392C96.5831 290.775 97.2299 289.999 98.157 289.999C99.1057 289.999 99.7309 290.797 99.7309 292.392C99.7309 293.988 99.1057 294.786 98.157 294.786Z" fill="#2B61D1"/>
<path d="M68.7051 69.192C72.2251 69.192 74.8331 66.744 74.8331 63.4C74.8331 60.056 72.2251 57.608 68.7051 57.608C65.1691 57.608 62.5771 60.072 62.5771 63.4C62.5771 66.728 65.1691 69.192 68.7051 69.192ZM68.7051 66.984C66.7051 66.984 65.2011 65.528 65.2011 63.4C65.2011 61.272 66.7051 59.816 68.7051 59.816C70.7051 59.816 72.2091 61.272 72.2091 63.4C72.2091 65.528 70.7051 66.984 68.7051 66.984ZM81.6931 60.264C80.5411 60.264 79.6131 60.632 78.9891 61.384V60.392H76.6051V72.104H79.1011V68.088C79.7411 68.792 80.6211 69.128 81.6931 69.128C84.1091 69.128 85.9811 67.4 85.9811 64.696C85.9811 61.992 84.1091 60.264 81.6931 60.264ZM81.2611 67.08C80.0131 67.08 79.0691 66.184 79.0691 64.696C79.0691 63.208 80.0131 62.312 81.2611 62.312C82.5091 62.312 83.4531 63.208 83.4531 64.696C83.4531 66.184 82.5091 67.08 81.2611 67.08ZM96.084 64.728C96.084 61.96 94.132 60.264 91.604 60.264C88.98 60.264 87.012 62.12 87.012 64.696C87.012 67.256 88.948 69.128 91.924 69.128C93.476 69.128 94.676 68.648 95.476 67.736L94.148 66.296C93.556 66.856 92.9 67.128 91.988 67.128C90.676 67.128 89.764 66.472 89.524 65.4H96.036C96.052 65.192 96.084 64.92 96.084 64.728ZM91.62 62.152C92.74 62.152 93.556 62.856 93.732 63.944H89.492C89.668 62.84 90.484 62.152 91.62 62.152ZM100.13 61.528V60.392H97.7458V69H100.242V64.936C100.242 63.288 101.154 62.536 102.53 62.536C102.722 62.536 102.882 62.552 103.09 62.568V60.264C101.762 60.264 100.738 60.696 100.13 61.528ZM107.999 60.264C106.623 60.264 105.231 60.632 104.287 61.304L105.183 63.048C105.807 62.552 106.751 62.248 107.663 62.248C109.007 62.248 109.647 62.872 109.647 63.944H107.663C105.039 63.944 103.967 65 103.967 66.52C103.967 68.008 105.167 69.128 107.183 69.128C108.447 69.128 109.343 68.712 109.807 67.928V69H112.143V64.088C112.143 61.48 110.623 60.264 107.999 60.264ZM107.807 67.448C106.927 67.448 106.399 67.032 106.399 66.408C106.399 65.832 106.767 65.4 107.935 65.4H109.647V66.28C109.359 67.064 108.639 67.448 107.807 67.448ZM119.282 66.824C119.01 67.032 118.642 67.144 118.274 67.144C117.602 67.144 117.202 66.744 117.202 66.008V62.504H119.346V60.584H117.202V58.488H114.706V60.584H113.378V62.504H114.706V66.04C114.706 68.088 115.89 69.128 117.922 69.128C118.69 69.128 119.442 68.952 119.954 68.584L119.282 66.824ZM122.603 59.192C123.531 59.192 124.155 58.584 124.155 57.752C124.155 56.984 123.531 56.408 122.603 56.408C121.675 56.408 121.051 57.016 121.051 57.8C121.051 58.584 121.675 59.192 122.603 59.192ZM121.355 69H123.851V60.392H121.355V69ZM130.264 69.128C133 69.128 134.984 67.288 134.984 64.696C134.984 62.104 133 60.264 130.264 60.264C127.528 60.264 125.528 62.104 125.528 64.696C125.528 67.288 127.528 69.128 130.264 69.128ZM130.264 67.08C129.016 67.08 128.056 66.184 128.056 64.696C128.056 63.208 129.016 62.312 130.264 62.312C131.512 62.312 132.456 63.208 132.456 64.696C132.456 66.184 131.512 67.08 130.264 67.08ZM141.884 60.264C140.716 60.264 139.708 60.664 139.036 61.4V60.392H136.652V69H139.148V64.744C139.148 63.16 140.012 62.424 141.212 62.424C142.316 62.424 142.956 63.064 142.956 64.456V69H145.452V64.072C145.452 61.448 143.916 60.264 141.884 60.264ZM151.187 60.264C149.811 60.264 148.419 60.632 147.475 61.304L148.371 63.048C148.995 62.552 149.939 62.248 150.851 62.248C152.195 62.248 152.835 62.872 152.835 63.944H150.851C148.227 63.944 147.155 65 147.155 66.52C147.155 68.008 148.355 69.128 150.371 69.128C151.635 69.128 152.531 68.712 152.995 67.928V69H155.331V64.088C155.331 61.48 153.811 60.264 151.187 60.264ZM150.995 67.448C150.115 67.448 149.587 67.032 149.587 66.408C149.587 65.832 149.955 65.4 151.123 65.4H152.835V66.28C152.547 67.064 151.827 67.448 150.995 67.448ZM157.59 69H160.086V57.128H157.59V69ZM81.0632 93H83.7832L78.7752 81.8H76.2152L71.2232 93H73.8792L74.8712 90.6H80.0712L81.0632 93ZM75.7032 88.632L77.4792 84.344L79.2552 88.632H75.7032ZM84.7692 93H87.2652V81.128H84.7692V93ZM89.5817 93H92.0777V81.128H89.5817V93ZM98.4902 93.128C101.226 93.128 103.21 91.288 103.21 88.696C103.21 86.104 101.226 84.264 98.4902 84.264C95.7542 84.264 93.7542 86.104 93.7542 88.696C93.7542 91.288 95.7542 93.128 98.4902 93.128ZM98.4902 91.08C97.2422 91.08 96.2822 90.184 96.2822 88.696C96.2822 87.208 97.2422 86.312 98.4902 86.312C99.7382 86.312 100.682 87.208 100.682 88.696C100.682 90.184 99.7382 91.08 98.4902 91.08ZM109.039 93.128C110.847 93.128 112.271 92.328 112.895 90.952L110.959 89.896C110.495 90.728 109.807 91.08 109.023 91.08C107.759 91.08 106.767 90.2 106.767 88.696C106.767 87.192 107.759 86.312 109.023 86.312C109.807 86.312 110.495 86.68 110.959 87.496L112.895 86.456C112.271 85.048 110.847 84.264 109.039 84.264C106.239 84.264 104.239 86.104 104.239 88.696C104.239 91.288 106.239 93.128 109.039 93.128ZM117.804 84.264C116.428 84.264 115.036 84.632 114.092 85.304L114.988 87.048C115.612 86.552 116.556 86.248 117.468 86.248C118.812 86.248 119.452 86.872 119.452 87.944H117.468C114.844 87.944 113.772 89 113.772 90.52C113.772 92.008 114.972 93.128 116.988 93.128C118.252 93.128 119.148 92.712 119.612 91.928V93H121.948V88.088C121.948 85.48 120.428 84.264 117.804 84.264ZM117.612 91.448C116.732 91.448 116.204 91.032 116.204 90.408C116.204 89.832 116.572 89.4 117.74 89.4H119.452V90.28C119.164 91.064 118.444 91.448 117.612 91.448ZM129.087 90.824C128.815 91.032 128.447 91.144 128.079 91.144C127.407 91.144 127.007 90.744 127.007 90.008V86.504H129.151V84.584H127.007V82.488H124.511V84.584H123.183V86.504H124.511V90.04C124.511 92.088 125.695 93.128 127.727 93.128C128.495 93.128 129.247 92.952 129.759 92.584L129.087 90.824ZM132.408 83.192C133.336 83.192 133.96 82.584 133.96 81.752C133.96 80.984 133.336 80.408 132.408 80.408C131.48 80.408 130.856 81.016 130.856 81.8C130.856 82.584 131.48 83.192 132.408 83.192ZM131.16 93H133.656V84.392H131.16V93ZM140.068 93.128C142.804 93.128 144.788 91.288 144.788 88.696C144.788 86.104 142.804 84.264 140.068 84.264C137.332 84.264 135.332 86.104 135.332 88.696C135.332 91.288 137.332 93.128 140.068 93.128ZM140.068 91.08C138.82 91.08 137.86 90.184 137.86 88.696C137.86 87.208 138.82 86.312 140.068 86.312C141.316 86.312 142.26 87.208 142.26 88.696C142.26 90.184 141.316 91.08 140.068 91.08ZM151.689 84.264C150.521 84.264 149.513 84.664 148.841 85.4V84.392H146.457V93H148.953V88.744C148.953 87.16 149.817 86.424 151.017 86.424C152.121 86.424 152.761 87.064 152.761 88.456V93H155.257V88.072C155.257 85.448 153.721 84.264 151.689 84.264Z" fill="#2B61D1"/>
<g filter="url(#filter7_bd_497_918)">
<rect x="69.5234" y="109" width="88.6841" height="46.7389" rx="23.3695" fill="white" fill-opacity="0.67" shape-rendering="crispEdges"/>
</g>
<path d="M94.8638 140.64C98.5938 140.64 101.332 137.816 101.332 132.835C101.332 127.854 98.5938 125.03 94.8638 125.03C91.1553 125.03 88.3956 127.854 88.3956 132.835C88.3956 137.816 91.1553 140.64 94.8638 140.64ZM94.8638 137.686C93.1389 137.686 91.9315 136.263 91.9315 132.835C91.9315 129.407 93.1389 127.984 94.8638 127.984C96.6102 127.984 97.8176 129.407 97.8176 132.835C97.8176 136.263 96.6102 137.686 94.8638 137.686ZM104.739 140.554C105.903 140.554 106.83 139.67 106.83 138.441C106.83 137.19 105.903 136.371 104.739 136.371C103.575 136.371 102.648 137.19 102.648 138.441C102.648 139.67 103.575 140.554 104.739 140.554ZM107.781 125.289V130.593H110.886V128.135H115.888L110.476 140.381H114.271L119.877 127.553V125.289H107.781ZM125.051 133.439C127.25 133.439 128.781 131.843 128.781 129.277C128.781 126.712 127.25 125.116 125.051 125.116C122.851 125.116 121.299 126.733 121.299 129.277C121.299 131.822 122.851 133.439 125.051 133.439ZM123.735 140.381H126.301L136.607 125.289H134.041L123.735 140.381ZM125.051 131.671C124.124 131.671 123.477 130.873 123.477 129.277C123.477 127.682 124.124 126.884 125.051 126.884C125.999 126.884 126.625 127.66 126.625 129.277C126.625 130.895 125.999 131.671 125.051 131.671ZM135.292 140.554C137.491 140.554 139.044 138.937 139.044 136.392C139.044 133.848 137.491 132.231 135.292 132.231C133.114 132.231 131.562 133.848 131.562 136.392C131.562 138.937 133.114 140.554 135.292 140.554ZM135.292 138.786C134.365 138.786 133.718 138.01 133.718 136.392C133.718 134.775 134.365 133.999 135.292 133.999C136.241 133.999 136.866 134.797 136.866 136.392C136.866 137.988 136.241 138.786 135.292 138.786Z" fill="#2B61D1"/>
<path d="M118.867 288H151.367C153.367 288 157.367 289.2 157.367 294C157.367 298.8 157.367 301.333 157.367 302C157.367 303.833 158.267 307.5 161.867 307.5C165.467 307.5 182.701 307.5 186.867 307.5" stroke="#2B61D1" stroke-linecap="round"/>
<path d="M286.867 152L286.867 119.5C286.867 117.5 285.944 113.5 282.252 113.5C278.559 113.5 276.611 113.5 276.098 113.5C274.688 113.5 271.867 112.6 271.867 109C271.867 105.4 271.867 88.1667 271.867 84" stroke="#2B61D1" stroke-linecap="round"/>
<path d="M536.867 241H507.713C505.919 241 502.33 242.231 502.33 247.154C502.33 252.077 502.33 254.675 502.33 255.359C502.33 257.239 501.523 261 498.294 261C495.064 261 479.605 261 475.867 261" stroke="#2B61D1" stroke-linecap="round"/>
<defs>
<filter id="filter0_d_497_918" x="178.349" y="137.583" width="331.418" height="331.417" filterUnits="userSpaceOnUse" color-interpolation-filters="sRGB">
<feFlood flood-opacity="0" result="BackgroundImageFix"/>
<feColorMatrix in="SourceAlpha" type="matrix" values="0 0 0 0 0 0 0 0 0 0 0 0 0 0 0 0 0 0 127 0" result="hardAlpha"/>
<feMorphology radius="1.79673" operator="dilate" in="SourceAlpha" result="effect1_dropShadow_497_918"/>
<feOffset dx="13.4754" dy="13.4754"/>
<feGaussianBlur stdDeviation="11.2295"/>
<feComposite in2="hardAlpha" operator="out"/>
<feColorMatrix type="matrix" values="0 0 0 0 0.168627 0 0 0 0 0.380392 0 0 0 0 0.819608 0 0 0 0.1 0"/>
<feBlend mode="normal" in2="BackgroundImageFix" result="effect1_dropShadow_497_918"/>
<feBlend mode="normal" in="SourceGraphic" in2="effect1_dropShadow_497_918" result="shape"/>
</filter>
<filter id="filter1_d_497_918" x="254.652" y="152.094" width="52.9491" height="74.3939" filterUnits="userSpaceOnUse" color-interpolation-filters="sRGB">
<feFlood flood-opacity="0" result="BackgroundImageFix"/>
<feColorMatrix in="SourceAlpha" type="matrix" values="0 0 0 0 0 0 0 0 0 0 0 0 0 0 0 0 0 0 127 0" result="hardAlpha"/>
<feMorphology radius="1.79765" operator="dilate" in="SourceAlpha" result="effect1_dropShadow_497_918"/>
<feOffset dx="-11.9843" dy="11.9843"/>
<feGaussianBlur stdDeviation="6.59138"/>
<feComposite in2="hardAlpha" operator="out"/>
<feColorMatrix type="matrix" values="0 0 0 0 0.168627 0 0 0 0 0.380392 0 0 0 0 0.819608 0 0 0 0.1 0"/>
<feBlend mode="normal" in2="BackgroundImageFix" result="effect1_dropShadow_497_918"/>
<feBlend mode="normal" in="SourceGraphic" in2="effect1_dropShadow_497_918" result="shape"/>
</filter>
<filter id="filter2_d_497_918" x="304.469" y="147.232" width="170.523" height="297.548" filterUnits="userSpaceOnUse" color-interpolation-filters="sRGB">
<feFlood flood-opacity="0" result="BackgroundImageFix"/>
<feColorMatrix in="SourceAlpha" type="matrix" values="0 0 0 0 0 0 0 0 0 0 0 0 0 0 0 0 0 0 127 0" result="hardAlpha"/>
<feMorphology radius="1.79765" operator="dilate" in="SourceAlpha" result="effect1_dropShadow_497_918"/>
<feOffset dx="-11.9843" dy="11.9843"/>
<feGaussianBlur stdDeviation="6.59138"/>
<feComposite in2="hardAlpha" operator="out"/>
<feColorMatrix type="matrix" values="0 0 0 0 0.168627 0 0 0 0 0.380392 0 0 0 0 0.819608 0 0 0 0.1 0"/>
<feBlend mode="normal" in2="BackgroundImageFix" result="effect1_dropShadow_497_918"/>
<feBlend mode="normal" in="SourceGraphic" in2="effect1_dropShadow_497_918" result="shape"/>
</filter>
<filter id="filter3_bd_497_918" x="175.086" y="-13.9373" width="184.558" height="142.614" filterUnits="userSpaceOnUse" color-interpolation-filters="sRGB">
<feFlood flood-opacity="0" result="BackgroundImageFix"/>
<feGaussianBlur in="BackgroundImageFix" stdDeviation="23.9687"/>
<feComposite in2="SourceAlpha" operator="in" result="effect1_backgroundBlur_497_918"/>
<feColorMatrix in="SourceAlpha" type="matrix" values="0 0 0 0 0 0 0 0 0 0 0 0 0 0 0 0 0 0 127 0" result="hardAlpha"/>
<feMorphology radius="1.79673" operator="dilate" in="SourceAlpha" result="effect2_dropShadow_497_918"/>
<feOffset dx="13.4754" dy="13.4754"/>
<feGaussianBlur stdDeviation="11.2295"/>
<feComposite in2="hardAlpha" operator="out"/>
<feColorMatrix type="matrix" values="0 0 0 0 0.168627 0 0 0 0 0.380392 0 0 0 0 0.819608 0 0 0 0.1 0"/>
<feBlend mode="normal" in2="effect1_backgroundBlur_497_918" result="effect2_dropShadow_497_918"/>
<feBlend mode="normal" in="SourceGraphic" in2="effect2_dropShadow_497_918" result="shape"/>
</filter>
<filter id="filter4_bd_497_918" x="369.086" y="39.0627" width="184.558" height="142.614" filterUnits="userSpaceOnUse" color-interpolation-filters="sRGB">
<feFlood flood-opacity="0" result="BackgroundImageFix"/>
<feGaussianBlur in="BackgroundImageFix" stdDeviation="23.9687"/>
<feComposite in2="SourceAlpha" operator="in" result="effect1_backgroundBlur_497_918"/>
<feColorMatrix in="SourceAlpha" type="matrix" values="0 0 0 0 0 0 0 0 0 0 0 0 0 0 0 0 0 0 127 0" result="hardAlpha"/>
<feMorphology radius="1.79673" operator="dilate" in="SourceAlpha" result="effect2_dropShadow_497_918"/>
<feOffset dx="13.4754" dy="13.4754"/>
<feGaussianBlur stdDeviation="11.2295"/>
<feComposite in2="hardAlpha" operator="out"/>
<feColorMatrix type="matrix" values="0 0 0 0 0.168627 0 0 0 0 0.380392 0 0 0 0 0.819608 0 0 0 0.1 0"/>
<feBlend mode="normal" in2="effect1_backgroundBlur_497_918" result="effect2_dropShadow_497_918"/>
<feBlend mode="normal" in="SourceGraphic" in2="effect2_dropShadow_497_918" result="shape"/>
</filter>
<filter id="filter5_bd_497_918" x="496.086" y="163.063" width="184.558" height="142.614" filterUnits="userSpaceOnUse" color-interpolation-filters="sRGB">
<feFlood flood-opacity="0" result="BackgroundImageFix"/>
<feGaussianBlur in="BackgroundImageFix" stdDeviation="23.9687"/>
<feComposite in2="SourceAlpha" operator="in" result="effect1_backgroundBlur_497_918"/>
<feColorMatrix in="SourceAlpha" type="matrix" values="0 0 0 0 0 0 0 0 0 0 0 0 0 0 0 0 0 0 127 0" result="hardAlpha"/>
<feMorphology radius="1.79673" operator="dilate" in="SourceAlpha" result="effect2_dropShadow_497_918"/>
<feOffset dx="13.4754" dy="13.4754"/>
<feGaussianBlur stdDeviation="11.2295"/>
<feComposite in2="hardAlpha" operator="out"/>
<feColorMatrix type="matrix" values="0 0 0 0 0.168627 0 0 0 0 0.380392 0 0 0 0 0.819608 0 0 0 0.1 0"/>
<feBlend mode="normal" in2="effect1_backgroundBlur_497_918" result="effect2_dropShadow_497_918"/>
<feBlend mode="normal" in="SourceGraphic" in2="effect2_dropShadow_497_918" result="shape"/>
</filter>
<filter id="filter6_bd_497_918" x="-21.4139" y="217.063" width="184.558" height="142.614" filterUnits="userSpaceOnUse" color-interpolation-filters="sRGB">
<feFlood flood-opacity="0" result="BackgroundImageFix"/>
<feGaussianBlur in="BackgroundImageFix" stdDeviation="23.9687"/>
<feComposite in2="SourceAlpha" operator="in" result="effect1_backgroundBlur_497_918"/>
<feColorMatrix in="SourceAlpha" type="matrix" values="0 0 0 0 0 0 0 0 0 0 0 0 0 0 0 0 0 0 127 0" result="hardAlpha"/>
<feMorphology radius="1.79673" operator="dilate" in="SourceAlpha" result="effect2_dropShadow_497_918"/>
<feOffset dx="13.4754" dy="13.4754"/>
<feGaussianBlur stdDeviation="11.2295"/>
<feComposite in2="hardAlpha" operator="out"/>
<feColorMatrix type="matrix" values="0 0 0 0 0.168627 0 0 0 0 0.380392 0 0 0 0 0.819608 0 0 0 0.1 0"/>
<feBlend mode="normal" in2="effect1_backgroundBlur_497_918" result="effect2_dropShadow_497_918"/>
<feBlend mode="normal" in="SourceGraphic" in2="effect2_dropShadow_497_918" result="shape"/>
</filter>
<filter id="filter7_bd_497_918" x="21.5861" y="61.0627" width="184.558" height="142.614" filterUnits="userSpaceOnUse" color-interpolation-filters="sRGB">
<feFlood flood-opacity="0" result="BackgroundImageFix"/>
<feGaussianBlur in="BackgroundImageFix" stdDeviation="23.9687"/>
<feComposite in2="SourceAlpha" operator="in" result="effect1_backgroundBlur_497_918"/>
<feColorMatrix in="SourceAlpha" type="matrix" values="0 0 0 0 0 0 0 0 0 0 0 0 0 0 0 0 0 0 127 0" result="hardAlpha"/>
<feMorphology radius="1.79673" operator="dilate" in="SourceAlpha" result="effect2_dropShadow_497_918"/>
<feOffset dx="13.4754" dy="13.4754"/>
<feGaussianBlur stdDeviation="11.2295"/>
<feComposite in2="hardAlpha" operator="out"/>
<feColorMatrix type="matrix" values="0 0 0 0 0.168627 0 0 0 0 0.380392 0 0 0 0 0.819608 0 0 0 0.1 0"/>
<feBlend mode="normal" in2="effect1_backgroundBlur_497_918" result="effect2_dropShadow_497_918"/>
<feBlend mode="normal" in="SourceGraphic" in2="effect2_dropShadow_497_918" result="shape"/>
</filter>
</defs>
</svg>
