<svg xmlns="http://www.w3.org/2000/svg" xmlns:xlink="http://www.w3.org/1999/xlink" width="1920" zoomAndPan="magnify" viewBox="0 0 1440 809.999993" height="1080" preserveAspectRatio="xMidYMid meet" version="1.0"><defs><g/></defs><path fill="#ef724b" d="M 404.171875 410.0625 C 404.171875 406.261719 404.058594 402.460938 403.828125 398.664062 C 403.597656 394.871094 403.253906 391.082031 402.792969 387.308594 C 402.332031 383.535156 401.757812 379.777344 401.070312 376.035156 C 400.382812 372.296875 399.578125 368.582031 398.664062 364.890625 C 397.75 361.199219 396.722656 357.539062 395.585938 353.910156 C 394.449219 350.28125 393.203125 346.691406 391.847656 343.140625 C 390.492188 339.585938 389.027344 336.078125 387.460938 332.617188 C 385.890625 329.152344 384.21875 325.742188 382.441406 322.378906 C 380.664062 319.019531 378.789062 315.714844 376.8125 312.46875 C 374.832031 309.21875 372.757812 306.035156 370.589844 302.917969 C 368.417969 299.796875 366.152344 296.746094 363.796875 293.761719 C 361.441406 290.78125 358.996094 287.871094 356.460938 285.039062 C 353.929688 282.203125 351.3125 279.453125 348.609375 276.777344 C 345.910156 274.105469 343.128906 271.515625 340.273438 269.011719 C 337.414062 266.507812 334.480469 264.089844 331.476562 261.765625 C 328.472656 259.441406 325.398438 257.207031 322.257812 255.070312 C 319.117188 252.929688 315.914062 250.890625 312.648438 248.949219 C 309.382812 247.003906 306.0625 245.164062 302.683594 243.421875 C 299.308594 241.679688 295.882812 240.046875 292.40625 238.515625 C 288.929688 236.980469 285.410156 235.558594 281.84375 234.242188 C 278.28125 232.921875 274.683594 231.714844 271.046875 230.617188 C 267.410156 229.519531 263.742188 228.535156 260.046875 227.660156 C 256.351562 226.789062 252.628906 226.027344 248.886719 225.378906 C 245.144531 224.730469 241.386719 224.199219 237.609375 223.78125 C 233.835938 223.363281 230.050781 223.058594 226.257812 222.871094 C 222.464844 222.683594 218.667969 222.613281 214.871094 222.65625 C 211.074219 222.703125 207.28125 222.863281 203.492188 223.136719 C 199.703125 223.410156 195.925781 223.800781 192.160156 224.308594 C 188.398438 224.8125 184.652344 225.433594 180.925781 226.167969 C 177.199219 226.898438 173.496094 227.746094 169.820312 228.707031 C 166.148438 229.664062 162.503906 230.734375 158.894531 231.917969 C 155.285156 233.097656 151.710938 234.390625 148.179688 235.789062 C 144.648438 237.1875 141.164062 238.695312 137.722656 240.304688 C 134.28125 241.917969 130.894531 243.632812 127.558594 245.449219 C 124.222656 247.269531 120.945312 249.1875 117.726562 251.207031 C 114.507812 253.222656 111.351562 255.335938 108.261719 257.546875 C 105.171875 259.757812 102.148438 262.0625 99.199219 264.457031 C 96.25 266.851562 93.375 269.332031 90.574219 271.902344 C 87.773438 274.472656 85.054688 277.125 82.417969 279.859375 C 79.777344 282.597656 77.226562 285.410156 74.757812 288.300781 C 72.289062 291.191406 69.914062 294.15625 67.625 297.191406 C 65.339844 300.226562 63.148438 303.332031 61.046875 306.5 C 58.949219 309.671875 56.949219 312.902344 55.046875 316.195312 C 53.144531 319.484375 51.347656 322.832031 49.648438 326.234375 C 47.949219 329.636719 46.355469 333.085938 44.867188 336.585938 C 43.378906 340.082031 41.996094 343.625 40.726562 347.207031 C 39.453125 350.789062 38.289062 354.40625 37.234375 358.0625 C 36.183594 361.714844 35.242188 365.398438 34.410156 369.109375 C 33.582031 372.820312 32.867188 376.554688 32.265625 380.308594 C 31.660156 384.0625 31.175781 387.832031 30.800781 391.617188 C 30.429688 395.402344 30.171875 399.195312 30.027344 402.996094 C 29.886719 406.796875 29.859375 410.597656 29.949219 414.398438 C 30.035156 418.199219 30.242188 421.996094 30.5625 425.785156 C 30.878906 429.574219 31.316406 433.351562 31.863281 437.113281 C 32.414062 440.875 33.078125 444.621094 33.851562 448.339844 C 34.628906 452.0625 35.519531 455.757812 36.519531 459.429688 C 37.523438 463.097656 38.636719 466.730469 39.859375 470.332031 C 41.082031 473.933594 42.410156 477.492188 43.851562 481.011719 C 45.289062 484.53125 46.832031 488.003906 48.484375 491.429688 C 50.132812 494.851562 51.886719 498.226562 53.742188 501.542969 C 55.597656 504.863281 57.550781 508.121094 59.605469 511.320312 C 61.660156 514.519531 63.808594 517.652344 66.050781 520.722656 C 68.296875 523.789062 70.632812 526.785156 73.058594 529.710938 C 75.484375 532.636719 77.996094 535.488281 80.597656 538.257812 C 94.023438 554.875 117.410156 579.886719 138.699219 583.136719 C 147.996094 584.570312 157.273438 584.457031 166.53125 582.800781 C 167.089844 582.90625 167.652344 582.90625 168.210938 582.800781 C 168.691406 582.679688 169.128906 582.46875 169.523438 582.164062 C 172.632812 580.160156 175.929688 578.535156 179.414062 577.285156 C 184.738281 574.972656 180.871094 573.261719 182.15625 571.3125 C 183.441406 569.363281 189.152344 566.113281 190.40625 562.71875 C 191.714844 557.585938 191.957031 552.402344 191.132812 547.167969 C 191.046875 547 190.84375 546.652344 190.550781 546.160156 C 186.171875 538.824219 180.613281 532.53125 173.878906 527.28125 C 165.128906 524.046875 156.847656 519.878906 149.03125 514.785156 C 141.214844 509.691406 134.058594 503.792969 127.5625 497.09375 C 119.332031 488.609375 112.433594 479.152344 106.867188 468.722656 L 106.722656 468.4375 C 105.867188 466.808594 105.042969 465.164062 104.25 463.5 L 104.089844 463.171875 C 102.4375 459.65625 100.945312 456.054688 99.617188 452.371094 L 99.480469 451.945312 C 98.910156 450.34375 98.375 448.726562 97.867188 447.097656 C 97.746094 446.695312 97.628906 446.292969 97.503906 445.890625 C 97.066406 444.429688 96.664062 442.96875 96.285156 441.511719 C 96.175781 441.109375 96.074219 440.707031 95.972656 440.304688 C 95.0625 436.644531 94.316406 432.925781 93.734375 429.144531 C 93.652344 428.65625 93.59375 428.167969 93.527344 427.6875 C 93.335938 426.304688 93.160156 424.914062 93.011719 423.515625 C 92.945312 422.894531 92.886719 422.273438 92.828125 421.644531 C 92.703125 420.308594 92.609375 418.957031 92.527344 417.601562 C 92.527344 417.015625 92.449219 416.433594 92.425781 415.855469 C 92.339844 413.941406 92.28125 412.019531 92.28125 410.085938 C 92.28125 408.042969 92.332031 406 92.429688 403.957031 C 92.53125 401.917969 92.683594 399.878906 92.882812 397.84375 C 93.082031 395.8125 93.332031 393.785156 93.632812 391.761719 C 93.929688 389.738281 94.28125 387.726562 94.679688 385.722656 C 95.074219 383.71875 95.523438 381.722656 96.019531 379.742188 C 96.515625 377.757812 97.058594 375.789062 97.652344 373.835938 C 98.246094 371.878906 98.882812 369.9375 99.570312 368.015625 C 100.261719 366.089844 100.996094 364.183594 101.773438 362.296875 C 102.554688 360.40625 103.382812 358.539062 104.257812 356.691406 C 105.128906 354.84375 106.046875 353.019531 107.007812 351.21875 C 107.972656 349.414062 108.976562 347.636719 110.027344 345.882812 C 111.074219 344.132812 112.167969 342.40625 113.300781 340.707031 C 114.433594 339.007812 115.609375 337.335938 116.824219 335.695312 C 118.042969 334.054688 119.296875 332.441406 120.59375 330.863281 C 121.886719 329.28125 123.21875 327.734375 124.589844 326.222656 C 125.960938 324.707031 127.367188 323.226562 128.8125 321.78125 C 130.253906 320.335938 131.734375 318.925781 133.246094 317.554688 C 134.757812 316.183594 136.304688 314.847656 137.882812 313.550781 C 139.460938 312.253906 141.066406 311 142.707031 309.78125 C 144.347656 308.5625 146.015625 307.386719 147.710938 306.25 C 149.410156 305.117188 151.132812 304.023438 152.882812 302.972656 C 154.636719 301.921875 156.410156 300.914062 158.210938 299.949219 C 160.011719 298.988281 161.832031 298.070312 163.679688 297.195312 C 165.523438 296.320312 167.390625 295.492188 169.277344 294.710938 C 171.160156 293.929688 173.066406 293.195312 174.988281 292.503906 C 176.910156 291.816406 178.847656 291.175781 180.800781 290.582031 C 182.753906 289.988281 184.71875 289.445312 186.699219 288.949219 C 188.679688 288.449219 190.671875 288.003906 192.671875 287.605469 C 194.675781 287.207031 196.6875 286.855469 198.703125 286.558594 C 200.722656 286.257812 202.75 286.007812 204.78125 285.804688 C 206.8125 285.605469 208.847656 285.457031 210.886719 285.355469 C 212.925781 285.253906 214.964844 285.203125 217.003906 285.203125 L 217.421875 285.203125 C 220.214844 285.214844 223.007812 285.316406 225.792969 285.511719 C 228.582031 285.707031 231.359375 285.996094 234.128906 286.382812 C 236.894531 286.765625 239.648438 287.238281 242.382812 287.808594 C 245.121094 288.375 247.832031 289.035156 250.523438 289.785156 C 253.21875 290.539062 255.878906 291.378906 258.515625 292.308594 C 261.152344 293.238281 263.753906 294.257812 266.320312 295.363281 C 268.886719 296.46875 271.414062 297.65625 273.902344 298.933594 C 276.386719 300.207031 278.828125 301.566406 281.226562 303.003906 C 283.621094 304.445312 285.964844 305.964844 288.261719 307.5625 C 290.554688 309.15625 292.792969 310.832031 294.972656 312.578125 C 297.15625 314.328125 299.277344 316.144531 301.335938 318.035156 C 303.394531 319.929688 305.390625 321.886719 307.316406 323.910156 C 309.246094 325.933594 311.105469 328.023438 312.890625 330.171875 C 314.679688 332.324219 316.394531 334.53125 318.035156 336.796875 C 319.675781 339.0625 321.238281 341.378906 322.722656 343.75 C 324.207031 346.121094 325.609375 348.539062 326.929688 351.003906 C 328.253906 353.46875 329.492188 355.972656 330.644531 358.523438 C 331.796875 361.070312 332.863281 363.652344 333.84375 366.273438 C 334.824219 368.894531 335.71875 371.542969 336.519531 374.222656 C 337.320312 376.902344 338.035156 379.609375 338.652344 382.335938 C 339.273438 385.0625 339.804688 387.808594 340.242188 390.574219 C 340.675781 393.335938 341.019531 396.109375 341.269531 398.898438 C 341.519531 401.683594 341.679688 404.476562 341.742188 407.273438 C 341.804688 410.070312 341.773438 412.867188 341.648438 415.660156 C 341.523438 418.457031 341.304688 421.242188 340.992188 424.023438 C 340.679688 426.804688 340.277344 429.570312 339.777344 432.324219 C 339.28125 435.078125 338.691406 437.8125 338.011719 440.523438 C 337.328125 443.238281 336.558594 445.925781 335.695312 448.585938 C 334.835938 451.25 333.886719 453.878906 332.847656 456.476562 C 331.808594 459.074219 330.683594 461.632812 329.476562 464.15625 C 328.265625 466.675781 326.972656 469.15625 325.597656 471.589844 C 324.21875 474.023438 322.765625 476.410156 321.226562 478.746094 C 320.222656 480.273438 319.171875 481.769531 318.105469 483.253906 C 317.492188 484.09375 316.859375 484.902344 316.230469 485.738281 C 315.683594 486.46875 315.152344 487.199219 314.597656 487.871094 C 314.042969 488.542969 313.464844 489.234375 312.898438 489.921875 C 312.21875 490.730469 311.546875 491.542969 310.855469 492.339844 C 310.351562 492.921875 309.828125 493.476562 309.308594 494.046875 C 308.515625 494.921875 307.726562 495.792969 306.910156 496.640625 C 300.65625 503.167969 293.773438 508.945312 286.269531 513.976562 C 278.246094 520.308594 267.035156 529.832031 271.214844 528.640625 C 282.46875 525.449219 278.71875 528.640625 278.71875 528.640625 C 278.71875 528.640625 271.9375 534.367188 269.5 536.878906 C 269.402344 536.964844 269.3125 537.058594 269.230469 537.15625 L 269.148438 537.238281 C 268.789062 537.679688 268.542969 538.175781 268.421875 538.734375 C 268.246094 539.566406 269.753906 539.542969 271.082031 539.65625 L 271.660156 542.21875 C 268.972656 543.859375 262.90625 544.527344 260.769531 546.316406 C 258.203125 548.425781 267.179688 547.71875 267.683594 547.773438 C 268.1875 547.832031 267.917969 548.710938 265.496094 550.089844 C 263.074219 551.46875 265 551.910156 265.683594 552.449219 C 266.371094 552.988281 268.871094 550.929688 269.753906 551.507812 C 270.636719 552.085938 266.53125 553.632812 267.210938 555.390625 C 267.71875 556.707031 272.425781 556.347656 274.808594 556.121094 L 274.949219 556.734375 C 269.011719 560.25 262.722656 562.925781 256.078125 564.769531 C 254.285156 565.089844 254.964844 565.542969 256.464844 565.921875 C 255.546875 565.863281 254.628906 565.863281 253.707031 565.921875 L 257.070312 566.046875 L 257.136719 566.046875 L 257.0625 566.136719 C 256.09375 566.265625 255.121094 566.300781 254.144531 566.238281 C 254.445312 566.304688 254.96875 566.375 254.648438 566.464844 C 255.984375 566.542969 257.3125 566.59375 258.53125 566.542969 L 259.828125 566.464844 L 260.558594 566.527344 C 264.078125 566.699219 267.574219 566.5 271.054688 565.929688 C 274.699219 565.390625 275.050781 564.628906 276.53125 565.527344 C 278.011719 566.425781 273.277344 568.1875 270.601562 568.648438 C 269.140625 568.902344 269.339844 569.238281 270.207031 569.421875 C 269.195312 569.394531 268.203125 569.523438 267.230469 569.808594 C 266.035156 570.203125 266.824219 570.167969 267.917969 570.078125 C 269.011719 569.992188 270.265625 569.808594 270.390625 570 C 270.390625 569.859375 271.117188 569.582031 270.003906 569.667969 L 270.730469 569.5 C 271.492188 569.589844 272.246094 569.570312 273 569.441406 C 273.730469 569.3125 275.40625 568.859375 277.515625 568.265625 L 277.683594 568.996094 L 279.046875 568.507812 C 280.164062 568.070312 281.316406 567.648438 282.484375 567.230469 C 283.648438 566.8125 284.839844 566.398438 286.050781 565.988281 C 287.261719 565.578125 288.449219 565.070312 289.695312 564.601562 L 292.554688 563.5 C 294.261719 562.921875 295.269531 562.664062 296.203125 562.308594 C 295.375 562.804688 294.519531 563.25 293.640625 563.652344 C 292.863281 564.015625 292.058594 564.417969 291.328125 564.761719 C 290.707031 565.035156 290.117188 565.363281 289.558594 565.753906 C 289.460938 565.519531 288.625 565.8125 287.683594 566.207031 C 289.484375 565.578125 288.164062 566.425781 288.414062 566.535156 C 292.402344 565.074219 290.542969 565.410156 291.65625 564.746094 C 292.59375 564.261719 293.566406 563.863281 294.574219 563.558594 L 293.519531 564.214844 C 294.773438 563.542969 296.082031 562.988281 297.433594 562.550781 L 298.097656 562.097656 L 298.273438 562.023438 C 298.828125 561.789062 299.402344 561.585938 299.945312 561.292969 C 299.835938 561.089844 299.476562 561.226562 298.953125 561.46875 C 299.164062 561.316406 299.375 561.167969 299.585938 561.015625 C 298.667969 561.550781 297.695312 561.957031 296.667969 562.234375 L 298.769531 560.941406 C 299.929688 560.445312 301.277344 559.765625 302.640625 559.082031 C 303.011719 559.125 303.332031 559.277344 303.597656 559.539062 L 303.234375 559.738281 L 303.597656 559.546875 C 303.894531 559.855469 304.105469 560.21875 304.226562 560.628906 C 304.316406 560.898438 304.371094 561.175781 304.386719 561.460938 L 303.082031 561.988281 C 302.109375 562.660156 301.140625 563.351562 300.164062 564.007812 C 301.476562 563.191406 302.847656 562.480469 304.277344 561.882812 L 303.648438 562.058594 L 304.378906 561.59375 C 304.378906 562.433594 303.78125 563.175781 302.320312 564.15625 L 301.875 564.449219 L 301.875 564.34375 C 300.890625 564.886719 299.871094 565.339844 298.851562 565.804688 L 295.808594 567.222656 L 295.726562 567.421875 L 298.769531 566.003906 C 299.570312 565.625 300.382812 565.273438 301.167969 564.855469 C 297.957031 566.820312 294.613281 568.523438 291.140625 569.96875 C 288.019531 571.101562 289.164062 569.332031 286.765625 570.109375 C 285.488281 570.515625 283.539062 571.566406 281.535156 572.488281 L 279.734375 573.015625 L 277.929688 573.277344 L 277.105469 573.386719 L 276.273438 573.460938 L 272.914062 573.75 C 272.34375 573.796875 271.773438 573.875 271.183594 573.890625 L 269.410156 573.964844 C 268.214844 574.015625 266.984375 574.09375 265.714844 574.140625 C 264.445312 574.183594 263.109375 574.140625 261.738281 574.210938 L 265.851562 574.210938 C 267.222656 574.167969 268.59375 574.085938 269.957031 574.035156 C 269.0625 574.117188 268.246094 574.242188 267.390625 574.351562 C 266.960938 574.402344 266.515625 574.460938 266.050781 574.496094 L 266.152344 574.496094 L 267.703125 574.421875 L 270.796875 574.277344 L 271.59375 574.277344 L 272.402344 574.199219 L 274.101562 574.042969 L 275.941406 573.882812 C 276.582031 573.824219 277.253906 573.773438 277.96875 573.679688 L 277.894531 573.855469 C 278.097656 573.855469 278.347656 573.855469 278.625 573.796875 C 277.933594 574.058594 277.226562 574.253906 276.5 574.378906 C 273.429688 574.824219 272.679688 575.023438 270.957031 577.164062 C 269.238281 579.300781 269.558594 578.878906 266.296875 578.542969 C 264.839844 578.492188 263.410156 578.667969 262.007812 579.070312 C 260.605469 579.472656 259.296875 580.082031 258.085938 580.894531 C 256.683594 581.859375 260.011719 583.441406 266.109375 582.9375 C 272.207031 582.433594 267.246094 584.714844 274.132812 582.734375 C 281.015625 580.753906 286.152344 580.617188 289.339844 579.515625 C 291.726562 578.355469 294.234375 577.964844 296.859375 578.34375 C 298.632812 578.9375 298.316406 577.089844 300.898438 575.980469 L 301.386719 575.773438 C 304.253906 574.773438 304.933594 575.664062 305.371094 574.203125 L 305.414062 574.09375 L 306.304688 573.679688 L 306.488281 573.589844 L 306.488281 574.695312 C 310.5 572.503906 314.417969 570.167969 318.246094 567.683594 L 318.246094 568.734375 C 320.636719 567.207031 322.949219 565.574219 325.261719 563.945312 C 325.800781 563.621094 326.316406 563.269531 326.816406 562.886719 C 329.792969 560.746094 332.707031 558.519531 335.554688 556.207031 C 338.398438 553.894531 341.175781 551.5 343.882812 549.023438 C 346.585938 546.546875 349.214844 543.992188 351.769531 541.359375 C 354.324219 538.722656 356.796875 536.015625 359.191406 533.238281 C 361.582031 530.457031 363.890625 527.609375 366.117188 524.691406 C 368.339844 521.773438 370.476562 518.792969 372.523438 515.746094 C 374.570312 512.703125 376.527344 509.601562 378.390625 506.4375 C 380.253906 503.277344 382.023438 500.066406 383.695312 496.800781 C 385.371094 493.535156 386.945312 490.222656 388.421875 486.863281 C 389.898438 483.503906 391.273438 480.101562 392.550781 476.660156 C 393.824219 473.21875 395 469.746094 396.066406 466.234375 C 397.136719 462.722656 398.101562 459.183594 398.960938 455.613281 C 399.820312 452.046875 400.574219 448.457031 401.222656 444.84375 C 401.867188 441.230469 402.40625 437.601562 402.839844 433.957031 C 403.269531 430.3125 403.59375 426.65625 403.808594 422.992188 C 404.023438 419.328125 404.132812 415.660156 404.128906 411.992188 C 404.128906 411.632812 404.128906 411.261719 404.128906 410.902344 C 404.128906 410.546875 404.128906 410.363281 404.128906 410.09375 M 306.171875 573.503906 L 305.523438 573.867188 C 305.78125 573.332031 306.109375 572.847656 306.507812 572.40625 L 306.507812 573.371094 L 306.179688 573.539062 " fill-opacity="1" fill-rule="nonzero"/><g fill="#000000" fill-opacity="1"><g transform="translate(426.782289, 500.969012)"><g><path d="M 169.671875 -145.59375 L 169.671875 -24.359375 C 169.671875 2.347656 162.722656 22.191406 148.828125 35.171875 C 134.941406 48.160156 114.648438 54.65625 87.953125 54.65625 C 73.878906 54.65625 60.523438 52.941406 47.890625 49.515625 C 35.265625 46.085938 24.800781 41.128906 16.5 34.640625 L 33.28125 4.328125 C 39.414062 9.378906 47.171875 13.394531 56.546875 16.375 C 65.929688 19.351562 75.316406 20.84375 84.703125 20.84375 C 99.316406 20.84375 110.09375 17.546875 117.03125 10.953125 C 123.976562 4.367188 127.453125 -5.59375 127.453125 -18.9375 L 127.453125 -25.171875 C 116.453125 -13.078125 101.117188 -7.03125 81.453125 -7.03125 C 68.097656 -7.03125 55.875 -9.960938 44.78125 -15.828125 C 33.6875 -21.691406 24.890625 -29.945312 18.390625 -40.59375 C 11.898438 -51.238281 8.65625 -63.503906 8.65625 -77.390625 C 8.65625 -91.285156 11.898438 -103.550781 18.390625 -114.1875 C 24.890625 -124.832031 33.6875 -133.085938 44.78125 -138.953125 C 55.875 -144.816406 68.097656 -147.75 81.453125 -147.75 C 102.554688 -147.75 118.613281 -140.804688 129.625 -126.921875 L 129.625 -145.59375 Z M 89.84375 -41.671875 C 101.03125 -41.671875 110.1875 -44.960938 117.3125 -51.546875 C 124.4375 -58.128906 128 -66.742188 128 -77.390625 C 128 -88.035156 124.4375 -96.648438 117.3125 -103.234375 C 110.1875 -109.816406 101.03125 -113.109375 89.84375 -113.109375 C 78.65625 -113.109375 69.453125 -109.816406 62.234375 -103.234375 C 55.023438 -96.648438 51.421875 -88.035156 51.421875 -77.390625 C 51.421875 -66.742188 55.023438 -58.128906 62.234375 -51.546875 C 69.453125 -44.960938 78.65625 -41.671875 89.84375 -41.671875 Z M 89.84375 -41.671875 "/></g></g></g><g fill="#000000" fill-opacity="1"><g transform="translate(616.204013, 500.969012)"><g><path d="M 19.484375 -145.59375 L 61.703125 -145.59375 L 61.703125 0 L 19.484375 0 Z M 40.59375 -165.890625 C 32.84375 -165.890625 26.53125 -168.140625 21.65625 -172.640625 C 16.78125 -177.148438 14.34375 -182.742188 14.34375 -189.421875 C 14.34375 -196.097656 16.78125 -201.691406 21.65625 -206.203125 C 26.53125 -210.710938 32.84375 -212.96875 40.59375 -212.96875 C 48.351562 -212.96875 54.664062 -210.800781 59.53125 -206.46875 C 64.40625 -202.144531 66.84375 -196.734375 66.84375 -190.234375 C 66.84375 -183.203125 64.40625 -177.382812 59.53125 -172.78125 C 54.664062 -168.1875 48.351562 -165.890625 40.59375 -165.890625 Z M 40.59375 -165.890625 "/></g></g></g><g fill="#000000" fill-opacity="1"><g transform="translate(697.655351, 500.969012)"><g><path d="M 88.765625 2.171875 C 73.429688 2.171875 59.671875 -1.03125 47.484375 -7.4375 C 35.304688 -13.84375 25.789062 -22.726562 18.9375 -34.09375 C 12.082031 -45.457031 8.65625 -58.359375 8.65625 -72.796875 C 8.65625 -87.222656 12.082031 -100.117188 18.9375 -111.484375 C 25.789062 -122.859375 35.304688 -131.742188 47.484375 -138.140625 C 59.671875 -144.546875 73.429688 -147.75 88.765625 -147.75 C 104.097656 -147.75 117.804688 -144.546875 129.890625 -138.140625 C 141.972656 -131.742188 151.441406 -122.859375 158.296875 -111.484375 C 165.160156 -100.117188 168.59375 -87.222656 168.59375 -72.796875 C 168.59375 -58.359375 165.160156 -45.457031 158.296875 -34.09375 C 151.441406 -22.726562 141.972656 -13.84375 129.890625 -7.4375 C 117.804688 -1.03125 104.097656 2.171875 88.765625 2.171875 Z M 88.765625 -32.46875 C 99.585938 -32.46875 108.46875 -36.117188 115.40625 -43.421875 C 122.351562 -50.734375 125.828125 -60.523438 125.828125 -72.796875 C 125.828125 -85.066406 122.351562 -94.851562 115.40625 -102.15625 C 108.46875 -109.457031 99.585938 -113.109375 88.765625 -113.109375 C 77.929688 -113.109375 69 -109.457031 61.96875 -102.15625 C 54.9375 -94.851562 51.421875 -85.066406 51.421875 -72.796875 C 51.421875 -60.523438 54.9375 -50.734375 61.96875 -43.421875 C 69 -36.117188 77.929688 -32.46875 88.765625 -32.46875 Z M 88.765625 -32.46875 "/></g></g></g><g fill="#000000" fill-opacity="1"><g transform="translate(874.899974, 500.969012)"><g><path d="M 113.390625 -7.03125 C 109.234375 -3.96875 104.132812 -1.664062 98.09375 -0.125 C 92.050781 1.40625 85.691406 2.171875 79.015625 2.171875 C 61.703125 2.171875 48.304688 -2.25 38.828125 -11.09375 C 29.359375 -19.9375 24.625 -32.925781 24.625 -50.0625 L 24.625 -109.875 L 2.171875 -109.875 L 2.171875 -142.34375 L 24.625 -142.34375 L 24.625 -177.796875 L 66.84375 -177.796875 L 66.84375 -142.34375 L 103.109375 -142.34375 L 103.109375 -109.875 L 66.84375 -109.875 L 66.84375 -50.609375 C 66.84375 -44.472656 68.421875 -39.734375 71.578125 -36.390625 C 74.734375 -33.054688 79.195312 -31.390625 84.96875 -31.390625 C 91.644531 -31.390625 97.328125 -33.191406 102.015625 -36.796875 Z M 113.390625 -7.03125 "/></g></g></g><g fill="#000000" fill-opacity="1"><g transform="translate(992.612097, 500.969012)"><g><path d="M 113.390625 -7.03125 C 109.234375 -3.96875 104.132812 -1.664062 98.09375 -0.125 C 92.050781 1.40625 85.691406 2.171875 79.015625 2.171875 C 61.703125 2.171875 48.304688 -2.25 38.828125 -11.09375 C 29.359375 -19.9375 24.625 -32.925781 24.625 -50.0625 L 24.625 -109.875 L 2.171875 -109.875 L 2.171875 -142.34375 L 24.625 -142.34375 L 24.625 -177.796875 L 66.84375 -177.796875 L 66.84375 -142.34375 L 103.109375 -142.34375 L 103.109375 -109.875 L 66.84375 -109.875 L 66.84375 -50.609375 C 66.84375 -44.472656 68.421875 -39.734375 71.578125 -36.390625 C 74.734375 -33.054688 79.195312 -31.390625 84.96875 -31.390625 C 91.644531 -31.390625 97.328125 -33.191406 102.015625 -36.796875 Z M 113.390625 -7.03125 "/></g></g></g><g fill="#000000" fill-opacity="1"><g transform="translate(1110.32422, 500.969012)"><g><path d="M 166.15625 -145.59375 L 166.15625 0 L 126.109375 0 L 126.109375 -17.3125 C 120.515625 -11 113.835938 -6.171875 106.078125 -2.828125 C 98.316406 0.503906 89.925781 2.171875 80.90625 2.171875 C 61.789062 2.171875 46.640625 -3.328125 35.453125 -14.328125 C 24.265625 -25.335938 18.671875 -41.671875 18.671875 -63.328125 L 18.671875 -145.59375 L 60.890625 -145.59375 L 60.890625 -69.546875 C 60.890625 -46.097656 70.722656 -34.375 90.390625 -34.375 C 100.484375 -34.375 108.597656 -37.664062 114.734375 -44.25 C 120.867188 -50.832031 123.9375 -60.617188 123.9375 -73.609375 L 123.9375 -145.59375 Z M 166.15625 -145.59375 "/></g></g></g><g fill="#000000" fill-opacity="1"><g transform="translate(1296.228089, 500.969012)"><g><path d="M 68.46875 2.171875 C 56.375 2.171875 44.554688 0.679688 33.015625 -2.296875 C 21.472656 -5.273438 12.269531 -9.019531 5.40625 -13.53125 L 19.484375 -43.84375 C 25.972656 -39.6875 33.816406 -36.300781 43.015625 -33.6875 C 52.222656 -31.070312 61.25 -29.765625 70.09375 -29.765625 C 87.945312 -29.765625 96.875 -34.1875 96.875 -43.03125 C 96.875 -47.175781 94.4375 -50.148438 89.5625 -51.953125 C 84.695312 -53.753906 77.210938 -55.289062 67.109375 -56.5625 C 55.203125 -58.363281 45.367188 -60.4375 37.609375 -62.78125 C 29.859375 -65.125 23.140625 -69.269531 17.453125 -75.21875 C 11.773438 -81.175781 8.9375 -89.660156 8.9375 -100.671875 C 8.9375 -109.867188 11.59375 -118.03125 16.90625 -125.15625 C 22.226562 -132.28125 29.984375 -137.828125 40.171875 -141.796875 C 50.367188 -145.765625 62.414062 -147.75 76.3125 -147.75 C 86.59375 -147.75 96.828125 -146.617188 107.015625 -144.359375 C 117.210938 -142.109375 125.648438 -139 132.328125 -135.03125 L 118.25 -105 C 105.445312 -112.21875 91.46875 -115.828125 76.3125 -115.828125 C 67.289062 -115.828125 60.523438 -114.5625 56.015625 -112.03125 C 51.503906 -109.507812 49.25 -106.265625 49.25 -102.296875 C 49.25 -97.785156 51.679688 -94.625 56.546875 -92.8125 C 61.421875 -91.007812 69.179688 -89.296875 79.828125 -87.671875 C 91.734375 -85.691406 101.472656 -83.570312 109.046875 -81.3125 C 116.628906 -79.0625 123.21875 -74.957031 128.8125 -69 C 134.40625 -63.050781 137.203125 -54.753906 137.203125 -44.109375 C 137.203125 -35.085938 134.492188 -27.054688 129.078125 -20.015625 C 123.671875 -12.984375 115.78125 -7.523438 105.40625 -3.640625 C 95.03125 0.234375 82.71875 2.171875 68.46875 2.171875 Z M 68.46875 2.171875 "/></g></g></g></svg>