<svg width="120" height="19" viewBox="0 0 120 19" fill="none" xmlns="http://www.w3.org/2000/svg">
<g clip-path="url(#clip0_1117_1714)">
<path d="M9.48948 0.567823C9.71732 1.01264 9.92345 1.41768 10.1658 1.88782C10.7335 1.28026 11.276 0.698014 11.8799 0.054292C12.1584 0.860753 12.3428 1.62743 12.4658 2.47006C12.9215 2.20606 13.3518 1.96014 13.8473 1.67445V3.23312C14.5272 3.01614 15.16 2.81 15.7929 2.60748C15.9448 2.56047 16.1039 2.40135 16.2522 2.52069C16.4149 2.6545 16.2522 2.82809 16.2088 2.97274C16.0099 3.59115 15.7965 4.20594 15.5868 4.83881C16.1039 5.00155 16.574 4.69054 17.1274 4.86413C16.8344 5.31618 16.5596 5.74292 16.2486 6.22752C16.9538 6.35771 17.6264 6.47705 18.2991 6.60724C18.4365 6.63256 18.6246 6.60724 18.6788 6.78806C18.7258 6.9508 18.5631 7.01228 18.469 7.09907C17.97 7.56559 17.5071 8.07189 16.8959 8.46246C17.2937 8.82411 17.7675 8.97238 18.2557 9.20383C17.8506 9.72098 17.1237 9.66312 16.7368 10.1586C17.4311 10.5166 17.9555 11.0554 18.5124 11.5509C18.6173 11.6413 18.733 11.7389 18.6933 11.8872C18.6463 12.0644 18.469 11.9921 18.3461 12.0174C17.7168 12.1404 17.0876 12.2633 16.3932 12.4007C16.6536 12.8022 16.8851 13.1566 17.1563 13.5761C16.574 13.6593 16.0677 13.511 15.5289 13.4893C15.811 14.3138 16.0858 15.1167 16.4005 16.0316C15.4747 15.8291 14.7044 15.5651 13.9015 15.2469C13.7098 15.7206 13.9521 16.1835 13.9124 16.7079C13.3446 16.4873 12.9034 16.1654 12.379 15.7929C12.4188 16.7802 12.2452 17.6626 11.9125 18.6282C11.3013 17.9483 10.7516 17.3372 10.1549 16.6754C9.93792 17.1274 9.74263 17.5324 9.48586 18.0677C9.17485 17.5144 8.92894 17.0768 8.62877 16.5415C8.31415 17.2721 7.7753 17.6879 7.33771 18.1906C7.22199 18.3208 7.12796 18.5342 6.92544 18.4944C6.68314 18.4474 6.7193 18.1834 6.67952 18.0134C6.53848 17.3769 6.3215 16.7549 6.32873 15.9955C5.87306 16.292 5.49696 16.5343 5.07745 16.8092C4.94003 16.2595 5.22211 15.7966 5.07383 15.2939C4.28546 15.5506 3.50793 15.8038 2.63999 16.0895C2.76294 15.1637 3.13905 14.3934 3.42836 13.5544H1.86246C2.14092 13.1204 2.38322 12.7371 2.6436 12.3357C1.89862 12.1982 1.18257 12.0644 0.466518 11.9306C0.33271 11.9053 0.184437 11.8908 0.130191 11.7462C0.0650955 11.5762 0.231451 11.5111 0.325478 11.4315C0.875173 10.9506 1.43572 10.4804 2.01435 9.98498C1.58761 9.69566 1.06323 9.60887 0.650955 9.2183C1.08131 9.01578 1.46103 8.83857 1.89862 8.63244C1.2549 8.03573 0.658188 7.48603 0 6.87847C0.947502 6.54938 1.83352 6.39387 2.81357 6.40111C2.58212 5.81886 2.05413 5.44637 1.895 4.8569C2.4013 4.67607 2.87867 5.0341 3.35965 4.8135C3.09927 4.05767 2.8425 3.30545 2.53149 2.39411C3.48984 2.71598 4.30715 2.99082 5.19679 3.28737C5.12808 2.73406 5.07022 2.24584 5.00512 1.72146C5.53674 1.81187 5.85136 2.16266 6.29618 2.40858C6.48424 1.60574 6.66506 0.846288 6.86396 0.00366211C7.51853 0.640152 8.15141 1.19346 8.59984 1.95653C9.02658 1.56957 9.02296 0.983712 9.48948 0.57144V0.567823ZM9.40269 14.7659C12.5237 14.755 15.0551 12.2706 15.0515 9.22553C15.0515 6.22752 12.5237 3.75027 9.47502 3.76112C6.31427 3.77197 3.86957 6.16966 3.87318 9.26169C3.8768 12.285 6.37936 14.7767 9.39907 14.7659H9.40269Z" fill="#404040"/>
<path d="M30.8553 5.826C30.7106 5.75729 30.5226 5.67772 30.2839 5.58731C30.0452 5.4969 29.7812 5.41373 29.481 5.33417C29.1809 5.2546 28.859 5.18951 28.5082 5.13526C28.1574 5.08102 27.7994 5.0557 27.4305 5.0557C27.134 5.0557 26.8845 5.06655 26.6747 5.08463C26.4649 5.10271 26.2914 5.12803 26.1503 5.15696C26.0093 5.18589 25.8972 5.22206 25.814 5.25822C25.7308 5.29438 25.6657 5.33778 25.6223 5.37756C25.5789 5.41734 25.55 5.45712 25.5355 5.50052C25.5211 5.54392 25.5174 5.57647 25.5174 5.61263C25.5174 5.72474 25.5717 5.81877 25.6838 5.90194C25.7959 5.98512 25.9442 6.05745 26.1359 6.12254C26.3275 6.18764 26.5517 6.24912 26.8049 6.30337C27.058 6.35761 27.3293 6.41909 27.615 6.48057C27.9007 6.54205 28.1972 6.60714 28.501 6.67947C28.8048 6.7518 29.1013 6.83498 29.387 6.93262C29.6727 7.03027 29.9439 7.13876 30.1971 7.26895C30.4502 7.39914 30.6745 7.5438 30.8661 7.71377C31.0578 7.88374 31.2097 8.07903 31.3182 8.29963C31.4267 8.52023 31.4845 8.77338 31.4845 9.05546C31.4845 9.42072 31.4194 9.73535 31.2892 9.99573C31.1591 10.2561 30.9891 10.4803 30.7721 10.6575C30.5551 10.8347 30.3056 10.983 30.0235 11.0915C29.7414 11.2 29.4413 11.2832 29.1302 11.3447C28.8192 11.4061 28.5046 11.4423 28.1864 11.4604C27.8681 11.4785 27.5643 11.4893 27.275 11.4893C26.5228 11.4893 25.8285 11.4278 25.1884 11.3049C24.5482 11.1819 23.9841 11.0264 23.4922 10.842V9.02653C23.9985 9.30499 24.5736 9.52559 25.2209 9.68472C25.8682 9.84384 26.559 9.9234 27.2967 9.9234C27.7307 9.9234 28.0851 9.9017 28.3599 9.85469C28.6348 9.80768 28.8482 9.74981 29.0037 9.67748C29.1592 9.60516 29.2641 9.52559 29.3183 9.44242C29.3725 9.35924 29.4015 9.27606 29.4015 9.20012C29.4015 9.07716 29.3472 8.97228 29.2351 8.88187C29.123 8.79146 28.9747 8.7119 28.7831 8.64319C28.5914 8.57448 28.3672 8.513 28.114 8.45513C27.8609 8.39727 27.5897 8.33941 27.304 8.28516C27.0183 8.23092 26.7253 8.16582 26.4215 8.10073C26.1178 8.03563 25.8248 7.95607 25.5391 7.86566C25.2534 7.77525 24.9822 7.67037 24.7291 7.55103C24.4759 7.43169 24.2517 7.29065 24.06 7.12429C23.8684 6.95794 23.7165 6.76988 23.608 6.5529C23.4995 6.33591 23.4416 6.08638 23.4416 5.8043C23.4416 5.46797 23.4995 5.17866 23.6188 4.93636C23.7382 4.69406 23.8973 4.48431 24.0962 4.31434C24.2951 4.14436 24.5302 4.00332 24.7942 3.89845C25.0582 3.79357 25.3366 3.70678 25.6259 3.64891C25.9153 3.59105 26.2118 3.54765 26.512 3.52596C26.8121 3.50426 27.0942 3.49341 27.3618 3.49341C27.6584 3.49341 27.9585 3.50787 28.2732 3.53681C28.5878 3.56574 28.8916 3.60913 29.1953 3.65976C29.4991 3.71039 29.7884 3.77549 30.0705 3.8442C30.3526 3.91291 30.613 3.98886 30.8517 4.0648V5.82238L30.8553 5.826Z" fill="#404040"/>
<path d="M42.1132 9.79681C41.9251 10.1331 41.643 10.4261 41.2669 10.6756C40.8908 10.9251 40.4207 11.124 39.8602 11.2687C39.2996 11.4133 38.6414 11.4857 37.8892 11.4857C37.137 11.4857 36.4788 11.4133 35.911 11.2687C35.3432 11.124 34.8731 10.9251 34.497 10.6756C34.1209 10.4261 33.8388 10.1331 33.6508 9.79681C33.4627 9.46048 33.3687 9.10245 33.3687 8.72273V3.68506H35.4156V7.9886C35.4156 8.24175 35.4481 8.48405 35.5132 8.71188C35.5783 8.93971 35.6977 9.135 35.8785 9.30497C36.0593 9.47494 36.3088 9.60875 36.6307 9.71001C36.9526 9.81127 37.3721 9.85828 37.8892 9.85828C38.4064 9.85828 38.8186 9.80766 39.1405 9.71001C39.4624 9.61237 39.7119 9.47494 39.8891 9.30497C40.0663 9.135 40.1892 8.9361 40.2507 8.71188C40.3122 8.48766 40.3448 8.24536 40.3448 7.9886V3.68506H42.3953V8.72273C42.3953 9.10245 42.3012 9.46048 42.1132 9.79681Z" fill="#404040"/>
<path d="M51.8956 11.2832L46.7675 6.06105V11.2832H44.717V3.68506H46.9447L52.0764 8.92887V3.68506H54.1161V11.2832H51.892H51.8956Z" fill="#404040"/>
<path d="M58.5498 5.30521V6.62521H63.4898V8.24536H58.5498V11.2832H56.4993V3.68506H63.7611V5.30521H58.5534H58.5498Z" fill="#404040"/>
<path d="M65.5114 11.2832V3.68506H67.5619V9.6196H73.1095V11.2832H65.5114Z" fill="#404040"/>
<path d="M84.5844 7.48955C84.5844 8.14051 84.4651 8.71913 84.2264 9.2182C83.9877 9.71726 83.6441 10.1368 83.1993 10.4695C82.7545 10.8022 82.212 11.059 81.5756 11.2289C80.9391 11.3989 80.2266 11.4857 79.431 11.4857C78.6354 11.4857 77.923 11.3989 77.2829 11.2289C76.6428 11.059 76.1003 10.8058 75.6482 10.4695C75.1962 10.1332 74.8526 9.71726 74.6103 9.2182C74.368 8.71913 74.2451 8.14412 74.2451 7.48955C74.2451 6.83498 74.368 6.25997 74.6103 5.7609C74.8526 5.26184 75.1998 4.84233 75.6482 4.50962C76.0967 4.17691 76.6428 3.92015 77.2829 3.75017C77.923 3.5802 78.639 3.49341 79.431 3.49341C80.223 3.49341 80.9391 3.5802 81.5756 3.75017C82.212 3.92015 82.7509 4.1733 83.1993 4.50962C83.6478 4.84595 83.9877 5.26184 84.2264 5.7609C84.4651 6.25997 84.5844 6.83498 84.5844 7.48955ZM82.5122 7.48955C82.5122 7.20747 82.4688 6.92177 82.3784 6.63969C82.288 6.35761 82.1289 6.10446 81.8974 5.88024C81.666 5.65603 81.3513 5.47159 80.9535 5.33417C80.5557 5.19674 80.0494 5.12441 79.431 5.12441C79.0187 5.12441 78.6535 5.15696 78.3425 5.22206C78.0315 5.28715 77.7566 5.37756 77.5288 5.48967C77.3009 5.60178 77.1093 5.7392 76.9538 5.89109C76.7983 6.04298 76.6753 6.20934 76.5849 6.38293C76.4945 6.55651 76.4258 6.74095 76.3896 6.92901C76.3534 7.11706 76.3317 7.30511 76.3317 7.48955C76.3317 7.67399 76.3498 7.86566 76.3896 8.06095C76.4294 8.25623 76.4945 8.43705 76.5849 8.61064C76.6753 8.78423 76.8019 8.95058 76.9538 9.09886C77.1057 9.24713 77.3009 9.38094 77.5288 9.49305C77.7566 9.60516 78.0278 9.69557 78.3425 9.75705C78.6571 9.81852 79.0187 9.85469 79.431 9.85469C80.0458 9.85469 80.5521 9.78598 80.9535 9.64494C81.355 9.5039 81.666 9.32307 81.8974 9.09886C82.1289 8.87464 82.288 8.62149 82.3784 8.33941C82.4688 8.05733 82.5122 7.77525 82.5122 7.48955Z" fill="#404040"/>
<path d="M93.781 3.68506L95.723 8.96141L97.8241 3.68506H99.9542L96.9019 11.2832H94.6236L92.6382 6.17315L90.66 11.2832H88.3816L85.3221 3.68506H87.4558L89.5136 8.8493L91.499 3.68506H93.7846H93.781Z" fill="#404040"/>
<path d="M101.26 11.2832V3.68506H108.952V5.30521H103.368V6.56011H108.666V8.18027H103.368V9.663H109.031V11.2832H101.263H101.26Z" fill="#404040"/>
<path d="M113.06 11.2832H111.01V3.68506H116.152C116.705 3.68506 117.176 3.74292 117.559 3.85503C117.942 3.96714 118.257 4.12988 118.499 4.34325C118.741 4.55662 118.915 4.80615 119.024 5.10269C119.132 5.39924 119.186 5.73195 119.186 6.09359C119.186 6.41545 119.143 6.69392 119.053 6.9326C118.962 7.17129 118.839 7.37742 118.687 7.55101C118.535 7.7246 118.358 7.86564 118.152 7.98498C117.946 8.10432 117.736 8.20197 117.512 8.27791L120 11.2795H117.599L115.299 8.48043H113.06V11.2795V11.2832ZM117.114 6.08636C117.114 5.93809 117.096 5.81513 117.056 5.71025C117.016 5.60538 116.951 5.5222 116.854 5.4571C116.756 5.39201 116.629 5.34499 116.47 5.31606C116.311 5.28713 116.109 5.27267 115.87 5.27267H113.06V6.90005H115.87C116.109 6.90005 116.311 6.88559 116.47 6.85666C116.629 6.82773 116.76 6.78071 116.854 6.71562C116.948 6.65052 117.016 6.56734 117.056 6.46247C117.096 6.35759 117.114 6.23463 117.114 6.08636Z" fill="#404040"/>
<path d="M26.9134 17.2575C26.7941 17.3009 26.6711 17.3371 26.5409 17.366C26.4107 17.3949 26.2769 17.4203 26.1323 17.4383C25.9876 17.4564 25.8357 17.4636 25.6657 17.4636C25.4596 17.4636 25.2607 17.4456 25.069 17.413C24.8774 17.3805 24.7001 17.3298 24.5338 17.2611C24.3674 17.1924 24.2192 17.1092 24.0854 17.008C23.9515 16.9067 23.8358 16.791 23.7418 16.6536C23.6478 16.5161 23.5718 16.3679 23.5212 16.2015C23.4706 16.0352 23.4453 15.8507 23.4453 15.6482C23.4453 15.4457 23.4706 15.2649 23.5212 15.0949C23.5718 14.9249 23.6478 14.7766 23.7418 14.6428C23.8358 14.509 23.9515 14.3897 24.0854 14.2884C24.2192 14.1872 24.3674 14.104 24.5338 14.0353C24.7001 13.9666 24.8774 13.9159 25.0654 13.8834C25.2535 13.8508 25.456 13.8328 25.6657 13.8328C25.8321 13.8328 25.9876 13.84 26.1323 13.8581C26.2769 13.8762 26.4107 13.8979 26.5409 13.9304C26.6711 13.963 26.7941 13.9955 26.9134 14.0389C27.0327 14.0823 27.1557 14.1257 27.275 14.1763V14.5597C27.1774 14.4982 27.0761 14.4403 26.964 14.3861C26.8519 14.3318 26.7326 14.2848 26.606 14.245C26.4758 14.2053 26.342 14.1727 26.1937 14.1474C26.0491 14.1221 25.8899 14.1112 25.7236 14.1112C25.3873 14.1112 25.0943 14.1474 24.8484 14.2197C24.6025 14.292 24.4 14.3969 24.2372 14.5307C24.0781 14.6645 23.9588 14.8237 23.8792 15.0153C23.7997 15.207 23.7635 15.4168 23.7635 15.6518C23.7635 15.8869 23.8033 16.0966 23.8792 16.2847C23.9552 16.4727 24.0745 16.6355 24.2372 16.7657C24.3964 16.8995 24.6025 17.0007 24.8484 17.0731C25.0943 17.1454 25.3873 17.1816 25.7236 17.1816C25.8899 17.1816 26.0491 17.1707 26.1973 17.1454C26.3456 17.1201 26.4867 17.0912 26.6168 17.0478C26.747 17.008 26.8664 16.961 26.9749 16.9067C27.0834 16.8525 27.1846 16.7982 27.275 16.7367V17.1165C27.1521 17.1671 27.0327 17.2141 26.9134 17.2575Z" fill="#404040"/>
<path d="M32.4212 15.6482C32.4212 15.9628 32.3633 16.2341 32.2512 16.4619C32.1391 16.6897 31.98 16.8778 31.7847 17.0261C31.5858 17.1743 31.3507 17.2828 31.0831 17.3552C30.8119 17.4275 30.5226 17.4636 30.2116 17.4636C29.9006 17.4636 29.604 17.4275 29.3328 17.3552C29.0616 17.2828 28.8265 17.1743 28.624 17.0261C28.4251 16.8778 28.2659 16.6897 28.1538 16.4619C28.0417 16.2341 27.9839 15.9628 27.9839 15.6482C27.9839 15.4385 28.0092 15.2504 28.0634 15.0804C28.1177 14.9105 28.19 14.7586 28.284 14.6211C28.378 14.4873 28.4938 14.368 28.6276 14.2703C28.7614 14.1727 28.9133 14.0895 29.0796 14.0244C29.246 13.9593 29.4232 13.9123 29.6112 13.8798C29.8029 13.8472 30.0018 13.8328 30.208 13.8328C30.519 13.8328 30.8119 13.8689 31.0795 13.9413C31.3507 14.0136 31.5822 14.1221 31.7811 14.2703C31.98 14.4186 32.1355 14.6067 32.2476 14.8345C32.3597 15.0623 32.4176 15.3336 32.4176 15.6482H32.4212ZM32.0957 15.6482C32.0957 15.3987 32.0559 15.1817 31.9764 14.99C31.8968 14.7983 31.7775 14.6392 31.6184 14.509C31.4592 14.3788 31.2639 14.2812 31.0289 14.2125C30.7938 14.1438 30.519 14.1112 30.208 14.1112C29.8969 14.1112 29.6221 14.1438 29.387 14.2125C29.1483 14.2812 28.9531 14.3788 28.7903 14.509C28.6312 14.6392 28.5082 14.7983 28.4287 14.99C28.3455 15.1817 28.3057 15.3987 28.3057 15.6446C28.3057 15.8905 28.3455 16.1111 28.4287 16.3028C28.5119 16.4944 28.6312 16.6536 28.7903 16.7838C28.9494 16.914 29.1483 17.0116 29.387 17.0803C29.6257 17.149 29.8969 17.1816 30.208 17.1816C30.519 17.1816 30.7938 17.149 31.0289 17.0803C31.2639 17.0116 31.4592 16.914 31.6184 16.7838C31.7775 16.6536 31.8968 16.4944 31.9764 16.3028C32.0559 16.1111 32.0957 15.8941 32.0957 15.6446V15.6482Z" fill="#404040"/>
<path d="M33.6725 15.8978V17.395H33.3542V13.8943H35.0974C35.365 13.8943 35.5928 13.916 35.7809 13.9558C35.9689 13.9955 36.128 14.0606 36.2474 14.1438C36.3667 14.227 36.4571 14.3319 36.515 14.4584C36.5729 14.585 36.5982 14.7297 36.5982 14.8997C36.5982 15.16 36.5295 15.3698 36.392 15.5289C36.2546 15.688 36.034 15.7929 35.7266 15.8508L36.92 17.395H36.5186L35.3903 15.8869C35.3433 15.8869 35.2926 15.8942 35.2456 15.8942C35.1986 15.8942 35.1444 15.8942 35.0937 15.8942H33.6689L33.6725 15.8978ZM36.2727 14.9033C36.2727 14.755 36.2474 14.632 36.1931 14.5416C36.1389 14.4476 36.0557 14.3789 35.9364 14.3246C35.817 14.274 35.6615 14.2378 35.4699 14.2198C35.2782 14.2017 35.0395 14.1945 34.761 14.1945H33.6761V15.6012H34.7538C35.0359 15.6012 35.2709 15.594 35.4662 15.5759C35.6615 15.5578 35.817 15.5253 35.9364 15.4783C36.0557 15.4276 36.1425 15.3589 36.1968 15.2685C36.251 15.1781 36.2763 15.0552 36.2763 14.9069L36.2727 14.9033Z" fill="#404040"/>
<path d="M41.1151 14.972C41.1151 15.1456 41.0861 15.3011 41.0283 15.4349C40.9704 15.5687 40.8836 15.6808 40.7606 15.7748C40.6377 15.8689 40.4822 15.9339 40.2869 15.981C40.0916 16.028 39.8602 16.0497 39.5889 16.0497H38.0158V17.395H37.6975V13.8943H39.5889C39.8602 13.8943 40.0916 13.916 40.2869 13.963C40.4822 14.01 40.6377 14.0787 40.7606 14.1691C40.8836 14.2595 40.974 14.3717 41.0283 14.5055C41.0825 14.6393 41.1151 14.7948 41.1151 14.9684V14.972ZM40.7896 14.972C40.7896 14.8056 40.7606 14.6718 40.7064 14.5706C40.6522 14.4693 40.5654 14.3897 40.4496 14.3355C40.3339 14.2812 40.1893 14.2451 40.0157 14.2234C39.8385 14.2053 39.6323 14.1945 39.39 14.1945H38.0194V15.7531H39.39C39.4841 15.7531 39.5817 15.7531 39.6902 15.7531C39.7951 15.7531 39.8999 15.7495 40.0048 15.7387C40.1097 15.7278 40.2073 15.7097 40.3014 15.6808C40.3954 15.6519 40.4786 15.6085 40.5509 15.5506C40.6232 15.4927 40.6811 15.4168 40.7245 15.3228C40.7679 15.2287 40.7896 15.113 40.7896 14.9684V14.972Z" fill="#404040"/>
<path d="M46.1708 15.6482C46.1708 15.9628 46.113 16.2341 46.0009 16.4619C45.8888 16.6897 45.7296 16.8778 45.5343 17.0261C45.3354 17.1743 45.1004 17.2828 44.8328 17.3552C44.5615 17.4275 44.2722 17.4636 43.9612 17.4636C43.6502 17.4636 43.3536 17.4275 43.0824 17.3552C42.8112 17.2828 42.5761 17.1743 42.3736 17.0261C42.1747 16.8778 42.0156 16.6897 41.9035 16.4619C41.7914 16.2341 41.7335 15.9628 41.7335 15.6482C41.7335 15.4385 41.7588 15.2504 41.8131 15.0804C41.8673 14.9105 41.9396 14.7586 42.0337 14.6211C42.1277 14.4873 42.2434 14.368 42.3772 14.2703C42.511 14.1727 42.6629 14.0895 42.8293 14.0244C42.9956 13.9593 43.1728 13.9123 43.3609 13.8798C43.5525 13.8472 43.7515 13.8328 43.9576 13.8328C44.2686 13.8328 44.5615 13.8689 44.8291 13.9413C45.1004 14.0136 45.3318 14.1221 45.5307 14.2703C45.7296 14.4186 45.8851 14.6067 45.9972 14.8345C46.1094 15.0623 46.1672 15.3336 46.1672 15.6482H46.1708ZM45.8454 15.6482C45.8454 15.3987 45.8056 15.1817 45.726 14.99C45.6465 14.7983 45.5271 14.6392 45.368 14.509C45.2089 14.3788 45.0136 14.2812 44.7785 14.2125C44.5434 14.1438 44.2686 14.1112 43.9576 14.1112C43.6466 14.1112 43.3717 14.1438 43.1367 14.2125C42.898 14.2812 42.7027 14.3788 42.5399 14.509C42.3808 14.6392 42.2579 14.7983 42.1783 14.99C42.0951 15.1817 42.0554 15.3987 42.0554 15.6446C42.0554 15.8905 42.0951 16.1111 42.1783 16.3028C42.2615 16.4944 42.3808 16.6536 42.5399 16.7838C42.6991 16.914 42.898 17.0116 43.1367 17.0803C43.3753 17.149 43.6466 17.1816 43.9576 17.1816C44.2686 17.1816 44.5434 17.149 44.7785 17.0803C45.0136 17.0116 45.2089 16.914 45.368 16.7838C45.5271 16.6536 45.6465 16.4944 45.726 16.3028C45.8056 16.1111 45.8454 15.8941 45.8454 15.6446V15.6482Z" fill="#404040"/>
<path d="M47.4221 15.8978V17.395H47.1039V13.8943H48.847C49.1146 13.8943 49.3424 13.916 49.5305 13.9558C49.7185 13.9955 49.8776 14.0606 49.997 14.1438C50.1163 14.227 50.2067 14.3319 50.2646 14.4584C50.3225 14.585 50.3478 14.7297 50.3478 14.8997C50.3478 15.16 50.2791 15.3698 50.1416 15.5289C50.0042 15.688 49.7836 15.7929 49.4762 15.8508L50.6696 17.395H50.2682L49.1399 15.8869C49.0929 15.8869 49.0422 15.8942 48.9952 15.8942C48.9482 15.8942 48.894 15.8942 48.8433 15.8942H47.4185L47.4221 15.8978ZM50.0223 14.9033C50.0223 14.755 49.997 14.632 49.9427 14.5416C49.8885 14.4476 49.8053 14.3789 49.686 14.3246C49.5666 14.274 49.4111 14.2378 49.2195 14.2198C49.0278 14.2017 48.7891 14.1945 48.5106 14.1945H47.4257V15.6012H48.5034C48.7855 15.6012 49.0206 15.594 49.2158 15.5759C49.4111 15.5578 49.5666 15.5253 49.686 15.4783C49.8053 15.4276 49.8921 15.3589 49.9464 15.2685C50.0006 15.1781 50.0259 15.0552 50.0259 14.9069L50.0223 14.9033Z" fill="#404040"/>
<path d="M54.6549 17.395L54.174 16.4692H51.798L51.317 17.395H50.9698L52.7997 13.8943H53.1758L55.0057 17.395H54.6586H54.6549ZM52.9878 14.2017L51.9535 16.1799H54.0185L52.9878 14.2017Z" fill="#404040"/>
<path d="M56.5897 14.1873V17.395H56.2751V14.1873H54.6839V13.8979H58.1846V14.1873H56.5933H56.5897Z" fill="#404040"/>
<path d="M58.8681 17.395V13.8943H59.1863V17.395H58.8681Z" fill="#404040"/>
<path d="M64.5639 15.6482C64.5639 15.9628 64.5061 16.2341 64.394 16.4619C64.2819 16.6897 64.1227 16.8778 63.9274 17.0261C63.7285 17.1743 63.4935 17.2828 63.2259 17.3552C62.9546 17.4275 62.6653 17.4636 62.3543 17.4636C62.0433 17.4636 61.7467 17.4275 61.4755 17.3552C61.2043 17.2828 60.9692 17.1743 60.7667 17.0261C60.5678 16.8778 60.4087 16.6897 60.2966 16.4619C60.1845 16.2341 60.1266 15.9628 60.1266 15.6482C60.1266 15.4385 60.1519 15.2504 60.2061 15.0804C60.2604 14.9105 60.3327 14.7586 60.4268 14.6211C60.5208 14.4873 60.6365 14.368 60.7703 14.2703C60.9041 14.1727 61.056 14.0895 61.2224 14.0244C61.3887 13.9593 61.5659 13.9123 61.754 13.8798C61.9456 13.8472 62.1446 13.8328 62.3507 13.8328C62.6617 13.8328 62.9546 13.8689 63.2222 13.9413C63.4935 14.0136 63.7249 14.1221 63.9238 14.2703C64.1227 14.4186 64.2782 14.6067 64.3903 14.8345C64.5025 15.0623 64.5603 15.3336 64.5603 15.6482H64.5639ZM64.2385 15.6482C64.2385 15.3987 64.1987 15.1817 64.1191 14.99C64.0396 14.7983 63.9202 14.6392 63.7611 14.509C63.602 14.3788 63.4067 14.2812 63.1716 14.2125C62.9365 14.1438 62.6617 14.1112 62.3507 14.1112C62.0397 14.1112 61.7648 14.1438 61.5298 14.2125C61.2911 14.2812 61.0958 14.3788 60.9331 14.509C60.7739 14.6392 60.651 14.7983 60.5714 14.99C60.4882 15.1817 60.4484 15.3987 60.4484 15.6446C60.4484 15.8905 60.4882 16.1111 60.5714 16.3028C60.6546 16.4944 60.7739 16.6536 60.9331 16.7838C61.0922 16.914 61.2911 17.0116 61.5298 17.0803C61.7684 17.149 62.0397 17.1816 62.3507 17.1816C62.6617 17.1816 62.9365 17.149 63.1716 17.0803C63.4067 17.0116 63.602 16.914 63.7611 16.7838C63.9202 16.6536 64.0396 16.4944 64.1191 16.3028C64.1987 16.1111 64.2385 15.8941 64.2385 15.6446V15.6482Z" fill="#404040"/>
<path d="M68.8566 17.395L65.8152 14.3138V17.395H65.497V13.8943H65.8478L68.8892 16.9863V13.8943H69.2038V17.395H68.8566Z" fill="#404040"/>
</g>
<defs>
<clipPath id="clip0_1117_1714">
<rect width="120" height="18.6246" fill="white"/>
</clipPath>
</defs>
</svg>
