<svg width="37" height="40" viewBox="0 0 37 40" fill="none" xmlns="http://www.w3.org/2000/svg">
<path d="M3.26141 6.49737V33.5023V6.49737Z" fill="#23AF91"/>
<path fill-rule="evenodd" clip-rule="evenodd" d="M3.26141 3.2183C5.06264 3.2183 6.52282 4.68639 6.52282 6.49737V33.5023C6.52282 35.3133 5.06264 36.7814 3.26141 36.7814C1.46018 36.7814 0 35.3133 0 33.5023V6.49737C0 4.68639 1.46018 3.2183 3.26141 3.2183Z" fill="#23AF91"/>
<path fill-rule="evenodd" clip-rule="evenodd" d="M23.2884 2.84969e-05C24.1581 -0.0036143 24.9932 0.342125 25.6081 0.960418L35.4892 10.895C36.7629 12.1755 36.7629 14.2517 35.4892 15.5323C34.2155 16.8128 32.1505 16.8128 30.8769 15.5323L23.3213 7.93578L11.3339 20.1906L23.1788 32.0998L30.8929 24.4516C32.1754 23.18 34.2404 23.1945 35.5051 24.484C36.7698 25.7735 36.7554 27.8496 35.4729 29.1212L25.4527 39.0557C24.1765 40.321 22.1239 40.3138 20.8565 39.0396L4.43451 22.5285C3.16835 21.2555 3.15982 19.1942 4.41538 17.9106L20.9767 0.979817C21.5865 0.356394 22.4187 0.0036713 23.2884 2.84969e-05Z" fill="#23AF91"/>
<path d="M23.3855 23.5681C25.2609 23.5681 26.7812 22.0395 26.7812 20.1539C26.7812 18.2683 25.2609 16.7397 23.3855 16.7397C21.51 16.7397 19.9897 18.2683 19.9897 20.1539C19.9897 22.0395 21.51 23.5681 23.3855 23.5681Z" fill="#23AF91"/>
</svg>
