<svg width="120" height="26" viewBox="0 0 120 26" fill="none" xmlns="http://www.w3.org/2000/svg">
<g clip-path="url(#clip0_1123_1850)">
<path d="M120 9.91219C119.919 9.99825 119.806 10.0696 119.761 10.1728C119.506 10.7433 119.267 11.3187 119.024 11.8941C118.68 12.7007 118.335 13.5047 117.993 14.3113C117.561 15.3268 117.125 16.3424 116.693 17.3555C116.361 18.1325 116.026 18.9071 115.699 19.6866C115.367 20.4734 115.045 21.2628 114.713 22.0472C114.649 22.2021 114.563 22.3472 114.47 22.5291C113.56 22.4406 112.648 22.6595 111.708 22.5464C112.156 21.4841 112.589 20.4734 113.004 19.4579C113.051 19.3423 113.056 19.1776 113.009 19.0645C112.709 18.3292 112.385 17.6014 112.072 16.8711C111.701 16.003 111.335 15.1326 110.963 14.2646C110.393 12.922 109.822 11.5794 109.247 10.2392C109.178 10.0794 109.09 9.92694 108.996 9.74252H111.789C112.675 11.8031 113.565 13.8785 114.455 15.9539C114.477 15.9489 114.502 15.944 114.524 15.9416C115.404 13.881 116.282 11.8203 117.175 9.73022C118.011 9.73022 118.879 9.73023 119.744 9.73268C119.83 9.73268 119.914 9.77203 119.998 9.79416V9.91711L120 9.91219Z" fill="#404040"/>
<path d="M25.2339 3.09092C25.015 2.20323 24.4888 1.55898 23.8249 0.981127C22.9495 0.216389 21.8774 0 20.7708 0C15.2333 0 9.69566 0.0245897 4.15807 0.0467204C3.5212 0.0467204 2.904 0.191799 2.35319 0.506547C0.850764 1.36964 0.0122569 2.65568 0.00979789 4.39909C-0.00495591 9.71538 -3.79733e-05 15.0341 0.00733892 20.3504C0.00733892 20.7586 0.0688131 21.1668 0.127828 21.5701C0.324546 22.9274 1.18027 23.8053 2.31877 24.4593C2.79827 24.7347 3.34661 24.8405 3.88267 24.9585C3.92447 24.9683 3.95644 25.0323 3.99332 25.0692H21.3561C21.4544 25.0101 21.5454 24.9265 21.6512 24.897C21.7741 24.8601 21.9118 24.8774 22.0421 24.8601C22.6274 24.779 23.1019 24.452 23.5913 24.1618C23.97 23.938 24.329 23.6749 24.5773 23.3036C24.7347 23.07 24.8601 22.8167 24.9904 22.5659C25.2855 21.9856 25.4626 21.366 25.465 20.7217C25.4748 15.4054 25.4724 10.0891 25.4748 4.77285C25.4748 4.19991 25.3765 3.65156 25.2412 3.09338L25.2339 3.09092ZM12.3464 6.03676C12.3022 6.4179 12.3341 6.80642 12.3341 7.19248C12.3341 7.31297 12.3341 7.43345 12.3341 7.58345H10.3596V11.4121H12.3317V13.6399C11.6628 13.662 11.0161 13.6866 10.335 13.7087C10.3571 13.962 10.3793 14.1981 10.3989 14.4317C10.4088 14.4317 10.4186 14.4268 10.4284 14.4243C10.4038 14.5448 10.362 14.6628 10.3596 14.7833C10.3522 15.4521 10.3596 16.1234 10.3522 16.7923C10.3522 16.9988 10.3252 17.2054 10.3104 17.4513H12.3145V19.7037H5.48346C5.59657 19.4209 5.69493 19.1775 5.79574 18.934C5.97279 18.5062 6.15475 18.0783 6.32442 17.648C6.38344 17.498 6.48425 17.4587 6.62933 17.4611C6.94408 17.4636 7.25883 17.4611 7.59571 17.4611C7.61046 17.3382 7.63259 17.2398 7.63259 17.1415C7.63751 14.2595 7.62276 11.3801 7.65718 8.49819C7.66456 7.86131 7.52932 7.28838 7.28096 6.72035C7.12605 6.36626 6.98834 6.00725 6.83589 5.6507C6.79654 5.55972 6.73753 5.47612 6.68589 5.38514C6.75474 5.32366 6.82359 5.26465 6.87031 5.22284C7.01293 5.24497 7.13588 5.2794 7.26129 5.2794C8.3752 5.28432 9.48911 5.28186 10.603 5.28432C11.1612 5.28432 11.7219 5.28432 12.2653 5.28432C12.3932 5.5671 12.3735 5.78841 12.344 6.03184L12.3464 6.03676ZM19.8979 16.7308C19.7356 17.1439 19.5905 17.5964 19.3053 17.9185C18.7791 18.5185 18.1471 19.0324 17.3873 19.3226C16.9521 19.4873 16.4726 19.534 16.0177 19.6545C15.3267 19.8365 14.6234 19.7529 13.9251 19.7725C13.8267 19.775 13.7259 19.7725 13.571 19.7725C13.571 19.5783 13.571 19.4234 13.571 19.266C13.571 19.0103 13.5685 18.7545 13.5661 18.4988C13.5661 18.2259 13.5538 17.9505 13.5661 17.6775C13.5759 17.5029 13.7112 17.4587 13.8734 17.4611C14.3234 17.466 14.7734 17.4611 15.2234 17.4611C15.7128 17.4611 16.1701 17.3308 16.5636 17.0456C17.0799 16.6693 17.4242 16.1628 17.4168 15.5112C17.4094 14.9013 17.0996 14.412 16.5931 14.0727C16.2045 13.812 15.7619 13.6841 15.2874 13.6841C14.8472 13.6841 14.407 13.6891 13.9693 13.6817C13.8439 13.6792 13.7161 13.635 13.5685 13.603V11.476C13.9792 11.3998 14.3923 11.358 14.7808 11.2399C15.3636 11.0629 15.8701 10.7531 16.0816 10.1432C16.3029 9.50636 16.2906 8.90146 15.789 8.36048C15.3734 7.91295 14.8988 7.64738 14.2743 7.64984C14.0554 7.64984 13.8366 7.59329 13.5857 7.55886V5.36792C13.6743 5.35809 13.7628 5.34579 13.8513 5.34087C14.6087 5.30399 15.3292 5.40973 16.0447 5.69251C17.0209 6.07611 17.8029 6.65888 18.3488 7.54411C18.8676 8.38507 19.0496 9.30965 18.8061 10.2613C18.6537 10.8588 18.4348 11.4563 17.9676 11.9137C17.9406 11.9383 17.9234 11.9776 17.9135 12.0145C17.9062 12.0416 17.9135 12.0735 17.9184 12.1129C18.9389 12.6145 19.5881 13.4456 19.9496 14.4956C20.2053 15.2358 20.1782 15.9956 19.8905 16.7259L19.8979 16.7308Z" fill="url(#paint0_linear_1123_1850)"/>
<path d="M108.696 19.2415C107.801 19.2317 106.909 19.2218 106.013 19.2145V18.8751C106.013 16.8366 106.013 14.7957 106.013 12.7572C106.013 12.1646 105.647 11.8081 105.057 11.7269C104.767 11.6876 104.516 11.7097 104.25 11.8204C103.8 12.0072 103.618 12.349 103.621 12.8113C103.633 14.6973 103.643 16.5834 103.655 18.4694C103.655 18.7128 103.655 18.9538 103.655 19.212H100.995C100.995 19.0448 100.995 18.8874 100.995 18.7276C100.995 16.7801 100.997 14.8326 101.002 12.8851C101.002 12.5335 100.938 12.2064 100.638 11.9802C100.523 11.8941 100.387 11.8031 100.25 11.7786C99.7751 11.69 99.2906 11.663 98.9021 12.0171C98.8333 12.081 98.7767 12.1499 98.7325 12.2236C98.5554 12.5162 98.5923 12.831 98.5997 12.9171C98.6366 13.34 98.6341 15.8162 98.6267 19.244H95.9833C95.9686 19.1825 95.9563 19.153 95.9563 19.1259C95.9563 16.9743 95.9465 14.8252 95.971 12.6736C95.9784 11.9654 96.2686 11.3335 96.7456 10.8023C97.2915 10.1974 97.9431 9.75237 98.7595 9.58761C99.8906 9.35893 100.977 9.45975 101.981 10.0745C102.293 10.2638 102.379 10.2565 102.679 10.0401C103.045 9.7745 103.473 9.63925 103.911 9.56057C104.892 9.38106 105.856 9.47942 106.754 9.91957C107.553 10.3106 108.165 10.9032 108.475 11.7613C108.583 12.0613 108.659 12.3638 108.662 12.6908C108.672 14.5351 108.713 18.0022 108.713 18.0022C108.708 18.2653 108.701 18.7005 108.701 19.2464L108.696 19.2415Z" fill="#404040"/>
<path d="M73.437 14.5029C73.437 14.8791 73.4567 15.2554 73.4321 15.6291C73.3804 16.507 73.0509 17.2693 72.4509 17.9283C71.878 18.5602 71.1624 18.961 70.3756 19.2364C69.9969 19.3692 69.5813 19.411 69.1781 19.4627C68.9371 19.4946 68.6887 19.4627 68.4428 19.4676C67.3879 19.4922 66.4757 19.0963 65.6421 18.5086C64.9683 18.0315 64.4667 17.4045 64.2085 16.6127C64.0683 16.1775 63.9749 15.7324 63.9847 15.2677C63.9946 14.7513 63.9896 14.2324 63.9847 13.7161C63.9773 12.521 64.4323 11.5079 65.3101 10.7161C65.883 10.1973 66.5642 9.84073 67.3437 9.64893C67.9535 9.49893 68.5584 9.46205 69.1707 9.49155C69.7362 9.52106 70.287 9.66122 70.8083 9.88991C72.1632 10.4874 73.1296 11.4218 73.3657 12.9341C73.4468 13.448 73.4345 13.9792 73.464 14.5005C73.4542 14.5005 73.4444 14.5005 73.4345 14.5005L73.437 14.5029ZM70.7985 14.4759C70.7985 14.1513 70.7739 13.8243 70.8034 13.5021C70.8821 12.6784 70.2059 12.0981 69.6035 11.8546C69.2469 11.7095 68.8756 11.7612 68.5068 11.7317C67.533 11.653 66.5445 12.6415 66.6183 13.5882C66.665 14.2128 66.6232 14.8447 66.6281 15.4742C66.633 16.0668 66.9084 16.5144 67.3855 16.8562C68.1084 17.3775 68.8977 17.3258 69.6772 17.0627C70.4272 16.8094 70.8551 16.1775 70.8034 15.3882C70.7838 15.0857 70.801 14.7808 70.801 14.4759H70.7985Z" fill="#404040"/>
<path d="M94.7342 14.4612C94.7342 14.9284 94.7711 15.3981 94.7243 15.8579C94.6629 16.453 94.4637 17.0111 94.1047 17.5079C93.5317 18.3046 92.767 18.8209 91.8498 19.18C90.9916 19.5168 90.1089 19.5365 89.2384 19.448C88.3015 19.3521 87.4507 18.9586 86.7229 18.3291C86.1081 17.7956 85.6655 17.1562 85.4516 16.3816C85.3434 15.9931 85.3065 15.58 85.2844 15.1743C85.2573 14.7096 85.2671 14.2423 85.2794 13.7751C85.304 12.8629 85.513 11.9973 86.0958 11.2768C86.6466 10.5932 87.3597 10.1088 88.1859 9.78916C88.9236 9.50392 89.6908 9.42769 90.4605 9.49408C91.6236 9.5949 92.6908 9.99325 93.5465 10.8047C94.2891 11.5104 94.7465 12.3662 94.7268 13.426C94.7194 13.7702 94.7268 14.1145 94.7268 14.4612C94.7293 14.4612 94.7317 14.4612 94.7342 14.4612ZM92.0883 14.503C92.0883 14.2497 92.0883 13.9965 92.0883 13.7432C92.0883 13.512 92.108 13.2735 92.0687 13.0473C91.9777 12.5211 91.5719 12.2457 91.1515 11.9801C90.7039 11.6949 90.2097 11.7465 89.7203 11.7391C88.8277 11.7268 87.9179 12.5481 87.9155 13.5096C87.9155 14.1391 87.8958 14.7661 87.9204 15.3956C87.9474 16.121 88.272 16.6816 88.931 17.0308C89.74 17.4587 90.8736 17.3431 91.5572 16.7259C91.8793 16.4333 92.1178 16.0767 92.0908 15.5972C92.0687 15.2333 92.0859 14.8669 92.0859 14.503H92.0883Z" fill="#404040"/>
<path d="M40.7033 5.48584V7.67678H38.6599C38.6747 8.89889 38.6894 10.121 38.7042 11.3456C39.3558 11.348 40.0074 11.3529 40.6591 11.3554V13.5439C40.0124 13.5783 39.3484 13.6127 38.6501 13.6472C38.655 14.8471 38.6599 16.0496 38.6648 17.2495L40.7058 17.2667V19.4798H33.9412C34.2338 18.7839 34.5338 18.0708 34.8534 17.3135C35.2493 17.2889 35.6428 17.2643 36.0387 17.2397C36.046 17.161 36.0583 17.0848 36.0583 17.0086C36.0583 14.2299 36.0633 11.4488 36.0633 8.6702C36.0633 7.91776 35.9452 7.19237 35.5715 6.51615C35.387 6.18173 35.2665 5.81043 35.1018 5.41699C35.3452 5.41699 35.5272 5.41699 35.7092 5.41699C37.2632 5.41699 38.8173 5.41699 40.3714 5.42191C40.4894 5.42191 40.6074 5.46617 40.7033 5.48584Z" fill="#404040"/>
<path d="M77.3148 19.2192H74.701C74.6911 19.1601 74.6764 19.1134 74.6764 19.0667C74.6715 17.2004 74.6715 15.334 74.6641 13.4676C74.6616 12.6685 74.937 11.9652 75.4141 11.3431C76.1862 10.3349 77.2263 9.75952 78.4779 9.55051C79.132 9.43985 79.7738 9.48411 80.4303 9.59723C81.1557 9.72509 81.8049 9.99804 82.4024 10.4087C83.1721 10.9374 83.6909 11.6578 83.9614 12.5406C84.0647 12.8775 84.1016 13.2439 84.109 13.598C84.1434 15.0242 84.1581 16.4504 84.1704 17.8766C84.1729 18.2061 84.1286 18.538 84.1163 18.8675C84.1114 18.9733 84.1385 19.0815 84.1532 19.2118C84.0942 19.2167 84.018 19.2241 83.9442 19.229C83.4991 19.2511 83.0541 19.2806 82.609 19.288C82.2377 19.2929 81.8688 19.2659 81.4779 19.2536V18.9093C81.4779 17.2667 81.4189 15.6192 81.4951 13.9791C81.5689 12.4103 80.5385 11.6431 79.2328 11.7316C78.7951 11.7611 78.4042 11.8472 78.0525 12.1005C77.6001 12.425 77.3394 12.8677 77.3345 13.416C77.3222 15.2725 77.3296 17.129 77.3296 18.9856C77.3296 19.0544 77.3222 19.1257 77.3198 19.2216L77.3148 19.2192Z" fill="#404040"/>
<path d="M60.1463 15.5652C60.5127 15.4619 62.6397 15.4939 62.8561 15.6266C62.7307 16.0373 62.6299 16.4676 62.4701 16.8758C62.1701 17.643 61.6266 18.2184 60.9381 18.6684C60.2988 19.0864 59.5882 19.3766 58.8431 19.443C57.8989 19.529 56.9374 19.5462 56.0374 19.0938C55.4964 18.8233 54.9579 18.5454 54.5325 18.12C54.0014 17.5889 53.6055 16.9619 53.4407 16.2119C53.2612 15.398 53.3104 14.5693 53.3227 13.748C53.3326 12.8898 53.5366 12.0808 54.0727 11.38C54.7292 10.5243 55.5702 9.95626 56.6177 9.65381C57.2153 9.48168 57.8177 9.43742 58.4202 9.4866C59.4382 9.56775 60.3922 9.84315 61.2086 10.5095C61.6512 10.871 62.0398 11.2669 62.3324 11.7538C62.6373 12.2603 62.7406 12.8259 62.8389 13.3841C62.7996 13.4087 62.7824 13.4308 62.7651 13.4308C62.025 13.4554 61.2824 13.48 60.5422 13.4972C60.2472 13.5046 60.1832 13.4357 60.1341 13.1529C60.0259 12.5554 59.6718 12.1447 59.116 11.9161C58.5554 11.6849 57.9652 11.6456 57.3849 11.8029C56.6915 11.9898 56.1899 12.4103 56.0276 13.1431C55.9882 13.325 55.9636 13.5168 55.9612 13.7037C55.9514 14.2422 55.9612 14.7783 55.9563 15.3168C55.9464 16.1971 56.4702 16.8635 57.2915 17.1537C58.13 17.4512 58.8898 17.252 59.5783 16.7578C59.9668 16.4774 60.1119 16.0496 60.1488 15.5652H60.1463Z" fill="#404040"/>
<path d="M41.8639 7.71869V5.46627C41.9082 5.44906 41.9746 5.40234 42.0336 5.40972C42.4123 5.44414 42.7885 5.49578 43.1672 5.52775C43.7622 5.57939 44.3131 5.78594 44.8319 6.05151C45.6802 6.48429 46.3442 7.13591 46.7474 7.99655C46.9368 8.40228 47.0868 8.86457 47.0966 9.30472C47.1187 10.2981 46.8458 11.2227 46.1155 11.9825C46.3171 12.1448 46.5114 12.3096 46.7179 12.462C47.495 13.0374 48.0335 13.7776 48.213 14.7243C48.4884 16.1775 47.972 17.3529 46.863 18.3119C46.1229 18.9537 45.245 19.3127 44.3008 19.448C43.5139 19.5611 42.7049 19.5217 41.8713 19.5537V17.2791C42.4172 17.2791 42.9754 17.2791 43.5336 17.2791C44.3647 17.2791 44.9893 16.9054 45.4393 16.2243C45.4983 16.1333 45.5327 16.0251 45.5622 15.9193C45.8524 14.8571 45.1983 13.8341 44.0942 13.6964C43.4844 13.6202 42.8598 13.6448 42.2426 13.6251C42.1246 13.6227 42.0065 13.6251 41.8418 13.6251C41.8418 13.2194 41.8418 12.8579 41.8418 12.4965C41.8418 12.135 41.8418 11.7711 41.8418 11.4096C42.2106 11.3555 42.5598 11.3235 42.8967 11.2473C44.0795 10.9817 44.8073 10.0277 44.3524 8.83014C44.1385 8.26704 43.6442 7.95721 43.0811 7.78016C42.9041 7.72361 42.7049 7.72606 42.518 7.71623C42.3164 7.70639 42.1123 7.71623 41.8664 7.71623L41.8639 7.71869Z" fill="#404040"/>
<path d="M52.1645 19.2168H49.5432V9.74731H52.1645V19.2168Z" fill="#404040"/>
<path d="M52.1325 8.6753H49.5383V6.45239H52.1325V8.6753Z" fill="#404040"/>
<path d="M12.317 19.7038H5.48596C5.59907 19.421 5.69743 19.1775 5.79825 18.9341C5.9753 18.5062 6.15726 18.0784 6.32693 17.6481C6.38594 17.4981 6.48676 17.4587 6.63184 17.4612C6.94659 17.4636 7.26134 17.4612 7.59821 17.4612C7.61297 17.3382 7.6351 17.2399 7.6351 17.1415C7.64002 14.2596 7.62526 11.3802 7.65969 8.49824C7.66706 7.86137 7.53182 7.28843 7.28347 6.72041C7.12855 6.36632 6.99085 6.00731 6.83839 5.65076C6.79905 5.55978 6.74003 5.47617 6.6884 5.38519C6.75725 5.32372 6.8261 5.2647 6.87282 5.2229C7.01544 5.24503 7.13839 5.27946 7.26379 5.27946C8.37771 5.28437 9.49162 5.28192 10.6055 5.28437C11.1637 5.28437 11.7244 5.28437 12.2678 5.28437C12.3957 5.56716 12.376 5.78846 12.3465 6.0319C12.3022 6.41304 12.3342 6.80156 12.3342 7.18761C12.3342 7.3081 12.3342 7.42859 12.3342 7.57859H10.3596V11.4072H12.3317V13.635C11.6629 13.6572 11.0162 13.6817 10.335 13.7039C10.3572 13.9571 10.3793 14.1932 10.399 14.4268C10.4088 14.4268 10.4186 14.4219 10.4285 14.4194C10.4039 14.5399 10.3621 14.658 10.3596 14.7784C10.3523 15.4473 10.3596 16.1186 10.3523 16.7874C10.3523 16.994 10.3252 17.2005 10.3105 17.4464H12.3145V19.6988L12.317 19.7038Z" fill="#FEFEFE"/>
<path d="M13.5685 13.6054V11.4784C13.9792 11.4022 14.3923 11.3604 14.7808 11.2423C15.3636 11.0653 15.8701 10.7554 16.0816 10.1456C16.3029 9.50875 16.2906 8.90385 15.789 8.36287C15.3734 7.91534 14.8988 7.64977 14.2742 7.65223C14.0554 7.65223 13.8366 7.59568 13.5857 7.56125V5.37031C13.6743 5.36048 13.7628 5.34818 13.8513 5.34326C14.6087 5.30638 15.3291 5.41211 16.0447 5.6949C17.0209 6.07849 17.8029 6.66127 18.3488 7.5465C18.8676 8.38746 19.0496 9.31204 18.8061 10.2637C18.6537 10.8612 18.4348 11.4587 17.9676 11.9161C17.9406 11.9407 17.9234 11.98 17.9135 12.0169C17.9061 12.0439 17.9135 12.0759 17.9184 12.1153C18.9389 12.6169 19.5881 13.448 19.9495 14.498C20.2053 15.2381 20.1782 15.998 19.8905 16.7283C19.7282 17.1414 19.5832 17.5938 19.2979 17.916C18.7717 18.5159 18.1397 19.0299 17.3799 19.32C16.9447 19.4848 16.4652 19.5315 16.0103 19.652C15.3193 19.8339 14.616 19.7503 13.9177 19.77C13.8193 19.7725 13.7185 19.77 13.5636 19.77C13.5636 19.5758 13.5636 19.4208 13.5636 19.2635C13.5636 19.0077 13.5611 18.752 13.5587 18.4963C13.5587 18.2233 13.5464 17.9479 13.5587 17.675C13.5685 17.5004 13.7038 17.4561 13.8661 17.4586C14.316 17.4635 14.766 17.4586 15.216 17.4586C15.7054 17.4586 16.1627 17.3283 16.5562 17.043C17.0725 16.6668 17.4168 16.1603 17.4094 15.5086C17.4021 14.8988 17.0922 14.4095 16.5857 14.0701C16.1972 13.8095 15.7545 13.6816 15.28 13.6816C14.8398 13.6816 14.3997 13.6865 13.962 13.6792C13.8366 13.6767 13.7087 13.6324 13.5611 13.6005L13.5685 13.6054Z" fill="#FEFEFE"/>
</g>
<defs>
<linearGradient id="paint0_linear_1123_1850" x1="12.7349" y1="25.0716" x2="12.7349" y2="0" gradientUnits="userSpaceOnUse">
<stop stop-color="#1A377F"/>
<stop offset="1" stop-color="#018DE6"/>
</linearGradient>
<clipPath id="clip0_1123_1850">
<rect width="120" height="25.0716" fill="white"/>
</clipPath>
</defs>
</svg>
