<svg width="45" height="45" viewBox="0 0 45 45" fill="none" xmlns="http://www.w3.org/2000/svg">
<g clip-path="url(#clip0_1084_172)">
<path d="M31.17 26.1L36.2662 31.1925L22.4794 44.9794L8.6925 31.1944L13.7869 26.1L22.4794 34.8375L31.17 26.1ZM39.8644 17.4075L45 22.5L39.9094 27.5925L34.815 22.5L39.8644 17.4075ZM22.4794 17.4075L27.5719 22.455L22.4775 27.5494L17.385 22.5L22.4794 17.4075ZM5.0925 17.4075L10.1437 22.5L5.09625 27.5475L0 22.5L5.0925 17.4075ZM22.4812 0.0224915L36.2625 13.7625L31.1681 18.8531L22.4812 10.1625L13.7887 18.9L8.69438 13.8075L22.4812 0.0224915Z" fill="#F3BA2F"/>
</g>
<defs>
<clipPath id="clip0_1084_172">
<rect width="45" height="45" fill="white"/>
</clipPath>
</defs>
</svg>
