<svg width="45" height="45" viewBox="0 0 45 45" fill="none" xmlns="http://www.w3.org/2000/svg">
<path d="M17.63 22.1453L17.2403 21.753C17.1746 21.6875 17.0909 21.6429 16.9999 21.6248C16.9088 21.6068 16.8145 21.6161 16.7287 21.6516C16.6429 21.6871 16.5696 21.7471 16.5179 21.8243C16.4663 21.9014 16.4386 21.992 16.4384 22.0849V27.687C16.4391 27.8117 16.4891 27.9309 16.5775 28.0188C16.6659 28.1066 16.7854 28.1559 16.9101 28.1558H22.5137C22.6064 28.1557 22.697 28.1282 22.774 28.0767C22.8511 28.0251 22.9111 27.9519 22.9465 27.8662C22.9819 27.7806 22.9912 27.6863 22.9731 27.5954C22.955 27.5045 22.9103 27.421 22.8448 27.3555C22.7569 27.2676 22.7075 27.1484 22.7075 27.0241C22.7075 26.8999 22.7569 26.7807 22.8448 26.6928L28.8048 20.7144C28.8485 20.671 28.8831 20.6193 28.9067 20.5625C28.9304 20.5056 28.9426 20.4446 28.9426 20.383C28.9426 20.3215 28.9304 20.2605 28.9067 20.2036C28.8831 20.1467 28.8485 20.0951 28.8048 20.0517L28.2618 19.5106C28.1965 19.4449 28.152 19.3614 28.134 19.2704C28.1161 19.1795 28.1254 19.0853 28.1609 18.9997C28.1964 18.914 28.2564 18.8408 28.3334 18.7892C28.4105 18.7377 28.501 18.71 28.5937 18.7098H34.1939C34.3185 18.7098 34.4379 18.7592 34.5262 18.847C34.6144 18.9349 34.6643 19.0541 34.6648 19.1786V24.7823C34.6645 24.8752 34.6366 24.966 34.5848 25.0431C34.533 25.1203 34.4595 25.1804 34.3736 25.2158C34.2877 25.2513 34.1932 25.2606 34.102 25.2425C34.0109 25.2244 33.9271 25.1797 33.8613 25.1141L33.4838 24.7368C33.4411 24.6922 33.3898 24.6566 33.3329 24.6324C33.2761 24.6081 33.2149 24.5956 33.1531 24.5956C33.0913 24.5956 33.0301 24.6081 32.9733 24.6324C32.9164 24.6566 32.8651 24.6922 32.8224 24.7368L22.7738 34.7806C22.6858 34.8682 22.5666 34.9174 22.4424 34.9174C22.3182 34.9174 22.1991 34.8682 22.111 34.7806L9.81734 22.4869C9.77343 22.4433 9.73858 22.3915 9.71479 22.3344C9.69101 22.2772 9.67876 22.216 9.67876 22.1541C9.67876 22.0923 9.69101 22.031 9.71479 21.9739C9.73858 21.9168 9.77343 21.865 9.81734 21.8214L26.835 4.80276C26.9228 4.71447 26.9721 4.59501 26.9721 4.47049C26.9721 4.34598 26.9228 4.22652 26.835 4.13823L22.8331 0.136833C22.7449 0.0491875 22.6255 0 22.5012 0C22.3768 0 22.2575 0.0491875 22.1692 0.136833L0.136826 22.1692C0.0491793 22.2576 0 22.377 0 22.5015C0 22.626 0.0491793 22.7454 0.136826 22.8338L22.1675 44.8634C22.2559 44.9509 22.3754 45 22.4998 45C22.6242 45 22.7437 44.9509 22.8321 44.8634L44.8607 22.8339C44.948 22.7458 44.9971 22.6267 44.9971 22.5026C44.9971 22.3784 44.948 22.2593 44.8607 22.1712L31.9003 9.21069C31.8123 9.12316 31.6931 9.07402 31.569 9.07402C31.4448 9.07402 31.3257 9.12316 31.2376 9.21069L18.2973 22.1458C18.2536 22.1897 18.2016 22.2246 18.1444 22.2484C18.0872 22.2722 18.0258 22.2844 17.9638 22.2844C17.9019 22.2844 17.8405 22.2722 17.7833 22.2484C17.726 22.2246 17.6741 22.1897 17.6304 22.1458L17.63 22.1453Z" fill="#DE5959"/>
</svg>
