<svg width="120" height="35" viewBox="0 0 120 35" fill="none" xmlns="http://www.w3.org/2000/svg">
<g clip-path="url(#clip0_1121_1822)">
<path d="M46.135 19.59C46.135 21.46 44.745 22.87 42.495 22.87H36.205V11.28H42.115C44.3 11.28 45.625 12.57 45.625 14.44C45.625 15.615 45.01 16.525 43.935 16.89C45.325 17.155 46.135 18.13 46.135 19.59ZM38.965 13.58V15.865H41.515C42.325 15.865 42.74 15.435 42.74 14.69C42.74 13.995 42.325 13.58 41.515 13.58H38.965ZM43.255 19.325C43.255 18.545 42.81 18.1 41.93 18.1H38.965V20.565H41.93C42.805 20.565 43.255 20.1 43.255 19.325Z" fill="#404040"/>
<path d="M50.82 22.87H48.055V11.28H50.82V22.87Z" fill="#404040"/>
<path d="M61.615 20.2999V22.8649H53.24V11.2749H56.005V20.2999H61.615Z" fill="#404040"/>
<path d="M71.565 20.2999V22.8649H63.19V11.2749H65.955V20.2999H71.565Z" fill="#404040"/>
<path d="M80.72 20.485H76.07L75.21 22.87H72.295L76.78 11.28H80.01L84.48 22.87H81.585L80.725 20.485H80.72ZM79.795 17.92L78.39 14.06L77 17.92H79.8H79.795Z" fill="#404040"/>
<path d="M96.28 11.28V22.87H93.815L88.8 16.13V22.87H86.07V11.28H88.535L93.55 18.035V11.28H96.28Z" fill="#404040"/>
<path d="M98.15 17.0749C98.15 13.5299 100.735 11.0649 104.225 11.0649C106.445 11.0649 108.25 12.0399 109.275 13.4649L106.875 14.9899C106.31 14.2299 105.385 13.7299 104.225 13.7299C102.34 13.7299 101.015 15.0899 101.015 17.0749C101.015 19.0599 102.325 20.4199 104.225 20.4199C105.4 20.4199 106.445 19.8899 107.005 18.8649L109.325 20.5049C108.28 22.1099 106.43 23.0899 104.21 23.0899C100.715 23.0899 98.15 20.6249 98.15 17.0799V17.0749Z" fill="#404040"/>
<path d="M120 20.2999V22.8649H111.145V11.2749H119.87V13.8399H113.91V15.7249H119.605V18.2749H113.91V20.2949H120V20.2999Z" fill="#404040"/>
<path d="M15.485 0H0V15.485H15.485V0Z" fill="#2452FF"/>
<path d="M25.76 15.4851H15.485V25.7601H25.76V15.4851Z" fill="#2452FF"/>
<path d="M15.485 25.5049H6.005V34.9849H15.485V25.5049Z" fill="#2452FF"/>
</g>
<defs>
<clipPath id="clip0_1121_1822">
<rect width="120" height="34.98" fill="white"/>
</clipPath>
</defs>
</svg>
