<svg width="48" height="48" viewBox="0 0 48 48" fill="none" xmlns="http://www.w3.org/2000/svg">
<g clip-path="url(#clip0_1084_121)">
<path d="M24.141 0.824921C11.3348 0.824921 0.876099 11.2116 0.876099 23.9476C0.876099 36.6835 11.3348 47.0702 24.141 47.0702C37.0193 47.0702 47.406 36.7538 47.406 23.9476C47.406 11.1413 37.0193 0.824921 24.141 0.824921Z" fill="#32407B"/>
<path d="M24.1412 4.38214C13.2558 4.38214 4.43372 13.1333 4.43372 23.9473C4.43372 34.7614 13.3269 43.5838 24.1412 43.5838C35.0267 43.5838 43.8487 34.7616 43.8487 23.9473C43.8487 13.1331 35.0267 4.38214 24.1412 4.38214Z" fill="#32407B"/>
<path d="M24.141 43.9397C35.2399 43.9397 44.2755 34.9753 44.2755 23.9476C44.2755 12.9198 35.2399 3.95541 24.141 3.95541C13.0422 3.95541 4.00659 12.9198 4.00659 23.9476C4.00659 34.9753 13.1133 43.9397 24.141 43.9397ZM24.141 4.80911C34.7419 4.80911 43.3506 13.4179 43.3506 23.9469C43.3506 34.4758 34.7419 43.0846 24.141 43.0846C13.5403 43.0846 4.93145 34.4758 4.93145 23.9469C4.93145 13.4179 13.5403 4.80911 24.141 4.80911Z" fill="white"/>
<path d="M15.6745 31.916H32.7498C32.8605 31.9084 32.9648 31.861 33.0433 31.7826C33.1218 31.7041 33.1691 31.5999 33.1767 31.4891V16.5483C33.1772 15.9537 33.0592 15.3649 32.8296 14.8163C32.6002 14.2676 32.2637 13.7702 31.84 13.353C31.4162 12.9357 30.9136 12.6071 30.3615 12.3862C29.8093 12.1652 29.2187 12.0564 28.6242 12.0661H19.7301C18.5325 12.0586 17.3808 12.5262 16.5274 13.3664C15.6741 14.2066 15.1886 15.3509 15.1775 16.5483V31.4891C15.2009 31.6057 15.2627 31.7111 15.3529 31.7884C15.4432 31.8658 15.5568 31.9107 15.6756 31.9161L15.6745 31.916ZM32.2518 31.0622H16.1016V16.6187C16.1059 15.6577 16.4895 14.7373 17.169 14.0579C17.8486 13.3785 18.7691 12.995 19.7301 12.991H28.6242C29.585 12.9951 30.5053 13.3787 31.1846 14.0582C31.8641 14.7376 32.2477 15.6579 32.2518 16.6187V31.0622Z" fill="white"/>
<path d="M28.6945 29.2835C28.9287 29.2858 29.1611 29.2413 29.3778 29.1528C29.5947 29.0642 29.7916 28.9333 29.9573 28.7676C30.1229 28.602 30.2539 28.405 30.3424 28.1882C30.4309 27.9713 30.4753 27.7389 30.4731 27.5048C30.4753 27.2705 30.4309 27.0382 30.3423 26.8214C30.2538 26.6046 30.1228 26.4076 29.9572 26.242C29.7916 26.0764 29.5947 25.9455 29.3778 25.857C29.161 25.7683 28.9287 25.7239 28.6945 25.7262C28.4603 25.7239 28.228 25.7683 28.0111 25.8569C27.7943 25.9454 27.5973 26.0763 27.4316 26.242C27.266 26.4075 27.1351 26.6045 27.0465 26.8214C26.9579 27.0382 26.9134 27.2705 26.9158 27.5048C26.9231 27.9742 27.1129 28.4224 27.4448 28.7544C27.7769 29.0863 28.2251 29.2762 28.6945 29.2835ZM28.6945 26.5799C28.8774 26.5799 29.0562 26.6342 29.2083 26.7357C29.3604 26.8374 29.4789 26.9818 29.5489 27.1508C29.6189 27.3198 29.6373 27.5058 29.6015 27.6852C29.5659 27.8646 29.4778 28.0294 29.3484 28.1587C29.2191 28.2881 29.0543 28.3761 28.8749 28.4119C28.6955 28.4475 28.5096 28.4292 28.3405 28.3592C28.1716 28.2892 28.0271 28.1706 27.9255 28.0186C27.8238 27.8665 27.7696 27.6876 27.7696 27.5048C27.8408 26.9355 28.1965 26.5799 28.6945 26.5799ZM19.5871 29.2835C19.8214 29.2858 20.0538 29.2415 20.2707 29.153C20.4875 29.0644 20.6846 28.9335 20.8504 28.7678C21.016 28.6022 21.147 28.4052 21.2356 28.1882C21.3242 27.9714 21.3687 27.739 21.3663 27.5048C21.3686 27.2705 21.3242 27.0381 21.2356 26.8213C21.1469 26.6044 21.0159 26.4074 20.8503 26.2418C20.6846 26.0762 20.4875 25.9452 20.2706 25.8567C20.0538 25.7682 19.8214 25.7238 19.5871 25.7262C19.3529 25.7239 19.1205 25.7683 18.9036 25.8569C18.6868 25.9454 18.4898 26.0763 18.3242 26.242C18.1585 26.4076 18.0276 26.6046 17.939 26.8215C17.8505 27.0383 17.806 27.2707 17.8084 27.505C17.806 27.7391 17.8506 27.9715 17.9391 28.1882C18.0277 28.4051 18.1586 28.6021 18.3243 28.7677C18.4899 28.9334 18.6869 29.0643 18.9037 29.1529C19.1206 29.2413 19.3529 29.2858 19.5871 29.2835ZM19.5871 26.5799C19.77 26.5799 19.9488 26.6342 20.1009 26.7357C20.253 26.8374 20.3715 26.9818 20.4415 27.1508C20.5115 27.3198 20.5299 27.5058 20.4941 27.6852C20.4585 27.8646 20.3704 28.0294 20.2411 28.1587C20.1117 28.2881 19.9469 28.3761 19.7675 28.4119C19.5882 28.4475 19.4022 28.4292 19.2331 28.3592C19.0642 28.2892 18.9197 28.1706 18.8181 28.0186C18.7164 27.8665 18.6622 27.6876 18.6622 27.5048C18.6584 27.3822 18.6796 27.2602 18.7247 27.1463C18.7698 27.0323 18.8379 26.9288 18.9244 26.8422C19.0111 26.7555 19.1147 26.6874 19.2286 26.6424C19.3426 26.5973 19.4646 26.576 19.5871 26.5799ZM21.5798 15.2675H26.7735C26.8842 15.26 26.9884 15.2126 27.0669 15.1341C27.1454 15.0556 27.1929 14.9514 27.2004 14.8406C27.1928 14.7299 27.1454 14.6257 27.0669 14.5472C26.9884 14.4687 26.8842 14.4214 26.7735 14.4138H21.5802C21.4694 14.4214 21.3651 14.4688 21.2866 14.5473C21.2081 14.6258 21.1607 14.73 21.1531 14.8408C21.1508 14.8974 21.1602 14.954 21.1808 15.0068C21.2014 15.0596 21.2328 15.1076 21.2729 15.1477C21.313 15.1879 21.361 15.2192 21.4138 15.2398C21.4666 15.2604 21.5231 15.2698 21.5798 15.2675ZM15.888 36.0424C16.02 36.0397 16.1465 35.9891 16.2438 35.9001L19.0186 31.987C19.0751 31.8927 19.092 31.7798 19.0653 31.673C19.0386 31.5662 18.9707 31.4745 18.8763 31.4179C18.7819 31.3612 18.669 31.3445 18.5623 31.3711C18.4555 31.3978 18.3638 31.4658 18.3071 31.5601L15.5323 35.4738C15.4997 35.5192 15.4774 35.5711 15.4668 35.6259C15.4563 35.6808 15.4579 35.7372 15.4715 35.7914C15.485 35.8456 15.5102 35.8962 15.5452 35.9397C15.5803 35.9831 15.6245 36.0184 15.6746 36.043L15.888 36.0424ZM32.4652 36.0424C32.5648 36.0455 32.6634 36.0209 32.7499 35.9712C32.8354 35.9072 32.8962 35.8155 32.9222 35.7119C32.9481 35.6082 32.9374 35.4987 32.8922 35.402L30.1174 31.489C29.9751 31.2755 29.6905 31.2043 29.5482 31.3466C29.4059 31.489 29.2635 31.7736 29.4059 31.9159L32.1806 35.8289C32.1806 35.9712 32.3229 36.0424 32.4652 36.0424Z" fill="white"/>
<path d="M31.7538 35.1175C31.8535 35.1206 31.952 35.0959 32.0384 35.0463C32.124 34.9822 32.1849 34.8906 32.2108 34.787C32.2367 34.6833 32.2261 34.5738 32.1808 34.4771L30.1176 31.56C29.9753 31.3465 29.6907 31.2754 29.5484 31.4177C29.4061 31.56 29.2638 31.8446 29.4061 31.9869L31.4692 34.904C31.4692 35.0463 31.6115 35.1175 31.7538 35.1175ZM15.6746 18.5402H32.7499C32.8606 18.5327 32.9648 18.4854 33.0433 18.407C33.1218 18.3285 33.1692 18.2242 33.1768 18.1135C33.1693 18.0027 33.1218 17.8984 33.0433 17.82C32.9648 17.7415 32.8606 17.6941 32.7499 17.6866H15.6746C15.5638 17.6941 15.4595 17.7415 15.381 17.82C15.3025 17.8984 15.2552 18.0027 15.2477 18.1135C15.2453 18.1702 15.2547 18.2267 15.2753 18.2796C15.296 18.3325 15.3273 18.3805 15.3675 18.4206C15.4076 18.4607 15.4556 18.492 15.5085 18.5127C15.5614 18.5333 15.6179 18.5427 15.6746 18.5402ZM15.6746 24.0185H32.7499C32.8616 24.0164 32.968 23.9704 33.0463 23.8906C33.1245 23.8108 33.1683 23.7034 33.1683 23.5917C33.1683 23.48 33.1245 23.3726 33.0463 23.2929C32.968 23.2131 32.8616 23.1671 32.7499 23.1649H15.6746C15.5638 23.1724 15.4595 23.2198 15.381 23.2983C15.3025 23.3767 15.2552 23.481 15.2477 23.5918C15.2453 23.6485 15.2547 23.705 15.2753 23.7579C15.296 23.8107 15.3273 23.8587 15.3675 23.8989C15.4076 23.939 15.4556 23.9704 15.5085 23.991C15.5614 24.0116 15.6179 24.021 15.6746 24.0185Z" fill="white"/>
<path d="M28.6945 24.0186C28.8368 24.0186 28.9079 24.0186 28.9791 23.8763C29.0247 23.8465 29.0634 23.807 29.0923 23.7607C29.1212 23.7144 29.1397 23.6623 29.1464 23.6082C29.1532 23.5541 29.1481 23.499 29.1315 23.4471C29.1149 23.395 29.0871 23.3473 29.0503 23.3071L27.0581 21.1016C26.9158 20.9593 26.6311 20.8882 26.4888 21.1016C26.3465 21.2439 26.2754 21.5286 26.4888 21.6709L28.481 23.8763C28.481 23.9475 28.6228 24.0186 28.6945 24.0186ZM26.1332 24.0186C26.2755 24.0186 26.3466 24.0186 26.4178 23.8763C26.5601 23.734 26.6312 23.4494 26.4178 23.3071L22.4335 18.8249C22.2911 18.6826 22.0065 18.6115 21.8642 18.8249C21.7219 18.9672 21.6507 19.2519 21.8642 19.3943L25.8486 23.8763C25.8824 23.9197 25.9255 23.955 25.9747 23.9797C26.0239 24.0042 26.0782 24.0176 26.1332 24.0186ZM17.9513 33.2677H30.4019C30.4586 33.2688 30.515 33.2586 30.5678 33.2376C30.6206 33.2167 30.6687 33.1854 30.7092 33.1457C30.7497 33.106 30.7819 33.0585 30.8039 33.0061C30.826 32.9538 30.8373 32.8976 30.8373 32.8408C30.8373 32.784 30.826 32.7278 30.8039 32.6755C30.7819 32.6232 30.7497 32.5757 30.7092 32.5359C30.6687 32.4962 30.6206 32.4649 30.5678 32.4439C30.515 32.4231 30.4586 32.4129 30.4019 32.4139H17.9511C17.8405 32.4216 17.7362 32.4689 17.6577 32.5474C17.5792 32.6259 17.5318 32.7302 17.5242 32.8409C17.5219 32.8976 17.5313 32.9542 17.5519 33.0071C17.5726 33.0599 17.6039 33.1079 17.6441 33.148C17.6842 33.1881 17.7323 33.2195 17.7852 33.2401C17.838 33.2607 17.8947 33.2701 17.9513 33.2677ZM16.5995 35.1176H31.7536C31.8104 35.1187 31.8668 35.1084 31.9196 35.0875C31.9724 35.0665 32.0204 35.0353 32.061 34.9956C32.1015 34.9559 32.1337 34.9084 32.1558 34.856C32.1777 34.8037 32.1891 34.7475 32.1891 34.6907C32.1891 34.6339 32.1777 34.5777 32.1558 34.5254C32.1337 34.473 32.1015 34.4256 32.061 34.3858C32.0204 34.3461 31.9724 34.3148 31.9196 34.2938C31.8668 34.2729 31.8104 34.2627 31.7536 34.2638H16.5994C16.4888 34.2714 16.3847 34.3187 16.3063 34.397C16.2279 34.4753 16.1803 34.5794 16.1726 34.69C16.1015 34.9041 16.3149 35.1176 16.5995 35.1176Z" fill="white"/>
<path d="M24.1409 41.3072C33.8168 41.3072 41.643 33.5523 41.643 23.9475C41.643 14.4138 33.8169 6.58777 24.2121 6.58777C14.6073 6.58777 6.78126 14.3427 6.78126 23.9475C6.77836 26.228 7.22539 28.4867 8.09676 30.5942C8.96813 32.7016 10.2467 34.6166 11.8593 36.2291C13.4719 37.8417 15.3867 39.1203 17.4942 39.9916C19.6017 40.8631 21.8603 41.3101 24.1409 41.3072ZM24.1409 7.44146C33.3186 7.44146 40.718 14.8407 40.718 23.9475C40.718 33.0542 33.2483 40.4535 24.1409 40.4535C15.0333 40.4535 7.56364 33.0544 7.56364 23.9475C7.56364 14.8407 15.0343 7.44146 24.1409 7.44146Z" fill="white"/>
</g>
<defs>
<clipPath id="clip0_1084_121">
<rect width="48" height="48" fill="white"/>
</clipPath>
</defs>
</svg>
