<svg width="118" height="29" viewBox="0 0 118 29" fill="none" xmlns="http://www.w3.org/2000/svg">
<path d="M13.0588 5.51265L12.5647 5.65382V7.41853C12.5647 8.33618 12 9.11265 11.1529 9.395L6.28235 10.9479V13.5597L12.6353 11.5832C14.1176 11.0891 15.0353 9.81853 15.0353 8.12441V6.92441C15.1059 6.07735 14.1882 5.15971 13.0588 5.51265Z" fill="#1B83C9"/>
<path d="M2.89417 4.73609L11.9295 1.91256C12.9177 1.6302 13.6942 1.6302 14.1883 1.70079L12.9883 0.853733C12.4942 0.500792 10.8706 -0.416855 8.89417 0.218439L0.423584 2.90079L2.89417 4.73609Z" fill="#1B83C9"/>
<path d="M16.5883 12.5009C16.5883 12.5009 18.2118 11.0891 18.2118 7.98326V6.64208C18.2118 4.59503 15.8824 1.27738 12.0706 2.47738L3.10594 5.30091V21.8891L5.64711 21.1127V17.0186L13.6942 14.4774C15.1765 13.9833 16.4471 15.1833 16.4471 16.5244V18.148C16.4471 19.7715 14.9648 22.1009 12.7059 22.8068L0.423584 26.6891L2.89417 28.5244L14.0471 24.995C16.3765 24.2186 18.9883 22.2421 18.9883 17.9362V16.3127C18.9883 13.7715 16.5883 12.5009 16.5883 12.5009ZM12.8471 12.148L5.64711 14.4068V7.1362L12.8471 4.87738C14.3295 4.38326 15.6706 5.58326 15.6706 6.85385V8.05385C15.6706 10.1009 14.6118 11.5833 12.8471 12.148Z" fill="#F4C84D"/>
<path d="M15.8824 18.148V16.5244C15.8824 15.6068 15.0353 14.7597 13.9059 15.1127L13.3412 15.3244V17.5833C13.3412 18.7127 12.6353 19.6303 11.5765 19.9833L2.54118 22.7362V5.23031L0 3.39502V26.1244L12.5647 22.1715C14.5412 21.6068 15.8824 19.5597 15.8824 18.148Z" fill="#1B83C9"/>
<path fill-rule="evenodd" clip-rule="evenodd" d="M33.1059 23.089C31.7647 23.089 30.7059 22.6655 29.9294 21.8184V22.8772H27.5294V7.77134L29.9294 6.99487V12.9949C30.7059 12.1478 31.7647 11.7949 33.1059 11.7949C34.6588 11.7949 36 12.3596 36.9882 13.4184C38.0471 14.5478 38.5412 15.889 38.5412 17.4419C38.5412 18.9949 38.0471 20.336 36.9882 21.4655C36 22.5949 34.6588 23.089 33.1059 23.089ZM32.8235 20.9008C33.7412 20.9008 34.5177 20.5478 35.1529 19.9125C35.7882 19.2066 36.0706 18.4302 36.0706 17.4419C36.0706 16.4537 35.7882 15.6772 35.1529 14.9713C34.5177 14.2655 33.7412 13.9831 32.8235 13.9831C31.5529 13.9831 30.6353 14.4772 29.9294 15.4655V19.4184C30.6353 20.4066 31.5529 20.9008 32.8235 20.9008Z" fill="#404040"/>
<path fill-rule="evenodd" clip-rule="evenodd" d="M42 10.03C41.5765 10.03 41.2235 9.88884 40.8706 9.5359C40.5882 9.25355 40.3765 8.83002 40.3765 8.40649C40.3765 7.98296 40.5176 7.63002 40.8706 7.27708C41.1529 6.99472 41.5765 6.78296 42 6.78296C42.4235 6.78296 42.8471 6.92414 43.1294 7.27708C43.4118 7.55943 43.6235 7.98296 43.6235 8.40649C43.6235 8.83002 43.4823 9.25355 43.1294 9.5359C42.8471 9.88884 42.4235 10.03 42 10.03ZM40.8 22.8771H43.2V12.0065H40.8V22.8771Z" fill="#404040"/>
<path fill-rule="evenodd" clip-rule="evenodd" d="M51.3883 23.0183C50.2589 23.0183 49.3412 22.7359 48.6353 22.1006C47.9295 21.4653 47.5765 20.6183 47.5765 19.4183V14.1948H44.8942V12.0771H47.5765V9.67711L49.9765 8.90063V12.0771H53.2942V14.1948H49.9765V19.0653C49.9765 20.3359 50.5412 20.9006 51.6706 20.9006C52.2353 20.9006 52.8 20.7595 53.2236 20.4771L53.9295 22.4536C53.2236 22.8065 52.3059 23.0183 51.3883 23.0183Z" fill="#404040"/>
<path fill-rule="evenodd" clip-rule="evenodd" d="M55.553 27.889V12.0067H57.953V12.9949C58.7295 12.1479 59.7883 11.7949 61.1295 11.7949C62.6824 11.7949 64.0236 12.3596 65.0118 13.4185C66.0706 14.5479 66.5647 15.889 66.5647 17.442C66.5647 18.9949 66.0706 20.3361 65.0118 21.4655C63.953 22.5949 62.6824 23.089 61.1295 23.089C59.7883 23.089 58.7295 22.6655 57.953 21.8185V27.042L55.553 27.889ZM60.8471 20.9008C61.7647 20.9008 62.5412 20.5479 63.1765 19.9126C63.8118 19.2067 64.0942 18.4302 64.0942 17.442C64.0942 16.4537 63.8118 15.6773 63.1765 14.9714C62.5412 14.2655 61.7647 13.9832 60.8471 13.9832C59.5765 13.9832 58.5883 14.4773 57.953 15.4655V19.4185C58.5883 20.4067 59.5765 20.9008 60.8471 20.9008Z" fill="#404040"/>
<path fill-rule="evenodd" clip-rule="evenodd" d="M73.4824 23.089C71.9295 23.089 70.5883 22.5243 69.6001 21.4655C68.6118 20.3361 68.0471 18.9949 68.0471 17.442C68.0471 15.889 68.5412 14.5479 69.6001 13.4185C70.5883 12.289 71.9295 11.7949 73.4824 11.7949C74.8236 11.7949 75.8824 12.2185 76.6589 12.9949V12.0067H79.0589V22.8773H76.6589V21.8185C75.8824 22.6655 74.8236 23.089 73.4824 23.089ZM73.7648 20.9008C75.0354 20.9008 75.953 20.4067 76.6589 19.3479V15.3949C75.953 14.4067 74.9648 13.9126 73.7648 13.9126C72.8471 13.9126 72.0706 14.2655 71.4354 14.9008C70.8001 15.6067 70.5177 16.3832 70.5177 17.3714C70.5177 18.3596 70.8001 19.1361 71.4354 19.842C72.0706 20.5479 72.8471 20.9008 73.7648 20.9008Z" fill="#404040"/>
<path fill-rule="evenodd" clip-rule="evenodd" d="M81.6707 22.8773V12.0067H84.0707V13.1361C84.8471 12.2185 85.9059 11.7949 87.2471 11.7949C88.5177 11.7949 89.5765 12.2185 90.353 13.0655C91.1295 13.9126 91.553 15.042 91.553 16.3832V22.8773H89.153V16.7361C89.153 15.8185 88.9412 15.1832 88.5177 14.689C88.0942 14.1949 87.5295 13.9832 86.753 13.9832C85.4824 13.9832 84.5648 14.5479 84.0707 15.6773V22.8773H81.6707Z" fill="#404040"/>
<path fill-rule="evenodd" clip-rule="evenodd" d="M99.0354 23.089C97.4824 23.089 96.1413 22.5243 95.153 21.4655C94.1648 20.3361 93.6001 18.9949 93.6001 17.442C93.6001 15.889 94.0942 14.5478 95.153 13.4184C96.1413 12.289 97.4824 11.7949 99.0354 11.7949C100.377 11.7949 101.435 12.2184 102.212 12.9949V7.70079L104.612 6.92432V22.8067H102.212V21.7478C101.435 22.6655 100.377 23.089 99.0354 23.089ZM99.3177 20.9008C100.588 20.9008 101.506 20.4067 102.212 19.3478V15.3949C101.506 14.4067 100.518 13.9126 99.3177 13.9126C98.4001 13.9126 97.6236 14.2655 96.9883 14.9008C96.353 15.6067 96.0707 16.3831 96.0707 17.3714C96.0707 18.3596 96.353 19.1361 96.9883 19.842C97.6236 20.5478 98.4001 20.9008 99.3177 20.9008Z" fill="#404040"/>
<path fill-rule="evenodd" clip-rule="evenodd" d="M112.306 23.089C110.753 23.089 109.412 22.5243 108.424 21.4655C107.435 20.3361 106.871 18.9949 106.871 17.442C106.871 15.889 107.365 14.5479 108.424 13.4185C109.412 12.289 110.753 11.7949 112.306 11.7949C113.647 11.7949 114.706 12.2185 115.482 12.9949V12.0067H117.882V22.8773H115.482V21.8185C114.706 22.6655 113.647 23.089 112.306 23.089ZM112.588 20.9008C113.859 20.9008 114.776 20.4067 115.482 19.3479V15.3949C114.776 14.4067 113.788 13.9126 112.588 13.9126C111.671 13.9126 110.894 14.2655 110.259 14.9008C109.624 15.6067 109.341 16.3832 109.341 17.3714C109.341 18.3596 109.624 19.1361 110.259 19.842C110.894 20.5479 111.671 20.9008 112.588 20.9008Z" fill="#404040"/>
</svg>
