<svg width="30" height="45" viewBox="0 0 30 45" fill="none" xmlns="http://www.w3.org/2000/svg">
<path fill-rule="evenodd" clip-rule="evenodd" d="M22.9661 19.2171C22.4968 20.7849 21.2471 23.1209 19.3141 26.0446C14.1238 33.894 13.7936 38.6392 18.0808 43.768L18.9619 44.8221L19.5685 44.1166C19.902 43.7283 21.2921 42.6839 22.6575 41.7953C25.3477 40.0448 26.5402 38.7351 27.7703 36.1809C28.7402 34.1668 29.1183 32.4103 29.0927 30.0384C29.066 27.5865 28.5461 25.4644 27.4281 23.2441C26.5744 21.549 24.4923 18.8521 23.717 18.4372C23.3316 18.231 23.2297 18.3368 22.9661 19.2171Z" fill="#008DD4"/>
<path fill-rule="evenodd" clip-rule="evenodd" d="M13.4431 2.73517C13.2684 5.9525 12.9111 7.39125 11.6275 10.047C10.4829 12.4152 9.27576 14.0609 6.08796 17.599C4.75547 19.0777 3.31576 20.7955 2.88878 21.4161C-1.43956 27.7072 -0.853556 35.7094 4.30792 40.7898C6.46677 42.915 8.28432 43.8559 12.3689 44.9632C13.0505 45.1482 12.8646 44.643 11.7452 43.2689C8.25213 38.9803 8.00354 33.1229 11.0979 28.0168C11.5312 27.3021 12.8835 25.4547 14.1032 23.9114C18.1617 18.7758 19.1347 16.5712 19.1437 12.4898C19.1495 9.87371 18.7697 8.03123 17.7492 5.72376C16.9947 4.01755 15.5449 1.86839 14.4268 0.798766L13.5918 0L13.4431 2.73517Z" fill="#02007E"/>
</svg>
