<svg width="120" height="23" viewBox="0 0 120 23" fill="none" xmlns="http://www.w3.org/2000/svg">
<path d="M119.689 10.4436L111.965 0.468625C111.764 0.200839 111.36 0 111.025 0H75.4286V22.2858H111.428C111.764 22.2858 112.032 22.1519 112.234 21.8841L119.756 12.2512C120.092 11.7156 120.092 10.9792 119.689 10.4436ZM92.2863 18.3433H80.197V3.81594H92.018V7.49799H85.033V9.17163H91.2118V12.7198H85.033V14.5943H92.2863V18.3433ZM103.973 18.3433L101.488 14.4604L99.003 18.3433H93.4284L98.6672 11.0461L93.5629 3.88289H99.0699L101.555 7.56493L103.973 3.88289H109.279L104.242 10.9122L109.614 18.4102H103.973V18.3433Z" fill="#404040"/>
<path fill-rule="evenodd" clip-rule="evenodd" d="M80.1779 18.3438H92.2671V14.5948H85.0131V12.7203H91.1926V9.17214H85.0131V7.49846H91.9981V3.81641H80.1779V18.3438ZM101.469 14.4609L103.954 18.3438V18.4107H109.595L104.222 10.9127L109.259 3.88335H103.954L101.536 7.5654L99.0507 3.88335H93.543L98.6472 11.0466L93.4084 18.3438H98.9831L101.469 14.4609Z" fill="white"/>
<path opacity="0.95" fill-rule="evenodd" clip-rule="evenodd" d="M3.18803 13.7435C3.28924 14.4737 3.48803 15.0194 3.7844 15.3809C4.3266 16.0388 5.25551 16.3676 6.57118 16.3676C7.35915 16.3676 7.99892 16.2809 8.49048 16.1075C9.42307 15.7749 9.8894 15.1568 9.8894 14.2532C9.8894 13.7254 9.65802 13.317 9.19535 13.0279C8.73268 12.746 8.00617 12.4965 7.01579 12.2796L5.32419 11.9001C3.6615 11.5242 2.5121 11.1158 1.87594 10.6747C0.798794 9.9374 0.260224 8.78435 0.260224 7.2157C0.260224 5.78432 0.780716 4.59519 1.82171 3.64816C2.8627 2.70118 4.39161 2.22766 6.40854 2.22766C8.09292 2.22766 9.52972 2.67404 10.7186 3.56684C11.9079 4.45965 12.5315 5.75542 12.5895 7.45427H9.37969C9.32183 6.49279 8.90253 5.80965 8.12181 5.40481C7.60134 5.13734 6.95436 5.0036 6.18084 5.0036C5.32056 5.0036 4.6338 5.17712 4.12056 5.5241C3.60726 5.87108 3.35067 6.35542 3.35067 6.97713C3.35067 7.54822 3.60369 7.97474 4.10969 8.25666C4.43501 8.44465 5.12898 8.66512 6.19167 8.91815L8.94599 9.57964C10.153 9.8688 11.0641 10.2555 11.6784 10.7399C12.633 11.4917 13.11 12.5796 13.11 14.0038C13.11 15.464 12.5517 16.6767 11.4344 17.6418C10.3177 18.6069 8.73993 19.0894 6.70134 19.0894C4.61936 19.0894 2.98199 18.6141 1.78918 17.6635C0.596376 16.7128 0 15.4062 0 13.7435H3.18803ZM14.1185 9.16751V6.9663H15.7666V3.66986H18.8246V6.9663H20.7437V9.16751H18.8246V15.4134C18.8246 15.8977 18.8858 16.1995 19.0085 16.3189C19.1318 16.4382 19.5073 16.4978 20.1366 16.4978C20.2304 16.4978 20.3298 16.496 20.4345 16.4924C20.5396 16.4887 20.6427 16.4833 20.7437 16.4761V18.7858L19.2799 18.84C17.8198 18.8906 16.8223 18.6376 16.2872 18.0809C15.9401 17.7267 15.7666 17.1809 15.7666 16.4436V9.16751H14.1185ZM27.3907 9.09166C26.6754 9.09166 26.1201 9.31579 25.7265 9.76397C25.3322 10.2122 25.0847 10.8194 24.9837 11.5857H29.7873C29.7365 10.7688 29.4889 10.1489 29.0445 9.72601C28.6001 9.30305 28.0485 9.09166 27.3907 9.09166ZM27.3907 6.54339C28.3737 6.54339 29.2594 6.72773 30.0473 7.09641C30.8356 7.46509 31.4861 8.04701 31.9994 8.84222C32.4619 9.54342 32.7619 10.3567 32.8991 11.282C32.9789 11.8242 33.0115 12.6049 32.997 13.6243H24.9075C24.9511 14.8098 25.3235 15.6411 26.0248 16.1183C26.4511 16.4147 26.9644 16.5629 27.5642 16.5629C28.2007 16.5629 28.7171 16.3821 29.1149 16.0207C29.332 15.8255 29.5236 15.5544 29.6898 15.2074H32.8453C32.7655 15.9086 32.4003 16.6207 31.7498 17.3436C30.7377 18.493 29.3211 19.0677 27.4994 19.0677C25.9958 19.0677 24.6693 18.5833 23.5195 17.6147C22.3701 16.646 21.7957 15.0701 21.7957 12.8868C21.7957 10.841 22.3141 9.27233 23.3516 8.18073C24.3891 7.08916 25.7352 6.54339 27.3907 6.54339ZM41.5956 12.9303C41.4009 13.0531 41.2035 13.1525 41.0052 13.2285C40.8063 13.3043 40.5333 13.3748 40.1863 13.4399L39.4922 13.57C38.8417 13.6857 38.3755 13.8267 38.0932 13.9929C37.6162 14.2749 37.3779 14.7122 37.3779 15.305C37.3779 15.8327 37.524 16.214 37.8171 16.449C38.1098 16.6839 38.4657 16.8014 38.8852 16.8014C39.5503 16.8014 40.163 16.6062 40.7229 16.2159C41.2833 15.8255 41.5744 15.1134 41.5956 14.0797V12.9303ZM39.7201 11.4881C40.2909 11.4157 40.6996 11.3254 40.9451 11.217C41.3864 11.029 41.6065 10.7363 41.6065 10.3386C41.6065 9.85431 41.4387 9.51994 41.1025 9.33561C40.7664 9.15127 40.2728 9.0591 39.6222 9.0591C38.8924 9.0591 38.3755 9.23986 38.072 9.60129C37.8549 9.86879 37.7104 10.2302 37.6379 10.6856H34.6561C34.7213 9.65183 35.0103 8.80242 35.5236 8.13743C36.3405 7.09641 37.7426 6.57591 39.731 6.57591C41.0249 6.57591 42.1742 6.83256 43.179 7.34581C44.1839 7.8591 44.6863 8.82781 44.6863 10.252V15.6737C44.6863 16.0496 44.6936 16.505 44.7081 17.04C44.7298 17.4448 44.7909 17.7195 44.8924 17.8641C44.9934 18.0087 45.1452 18.1279 45.3477 18.2219V18.6773H41.9862C41.8924 18.4388 41.8272 18.2147 41.7909 18.005C41.7552 17.7954 41.7261 17.5568 41.7044 17.2893C41.2776 17.7521 40.7861 18.146 40.2298 18.4713C39.5647 18.8545 38.8127 19.046 37.9741 19.046C36.9045 19.046 36.0204 18.7406 35.3226 18.1297C34.6255 17.5189 34.2764 16.6532 34.2764 15.5327C34.2764 14.0797 34.8368 13.0279 35.9572 12.3772C36.572 12.023 37.4753 11.77 38.6681 11.6181L39.7201 11.4881ZM50.5853 18.6773H47.4947V2.69393H50.5853V18.6773ZM52.3852 9.16751V6.9663H54.0334V3.66986H57.0914V6.9663H59.0104V9.16751H57.0914V15.4134C57.0914 15.8977 57.153 16.1995 57.2758 16.3189C57.3985 16.4382 57.7745 16.4978 58.4034 16.4978C58.4976 16.4978 58.5966 16.496 58.7017 16.4924C58.8064 16.4887 58.9094 16.4833 59.0104 16.4761V18.7858L57.5467 18.84C56.0866 18.8906 55.0889 18.6376 54.5539 18.0809C54.2069 17.7267 54.0334 17.1809 54.0334 16.4436V9.16751H52.3852ZM67.5122 6.55426C68.242 6.55426 68.9055 6.68075 69.5016 6.93377C70.0983 7.1868 70.5878 7.57355 70.9711 8.09405C71.2964 8.53499 71.4953 8.98859 71.5673 9.45492C71.6398 9.92117 71.676 10.682 71.676 11.7375V18.6773H68.5207V11.4881C68.5207 10.8519 68.4119 10.3387 68.1954 9.94831C67.9131 9.39888 67.378 9.12413 66.5902 9.12413C65.7734 9.12413 65.1534 9.39705 64.7307 9.94282C64.3076 10.4887 64.0962 11.2675 64.0962 12.2796V18.6773H61.0165V2.74815H64.0962V8.39762C64.5442 7.71086 65.0633 7.23196 65.6522 6.96086C66.2416 6.68976 66.8616 6.55426 67.5122 6.55426Z" fill="#404040"/>
</svg>
