<?xml version="1.0" encoding="UTF-8" standalone="no"?>
<!DOCTYPE svg PUBLIC "-//W3C//DTD SVG 1.1//EN" "http://www.w3.org/Graphics/SVG/1.1/DTD/svg11.dtd">
<svg width="100%" height="100%" viewBox="0 0 3600 3600" version="1.1" xmlns="http://www.w3.org/2000/svg" xmlns:xlink="http://www.w3.org/1999/xlink" xml:space="preserve" xmlns:serif="http://www.serif.com/" style="fill-rule:evenodd;clip-rule:evenodd;stroke-linejoin:round;stroke-miterlimit:2;">
    <g transform="matrix(1,0,0,1,-2.27374e-13,95.7107)">
        <g transform="matrix(1,0,0,0.986783,-0.810072,11.7184)">
            <path d="M712.146,885.97L2889.47,886.628C2889.47,886.628 2686.28,807.133 2403.46,753.314C2213.27,717.121 1958.55,699.442 1812.64,699.397C1617.12,699.338 1085.72,795.622 1085.72,795.622L712.146,885.97Z" style="fill:rgb(243,106,43);"/>
        </g>
        <g transform="matrix(1,0,0,1,4.82789,0)">
            <path d="M708.036,1087.05L1558.69,1087.26L1791.1,2706.71L1364.79,1202.18L708.036,1087.05Z" style="fill:rgb(243,106,43);"/>
        </g>
        <g transform="matrix(-1,0,0,1,3595.17,0)">
            <path d="M708.036,1087.05L1558.69,1087.26L1791.1,2706.71L1364.79,1202.18L708.036,1087.05Z" style="fill:rgb(243,106,43);"/>
        </g>
        <g transform="matrix(1,0,0,1,8.31291,0)">
            <path d="M690.251,1132.67C678.845,1130.59 336.879,1721.46 336.879,1721.46C319.974,1747.12 382.635,1838.21 485.611,1888.49C558.773,1924.21 682.726,1926.08 727.245,1925.69C772.583,1925.29 891.993,1917.12 967.767,1880.29C1067.4,1831.87 1147.69,1762.15 1108.46,1699.83C1054.2,1613.62 849.392,1287.36 849.392,1287.36L1053.11,1733.83L405.314,1733.95C405.314,1733.95 701.657,1134.75 690.251,1132.67Z" style="fill:rgb(243,106,43);"/>
        </g>
        <g transform="matrix(-1,0,0,1,3591.69,0)">
            <path d="M690.251,1132.67C678.845,1130.59 336.879,1721.46 336.879,1721.46C319.974,1747.12 382.635,1838.21 485.611,1888.49C558.773,1924.21 682.726,1926.08 727.245,1925.69C772.583,1925.29 891.993,1917.12 967.767,1880.29C1067.4,1831.87 1147.69,1762.15 1108.46,1699.83C1054.2,1613.62 849.392,1287.36 849.392,1287.36L1053.11,1733.83L405.314,1733.95C405.314,1733.95 701.657,1134.75 690.251,1132.67Z" style="fill:rgb(243,106,43);"/>
        </g>
    </g>
</svg>
