<svg width="120" height="31" viewBox="0 0 120 31" fill="none" xmlns="http://www.w3.org/2000/svg">
<path d="M31.9999 16.024C31.9999 15.699 31.9902 15.3741 31.9705 15.0494C31.9508 14.7251 31.9214 14.4012 31.882 14.0786C31.8426 13.7559 31.7935 13.4347 31.7347 13.1147C31.6759 12.7951 31.6071 12.4775 31.529 12.1619C31.4508 11.8463 31.363 11.5333 31.2658 11.223C31.1686 10.9128 31.0621 10.6059 30.9462 10.3023C30.8303 9.99835 30.7051 9.69844 30.5711 9.40253C30.4369 9.10629 30.2939 8.81473 30.142 8.52718C29.99 8.23996 29.8297 7.95741 29.6607 7.67987C29.4914 7.402 29.314 7.12981 29.1287 6.8633C28.943 6.59645 28.7493 6.33561 28.5479 6.08045C28.3465 5.82563 28.1374 5.57681 27.9207 5.33468C27.7043 5.09221 27.4805 4.85709 27.2494 4.62831C27.0186 4.39987 26.7808 4.17844 26.5367 3.96436C26.2922 3.75028 26.0414 3.54355 25.7846 3.34483C25.5277 3.14612 25.2649 2.95508 24.9964 2.7724C24.7279 2.58938 24.454 2.41504 24.1748 2.24905C23.8956 2.08273 23.6117 1.92543 23.3228 1.77647C23.0342 1.62752 22.7413 1.48791 22.4441 1.357C22.1469 1.22574 21.846 1.10417 21.541 0.991623C21.2364 0.878738 20.9288 0.775539 20.6179 0.681691C20.307 0.587843 19.9934 0.50368 19.6774 0.428869C19.3615 0.354392 19.0432 0.289266 18.7233 0.233826C18.4033 0.178385 18.082 0.132964 17.7591 0.0972286C17.4364 0.0614929 17.1128 0.0354426 16.7885 0.0194117C16.4642 0.00338071 16.1396 -0.00263092 15.815 0.00104286C15.4903 0.0050506 15.1661 0.0187437 14.8421 0.0421222C14.5181 0.0655006 14.1952 0.0988985 13.8732 0.142316C13.5516 0.185399 13.2313 0.238501 12.9127 0.301289C12.5941 0.363743 12.2775 0.436217 11.9632 0.518375C11.6493 0.6002 11.3377 0.69171 11.0291 0.792906C10.7205 0.893767 10.4149 1.00431 10.113 1.12388C9.81104 1.24344 9.51313 1.37236 9.2189 1.50996C8.92466 1.64789 8.6351 1.79451 8.34989 1.94981C8.06467 2.10544 7.78446 2.26942 7.50926 2.44209C7.23407 2.61442 6.96421 2.79511 6.70003 2.98414C6.43586 3.17317 6.17736 3.37022 5.9252 3.57495C5.67305 3.77967 5.42724 3.99175 5.18778 4.21151C4.94832 4.43127 4.71587 4.65804 4.49043 4.89182C4.26466 5.12594 4.04658 5.36641 3.8355 5.61355C3.62443 5.86069 3.42137 6.11418 3.22566 6.37368C3.03028 6.63319 2.84292 6.8987 2.66324 7.16955C2.48389 7.44074 2.31289 7.71695 2.15025 7.99849C1.9876 8.2797 1.83397 8.56592 1.68869 8.85681C1.54341 9.14771 1.40714 9.44261 1.2799 9.74186C1.15265 10.0408 1.03443 10.3437 0.925882 10.6499C0.817005 10.9562 0.71748 11.2655 0.627305 11.5781C0.537465 11.8903 0.456977 12.2053 0.385839 12.5226C0.315036 12.8398 0.253918 13.1591 0.202485 13.4801C0.150718 13.801 0.109305 14.1233 0.0772432 14.4469C0.0455153 14.7706 0.0234726 15.0949 0.0111154 15.4198C-0.000907786 15.7448 -0.00324566 16.0697 0.00443587 16.3947C0.0117833 16.7197 0.0294843 17.0443 0.0568705 17.3683C0.0839227 17.6922 0.121328 18.0152 0.168085 18.3368C0.215176 18.6584 0.271953 18.9787 0.33808 19.2966C0.404542 19.6149 0.480689 19.9309 0.566187 20.2448C0.65202 20.5584 0.747204 20.869 0.851739 21.1769C0.956274 21.4849 1.06983 21.7891 1.19306 22.09C1.31597 22.391 1.44789 22.6879 1.58916 22.9808C1.7301 23.2733 1.88006 23.5619 2.0387 23.8454C2.19734 24.1293 2.36433 24.4078 2.54 24.6814C2.71567 24.9549 2.89936 25.2228 3.09106 25.4853C3.2831 25.7474 3.48282 26.0036 3.69022 26.2537C3.89762 26.5039 4.11237 26.7477 4.3348 26.9845C5.48268 28.4052 7.48221 30.5437 9.30239 30.8216C10.0973 30.9441 10.8905 30.9345 11.682 30.7928C11.7297 30.8019 11.7778 30.8019 11.8256 30.7928C11.8667 30.7825 11.9041 30.7645 11.9378 30.7384C12.2037 30.5671 12.4855 30.4281 12.7834 30.3213C13.2387 30.1236 12.908 29.9773 13.0179 29.8106C13.1278 29.644 13.6161 29.3661 13.7233 29.0759C13.8351 28.637 13.8559 28.1938 13.7854 27.7463C13.778 27.7319 13.7607 27.7022 13.7356 27.6601C13.3612 27.0329 12.886 26.4949 12.3102 26.046C11.5621 25.7695 10.8541 25.4131 10.1858 24.9776C9.51748 24.5421 8.90563 24.0378 8.35022 23.465C7.64653 22.7396 7.05672 21.9311 6.5808 21.0393L6.56845 21.015C6.49531 20.8757 6.42484 20.7351 6.35704 20.5928L6.34334 20.5648C6.20207 20.2642 6.07449 19.9562 5.96094 19.6413L5.94925 19.6049C5.90049 19.468 5.85473 19.3297 5.81132 19.1904C5.80096 19.156 5.79094 19.1216 5.78026 19.0872C5.74285 18.9623 5.70845 18.8374 5.67606 18.7128C5.6667 18.6784 5.65802 18.644 5.64934 18.6096C5.57152 18.2967 5.50773 17.9788 5.45797 17.6555C5.45096 17.6137 5.44595 17.572 5.44027 17.5309C5.4239 17.4127 5.40887 17.2938 5.39618 17.1742C5.3905 17.1211 5.3855 17.068 5.38049 17.0142C5.3698 16.9 5.36178 16.7845 5.35477 16.6686C5.35477 16.6185 5.34809 16.5687 5.34609 16.5193C5.33874 16.3556 5.33373 16.1913 5.33373 16.026C5.33373 15.8513 5.33807 15.6767 5.34642 15.502C5.3551 15.3276 5.36813 15.1533 5.38516 14.9793C5.40219 14.8056 5.42357 14.6323 5.44929 14.4593C5.47467 14.2863 5.50473 14.1143 5.53879 13.943C5.57252 13.7716 5.61093 13.601 5.65335 13.4316C5.69576 13.262 5.74218 13.0937 5.79295 12.9267C5.84371 12.7593 5.89815 12.5934 5.95693 12.429C6.01605 12.2644 6.07883 12.1014 6.1453 11.9401C6.21209 11.7785 6.28289 11.6188 6.35771 11.4608C6.43218 11.3029 6.51067 11.1469 6.59283 10.9929C6.67532 10.8386 6.76115 10.6867 6.85099 10.5367C6.9405 10.3871 7.03401 10.2395 7.13087 10.0942C7.22772 9.94892 7.32825 9.80598 7.43211 9.66571C7.53632 9.52544 7.64352 9.3875 7.7544 9.25258C7.86495 9.11732 7.97884 8.98506 8.09606 8.85581C8.21329 8.72623 8.33352 8.59965 8.45709 8.47608C8.58033 8.35251 8.70691 8.23194 8.83616 8.11471C8.96541 7.99749 9.09766 7.88327 9.23259 7.77239C9.36752 7.6615 9.50478 7.5543 9.64505 7.4501C9.78533 7.3459 9.92793 7.24537 10.0729 7.14818C10.2182 7.05133 10.3654 6.95781 10.5151 6.86797C10.665 6.77813 10.8167 6.69197 10.9706 6.60947C11.1246 6.52731 11.2802 6.44883 11.4382 6.37402C11.5958 6.29921 11.7555 6.2284 11.9168 6.16161C12.0778 6.09481 12.2407 6.03202 12.4051 5.97291C12.5694 5.91413 12.735 5.85936 12.902 5.80859C13.069 5.75783 13.237 5.7114 13.4063 5.66899C13.5756 5.62624 13.746 5.58817 13.917 5.5541C14.0883 5.52004 14.2603 5.48998 14.4326 5.46459C14.6053 5.43888 14.7786 5.4175 14.9523 5.40014C15.126 5.3831 15.3 5.37041 15.4743 5.36173C15.6486 5.35305 15.823 5.3487 15.9973 5.3487H16.0331C16.2719 5.34971 16.5106 5.35839 16.7488 5.37509C16.9872 5.39179 17.2247 5.4165 17.4615 5.44957C17.6979 5.4823 17.9334 5.52271 18.1672 5.57147C18.4013 5.61989 18.6331 5.67634 18.8632 5.74046C19.0936 5.80492 19.3211 5.87672 19.5465 5.95621C19.7719 6.0357 19.9944 6.12287 20.2138 6.21738C20.4332 6.3119 20.6493 6.41343 20.8621 6.52264C21.0745 6.63152 21.2832 6.74774 21.4883 6.87064C21.693 6.99388 21.8934 7.1238 22.0898 7.2604C22.2858 7.39666 22.4772 7.53994 22.6635 7.68922C22.8502 7.83885 23.0316 7.99415 23.2076 8.15579C23.3836 8.31777 23.5543 8.4851 23.7189 8.6581C23.8839 8.8311 24.0429 9.00978 24.1955 9.19346C24.3485 9.37749 24.4951 9.56618 24.6353 9.75989C24.7756 9.9536 24.9092 10.1516 25.0361 10.3544C25.163 10.5571 25.2829 10.7638 25.3958 10.9746C25.509 11.1853 25.6149 11.3994 25.7134 11.6175C25.8119 11.8352 25.9031 12.056 25.9869 12.2801C26.0708 12.5042 26.1473 12.7306 26.2157 12.9597C26.2842 13.1888 26.3453 13.4203 26.3981 13.6534C26.4512 13.8865 26.4966 14.1213 26.534 14.3578C26.5711 14.5939 26.6005 14.831 26.6218 15.0695C26.6432 15.3076 26.6569 15.5464 26.6623 15.7855C26.6676 16.0247 26.6649 16.2638 26.6542 16.5026C26.6436 16.7417 26.6248 16.9798 26.5981 17.2176C26.5714 17.4554 26.537 17.6919 26.4943 17.9273C26.4518 18.1628 26.4014 18.3966 26.3433 18.6284C26.2849 18.8605 26.2191 19.0902 26.1453 19.3177C26.0718 19.5455 25.9906 19.7702 25.9018 19.9923C25.8129 20.2144 25.7168 20.4332 25.6136 20.6489C25.51 20.8643 25.3995 21.0764 25.2819 21.2845C25.164 21.4925 25.0398 21.6966 24.9082 21.8963C24.8224 22.0269 24.7325 22.1548 24.6414 22.2817C24.5889 22.3535 24.5348 22.4227 24.481 22.4942C24.4343 22.5566 24.3889 22.6191 24.3414 22.6765C24.294 22.7339 24.2446 22.7931 24.1962 22.8518C24.138 22.921 24.0806 22.9904 24.0215 23.0586C23.9784 23.1083 23.9337 23.1558 23.8892 23.2045C23.8214 23.2793 23.754 23.3538 23.6842 23.4263C23.1495 23.9844 22.561 24.4783 21.9194 24.9085C21.2334 25.4499 20.2749 26.2641 20.6323 26.1622C21.5945 25.8894 21.2738 26.1622 21.2738 26.1622C21.2738 26.1622 20.6941 26.6518 20.4857 26.8666C20.4773 26.8739 20.4696 26.882 20.4626 26.8903L20.4556 26.8973C20.4249 26.9351 20.4038 26.9775 20.3935 27.0252C20.3785 27.0964 20.5074 27.0944 20.6209 27.1041L20.6703 27.3231C20.4406 27.4634 19.9219 27.5205 19.7392 27.6735C19.5198 27.8538 20.2873 27.7934 20.3304 27.7981C20.3734 27.8031 20.3504 27.8782 20.1433 27.9961C19.9363 28.114 20.1009 28.1517 20.1594 28.1978C20.2181 28.2439 20.4319 28.0679 20.5074 28.1173C20.5828 28.1668 20.2318 28.299 20.2899 28.4493C20.3334 28.5619 20.7358 28.5311 20.9395 28.5118L20.9516 28.5642C20.4439 28.8648 19.9062 29.0936 19.3381 29.2512C19.1848 29.2786 19.2429 29.3173 19.3712 29.3497C19.2927 29.3447 19.2142 29.3447 19.1354 29.3497L19.4229 29.3604H19.4286L19.4223 29.3681C19.3394 29.3791 19.2563 29.3821 19.1728 29.3768C19.1985 29.3825 19.2433 29.3885 19.2159 29.3961C19.3301 29.4028 19.4436 29.4072 19.5478 29.4028L19.6587 29.3961L19.7212 29.4015C20.0221 29.4162 20.321 29.3992 20.6186 29.3504C20.9302 29.3043 20.9602 29.2392 21.0868 29.316C21.2134 29.3928 20.8086 29.5434 20.5798 29.5828C20.4549 29.6046 20.472 29.6333 20.5461 29.649C20.4596 29.6466 20.3748 29.6577 20.2916 29.682C20.1894 29.7158 20.2569 29.7128 20.3504 29.7051C20.4439 29.6977 20.5511 29.682 20.5618 29.6984C20.5618 29.6864 20.6239 29.6627 20.5287 29.67L20.5909 29.6557C20.656 29.6633 20.7204 29.6617 20.7849 29.6506C20.8474 29.6396 20.9906 29.6009 21.171 29.5501L21.1853 29.6126L21.3019 29.5708C21.3974 29.5334 21.4959 29.4973 21.5958 29.4616C21.6953 29.4259 21.7972 29.3905 21.9007 29.3554C22.0043 29.3203 22.1058 29.2769 22.2123 29.2368L22.4568 29.1427C22.6027 29.0932 22.6889 29.0712 22.7687 29.0408C22.6979 29.0832 22.6248 29.1213 22.5496 29.1557C22.4832 29.1867 22.4144 29.2211 22.3519 29.2505C22.2988 29.2739 22.2484 29.302 22.2006 29.3354C22.1923 29.3153 22.1208 29.3404 22.0403 29.3741C22.1943 29.3203 22.0814 29.3928 22.1028 29.4022C22.4438 29.2773 22.2848 29.306 22.38 29.2492C22.4601 29.2078 22.5433 29.1737 22.6295 29.1477L22.5393 29.2038C22.6465 29.1463 22.7584 29.0989 22.8739 29.0615L22.9307 29.0228L22.9457 29.0164C22.9932 28.9964 23.0423 28.979 23.0887 28.954C23.0793 28.9366 23.0486 28.9483 23.0039 28.969C23.0219 28.956 23.0399 28.9433 23.058 28.9302C22.9795 28.976 22.8963 29.0107 22.8085 29.0345L22.9882 28.9239C23.0873 28.8815 23.2026 28.8234 23.3191 28.7649C23.3509 28.7686 23.3782 28.7816 23.401 28.804L23.3699 28.821L23.401 28.8047C23.4263 28.8311 23.4444 28.8621 23.4547 28.8972C23.4624 28.9202 23.4671 28.9439 23.4684 28.9683L23.3569 29.0134C23.2737 29.0709 23.1909 29.13 23.1074 29.1861C23.2196 29.1163 23.3368 29.0555 23.4591 29.0044L23.4053 29.0194L23.4678 28.9797C23.4678 29.0515 23.4167 29.1149 23.2917 29.1988L23.2537 29.2238V29.2148C23.1695 29.2612 23.0823 29.3 22.9952 29.3397L22.735 29.4609L22.728 29.478L22.9882 29.3567C23.0566 29.3243 23.1261 29.2943 23.1932 29.2585C22.9187 29.4265 22.6328 29.5722 22.3359 29.6957C22.069 29.7926 22.1669 29.6413 21.9618 29.7078C21.8526 29.7425 21.686 29.8323 21.5146 29.9111L21.3607 29.9562L21.2064 29.9786L21.1359 29.988L21.0648 29.9943L20.7776 30.019C20.7288 30.023 20.68 30.0297 20.6296 30.031L20.478 30.0374C20.3758 30.0417 20.2706 30.0484 20.162 30.0524C20.0535 30.0561 19.9393 30.0524 19.822 30.0584H20.1737C20.2909 30.0548 20.4082 30.0477 20.5247 30.0434C20.4483 30.0504 20.3785 30.0611 20.3053 30.0705C20.2686 30.0748 20.2305 30.0798 20.1908 30.0828H20.1994L20.332 30.0765L20.5965 30.0641H20.6647L20.7338 30.0574L20.8791 30.0441L21.0364 30.0304C21.0912 30.0254 21.1486 30.021 21.2097 30.013L21.2034 30.028C21.2207 30.028 21.2421 30.028 21.2658 30.023C21.2067 30.0454 21.1463 30.0621 21.0841 30.0728C20.8216 30.1109 20.7575 30.1279 20.6102 30.3109C20.4633 30.4936 20.4907 30.4575 20.2118 30.4288C20.0872 30.4245 19.965 30.4395 19.8451 30.4739C19.7252 30.5083 19.6133 30.5604 19.5098 30.6299C19.3899 30.7124 19.6744 30.8476 20.1958 30.8045C20.7171 30.7615 20.293 30.9565 20.8818 30.7872C21.4702 30.6178 21.9094 30.6062 22.1819 30.512C22.386 30.4128 22.6004 30.3794 22.8248 30.4118C22.9765 30.4625 22.9494 30.3046 23.1702 30.2097L23.2119 30.192C23.4571 30.1065 23.5152 30.1827 23.5526 30.0578L23.5563 30.0484L23.6324 30.013L23.6481 30.0053V30.0998C23.9911 29.9125 24.3261 29.7128 24.6534 29.5004V29.5902C24.8578 29.4596 25.0555 29.32 25.2532 29.1807C25.2993 29.153 25.3434 29.123 25.3861 29.0902C25.6406 28.9072 25.8898 28.7168 26.1332 28.5191C26.3764 28.3214 26.6138 28.1167 26.8453 27.9049C27.0764 27.6932 27.3012 27.4748 27.5196 27.2497C27.738 27.0242 27.9494 26.7928 28.1541 26.5553C28.3585 26.3175 28.5559 26.0741 28.7463 25.8246C28.9363 25.5751 29.119 25.3203 29.294 25.0598C29.469 24.7996 29.6363 24.5344 29.7956 24.2639C29.9549 23.9937 30.1062 23.7192 30.2492 23.44C30.3925 23.1608 30.5271 22.8776 30.6533 22.5903C30.7795 22.3031 30.8971 22.0122 31.0063 21.718C31.1152 21.4238 31.2157 21.1268 31.3069 20.8266C31.3984 20.5264 31.4809 20.2238 31.5544 19.9185C31.6278 19.6136 31.6923 19.3067 31.7477 18.9977C31.8028 18.6888 31.8489 18.3785 31.886 18.0669C31.9227 17.7553 31.9505 17.4427 31.9688 17.1295C31.9872 16.8162 31.9966 16.5026 31.9962 16.189C31.9962 16.1582 31.9962 16.1265 31.9962 16.0958C31.9962 16.0654 31.9962 16.0497 31.9962 16.0267M23.621 29.998L23.5656 30.029C23.5876 29.9833 23.6157 29.9419 23.6498 29.9041V29.9866L23.6217 30.001" fill="#EF724B"/>
<path d="M48.4397 11.3484V21.7138C48.4397 23.9972 47.8456 25.6938 46.6576 26.8036C45.4703 27.9141 43.7353 28.4695 41.4529 28.4695C40.2496 28.4695 39.1077 28.3229 38.0276 28.03C36.9482 27.7367 36.0535 27.3129 35.3438 26.7582L36.7786 24.1665C37.3029 24.5983 37.9662 24.9417 38.7677 25.1965C39.5699 25.451 40.3725 25.5786 41.175 25.5786C42.4245 25.5786 43.3459 25.2967 43.9391 24.7329C44.5329 24.1698 44.8301 23.3182 44.8301 22.1773V21.6443C43.8896 22.6783 42.5784 23.1953 40.8972 23.1953C39.7553 23.1953 38.7103 22.9448 37.7618 22.4432C36.8133 21.9419 36.0612 21.2362 35.5054 20.3258C34.9504 19.4157 34.6732 18.367 34.6732 17.1797C34.6732 15.9917 34.9504 14.943 35.5054 14.0336C36.0612 13.1235 36.8133 12.4178 37.7618 11.9162C38.7103 11.4149 39.7553 11.1641 40.8972 11.1641C42.7013 11.1641 44.0743 11.7579 45.0158 12.9448V11.3484H48.4397ZM41.6146 20.2336C42.5711 20.2336 43.3539 19.9524 43.9631 19.3893C44.5723 18.8265 44.8769 18.0901 44.8769 17.1797C44.8769 16.2696 44.5723 15.5332 43.9631 14.9701C43.3539 14.4073 42.5711 14.1258 41.6146 14.1258C40.658 14.1258 39.8712 14.4073 39.254 14.9701C38.6375 15.5332 38.3296 16.2696 38.3296 17.1797C38.3296 18.0901 38.6375 18.8265 39.254 19.3893C39.8712 19.9524 40.658 20.2336 41.6146 20.2336Z" fill="#404040"/>
<path d="M51.7942 11.3483H55.4038V23.7964H51.7942V11.3483ZM53.599 9.613C52.9364 9.613 52.3967 9.42063 51.9799 9.03588C51.5631 8.65047 51.3547 8.17222 51.3547 7.60111C51.3547 7.03034 51.5631 6.55209 51.9799 6.16634C52.3967 5.78093 52.9364 5.58789 53.599 5.58789C54.2623 5.58789 54.802 5.77325 55.2181 6.14363C55.6349 6.51334 55.8433 6.9759 55.8433 7.53164C55.8433 8.13281 55.6349 8.63043 55.2181 9.02386C54.802 9.41662 54.2623 9.613 53.599 9.613Z" fill="#404040"/>
<path d="M64.6816 23.9822C63.3704 23.9822 62.1942 23.7083 61.1521 23.1606C60.1108 22.6128 59.2972 21.8534 58.7114 20.8815C58.1253 19.91 57.8324 18.8068 57.8324 17.5724C57.8324 16.3391 58.1253 15.2366 58.7114 14.2647C59.2972 13.2922 60.1108 12.5327 61.1521 11.9856C62.1942 11.4379 63.3704 11.1641 64.6816 11.1641C65.9925 11.1641 67.1644 11.4379 68.1977 11.9856C69.2307 12.5327 70.0403 13.2922 70.6264 14.2647C71.2132 15.2366 71.5068 16.3391 71.5068 17.5724C71.5068 18.8068 71.2132 19.91 70.6264 20.8815C70.0403 21.8534 69.2307 22.6128 68.1977 23.1606C67.1644 23.7083 65.9925 23.9822 64.6816 23.9822ZM64.6816 21.0204C65.6067 21.0204 66.3662 20.7085 66.9594 20.084C67.5532 19.4587 67.8504 18.6218 67.8504 17.5724C67.8504 16.5234 67.5532 15.6868 66.9594 15.0623C66.3662 14.4381 65.6067 14.1258 64.6816 14.1258C63.7552 14.1258 62.9917 14.4381 62.3905 15.0623C61.7894 15.6868 61.4888 16.5234 61.4888 17.5724C61.4888 18.6218 61.7894 19.4587 62.3905 20.084C62.9917 20.7085 63.7552 21.0204 64.6816 21.0204Z" fill="#404040"/>
<path d="M81.9412 23.1954C81.5858 23.4573 81.1496 23.6543 80.6333 23.7859C80.1166 23.9168 79.5729 23.9823 79.0022 23.9823C77.522 23.9823 76.3764 23.6042 75.5662 22.8481C74.7566 22.0919 74.3518 20.9815 74.3518 19.5163V14.4024H72.4321V11.6264H74.3518V8.59521H77.9615V11.6264H81.0621V14.4024H77.9615V19.4696C77.9615 19.9942 78.0964 20.3993 78.3663 20.6852C78.6361 20.9704 79.0175 21.1127 79.5111 21.1127C80.0819 21.1127 80.5678 20.9588 80.9686 20.6505L81.9412 23.1954Z" fill="#404040"/>
<path d="M92.0054 23.1954C91.65 23.4573 91.2138 23.6543 90.6975 23.7859C90.1808 23.9168 89.6371 23.9823 89.0664 23.9823C87.5862 23.9823 86.4406 23.6042 85.6304 22.8481C84.8208 22.0919 84.416 20.9815 84.416 19.5163V14.4024H82.4963V11.6264H84.416V8.59521H88.0257V11.6264H91.1263V14.4024H88.0257V19.4696C88.0257 19.9942 88.1606 20.3993 88.4305 20.6852C88.7003 20.9704 89.0817 21.1127 89.5753 21.1127C90.1461 21.1127 90.6321 20.9588 91.0328 20.6505L92.0054 23.1954Z" fill="#404040"/>
<path d="M106.581 11.3481V23.7962H103.157V22.316C102.679 22.8557 102.108 23.2685 101.444 23.5544C100.781 23.8393 100.063 23.9819 99.2922 23.9819C97.6577 23.9819 96.3625 23.5116 95.406 22.5712C94.4495 21.63 93.9713 20.2333 93.9713 18.3817V11.3481H97.5809V17.85C97.5809 19.8549 98.4215 20.8572 100.103 20.8572C100.966 20.8572 101.66 20.576 102.184 20.0129C102.709 19.4501 102.971 18.6135 102.971 17.5027V11.3481H106.581Z" fill="#404040"/>
<path d="M114.123 23.9822C113.089 23.9822 112.079 23.8546 111.092 23.6001C110.105 23.3456 109.318 23.0253 108.732 22.6396L109.935 20.0479C110.49 20.4032 111.161 20.6928 111.947 20.9162C112.734 21.14 113.506 21.2515 114.262 21.2515C115.789 21.2515 116.552 20.8735 116.552 20.1174C116.552 19.763 116.344 19.5088 115.927 19.3545C115.511 19.2006 114.871 19.0693 114.007 18.9605C112.989 18.8065 112.148 18.6291 111.485 18.4288C110.822 18.2284 110.248 17.874 109.762 17.3654C109.276 16.8561 109.033 16.1307 109.033 15.1892C109.033 14.403 109.261 13.705 109.715 13.0958C110.17 12.4866 110.833 12.0124 111.704 11.673C112.576 11.3337 113.606 11.1641 114.794 11.1641C115.673 11.1641 116.548 11.2609 117.419 11.454C118.291 11.6463 119.012 11.9122 119.583 12.2515L118.38 14.8191C117.285 14.2019 116.09 13.8933 114.794 13.8933C114.022 13.8933 113.444 14.0015 113.059 14.218C112.673 14.4337 112.48 14.7109 112.48 15.0502C112.48 15.436 112.688 15.7062 113.104 15.8611C113.521 16.0154 114.184 16.1617 115.095 16.3006C116.112 16.47 116.945 16.6513 117.593 16.8444C118.241 17.0367 118.804 17.3877 119.283 17.8971C119.761 18.4057 120 19.1151 120 20.0252C120 20.7967 119.768 21.4833 119.305 22.0852C118.843 22.6863 118.168 23.1532 117.281 23.4852C116.394 23.8165 115.342 23.9822 114.123 23.9822Z" fill="#404040"/>
</svg>
