<svg width="45" height="45" viewBox="0 0 45 45" fill="none" xmlns="http://www.w3.org/2000/svg">
<path fill-rule="evenodd" clip-rule="evenodd" d="M18.3946 0.361635C14.1677 1.12224 9.81558 3.40244 6.65669 6.51091C4.76501 8.37272 4.37142 9.0995 4.77611 9.98414C5.062 10.609 11.0957 14.0916 11.8922 14.0916C12.2162 14.0916 12.9682 13.6143 13.7725 12.8986C16.0347 10.8856 19.687 9.43941 22.5089 9.43941C25.3348 9.43941 29.1056 10.9344 31.2871 12.9195C32.115 13.673 32.7808 14.0916 33.1515 14.0916C33.6882 14.0916 39.1129 11.1721 40.0159 10.3975C41.067 9.49579 39.8897 7.53295 36.826 5.07876C31.6105 0.900848 24.9169 -0.812296 18.3946 0.361635ZM2.11158 13.6251C1.52385 13.9075 0.650926 16.3424 0.187308 18.994C-0.197499 21.1941 0.0373142 25.8832 0.64769 28.1876C1.92252 33.0004 5.02779 37.5537 9.07763 40.5494C19.1392 47.9916 33.174 45.8904 40.6945 35.8162C43.4898 32.0716 44.8028 28.2897 44.9807 23.4697C45.1554 18.7344 44.1201 14.0557 42.7854 13.5504C42.0338 13.2659 42.0673 13.2523 38.3736 15.3544C35.0099 17.2687 34.6459 17.6622 35.0878 18.9066C35.5244 20.1362 35.6635 23.2813 35.3527 24.8922C34.9027 27.2258 33.5151 29.8254 31.7981 31.5519C29.2547 34.1095 26.081 35.4369 22.5089 35.4369C16.1146 35.4369 10.8401 31.0044 9.63785 24.6204C9.36537 23.1736 9.50496 20.5445 9.92929 19.1344C10.3906 17.601 10.1135 17.2915 6.40871 15.2037C4.59353 14.1807 3.00137 13.3506 2.87079 13.3593C2.73998 13.3679 2.39839 13.4875 2.11158 13.6251Z" fill="#0068FF"/>
</svg>
