<svg width="120" height="26" viewBox="0 0 120 26" fill="none" xmlns="http://www.w3.org/2000/svg">
<g clip-path="url(#clip0_1128_1911)">
<path d="M7.93813 0C8.48293 0.908799 9.03736 1.81278 9.57493 2.7264C10.0908 3.60386 10.5898 4.49337 11.1008 5.37324C11.7903 6.55926 12.4845 7.74528 13.1788 8.92889C13.4198 9.3411 13.6657 9.7509 13.9237 10.1535C14.0297 10.3174 14.0249 10.45 13.9285 10.6163C13.309 11.677 12.7015 12.7473 12.0844 13.8104C11.407 14.9771 10.7248 16.1414 10.0209 17.3467C9.75573 16.9032 9.50261 16.4934 9.26396 16.0787C8.59863 14.9289 7.94295 13.7766 7.27762 12.6268C6.73282 11.6842 6.18321 10.7441 5.63359 9.80394C5.01888 8.7505 4.40177 7.70189 3.78947 6.64845C3.28566 5.78305 2.78907 4.91282 2.28526 4.04741C1.74528 3.12174 1.19566 2.20088 0.662917 1.27039C0.424267 0.855765 0.219365 0.424267 0 0C2.64685 0 5.29369 0 7.93813 0Z" fill="#404040"/>
<path d="M29.8915 -3.07996e-05C29.5902 0.590568 29.3106 1.19081 28.9803 1.76694C28.3198 2.92404 27.6304 4.06425 26.9578 5.21411C26.2997 6.33745 25.644 7.46562 24.9835 8.58896C24.9281 8.68297 24.8365 8.75529 24.7569 8.84448C24.2073 7.89953 23.6794 6.98832 23.1515 6.07952C22.421 4.82359 21.6955 3.56526 20.9506 2.31656C20.8686 2.17675 20.8252 2.05622 20.83 1.93569C20.8373 1.77177 20.9241 1.65606 20.953 1.61267C21.1145 1.38125 21.4014 0.848503 21.828 -0.00244141H29.8867L29.8915 -3.07996e-05Z" fill="#F7BB38"/>
<path d="M35.9783 22.0642V3.75324C36.0868 3.75324 36.1832 3.75324 36.282 3.75324C38.6083 3.75324 40.9321 3.72913 43.2583 3.76047C44.4202 3.77735 45.5532 4.03769 46.5898 4.56561C47.6577 5.108 48.3761 5.97582 48.646 7.15219C48.8702 8.1309 48.8558 9.11925 48.458 10.057C48.2218 10.6138 47.8457 11.1056 47.3419 11.4479C46.7947 11.8215 46.2017 12.1277 45.628 12.4652C45.8979 12.523 46.221 12.564 46.5223 12.6653C48.1157 13.2028 49.1113 14.2635 49.4488 15.9292C49.6681 17.0092 49.5669 18.0481 49.1306 19.0413C48.7328 19.9477 48.0217 20.5889 47.1611 21.0831C46.233 21.6158 45.2085 21.8159 44.1695 21.975C43.7597 22.0377 43.3427 22.0739 42.9305 22.0763C40.7151 22.0859 38.4998 22.0835 36.2869 22.0835C36.1904 22.0835 36.0916 22.0738 35.9807 22.0666L35.9783 22.0642ZM39.2664 19.292C39.3387 19.3113 39.4086 19.345 39.4809 19.345C40.2403 19.3402 40.9996 19.3378 41.7589 19.3161C42.7401 19.2896 43.7308 19.3185 44.6661 18.9304C45.4327 18.6122 46.0354 18.147 46.1872 17.2888C46.2499 16.9344 46.2668 16.5608 46.2451 16.2016C46.1945 15.3603 45.6689 14.6612 44.8566 14.3864C43.9791 14.0899 43.0655 14.0562 42.1543 14.0248C41.6071 14.0055 41.0574 14.0224 40.4861 14.0224V11.284C41.5299 11.2237 42.5448 11.2044 43.5476 11.0911C44.1213 11.026 44.6517 10.7464 45.0325 10.286C45.452 9.78217 45.5822 9.21326 45.4857 8.54311C45.3652 7.71628 44.9289 7.21969 44.1792 6.91354C43.4705 6.62668 42.7232 6.6074 41.9855 6.57124C41.1659 6.53267 40.3415 6.5616 39.5219 6.56401C39.4375 6.56401 39.3532 6.57847 39.2808 6.5857C39.2664 6.63632 39.2543 6.65561 39.2543 6.67489C39.2543 10.6548 39.2591 14.6347 39.2615 18.6146C39.2615 18.8123 39.2447 19.0124 39.2374 19.21C39.2495 19.2366 39.2615 19.2631 39.2736 19.2896L39.2664 19.292Z" fill="#404040"/>
<path d="M13.3499 14.6807C14.1069 13.3934 14.8614 12.1061 15.628 10.8237C15.7991 10.5392 15.8112 10.291 15.6376 10.0017C14.7674 8.55049 13.9068 7.09207 13.0486 5.63366C12.6798 5.0069 12.3254 4.37291 11.9687 3.73892C11.9277 3.66901 11.918 3.57982 11.8819 3.46411C12.1953 3.46411 12.4652 3.46411 12.7328 3.46411C14.9578 3.46411 17.1804 3.47134 19.4054 3.46411C19.7188 3.46411 19.9068 3.55571 20.0707 3.84017C21.2495 5.88436 22.4427 7.92132 23.6529 9.94623C23.8674 10.3054 23.8481 10.573 23.6432 10.9225C22.5199 12.8245 21.4206 14.7433 20.3118 16.6525C19.4126 18.2026 18.511 19.7502 17.6095 21.3002C16.7778 22.7273 15.9462 24.1543 15.1097 25.579C15.0735 25.6417 14.9916 25.7381 14.953 25.7285C14.8807 25.7092 14.8059 25.6369 14.765 25.5694C13.5452 23.4697 12.3302 21.3653 11.1153 19.2632C11.0647 19.1764 10.9875 19.1041 10.9514 19.0149C10.92 18.9354 10.8935 18.8173 10.9297 18.7546C11.3636 18.0314 11.8071 17.3155 12.2507 16.5971C12.3351 16.6983 12.4122 16.8068 12.5062 16.896C12.5785 16.9659 12.7087 17.0792 12.7497 17.0551C12.9739 16.9322 13.1908 16.7875 13.3837 16.6212C13.5066 16.5151 13.4705 16.3753 13.3379 16.2644C13.1836 16.1367 13.2149 16.0161 13.3258 15.8546C13.4054 15.7365 13.4271 15.5557 13.4174 15.4063C13.4006 15.1869 13.3331 14.9723 13.2873 14.7554L13.2897 14.7482C13.3065 14.7241 13.3234 14.7024 13.3403 14.6783L13.3499 14.6807Z" fill="#F7BA37"/>
<path d="M120 4.65728C120 8.35274 119.995 12.0482 119.993 15.7461C119.993 17.5034 119.998 19.2631 120 21.0205V22.0594H117.112V19.9381C116.84 20.2394 116.611 20.4998 116.374 20.7553C115.813 21.3652 115.085 21.6762 114.306 21.9028C113.503 22.1366 112.667 22.192 111.864 22.0739C110.837 21.922 109.861 21.5773 109.005 20.9192C107.986 20.1358 107.318 19.1498 106.92 17.9445C106.561 16.8598 106.479 15.7388 106.595 14.63C106.763 12.9932 107.465 11.5685 108.716 10.4548C109.374 9.86901 110.155 9.44956 111.001 9.22297C111.736 9.0253 112.501 9.0494 113.27 9.12172C114 9.19163 114.716 9.28082 115.335 9.68339C115.827 10.0016 116.268 10.3969 116.729 10.7609C116.772 10.7947 116.804 10.8477 116.9 10.9658C117.02 9.70509 116.948 8.53353 116.96 7.36439C116.972 6.18078 116.963 4.99717 116.963 3.78223H119.995V4.65969L120 4.65728ZM117.069 15.6038C117.04 15.3411 117.018 15.0783 116.982 14.8156C116.859 13.8827 116.341 13.1812 115.62 12.6219C114.918 12.0771 114.101 11.8722 113.212 11.8795C111.975 11.8891 111.066 12.4821 110.35 13.4174C109.666 14.3118 109.569 15.3459 109.777 16.4018C109.941 17.2431 110.338 17.9807 111.04 18.5183C111.893 19.1715 112.831 19.4922 113.93 19.3017C114.935 19.1257 115.762 18.6653 116.362 17.8626C116.854 17.2045 117.083 16.4379 117.066 15.6038H117.069Z" fill="#404040"/>
<path d="M91.3017 14.0345C91.3283 13.4198 91.2825 12.8292 90.8702 12.3157C90.4749 11.8192 89.9229 11.595 89.3395 11.4817C88.4862 11.3153 87.6159 11.3346 86.8036 11.6552C86.2829 11.8601 85.8056 12.1783 85.3283 12.4797C85.1643 12.5833 85.0848 12.6243 84.9377 12.4676C84.487 11.9903 84.0169 11.5251 83.501 11.002C83.9108 10.7006 84.3086 10.3728 84.7401 10.098C85.6971 9.49052 86.765 9.23499 87.8931 9.1241C89.0502 9.01081 90.1736 9.14339 91.2728 9.44713C92.143 9.68819 92.8469 10.2233 93.3339 10.9899C93.8377 11.783 94.0571 12.6677 94.0667 13.6054C94.0956 16.327 94.127 19.0462 94.168 21.7677C94.1728 22.0209 94.1029 22.0932 93.8498 22.0883C93.0976 22.0739 92.3455 22.0787 91.5958 22.0956C91.3789 22.1004 91.3162 22.0305 91.3186 21.8256C91.3283 21.2639 91.321 20.7022 91.321 20.0562C91.2053 20.1454 91.1402 20.1743 91.1089 20.2225C90.3833 21.3073 89.3058 21.8593 88.0595 22.0136C86.5842 22.1968 85.1523 21.9702 83.947 21.0132C83.313 20.5094 82.9201 19.8296 82.7634 19.0196C82.5802 18.0626 82.7658 17.1779 83.2407 16.3439C83.5348 15.828 83.9856 15.4688 84.487 15.1627C85.2801 14.6757 86.1599 14.4371 87.0687 14.278C88.45 14.0393 89.8433 14.0851 91.2367 14.0803C91.2584 14.0658 91.2825 14.0514 91.3042 14.0369L91.3017 14.0345ZM91.2318 16.3029C90.4243 16.3029 89.6505 16.3029 88.8743 16.3029C88.0643 16.3053 87.3098 16.5198 86.5842 16.8766C85.902 17.2117 85.6585 18.012 85.9357 18.6653C86.1647 19.2053 86.6107 19.456 87.1218 19.644C87.6569 19.8393 88.2065 19.7838 88.7561 19.7091C89.6963 19.5837 90.4243 19.1595 90.8871 18.3085C91.2367 17.6649 91.1161 16.9562 91.2342 16.3029H91.2318Z" fill="#404040"/>
<path d="M63.6955 9.6546C64.6766 9.65942 65.6601 9.66183 66.6412 9.66665C67.0317 9.66665 67.0149 9.66665 67.0052 10.0499C66.9908 10.6719 67.0004 11.2938 67.0004 11.9399C66.9787 11.9399 66.9016 11.9519 66.822 11.9519C65.8289 11.9519 64.8381 11.9615 63.8449 11.9495C63.6231 11.9471 63.5749 12.0218 63.5749 12.2243C63.5822 13.9455 63.5846 15.6666 63.5822 17.3878C63.5822 17.9109 63.5894 18.4268 63.9293 18.8631C64.18 19.1885 64.5127 19.3959 64.9345 19.4055C65.6456 19.4224 66.3616 19.4537 67.0004 19.1042C67.0004 19.8683 66.9883 20.6229 67.0076 21.3774C67.0149 21.6184 66.9016 21.7341 66.7063 21.7824C65.7252 22.0258 64.7272 22.1753 63.7196 22.0837C62.9337 22.0114 62.1599 21.7944 61.538 21.2858C61.0245 20.8639 60.7449 20.2564 60.6388 19.6152C60.5303 18.974 60.4797 18.3159 60.4725 17.665C60.4532 15.8547 60.4725 14.0443 60.4725 12.2315C60.4725 12.1448 60.458 12.058 60.4484 11.9567H57.91V9.66906H60.4628C60.4628 9.41113 60.4628 9.18694 60.4628 8.96275C60.4628 8.09734 60.4652 7.23194 60.4532 6.36653C60.4508 6.12306 60.5159 6.04351 60.7786 6.05074C61.55 6.07243 62.3214 6.06038 63.0928 6.06279C63.2423 6.06279 63.3893 6.06279 63.5822 6.06279C63.5822 6.4051 63.5822 6.70884 63.5822 7.01498C63.5822 7.82977 63.5773 8.64696 63.5773 9.46175C63.5773 9.51478 63.6039 9.57022 63.6183 9.62326C63.6424 9.6329 63.6689 9.64495 63.6931 9.6546H63.6955Z" fill="#404040"/>
<path d="M74.278 22.0716V21.7197C74.278 19.3525 74.2973 16.9853 74.266 14.618C74.2587 14.0347 74.4299 13.555 74.7264 13.0849C75.9028 11.2191 77.0743 9.34845 78.2459 7.48023C79.0004 6.27734 79.7549 5.07204 80.5167 3.87156C80.5528 3.8137 80.6493 3.76067 80.7192 3.76067C81.9317 3.75344 83.1418 3.75585 84.3544 3.76067C84.3688 3.76067 84.3809 3.78718 84.4315 3.84263C84.2965 4.06199 84.1543 4.30305 84.0024 4.53688C83.2286 5.71326 82.4524 6.88964 81.6762 8.06601C80.6541 9.61121 79.632 11.1588 78.6075 12.704C78.2941 13.1765 77.9687 13.6417 77.6649 14.119C77.5974 14.2275 77.5878 14.3818 77.5878 14.5168C77.583 16.925 77.5806 19.3308 77.5902 21.739C77.5902 22.0162 77.5058 22.0957 77.2358 22.0933C76.3439 22.0813 75.452 22.0909 74.5601 22.0909C74.4805 22.0909 74.4034 22.0837 74.2756 22.0789L74.278 22.0716Z" fill="#404040"/>
<path d="M97.6175 9.66414H100.611V11.6191C100.631 11.6457 100.65 11.6698 100.669 11.6963C101.72 9.7003 103.374 9.11934 105.512 9.5629V12.487C105.172 12.4388 104.869 12.3881 104.565 12.3544C103.126 12.1977 101.889 12.4195 101.041 13.7887C100.792 14.1889 100.621 14.6324 100.624 15.1266C100.633 17.3251 100.626 19.5235 100.64 21.722C100.64 22.0064 100.58 22.1005 100.274 22.0908C99.4833 22.0643 98.6902 22.0836 97.8995 22.0812C97.7718 22.0812 97.6464 22.0619 97.5114 22.0523C97.5114 21.5798 97.5114 21.1314 97.5114 20.6854C97.5114 17.2238 97.5114 13.7598 97.5163 10.2981C97.5163 10.0884 97.5428 9.87869 97.5572 9.66896L97.6199 9.66414H97.6175Z" fill="#404040"/>
<path d="M55.738 22.0474H52.6404V9.70987C52.679 9.70023 52.7248 9.67612 52.7706 9.67612C53.6625 9.67612 54.5544 9.67371 55.4464 9.67612C55.6272 9.67612 55.7597 9.70264 55.7597 9.94852C55.7525 13.9381 55.7549 17.9252 55.7549 21.9148C55.7549 21.9437 55.7477 21.9726 55.738 22.0498V22.0474Z" fill="#404040"/>
<path d="M76.5609 3.77017C76.5368 3.85213 76.5271 3.94373 76.4861 4.01605C75.8883 5.04779 75.2808 6.07712 74.683 7.10886C73.9839 8.31416 73.2897 9.52188 72.5906 10.7272C72.5544 10.7899 72.4942 10.8357 72.4219 10.9152C71.0358 8.5263 69.6714 6.17595 68.2612 3.74365C71.0309 3.74365 73.738 3.74365 76.4427 3.74365C76.4813 3.75329 76.5223 3.76053 76.5609 3.77017Z" fill="#F6BB39"/>
<path d="M54.0241 3.80151C54.8799 3.84008 55.5452 4.03534 55.9285 4.71513C56.6035 5.91562 55.8538 7.21011 54.6027 7.4126C53.6866 7.55965 52.9683 7.31618 52.4644 6.54237C51.8642 5.62393 52.2909 4.3222 53.3732 3.94615C53.6167 3.86178 53.8819 3.83285 54.0265 3.80151H54.0241Z" fill="#404040"/>
<path d="M13.2945 14.7578C13.3403 14.9748 13.4078 15.1893 13.4247 15.4087C13.4367 15.5581 13.415 15.7389 13.3331 15.857C13.2222 16.0186 13.1908 16.1367 13.3451 16.2669C13.4753 16.3753 13.5139 16.5176 13.3909 16.6236C13.1981 16.79 12.9811 16.9346 12.7569 17.0575C12.7159 17.0792 12.5858 16.9659 12.5135 16.8984C12.4194 16.8068 12.3423 16.6984 12.2579 16.5995C12.6051 15.9872 12.9498 15.3749 13.2969 14.7602L13.2945 14.7578Z" fill="#F2BD42"/>
</g>
<defs>
<clipPath id="clip0_1128_1911">
<rect width="120" height="25.726" fill="white"/>
</clipPath>
</defs>
</svg>
