<svg width="120" height="22" viewBox="0 0 120 22" fill="none" xmlns="http://www.w3.org/2000/svg">
<path d="M118.134 18.2997C117.222 18.2997 116.517 18.069 116.019 17.6075C115.521 17.1357 115.273 16.4435 115.273 15.5307V8.16191H117.216V15.4845C117.216 15.8743 117.315 16.1768 117.512 16.3922C117.719 16.6075 118.004 16.7152 118.367 16.7152C118.803 16.7152 119.165 16.6024 119.456 16.3768L120 17.7459C119.772 17.9305 119.492 18.069 119.16 18.1613C118.828 18.2536 118.486 18.2997 118.134 18.2997ZM113.904 11.5771V10.0387H119.44V11.5771H113.904Z" fill="#2A3A5E"/>
<path d="M108.25 18.1919V9.97704H110.101V12.2384L109.883 11.5769C110.132 11.0231 110.521 10.6026 111.049 10.3155C111.588 10.0283 112.257 9.88474 113.055 9.88474V11.7154C112.972 11.6949 112.895 11.6846 112.822 11.6846C112.75 11.6744 112.677 11.6692 112.604 11.6692C111.868 11.6692 111.283 11.8846 110.847 12.3154C110.412 12.7358 110.194 13.3666 110.194 14.2076V18.1919H108.25Z" fill="#2A3A5E"/>
<path d="M101.959 18.2996C101.109 18.2996 100.352 18.1201 99.6888 17.7612C99.0253 17.392 98.5018 16.8894 98.1182 16.2536C97.7346 15.6177 97.5428 14.8947 97.5428 14.0845C97.5428 13.264 97.7346 12.541 98.1182 11.9154C98.5018 11.2795 99.0253 10.7821 99.6888 10.4232C100.352 10.0642 101.109 9.88474 101.959 9.88474C102.82 9.88474 103.582 10.0642 104.245 10.4232C104.919 10.7821 105.443 11.2744 105.816 11.9C106.2 12.5256 106.391 13.2538 106.391 14.0845C106.391 14.8947 106.2 15.6177 105.816 16.2536C105.443 16.8894 104.919 17.392 104.245 17.7612C103.582 18.1201 102.82 18.2996 101.959 18.2996ZM101.959 16.6536C102.436 16.6536 102.861 16.551 103.234 16.3459C103.608 16.1408 103.898 15.8433 104.105 15.4536C104.323 15.0639 104.432 14.6075 104.432 14.0845C104.432 13.5512 104.323 13.0948 104.105 12.7153C103.898 12.3256 103.608 12.0282 103.234 11.8231C102.861 11.618 102.441 11.5154 101.975 11.5154C101.498 11.5154 101.073 11.618 100.7 11.8231C100.337 12.0282 100.046 12.3256 99.8288 12.7153C99.6111 13.0948 99.5022 13.5512 99.5022 14.0845C99.5022 14.6075 99.6111 15.0639 99.8288 15.4536C100.046 15.8433 100.337 16.1408 100.7 16.3459C101.073 16.551 101.493 16.6536 101.959 16.6536Z" fill="#2A3A5E"/>
<path d="M92.1692 18.2996C91.4954 18.2996 90.8785 18.1458 90.3187 17.8381C89.7692 17.5304 89.3286 17.0689 88.9968 16.4536C88.6754 15.828 88.5147 15.0383 88.5147 14.0845C88.5147 13.1204 88.6702 12.3307 88.9813 11.7154C89.3027 11.1 89.7381 10.6437 90.2876 10.3462C90.837 10.0386 91.4643 9.88474 92.1692 9.88474C92.9883 9.88474 93.7088 10.0591 94.3308 10.4078C94.9632 10.7565 95.4609 11.2436 95.8237 11.8692C96.1969 12.4948 96.3835 13.2332 96.3835 14.0845C96.3835 14.9357 96.1969 15.6793 95.8237 16.3151C95.4609 16.9407 94.9632 17.4279 94.3308 17.7766C93.7088 18.1253 92.9883 18.2996 92.1692 18.2996ZM87.5661 21.1764V9.97704H89.4167V11.9154L89.3545 14.0999L89.51 16.2843V21.1764H87.5661ZM91.9515 16.6536C92.418 16.6536 92.8327 16.551 93.1956 16.3459C93.5688 16.1408 93.8643 15.8433 94.082 15.4536C94.2997 15.0639 94.4086 14.6075 94.4086 14.0845C94.4086 13.5512 94.2997 13.0948 94.082 12.7153C93.8643 12.3256 93.5688 12.0282 93.1956 11.8231C92.8327 11.618 92.418 11.5154 91.9515 11.5154C91.485 11.5154 91.0651 11.618 90.6919 11.8231C90.3187 12.0282 90.0232 12.3256 89.8055 12.7153C89.5878 13.0948 89.4789 13.5512 89.4789 14.0845C89.4789 14.6075 89.5878 15.0639 89.8055 15.4536C90.0232 15.8433 90.3187 16.1408 90.6919 16.3459C91.0651 16.551 91.485 16.6536 91.9515 16.6536Z" fill="#2A3A5E"/>
<path d="M77.5164 18.1919L81.1709 13.4845L81.1398 14.5152L77.6563 9.97702H79.8179L82.2594 13.2076H81.4352L83.8923 9.97702H85.9917L82.4771 14.5152L82.4927 13.4845L86.1316 18.1919H83.9389L81.373 14.7613L82.1817 14.869L79.6624 18.1919H77.5164Z" fill="#2A3A5E"/>
<path d="M74.1564 18.1919V9.97699H76.1003V18.1919H74.1564ZM75.1362 8.62323C74.7733 8.62323 74.4727 8.51041 74.2342 8.28478C74.0061 8.05916 73.8921 7.78738 73.8921 7.46945C73.8921 7.14127 74.0061 6.86949 74.2342 6.65412C74.4727 6.42849 74.7733 6.31567 75.1362 6.31567C75.499 6.31567 75.7945 6.42336 76.0226 6.63873C76.261 6.84385 76.3802 7.10537 76.3802 7.4233C76.3802 7.76174 76.2662 8.0489 76.0381 8.28478C75.81 8.51041 75.5094 8.62323 75.1362 8.62323Z" fill="#2A3A5E"/>
<path d="M67.7022 18.1919V9.97704H69.5527V12.2384L69.335 11.5769C69.5838 11.0231 69.9726 10.6026 70.5013 10.3155C71.0404 10.0283 71.7091 9.88474 72.5074 9.88474V11.7154C72.4245 11.6949 72.3467 11.6846 72.2742 11.6846C72.2016 11.6744 72.129 11.6692 72.0564 11.6692C71.3204 11.6692 70.7346 11.8846 70.2992 12.3154C69.8638 12.7358 69.646 13.3666 69.646 14.2076V18.1919H67.7022Z" fill="#2A3A5E"/>
<path d="M64.2369 18.2997C63.3246 18.2997 62.6196 18.069 62.122 17.6075C61.6244 17.1357 61.3756 16.4435 61.3756 15.5307V8.16191H63.3194V15.4845C63.3194 15.8743 63.4179 16.1768 63.6149 16.3922C63.8222 16.6075 64.1073 16.7152 64.4702 16.7152C64.9056 16.7152 65.2685 16.6024 65.5588 16.3768L66.103 17.7459C65.875 17.9305 65.5951 18.069 65.2633 18.1613C64.9315 18.2536 64.5894 18.2997 64.2369 18.2997ZM60.0071 11.5771V10.0387H65.5432V11.5771H60.0071Z" fill="#2A3A5E"/>
<path d="M56.7814 18.1919V16.5305L56.6726 16.1767V13.2691C56.6726 12.7051 56.5015 12.2692 56.1594 11.9615C55.8173 11.6436 55.2989 11.4846 54.6043 11.4846C54.1378 11.4846 53.6764 11.5564 53.2203 11.7C52.7745 11.8436 52.396 12.0436 52.085 12.3L51.323 10.9001C51.7688 10.5616 52.2976 10.3104 52.9092 10.1463C53.5313 9.97191 54.174 9.88474 54.8376 9.88474C56.0402 9.88474 56.968 10.1719 57.6212 10.7462C58.2847 11.3103 58.6165 12.1872 58.6165 13.3768V18.1919H56.7814ZM54.1689 18.2996C53.5468 18.2996 53.0025 18.1971 52.536 17.9919C52.0695 17.7766 51.7066 17.4843 51.4474 17.1151C51.1986 16.7356 51.0742 16.31 51.0742 15.8382C51.0742 15.3767 51.1831 14.9613 51.4008 14.5921C51.6289 14.2229 51.9969 13.9306 52.5049 13.7153C53.0129 13.4999 53.6868 13.3922 54.5265 13.3922H56.9369V14.6691H54.6665C54.003 14.6691 53.5572 14.7767 53.3291 14.9921C53.101 15.1972 52.987 15.4536 52.987 15.7613C52.987 16.11 53.1269 16.3869 53.4069 16.592C53.6868 16.7971 54.0756 16.8997 54.5732 16.8997C55.0501 16.8997 55.4751 16.792 55.8484 16.5766C56.232 16.3613 56.5067 16.0433 56.6726 15.6228L56.9991 16.7766C56.8125 17.2586 56.4756 17.633 55.9883 17.8996C55.5114 18.1663 54.9049 18.2996 54.1689 18.2996Z" fill="#2A3A5E"/>
<path d="M45.7755 9.88474C46.439 9.88474 47.0248 10.0129 47.5328 10.2693C48.0511 10.5257 48.4555 10.9206 48.7457 11.4539C49.036 11.9769 49.1812 12.6538 49.1812 13.4845V18.1919H47.2373V13.7307C47.2373 13.0025 47.0766 12.4589 46.7552 12.1C46.4338 11.741 45.9725 11.5616 45.3712 11.5616C44.9461 11.5616 44.5677 11.6539 44.2359 11.8385C43.9146 12.0231 43.6606 12.2948 43.474 12.6538C43.2977 13.0128 43.2096 13.4691 43.2096 14.0229V18.1919H41.2657V13.7307C41.2657 13.0025 41.105 12.4589 40.7836 12.1C40.4622 11.741 40.0009 11.5616 39.3996 11.5616C38.9745 11.5616 38.5961 11.6539 38.2644 11.8385C37.943 12.0231 37.689 12.2948 37.5024 12.6538C37.3261 13.0128 37.238 13.4691 37.238 14.0229V18.1919H35.2941V9.97704H37.1447V12.1615L36.8181 11.5154C37.098 10.9821 37.5024 10.577 38.0311 10.3001C38.5702 10.0232 39.1819 9.88474 39.8661 9.88474C40.6437 9.88474 41.3175 10.0745 41.8877 10.4539C42.4683 10.8334 42.8519 11.4077 43.0385 12.1769L42.2765 11.9154C42.5461 11.3 42.9919 10.8078 43.6139 10.4385C44.2359 10.0693 44.9565 9.88474 45.7755 9.88474Z" fill="#2A3A5E"/>
<path d="M0.00742626 14.1507C0.00742626 12.1334 0.00742626 10.1197 0.00742626 8.10241C0.00742626 6.18538 1.81672 4.64358 3.72632 4.9668C4.64396 5.12284 5.45758 5.57238 6.25635 6.03677C7.14056 6.54947 8.04706 7.03245 8.94241 7.53028C9.95294 8.09127 10.9598 8.65969 11.9628 9.2244C12.405 9.47331 12.8396 9.50303 13.2966 9.24297C14.3294 8.65969 15.3622 8.08013 16.4062 7.51914C17.8514 6.74266 19.2892 5.95133 20.7604 5.22687C22.5288 4.35752 24.613 5.3569 25.174 7.07331C25.33 7.55257 25.3932 8.0244 25.3932 8.5148C25.3932 12.0999 25.3932 15.6814 25.3969 19.2665C25.3969 19.6232 25.3932 19.9798 25.3969 20.3365C25.3969 20.5297 25.3152 20.6077 25.1183 20.604C24.3938 20.5965 23.6693 20.5965 22.9412 20.6002C22.7331 20.6002 22.6142 20.5445 22.618 20.303C22.6291 17.0708 22.6365 13.8349 22.6402 10.6027C22.6402 9.84854 22.6291 9.09808 22.6031 8.3439C22.5808 7.73833 22.2167 7.51542 21.6743 7.8052C20.4594 8.45164 19.2669 9.13523 18.0557 9.7891C17.2198 10.2423 16.3765 10.677 15.5368 11.1228C14.8793 11.4758 14.2328 11.8585 13.5641 12.1854C12.8805 12.516 12.1858 12.4417 11.5282 12.0888C10.4211 11.4906 9.32136 10.8776 8.21795 10.2684C6.79876 9.48446 5.37956 8.69684 3.96037 7.91665C3.82291 7.84235 3.6743 7.77547 3.52198 7.73089C3.1356 7.61572 2.8421 7.79405 2.79752 8.18786C2.76037 8.51851 2.75294 8.8566 2.75294 9.19096C2.75294 12.843 2.75294 16.495 2.75294 20.147C2.75294 20.5742 2.72322 20.6002 2.29597 20.6002C1.64953 20.6002 0.99938 20.6002 0.35294 20.6114C0.0965933 20.6151 0 20.5482 0 20.2622C0.0148607 18.2225 0.00742626 16.1829 0.00742626 14.1433V14.1507Z" fill="#2A3A5E"/>
<path d="M19.0068 12.4231C19.0402 12.4491 19.0402 12.5049 19.0402 12.5234C19.0402 12.921 19.0662 13.3185 19.0551 13.7123C19.0514 13.9278 19.0588 14.0652 19.0588 14.6076C19.0588 14.6076 19.0588 14.6448 19.0588 14.7005C19.0588 14.9494 19.0588 15.0757 19.0588 15.1092C19.0402 15.2987 18.9251 15.4695 18.7987 15.5439C17.465 16.3092 16.1275 17.0634 14.7789 17.8027C14.3034 18.0627 13.8167 18.3117 13.3077 18.4937C12.743 18.6943 12.1597 18.6423 11.6285 18.3525C10.421 17.6912 9.22104 17.0114 8.01733 16.3426C7.55665 16.0863 7.09596 15.8336 6.63156 15.5884C6.39379 15.4621 6.2972 15.2875 6.30091 15.0163C6.31206 14.2398 6.30463 13.4634 6.30463 12.6869C6.30463 12.3414 6.3455 12.3079 6.65757 12.4677C7.27801 12.7872 7.89844 13.1104 8.50773 13.4485C9.66686 14.0912 10.826 14.7377 11.9777 15.3952C12.5052 15.6962 13.0068 15.6219 13.5046 15.3395C14.4111 14.8268 14.883 14.5631 15.143 14.4219C15.1802 14.3996 15.143 14.4219 15.4774 14.2361C16.5659 13.6268 17.1121 13.3222 17.1344 13.3073C17.1344 13.3073 18.3455 12.5234 18.9325 12.4008C18.9474 12.4008 18.9845 12.3897 19.0142 12.412L19.0068 12.4231Z" fill="#2A3A5E"/>
<path d="M6.30466 1.44853C6.30466 1.02871 6.3158 0.61261 6.30094 0.192796C6.29351 -0.026399 6.38267 -0.0338348 6.53499 0.047899C7.19258 0.411986 7.85016 0.776073 8.50775 1.14016C9.58886 1.74202 10.6737 2.33645 11.7511 2.94202C12.5573 3.39527 13.2966 3.17236 14.0248 2.76369C15.4625 1.95378 16.9003 1.14016 18.3418 0.330256C18.4681 0.259667 18.5982 0.192787 18.7282 0.125914C18.9548 0.0144592 19.0403 0.0516187 19.0477 0.307965C19.0663 1.13645 19.0848 1.96493 19.0663 2.79342C19.0663 2.93831 18.9177 3.13892 18.7802 3.21694C17.5951 3.89681 16.4062 4.5767 15.1951 5.20828C14.5115 5.56493 13.7907 5.86586 13.0588 6.12592C12.5201 6.31911 11.9852 6.10363 11.5059 5.85471C10.1313 5.13397 8.77153 4.38722 7.40434 3.65162C7.16657 3.5253 6.9288 3.39898 6.69474 3.27266C6.43097 3.13149 6.28236 2.9383 6.30466 2.61136C6.33066 2.22499 6.31208 1.8349 6.31208 1.44853H6.30466Z" fill="#3F6BFC"/>
</svg>
