<svg width="46" height="48" viewBox="0 0 46 48" fill="none" xmlns="http://www.w3.org/2000/svg">
<path d="M41.1899 39.5977C40.6687 40.2164 39.5539 41.479 37.9486 42.7666C36.9508 43.5665 33.7596 45.9829 28.8794 47.2315C27.3772 47.6161 22.996 48.586 17.8845 47.5046C17.472 47.4182 16.5746 47.2008 15.443 46.8496C12.773 46.0219 10.3483 44.7175 8.13254 43.0286C6.86442 42.0615 5.69943 40.9745 4.65985 39.7538C3.12418 37.9478 1.86721 35.9662 0.880594 33.8145C0.353838 32.6691 0.158744 31.4455 0.325968 30.2164C0.479256 29.0821 1.10077 28.1707 2.09297 27.5325C2.90122 27.0113 3.77914 26.7828 4.72117 26.9138C5.46532 27.0169 6.10634 27.3792 6.69162 27.8502C7.44413 28.4578 7.95416 29.2493 8.4642 30.0492C10.0138 32.4795 11.831 34.6785 14.016 36.5654C15.9363 38.2237 17.812 39.1796 18.9798 39.6925C19.487 39.9154 21.4937 40.7683 24.2919 41.1891C26.3098 41.4901 27.9514 41.4232 28.899 41.387C30.2395 41.3368 31.5578 41.0721 32.8594 40.7599C36.9703 39.7677 39.7992 38.1066 40.4207 37.7304C41.4547 37.1033 42.8176 36.1752 44.2752 34.8458C43.6397 36.1473 42.6615 37.8391 41.1871 39.5949L41.1899 39.5977Z" fill="#0084FF"/>
<path d="M45.1615 19.2411C44.7407 19.9128 44.2111 20.2723 43.9185 20.4562C43.2802 20.852 42.6002 21.1279 41.8505 21.1391C40.8471 21.153 39.9804 20.7517 39.2613 20.0772C38.8516 19.6926 38.4865 19.2522 38.1548 18.7979C37.3772 17.7361 36.6721 16.6212 35.8611 15.5845C35.0361 14.5309 34.1972 13.4719 33.2357 12.5466C31.4408 10.8158 29.4313 9.36094 27.1264 8.35481C26.7836 8.20431 25.6994 7.73609 24.2167 7.32917C22.7479 6.92505 21.4519 6.72995 20.4402 6.63241C19.2139 6.5906 18.2329 6.61011 17.5361 6.64356C16.9536 6.66864 16.5718 6.6993 16.3683 6.72159C15.7886 6.7857 15.2089 6.85537 14.632 6.95013C12.865 7.24835 11.1482 7.75281 9.48151 8.40219C7.92632 9.00699 5.38731 10.0326 2.75074 12.2428C2.22678 12.6831 1.81429 13.0705 1.54395 13.3353C1.74183 12.9145 2.02053 12.3543 2.39121 11.716C2.69779 11.1837 3.6649 9.55604 5.35108 7.75002C6.61362 6.40108 8.04338 5.25838 9.54003 4.18536C12.5974 1.99752 15.5824 1.16976 17.1905 0.760062C18.7373 0.364299 20.928 -0.0314641 23.5841 0.00198072C24.4703 0.0326384 25.2619 0.105102 25.9447 0.188714C27.1013 0.333641 28.0183 0.539884 28.5701 0.654154C29.3198 0.810229 30.0417 1.0527 30.7747 1.2701C33.2301 1.99194 35.4151 3.24334 37.4859 4.69818C39.3477 6.0081 40.9447 7.61067 42.3382 9.41668C43.5339 10.9607 44.5121 12.633 45.2228 14.4445C45.4848 15.1107 45.8443 16.153 45.7189 17.4406C45.6186 18.483 45.2563 19.085 45.1615 19.2355V19.2411Z" fill="#0084FF"/>
<path d="M0.111354 22.2875C0.0249553 21.7831 -0.0475084 21.064 0.0388907 20.2084C0.0695484 19.9101 0.228411 18.787 0.89452 17.3516C1.51882 16.0055 2.45249 14.9018 3.57289 13.9486C5.09184 12.6554 6.71112 11.5099 8.5255 10.671C10.1058 9.93803 11.7446 9.36668 13.453 9.00993C14.6097 8.76746 15.4625 8.58909 15.705 8.55007C18.0071 8.18496 19.7184 8.23234 20.0918 8.24628C20.7217 8.26857 21.5718 8.32432 22.5779 8.48039C22.3689 8.51105 22.1598 8.55564 21.948 8.56958C20.822 8.64483 19.7295 8.89566 18.6398 9.16322C17.9653 9.33045 17.2852 9.48095 16.6191 9.67883C15.2395 10.0885 13.9101 10.6376 12.6113 11.2591C10.4764 12.2847 8.51157 13.5779 6.6944 15.0885C5.96419 15.6933 4.27802 17.1091 2.43855 19.2496C1.45472 20.3951 0.68549 21.4458 0.111354 22.2875Z" fill="#FA8E22"/>
<path d="M45.4346 25.8491C45.5489 26.7047 45.5712 27.7694 45.3176 28.9455C44.8326 31.1891 43.6175 32.644 43.0433 33.2655C42.3549 34.0152 41.5522 34.6395 40.7356 35.2527C38.9213 36.6155 36.9369 37.6467 34.8048 38.4188C33.3722 38.9372 31.8979 39.2911 30.4068 39.5782C29.4174 39.7677 28.6481 39.8151 28.1297 39.8597C26.8365 39.9712 25.0723 40.0492 22.9458 39.9098C24.3561 39.712 25.6214 39.45 26.7251 39.1741C27.681 38.9344 29.0411 38.5665 30.7691 37.8976C31.9592 37.4377 33.0963 36.8357 34.2278 36.2421C35.0835 35.7906 35.8973 35.2582 36.7195 34.7454C37.0706 34.5252 37.3995 34.266 37.7312 34.018C40.4987 31.9305 42.7061 29.411 42.7061 29.411C43.5088 28.4996 44.4591 27.3123 45.4318 25.8463L45.4346 25.8491Z" fill="#FA8E22"/>
<path d="M25.3371 22.7585C25.6381 22.7585 25.928 22.7445 26.2095 22.6108C27.0038 22.2317 27.3717 21.3984 27.0512 20.6264C26.9118 20.2891 26.7084 20.0355 26.452 19.8627C26.1008 19.6314 25.7329 19.6147 25.5489 19.6091C24.7964 19.5868 23.0071 19.5701 20.6242 19.6091C20.5406 19.6147 20.457 19.623 20.3734 19.6286C20.3734 19.6732 20.3678 19.7178 20.3678 19.7624C20.3678 20.7657 20.3678 21.7691 20.3678 22.7724C20.4375 22.7724 20.5657 22.7724 20.7273 22.7724C22.2658 22.7864 23.8015 22.7613 25.3399 22.7557L25.3371 22.7585Z" fill="#0084FF"/>
<path d="M22.7786 12.8086C16.6025 12.8086 11.5969 17.8142 11.5969 23.9903C11.5969 30.1664 16.6025 35.172 22.7786 35.172C28.9548 35.172 33.9603 30.1664 33.9603 23.9903C33.9603 17.8142 28.9548 12.8086 22.7786 12.8086ZM29.0802 28.0204C28.5757 29.5282 27.4665 30.3866 25.8918 30.7573C25.8918 31.0973 25.8918 31.4373 25.8946 31.7774C25.1365 31.7801 24.3784 31.7829 23.6203 31.7857C23.6175 31.4596 23.612 31.1363 23.6092 30.8102H20.1393C20.1393 31.1391 20.1449 31.468 20.1476 31.7969C19.3589 31.8024 18.5674 31.808 17.7786 31.8136V30.8047L16.2736 30.7879V28.4942C16.792 28.4942 17.3104 28.4942 17.8316 28.4942C17.8316 28.0037 17.8399 24.2021 17.8399 23.7088C17.8399 23.3186 17.8455 19.8961 17.8483 19.5143C17.4498 19.4948 17.0428 19.4836 16.6248 19.4808C16.5077 19.4808 16.3907 19.4808 16.2736 19.4808V17.2038H17.7842C17.7842 16.861 17.7898 16.5154 17.7926 16.1726C18.5757 16.1809 19.3561 16.1865 20.1393 16.1949C20.1393 16.521 20.1393 16.8471 20.1393 17.1731H23.6036V16.2283C24.3756 16.2339 25.1504 16.2367 25.9224 16.2423C25.9252 16.5711 25.9308 16.9 25.9336 17.2261C26.4659 17.3292 26.87 17.5104 27.1348 17.6553C27.3606 17.7779 28.0406 18.1737 28.5813 18.9429C28.9408 19.453 29.1554 20.0243 29.2474 20.657C29.4174 21.8359 29.0356 22.8225 28.3221 23.72C28.2468 23.8147 28.1716 23.915 28.1103 23.9959C29.1805 25.1859 29.5958 26.507 29.0885 28.0176L29.0802 28.0204Z" fill="#0084FF"/>
<path d="M25.5601 25.183C23.3249 25.1607 20.7831 25.1885 20.7831 25.1885C20.5991 25.1969 20.4514 25.2025 20.3706 25.2053C20.3706 26.2643 20.3762 27.3234 20.379 28.3825C20.4542 28.3825 20.5796 28.3825 20.6577 28.3825C21.7558 28.3769 22.4302 28.3714 22.6644 28.3686C23.6928 28.3658 24.7184 28.3964 25.7441 28.3574C26.7168 28.3212 27.4916 27.2398 27.0317 26.1696C26.7669 25.5536 26.243 25.1941 25.5601 25.1857V25.183Z" fill="#0084FF"/>
</svg>
