<svg width="120" height="14" viewBox="0 0 120 14" fill="none" xmlns="http://www.w3.org/2000/svg">
<path d="M25.4523 9.90541C25.4523 9.4027 25.2848 9.03032 24.931 8.76965C24.5772 8.50898 23.9442 8.2297 23.0318 7.93179C22.1195 7.63388 21.3934 7.33598 20.8534 7.0567C19.4011 6.27469 18.675 5.21341 18.675 3.89145C18.675 3.20255 18.8612 2.58812 19.2522 2.04816C19.6432 1.50821 20.2017 1.07997 20.9279 0.782062C21.654 0.484157 22.4733 0.335205 23.3856 0.335205C24.2979 0.335205 25.1172 0.502779 25.8247 0.837923C26.5322 1.17307 27.0908 1.61992 27.4818 2.23435C27.8728 2.83016 28.0776 3.51907 28.0776 4.28245H25.4337C25.4337 3.70526 25.2475 3.23978 24.8751 2.92326C24.5028 2.58811 23.9814 2.43916 23.3111 2.43916C22.6595 2.43916 22.1567 2.5695 21.803 2.84878C21.4492 3.10945 21.263 3.48183 21.263 3.91007C21.263 4.31969 21.4678 4.67345 21.8961 4.95274C22.3243 5.23202 22.9387 5.49269 23.758 5.73474C25.2661 6.1816 26.346 6.74017 27.0349 7.41046C27.7239 8.08074 28.059 8.89998 28.059 9.90541C28.059 11.0039 27.6308 11.879 26.7929 12.5121C25.955 13.1451 24.8193 13.443 23.4042 13.443C22.4174 13.443 21.5237 13.2569 20.7231 12.9031C19.9225 12.5493 19.2894 12.0466 18.8612 11.4322C18.4329 10.7991 18.2281 10.0916 18.2281 9.25375H20.872C20.872 10.6688 21.7099 11.3577 23.4042 11.3577C24.0373 11.3577 24.5214 11.2274 24.8751 10.9853C25.2848 10.706 25.4523 10.3523 25.4523 9.90541Z" fill="#505050"/>
<path d="M39.8634 9.57049L41.595 0.484375H44.2203L41.3902 13.2384H38.7277L36.6423 4.71091L34.557 13.2384H31.8945L29.0644 0.484375H31.6897L33.4212 9.55187L35.5438 0.484375H37.7595L39.8634 9.57049Z" fill="#505050"/>
<path d="M52.4872 10.6132H47.8697L46.9946 13.2384H44.1831L48.9496 0.484375H51.3887L56.1738 13.2384H53.3623L52.4872 10.6132ZM48.5772 8.49058H51.7797L50.1785 3.7241L48.5772 8.49058Z" fill="#505050"/>
<path d="M60.0279 8.75125V13.2384H57.384V0.484375H62.3739C63.3421 0.484375 64.1799 0.65195 64.9061 1.00571C65.6322 1.35948 66.2094 1.86219 66.6004 2.49524C66.9914 3.12829 67.1962 3.87305 67.1962 4.69229C67.1962 5.93977 66.768 6.92658 65.9115 7.65272C65.055 8.37887 63.8634 8.73263 62.3552 8.73263H60.0279V8.75125ZM60.0279 6.62867H62.3925C63.0814 6.62867 63.6213 6.46111 63.9751 6.14458C64.3475 5.80944 64.5337 5.34396 64.5337 4.74815C64.5337 4.1151 64.3475 3.61238 63.9751 3.24C63.6027 2.849 63.1 2.66281 62.4483 2.64419H60.0279V6.62867Z" fill="#505050"/>
<path d="M77.2878 10.1848C77.2878 9.64488 77.1575 9.1794 76.8968 8.80702C76.6362 8.43464 76.2452 8.0995 75.6866 7.80159C75.1466 7.50369 74.3088 7.20578 73.2103 6.90787C72.0931 6.60997 71.2739 6.29344 70.7153 5.99554C70.1567 5.67901 69.7657 5.32525 69.5051 4.91563C69.2444 4.50601 69.1141 4.0033 69.1141 3.42611C69.1141 2.49515 69.5051 1.75039 70.2871 1.1732C71.0691 0.596003 72.0931 0.298096 73.3592 0.298096C74.1784 0.298096 74.9232 0.465669 75.5749 0.782193C76.2265 1.09872 76.7293 1.54558 77.1016 2.12277C77.4554 2.69996 77.6416 3.35163 77.6416 4.05915H77.1575C77.1575 3.10958 76.8037 2.32758 76.0962 1.69453C75.3887 1.06148 74.4764 0.763573 73.3592 0.763573C72.2421 0.763573 71.3297 1.00562 70.6222 1.50834C69.9333 2.01105 69.5795 2.62548 69.5795 3.38887C69.5795 4.15225 69.8774 4.76668 70.4919 5.23215C71.0877 5.69763 72.0931 6.10725 73.4895 6.47963C74.886 6.8334 75.8914 7.24302 76.5431 7.72712C77.3623 8.32293 77.7719 9.14217 77.7719 10.1476C77.7719 10.7806 77.5857 11.3578 77.232 11.8605C76.8596 12.3446 76.3569 12.7356 75.6866 12.9963C75.0163 13.257 74.2715 13.4059 73.4337 13.4059C72.5027 13.4059 71.6835 13.257 70.9387 12.9591C70.194 12.6425 69.6354 12.2143 69.263 11.6371C68.8906 11.0786 68.7044 10.4083 68.7044 9.62626H69.1885C69.1885 10.6689 69.5795 11.4882 70.3615 12.0654C71.1435 12.6426 72.1676 12.9405 73.4337 12.9405C74.5508 12.9405 75.4818 12.6798 76.2079 12.1771C76.9341 11.6744 77.2878 11.0041 77.2878 10.1848Z" fill="#505050"/>
<path d="M80.751 7.85753V13.2384H80.2669V0.484375H84.27C85.5734 0.484375 86.5974 0.819522 87.305 1.47119C88.0311 2.12286 88.4035 3.03519 88.4035 4.20819C88.4035 5.36258 88.0497 6.2563 87.3422 6.88934C86.6347 7.52239 85.6292 7.83891 84.3445 7.85753H80.751ZM80.751 7.39206H84.27C85.4244 7.39206 86.3181 7.11277 86.9512 6.5542C87.6029 5.99563 87.9194 5.23224 87.9194 4.22681C87.9194 3.20276 87.6029 2.40214 86.9512 1.82495C86.3181 1.24776 85.4244 0.949852 84.27 0.949852H80.751V7.39206Z" fill="#505050"/>
<path d="M96.6145 9.43985H90.3399L88.9248 13.2568H88.4035L93.1886 0.502686H93.7658L98.5509 13.2568H98.0295L96.6145 9.43985ZM90.5261 8.95575H96.4469L93.4865 1.06126L90.5261 8.95575Z" fill="#505050"/>
<path d="M109.238 9.32817C109.108 10.6501 108.661 11.6556 107.879 12.3631C107.097 13.0706 106.036 13.4058 104.677 13.4058C103.764 13.4058 102.964 13.1823 102.256 12.7168C101.567 12.2514 101.009 11.5997 100.636 10.7618C100.245 9.92398 100.059 8.95579 100.04 7.85726V5.88364C100.04 4.80373 100.227 3.83554 100.618 2.97906C100.99 2.12259 101.549 1.4523 102.237 0.98682C102.945 0.521343 103.764 0.279297 104.677 0.279297C106.017 0.279297 107.078 0.633055 107.86 1.32196C108.642 2.02949 109.108 3.03492 109.238 4.33826H108.773C108.642 3.16525 108.233 2.27154 107.544 1.67573C106.855 1.0613 105.905 0.763389 104.695 0.763389C103.448 0.763389 102.442 1.22887 101.679 2.15982C100.915 3.09077 100.543 4.33826 100.543 5.92088V7.80141C100.543 8.80684 100.711 9.70055 101.046 10.4639C101.381 11.2273 101.865 11.8417 102.498 12.27C103.131 12.6982 103.876 12.9217 104.695 12.9217C105.924 12.9217 106.874 12.6237 107.562 12.0279C108.251 11.4321 108.661 10.5198 108.791 9.32817H109.238Z" fill="#505050"/>
<path d="M119.106 6.92658H112.683V12.773H120V13.2384H112.217V0.484375H120V0.968472H112.683V6.44248H119.106V6.92658Z" fill="#505050"/>
<path fill-rule="evenodd" clip-rule="evenodd" d="M13.4802 6.75873C13.4802 10.4825 10.4639 13.5175 6.74011 13.5175C3.01629 13.5175 0 10.4825 0 6.75873C0 3.03491 3.01629 0 6.74011 0C10.4639 0 13.4802 3.01629 13.4802 6.75873ZM10.7804 4.0031C10.7804 4.4872 10.3894 4.8782 9.90535 4.8782C9.42126 4.8782 9.03026 4.4872 9.03026 4.0031C9.03026 3.51901 9.42126 3.128 9.90535 3.128C10.3894 3.128 10.7804 3.53763 10.7804 4.0031ZM6.70287 4.0031C7.55935 4.0031 8.26687 3.53763 8.26687 2.96043C8.26687 2.38324 7.55935 1.91776 6.70287 1.91776C5.84639 1.91776 5.13887 2.38324 5.13887 2.96043C5.13887 3.53763 5.82777 4.0031 6.70287 4.0031Z" fill="#FCFF3E"/>
</svg>
