<svg width="45" height="45" viewBox="0 0 45 45" fill="none" xmlns="http://www.w3.org/2000/svg">
<path d="M7.4115 43.7095L8.894 43.655C9.7115 43.619 10.52 43.583 10.691 43.565C10.861 43.556 11.3735 43.511 11.8135 43.484C12.263 43.448 12.7485 43.412 12.892 43.394C13.1908 43.359 13.4902 43.329 13.79 43.304C14.1115 43.2705 14.425 43.23 14.53 43.2095L14.554 43.2045C14.6255 43.1865 14.967 43.1505 15.299 43.1145C15.5607 43.0938 15.8215 43.0638 16.081 43.0245C16.171 43.0065 16.4405 42.961 16.683 42.9345C17.087 42.871 18.884 42.5735 19.2705 42.4925C20.4655 42.2495 21.3455 42.051 21.3905 42.024C21.4265 42.006 21.588 41.97 21.759 41.943C21.9205 41.9185 22.57 41.748 23.268 41.55L23.5015 41.483C24.984 41.0605 25.084 41.032 25.191 40.9905L25.211 40.983L25.2445 40.9695C25.3165 40.9425 25.8465 40.753 26.4125 40.5545C26.8798 40.3919 27.344 40.2207 27.805 40.041C28.0025 39.951 28.209 39.87 28.254 39.861C28.47 39.816 29.2515 39.4285 29.2965 39.356C29.332 39.302 29.323 39.14 29.2785 38.978C29.1885 38.6355 28.928 37.3555 28.865 36.986C28.847 36.833 28.793 36.571 28.7485 36.4C28.7035 36.229 28.6405 35.9225 28.6135 35.7245C28.5775 35.526 28.5415 35.3005 28.5235 35.2285C28.4765 35.071 28.3585 34.527 28.2435 33.9635L28.1945 33.7215C28.0655 33.079 27.953 32.48 27.9665 32.471C27.9815 32.448 29.0385 33.681 30.117 34.974L30.292 35.184C30.6874 35.6642 31.0861 36.1417 31.488 36.6165C31.7396 36.9121 31.9853 37.2127 32.225 37.518L32.4225 37.77L32.9435 37.4725C33.231 37.3105 33.5095 37.1395 33.5545 37.103C33.6085 37.058 34.0305 36.7605 34.498 36.4365C36.3305 35.1565 38.28 33.318 39.6095 31.6235C40.014 31.101 40.4095 30.6055 40.481 30.515C40.553 30.434 40.607 30.344 40.607 30.326C40.607 30.309 40.787 30.033 41.008 29.6885L41.056 29.6135C41.2985 29.2355 41.5055 28.893 41.5055 28.857C41.5055 28.785 41.047 28.226 40.113 27.1625C39.6365 26.622 39.421 26.3785 39.0615 25.946C38.8857 25.7403 38.7096 25.535 38.533 25.33L38.394 25.1695C38.371 25.1428 38.348 25.1162 38.325 25.0895C38.0285 24.738 37.732 24.396 37.669 24.3145C37.5885 24.2245 38.226 24.3685 39.6905 24.7925C40.8585 25.135 41.8825 25.4325 41.9635 25.45C42.0355 25.468 42.305 25.54 42.5565 25.6125L43.0145 25.7475L43.1495 25.423C43.5355 24.513 44.1465 22.458 44.38 21.3045C44.425 21.052 44.479 20.773 44.506 20.6735C44.528 20.5515 44.571 20.2965 44.6145 20.0195L44.6475 19.8095L44.6945 19.502C44.7125 19.349 44.7485 19.1055 44.7755 18.9615C44.8115 18.7 44.901 17.8255 44.973 17.0235C44.9895 16.7845 44.998 15.877 45 14.9115V14.3665C44.9985 13.4 44.9895 12.49 44.973 12.247C44.956 12.1035 44.935 11.847 44.913 11.577L44.894 11.345C44.8876 11.2702 44.8809 11.1953 44.874 11.1205C44.8115 10.3275 44.7935 10.102 44.6945 9.363C44.6135 8.723 44.5955 8.57 44.524 8.1915C44.4891 7.96646 44.4561 7.74112 44.425 7.5155C44.245 6.1455 43.0865 1.189 42.907 1.0085C42.88 0.972505 42.853 1.0535 42.844 1.171C42.844 1.423 42.799 1.721 42.727 2.108C42.691 2.2525 42.646 2.523 42.6195 2.694C42.3675 4.217 41.2985 6.6685 40.2745 8.1015C39.6275 9.0025 38.424 10.2825 37.687 10.859C37.5184 10.9894 37.3537 11.1246 37.193 11.2645C37.142 11.316 36.716 11.6 36.267 11.888L36.074 12.011C35.721 12.2345 35.3845 12.4405 35.2345 12.5175C35.028 12.6255 34.8395 12.752 34.8125 12.7875C34.7855 12.824 34.7495 13.5175 34.7315 14.329C34.7135 15.14 34.6685 15.951 34.6325 16.1225C34.516 16.7535 34.1385 18.3305 34.0575 18.5105C33.9329 18.809 33.8132 19.1096 33.6985 19.412C32.6385 22.1425 30.437 24.8195 27.85 26.5045C26.161 27.6045 23.6545 28.5685 21.9025 28.803C21.561 28.848 21.4715 28.893 21.3905 29.091C19.477 34.075 18.0485 36.4635 15.551 38.8515C14.1675 40.1765 11.697 41.88 10.331 42.4385C10.206 42.4835 10.044 42.5645 9.972 42.6185C9.7655 42.7535 8.642 43.2495 7.9955 43.493L7.4115 43.7095ZM22.855 26.937C24.499 26.5045 26.835 25.315 28.1375 24.252C30.3385 22.449 31.704 20.5205 32.4855 18.105C32.908 16.7715 33.0875 15.6265 33.0965 14.1485L33.1055 13.3015L32.854 13.2745C32.71 13.2655 32.324 13.2295 32.0005 13.2025C31.111 13.1215 29.8085 12.95 29.1525 12.824C29.0535 12.806 28.856 12.761 28.7035 12.734C28.5595 12.7065 28.254 12.644 28.0295 12.599L27.878 12.563C27.7015 12.522 27.5355 12.4865 27.473 12.4725C26.727 12.319 24.6335 11.6525 23.942 11.346C23.7445 11.256 23.322 11.0755 22.9985 10.931C21.022 10.066 19.54 9.129 15.7125 6.29C14.7425 5.578 13.88 4.938 13.781 4.875C10.125 2.4685 7.277 1.5765 3.0275 1.495C2.86151 1.49197 2.69551 1.48997 2.5295 1.489H2.2835C2.1835 1.49 2.1235 1.492 2.12 1.4955C2.111 1.5045 1.788 1.5225 1.41 1.5315C1.024 1.5405 0.692 1.5855 0.665 1.6215C0.638 1.6665 0.674 1.7025 0.7455 1.7025C1.087 1.7025 3.5485 2.865 4.7795 3.613C5.992 4.352 6.9535 5.091 7.906 6.0285C8.903 7.02 9.0285 7.1735 9.6845 8.1465C10.8075 9.8315 11.4275 11.6705 11.5445 13.725C11.562 14.0135 11.5895 14.257 11.607 14.266C11.624 14.283 11.991 14.4835 12.446 14.725L12.5325 14.7705C13.467 15.266 15.2185 16.393 15.6675 16.7985C15.8115 16.9245 15.9645 17.0235 16 17.0235C16.065 17.0235 16.6655 17.6045 17.2925 18.2455L17.575 18.5365C18.0735 19.0545 18.54 19.5615 18.7135 19.7905C20.2855 21.8635 21.166 24.1345 21.4175 26.712C21.4355 26.9555 21.4625 27.172 21.4625 27.1895C21.4805 27.2435 22.19 27.1085 22.855 26.937ZM24.3015 8.39001L24.993 7.3715L24.7415 7.038C24.49 6.6865 23.4565 5.65 23.0795 5.3705C22.316 4.785 20.528 3.9645 20.0245 3.9555C19.9445 3.9555 19.504 4.5235 18.974 5.2985L18.0575 6.6415L18.399 6.9115C19.1445 7.50651 20.7795 8.50651 21.9925 9.111C23.4925 9.868 23.241 9.94901 24.3015 8.39001ZM0.099 43.9975C0.189 43.9075 1.3925 42.15 3.36 39.239L3.423 39.1455L3.5185 39.003C4.5435 37.481 6.0055 35.331 11.8945 26.658L16.737 19.52L16.072 18.862C15.7035 18.502 15.129 17.988 14.7785 17.727C14.55 17.5545 14.3253 17.3771 14.1045 17.195C14.006 17.0865 12.1645 15.96 11.9935 15.906C11.8315 15.861 11.3555 16.51 8.22 21.1425L7.8635 21.6675L7.506 22.194C5.761 24.765 4.071 27.2575 3.5575 28.019C2.9645 28.884 1.9315 30.416 1.24 31.4255L0 33.255V39.4665C0.004 42.698 0.032 44.0645 0.099 43.9975Z" fill="#34A76A"/>
</svg>
