<svg width="44" height="45" viewBox="0 0 44 45" fill="none" xmlns="http://www.w3.org/2000/svg">
<path d="M28.9164 16.6065C27.2601 14.974 25.0279 14.0589 22.7024 14.0589C20.3768 14.0589 18.1447 14.974 16.4883 16.6065C13.0527 20.0592 13.1142 25.6773 16.5278 29.1301C17.3403 29.9533 18.3077 30.6077 19.3742 31.0555C20.4407 31.5033 21.5853 31.7358 22.742 31.7394C23.8987 31.7431 25.0447 31.5179 26.1141 31.0769C27.1834 30.6358 28.1549 29.9876 28.9727 29.1695C29.029 29.1132 29.2708 28.8546 29.7089 28.3878L25.5755 24.2152C25.3713 24.4894 25.1437 24.7453 24.8951 24.98C24.6177 25.2581 24.2881 25.4787 23.9253 25.6293C23.5624 25.7798 23.1735 25.8573 22.7807 25.8573C22.3878 25.8573 21.9989 25.7798 21.636 25.6293C21.2732 25.4787 20.9436 25.2581 20.6662 24.98C20.3832 24.7082 20.1571 24.3828 20.0012 24.0226C19.8453 23.6625 19.7627 23.275 19.7582 22.8826C19.7537 22.4902 19.8274 22.1008 19.975 21.7372C20.1226 21.3736 20.3412 21.0431 20.6179 20.7649C20.8946 20.4866 21.224 20.2663 21.5868 20.1168C21.9496 19.9672 22.3386 19.8914 22.731 19.8938C23.1234 19.8962 23.5114 19.9767 23.8723 20.1307C24.2333 20.2847 24.56 20.509 24.8333 20.7905C24.8333 20.7905 28.5336 24.4909 35.9117 31.9083C34.3913 34.114 32.3603 35.9194 29.9917 37.1708C27.6231 38.4222 24.9871 39.0824 22.3083 39.0953C13.2374 39.0953 5.86492 31.661 5.86492 22.4777C5.86492 13.2945 13.2435 5.87097 22.3086 5.87097C24.8813 5.86876 27.4178 6.47737 29.7094 7.64672C32.001 8.81608 33.9823 10.5128 35.4902 12.5973C35.0009 13.1596 33.7544 14.588 31.7505 16.8824L35.8449 20.9759L42.627 13.2942C40.8893 9.34561 38.0417 5.98702 34.4305 3.62686C30.8194 1.2667 26.6002 0.00666491 22.2862 0C9.98749 0 0 10.083 0 22.4885C0 34.8941 9.96492 45 22.2862 45C27.8813 45 32.521 43.2285 37.048 39.3483C41.1588 35.8392 43.1102 30.9578 43.1102 30.9578L28.9164 16.6065Z" fill="url(#paint0_linear_1086_222)"/>
<defs>
<linearGradient id="paint0_linear_1086_222" x1="72.727" y1="34.29" x2="72.5545" y2="34.29" gradientUnits="userSpaceOnUse">
<stop stop-color="#22E6B8"/>
<stop offset="1" stop-color="#00C1CE"/>
</linearGradient>
</defs>
</svg>
