<svg width="120" height="28" viewBox="0 0 120 28" fill="none" xmlns="http://www.w3.org/2000/svg">
<path d="M4.87314 20.2877L4.81078 20.4291C4.56529 21.0128 4.43884 21.6396 4.43884 22.2729C4.43884 22.9061 4.56529 23.5329 4.81078 24.1166C5.05722 24.7025 5.41724 25.2338 5.87006 25.6798C6.32559 26.1282 6.86455 26.4829 7.45649 26.7241C8.65568 27.2135 9.99889 27.2135 11.1981 26.7241C11.7897 26.4828 12.3284 26.1281 12.7837 25.6798L21.7801 16.8156C22.2429 16.3611 22.6106 15.8191 22.8618 15.2211C23.1131 14.6231 23.2428 13.9812 23.2435 13.3326C23.2435 12.1602 22.8751 11.0294 22.0703 10.1422C21.6728 9.97227 21.2342 9.92311 20.809 10.0009C20.429 10.0707 20.0806 10.2927 19.7904 10.5538L11.2438 19.1969C11.0858 19.3582 10.9029 19.492 10.705 19.5951C10.8098 19.5311 10.9129 19.4646 11.0152 19.3956L10.9885 19.4064L11.0135 19.3898C11.0051 19.3953 10.9968 19.4008 10.9885 19.4064C10.0978 19.9963 9.08727 20.3813 8.0298 20.5337C6.97234 20.6861 5.89423 20.6021 4.87314 20.2877Z" fill="#104ADE"/>
<path d="M10.9885 19.4063L11.0401 19.3713C10.7116 19.5025 10.3558 19.5506 10.0042 19.5114C9.6527 19.4722 9.31623 19.347 9.02461 19.1468C8.7679 18.9689 8.5531 18.7371 8.39519 18.4675C8.15826 18.063 8.06253 17.5911 8.12303 17.1262C8.18354 16.6612 8.39685 16.2296 8.72944 15.8992L11.5739 13.0722L15.7287 8.97805L15.7453 8.96309C15.7572 8.95301 15.7694 8.94331 15.7819 8.93399L16.4072 8.31704C16.7254 8.25518 17.0491 8.22537 17.3733 8.22807C18.1042 8.22807 18.7253 8.29875 19.3447 8.47502C20.42 8.70378 21.3847 9.29351 22.0786 10.1463C21.6791 9.97302 21.2373 9.92209 20.8089 9.99992C20.4281 10.0706 20.0797 10.2926 19.7896 10.5537L11.2438 19.1967C11.085 19.358 10.9029 19.4919 10.7042 19.595C10.8089 19.531 10.912 19.4645 11.0143 19.3955L10.9885 19.4063Z" fill="#0038C7"/>
<path d="M17.8839 2.96334C17.655 2.42023 17.3207 1.92792 16.9002 1.51493C16.4121 1.03391 15.8344 0.65314 15.1999 0.394123C13.9128 -0.131374 12.471 -0.131374 11.1839 0.394123C10.5488 0.652988 9.97062 1.03376 9.48193 1.51493L2.07526 8.81185C0.777406 10.0853 0.0323037 11.818 0.000758042 13.636C-0.0261234 15.4532 0.662873 17.2081 1.91894 18.5217L1.99627 18.5957L2.07609 18.6772C2.14926 18.7478 2.22575 18.8144 2.30557 18.8767C3.50566 19.9034 5.0099 20.5073 6.58678 20.5954C8.16486 20.6854 9.72893 20.2554 11.0393 19.3714C10.7107 19.5026 10.355 19.5507 10.0034 19.5115C9.65188 19.4723 9.31541 19.3471 9.02379 19.1469C8.76708 18.969 8.55229 18.7372 8.39438 18.4676C8.15745 18.0631 8.06171 17.5912 8.12221 17.1263C8.18272 16.6613 8.39604 16.2297 8.72862 15.8992L11.5731 13.0723L15.7279 8.97815L15.7811 8.93408L16.8994 7.83073C17.5321 7.20952 17.9645 6.41319 18.1408 5.54421C18.3156 4.67809 18.2258 3.77939 17.883 2.96501L17.8839 2.96334Z" fill="#0F75FC"/>
<path d="M85.145 19.7847C84.4574 19.7847 83.8355 19.6666 83.2792 19.4313C82.7329 19.1951 82.2989 18.8559 81.9788 18.4136C81.6587 17.9704 81.4932 17.4474 81.4841 16.8446H83.6043C83.6326 17.2495 83.7739 17.5696 84.0284 17.8058C84.2919 18.0411 84.6503 18.1591 85.1026 18.1591C85.5641 18.1591 85.9274 18.051 86.191 17.834C86.4546 17.6079 86.5868 17.3152 86.5868 16.9577C86.5868 16.665 86.497 16.4255 86.3182 16.2368C86.1283 16.0411 85.8962 15.8912 85.6397 15.7986C85.2803 15.6532 84.9121 15.5304 84.5372 15.4311C83.8962 15.2424 83.3732 15.0586 82.9682 14.8799C82.5646 14.6851 82.2115 14.3997 81.9364 14.0459C81.6537 13.6684 81.5124 13.1695 81.5124 12.5476C81.5124 11.9631 81.6587 11.4542 81.9505 11.021C82.2424 10.587 82.6523 10.2577 83.1803 10.0316C83.7082 9.79545 84.3111 9.67822 84.9895 9.67822C86.0072 9.67822 86.8321 9.92766 87.4631 10.4265C88.1042 10.9171 88.4576 11.6047 88.5232 12.4911H86.3465C86.3397 12.3283 86.2969 12.1691 86.2211 12.0248C86.1453 11.8806 86.0385 11.755 85.9083 11.6571C85.6447 11.4309 85.2914 11.3179 84.8482 11.3179C84.4616 11.3179 84.1506 11.4168 83.9153 11.6147C83.6891 11.8126 83.576 12.0994 83.576 12.4769C83.576 12.7405 83.6609 12.9617 83.8305 13.1413C84.0092 13.3109 84.2262 13.4522 84.4807 13.5653C84.7442 13.6684 85.1118 13.7915 85.5832 13.9328C86.2243 14.1207 86.7472 14.3095 87.1522 14.4982C87.5642 14.6922 87.9231 14.9832 88.1981 15.3463C88.49 15.723 88.6363 16.2177 88.6363 16.8305C88.6363 17.3576 88.5 17.8482 88.2264 18.3005C87.9529 18.7528 87.5529 19.1153 87.025 19.3889C86.497 19.6524 85.8709 19.7847 85.145 19.7847ZM101.207 11.855L98.9174 19.6857H96.783L95.3554 14.2147L93.9278 19.6857H91.7793L89.4753 11.855H91.4824L92.8676 17.8199L94.3659 11.855H96.4579L97.9279 17.8058L99.3131 11.855H101.207ZM101.769 15.7421C101.769 14.9505 101.925 14.2479 102.236 13.636C102.556 13.0232 102.985 12.5518 103.522 12.2225C104.072 11.8916 104.703 11.7203 105.345 11.7278C105.93 11.7278 106.439 11.845 106.872 12.0811C107.315 12.3164 107.669 12.6133 107.932 12.9708V11.855H109.925V19.6857H107.932V18.5408C107.678 18.9083 107.324 19.2143 106.872 19.4595C106.429 19.6949 105.916 19.8129 105.331 19.8129C104.692 19.8187 104.064 19.6422 103.522 19.3041C102.985 18.9648 102.556 18.4892 102.236 17.8764C101.925 17.2545 101.769 16.5428 101.769 15.7421ZM107.932 15.7703C107.932 15.2898 107.838 14.8799 107.649 14.5398C107.477 14.2081 107.212 13.9334 106.886 13.7491C106.574 13.5629 106.217 13.4652 105.854 13.4664C105.487 13.4664 105.148 13.5553 104.837 13.7349C104.515 13.9245 104.251 14.1982 104.073 14.5265C103.885 14.8657 103.791 15.2706 103.791 15.7421C103.791 16.2127 103.885 16.6276 104.073 16.9859C104.271 17.3343 104.526 17.6029 104.837 17.7916C105.157 17.9795 105.496 18.0743 105.854 18.0743C106.222 18.0743 106.566 17.9845 106.886 17.8058C107.207 17.6159 107.471 17.3423 107.649 17.0142C107.838 16.665 107.932 16.2509 107.932 15.7703ZM113.837 12.9858C114.092 12.6274 114.44 12.3306 114.883 12.0953C115.335 11.85 115.848 11.7278 116.424 11.7278C117.092 11.7278 117.696 11.8924 118.233 12.2225C118.779 12.5518 119.208 13.0232 119.519 13.636C119.839 14.2388 120 14.9414 120 15.7421C120 16.5428 119.839 17.2545 119.519 17.8764C119.208 18.4884 118.779 18.9648 118.233 19.3041C117.692 19.6445 117.063 19.8212 116.424 19.8129C115.848 19.8129 115.34 19.6949 114.897 19.4595C114.484 19.2418 114.123 18.9382 113.837 18.5691V23.4165H111.858V11.8558H113.837V12.9866V12.9858ZM117.979 15.7421C117.979 15.2706 117.88 14.8657 117.682 14.5265C117.509 14.1944 117.244 13.9195 116.919 13.7349C116.609 13.5563 116.258 13.4636 115.901 13.4664C115.542 13.4664 115.203 13.5603 114.883 13.7491C114.561 13.9386 114.298 14.2123 114.12 14.5406C113.931 14.889 113.837 15.2989 113.837 15.7703C113.837 16.241 113.931 16.6517 114.12 17.0001C114.318 17.3485 114.572 17.617 114.883 17.8058C115.193 17.9822 115.544 18.0747 115.901 18.0743C116.268 18.0743 116.608 17.9795 116.919 17.7916C117.239 17.6029 117.493 17.3343 117.682 16.9851C117.88 16.6367 117.979 16.2227 117.979 15.7421ZM35.1466 19.7847C34.459 19.7847 33.8371 19.6666 33.2808 19.4313C32.7346 19.1951 32.3006 18.8559 31.9804 18.4136C31.6603 17.9704 31.4949 17.4474 31.4857 16.8446H33.6059C33.6342 17.2495 33.7756 17.5696 34.03 17.8058C34.2944 18.0411 34.6519 18.1591 35.1042 18.1591C35.5665 18.1591 35.9291 18.051 36.1935 17.834C36.4562 17.6079 36.5884 17.3152 36.5884 16.9577C36.5884 16.665 36.4994 16.4255 36.3198 16.2368C36.1299 16.0411 35.8979 15.8913 35.6414 15.7986C35.3778 15.6855 35.0095 15.5625 34.5389 15.4311C34.0048 15.2805 33.4808 15.0964 32.9699 14.8799C32.5666 14.685 32.2137 14.3996 31.9389 14.0459C31.6562 13.6684 31.5148 13.1695 31.5148 12.5476C31.5148 11.9631 31.6603 11.4542 31.9522 11.021C32.2448 10.587 32.6548 10.2577 33.1827 10.0316C33.7099 9.79545 34.3135 9.67822 34.9912 9.67822C36.0089 9.67822 36.8337 9.92766 37.4648 10.4265C38.105 10.9171 38.4592 11.6047 38.5249 12.4911H36.3481C36.3413 12.3283 36.2985 12.1691 36.2227 12.0248C36.147 11.8806 36.0401 11.755 35.9099 11.6571C35.6464 11.4309 35.293 11.3179 34.8498 11.3179C34.464 11.3179 34.1531 11.4168 33.9169 11.6147C33.6908 11.8126 33.5777 12.0994 33.5777 12.4769C33.5777 12.7405 33.6625 12.9617 33.8321 13.1413C34.0109 13.3109 34.2279 13.4522 34.4823 13.5653C34.7467 13.6684 35.1142 13.7915 35.5848 13.9328C36.2251 14.1207 36.7489 14.3095 37.1538 14.4982C37.5596 14.6861 37.9079 14.9688 38.1998 15.3463C38.4925 15.723 38.638 16.2177 38.638 16.8305C38.638 17.3576 38.5016 17.8482 38.2281 18.3005C37.9553 18.7528 37.5546 19.1153 37.0266 19.3889C36.4994 19.6524 35.8717 19.7847 35.1466 19.7847ZM41.3577 10.9221C41.0085 10.9221 40.7166 10.814 40.4813 10.597C40.3708 10.4885 40.2837 10.3586 40.2253 10.2151C40.167 10.0717 40.1387 9.91784 40.1421 9.76303C40.1421 9.43294 40.2552 9.15938 40.4813 8.9432C40.5976 8.83137 40.735 8.74378 40.8854 8.68554C41.0359 8.6273 41.1964 8.59957 41.3577 8.60397C41.7061 8.60397 41.9937 8.71705 42.2199 8.9432C42.4552 9.15938 42.5733 9.43294 42.5733 9.76303C42.5733 10.0923 42.4552 10.37 42.2199 10.597C41.9937 10.8132 41.7061 10.9221 41.3577 10.9221ZM42.333 11.855V19.6857H40.3541V11.855H42.333ZM54.0125 11.7419C54.9737 11.7419 55.7461 12.0387 56.3307 12.6316C56.9243 13.2161 57.2212 14.0367 57.2212 15.0919V19.6857H55.2423V15.3604C55.2423 14.7476 55.0868 14.2812 54.7758 13.9611C54.4649 13.631 54.0408 13.4664 53.5037 13.4664C52.9666 13.4664 52.5375 13.631 52.2174 13.9611C51.9064 14.2812 51.751 14.7476 51.751 15.3604V19.6857H49.7721V15.3604C49.7721 14.7476 49.6166 14.2812 49.3056 13.9611C48.9947 13.631 48.5706 13.4664 48.0335 13.4664C47.4872 13.4664 47.0532 13.631 46.7331 13.9611C46.4221 14.2812 46.2666 14.7476 46.2666 15.3604V19.6857H44.2878V11.855H46.2666V12.802C46.5252 12.4689 46.8595 12.2023 47.2419 12.0246C47.6586 11.8337 48.1123 11.7371 48.5706 11.7419C49.1834 11.7419 49.7297 11.8733 50.2103 12.1377C50.6842 12.3855 51.0731 12.7695 51.3269 13.2402C51.5813 12.7879 51.9489 12.4254 52.4294 12.151C52.9128 11.8797 53.4583 11.7388 54.0125 11.7419ZM61.0775 12.9858C61.3319 12.6274 61.6811 12.3306 62.1243 12.0953C62.5766 11.85 63.0896 11.7278 63.665 11.7278C64.3087 11.7191 64.9416 11.8939 65.4895 12.2319C66.0374 12.5698 66.4777 13.0569 66.7589 13.636C67.0798 14.2388 67.2403 14.9414 67.2403 15.7421C67.2403 16.5428 67.0798 17.2545 66.7589 17.8764C66.4487 18.4884 66.0189 18.9648 65.4734 19.3041C64.9318 19.6447 64.3032 19.8214 63.6633 19.8129C63.0896 19.8129 62.5799 19.6949 62.1376 19.4595C61.7247 19.2415 61.363 18.9379 61.0767 18.5691V23.4165H59.0978V11.8558H61.0767V12.9866L61.0775 12.9858ZM65.2198 15.7421C65.2198 15.2706 65.1201 14.8657 64.923 14.5265C64.7505 14.1943 64.4854 13.9194 64.1597 13.7349C63.8502 13.5562 63.4986 13.4634 63.1412 13.4664C62.7837 13.4664 62.4444 13.5603 62.1243 13.7491C61.8027 13.9386 61.5388 14.2123 61.361 14.5406C61.1723 14.889 61.0783 15.2989 61.0783 15.7703C61.0783 16.241 61.1723 16.6517 61.361 17.0001C61.541 17.3305 61.8041 17.6082 62.1243 17.8058C62.4444 17.9845 62.7837 18.0743 63.142 18.0743C63.5095 18.0743 63.8488 17.9795 64.1597 17.7916C64.4798 17.6029 64.7334 17.3343 64.923 16.9851C65.1209 16.6367 65.2198 16.2227 65.2198 15.7421ZM70.6576 9.2259V19.6857H68.6787V9.2259H70.6576ZM79.8918 15.6007C79.8918 15.8834 79.8735 16.1379 79.8353 16.364H74.1107C74.1581 16.9294 74.356 17.3717 74.7043 17.6927C75.0535 18.0128 75.4818 18.1733 75.9906 18.1733C76.7256 18.1733 77.2486 17.8573 77.5596 17.2254H79.6939C79.4734 17.9717 79.0172 18.6266 78.3935 19.092C77.7533 19.5726 76.9659 19.8129 76.033 19.8129C75.2797 19.8129 74.6012 19.6475 73.9976 19.3182C73.4071 18.9822 72.9224 18.4877 72.5982 17.8906C72.269 17.2778 72.1035 16.571 72.1035 15.7703C72.1035 14.9597 72.269 14.2488 72.5982 13.636C72.9121 13.0397 73.3936 12.5483 73.9835 12.2225C74.5771 11.8924 75.2606 11.7278 76.033 11.7278C76.778 11.7278 77.4423 11.8874 78.026 12.2084C78.6098 12.5184 79.0876 12.9959 79.3979 13.5794C79.7272 14.1631 79.8918 14.8374 79.8918 15.5999V15.6007ZM77.8423 15.0353C77.834 14.5265 77.6494 14.1207 77.291 13.8197C76.9335 13.5088 76.4953 13.3533 75.9773 13.3533C75.4867 13.3533 75.0718 13.5038 74.7326 13.8056C74.4033 14.0974 74.2005 14.5074 74.1256 15.0353H77.8423Z" fill="#404040"/>
</svg>
