<?xml version="1.0" encoding="utf-8"?>
<!-- Generator: Adobe Illustrator 25.0.1, SVG Export Plug-In . SVG Version: 6.00 Build 0)  -->
<svg version="1.0" id="Capa_1" xmlns="http://www.w3.org/2000/svg" xmlns:xlink="http://www.w3.org/1999/xlink" x="0px" y="0px"
	 viewBox="0 0 215.3 136.7" style="enable-background:new 0 0 215.3 136.7;" xml:space="preserve">
<style type="text/css">
	.st0{fill:#9D9D9C;}
	.st1{fill:url(#SVGID_1_);}
	.st2{fill:url(#SVGID_2_);}
	.st3{fill:url(#SVGID_3_);}
	.st4{fill:url(#SVGID_4_);}
	.st5{fill:#C6C6C6;}
	.st6{fill:url(#SVGID_5_);}
	.st7{fill:url(#SVGID_6_);}
	.st8{fill:url(#SVGID_7_);}
</style>
<g>
	<path class="st0" d="M73.8,57.7v20.4h4.7V55.2h-2.3C74.6,55.2,73.8,56.1,73.8,57.7z"/>
	<path class="st0" d="M87.4,60c-5.1,0-7.6,2.5-7.6,7.6V78h4.5V66.7c0-1.8,1-2.8,3-2.8s3,0.9,3.1,2.8v9.1c0,1.4,0.7,2.1,2.2,2.2h2.3
		V67.6C95,62.5,92.5,60,87.4,60z"/>
	<path class="st0" d="M104,67c-2.3-0.4-3.5-1.1-3.5-2.1s0.9-1.4,2.6-1.4c1.5,0,2.4,0.4,2.7,1.2c0.3,0.7,0.9,1.1,2,1.1h2.8
		c-0.1-1.8-0.8-3.3-2.1-4.3c-1.4-1-3.1-1.5-5.4-1.5C99,60.1,96,61.9,96,65.7c0,2.8,2.1,4.5,6,5.2c3,0.5,4.6,1.3,4.6,2.2
		c0,1.1-0.9,1.7-2.8,1.7c-2.2,0-3.6-0.7-3.7-2.6h-4.6c0,2.1,0.7,3.6,2,4.6c1.2,1,3.1,1.6,5.6,1.6c4.7,0,8.1-1.6,8.1-6
		c0-1.2-0.4-2.3-1.2-3.1C109,68.3,107,67.6,104,67z"/>
	<path class="st0" d="M116.4,57.4c0-1.2-1-2.2-2.2-2.2h-2.3v19.4c0,2,0.8,3,2.4,3.2c1.7,0.2,3.2,0.2,4.7,0v-2c0-0.8-0.6-1.4-1.4-1.4
		l0,0c-0.9,0-1.3-0.4-1.3-1.1v-9.8h0.5c1.2,0,2.2-0.9,2.2-2.2v-1h-2.7v-2.9H116.4z"/>
	<path class="st0" d="M127,63.7c1.1,0,1.9,0.2,2.3,0.5l0,0l0,0c-0.3-0.6-0.4-1.3-0.4-2c0-0.5,0.1-0.9,0.1-1.3l0,0
		c0-0.2,0.1-0.5,0.1-0.7c-0.7-0.1-1.5-0.2-2.4-0.2c-4.1,0-6.4,1.6-6.9,4.9h4.5C124.6,64.1,125.4,63.7,127,63.7z"/>
	<path class="st0" d="M134.2,68L134.2,68c-2.1-0.7-3.5-1.6-4.3-2.8l0,0l0,0l0,0c0,1-1,1.5-2.9,1.8c-4.5,0.4-7.6,1.6-7.7,5.8
		c0,3.9,2.9,5.9,7.2,5.6c4.8-0.3,7.7-2.5,7.7-7.4L134.2,68C134.3,68,134.3,68,134.2,68z M130,70.8c0,2.5-1.5,4-4,4
		c-1.4,0-2.2-0.7-2.2-2.1c0-1.3,0.9-2.2,2.7-2.5c1.3-0.3,2.5-0.6,3.6-1.1L130,70.8L130,70.8z"/>
</g>
<g>
	
		<linearGradient id="SVGID_1_" gradientUnits="userSpaceOnUse" x1="138.0988" y1="586.0663" x2="139.2554" y2="609.4296" gradientTransform="matrix(1 0 0 1 0 -528)">
		<stop  offset="0" style="stop-color:#00D893"/>
		<stop  offset="0.2036" style="stop-color:#01CF8C"/>
		<stop  offset="0.5419" style="stop-color:#03B57A"/>
		<stop  offset="0.9712" style="stop-color:#078C5C"/>
		<stop  offset="1" style="stop-color:#07895A"/>
	</linearGradient>
	<path class="st1" d="M143.9,66.1c-1.9-0.7-3.7-1.2-5.4-1.6c-3-0.7-4.4-1.7-4.4-3.1c0.1-1.7,1.3-2.7,3.7-2.7c2,0,3.4,0.6,4.1,1.9
		c0.4,0.9,1.1,1.4,2.1,1.4h2.6c-0.3-4.7-3.1-7.1-8.4-7.1c-5.1,0-7.9,1.9-8.5,5.8l0,0c-0.1,0.4-0.1,0.9-0.1,1.3
		c0,2.7,1.7,4.6,5.3,5.8l0,0c0.4,0.2,0.9,0.3,1.4,0.4c1.6,0.4,3.2,0.8,4.5,1.2c1.4,0.4,2.1,1.1,2.1,2.2c0,1.9-1.4,2.8-4.4,2.8
		c-1.8,0-3-0.4-3.8-1.2c-0.3,1.7-1.1,2.9-2.2,3.8c1.5,0.9,3.5,1.3,6,1.3c5.8,0,8.8-2.2,9-6.7C147.6,68.8,146.4,66.9,143.9,66.1z"/>
	
		<linearGradient id="SVGID_2_" gradientUnits="userSpaceOnUse" x1="158.7615" y1="585.0434" x2="159.918" y2="608.4066" gradientTransform="matrix(1 0 0 1 0 -528)">
		<stop  offset="0" style="stop-color:#00D893"/>
		<stop  offset="0.2036" style="stop-color:#01CF8C"/>
		<stop  offset="0.5419" style="stop-color:#03B57A"/>
		<stop  offset="0.9712" style="stop-color:#078C5C"/>
		<stop  offset="1" style="stop-color:#07895A"/>
	</linearGradient>
	<path class="st2" d="M168.4,60.3c-1.1,0-1.8,0.5-2.2,1.6l-2.4,10.7l-2.3-12.3h-4.8l-2.5,12.3l-2.2-9.7c-0.3-1.5-1.7-2.6-3.2-2.6
		h-2.1l4.9,17.7h2.5c1.2,0,2.3-0.9,2.5-2.1l2.4-10.7l2.2,10.6c0.3,1.2,1.3,2.1,2.6,2.1h2.5l4.9-17.7
		C171.3,60.3,168.4,60.3,168.4,60.3z"/>
	
		<linearGradient id="SVGID_3_" gradientUnits="userSpaceOnUse" x1="177.0914" y1="584.136" x2="178.2478" y2="607.4992" gradientTransform="matrix(1 0 0 1 0 -528)">
		<stop  offset="0" style="stop-color:#00D893"/>
		<stop  offset="0.2036" style="stop-color:#01CF8C"/>
		<stop  offset="0.5419" style="stop-color:#03B57A"/>
		<stop  offset="0.9712" style="stop-color:#078C5C"/>
		<stop  offset="1" style="stop-color:#07895A"/>
	</linearGradient>
	<path class="st3" d="M177.8,60c-4.1,0-6.4,1.6-6.9,4.9h1.9c1.1,0,2.3-0.3,3.2-0.9c0.4-0.3,1.1-0.4,2-0.4c1.8,0,2.8,0.5,2.9,1.5
		c0,1-1,1.5-2.9,1.8c-4.5,0.4-7.6,1.6-7.7,5.8c0,3.9,2.9,5.9,7.2,5.6c4.8-0.3,7.7-2.5,7.7-7.4v-6C185.2,61.6,182.7,60,177.8,60z
		 M180.9,70.8c0,2.5-1.5,4-4,4c-1.4,0-2.2-0.7-2.2-2.1c0-1.3,0.9-2.2,2.7-2.5c1.3-0.3,2.5-0.6,3.6-1.1L180.9,70.8L180.9,70.8z"/>
	
		<linearGradient id="SVGID_4_" gradientUnits="userSpaceOnUse" x1="193.075" y1="583.3448" x2="194.2315" y2="606.7079" gradientTransform="matrix(1 0 0 1 0 -528)">
		<stop  offset="0" style="stop-color:#00D893"/>
		<stop  offset="0.2036" style="stop-color:#01CF8C"/>
		<stop  offset="0.5419" style="stop-color:#03B57A"/>
		<stop  offset="0.9712" style="stop-color:#078C5C"/>
		<stop  offset="1" style="stop-color:#07895A"/>
	</linearGradient>
	<path class="st4" d="M194.2,60.1c-5.3,0-8.1,2.6-8.3,7.9v16.5h2.2c1.5,0,2.2-0.7,2.2-2.2v-6.6c1.1,1.8,2.8,2.8,5,2.8
		c4.7-0.2,7.1-3.3,7.1-9.3C202.5,63.1,199.8,60.1,194.2,60.1z M194.2,74.4c-2.4,0-3.7-1.7-3.8-5.1c0-3.6,1.2-5.4,3.7-5.4
		s3.8,1.8,3.8,5.4C197.8,72.7,196.6,74.4,194.2,74.4z"/>
</g>
<g id="XMLID_572_">
	<path class="st5" d="M111.8,81.9c0-0.4,0.1-0.7,0.4-1c0.3-0.3,0.6-0.4,1-0.4s0.7,0.1,1,0.4s0.4,0.6,0.4,1s-0.1,0.7-0.4,0.9
		c-0.3,0.2-0.6,0.4-1,0.4s-0.7-0.1-1-0.4C112,82.6,111.8,82.3,111.8,81.9z"/>
</g>
<g id="XMLID_5_">
	<path class="st5" d="M73.8,81.9c0-0.4,0.1-0.7,0.4-1c0.3-0.3,0.6-0.4,1-0.4s0.7,0.1,1,0.4c0.3,0.3,0.4,0.6,0.4,1s-0.1,0.7-0.4,0.9
		c-0.3,0.3-0.6,0.4-1,0.4s-0.7-0.1-1-0.4C73.9,82.6,73.8,82.3,73.8,81.9z"/>
</g>
<g id="XMLID_1_">
	<path class="st5" d="M141.2,81.9c0-0.4,0.1-0.7,0.4-1c0.3-0.3,0.6-0.4,1-0.4s0.7,0.1,1,0.4s0.4,0.6,0.4,1s-0.1,0.7-0.4,0.9
		c-0.3,0.2-0.6,0.4-1,0.4s-0.7-0.1-1-0.4C141.3,82.6,141.2,82.3,141.2,81.9z"/>
</g>
<g id="XMLID_3_">
	<path class="st5" d="M181.4,82.1c0-0.4,0.1-0.7,0.4-1c0.3-0.3,0.6-0.4,1-0.4s0.7,0.1,1,0.4s0.4,0.6,0.4,1s-0.1,0.7-0.4,1
		c-0.3,0.3-0.6,0.4-1,0.4s-0.7-0.1-1-0.4C181.5,82.8,181.4,82.5,181.4,82.1z"/>
</g>
<g>
	<path class="st5" d="M78.7,84.3l0.2-0.6c0.2,0.1,0.4,0.2,0.6,0.2c0.2,0.1,0.4,0.1,0.6,0.1c0.3,0,0.6-0.1,0.8-0.2
		c0.2-0.1,0.3-0.3,0.3-0.5c0-0.2-0.1-0.3-0.2-0.4c-0.1-0.1-0.2-0.2-0.4-0.3c-0.2-0.1-0.4-0.2-0.7-0.4c-0.3-0.1-0.6-0.3-0.8-0.4
		c-0.2-0.1-0.3-0.3-0.4-0.5c-0.1-0.2-0.1-0.4-0.1-0.6s0.1-0.5,0.2-0.7c0.1-0.2,0.3-0.4,0.6-0.5c0.3-0.1,0.5-0.2,0.9-0.2
		c0.2,0,0.5,0,0.7,0.1s0.4,0.2,0.6,0.2l-0.2,0.6c-0.2-0.1-0.3-0.2-0.5-0.2c-0.2-0.1-0.3-0.1-0.5-0.1c-0.3,0-0.5,0.1-0.7,0.2
		c-0.2,0.1-0.3,0.3-0.3,0.5c0,0.2,0.1,0.3,0.1,0.4c0.1,0.1,0.2,0.2,0.4,0.3c0.2,0.1,0.4,0.2,0.8,0.4c0.4,0.2,0.8,0.4,1,0.6
		c0.2,0.2,0.3,0.5,0.3,0.8c0,0.3-0.1,0.5-0.2,0.7c-0.2,0.2-0.3,0.4-0.6,0.5c-0.3,0.1-0.6,0.2-1,0.2c-0.2,0-0.5-0.1-0.8-0.1
		C79,84.5,78.8,84.4,78.7,84.3z"/>
	<path class="st5" d="M83.9,84.6v-5h0.7v5H83.9z"/>
	<path class="st5" d="M89.2,83l-1.4-1.9v3.6h-0.7v-5h0.4l1.8,2.5l1.7-2.5h0.4v5h-0.7v-3.5l-1.2,1.7L89.2,83z"/>
	<path class="st5" d="M94.7,84.6H94v-5h1.5c0.6,0,1,0.1,1.4,0.4c0.3,0.3,0.5,0.6,0.5,1.2c0,0.4-0.1,0.6-0.3,0.9
		c-0.2,0.2-0.4,0.4-0.7,0.5c-0.3,0.1-0.6,0.2-1,0.2h-0.7V84.6L94.7,84.6z M95.4,80.1h-0.7v2h0.7c0.4,0,0.6-0.1,0.9-0.2
		c0.2-0.2,0.3-0.4,0.3-0.8s-0.1-0.6-0.3-0.8C96.1,80.2,95.8,80.1,95.4,80.1z"/>
	<path class="st5" d="M102.4,84.6h-3.1v-5h0.7v4.5h2.3L102.4,84.6z"/>
	<path class="st5" d="M104.3,84.6v-5h2.8l0.1,0.5H105v1.7h1.7l0.1,0.5H105V84h2.4l0.1,0.5C107.5,84.6,104.3,84.6,104.3,84.6z"/>
</g>
<g>
	<path class="st5" d="M121.2,82.3h-1.7v2.3h-0.7v-5h2.7l0.1,0.5h-2.1v1.7h1.6L121.2,82.3z"/>
	<path class="st5" d="M125.5,79.6l1.9,5l-0.7,0.1l-0.5-1.4h-2.1l-0.5,1.4h-0.7l1.9-5C124.9,79.6,125.5,79.6,125.5,79.6z M125.2,80.5
		l-0.8,2.2h1.6L125.2,80.5z"/>
	<path class="st5" d="M129,84.3l0.2-0.6c0.2,0.1,0.4,0.2,0.6,0.2c0.2,0.1,0.4,0.1,0.6,0.1c0.3,0,0.6-0.1,0.8-0.2
		c0.2-0.1,0.3-0.3,0.3-0.5c0-0.2-0.1-0.3-0.2-0.4c-0.1-0.1-0.2-0.2-0.4-0.3c-0.2-0.1-0.4-0.2-0.7-0.4c-0.3-0.1-0.6-0.3-0.8-0.4
		c-0.2-0.1-0.3-0.3-0.4-0.5c-0.1-0.2-0.1-0.4-0.1-0.6s0.1-0.5,0.2-0.7c0.1-0.2,0.3-0.4,0.6-0.5s0.5-0.2,0.9-0.2c0.2,0,0.5,0,0.7,0.1
		s0.4,0.2,0.6,0.2l-0.2,0.6c-0.2-0.1-0.3-0.2-0.5-0.2c-0.2-0.1-0.3-0.1-0.5-0.1c-0.3,0-0.5,0.1-0.7,0.2c-0.2,0.1-0.3,0.3-0.3,0.5
		c0,0.2,0.1,0.3,0.1,0.4c0.1,0.1,0.2,0.2,0.4,0.3c0.2,0.1,0.4,0.2,0.8,0.4c0.4,0.2,0.8,0.4,1,0.6c0.2,0.2,0.3,0.5,0.3,0.8
		c0,0.3-0.1,0.5-0.2,0.7c-0.2,0.2-0.3,0.4-0.6,0.5s-0.6,0.2-1,0.2c-0.2,0-0.5-0.1-0.8-0.1C129.3,84.5,129.1,84.4,129,84.3z"/>
	<path class="st5" d="M137.8,80.1h-1.7v4.5h-0.7v-4.5h-1.7v-0.6h4L137.8,80.1z"/>
</g>
<g>
	<path class="st5" d="M147.8,84.3l0.2-0.6c0.2,0.1,0.4,0.2,0.6,0.2c0.2,0.1,0.4,0.1,0.6,0.1c0.3,0,0.6-0.1,0.8-0.2
		c0.2-0.1,0.3-0.3,0.3-0.5c0-0.2-0.1-0.3-0.2-0.4c-0.1-0.1-0.2-0.2-0.4-0.3s-0.4-0.2-0.7-0.4c-0.3-0.1-0.6-0.3-0.8-0.4
		c-0.2-0.1-0.3-0.3-0.4-0.5c-0.1-0.2-0.1-0.4-0.1-0.6s0.1-0.5,0.2-0.7c0.1-0.2,0.3-0.4,0.6-0.5s0.5-0.2,0.9-0.2c0.2,0,0.5,0,0.7,0.1
		s0.4,0.2,0.6,0.2l-0.2,0.6c-0.2-0.1-0.3-0.2-0.5-0.2c-0.2-0.1-0.3-0.1-0.5-0.1c-0.3,0-0.5,0.1-0.7,0.2c-0.2,0.1-0.3,0.3-0.3,0.5
		c0,0.2,0.1,0.3,0.1,0.4c0.1,0.1,0.2,0.2,0.4,0.3s0.4,0.2,0.8,0.4c0.4,0.2,0.8,0.4,1,0.6s0.3,0.5,0.3,0.8c0,0.3-0.1,0.5-0.2,0.7
		c-0.2,0.2-0.3,0.4-0.6,0.5s-0.6,0.2-1,0.2c-0.2,0-0.5-0.1-0.8-0.1C148.1,84.5,147.9,84.4,147.8,84.3z"/>
	<path class="st5" d="M153.1,84.6v-5h2.8l0.1,0.5h-2.2v1.7h1.7l0.1,0.5h-1.8V84h2.4l0.1,0.5C156.3,84.6,153.1,84.6,153.1,84.6z"/>
	<path class="st5" d="M161.5,79.7l-0.2,0.5c-0.2-0.1-0.4-0.1-0.5-0.2c-0.1,0-0.3-0.1-0.5-0.1c-0.3,0-0.6,0.1-0.8,0.3
		c-0.2,0.2-0.4,0.4-0.6,0.7c-0.2,0.3-0.2,0.7-0.2,1.1s0.1,0.7,0.2,1c0.1,0.3,0.3,0.5,0.5,0.7c0.2,0.2,0.5,0.3,0.8,0.3
		c0.4,0,0.8-0.1,1.1-0.2l0.3,0.5c-0.2,0.1-0.4,0.2-0.6,0.2c-0.3,0.1-0.5,0.1-0.7,0.1c-0.5,0-0.9-0.1-1.3-0.3
		c-0.4-0.2-0.6-0.5-0.8-0.9s-0.3-0.8-0.3-1.3s0.1-1,0.3-1.4s0.5-0.7,0.8-0.9c0.4-0.2,0.8-0.3,1.3-0.3c0.2,0,0.4,0,0.6,0.1
		C161.2,79.6,161.4,79.6,161.5,79.7z"/>
	<path class="st5" d="M164.1,79.5v3.2c0,0.4,0.1,0.8,0.3,1c0.2,0.2,0.5,0.4,0.9,0.4s0.7-0.1,0.9-0.4c0.2-0.2,0.3-0.6,0.3-1v-3.2h0.7
		v3.2c0,0.4-0.1,0.7-0.2,1c-0.2,0.3-0.4,0.5-0.7,0.7c-0.3,0.2-0.6,0.2-1,0.2s-0.7-0.1-1-0.2c-0.3-0.2-0.5-0.4-0.7-0.7
		c-0.2-0.3-0.2-0.6-0.2-1v-3.2H164.1z"/>
	<path class="st5" d="M169.8,79.5h1.5c0.6,0,1,0.1,1.4,0.4c0.3,0.2,0.5,0.6,0.5,1.1c0,0.3-0.1,0.6-0.2,0.8c-0.2,0.2-0.4,0.4-0.6,0.5
		l1.3,2.2h-0.8l-1.1-2c-0.1,0-0.2,0-0.5,0h-0.6v2H170L169.8,79.5L169.8,79.5z M171.2,80.1h-0.7v1.8h0.7c0.4,0,0.6-0.1,0.9-0.2
		c0.2-0.2,0.3-0.4,0.3-0.7c0-0.3-0.1-0.6-0.3-0.7C171.9,80.2,171.6,80.1,171.2,80.1z"/>
	<path class="st5" d="M175.4,84.6v-5h2.8l0.1,0.5h-2.2v1.7h1.7l0.1,0.5h-1.8V84h2.4l0.1,0.5C178.7,84.6,175.4,84.6,175.4,84.6z"/>
</g>
<g>
	<path class="st5" d="M23.5,66.4c-0.2,0.3-0.3,0.7-0.5,1c-0.2,0.7-0.2,1.2-0.3,1.8c0,0.7-0.1,1.4-0.4,2.2c-0.2,0.4-0.4,0.7-0.6,1
		c0-0.1,0-0.1,0-0.2c0.1-0.3,0.1-0.7,0.1-1c0-0.9-0.3-1.4-0.5-1.8c-0.1-0.6-0.1-1.2-0.1-1.9c0-0.4,0-0.8,0-1.2
		c0.5,0,0.9,0.1,1.4,0.1C22.9,66.4,23.2,66.4,23.5,66.4z"/>
	<path class="st5" d="M42,88.2L42,88.2c-7.8,0-14.6-4.2-18.1-10.5c0.6-0.6,1-1.1,1.8-1.6c0.3,0.7,0.6,1.4,1,2.1l-0.1,0.5
		c0,0.1,0,0.4,0.2,0.8c0.2,0.3,0.6,0.5,1.1,0.6C31.2,84.6,36.2,87.6,42,88.2z"/>
	<path class="st5" d="M58.1,54.7c-3.6-3.7-8.6-6-14.2-6c-9,0-16.6,6-19,14.2c-0.3,0.1-0.6,0.2-1,0.2c-0.5,0.1-1,0.1-1.5,0.1
		c-0.3,0-0.5,0-0.8,0c2-9.4,10.3-16.4,20.3-16.4C48.5,46.8,54.4,49.9,58.1,54.7z"/>
	<path class="st5" d="M43.5,46L43.5,46c10,0,18.4,6.4,21.4,15.3c-1.4-1.6-3-3.1-4.8-4.4C56.8,50.9,50.7,46.7,43.5,46z"/>
	<path class="st5" d="M66.1,68.4c0,12.4-10,22.4-22.4,22.4c-7.1,0-13.5-3.3-17.6-8.6c3.9,4,9.3,6.5,15.4,6.5c9.3,0,17.3-6,20.2-14.3
		h0.1l0,0c0.1,0,0.2,0,0.3-0.1s0.1-0.2,0.1-0.3c0,0-0.1-1.2,0.5-2c0.8-0.9,2.3-1.9,2.3-1.9c0.1,0,0.1-0.1,0.2-0.2
		c0,0,0.2-0.6,0.5-1.3c0.2-0.4,0.3-0.6,0.4-0.8C66.1,68,66.1,68.2,66.1,68.4z"/>
</g>
<g>
	<g>
		<g>
			<g>
				
					<linearGradient id="SVGID_5_" gradientUnits="userSpaceOnUse" x1="-1561.1825" y1="606.4019" x2="-1556.8975" y2="606.4019" gradientTransform="matrix(-1 0 0 1 -1511.9082 -528)">
					<stop  offset="0" style="stop-color:#79D694"/>
					<stop  offset="0.2036" style="stop-color:#74CD8D"/>
					<stop  offset="0.5419" style="stop-color:#66B37C"/>
					<stop  offset="0.9712" style="stop-color:#4F8A5F"/>
					<stop  offset="1" style="stop-color:#4D875D"/>
				</linearGradient>
				<path class="st6" d="M45.8,76.4c1.6,0.2,2.9-0.4,2.9-0.4L48,78.3l1.4,2c0,0-1,0.6-2.3,0.6s-2-0.8-2-0.8c0.5-1.1,0-2.7,0-2.7
					C45.5,77.1,45.8,76.4,45.8,76.4z"/>
			</g>
			<g>
				
					<linearGradient id="SVGID_6_" gradientUnits="userSpaceOnUse" x1="30.4119" y1="587.7943" x2="29.8506" y2="602.1077" gradientTransform="matrix(1 0 0 1 0 -528)">
					<stop  offset="0" style="stop-color:#79D694"/>
					<stop  offset="0.2036" style="stop-color:#74CD8D"/>
					<stop  offset="0.5419" style="stop-color:#66B37C"/>
					<stop  offset="0.9712" style="stop-color:#4F8A5F"/>
					<stop  offset="1" style="stop-color:#4D875D"/>
				</linearGradient>
				<path class="st7" d="M27.6,77c0,0,0.5-0.8,0.9-1.5c0,0,2.9-1,3.8-1.5c0,0-1.6,1.2-1.6,2.1s0.1,1.7,0.1,1.7l0.6,1.4
					c0,0-0.2,0.9-2.6,0.6c-1.7-0.2-1.5-1.1-1.5-1.1L27.6,77z"/>
			</g>
			<g>
				
					<linearGradient id="SVGID_7_" gradientUnits="userSpaceOnUse" x1="45.4636" y1="582.3583" x2="44.1539" y2="605.3719" gradientTransform="matrix(1 0 0 1 0 -528)">
					<stop  offset="0" style="stop-color:#79D694"/>
					<stop  offset="0.2036" style="stop-color:#74CD8D"/>
					<stop  offset="0.5419" style="stop-color:#66B37C"/>
					<stop  offset="0.9712" style="stop-color:#4F8A5F"/>
					<stop  offset="1" style="stop-color:#4D875D"/>
				</linearGradient>
				<path class="st8" d="M14.6,70.7c0.5,0.5,1.6,0.3,2.1,0.2c1.2-0.2,1.7-0.9,2.9-0.9c0.4,0,0.7,0.1,0.9,0.2
					c-0.2,0.3-0.5,0.7-0.6,1.3c-0.3,1.4,0.3,2.5,0.5,2.8c0.2-0.2,1.5-1.4,1.4-3.1c0-0.3-0.1-1.5-0.9-2c-0.5-0.3-1.1-0.2-2.3,0
					c-1.7,0.3-2.3,0.8-2.6,0.5c-0.4-0.4,0.1-1.6,0.2-1.9c0.1-0.3,0.8-1.8,2.3-2.2c0.7-0.2,1.1,0,2.3,0.2c0.8,0.1,2,0.3,3.5,0.1
					c0.3-0.4,1.2-1.3,2.6-1.8c-2.1,1.2-2.8,2.4-3.1,3.3c-0.4,1.4,0,2.4-0.7,4c-0.5,1-1.2,1.7-1.7,2.2c0,0.9,0,2.2-0.4,3.7
					s-1,2.7-1.5,3.5c-0.2,1-0.3,2.1-0.5,3.1c0.4,0.2,1.3,0.8,2.7,0.8c1.1,0,1.9-0.4,2.3-0.6c-0.6-0.9-1.2-1.8-1.8-2.7
					c0.2-1.1,0.6-2.5,1.7-3.8c1.2-1.4,1.9-2,5.1-3.1c3-1,3.8-2.3,4.7-4.1c0.8-1.5,0.7-3.1,0.6-4.1c0.2,0.6,0.6,2.4-0.1,4.4
					c-0.5,1.3-1.3,2.1-1.7,2.6c1.2,0.8,3.6,1.9,6.7,2.3c2.9,0.3,5.3-0.2,6.6-0.6c1-1.1,2-2.3,2.9-3.4c0.5,0.2,1,0.5,1.6,0.7
					c0.8-0.4,1.6-0.9,2.4-1.3c-1.8-0.8-4.1-1.5-6.9-1.9c-0.1-0.4-1.2-3.7,0.8-6.4c-0.4,1.1-0.9,3.2-0.5,5.8c0,0,2.2,0,5.3,1.2
					c3.1,1.2,3.8,2.1,3.8,2.1l-1.5-0.6L50,73.3l-1.3-0.9l-2.3,3.3l3-0.2c0,0,1.3,1.1,2.1,1.1c0,0,1.2-1.7,2.4-2.1
					c1.2-0.4,3.4,0,3.4,0l0.2-3.5l-4.2-4.3c0,0,2.1-3.3,0.7-5.7c0,0,1.7,1.6-0.1,5.4l3.7,3.9l0.4-1c0,0-1.1-2.9,0.9-4.6
					c0,0-0.8,1.1-0.6,2.9c0.2,1.8,0.4,3.2,0.4,3.2l0.5-0.4c0,0-0.6,1-0.8,1.6s-0.1,1.4,0.5,1.7c0.6,0.3,3,0.4,3,0.4
					s-0.2-1.3,0.6-2.3s2.4-2,2.4-2s0.8-2.5,1.6-2.9l-1.2-0.1c0,0,0.7-0.6,2-0.3c1.3,0.4,3.2,1.8,4.8,2c1.6,0.2,3.1-1.2,3.1-1.2
					c-0.3,0.1-1.4,0.6-2,0.5c-1.3-0.2-1.6-1.1-3.7-2.5c-1.5-1.1-2.3-1.2-2.6-1.2c-0.8-0.1-2,0.2-2,0.2s0.8-0.5,1.6-0.5
					c-1.5-2-3.9-4.9-7.7-7.4c-4-2.7-7.8-4-10.3-4.7c-1.6,1.8-3.9,3.9-6.8,5.9c-4.4,2.9-8.5,4.4-11.5,5.2c1.2-0.6,2.4-1.1,3.5-1.7
					c-1.1,0.1-2.8,0.2-4.8,0.8c-2.8,0.7-2.9,1.3-4.9,1.6c-2.8,0.4-3.6-0.5-5.9,0.4c-0.5,0.2-1.7,0.7-2.6,1.8
					C14.5,67.2,13.7,69.8,14.6,70.7z M63.5,67.8c0,0,0.5,0.6,0.5,1s-0.5,0.7-0.5,0.7s-0.3-0.4-0.4-0.7
					C63.1,68.4,63.5,67.8,63.5,67.8z"/>
			</g>
		</g>
	</g>
</g>
</svg>
