<svg width="43" height="50" viewBox="0 0 43 50" fill="none" xmlns="http://www.w3.org/2000/svg">
<path fill-rule="evenodd" clip-rule="evenodd" d="M1.24305 1.64033C4.38634 5.59462 8.03958 10.4436 11.6233 15.4182C12.6199 16.8017 13.8297 18.4481 14.3115 19.077C14.7934 19.7059 15.2188 20.3056 15.2568 20.4097C15.4244 20.8693 14.3094 21.2927 13.5033 21.0756C13.2555 21.0089 12.8859 20.7867 12.6821 20.5818C12.2541 20.1518 10.2382 17.1451 7.57148 12.9599C5.72205 10.057 5.15881 9.24718 5.82232 10.4444C9.32898 16.772 10.8091 19.5087 11.3495 20.6633C11.7495 21.5183 11.7783 21.3933 10.8986 22.6199C10.3913 23.3276 10.1093 24.1636 9.90205 25.5757C9.5277 28.1262 8.96378 29.2774 6.61618 32.2831C6.05134 33.0063 5.40921 33.9746 5.18934 34.4347C4.84564 35.1535 4.78161 35.4209 4.73381 36.3349C4.69357 37.1036 4.7337 37.6484 4.87857 38.2995C5.12989 39.4293 5.39629 40.0266 6.34153 41.5795C6.7551 42.259 7.12659 42.9658 7.16718 43.1504C7.20765 43.3348 7.28094 43.5105 7.33011 43.541C7.49521 43.6431 9.67291 43.0512 10.6105 42.6496C11.761 42.1567 12.3609 41.7821 13.0851 41.1047C13.8786 40.3624 14.0835 39.9069 14.0835 38.8846C14.0835 37.7707 13.764 37.2567 12.4654 36.2818C11.1586 35.3009 10.5673 34.7198 10.2543 34.109C9.67383 32.976 9.77959 32.027 10.708 30.0404C11.422 28.5126 11.6553 27.6928 11.8502 26.0276C12.0996 23.895 12.3269 23.6191 14.1394 23.2489C16.4465 22.7777 17.4759 21.876 17.5929 20.2237L17.6418 19.5344L16.4091 18.1623C5.73462 6.28134 0.633966 0.631401 0.048437 0.0395833C-0.169379 -0.180519 0.368243 0.539816 1.24305 1.64033ZM16.0444 10.3821C16.0854 10.4248 16.4455 10.5287 16.8448 10.613C17.9433 10.8448 18.7833 11.197 19.7618 11.8358C21.0631 12.6853 21.9085 13.5544 23.9156 16.106C26.0522 18.822 27.3005 20.0586 28.5046 20.6513C29.6412 21.2109 31.257 21.6113 32.9649 21.7565C33.7425 21.8226 34.9981 21.9279 35.7552 21.9906C36.5122 22.0531 37.3869 22.1899 37.699 22.2944C38.5514 22.5798 39.3852 23.1809 39.8589 23.8513L40.2827 24.4509L40.2039 23.9936C40.0777 23.2607 39.6178 22.0232 39.1827 21.2451C38.7768 20.5194 37.632 18.9095 37.5197 18.9069C37.4865 18.9062 37.3681 19.2598 37.2565 19.6929C37.02 20.6105 36.5064 21.4825 36.0906 21.6719C35.6962 21.8516 35.2214 21.6743 35.0306 21.2763C34.9011 21.006 34.9128 20.8952 35.1204 20.4259C35.4169 19.7556 35.52 18.8282 35.411 17.8113C35.308 16.8489 35.1331 16.663 33.624 15.9131C32.5355 15.3722 31.1023 14.9106 29.748 14.665C28.7885 14.491 26.1432 14.4909 25.1255 14.6648L24.3333 14.8002L23.296 13.7479C21.0473 11.4668 19.4184 10.6192 16.8277 10.3828C16.356 10.3397 16.0036 10.3393 16.0444 10.3821ZM15.6843 12.421C15.6843 14.1293 16.2891 16.1861 17.1867 17.5303C17.7393 18.3578 18.7321 19.2658 19.5056 19.6513C20.0795 19.9373 20.9822 20.0357 21.1115 19.8265C21.1482 19.7672 20.9247 19.2763 20.6148 18.7359C20.1466 17.9193 19.9798 17.4596 19.627 16.0141C19.1152 13.916 18.8105 13.2287 18.1245 12.6247C17.6379 12.1965 16.7316 11.7687 16.0017 11.6227L15.6843 11.5592V12.421ZM36.0407 12.0166C35.9743 12.2525 35.8634 12.9599 35.7944 13.5887C35.7255 14.2176 35.6475 14.7549 35.6212 14.7827C35.5949 14.8105 34.9299 14.6107 34.1433 14.3387C33.3567 14.0667 32.6932 13.8641 32.6687 13.8884C32.6444 13.9129 33.1214 14.1898 33.7289 14.504C35.0229 15.1732 35.8408 15.9036 36.0331 16.5616C36.2288 17.232 36.317 19.4492 36.169 19.982C36.1005 20.2282 36.0895 20.3825 36.1445 20.325C36.357 20.1027 36.6136 18.9224 36.6843 17.8418C36.7361 17.0512 36.8048 16.6943 36.9133 16.6527C37.0766 16.59 38.036 17.2674 38.8843 18.0441C39.7136 18.8035 39.22 18.1363 37.9144 16.7331C36.3245 15.0244 36.2179 14.79 36.2124 12.9886C36.21 12.2184 36.1977 11.588 36.1849 11.5879C36.1721 11.5879 36.1073 11.7808 36.0407 12.0166ZM27.3478 21.9641C27.3508 23.5224 27.9765 25.1106 28.9718 26.0869C30.1764 27.2684 31.5753 28.063 34.9554 29.4857C39.3689 31.3436 40.6911 32.2239 41.4695 33.8233C41.6235 34.1396 41.7917 34.6814 41.8434 35.0273L41.9373 35.6561L42.1756 35.1988C42.8754 33.8553 43.1537 31.6546 42.826 30.0535C42.4658 28.2931 41.2276 26.464 39.7174 25.4617C38.2138 24.4636 36.8882 24.0541 33.1187 23.4228C31.7441 23.1926 30.2304 22.8814 29.7548 22.7312C28.9315 22.4709 27.9204 21.9301 27.7539 21.6608C27.5737 21.369 27.3468 21.5384 27.3478 21.9641ZM18.3712 23.7561C17.3255 24.2248 16.7487 25.6396 17.2266 26.5638C17.4326 26.9622 17.7011 27.0581 18.5743 27.0457C19.9788 27.0258 21.2869 26.3315 21.2869 25.6058C21.2869 24.292 19.5847 23.2122 18.3712 23.7561ZM19.9793 24.1022C20.8679 24.6844 19.6504 25.7649 18.6744 25.2602C18.2321 25.0315 18.0824 24.7591 18.2113 24.4177C18.4143 23.8798 19.3777 23.708 19.9793 24.1022ZM30.6165 29.4423C30.7085 29.7784 30.7873 30.4909 30.7913 31.0254C30.8012 32.3276 30.5141 33.0891 29.6691 34.0019C28.695 35.054 27.8992 35.3889 25.1816 35.8909C22.6093 36.366 21.6005 36.6616 20.5532 37.2473C20.1393 37.4788 19.8005 37.6865 19.8005 37.7086C19.8005 37.7308 20.0391 37.6772 20.3307 37.5895C21.2959 37.299 22.6897 37.0958 24.8931 36.9243C26.5299 36.7969 27.2886 36.6854 27.9509 36.4752C29.5384 35.971 30.6194 35.0624 31.2597 33.6941C31.5701 33.0309 31.6086 32.8314 31.6086 31.8871C31.6086 30.9298 31.5719 30.7459 31.2349 30.0149C31.0295 29.569 30.7685 29.1203 30.6551 29.0176C30.457 28.8383 30.4555 28.855 30.6165 29.4423ZM32.62 30.39C32.4413 31.0995 32.4606 32.2286 32.6647 33.0123C32.9492 34.1045 33.5191 35.1928 35.0613 37.59C36.5972 39.977 37.2859 41.3028 37.5248 42.3324C37.7304 43.2182 37.6139 44.5275 37.25 45.4227C37.0859 45.8264 36.975 46.18 37.0034 46.2085C37.0905 46.2954 38.0011 45.7105 38.6664 45.1406C40.2715 43.7656 41.2123 41.8013 41.3598 39.5169C41.5002 37.3418 40.8516 35.5837 39.3642 34.1071C38.3849 33.135 37.5865 32.5861 35.2869 31.3046C34.4101 30.8159 33.5135 30.2959 33.2945 30.149C33.0756 30.0022 32.863 29.882 32.8222 29.882C32.7814 29.882 32.6904 30.1106 32.62 30.39ZM7.74287 36.2227C8.33378 36.8135 7.94525 38.0534 7.1929 37.9778C6.71897 37.9301 6.56026 37.6517 6.73829 37.1799C6.85995 36.8576 6.84988 36.7819 6.65768 36.5768C6.12029 36.003 7.17815 35.6579 7.74287 36.2227ZM19.4995 39.4793C18.5349 39.7055 17.1461 40.2377 16.256 40.7224C15.3173 41.2335 13.1934 42.7482 13.1752 42.9195C13.1717 42.9526 13.6918 43.0687 14.331 43.1778C16.1251 43.484 16.8159 43.8709 18.6176 45.579C20.0405 46.9279 20.1553 47.0107 20.8757 47.2056C21.5361 47.3845 21.7182 47.3926 22.2757 47.2677C23.1716 47.0673 23.8441 46.3975 24.0183 45.5319C24.2996 44.1346 23.5429 43.1325 22.1932 43.1149C21.52 43.1062 21.0998 43.3609 20.8666 43.919C20.7134 44.2856 20.7132 44.3709 20.865 44.6818L21.0358 45.0319L20.9742 44.5414C20.9232 44.1361 20.9582 44.0024 21.1752 43.7715C21.5644 43.3571 22.0893 43.2992 22.7143 43.6018C23.3302 43.9 23.4784 44.1353 23.4784 44.8153C23.4784 46.26 21.9474 46.9348 20.6841 46.0468C19.76 45.3974 19.5024 44.3897 20.0093 43.4075C20.3912 42.6674 21.1173 42.2916 22.1474 42.3006C23.6752 42.314 24.9336 43.2735 25.8311 45.1093C26.0869 45.6328 26.5332 46.5541 26.8229 47.1567C27.4016 48.3609 28.0297 49.1071 28.8876 49.6098C29.6266 50.0429 30.7937 50.1253 31.6917 49.8075C32.218 49.6214 33.5899 48.8681 33.4068 48.8659C33.3754 48.8656 33.0234 48.9675 32.6248 49.0924C31.2349 49.5282 29.8872 49.3446 29.1636 48.6209C28.6131 48.0705 28.3112 47.2276 28.0296 45.4546C27.6488 43.0572 27.2811 42.0786 26.4032 41.1262C25.8401 40.5154 24.6726 39.8054 23.8023 39.5446C22.8069 39.2462 20.6345 39.2133 19.4995 39.4793Z" fill="#F90078"/>
</svg>
