<svg width="120" height="18" viewBox="0 0 120 18" fill="none" xmlns="http://www.w3.org/2000/svg">
<path d="M15.0057 10.4043L10.8186 15.7466L10.3507 12.0172L7.59058 11.7198L15.0057 10.4043Z" fill="#03578C"/>
<path d="M10.7603 9.35179L7.59058 11.7198L8.24537 5.53125L10.7603 9.35179Z" fill="#03578C"/>
<path d="M10.6898 9.34064L8.24536 5.53125L10.5612 6.05751L10.6898 9.34064Z" fill="#0099F7"/>
<path d="M18.5728 11.4339H18.561L17.9177 15.7577H10.8186V15.7466L15.0054 10.4043L18.5728 11.4339Z" fill="#28ADFF"/>
<path d="M7.59058 11.72L10.7134 9.3864L10.6898 9.34082L15.0057 10.4045L7.59058 11.72Z" fill="#0099F7"/>
<path d="M12.4561 8.1397L10.7599 9.35223L10.6898 9.34075L10.5612 6.05762L14.9471 7.07571L14.9589 7.06423L15.333 8.40267L12.4561 8.1397Z" fill="#0474BA"/>
<path d="M21.0641 11.1936L18.5728 11.4339L15.0058 10.4043L15.2163 10.3358L12.4676 8.1393L18.3741 10.2899L19.5319 10.7247L19.7893 10.4617L19.3916 8.67703L18.0348 8.65408L15.7894 8.44817L17.5085 7.7619L19.5319 8.48259L19.6841 5.21094L19.8244 5.25684L21.0641 11.1936Z" fill="#0474BA"/>
<path d="M19.789 10.4619L19.5316 10.7249L18.3738 10.2901L18.0348 8.6543L19.3912 8.67725L19.789 10.4619Z" fill="#03578C"/>
<mask id="mask0_1132_2479" style="mask-type:luminance" maskUnits="userSpaceOnUse" x="12" y="0" width="4" height="3">
<path d="M12.1187 0H15.1405V2.47555H12.1187V0Z" fill="white"/>
</mask>
<g mask="url(#mask0_1132_2479)">
<path d="M15.0992 1.36774L13.7542 1.69956L12.1751 2.40878L12.1987 1.48217L14.7366 0.00634766L15.0992 1.36774Z" fill="#49484D"/>
</g>
<path d="M15.7776 3.91864L12.14 3.89569L12.1751 2.40872L13.7542 1.6995L15.0992 1.36768L15.7776 3.91864Z" fill="#FFB536"/>
<path d="M8.24538 5.56592L3.16968 15.8383H3.15788L0 16.6505L8.24538 5.56592Z" fill="#FFC767"/>
<path d="M8.26898 5.53125L7.59058 11.7198L4.52615 16.6502L3.16968 15.8381L8.24537 5.56568L8.26898 5.53125Z" fill="#FFB536"/>
<path d="M9.49692 11.9261L7.77781 16.2159L4.52615 16.6507L7.59059 11.7202L9.49692 11.9261Z" fill="#FFC767"/>
<path d="M10.8186 15.7581L10.4678 17.2336L7.80108 16.2155H7.7778L9.49691 11.9258L10.3507 12.0173L10.8186 15.7581Z" fill="#FFB536"/>
<path d="M14.9471 7.07568L8.26898 5.53134L12.14 3.89551H12.1987L14.4208 6.45795L14.9471 7.07568Z" fill="#FFB536"/>
<path d="M19.567 5.17727H19.5552L14.9471 7.07607L14.4208 6.45833L16.5144 4.13623L19.567 5.17727Z" fill="#FFC767"/>
<path d="M16.5144 4.13585L14.4208 6.45795L12.14 3.89551L15.7776 3.91846L16.5026 4.13585H16.5144Z" fill="#03578C"/>
<path d="M19.5552 5.17725L18.8886 6.56126L17.52 7.76231H17.5085L15.7891 8.44858L15.333 8.403L14.9471 7.07604L19.5434 5.18872L19.5552 5.17725Z" fill="#0099F7"/>
<path d="M15.2159 10.3358L15.0054 10.4044L10.7718 9.36365L10.7599 9.35218L12.4676 8.13965L15.2159 10.3358Z" fill="#03578C"/>
<path d="M18.3738 10.2899L12.4676 8.13965H12.4561L15.333 8.40261L15.7891 8.44852L18.0348 8.65443L18.3738 10.2899Z" fill="#0099F7"/>
<path d="M19.6837 5.21135L19.5319 8.483L17.5085 7.76231H17.52L18.8886 6.56126L19.5552 5.17725H19.567L19.6837 5.21135Z" fill="#03578C"/>
<path d="M26.8942 14.7654C25.9689 14.7654 25.1374 14.5749 24.3997 14.1935C23.6626 13.8116 23.0868 13.2817 22.6724 12.6039C22.2586 11.9255 22.052 11.1557 22.052 10.2943C22.052 9.43394 22.2586 8.66504 22.6724 7.9873C23.0868 7.3089 23.6626 6.77871 24.3997 6.39639C25.1374 6.0144 25.9689 5.82324 26.8942 5.82324C27.8087 5.82324 28.6074 6.0144 29.2904 6.39639C29.9741 6.77871 30.4721 7.32464 30.7843 8.03451L28.8314 9.08375C28.3792 8.2883 27.7284 7.89024 26.8785 7.89024C26.2217 7.89024 25.6778 8.10534 25.2469 8.53552C24.8167 8.96571 24.6017 9.55197 24.6017 10.2943C24.6017 11.0376 24.8167 11.6242 25.2469 12.0544C25.6778 12.4846 26.2217 12.6997 26.8785 12.6997C27.7389 12.6997 28.3897 12.3016 28.8314 11.5049L30.7843 12.5712C30.4721 13.2594 29.9741 13.7971 29.2904 14.1844C28.6074 14.5719 27.8087 14.7654 26.8942 14.7654Z" fill="#404040"/>
<path d="M37.5145 5.82312C38.5906 5.82312 39.4598 6.14642 40.1218 6.79236C40.7835 7.43764 41.1147 8.39507 41.1147 9.66465V14.6367H38.5965V10.0529C38.5965 9.36398 38.4457 8.85018 38.144 8.5118C37.843 8.17276 37.4076 8.00292 36.8377 8.00292C36.202 8.00292 35.6957 8.19932 35.319 8.5918C34.9429 8.98461 34.755 9.56825 34.755 10.3427V14.6367H32.2368V2.65967H34.755V6.85662C35.0888 6.52349 35.4924 6.26839 35.9655 6.09068C36.4393 5.91231 36.9558 5.82312 37.5145 5.82312Z" fill="#404040"/>
<path d="M46.8936 5.82324C48.2383 5.82324 49.2708 6.14392 49.9915 6.78461C50.7128 7.42464 51.0735 8.3906 51.0735 9.68182V14.6368H48.7167V13.5548C48.2435 14.3621 47.3612 14.7654 46.07 14.7654C45.4027 14.7654 44.8243 14.6526 44.3348 14.427C43.8449 14.2014 43.4708 13.8899 43.2121 13.4919C42.9541 13.0932 42.8252 12.6407 42.8252 12.1344C42.8252 11.3275 43.1288 10.6927 43.7367 10.23C44.3453 9.76772 45.2843 9.53624 46.5539 9.53624H48.5554C48.5554 8.98735 48.3881 8.56503 48.0543 8.26928C47.7212 7.97287 47.2208 7.82467 46.5539 7.82467C46.0913 7.82467 45.6365 7.89778 45.1899 8.04369C44.744 8.18895 44.365 8.38535 44.0528 8.63258L43.1478 6.87248C43.6216 6.53935 44.1895 6.28163 44.8515 6.09867C45.5132 5.91505 46.1939 5.82324 46.8936 5.82324ZM46.6995 13.0709C47.1297 13.0709 47.5114 12.9718 47.8445 12.7731C48.1783 12.5738 48.4153 12.2807 48.5554 11.8931V11.0052H46.828C45.7952 11.0052 45.2791 11.3442 45.2791 12.0216C45.2791 12.3443 45.4053 12.6 45.6581 12.7889C45.9106 12.9771 46.2578 13.0709 46.6995 13.0709Z" fill="#404040"/>
<path d="M58.6273 5.82324C59.7035 5.82324 60.5727 6.14654 61.2347 6.79248C61.8964 7.43776 62.2275 8.39519 62.2275 9.66477V14.6368H59.7094V10.053C59.7094 9.36409 59.5585 8.8503 59.2569 8.51192C58.9559 8.17288 58.5204 8.00304 57.9506 8.00304C57.3148 8.00304 56.8086 8.19944 56.4318 8.59192C56.0557 8.98473 55.8678 9.56837 55.8678 10.3428V14.6368H53.3497V5.95309H55.7551V6.96954C56.0882 6.60427 56.502 6.32163 56.9971 6.12228C57.4929 5.92292 58.0362 5.82324 58.6273 5.82324Z" fill="#404040"/>
<path d="M73.4612 5.95309V13.1837C73.4612 14.7765 73.0467 15.9605 72.2178 16.7353C71.3896 17.5098 70.1797 17.8974 68.5875 17.8974C67.7481 17.8974 66.9513 17.7951 66.1978 17.5905C65.445 17.3859 64.821 17.0898 64.3262 16.7025L65.327 14.8952C65.6922 15.1969 66.1549 15.4362 66.7146 15.614C67.2739 15.7913 67.8336 15.8802 68.3934 15.8802C69.2649 15.8802 69.9082 15.6835 70.3226 15.29C70.7371 14.8972 70.9443 14.3034 70.9443 13.5076V13.1351C70.2876 13.8565 69.3724 14.2172 68.1992 14.2172C67.4035 14.2172 66.6746 14.0424 66.0129 13.6925C65.3509 13.343 64.8263 12.8505 64.439 12.2157C64.0515 11.5809 63.858 10.8491 63.858 10.0202C63.858 9.19228 64.0515 8.46077 64.439 7.82598C64.8263 7.19053 65.3509 6.69772 66.0129 6.34786C66.6746 5.99833 67.4035 5.82324 68.1992 5.82324C69.4583 5.82324 70.4161 6.23769 71.0728 7.06659V5.95309H73.4612ZM68.7003 12.1515C69.3672 12.1515 69.9134 11.9554 70.3384 11.5626C70.7633 11.1691 70.9758 10.655 70.9758 10.0202C70.9758 9.38541 70.7633 8.87194 70.3384 8.47913C69.9134 8.08665 69.3672 7.89024 68.7003 7.89024C68.033 7.89024 67.4838 8.08665 67.0529 8.47913C66.6228 8.87194 66.4077 9.38541 66.4077 10.0202C66.4077 10.655 66.6228 11.1691 67.0529 11.5626C67.4838 11.9554 68.033 12.1515 68.7003 12.1515Z" fill="#404040"/>
<path d="M84.3089 10.3271C84.3089 10.3596 84.2925 10.5855 84.2604 11.0052H77.6908C77.8089 11.5429 78.0886 11.9678 78.5302 12.28C78.9716 12.5921 79.5205 12.7482 80.1762 12.7482C80.6281 12.7482 81.0291 12.681 81.3789 12.5462C81.7285 12.4118 82.0544 12.1993 82.356 11.9088L83.6951 13.362C82.8774 14.2978 81.6832 14.7654 80.112 14.7654C79.1326 14.7654 78.266 14.5749 77.5125 14.1935C76.7596 13.8116 76.1786 13.2817 75.7694 12.6039C75.3609 11.9255 75.1569 11.1557 75.1569 10.2943C75.1569 9.44443 75.3583 8.67816 75.7616 7.99517C76.1655 7.31152 76.7196 6.77871 77.4246 6.39639C78.1292 6.0144 78.9175 5.82324 79.7893 5.82324C80.6392 5.82324 81.4081 6.00653 82.0963 6.37278C82.7852 6.73838 83.3259 7.26299 83.7187 7.94664C84.1122 8.62963 84.3089 9.42311 84.3089 10.3271ZM79.8051 7.72892C79.2349 7.72892 78.7562 7.89024 78.3689 8.21288C77.9814 8.53552 77.7446 8.97686 77.6581 9.53624H81.9363C81.8498 8.98735 81.6127 8.54864 81.2255 8.22075C80.8379 7.89287 80.3644 7.72892 79.8051 7.72892Z" fill="#404040"/>
<path d="M90.3158 5.98444C91.3168 5.98444 92.0998 6.2779 92.6647 6.86449C93.2294 7.45141 93.512 8.26096 93.512 9.29348V14.6367H91.6562V9.81023C91.6562 9.16495 91.4729 8.65705 91.1066 8.28621C90.741 7.91471 90.2358 7.7288 89.5905 7.7288C88.8367 7.73929 88.2389 7.99472 87.7976 8.49475C87.3569 8.9951 87.1366 9.63284 87.1366 10.4083V14.6367H85.2807V2.65967H87.1366V7.7288C87.7284 6.56611 88.7881 5.98444 90.3158 5.98444Z" fill="#5271FF"/>
<path d="M99.5326 5.98438C100.889 5.98438 101.903 6.36669 102.575 7.13067C103.248 7.89497 103.584 8.97143 103.584 10.3597C103.584 10.4997 103.573 10.7309 103.552 11.0535H97.0629C97.2141 11.7208 97.5262 12.2454 97.9994 12.6274C98.4732 13.0097 99.0489 13.2005 99.7267 13.2005C100.189 13.2005 100.63 13.1146 101.05 12.9421C101.47 12.77 101.836 12.5224 102.148 12.1998L103.133 13.249C102.703 13.7117 102.186 14.0694 101.583 14.3219C100.98 14.5747 100.313 14.7009 99.5811 14.7009C98.7092 14.7009 97.9423 14.5183 97.2806 14.1527C96.6196 13.7864 96.1058 13.2753 95.7396 12.6195C95.374 11.9631 95.1913 11.2096 95.1913 10.3597C95.1913 9.50916 95.374 8.75305 95.7396 8.09203C96.1058 7.43036 96.6196 6.91361 97.2806 6.54178C97.9423 6.17029 98.6932 5.98438 99.5326 5.98438ZM101.938 9.69737C101.905 9.00848 101.674 8.46517 101.244 8.06711C100.814 7.66939 100.249 7.47036 99.5496 7.47036C98.8709 7.47036 98.3056 7.66939 97.8538 8.06711C97.4026 8.46517 97.1285 9.00848 97.0314 9.69737H101.938Z" fill="#5271FF"/>
<path d="M107.345 7.76021C107.636 7.17985 108.034 6.73852 108.54 6.43686C109.046 6.1352 109.638 5.98438 110.316 5.98438V7.76021C109.466 7.71759 108.777 7.91694 108.25 8.35828C107.723 8.79896 107.421 9.39637 107.345 10.1499V14.6367H105.489V6.04995H107.345V7.76021Z" fill="#5271FF"/>
<path d="M115.529 5.98438C116.4 5.98438 117.175 6.16766 117.853 6.53391C118.531 6.89951 119.059 7.41068 119.435 8.06711C119.811 8.72387 120 9.47703 120 10.3269C120 11.1883 119.811 11.95 119.435 12.6116C119.059 13.2727 118.531 13.7864 117.853 14.1527C117.175 14.5183 116.4 14.7009 115.529 14.7009C114.647 14.7009 113.866 14.5183 113.188 14.1527C112.51 13.7864 111.983 13.2727 111.606 12.6116C111.23 11.95 111.042 11.1883 111.042 10.3269C111.042 9.47703 111.23 8.72387 111.606 8.06711C111.983 7.41068 112.51 6.89951 113.188 6.53391C113.866 6.16766 114.647 5.98438 115.529 5.98438ZM115.529 7.56741C114.754 7.56741 114.122 7.82841 113.632 8.35041C113.143 8.87175 112.898 9.54129 112.898 10.3597C112.898 11.1879 113.143 11.8601 113.632 12.3769C114.122 12.8936 114.754 13.152 115.529 13.152C116.303 13.152 116.933 12.8936 117.418 12.3769C117.902 11.8601 118.144 11.1879 118.144 10.3597C118.144 9.54129 117.899 8.87175 117.41 8.35041C116.92 7.82841 116.293 7.56741 115.529 7.56741Z" fill="#5271FF"/>
</svg>
