<?xml version="1.0" encoding="UTF-8"?>
<svg id="Layer_1" data-name="Layer 1" xmlns="http://www.w3.org/2000/svg" viewBox="0 0 1806.18 273.93">
  <defs>
    <style>
      .cls-1 {
        fill: #ee53c7;
      }

      .cls-2 {
        fill: #eb1bb4;
      }

      .cls-3 {
        fill: #fea700;
      }

      .cls-4 {
        fill: #ae1984;
      }

      .cls-5 {
        fill: #404040;
      }

      .cls-6 {
        fill: #37fdfa;
      }
    </style>
  </defs>
  <path class="cls-5" d="m1234.75,273.93c-.02-2.57-.04-5.15-.05-7.72,0-27.39,0-54.78,0-82.18,0-.56,0-1.11,0-1.77h36.93v54.02h234.7c.07.79.16,1.41.16,2.04,0,10.96,0,21.91.04,32.87,0,.91-.44,1.84.06,2.74h-271.83Z"/>
  <path class="cls-5" d="m0,1.92c5.91-.03,11.82-.07,17.72-.09,5.41-.01,10.82,0,16.23,0,.89,0,1.79.08,2.79.12v268.17c-.35.12-.57.27-.79.27-11.98.02-23.97.03-35.95.04V1.92Z"/>
  <path class="cls-5" d="m1065.86.89c3.96.29,7.96.37,11.88.92,4.33.61,8.56,1.99,12.9,2.42,6.03.6,11.4,3.22,17.07,4.89,6.43,1.89,12.32,5.06,18.18,8.25,24.55,13.38,42.93,32.72,55.72,57.44,3.12,6.04,5.53,12.39,7.65,18.83,1.16,3.52,2.19,7.09,3.04,10.69.68,2.91.97,5.91,1.49,8.85.29,1.66.8,3.28,1.04,4.95.33,2.21.48,4.45.74,6.68,1.06,9.04.63,18.08-.38,27.08-.51,4.58-1.42,9.12-2.41,13.63-.72,3.32-1.83,6.55-2.82,9.81-.91,3.01-1.73,6.07-2.88,8.99-2.87,7.29-6.25,14.34-10.34,21.04-10.75,17.59-24.79,32.02-42.04,43.28-5.97,3.9-12.18,7.43-18.94,9.89-2.14.78-4.09,2.04-6.21,2.89-5.86,2.35-11.86,4.26-18.06,5.52-3.07.63-6.08,1.61-9.18,1.95-6.18.68-12.39,1.42-18.58,1.44-45.06.12-90.11.07-135.17.07-.57,0-1.14-.06-1.69-.09-.48-1.91-.69-187.14-.22-191.41h36.31v153.95c.74.05,1.21.1,1.69.1,33.31,0,66.63.04,99.94-.08,7.95-.03,15.87-1.14,23.51-3.34,16.26-4.68,30.84-12.47,42.96-24.41,8.9-8.77,16.25-18.7,21.06-30.28,2.34-5.63,4.7-11.31,5.82-17.36.74-4.01,1.23-8.05,1.85-12.08.16-1.05.41-2.08.54-3.13.67-5.65-.02-11.26-.59-16.86-.33-3.26-1.24-6.46-1.85-9.69-.32-1.69-.39-3.45-.86-5.1-4.04-14.17-10.45-27.07-20.18-38.32-8.61-9.95-18.64-17.99-30.43-23.79-3.41-1.68-7.13-2.71-10.58-4.29-4.75-2.18-9.82-3.22-14.87-4.27-3.38-.7-6.87-.97-10.32-1.15-23.53-1.26-47.08-.35-70.61-.52-23.48-.17-46.97-.04-70.46-.04-.91,0-1.81,0-2.78,0-.13-.43-.31-.73-.31-1.03,0-12.04,0-24.08.02-36.12,1.99-.03,3.99-.09,5.98-.09,43.79,0,87.58.01,131.37.01.66,0,1.32-.08,1.98-.12Z"/>
  <path class="cls-5" d="m759.04.89c4.13.31,8.32.27,12.37,1,4.78.86,9.57,1.77,14.34,2.68,5.16.98,10.01,2.76,14.85,4.44,13.15,4.57,25.32,11.12,36.16,19.91,5.15,4.17,10.32,8.32,14.85,13.21,10.01,10.8,18.62,22.55,24.74,35.97,2.32,5.08,4.22,10.35,6.09,15.62,1.26,3.55,2.29,7.2,3.11,10.88.84,3.78,1.3,7.64,1.91,11.46.36,2.27.83,4.52,1.04,6.8.38,4.08.85,8.18.83,12.27-.04,5.3-.24,10.64-.88,15.9-1.08,8.85-2.69,17.64-5.57,26.11-5.16,15.14-12.39,29.16-22.4,41.77-13.04,16.41-28.93,29.2-47.86,38.19-5.29,2.52-10.72,4.86-16.3,6.63-6.17,1.97-12.54,3.42-18.9,4.68-4.74.93-9.55,1.71-14.44,1.67-2.73-.02-5.45.29-8.18.29-44.13.02-88.27.01-132.4.01-.81,0-1.62-.07-2.57-.11V78.85h36.35v153.87c.78.08,1.41.19,2.04.19,32.81,0,65.62,0,98.42,0,4.46,0,8.85-.77,13.27-1.23,4.37-.46,8.58-1.42,12.74-2.62,7.01-2.01,13.79-4.65,20.18-8.16,10.75-5.9,20.12-13.5,28.02-22.92,6.33-7.55,11.55-15.78,15.22-24.89,1.81-4.49,3.74-8.98,4.51-13.86.56-3.58,1.84-7.06,2.3-10.64.98-7.63,1.18-15.3.11-22.95-.51-3.64-.88-7.31-1.75-10.87-1.08-4.43-2.49-8.78-3.95-13.11-3.29-9.75-8.46-18.48-14.84-26.54-9.94-12.56-22.26-22.08-36.9-28.54-6.95-3.07-14.19-5.38-21.69-6.73-3.32-.6-6.73-.64-10.09-1.08-8.61-1.11-17.26-.47-25.89-.49-38.22-.09-76.44-.04-114.66-.04-.99,0-1.98,0-3.17,0-.07-.74-.18-1.36-.18-1.98-.03-11.12-.05-22.25-.06-33.37,0-.79-.31-1.72.8-2.09,1.66.07,3.31.2,4.97.2,43.83.02,87.67.02,131.5.02.66,0,1.32-.08,1.98-.12Z"/>
  <path class="cls-5" d="m1527.83,1.91c1.2-.07,2-.15,2.79-.15,14.91,0,29.81,0,44.72-.01,1.47,0,2.62.2,3.69,1.47,10.62,12.68,21.32,25.29,32,37.91,9.93,11.74,19.84,23.49,29.79,35.2,11.78,13.87,23.63,27.69,35.4,41.57,11.45,13.5,22.82,27.06,34.25,40.58,6.82,8.06,13.69,16.06,20.53,24.11,5.43,6.4,10.84,12.82,16.26,19.22,6.44,7.59,12.9,15.17,19.34,22.76,10.74,12.68,21.47,25.37,32.2,38.06,2.4,2.84,4.8,5.67,7.39,8.73-.73.1-1.26.24-1.78.24-15.4.02-30.81,0-46.21.06-1.39,0-2.31-.46-3.18-1.5-7.36-8.8-14.73-17.58-22.15-26.32-11.93-14.07-23.91-28.1-35.86-42.16-10.28-12.1-20.53-24.21-30.79-36.32-.21-.25-.33-.59-.6-1.08-.67.72-1.06,1.1-1.41,1.51-6.64,7.77-13.31,15.52-19.92,23.31-10.15,11.97-20.23,23.99-30.38,35.95-11.56,13.62-23.16,27.21-34.73,40.82-1.29,1.52-2.58,3.04-3.8,4.62-.62.8-1.35,1.14-2.35,1.12-1.83-.04-3.66-.03-5.5-.03-13.32,0-26.65,0-39.97,0-.9,0-1.8,0-3.23,0,38.85-45.78,77.38-91.2,116.04-136.75-37.53-44.33-74.9-88.47-112.53-132.93Z"/>
  <path class="cls-5" d="m1234.82,153.36c-.03-1.16-.09-2.32-.09-3.48-.01-48.4-.02-96.81-.03-145.21,0-.48.04-.96.07-1.56h271.34c.49,1.77.68,31.49.2,36.68h-234.73c.03,2.44.07,4.63.07,6.81.03,22.75.04,45.5.06,68.24,0,.65,0,1.29,0,2.11h113.68v37.06c-.8,0-1.53,0-2.26,0-47.55,0-95.1,0-142.65-.02-1.74,0-3.49-.1-5.23-.15-.14-.16-.28-.32-.42-.49Z"/>
  <path class="cls-5" d="m275.76,270.59c-1.97,0-3.95,0-5.92,0-13.41.02-26.82,0-40.22.08-1.7,0-2.95-.49-4.18-1.68-16.9-16.38-33.83-32.71-50.76-49.05-14.64-14.14-29.28-28.29-43.94-42.41-7.19-6.92-14.44-13.77-21.62-20.7-.87-.85-1.74-1.05-2.88-1.05-14.99.03-29.98.02-44.97.03-.81,0-1.62,0-2.59,0v-37.46c.94,0,1.83,0,2.72,0,13.91,0,27.81-.01,41.72.02,1.67,0,2.98-.37,4.24-1.59,18.78-18.14,37.62-36.21,56.42-54.33,5.21-5.02,10.3-10.16,15.5-15.18,10.1-9.75,20.25-19.45,30.37-29.17,5.27-5.06,10.55-10.1,15.78-15.18,1.07-1.04,2.14-1.62,3.71-1.61,15.16.05,30.31.02,45.47.02.49,0,.98,0,1.87,0-.56.66-.85,1.08-1.22,1.44-11.24,10.84-22.47,21.69-33.74,32.5-6.17,5.92-12.42,11.75-18.6,17.66-5.59,5.35-11.1,10.76-16.68,16.12-13.3,12.78-26.61,25.53-39.91,38.31-2.34,2.25-4.58,4.59-6.92,6.84-5.92,5.69-11.85,11.39-17.84,17-1.27,1.19-1.87,2.45-1.67,4.15.08.66.06,1.33,0,1.99-.12,1.18.35,2,1.21,2.82,10.46,10,20.88,20.03,31.3,30.07,6.35,6.11,12.65,12.28,19.01,18.38,13.32,12.78,26.69,25.5,39.99,38.31,14.01,13.5,27.97,27.06,41.94,40.59.87.84,1.72,1.71,2.58,2.56-.06.18-.11.35-.17.53Z"/>
  <path class="cls-2" d="m427.42.17c.57-.06,1.15-.16,1.72-.16,11.93,0,23.86,0,35.79,0,.41,0,.82.07,1.23.1.16.27.31.54.47.81.07.14.11.28.1.44-.32.46-.71.88-.96,1.38-5.64,11.36-11.27,22.72-16.9,34.09-.61,1.24-1.17,2.5-1.76,3.76-.81,1.44-1.68,2.85-2.42,4.32-17.29,34.68-34.56,69.36-51.84,104.05-19.49,39.14-38.98,78.29-58.46,117.44-.63,1.26-1.21,2.53-1.83,3.84-.62.04-1.2.12-1.77.12-11.74,0-23.48,0-35.21,0-.41,0-.83-.05-1.24-.07-.17-.12-.34-.23-.5-.35.29-.76.51-1.55.87-2.28,23.06-46.34,46.13-92.68,69.19-139.03,19.43-39.07,38.85-78.14,58.27-117.21,1.29-2.6,2.62-5.18,3.87-7.8.53-1.11.92-2.3,1.38-3.45Z"/>
  <path class="cls-6" d="m447.12,40.57c.59-1.25,1.15-2.52,1.76-3.76,5.62-11.37,11.25-22.73,16.9-34.09.25-.5.63-.92.96-1.38.8,1.3,1.71,2.55,2.39,3.91,31.55,63.34,63.07,126.69,94.6,190.04,11.96,24.04,23.94,48.07,35.9,72.11.32.65.46,1.4.68,2.1-.13.17-.25.34-.38.51-2.03-1.25-4.05-2.51-6.08-3.75-.76-.46-1.57-.84-2.33-1.3-3.95-2.38-7.89-4.77-11.84-7.15-2.36-1.42-4.73-2.82-7.1-4.23-2.68-1.6-5.35-3.22-8.05-4.8-2.11-1.23-4.29-2.35-6.39-3.6-4.3-2.55-8.56-5.16-12.84-7.74-6.54-13.17-13.07-26.34-19.61-39.51-2.8-5.65-5.61-11.29-8.42-16.93-12.01-24.11-24.02-48.21-36.02-72.32-10.7-21.48-21.39-42.96-32.09-64.44-.62-1.25-1.35-2.44-2.03-3.67Z"/>
  <path class="cls-3" d="m545.3,237.44c4.28,2.58,8.54,5.19,12.84,7.74,2.1,1.25,4.27,2.37,6.39,3.6,2.7,1.57,5.37,3.2,8.05,4.8,2.37,1.41,4.74,2.81,7.1,4.23,3.95,2.38,7.89,4.77,11.84,7.15.76.46,1.57.84,2.33,1.3,2.04,1.24,4.06,2.5,6.08,3.75.02.14.07.26.14.38-.15.02-.29.08-.41.18-.18.01-.36.03-.54.04-.83-.03-1.66-.09-2.49-.09-66.68,0-133.37,0-200.05,0-.82,0-1.65,0-2.84,0-.04-10.98,0-21.8-.02-32.92.9-.04,1.69-.11,2.48-.11,45.29,0,90.58,0,135.86,0,4.41,0,8.82-.03,13.24-.05Z"/>
  <path class="cls-5" d="m1802.65,2.34c-34.82,41.05-69.63,82.1-104.68,123.41-8.47-9.81-16.71-19.6-25.11-29.54,1.99-2.38,3.95-4.73,5.93-7.06,15.92-18.75,31.86-37.5,47.78-56.26,8.55-10.07,17.09-20.16,25.66-30.22.37-.43,1.03-.8,1.58-.86,1.23-.13,2.49-.06,3.74-.06,14.07,0,28.15,0,42.22,0,.89,0,1.78,0,2.66,0,.07.19.14.38.21.57Z"/>
  <path class="cls-1" d="m466.63.91c-.16-.27-.31-.54-.47-.81.19,0,.39-.01.58-.02-.04.27-.07.55-.11.82Z"/>
  <path class="cls-5" d="m1234.82,153.36c.14.16.28.32.42.49-.14-.16-.28-.32-.42-.49Z"/>
  <path class="cls-4" d="m293.84,269.93c.17.12.34.23.5.35-.17-.12-.34-.23-.5-.35Z"/>
</svg>