<svg width="120" height="41" viewBox="0 0 120 41" fill="none" xmlns="http://www.w3.org/2000/svg">
<mask id="mask0_1132_2174" style="mask-type:luminance" maskUnits="userSpaceOnUse" x="0" y="0" width="69" height="41">
<path d="M68.486 0H0V40.3198H68.486V0Z" fill="white"/>
</mask>
<g mask="url(#mask0_1132_2174)">
<path fill-rule="evenodd" clip-rule="evenodd" d="M18.5736 2.88811C17.22 2.88811 14.7107 3.44494 12.0752 4.16343C12.068 4.16539 12.0608 4.16727 12.0535 4.16905C9.45663 4.87391 6.82987 5.70855 5.27541 6.21809C4.95556 6.32467 4.67211 6.51919 4.45752 6.77942C4.24596 7.03599 4.10974 7.34618 4.06388 7.67544C4.06314 7.6821 4.06234 7.68877 4.06145 7.6954C2.7112 17.8666 5.83814 25.3204 9.57849 30.2268C9.58684 30.2377 9.59493 30.2488 9.60278 30.2601C11.1832 32.3459 13.0659 34.184 15.1887 35.7135C15.8884 36.2191 16.6315 36.664 17.4075 37.0417C17.4265 37.0509 17.4449 37.0608 17.4632 37.0712C17.8092 37.2549 18.1852 37.3748 18.5733 37.4256C18.9676 37.3736 19.3494 37.2505 19.7003 37.0618C19.711 37.0561 19.7219 37.0504 19.733 37.045C20.5098 36.6655 21.2531 36.2207 21.9548 35.7152C24.081 34.1837 25.9667 32.3426 27.5488 30.253C27.5599 30.2375 27.5713 30.2224 27.5832 30.2076C27.9473 29.731 28.3038 29.2292 28.6528 28.7022C28.9403 28.2679 29.5255 28.1491 29.9594 28.4369C30.3935 28.7249 30.5121 29.3104 30.2244 29.7448C29.8496 30.311 29.4647 30.8524 29.0697 31.3689C29.0689 31.3699 29.0681 31.3709 29.0674 31.3719C27.3685 33.62 25.3421 35.6004 23.0562 37.247C22.2727 37.8113 21.443 38.3084 20.576 38.7333C19.9841 39.0488 19.3365 39.246 18.6691 39.314C18.6058 39.3206 18.542 39.3206 18.4788 39.3142C17.8057 39.2462 17.1525 39.0462 16.5566 38.726C15.6924 38.3035 14.8659 37.8077 14.0861 37.2443C11.8017 35.5982 9.77683 33.6189 8.07889 31.372C8.0719 31.3628 8.06509 31.3534 8.05846 31.3438C4.06296 26.0903 0.775482 18.1596 2.18972 7.46649C2.19042 7.46009 2.19119 7.45369 2.19202 7.4473C2.2815 6.76034 2.56268 6.11253 3.00327 5.57821C3.44388 5.04389 4.02606 4.64473 4.68302 4.4265L4.68657 4.42532C6.25773 3.9103 8.93003 3.06092 11.58 2.34228C11.5865 2.34054 11.593 2.33884 11.5995 2.33723C14.1849 1.63296 16.9293 1.00098 18.5736 1.00098C20.222 1.00098 22.9752 1.63816 25.565 2.33941L25.5694 2.34065C27.8832 2.9795 30.1805 3.67383 32.4615 4.42362L32.4648 4.42476C33.1218 4.64355 33.7038 5.04314 34.1443 5.57773C34.5847 6.11231 34.8657 6.76029 34.9552 7.44737C34.9604 7.48779 34.9631 7.52851 34.9631 7.56927V7.57112C34.9631 8.09223 34.5411 8.51468 34.0204 8.51468C33.5339 8.51468 33.1336 8.14608 33.0829 7.67276C33.0367 7.34413 32.9006 7.03455 32.6894 6.77831C32.4747 6.5177 32.1912 6.3228 31.8711 6.21589C29.6203 5.47604 27.3534 4.7909 25.0704 4.16047C22.4327 3.44636 19.927 2.88811 18.5736 2.88811Z" fill="url(#paint0_linear_1132_2174)"/>
<path d="M11.7303 26.6685H14.4324V14.9553H14.4753L21.9823 26.6685H25.415V11.3976H22.7103V22.7417H22.67L15.2973 11.3976H11.7303V26.6685ZM29.7313 22.354C30.1024 23.298 30.6674 24.1534 31.3897 24.865C32.1118 25.5767 32.9753 26.1287 33.924 26.4854C34.9552 26.8757 36.0499 27.0702 37.1524 27.0589C38.268 27.0591 39.3737 26.851 40.4129 26.4451C41.366 26.0709 42.2347 25.5097 42.9674 24.794C43.6927 24.0765 44.2631 23.2175 44.6433 22.2705C45.0511 21.2334 45.2511 20.126 45.2314 19.0116C45.2475 17.8754 45.0441 16.7469 44.6327 15.688C44.2555 14.733 43.6848 13.8665 42.9568 13.143C42.23 12.4304 41.3588 11.8821 40.4023 11.5351C39.3574 11.1586 38.2519 10.9796 37.1417 11.0071C36.0392 10.9961 34.9444 11.1907 33.9131 11.5809C32.9664 11.942 32.1048 12.4959 31.383 13.2075C30.6552 13.9355 30.0848 14.8055 29.7071 15.7634C29.3073 16.8293 29.1159 17.9623 29.1431 19.1005C29.127 20.2147 29.3304 21.3213 29.742 22.3567H29.7313V22.354ZM32.3391 16.7896C32.5771 16.1475 32.9385 15.5583 33.4028 15.0551C33.8639 14.5564 34.4237 14.1593 35.0465 13.889C35.7226 13.5999 36.4521 13.4567 37.1873 13.4689C37.9241 13.4594 38.6548 13.6024 39.3334 13.889C39.9597 14.1574 40.5223 14.5547 40.9851 15.0551C41.4479 15.5594 41.8091 16.1483 42.0488 16.7896C42.2978 17.4709 42.4206 18.1918 42.4116 18.9172C42.42 19.6885 42.2927 20.4552 42.0352 21.1822C41.8018 21.8434 41.4404 22.4521 40.9717 22.9734C40.5098 23.4794 39.9471 23.8831 39.3198 24.1583C38.642 24.4429 37.9143 24.5894 37.1791 24.5894C36.4441 24.5894 35.7164 24.4429 35.0386 24.1583C34.4157 23.8807 33.8571 23.4774 33.3976 22.9734C32.9288 22.4521 32.5674 21.8434 32.3339 21.1822C32.0788 20.4547 31.9524 19.6882 31.9604 18.9172C31.9544 18.1883 32.0818 17.4644 32.3364 16.7816L32.3391 16.7896ZM51.7342 26.6685H54.2212L57.7398 15.0418H57.7828L61.3147 26.6685H63.888L68.3062 11.3976H65.5612L62.5824 22.3997H62.5394L59.1876 11.3976H56.5259L53.1095 22.3997H53.0665L50.2139 11.3976H47.2408L51.7342 26.6685Z" fill="#00C26F"/>
</g>
<g clip-path="url(#clip0_1132_2174)">
<path d="M76.6474 20.6163C76.4394 21.2503 76.2492 21.8132 76.0667 22.3787C75.7167 23.4514 75.3718 24.5266 75.0244 25.5992C74.9407 25.8579 74.8596 26.1165 74.7861 26.3777C74.7404 26.5426 74.6491 26.6186 74.4691 26.611C74.218 26.5983 73.9644 26.6009 73.7134 26.611C73.5257 26.6161 73.437 26.535 73.3812 26.3549C73.0338 25.2265 72.6813 24.1006 72.3212 22.9772C71.9307 21.76 71.53 20.5504 71.137 19.3383C71.1015 19.2267 71.0939 19.1557 71.1243 19.1176C71.1573 19.0771 71.2207 19.0821 71.3196 19.0847C71.4388 19.0872 71.5579 19.0847 71.6771 19.0897C71.8648 19.0948 71.9434 19.0821 72.1716 19.0974C72.2654 19.1024 72.3288 19.11 72.3846 19.1557C72.4379 19.1963 72.4734 19.2622 72.4962 19.356C72.8893 20.9688 73.3913 22.5537 73.8554 24.1462C73.8782 24.2248 73.9011 24.5316 74.0608 24.874C74.071 24.8968 74.0811 24.9146 74.0836 24.9222C74.109 24.9222 74.142 24.9146 74.1673 24.8917C74.213 24.8537 74.218 24.7878 74.2358 24.7396C74.7759 23.0811 75.3642 21.4379 75.8536 19.7617C75.8993 19.602 75.9525 19.4422 76.0058 19.2825C76.0337 19.2013 76.0768 19.1405 76.1377 19.105C76.1757 19.0821 76.2137 19.0745 76.3481 19.072C76.4876 19.0669 76.5713 19.072 76.7133 19.0745C76.802 19.0745 76.8883 19.0771 76.977 19.0796C77.1368 19.0796 77.1697 19.0796 77.2052 19.0999C77.2686 19.1379 77.3067 19.2165 77.3498 19.3535C77.5501 19.9697 77.7504 20.5859 77.9533 21.1996C78.3185 22.3001 78.6963 23.3956 79.0057 24.5139C79.0488 24.6737 79.097 24.8359 79.2136 24.9881C79.3328 24.9069 79.3429 24.7751 79.3708 24.6635C79.7715 23.0076 80.2787 21.3821 80.7453 19.7465C80.7858 19.6071 80.8137 19.4625 80.8416 19.3205C80.8695 19.176 80.9507 19.0999 81.1003 19.0999C81.4147 19.0999 81.7317 19.0999 82.0461 19.0999C82.1831 19.0999 82.2414 19.1658 82.1958 19.3002C82.1552 19.4194 82.107 19.5361 82.069 19.6552C81.7495 20.6062 81.4528 21.5647 81.1637 22.5233C80.8442 23.5832 80.4866 24.6305 80.1468 25.6855C80.0733 25.9137 80.0023 26.1444 79.9389 26.3752C79.8932 26.5451 79.7842 26.611 79.6143 26.606C79.3835 26.6009 79.1528 26.606 78.9195 26.606C78.6608 26.606 78.638 26.5933 78.5594 26.3473C78.354 25.7108 78.1562 25.0718 77.9482 24.4378C77.611 23.4159 77.2686 22.3965 76.9288 21.3745C76.8984 21.2858 76.8756 21.1945 76.8553 21.1032C76.8198 20.951 76.7742 20.804 76.6474 20.6138V20.6163Z" fill="#404040"/>
<path d="M109.476 22.962C108.561 22.962 107.645 22.962 106.73 22.962C106.418 22.962 106.388 23.0051 106.451 23.312C106.71 24.5317 107.519 25.3558 108.754 25.541C109.765 25.6906 110.61 25.3153 111.267 24.5342C111.294 24.5013 111.317 24.4658 111.34 24.4328C111.426 24.3035 111.515 24.268 111.644 24.3872C111.83 24.5571 112.02 24.7219 112.218 24.8766C112.347 24.978 112.321 25.0617 112.23 25.1606C111.933 25.4877 111.617 25.7996 111.234 26.0202C109.938 26.7632 108.599 26.8495 107.262 26.1622C106.18 25.6069 105.531 24.6788 105.285 23.5047C105.046 22.3737 105.244 21.2934 105.893 20.3273C106.53 19.3814 107.425 18.8464 108.576 18.712C109.347 18.6207 110.065 18.7475 110.739 19.0974C111.431 19.455 111.946 20.0002 112.261 20.7153C112.486 21.2275 112.605 21.7676 112.618 22.3281C112.618 22.3915 112.618 22.4549 112.623 22.5157C112.644 22.8149 112.499 22.9637 112.19 22.962C111.284 22.962 110.382 22.962 109.476 22.962ZM109.147 19.7035C108.961 19.6781 108.754 19.7263 108.551 19.7719C107.521 20.0002 106.786 20.5707 106.476 21.6079C106.347 22.0339 106.362 22.0542 106.798 22.0542C107.995 22.0542 109.195 22.0542 110.392 22.0542C110.622 22.0542 110.856 22.0593 111.084 22.0491C111.36 22.0364 111.411 21.973 111.376 21.6941C111.211 20.3907 110.067 19.6908 109.144 19.706L109.147 19.7035Z" fill="#404040"/>
<path d="M89.9199 25.3914C89.7855 25.437 89.7373 25.5232 89.6815 25.5942C89.1617 26.2637 88.439 26.5274 87.6275 26.606C87.1077 26.6568 86.6005 26.5705 86.1086 26.4057C85.2286 26.109 84.6124 25.2215 84.6834 24.4658C84.7037 24.2376 84.6707 24.0068 84.724 23.7786C84.8736 23.1446 85.2591 22.6983 85.8195 22.394C86.3495 22.1049 86.9175 21.9376 87.521 21.8615C88.16 21.7803 88.8016 21.8209 89.4406 21.8006C89.8033 21.7905 89.8109 21.7778 89.8159 21.4279C89.8185 21.0627 89.7424 20.728 89.5421 20.4161C89.3519 20.1168 89.0856 19.9292 88.7484 19.8404C87.7721 19.5792 86.8769 19.7593 86.0553 20.3324C85.7916 20.5167 85.5557 20.4871 85.3478 20.2436C85.2946 20.1802 85.2438 20.1118 85.1906 20.0458C84.9877 19.7897 84.9826 19.7491 85.2464 19.5463C85.7561 19.1608 86.3292 18.9047 86.9606 18.8007C87.2801 18.7475 87.6047 18.7044 87.9267 18.679C88.4567 18.6384 88.9842 18.7044 89.4685 18.9225C90.4169 19.3459 90.9444 20.0813 90.9621 21.1261C90.9824 22.2748 90.9698 23.4261 90.9621 24.5774C90.9621 25.0896 90.9799 25.5993 91.0737 26.1039C91.1244 26.3727 91.0788 26.4209 90.8125 26.426C90.6452 26.4285 90.4753 26.4285 90.3079 26.426C90.0315 26.426 90.0416 26.4209 89.9732 26.1648C89.9047 25.9188 89.9301 25.6678 89.9148 25.3939L89.9199 25.3914ZM89.0324 22.711C88.4263 22.6755 87.8405 22.8023 87.2548 22.9265C86.8795 23.0052 86.5371 23.1725 86.2506 23.4286C85.931 23.7126 85.7865 24.0601 85.9057 24.4962C86.0274 24.9425 86.3038 25.2392 86.7273 25.4243C87.1077 25.5892 87.5083 25.612 87.9039 25.5613C88.685 25.4649 89.291 25.0871 89.6232 24.3542C89.8362 23.8851 89.8261 23.3779 89.8109 22.8733C89.8083 22.7566 89.7475 22.7059 89.6334 22.7059C89.433 22.7059 89.2327 22.7059 89.0349 22.7059L89.0324 22.711Z" fill="#404040"/>
<path d="M116.622 22.4929C116.622 21.7499 116.622 21.0095 116.622 20.2665C116.622 19.9444 116.622 19.9317 116.293 19.9115C115.968 19.8912 115.641 19.9038 115.316 19.8988C115.037 19.8937 115.037 19.8912 115.04 19.6173C115.04 19.4398 115.045 19.2623 115.04 19.0848C115.035 18.9225 115.113 18.8591 115.268 18.8591C115.615 18.8591 115.963 18.8591 116.308 18.854C116.617 18.8515 116.625 18.8464 116.62 18.5345C116.615 18.0324 116.65 17.5303 116.594 17.0307C116.574 16.8583 116.66 16.7974 116.805 16.7924C117.066 16.7822 117.33 16.7772 117.593 16.7797C117.791 16.7822 117.789 16.9344 117.789 17.0739C117.789 17.5024 117.789 17.931 117.784 18.3595C117.779 18.9022 117.758 18.854 118.273 18.8565C118.714 18.8565 119.156 18.8565 119.597 18.8591C119.904 18.8616 119.942 18.9073 119.899 19.2166C119.878 19.3662 119.931 19.5057 119.926 19.6528C119.919 19.8506 119.893 19.8937 119.691 19.8988C119.206 19.9064 118.724 19.9013 118.24 19.9013C117.725 19.9013 117.784 19.8937 117.784 20.3628C117.784 21.722 117.784 23.0812 117.779 24.4405C117.779 24.6509 117.794 24.8563 117.885 25.0516C118.045 25.3889 118.316 25.5461 118.681 25.574C119.003 25.5993 119.303 25.5156 119.602 25.4041C119.904 25.2925 119.921 25.3102 119.939 25.6196C119.949 25.7642 119.97 25.9112 119.99 26.0558C120.015 26.2384 119.942 26.3601 119.767 26.4184C119.105 26.6365 118.43 26.7126 117.756 26.5021C117.251 26.3449 116.924 25.9848 116.752 25.4928C116.66 25.2367 116.62 24.9679 116.62 24.6915C116.62 23.9586 116.62 23.2283 116.62 22.4955L116.622 22.4929Z" fill="#404040"/>
<path d="M101.58 20.5658C101.58 22.3637 101.58 24.1616 101.58 25.9595C101.58 26.0939 101.585 26.2308 101.597 26.3652C101.613 26.5224 101.552 26.6061 101.39 26.6061C101.149 26.6061 100.905 26.6061 100.664 26.6061C100.535 26.6061 100.472 26.5377 100.472 26.4109C100.472 26.3373 100.469 26.2638 100.469 26.1902C100.469 22.3865 100.469 18.5827 100.469 14.779C100.469 14.462 100.472 14.462 100.781 14.4569C100.948 14.4569 101.118 14.4544 101.286 14.4569C101.564 14.462 101.572 14.4722 101.58 14.7359C101.58 14.7993 101.58 14.8601 101.58 14.9235C101.58 16.8051 101.58 18.6867 101.58 20.5658Z" fill="#404040"/>
<path d="M96.2189 20.543C96.2189 22.4778 96.2189 24.4101 96.2189 26.345C96.2189 26.5783 96.2036 26.6011 95.978 26.6061C95.7675 26.6112 95.557 26.6112 95.3465 26.6036C95.1259 26.596 95.1056 26.5706 95.0955 26.3399C95.093 26.2562 95.0955 26.1725 95.0955 26.0888C95.0955 22.3561 95.0955 18.6233 95.0955 14.8906C95.0955 14.4139 95.0549 14.457 95.5418 14.4544C95.699 14.4544 95.8562 14.4544 96.016 14.4544C96.1453 14.4544 96.2113 14.5153 96.2087 14.6446C96.2087 14.708 96.2087 14.7689 96.2087 14.8323C96.2087 16.7341 96.2087 18.6386 96.2087 20.5404C96.2113 20.5404 96.2163 20.5404 96.2189 20.5404V20.543Z" fill="#404040"/>
</g>
<defs>
<linearGradient id="paint0_linear_1132_2174" x1="18.4094" y1="1.00098" x2="18.4094" y2="39.3189" gradientUnits="userSpaceOnUse">
<stop stop-color="#FB9600"/>
<stop offset="0.25081" stop-color="#00C26F"/>
<stop offset="0.50428" stop-color="#6696D6"/>
<stop offset="0.776" stop-color="#F28984"/>
<stop offset="0.9999" stop-color="#5FCEF0"/>
</linearGradient>
<clipPath id="clip0_1132_2174">
<rect width="48.896" height="12.1796" fill="white" transform="translate(71.104 14.4543)"/>
</clipPath>
</defs>
</svg>
