<svg width="508" height="414" viewBox="0 0 508 414" fill="none" xmlns="http://www.w3.org/2000/svg">
<g filter="url(#filter0_d_653_463)">
<circle cx="245.707" cy="214.816" r="141.415" transform="rotate(-91.6866 245.707 214.816)" fill="white"/>
</g>
<path d="M131.799 184.501C119.235 181.157 111.587 168.141 116.966 156.305C122.903 143.242 130.813 131.117 140.457 120.369C150.101 109.622 161.303 100.45 173.649 93.1379C184.835 86.5131 198.6 92.7128 203.28 104.842C207.96 116.972 201.668 130.387 191.07 137.917C185.401 141.945 180.175 146.601 175.498 151.813C170.821 157.025 166.756 162.723 163.363 168.793C157.02 180.142 144.363 187.844 131.799 184.501Z" fill="#127E2B"/>
<path d="M164.635 129.247C155.693 119.809 156.009 104.715 166.798 97.461C182.394 86.9744 199.991 79.6564 218.59 76.0225C237.189 72.3887 256.247 72.5449 274.643 76.3902C287.369 79.0503 293.343 92.9148 288.611 105.024C283.879 117.133 270.183 122.787 257.28 121.192C247.448 119.976 237.437 120.311 227.618 122.23C217.799 124.148 208.398 127.606 199.747 132.433C188.393 138.767 173.577 138.684 164.635 129.247Z" fill="#16BB3B"/>
<g filter="url(#filter1_d_653_463)">
<path d="M245.714 96.9416C245.715 83.9406 256.327 73.2023 269.148 75.3574C286.95 78.3497 304.089 84.7356 319.604 94.2444C341.84 107.873 359.874 127.384 371.713 150.623C383.552 173.861 388.734 199.92 386.686 225.92C385.257 244.061 380.348 261.679 372.303 277.839C366.509 289.478 351.584 291.749 341.066 284.107C330.548 276.464 328.545 261.784 333.353 249.704C336.835 240.957 339.004 231.697 339.75 222.223C341.116 204.88 337.66 187.496 329.762 171.994C321.865 156.493 309.835 143.477 295.002 134.386C286.899 129.42 278.133 125.731 269.01 123.405C256.412 120.194 245.714 109.943 245.714 96.9416Z" fill="#0BE23B"/>
</g>
<path d="M359.639 245.048C372.205 248.383 379.863 261.393 374.493 273.233C369.329 284.616 362.665 295.296 354.652 304.979C341.618 320.727 325.326 333.462 306.897 342.307C288.468 351.152 268.34 355.897 247.901 356.214C227.461 356.531 207.196 352.413 188.501 344.144C169.807 335.875 153.127 323.651 139.612 308.314C126.096 292.978 116.066 274.894 110.213 255.308C104.36 235.722 102.823 215.1 105.707 194.863C107.48 182.42 110.899 170.304 115.848 158.826C120.995 146.888 135.773 143.802 146.694 150.856C157.615 157.911 160.42 172.46 156.281 184.784C154.459 190.21 153.129 195.807 152.317 201.506C150.393 215.005 151.418 228.762 155.323 241.827C159.227 254.892 165.918 266.956 174.934 277.186C183.949 287.417 195.076 295.571 207.547 301.087C220.017 306.603 233.536 309.35 247.17 309.139C260.805 308.927 274.232 305.762 286.525 299.862C298.819 293.962 309.687 285.466 318.381 274.961C322.051 270.526 325.297 265.778 328.086 260.779C334.421 249.426 347.073 241.714 359.639 245.048Z" fill="#2B61D1"/>
<g filter="url(#filter2_bd_653_463)">
<rect x="11" y="273.457" width="88.6841" height="46.7389" rx="23.3695" fill="white" fill-opacity="0.67" shape-rendering="crispEdges"/>
</g>
<path d="M38.5858 295.416H37.3568L37.594 292.548H43.8897V289.746H34.6833L33.9071 298.24H37.7664C40.5047 298.24 41.2808 299.017 41.2808 300.202C41.2808 301.431 40.2028 302.164 38.4564 302.164C36.8825 302.164 35.3085 301.669 34.1658 300.806L32.7859 303.48C34.252 304.515 36.4512 305.097 38.5426 305.097C42.8548 305.097 44.8168 302.768 44.8168 300.095C44.8168 297.421 43.0488 295.416 38.5858 295.416ZM52.7021 305.097C56.4321 305.097 59.1703 302.272 59.1703 297.292C59.1703 292.311 56.4321 289.487 52.7021 289.487C48.9937 289.487 46.2339 292.311 46.2339 297.292C46.2339 302.272 48.9937 305.097 52.7021 305.097ZM52.7021 302.143C50.9773 302.143 49.7699 300.72 49.7699 297.292C49.7699 293.864 50.9773 292.441 52.7021 292.441C54.4485 292.441 55.6559 293.864 55.6559 297.292C55.6559 300.72 54.4485 302.143 52.7021 302.143ZM64.3602 297.895C66.5594 297.895 68.0902 296.3 68.0902 293.734C68.0902 291.169 66.5594 289.573 64.3602 289.573C62.161 289.573 60.6087 291.19 60.6087 293.734C60.6087 296.278 62.161 297.895 64.3602 297.895ZM63.045 304.838H65.6108L75.9168 289.746H73.351L63.045 304.838ZM64.3602 296.127C63.4331 296.127 62.7863 295.33 62.7863 293.734C62.7863 292.139 63.4331 291.341 64.3602 291.341C65.3089 291.341 65.9342 292.117 65.9342 293.734C65.9342 295.351 65.3089 296.127 64.3602 296.127ZM74.6016 305.01C76.8008 305.01 78.3531 303.393 78.3531 300.849C78.3531 298.305 76.8008 296.688 74.6016 296.688C72.4239 296.688 70.8716 298.305 70.8716 300.849C70.8716 303.393 72.4239 305.01 74.6016 305.01ZM74.6016 303.243C73.6745 303.243 73.0276 302.466 73.0276 300.849C73.0276 299.232 73.6745 298.456 74.6016 298.456C75.5502 298.456 76.1755 299.254 76.1755 300.849C76.1755 302.445 75.5502 303.243 74.6016 303.243Z" fill="#2B61D1"/>
<g filter="url(#filter3_bd_653_463)">
<rect x="381.316" y="99.6843" width="88.6841" height="46.7389" rx="23.3695" fill="white" fill-opacity="0.67" shape-rendering="crispEdges"/>
</g>
<path d="M410.778 122.118L414.185 118.237V115.973H403.62V118.776H410.045L406.94 122.29V124.597H408.536C410.519 124.597 411.36 125.309 411.36 126.452C411.36 127.681 410.282 128.392 408.536 128.392C406.962 128.392 405.366 127.896 404.223 127.034L402.865 129.707C404.331 130.742 406.509 131.324 408.622 131.324C412.912 131.324 414.874 128.996 414.874 126.452C414.874 124.231 413.495 122.549 410.778 122.118ZM422.955 131.324C426.685 131.324 429.424 128.5 429.424 123.519C429.424 118.539 426.685 115.714 422.955 115.714C419.247 115.714 416.487 118.539 416.487 123.519C416.487 128.5 419.247 131.324 422.955 131.324ZM422.955 128.371C421.231 128.371 420.023 126.948 420.023 123.519C420.023 120.091 421.231 118.668 422.955 118.668C424.702 118.668 425.909 120.091 425.909 123.519C425.909 126.948 424.702 128.371 422.955 128.371ZM434.613 124.123C436.813 124.123 438.343 122.528 438.343 119.962C438.343 117.396 436.813 115.801 434.613 115.801C432.414 115.801 430.862 117.418 430.862 119.962C430.862 122.506 432.414 124.123 434.613 124.123ZM433.298 131.066H435.864L446.17 115.973H443.604L433.298 131.066ZM434.613 122.355C433.686 122.355 433.04 121.557 433.04 119.962C433.04 118.366 433.686 117.569 434.613 117.569C435.562 117.569 436.187 118.345 436.187 119.962C436.187 121.579 435.562 122.355 434.613 122.355ZM444.855 131.238C447.054 131.238 448.606 129.621 448.606 127.077C448.606 124.533 447.054 122.916 444.855 122.916C442.677 122.916 441.125 124.533 441.125 127.077C441.125 129.621 442.677 131.238 444.855 131.238ZM444.855 129.47C443.928 129.47 443.281 128.694 443.281 127.077C443.281 125.46 443.928 124.684 444.855 124.684C445.803 124.684 446.429 125.481 446.429 127.077C446.429 128.672 445.803 129.47 444.855 129.47Z" fill="#2B61D1"/>
<g filter="url(#filter4_bd_653_463)">
<rect x="160.805" y="11" width="88.6841" height="46.7389" rx="23.3695" fill="white" fill-opacity="0.67" shape-rendering="crispEdges"/>
</g>
<path d="M177.733 27.2887V30.0916H180.751V42.3812H184.244V27.2887H177.733ZM191.653 39.5352L195.124 36.258C197.237 34.296 197.646 32.9592 197.646 31.4931C197.646 28.7549 195.404 27.03 192.041 27.03C189.324 27.03 187.211 28.1296 186.047 29.8329L188.591 31.4715C189.324 30.4582 190.424 29.9623 191.717 29.9623C193.313 29.9623 194.132 30.6522 194.132 31.838C194.132 32.5711 193.895 33.3473 192.558 34.6194L186.737 40.1174V42.3812H198.142V39.5352H191.653ZM201.778 42.5537C202.942 42.5537 203.869 41.6697 203.869 40.4408C203.869 39.1902 202.942 38.3709 201.778 38.3709C200.613 38.3709 199.686 39.1902 199.686 40.4408C199.686 41.6697 200.613 42.5537 201.778 42.5537ZM210.612 32.9592H209.383L209.62 30.0916H215.915V27.2887H206.709L205.933 35.7836H209.792C212.53 35.7836 213.307 36.5598 213.307 37.7457C213.307 38.9746 212.229 39.7077 210.482 39.7077C208.908 39.7077 207.334 39.2118 206.192 38.3494L204.812 41.0229C206.278 42.0578 208.477 42.64 210.568 42.64C214.881 42.64 216.843 40.3114 216.843 37.6379C216.843 34.9643 215.075 32.9592 210.612 32.9592ZM221.542 35.4387C223.741 35.4387 225.272 33.8432 225.272 31.2775C225.272 28.7117 223.741 27.1162 221.542 27.1162C219.343 27.1162 217.79 28.7333 217.79 31.2775C217.79 33.8216 219.343 35.4387 221.542 35.4387ZM220.227 42.3812H222.792L233.098 27.2887H230.533L220.227 42.3812ZM221.542 33.6707C220.615 33.6707 219.968 32.873 219.968 31.2775C219.968 29.682 220.615 28.8842 221.542 28.8842C222.491 28.8842 223.116 29.6604 223.116 31.2775C223.116 32.8945 222.491 33.6707 221.542 33.6707ZM231.783 42.5537C233.982 42.5537 235.535 40.9367 235.535 38.3925C235.535 35.8483 233.982 34.2313 231.783 34.2313C229.606 34.2313 228.053 35.8483 228.053 38.3925C228.053 40.9367 229.606 42.5537 231.783 42.5537ZM231.783 40.7857C230.856 40.7857 230.209 40.0095 230.209 38.3925C230.209 36.7754 230.856 35.9993 231.783 35.9993C232.732 35.9993 233.357 36.797 233.357 38.3925C233.357 39.988 232.732 40.7857 231.783 40.7857Z" fill="#2B61D1"/>
<g filter="url(#filter5_bd_653_463)">
<rect x="34.9688" y="75.7159" width="88.6841" height="46.7389" rx="23.3695" fill="white" fill-opacity="0.67" shape-rendering="crispEdges"/>
</g>
<path d="M57.0996 92.0047V97.3086H60.2044V94.8507H65.2065L59.7947 107.097H63.5894L69.1952 94.2685V92.0047H57.0996ZM71.6809 107.27C72.8452 107.27 73.7723 106.386 73.7723 105.157C73.7723 103.906 72.8452 103.087 71.6809 103.087C70.5166 103.087 69.5895 103.906 69.5895 105.157C69.5895 106.386 70.5166 107.27 71.6809 107.27ZM80.5147 97.6751H79.2858L79.5229 94.8076H85.8187V92.0047H76.6123L75.8361 100.5H79.6954C82.4336 100.5 83.2098 101.276 83.2098 102.462C83.2098 103.691 82.1318 104.424 80.3854 104.424C78.8114 104.424 77.2375 103.928 76.0948 103.065L74.7149 105.739C76.181 106.774 78.3802 107.356 80.4716 107.356C84.7838 107.356 86.7458 105.027 86.7458 102.354C86.7458 99.6803 84.9778 97.6751 80.5147 97.6751ZM91.4452 100.155C93.6444 100.155 95.1752 98.5591 95.1752 95.9934C95.1752 93.4277 93.6444 91.8322 91.4452 91.8322C89.246 91.8322 87.6936 93.4492 87.6936 95.9934C87.6936 98.5376 89.246 100.155 91.4452 100.155ZM90.13 107.097H92.6957L103.002 92.0047H100.436L90.13 107.097ZM91.4452 98.3866C90.5181 98.3866 89.8712 97.5889 89.8712 95.9934C89.8712 94.3979 90.5181 93.6002 91.4452 93.6002C92.3938 93.6002 93.0191 94.3763 93.0191 95.9934C93.0191 97.6105 92.3938 98.3866 91.4452 98.3866ZM101.687 107.27C103.886 107.27 105.438 105.653 105.438 103.108C105.438 100.564 103.886 98.9472 101.687 98.9472C99.5089 98.9472 97.9565 100.564 97.9565 103.108C97.9565 105.653 99.5089 107.27 101.687 107.27ZM101.687 105.502C100.759 105.502 100.113 104.725 100.113 103.108C100.113 101.491 100.759 100.715 101.687 100.715C102.635 100.715 103.26 101.513 103.26 103.108C103.26 104.704 102.635 105.502 101.687 105.502Z" fill="#2B61D1"/>
<defs>
<filter id="filter0_d_653_463" x="93.5087" y="62.6197" width="331.348" height="331.344" filterUnits="userSpaceOnUse" color-interpolation-filters="sRGB">
<feFlood flood-opacity="0" result="BackgroundImageFix"/>
<feColorMatrix in="SourceAlpha" type="matrix" values="0 0 0 0 0 0 0 0 0 0 0 0 0 0 0 0 0 0 127 0" result="hardAlpha"/>
<feMorphology radius="1.79673" operator="dilate" in="SourceAlpha" result="effect1_dropShadow_653_463"/>
<feOffset dx="13.4754" dy="13.4754"/>
<feGaussianBlur stdDeviation="11.2295"/>
<feComposite in2="hardAlpha" operator="out"/>
<feColorMatrix type="matrix" values="0 0 0 0 0.168627 0 0 0 0 0.380392 0 0 0 0 0.819608 0 0 0 0.1 0"/>
<feBlend mode="normal" in2="BackgroundImageFix" result="effect1_dropShadow_653_463"/>
<feBlend mode="normal" in="SourceGraphic" in2="effect1_dropShadow_653_463" result="shape"/>
</filter>
<filter id="filter1_d_653_463" x="218.75" y="72.0846" width="171.367" height="243.438" filterUnits="userSpaceOnUse" color-interpolation-filters="sRGB">
<feFlood flood-opacity="0" result="BackgroundImageFix"/>
<feColorMatrix in="SourceAlpha" type="matrix" values="0 0 0 0 0 0 0 0 0 0 0 0 0 0 0 0 0 0 127 0" result="hardAlpha"/>
<feMorphology radius="1.79765" operator="dilate" in="SourceAlpha" result="effect1_dropShadow_653_463"/>
<feOffset dx="-11.9843" dy="11.9843"/>
<feGaussianBlur stdDeviation="6.59138"/>
<feComposite in2="hardAlpha" operator="out"/>
<feColorMatrix type="matrix" values="0 0 0 0 0.168627 0 0 0 0 0.380392 0 0 0 0 0.819608 0 0 0 0.1 0"/>
<feBlend mode="normal" in2="BackgroundImageFix" result="effect1_dropShadow_653_463"/>
<feBlend mode="normal" in="SourceGraphic" in2="effect1_dropShadow_653_463" result="shape"/>
</filter>
<filter id="filter2_bd_653_463" x="-36.9373" y="225.519" width="184.558" height="142.614" filterUnits="userSpaceOnUse" color-interpolation-filters="sRGB">
<feFlood flood-opacity="0" result="BackgroundImageFix"/>
<feGaussianBlur in="BackgroundImageFix" stdDeviation="23.9687"/>
<feComposite in2="SourceAlpha" operator="in" result="effect1_backgroundBlur_653_463"/>
<feColorMatrix in="SourceAlpha" type="matrix" values="0 0 0 0 0 0 0 0 0 0 0 0 0 0 0 0 0 0 127 0" result="hardAlpha"/>
<feMorphology radius="1.79673" operator="dilate" in="SourceAlpha" result="effect2_dropShadow_653_463"/>
<feOffset dx="13.4754" dy="13.4754"/>
<feGaussianBlur stdDeviation="11.2295"/>
<feComposite in2="hardAlpha" operator="out"/>
<feColorMatrix type="matrix" values="0 0 0 0 0.168627 0 0 0 0 0.380392 0 0 0 0 0.819608 0 0 0 0.1 0"/>
<feBlend mode="normal" in2="effect1_backgroundBlur_653_463" result="effect2_dropShadow_653_463"/>
<feBlend mode="normal" in="SourceGraphic" in2="effect2_dropShadow_653_463" result="shape"/>
</filter>
<filter id="filter3_bd_653_463" x="333.379" y="51.747" width="184.558" height="142.614" filterUnits="userSpaceOnUse" color-interpolation-filters="sRGB">
<feFlood flood-opacity="0" result="BackgroundImageFix"/>
<feGaussianBlur in="BackgroundImageFix" stdDeviation="23.9687"/>
<feComposite in2="SourceAlpha" operator="in" result="effect1_backgroundBlur_653_463"/>
<feColorMatrix in="SourceAlpha" type="matrix" values="0 0 0 0 0 0 0 0 0 0 0 0 0 0 0 0 0 0 127 0" result="hardAlpha"/>
<feMorphology radius="1.79673" operator="dilate" in="SourceAlpha" result="effect2_dropShadow_653_463"/>
<feOffset dx="13.4754" dy="13.4754"/>
<feGaussianBlur stdDeviation="11.2295"/>
<feComposite in2="hardAlpha" operator="out"/>
<feColorMatrix type="matrix" values="0 0 0 0 0.168627 0 0 0 0 0.380392 0 0 0 0 0.819608 0 0 0 0.1 0"/>
<feBlend mode="normal" in2="effect1_backgroundBlur_653_463" result="effect2_dropShadow_653_463"/>
<feBlend mode="normal" in="SourceGraphic" in2="effect2_dropShadow_653_463" result="shape"/>
</filter>
<filter id="filter4_bd_653_463" x="112.867" y="-36.9373" width="184.558" height="142.614" filterUnits="userSpaceOnUse" color-interpolation-filters="sRGB">
<feFlood flood-opacity="0" result="BackgroundImageFix"/>
<feGaussianBlur in="BackgroundImageFix" stdDeviation="23.9687"/>
<feComposite in2="SourceAlpha" operator="in" result="effect1_backgroundBlur_653_463"/>
<feColorMatrix in="SourceAlpha" type="matrix" values="0 0 0 0 0 0 0 0 0 0 0 0 0 0 0 0 0 0 127 0" result="hardAlpha"/>
<feMorphology radius="1.79673" operator="dilate" in="SourceAlpha" result="effect2_dropShadow_653_463"/>
<feOffset dx="13.4754" dy="13.4754"/>
<feGaussianBlur stdDeviation="11.2295"/>
<feComposite in2="hardAlpha" operator="out"/>
<feColorMatrix type="matrix" values="0 0 0 0 0.168627 0 0 0 0 0.380392 0 0 0 0 0.819608 0 0 0 0.1 0"/>
<feBlend mode="normal" in2="effect1_backgroundBlur_653_463" result="effect2_dropShadow_653_463"/>
<feBlend mode="normal" in="SourceGraphic" in2="effect2_dropShadow_653_463" result="shape"/>
</filter>
<filter id="filter5_bd_653_463" x="-12.9686" y="27.7786" width="184.558" height="142.614" filterUnits="userSpaceOnUse" color-interpolation-filters="sRGB">
<feFlood flood-opacity="0" result="BackgroundImageFix"/>
<feGaussianBlur in="BackgroundImageFix" stdDeviation="23.9687"/>
<feComposite in2="SourceAlpha" operator="in" result="effect1_backgroundBlur_653_463"/>
<feColorMatrix in="SourceAlpha" type="matrix" values="0 0 0 0 0 0 0 0 0 0 0 0 0 0 0 0 0 0 127 0" result="hardAlpha"/>
<feMorphology radius="1.79673" operator="dilate" in="SourceAlpha" result="effect2_dropShadow_653_463"/>
<feOffset dx="13.4754" dy="13.4754"/>
<feGaussianBlur stdDeviation="11.2295"/>
<feComposite in2="hardAlpha" operator="out"/>
<feColorMatrix type="matrix" values="0 0 0 0 0.168627 0 0 0 0 0.380392 0 0 0 0 0.819608 0 0 0 0.1 0"/>
<feBlend mode="normal" in2="effect1_backgroundBlur_653_463" result="effect2_dropShadow_653_463"/>
<feBlend mode="normal" in="SourceGraphic" in2="effect2_dropShadow_653_463" result="shape"/>
</filter>
</defs>
</svg>
