<?xml version="1.0" encoding="UTF-8"?>
<svg id="Layer_1" data-name="Layer 1" xmlns="http://www.w3.org/2000/svg" xmlns:xlink="http://www.w3.org/1999/xlink" version="1.1" viewBox="0 0 351.8 64">
  <defs>
    <style>
      .cls-1 {
        fill: url(#linear-gradient);
      }

      .cls-1, .cls-2 {
        stroke-width: 0px;
      }

      .cls-2 {
        fill: #000;
      }
    </style>
    <linearGradient id="linear-gradient" x1="31.5" y1="334.3" x2="32.6" y2="334" gradientTransform="translate(-4883.1 19543.9) scale(159.6 -58.4)" gradientUnits="userSpaceOnUse">
      <stop offset="0" stop-color="#ffc600"/>
      <stop offset="1" stop-color="#ff00b8"/>
    </linearGradient>
  </defs>
  <g id="EckoDAO">
    <g id="Group_77834" data-name="Group 77834">
      <path id="Path_74925" data-name="Path 74925" class="cls-2" d="M23.5,17C9.7,17,0,27.1,0,40.6s9.7,23.4,23.7,23.4,18.7-4.7,22-15.3h-12.1c-1.6,3.6-5.5,5.6-10,5.6s-11-3.6-11.7-10.8h34.5c1.1-14.8-8.1-26.5-23-26.5ZM12.5,34.9c1.5-4.8,5.2-8.3,10.9-8.3s9.3,3.4,10.6,8.3H12.5Z"/>
      <path id="Path_74926" data-name="Path 74926" class="cls-2" d="M73.1,53.2c-6.9,0-11.6-5.2-11.5-12.7,0-7.4,4.5-12.7,11.6-12.7s9,2.4,10.4,7.3h12c-1.7-11.5-11.5-18.1-22.4-18.1s-23.5,10.1-23.5,23.5,9.9,23.5,23.4,23.5,20.7-6.3,22.5-18.2h-12c-1.4,4.9-5.6,7.4-10.5,7.4Z"/>
      <path id="Path_74927" data-name="Path 74927" class="cls-2" d="M146,63h-15l-14.8-17.4h15.1l14.7,17.4Z"/>
      <path id="Path_74928" data-name="Path 74928" class="cls-2" d="M142.9,18l-20.5,21.4-7.8,7.8-3.6,3.6v12.1h-11.7V0h11.7v36.7l17.1-18.7h14.9Z"/>
      <path id="Path_74929" data-name="Path 74929" class="cls-2" d="M163.7,17c-12.7-.2-23.2,10-23.4,22.7,0,.3,0,.5,0,.8-.3,12.7,9.8,23.2,22.5,23.5.3,0,.6,0,.9,0,13.2,0,23.5-9.9,23.5-23.5.2-12.7-9.9-23.3-22.7-23.5-.3,0-.6,0-.8,0ZM163.7,52.9c-6.5,0-11.6-4.9-11.6-12.4s5.1-12.4,11.6-12.4,11.6,5,11.6,12.4c0,7.4-5.1,12.4-11.6,12.4h0Z"/>
    </g>
    <path id="Group_77895" data-name="Group 77895" class="cls-1" d="M213.4,6.3c8.3,0,15.2,2.7,20.8,8.1,5.5,5.2,8.5,12.5,8.3,20.1.2,7.6-2.8,14.8-8.3,20.1-5.6,5.4-12.5,8.1-20.8,8.1h-21.2V6.3h21.2ZM213.4,49.5c4.1.2,8.1-1.4,11-4.2,2.9-2.9,4.4-6.8,4.3-10.9.2-4.1-1.4-8-4.3-10.9-3-2.8-6.9-4.3-11-4.2h-7.4v30.2h7.4ZM300.9,13.6c5.6-5.6,13.3-8.6,21.2-8.4,7.9-.2,15.5,2.8,21.2,8.4,5.6,5.4,8.8,13,8.6,20.8.2,7.8-2.9,15.4-8.6,20.8-5.6,5.6-13.3,8.6-21.2,8.4-7.9.2-15.5-2.8-21.2-8.4-5.6-5.4-8.8-13-8.6-20.8-.2-7.8,2.9-15.4,8.6-20.8h0ZM333.3,22.8c-3-3-7.1-4.7-11.3-4.5-4.2-.1-8.3,1.5-11.3,4.5-3,3.1-4.6,7.3-4.5,11.6-.2,4.3,1.5,8.5,4.5,11.6,3,3,7.1,4.7,11.3,4.5,4.2.1,8.3-1.5,11.3-4.5,3-3.1,4.6-7.3,4.5-11.6.2-4.3-1.5-8.5-4.5-11.6ZM280,62.8l-3.2-9.5h-20.5l-3.2,9.5h-14.8l19.8-56.5h16.9l19.7,56.5h-14.9ZM259.8,42.8h13.5l-6.7-20.1-6.7,20.1Z"/>
  </g>
</svg>