<svg width="101" height="31" viewBox="0 0 101 31" fill="none" xmlns="http://www.w3.org/2000/svg">
<path d="M15.9109 8.48085e-05C18.9732 0.0204268 21.9608 0.93836 24.4971 2.63813C27.0333 4.33789 29.0046 6.74338 30.1623 9.55123C31.32 12.3591 31.6122 15.4436 31.0022 18.4157C30.3922 21.3879 28.9073 24.1146 26.7346 26.252C24.562 28.3894 21.7989 29.8419 18.7939 30.4261C15.7889 31.0104 12.6765 30.7003 9.84918 29.535C7.02187 28.3697 4.60626 26.4013 2.90698 23.8782C1.2077 21.355 0.30085 18.39 0.300781 15.3571C0.314683 11.2705 1.9671 7.35681 4.89453 4.47684C7.82197 1.59686 11.7846 -0.013464 15.9109 8.48085e-05Z" fill="#2B61D1"/>
<path d="M17.7658 24.274L15.9877 25.291L12.168 23.11L13.9027 22.118L13.9461 22.093L14.0127 22.131L17.7658 24.274Z" fill="white"/>
<path d="M24.5893 10.534V12.581L20.8291 10.431L19.8093 9.84799L18.7895 10.431L14.0105 13.165L12.9907 13.748V14.955L11.1521 13.904L10.1322 13.321L9.11244 13.904L7.38281 14.892V10.534L15.9855 5.61499L24.5893 10.534Z" fill="white"/>
<path d="M24.5902 14.91V20.38L19.8112 23.11H19.8051L15.0312 20.38V14.91L19.8112 12.176L24.5902 14.91Z" fill="white"/>
<path d="M12.8807 17.2219V20.3649L10.1312 21.9379L7.38281 20.3659V17.2229L10.1322 15.6509L12.8807 17.2219Z" fill="white"/>
<path d="M43.5679 9.32499V14.597H53.2974V18.297H43.5679V25.565H38.7031V5.61499H54.5879V9.32499H43.5679Z" fill="#303B52"/>
<path d="M56.7188 5.61499H61.4018V25.563H56.7188V5.61499Z" fill="#303B52"/>
<path d="M81.3292 9.56104V25.561H76.8865V23.658C76.256 24.3519 75.4814 24.9024 74.6159 25.272C73.7504 25.6415 72.8145 25.8213 71.8723 25.799C67.8183 25.799 64.9648 23.539 64.9648 18.599V9.56104H69.6499V17.921C69.6499 20.598 70.8504 21.788 72.9224 21.788C75.0842 21.788 76.6451 20.42 76.6451 17.474V9.56104H81.3292Z" fill="#303B52"/>
<path d="M94.8436 25.563L91.3006 20.654L87.6423 25.563H82.5312L88.746 17.501L82.7432 9.56104H87.9937L91.4268 14.231L94.9405 9.56104H99.9255L93.9187 17.382L100.159 25.563H94.8436Z" fill="#303B52"/>
</svg>
