<svg width="116" height="115" viewBox="0 0 116 115" fill="none" xmlns="http://www.w3.org/2000/svg">
<g filter="url(#filter0_d_1393_524957)">
<circle cx="47.0947" cy="46.8877" r="38.04" fill="white"/>
</g>
<path d="M47.3629 25.5089C51.609 25.5374 55.7515 26.8225 59.2682 29.2022C62.7848 31.5819 65.518 34.9497 67.1232 38.8808C68.7284 42.8118 69.1337 47.1302 68.2879 51.2913C67.4421 55.4523 65.3831 59.2698 62.3706 62.2622C59.3582 65.2547 55.527 67.2881 51.3604 68.1061C47.1938 68.924 42.8783 68.4899 38.9581 66.8585C35.0379 65.227 31.6885 62.4713 29.3324 58.9388C26.9762 55.4063 25.7188 51.2553 25.7188 47.0091C25.738 41.2878 28.0292 35.8085 32.0882 31.7765C36.1473 27.7444 41.6417 25.4899 47.3629 25.5089Z" fill="#2B61D1"/>
<path d="M49.9257 59.4924L47.4603 60.9163L42.1641 57.8628L44.5693 56.474L44.6295 56.439L44.7219 56.4922L49.9257 59.4924Z" fill="white"/>
<path d="M59.4084 40.2563V43.1222L54.1948 40.1121L52.7807 39.2959L51.3667 40.1121L44.7405 43.9398L43.3265 44.756V46.4459L40.777 44.9744L39.363 44.1582L37.949 44.9744L35.5508 46.3577V40.2563L47.4789 33.3696L59.4084 40.2563Z" fill="white"/>
<path d="M59.3867 46.3809V54.039L52.7605 57.8611H52.7521L46.1328 54.039V46.3809L52.7605 42.5532L59.3867 46.3809Z" fill="white"/>
<path d="M43.1738 49.6238V54.024L39.3616 56.2263L35.5508 54.0254V49.6252L39.363 47.4243L43.1738 49.6238Z" fill="white"/>
<defs>
<filter id="filter0_d_1393_524957" x="0.497472" y="0.29044" width="114.586" height="114.588" filterUnits="userSpaceOnUse" color-interpolation-filters="sRGB">
<feFlood flood-opacity="0" result="BackgroundImageFix"/>
<feColorMatrix in="SourceAlpha" type="matrix" values="0 0 0 0 0 0 0 0 0 0 0 0 0 0 0 0 0 0 127 0" result="hardAlpha"/>
<feMorphology radius="1.4262" operator="dilate" in="SourceAlpha" result="effect1_dropShadow_1393_524957"/>
<feOffset dx="10.6965" dy="10.6965"/>
<feGaussianBlur stdDeviation="8.91377"/>
<feComposite in2="hardAlpha" operator="out"/>
<feColorMatrix type="matrix" values="0 0 0 0 0.168627 0 0 0 0 0.380392 0 0 0 0 0.819608 0 0 0 0.1 0"/>
<feBlend mode="normal" in2="BackgroundImageFix" result="effect1_dropShadow_1393_524957"/>
<feBlend mode="normal" in="SourceGraphic" in2="effect1_dropShadow_1393_524957" result="shape"/>
</filter>
</defs>
</svg>
