<svg width="116" height="115" viewBox="0 0 116 115" fill="none" xmlns="http://www.w3.org/2000/svg">
<g filter="url(#filter0_d_1393_524933)">
<circle cx="47.5244" cy="46.8076" r="38.04" fill="white"/>
</g>
<path fill-rule="evenodd" clip-rule="evenodd" d="M49.3595 40.3375L46.4809 40.9734V38.5709L49.3595 37.9468V40.3375ZM55.3457 41.6682C54.2218 41.6682 53.4993 42.2099 53.0979 42.5868L52.9489 41.8566H50.4258V55.5883L53.2929 54.9642L53.3044 51.6313C53.7172 51.9375 54.325 52.3733 55.3343 52.3733C57.3871 52.3733 59.2564 50.6774 59.2564 46.9442C59.2449 43.5289 57.3527 41.6682 55.3457 41.6682ZM54.6576 49.7824C53.981 49.7824 53.5796 49.5351 53.3044 49.2289L53.2929 44.8597C53.5911 44.5182 54.0039 44.2826 54.6576 44.2826C55.7012 44.2826 56.4237 45.4839 56.4237 47.0266C56.4237 48.6047 55.7127 49.7824 54.6576 49.7824ZM68.2935 47.062C68.2935 44.0471 66.8715 41.6682 64.1535 41.6682C61.424 41.6682 59.7726 44.0471 59.7726 47.0384C59.7726 50.5832 61.7222 52.3733 64.5205 52.3733C65.8852 52.3733 66.9173 52.0553 67.6972 51.6078V49.2524C66.9173 49.6528 66.0228 49.9001 64.8875 49.9001C63.775 49.9001 62.7888 49.4997 62.6626 48.1101H68.2706C68.2706 48.0452 68.2747 47.8979 68.2794 47.7282L68.2795 47.7278C68.2859 47.497 68.2935 47.2248 68.2935 47.062ZM62.6281 45.9432C62.6281 44.6124 63.4194 44.0589 64.1419 44.0589C64.8415 44.0589 65.5869 44.6124 65.5869 45.9432H62.6281ZM46.4807 41.8684H49.3593V52.1731H46.4807V41.8684ZM43.2125 41.8684L43.396 42.7399C44.0727 41.468 45.4145 41.7271 45.7814 41.8684V44.5771C45.4259 44.4475 44.2791 44.2827 43.6025 45.1895V52.1731H40.7354V41.8684H43.2125ZM37.6617 39.3129L34.8635 39.9253L34.852 49.3584C34.852 51.1014 36.125 52.385 37.8223 52.385C38.7627 52.385 39.4508 52.2084 39.8292 51.9964V49.6057C39.4623 49.7588 37.6503 50.3005 37.6503 48.5576V44.3769H39.8292V41.8684H37.6503L37.6617 39.3129ZM30.8841 44.2238C30.2763 44.2238 29.9093 44.4004 29.9093 44.8597C29.9093 45.3612 30.5409 45.5818 31.3244 45.8555C32.6018 46.3016 34.2831 46.8888 34.2902 49.064C34.2902 51.1721 32.6502 52.3851 30.2648 52.3851C29.2785 52.3851 28.2005 52.1849 27.134 51.7138V48.9109C28.0973 49.4527 29.3129 49.8531 30.2648 49.8531C30.907 49.8531 31.3658 49.6764 31.3658 49.1347C31.3658 48.5792 30.6811 48.3253 29.8546 48.0188C28.5958 47.552 27.0078 46.9631 27.0078 45.0011C27.0078 42.9166 28.556 41.6682 30.8841 41.6682C31.836 41.6682 32.7764 41.8213 33.7282 42.21V44.9775C32.8567 44.4947 31.7557 44.2238 30.8841 44.2238Z" fill="#6461FC"/>
<defs>
<filter id="filter0_d_1393_524933" x="0.927159" y="0.210362" width="114.586" height="114.588" filterUnits="userSpaceOnUse" color-interpolation-filters="sRGB">
<feFlood flood-opacity="0" result="BackgroundImageFix"/>
<feColorMatrix in="SourceAlpha" type="matrix" values="0 0 0 0 0 0 0 0 0 0 0 0 0 0 0 0 0 0 127 0" result="hardAlpha"/>
<feMorphology radius="1.4262" operator="dilate" in="SourceAlpha" result="effect1_dropShadow_1393_524933"/>
<feOffset dx="10.6965" dy="10.6965"/>
<feGaussianBlur stdDeviation="8.91377"/>
<feComposite in2="hardAlpha" operator="out"/>
<feColorMatrix type="matrix" values="0 0 0 0 0.168627 0 0 0 0 0.380392 0 0 0 0 0.819608 0 0 0 0.1 0"/>
<feBlend mode="normal" in2="BackgroundImageFix" result="effect1_dropShadow_1393_524933"/>
<feBlend mode="normal" in="SourceGraphic" in2="effect1_dropShadow_1393_524933" result="shape"/>
</filter>
</defs>
</svg>
