<svg width="196" height="115" viewBox="0 0 196 115" fill="none" xmlns="http://www.w3.org/2000/svg">
<g filter="url(#filter0_d_1393_524931)">
<circle cx="46.5947" cy="46.8076" r="38.04" fill="white"/>
</g>
<path fill-rule="evenodd" clip-rule="evenodd" d="M48.4298 40.3375L45.5512 40.9734V38.5709L48.4298 37.9468V40.3375ZM54.416 41.6682C53.2921 41.6682 52.5696 42.2099 52.1683 42.5868L52.0192 41.8566H49.4961V55.5883L52.3632 54.9642L52.3747 51.6313C52.7875 51.9375 53.3954 52.3733 54.4046 52.3733C56.4574 52.3733 58.3267 50.6774 58.3267 46.9442C58.3153 43.5289 56.423 41.6682 54.416 41.6682ZM53.7279 49.7824C53.0513 49.7824 52.6499 49.5351 52.3747 49.2289L52.3632 44.8597C52.6614 44.5182 53.0742 44.2826 53.7279 44.2826C54.7715 44.2826 55.494 45.4839 55.494 47.0266C55.494 48.6047 54.783 49.7824 53.7279 49.7824ZM67.3638 47.062C67.3638 44.0471 65.9418 41.6682 63.2238 41.6682C60.4943 41.6682 58.8429 44.0471 58.8429 47.0384C58.8429 50.5832 60.7925 52.3733 63.5908 52.3733C64.9555 52.3733 65.9876 52.0553 66.7675 51.6078V49.2524C65.9876 49.6528 65.0931 49.9001 63.9578 49.9001C62.8453 49.9001 61.8591 49.4997 61.7329 48.1101H67.3409C67.3409 48.0452 67.345 47.8979 67.3498 47.7282L67.3498 47.7278C67.3562 47.497 67.3638 47.2248 67.3638 47.062ZM61.6984 45.9432C61.6984 44.6124 62.4898 44.0589 63.2123 44.0589C63.9118 44.0589 64.6573 44.6124 64.6573 45.9432H61.6984ZM45.551 41.8684H48.4296V52.1731H45.551V41.8684ZM42.2829 41.8684L42.4664 42.7399C43.143 41.468 44.4848 41.7271 44.8518 41.8684V44.5771C44.4962 44.4475 43.3494 44.2827 42.6728 45.1895V52.1731H39.8057V41.8684H42.2829ZM36.732 39.3129L33.9338 39.9253L33.9223 49.3584C33.9223 51.1014 35.1953 52.385 36.8926 52.385C37.833 52.385 38.5211 52.2084 38.8995 51.9964V49.6057C38.5326 49.7588 36.7206 50.3005 36.7206 48.5576V44.3769H38.8995V41.8684H36.7206L36.732 39.3129ZM29.9544 44.2238C29.3466 44.2238 28.9796 44.4004 28.9796 44.8597C28.9796 45.3612 29.6112 45.5818 30.3948 45.8555C31.6721 46.3016 33.3534 46.8888 33.3605 49.064C33.3605 51.1721 31.7205 52.3851 29.3351 52.3851C28.3489 52.3851 27.2708 52.1849 26.2043 51.7138V48.9109C27.1676 49.4527 28.3833 49.8531 29.3351 49.8531C29.9774 49.8531 30.4361 49.6764 30.4361 49.1347C30.4361 48.5792 29.7514 48.3253 28.9249 48.0188C27.6661 47.552 26.0781 46.9631 26.0781 45.0011C26.0781 42.9166 27.6263 41.6682 29.9544 41.6682C30.9063 41.6682 31.8467 41.8213 32.7986 42.21V44.9775C31.927 44.4947 30.826 44.2238 29.9544 44.2238Z" fill="#6461FC"/>
<path d="M110.808 57.6676C109.128 57.6676 107.518 57.4476 105.978 57.0076C104.438 56.5476 103.198 55.9576 102.258 55.2376L103.908 51.5776C104.808 52.2176 105.868 52.7476 107.088 53.1676C108.328 53.5676 109.578 53.7676 110.838 53.7676C111.798 53.7676 112.568 53.6776 113.148 53.4976C113.748 53.2976 114.188 53.0276 114.468 52.6876C114.748 52.3476 114.888 51.9576 114.888 51.5176C114.888 50.9576 114.668 50.5176 114.228 50.1976C113.788 49.8576 113.208 49.5876 112.488 49.3876C111.768 49.1676 110.968 48.9676 110.088 48.7876C109.228 48.5876 108.358 48.3476 107.478 48.0676C106.618 47.7876 105.828 47.4276 105.108 46.9876C104.388 46.5476 103.798 45.9676 103.338 45.2476C102.898 44.5276 102.678 43.6076 102.678 42.4876C102.678 41.2876 102.998 40.1976 103.638 39.2176C104.298 38.2176 105.278 37.4276 106.578 36.8476C107.898 36.2476 109.548 35.9476 111.528 35.9476C112.848 35.9476 114.148 36.1076 115.428 36.4276C116.708 36.7276 117.838 37.1876 118.818 37.8076L117.318 41.4976C116.338 40.9376 115.358 40.5276 114.378 40.2676C113.398 39.9876 112.438 39.8476 111.498 39.8476C110.558 39.8476 109.788 39.9576 109.188 40.1776C108.588 40.3976 108.158 40.6876 107.898 41.0476C107.638 41.3876 107.508 41.7876 107.508 42.2476C107.508 42.7876 107.728 43.2276 108.168 43.5676C108.608 43.8876 109.188 44.1476 109.908 44.3476C110.628 44.5476 111.418 44.7476 112.278 44.9476C113.158 45.1476 114.028 45.3776 114.888 45.6376C115.768 45.8976 116.568 46.2476 117.288 46.6876C118.008 47.1276 118.588 47.7076 119.028 48.4276C119.488 49.1476 119.718 50.0576 119.718 51.1576C119.718 52.3376 119.388 53.4176 118.728 54.3976C118.068 55.3776 117.078 56.1676 115.758 56.7676C114.458 57.3676 112.808 57.6676 110.808 57.6676ZM129.309 57.5476C127.409 57.5476 125.929 57.0676 124.869 56.1076C123.809 55.1276 123.279 53.6776 123.279 51.7576V37.5976H127.959V51.6976C127.959 52.3776 128.139 52.9076 128.499 53.2876C128.859 53.6476 129.349 53.8276 129.969 53.8276C130.709 53.8276 131.339 53.6276 131.859 53.2276L133.119 56.5276C132.639 56.8676 132.059 57.1276 131.379 57.3076C130.719 57.4676 130.029 57.5476 129.309 57.5476ZM120.789 45.1276V41.5276H131.979V45.1276H120.789ZM135.746 57.3076V41.1676H140.216V45.7276L139.586 44.4076C140.066 43.2676 140.836 42.4076 141.896 41.8276C142.956 41.2276 144.246 40.9276 145.766 40.9276V45.2476C145.566 45.2276 145.386 45.2176 145.226 45.2176C145.066 45.1976 144.896 45.1876 144.716 45.1876C143.436 45.1876 142.396 45.5576 141.596 46.2976C140.816 47.0176 140.426 48.1476 140.426 49.6876V57.3076H135.746ZM148.578 57.3076V41.1676H153.258V57.3076H148.578ZM150.918 38.9176C150.058 38.9176 149.358 38.6676 148.818 38.1676C148.278 37.6676 148.008 37.0476 148.008 36.3076C148.008 35.5676 148.278 34.9476 148.818 34.4476C149.358 33.9476 150.058 33.6976 150.918 33.6976C151.778 33.6976 152.478 33.9376 153.018 34.4176C153.558 34.8776 153.828 35.4776 153.828 36.2176C153.828 36.9976 153.558 37.6476 153.018 38.1676C152.498 38.6676 151.798 38.9176 150.918 38.9176ZM167.141 57.5476C165.781 57.5476 164.591 57.2476 163.571 56.6476C162.551 56.0476 161.751 55.1376 161.171 53.9176C160.611 52.6776 160.331 51.1176 160.331 49.2376C160.331 47.3376 160.601 45.7776 161.141 44.5576C161.681 43.3376 162.461 42.4276 163.481 41.8276C164.501 41.2276 165.721 40.9276 167.141 40.9276C168.661 40.9276 170.021 41.2776 171.221 41.9776C172.441 42.6576 173.401 43.6176 174.101 44.8576C174.821 46.0976 175.181 47.5576 175.181 49.2376C175.181 50.9376 174.821 52.4076 174.101 53.6476C173.401 54.8876 172.441 55.8476 171.221 56.5276C170.021 57.2076 168.661 57.5476 167.141 57.5476ZM157.601 63.1276V41.1676H162.071V44.4676L161.981 49.2676L162.281 54.0376V63.1276H157.601ZM166.331 53.7076C167.111 53.7076 167.801 53.5276 168.401 53.1676C169.021 52.8076 169.511 52.2976 169.871 51.6376C170.251 50.9576 170.441 50.1576 170.441 49.2376C170.441 48.2976 170.251 47.4976 169.871 46.8376C169.511 46.1776 169.021 45.6676 168.401 45.3076C167.801 44.9476 167.111 44.7676 166.331 44.7676C165.551 44.7676 164.851 44.9476 164.231 45.3076C163.611 45.6676 163.121 46.1776 162.761 46.8376C162.401 47.4976 162.221 48.2976 162.221 49.2376C162.221 50.1576 162.401 50.9576 162.761 51.6376C163.121 52.2976 163.611 52.8076 164.231 53.1676C164.851 53.5276 165.551 53.7076 166.331 53.7076ZM186.324 57.5476C184.484 57.5476 182.864 57.1876 181.464 56.4676C180.084 55.7476 179.014 54.7676 178.254 53.5276C177.494 52.2676 177.114 50.8376 177.114 49.2376C177.114 47.6176 177.484 46.1876 178.224 44.9476C178.984 43.6876 180.014 42.7076 181.314 42.0076C182.614 41.2876 184.084 40.9276 185.724 40.9276C187.304 40.9276 188.724 41.2676 189.984 41.9476C191.264 42.6076 192.274 43.5676 193.014 44.8276C193.754 46.0676 194.124 47.5576 194.124 49.2976C194.124 49.4776 194.114 49.6876 194.094 49.9276C194.074 50.1476 194.054 50.3576 194.034 50.5576H180.924V47.8276H191.574L189.774 48.6376C189.774 47.7976 189.604 47.0676 189.264 46.4476C188.924 45.8276 188.454 45.3476 187.854 45.0076C187.254 44.6476 186.554 44.4676 185.754 44.4676C184.954 44.4676 184.244 44.6476 183.624 45.0076C183.024 45.3476 182.554 45.8376 182.214 46.4776C181.874 47.0976 181.704 47.8376 181.704 48.6976V49.4176C181.704 50.2976 181.894 51.0776 182.274 51.7576C182.674 52.4176 183.224 52.9276 183.924 53.2876C184.644 53.6276 185.484 53.7976 186.444 53.7976C187.304 53.7976 188.054 53.6676 188.694 53.4076C189.354 53.1476 189.954 52.7576 190.494 52.2376L192.984 54.9376C192.244 55.7776 191.314 56.4276 190.194 56.8876C189.074 57.3276 187.784 57.5476 186.324 57.5476Z" fill="#303B52"/>
<defs>
<filter id="filter0_d_1393_524931" x="-0.00252843" y="0.210362" width="114.586" height="114.588" filterUnits="userSpaceOnUse" color-interpolation-filters="sRGB">
<feFlood flood-opacity="0" result="BackgroundImageFix"/>
<feColorMatrix in="SourceAlpha" type="matrix" values="0 0 0 0 0 0 0 0 0 0 0 0 0 0 0 0 0 0 127 0" result="hardAlpha"/>
<feMorphology radius="1.4262" operator="dilate" in="SourceAlpha" result="effect1_dropShadow_1393_524931"/>
<feOffset dx="10.6965" dy="10.6965"/>
<feGaussianBlur stdDeviation="8.91377"/>
<feComposite in2="hardAlpha" operator="out"/>
<feColorMatrix type="matrix" values="0 0 0 0 0.168627 0 0 0 0 0.380392 0 0 0 0 0.819608 0 0 0 0.1 0"/>
<feBlend mode="normal" in2="BackgroundImageFix" result="effect1_dropShadow_1393_524931"/>
<feBlend mode="normal" in="SourceGraphic" in2="effect1_dropShadow_1393_524931" result="shape"/>
</filter>
</defs>
</svg>
