<svg width="510" height="501" viewBox="0 0 510 501" fill="none" xmlns="http://www.w3.org/2000/svg">
<circle cx="249.129" cy="250.056" r="249.129" fill="#141529"/>
<circle cx="249.129" cy="250.056" r="156.828" fill="#F8F9FB"/>
<g filter="url(#filter0_d_71_6354)">
<circle cx="249.13" cy="246.789" r="111.087" fill="#141529"/>
</g>
<path d="M249.294 178.177C262.786 178.268 275.95 182.352 287.125 189.914C298.3 197.476 306.985 208.177 312.086 220.669C317.187 233.161 318.475 246.883 315.787 260.106C313.1 273.328 306.557 285.459 296.984 294.968C287.411 304.477 275.237 310.939 261.997 313.538C248.756 316.137 235.043 314.758 222.585 309.573C210.128 304.389 199.485 295.632 191.998 284.407C184.511 273.182 180.515 259.991 180.515 246.498C180.576 228.318 187.857 210.906 200.755 198.094C213.653 185.281 231.113 178.117 249.294 178.177V178.177Z" fill="#1B63EF"/>
<path d="M257.44 286.17L249.605 290.694L232.775 280.991L240.419 276.578L240.61 276.467L240.903 276.636L257.44 286.17Z" fill="#141529"/>
<path d="M287.518 225.043V234.149L270.95 224.584L266.457 221.991L261.964 224.584L240.907 236.747L236.414 239.341V244.711L228.313 240.035L223.819 237.441L219.326 240.035L211.705 244.431V225.043L249.609 203.159L287.518 225.043Z" fill="#141529"/>
<path d="M287.518 244.511V268.846L266.461 280.991H266.434L245.4 268.846V244.511L266.461 232.348L287.518 244.511Z" fill="#141529"/>
<path d="M235.929 254.797V268.78L223.815 275.778L211.705 268.784V254.802L223.819 247.808L235.929 254.797Z" fill="#141529"/>
<circle cx="249.943" cy="251.8" r="249.129" fill="#141529"/>
<circle cx="249.943" cy="251.801" r="156.828" fill="#191A2F"/>
<g filter="url(#filter1_d_71_6354)">
<circle cx="249.944" cy="248.533" r="111.087" fill="#141529"/>
</g>
<circle cx="249.943" cy="248.533" r="65.3452" fill="#1B63EF"/>
<path d="M261.216 256.032C260.768 254.688 260.544 254.016 260.556 253.466C260.568 252.887 260.645 252.584 260.912 252.071C261.165 251.582 261.842 250.952 263.196 249.692C266.936 246.212 269.275 241.248 269.275 235.737C269.275 225.211 260.742 216.677 250.216 216.677C239.69 216.677 231.157 225.211 231.157 235.737C231.157 241.248 233.496 246.212 237.235 249.692C238.589 250.952 239.267 251.582 239.52 252.071C239.786 252.584 239.863 252.887 239.876 253.466C239.887 254.016 239.663 254.688 239.215 256.032L233.387 273.518C232.634 275.776 232.257 276.906 232.483 277.805C232.681 278.591 233.172 279.273 233.856 279.709C234.637 280.208 235.827 280.208 238.208 280.208H262.223C264.604 280.208 265.794 280.208 266.576 279.709C267.26 279.273 267.751 278.591 267.948 277.805C268.174 276.906 267.798 275.776 267.045 273.518L261.216 256.032Z" fill="#1B63EF" stroke="white" stroke-width="7.35133" stroke-linecap="round" stroke-linejoin="round"/>
<g filter="url(#filter2_d_71_6354)">
<ellipse cx="341.031" cy="434.757" rx="33.909" ry="32.6626" fill="#0A0B1E"/>
</g>
<g clip-path="url(#clip0_71_6354)">
<path d="M351.227 418.322H331.624C328.015 418.322 325.089 421.247 325.089 424.856V444.46C325.089 448.069 328.015 450.994 331.624 450.994H351.227C354.836 450.994 357.762 448.069 357.762 444.46V424.856C357.762 421.247 354.836 418.322 351.227 418.322Z" fill="#3396FF"/>
<path d="M341.426 450.994C350.448 450.994 357.762 443.68 357.762 434.658C357.762 425.636 350.448 418.322 341.426 418.322C332.403 418.322 325.089 425.636 325.089 434.658C325.089 443.68 332.403 450.994 341.426 450.994Z" fill="#3396FF"/>
<path d="M335.082 430.479C338.586 427.062 344.267 427.062 347.771 430.479L348.193 430.89C348.368 431.061 348.368 431.338 348.193 431.509L346.75 432.915C346.663 433.001 346.521 433.001 346.433 432.915L345.853 432.35C343.408 429.966 339.445 429.966 337 432.35L336.379 432.956C336.291 433.041 336.149 433.041 336.062 432.956L334.619 431.549C334.444 431.378 334.444 431.101 334.619 430.93L335.082 430.479ZM350.755 433.388L352.039 434.64C352.214 434.811 352.214 435.088 352.039 435.259L346.249 440.904C346.074 441.075 345.79 441.075 345.615 440.904L341.506 436.898C341.462 436.855 341.391 436.855 341.347 436.898L337.238 440.904C337.063 441.075 336.779 441.075 336.604 440.904L330.815 435.259C330.639 435.088 330.639 434.811 330.815 434.64L332.098 433.388C332.274 433.217 332.558 433.217 332.733 433.388L336.842 437.395C336.886 437.438 336.957 437.438 337 437.395L341.109 433.388C341.284 433.217 341.568 433.217 341.744 433.388L345.853 437.395C345.897 437.438 345.968 437.438 346.011 437.395L350.12 433.388C350.295 433.217 350.579 433.217 350.755 433.388Z" fill="#0A0B1E"/>
</g>
<g filter="url(#filter3_d_71_6354)">
<circle cx="86.1757" cy="122.335" r="33.8978" fill="#0A0B1E"/>
</g>
<g clip-path="url(#clip1_71_6354)">
<path fill-rule="evenodd" clip-rule="evenodd" d="M93.3486 120.113V130.674L96.9326 134.177L100.517 137.68L100.588 127.271L100.658 116.862L97.0035 113.207L93.3486 109.552V120.113Z" fill="white"/>
<path fill-rule="evenodd" clip-rule="evenodd" d="M82.6221 117.249V131.356L86.327 136.035L90.0321 140.715L90.1054 126.81L90.1787 112.905L86.4003 108.023L82.6221 103.141V117.249Z" fill="#FFCD38"/>
<path fill-rule="evenodd" clip-rule="evenodd" d="M71.876 120.676V131.238L75.4599 134.741L79.044 138.244L79.1149 127.834L79.1858 117.425L75.5308 113.77L71.876 110.115V120.676Z" fill="#FFDD67"/>
</g>
<g filter="url(#filter4_d_71_6354)">
<ellipse cx="161.103" cy="434.757" rx="32.8643" ry="32.6626" fill="#0A0B1E"/>
</g>
<path d="M145.257 429.648C145.257 427.017 145.257 425.702 145.769 424.697C146.219 423.814 146.938 423.095 147.821 422.645C148.826 422.133 150.141 422.133 152.772 422.133H169.053C171.684 422.133 172.999 422.133 174.004 422.645C174.887 423.095 175.606 423.814 176.056 424.697C176.568 425.702 176.568 427.017 176.568 429.648V439.667C176.568 442.298 176.568 443.613 176.056 444.618C175.606 445.501 174.887 446.22 174.004 446.67C172.999 447.182 171.684 447.182 169.053 447.182H152.772C150.141 447.182 148.826 447.182 147.821 446.67C146.938 446.22 146.219 445.501 145.769 444.618C145.257 443.613 145.257 442.298 145.257 439.667V429.648Z" fill="#1B63EF"/>
<path d="M145.257 426.83L158.04 435.778C159.075 436.502 159.592 436.864 160.155 437.005C160.652 437.129 161.173 437.129 161.67 437.005C162.233 436.864 162.75 436.502 163.785 435.778L176.568 426.83M152.772 447.182H169.053C171.684 447.182 172.999 447.182 174.004 446.67C174.887 446.22 175.606 445.501 176.056 444.618C176.568 443.613 176.568 442.298 176.568 439.667V429.648C176.568 427.017 176.568 425.702 176.056 424.697C175.606 423.814 174.887 423.095 174.004 422.645C172.999 422.133 171.684 422.133 169.053 422.133H152.772C150.141 422.133 148.826 422.133 147.821 422.645C146.938 423.095 146.219 423.814 145.769 424.697C145.257 425.702 145.257 427.017 145.257 429.648V439.667C145.257 442.298 145.257 443.613 145.769 444.618C146.219 445.501 146.938 446.22 147.821 446.67C148.826 447.182 150.141 447.182 152.772 447.182Z" stroke="#0A0B1E" stroke-width="1.63363" stroke-linecap="round" stroke-linejoin="round"/>
<g filter="url(#filter5_d_71_6354)">
<ellipse cx="451.557" cy="295.081" rx="32.529" ry="32.6626" fill="#0A0B1E"/>
</g>
<path d="M449.617 296.33L450.181 296.004C450.697 295.706 451.533 295.706 452.049 296.004L452.613 296.33L451.115 297.195L449.617 296.33Z" fill="#1B63EF"/>
<path d="M449.625 296.333L451.123 297.198V310.346L449.625 309.481V296.333Z" fill="#1B63EF"/>
<path d="M451.074 297.202L452.572 296.337V309.486L451.074 310.351V297.202Z" fill="#1B63EF"/>
<path d="M451.144 310.309L458.636 305.983V308.365C458.636 308.961 458.218 309.685 457.702 309.983L451.144 313.769V310.309Z" fill="#1B63EF"/>
<path d="M443.671 305.983L451.163 310.309V313.769L444.605 309.983C444.09 309.685 443.671 308.961 443.671 308.365V305.983Z" fill="#1B63EF"/>
<path d="M452.113 291.97L453.611 292.835V294.565L453.047 294.239C452.531 293.942 452.113 293.218 452.113 292.622V291.97Z" fill="#1B63EF"/>
<path d="M452.113 291.97L462.601 285.915L464.099 286.78L453.611 292.835L452.113 291.97Z" fill="#1B63EF"/>
<path d="M456.472 282.454L458.535 281.263C459.051 280.966 459.887 280.966 460.403 281.263L466.96 285.049L463.964 286.78L456.472 282.454Z" fill="#1B63EF"/>
<path d="M453.566 292.833L464.054 286.778V288.508L453.566 294.563V292.833Z" fill="#1B63EF"/>
<path d="M463.949 286.745L466.945 285.015V292.587C466.945 293.182 466.527 293.907 466.011 294.204L463.949 295.395V286.745Z" fill="#1B63EF"/>
<path d="M435.367 284.981L441.924 281.195C442.44 280.897 443.276 280.897 443.792 281.195L445.855 282.385L438.363 286.711L435.367 284.981Z" fill="#1B63EF"/>
<path d="M448.792 292.731L450.291 291.866V292.518C450.291 293.114 449.873 293.838 449.357 294.135L448.792 294.461V292.731Z" fill="#1B63EF"/>
<path d="M438.343 286.676L448.831 292.731V294.461L438.343 288.406V286.676Z" fill="#1B63EF"/>
<path d="M435.367 284.946L438.363 286.676V295.326L436.301 294.136C435.785 293.838 435.367 293.114 435.367 292.518V284.946Z" fill="#1B63EF"/>
<path d="M438.39 286.738C438.364 286.723 438.364 286.699 438.39 286.684L439.795 285.872C439.821 285.858 439.863 285.858 439.888 285.872L450.283 291.874C450.309 291.889 450.309 291.913 450.283 291.928L448.878 292.739C448.852 292.754 448.811 292.754 448.785 292.739L438.39 286.738Z" fill="#1B63EF"/>
<path d="M463.949 297.097C463.949 296.501 464.367 295.777 464.883 295.479L466.945 294.288V301.209L463.949 302.939V297.097Z" fill="#1B63EF"/>
<path d="M459.449 306.58C459.449 305.984 459.867 305.26 460.383 304.962L466.94 301.176V303.558C466.94 304.154 466.522 304.878 466.006 305.176L459.449 308.962V306.58Z" fill="#1B63EF"/>
<path d="M435.367 301.209L441.924 304.995C442.44 305.293 442.858 306.017 442.858 306.613V308.994L436.301 305.208C435.785 304.911 435.367 304.186 435.367 303.591V301.209Z" fill="#1B63EF"/>
<path d="M435.367 294.288L437.429 295.479C437.945 295.777 438.363 296.501 438.363 297.097V302.939L435.367 301.209V294.288Z" fill="#1B63EF"/>
<path d="M443.531 280.24L448.325 277.472L451.322 279.202L447.461 281.431C446.946 281.729 446.109 281.729 445.594 281.431L443.531 280.24Z" fill="#1B63EF"/>
<path d="M448.101 277.61L450.164 276.419C450.68 276.121 451.516 276.121 452.032 276.419L458.889 280.378L456.826 281.569C456.31 281.867 455.474 281.867 454.958 281.569L448.101 277.61Z" fill="#1B63EF"/>
<g filter="url(#filter6_d_71_6354)">
<ellipse cx="51.6499" cy="296.715" rx="32.8643" ry="32.6626" fill="#0A0B1E"/>
</g>
<path d="M57.4027 283.851C56.0787 285.428 53.9603 286.672 51.842 286.494C51.5772 284.362 52.6143 282.095 53.8279 280.696C55.1519 279.074 57.4689 277.918 59.3446 277.829C59.5652 280.051 58.7046 282.229 57.4027 283.851V283.851Z" fill="white"/>
<path d="M59.3184 286.917C56.2511 286.739 53.6252 288.672 52.1688 288.672C50.6904 288.672 48.4617 287.005 46.0344 287.05C42.8789 287.094 39.944 288.894 38.3332 291.76C35.0232 297.492 37.4726 305.98 40.6722 310.646C42.2389 312.956 44.1146 315.489 46.586 315.4C48.9251 315.312 49.8519 313.867 52.6764 313.867C55.523 313.867 56.3394 315.4 58.8109 315.356C61.3706 315.312 62.9814 313.045 64.5481 310.735C66.3355 308.113 67.0637 305.558 67.1079 305.424C67.0637 305.38 62.165 303.491 62.1208 297.804C62.0767 293.049 65.9825 290.783 66.159 290.649C63.9523 287.361 60.51 287.005 59.3184 286.917V286.917Z" fill="white"/>
<g filter="url(#filter7_d_71_6354)">
<ellipse cx="412.691" cy="121.927" rx="32.8744" ry="32.6726" fill="#0A0B1E"/>
</g>
<path d="M427.966 106.407L414.902 116.11L417.318 110.385L427.966 106.407Z" fill="#E2761B" stroke="#E2761B" stroke-width="0.0872824" stroke-linecap="round" stroke-linejoin="round"/>
<path d="M397.808 106.407L410.767 116.202L408.469 110.385L397.808 106.407ZM423.266 128.898L419.787 134.229L427.231 136.277L429.371 129.016L423.266 128.898ZM396.429 129.016L398.556 136.277L406.001 134.229L402.521 128.898L396.429 129.016Z" fill="#E4761B" stroke="#E4761B" stroke-width="0.0872824" stroke-linecap="round" stroke-linejoin="round"/>
<path d="M405.582 119.892L403.507 123.03L410.899 123.358L410.637 115.415L405.582 119.892ZM420.195 119.892L415.074 115.323L414.904 123.358L422.283 123.03L420.195 119.892ZM406.002 134.229L410.44 132.063L406.606 129.069L406.002 134.229ZM415.337 132.063L419.788 134.229L419.171 129.069L415.337 132.063Z" fill="#E4761B" stroke="#E4761B" stroke-width="0.0872824" stroke-linecap="round" stroke-linejoin="round"/>
<path d="M419.793 134.229L415.342 132.062L415.697 134.964L415.658 136.185L419.793 134.229ZM406.007 134.229L410.143 136.185L410.117 134.964L410.445 132.062L406.007 134.229Z" fill="#D7C1B3" stroke="#D7C1B3" stroke-width="0.0872824" stroke-linecap="round" stroke-linejoin="round"/>
<path d="M410.21 127.151L406.507 126.061L409.12 124.867L410.21 127.151ZM415.58 127.151L416.67 124.867L419.296 126.061L415.58 127.151Z" fill="white" stroke="white" stroke-width="0.0872824" stroke-linecap="round" stroke-linejoin="round"/>
<path d="M406.002 134.228L406.633 128.898L402.523 129.016L406.002 134.228ZM419.158 128.898L419.788 134.228L423.268 129.016L419.158 128.898ZM422.283 123.029L414.904 123.357L415.587 127.151L416.677 124.867L419.302 126.062L422.283 123.029ZM406.501 126.062L409.127 124.867L410.204 127.151L410.9 123.357L403.508 123.029L406.501 126.062Z" fill="#CD6116" stroke="#CD6116" stroke-width="0.0872824" stroke-linecap="round" stroke-linejoin="round"/>
<path d="M403.507 123.029L406.606 129.068L406.501 126.062L403.507 123.029ZM419.302 126.062L419.171 129.068L422.283 123.029L419.302 126.062ZM410.899 123.357L410.203 127.151L411.07 131.629L411.267 125.734L410.899 123.357ZM414.904 123.357L414.549 125.72L414.707 131.629L415.586 127.151L414.904 123.357Z" fill="#E4751F" stroke="#E4751F" stroke-width="0.0872824" stroke-linecap="round" stroke-linejoin="round"/>
<path d="M415.593 127.15L414.713 131.627L415.344 132.061L419.177 129.067L419.309 126.06L415.593 127.15ZM406.507 126.06L406.612 129.067L410.446 132.061L411.076 131.627L410.21 127.15L406.507 126.06Z" fill="#F6851B" stroke="#F6851B" stroke-width="0.0872824" stroke-linecap="round" stroke-linejoin="round"/>
<path d="M415.658 136.186L415.697 134.965L415.369 134.676H410.419L410.117 134.965L410.143 136.186L406.007 134.229L407.452 135.411L410.379 137.446H415.408L418.349 135.411L419.793 134.229L415.658 136.186Z" fill="#C0AD9E" stroke="#C0AD9E" stroke-width="0.0872824" stroke-linecap="round" stroke-linejoin="round"/>
<path d="M415.342 132.064L414.712 131.63H411.075L410.445 132.064L410.117 134.965L410.419 134.676H415.369L415.697 134.965L415.342 132.064Z" fill="white" stroke="white" stroke-width="0.0872824" stroke-linecap="round" stroke-linejoin="round"/>
<path d="M428.52 116.74L429.636 111.383L427.969 106.407L415.338 115.782L420.196 119.891L427.063 121.9L428.586 120.128L427.929 119.655L428.98 118.696L428.166 118.066L429.216 117.265L428.52 116.74ZM396.156 111.383L397.272 116.74L396.563 117.265L397.613 118.066L396.812 118.696L397.863 119.655L397.206 120.128L398.716 121.9L405.583 119.891L410.441 115.782L397.81 106.407L396.156 111.383Z" fill="#763D16" stroke="#763D16" stroke-width="0.0872824" stroke-linecap="round" stroke-linejoin="round"/>
<path d="M427.06 121.9L420.194 119.891L422.281 123.029L419.17 129.069L423.266 129.017H429.371L427.06 121.9ZM405.58 119.891L398.714 121.9L396.429 129.017H402.521L406.605 129.069L403.506 123.029L405.58 119.891ZM414.903 123.358L415.336 115.782L417.331 110.386H408.469L410.438 115.782L410.898 123.358L411.056 125.747L411.069 131.629H414.706L414.732 125.747L414.903 123.358Z" fill="#F6851B" stroke="#F6851B" stroke-width="0.0872824" stroke-linecap="round" stroke-linejoin="round"/>
<g filter="url(#filter8_d_71_6354)">
<ellipse cx="250.144" cy="43.5122" rx="32.8744" ry="32.6726" fill="#0A0B1E"/>
</g>
<g clip-path="url(#clip2_71_6354)">
<path d="M265.158 43.7609C265.158 42.706 265.073 41.6453 264.89 40.6074H250.252V46.5837H258.635C258.287 48.5112 257.169 50.2162 255.533 51.2997V55.1774H260.534C263.47 52.4744 265.158 48.4826 265.158 43.7609Z" fill="#4285F4"/>
<path d="M250.252 58.924C254.438 58.924 257.967 57.5497 260.539 55.1774L255.538 51.2997C254.147 52.2463 252.35 52.7824 250.258 52.7824C246.209 52.7824 242.776 50.0509 241.544 46.3784H236.383V50.3759C239.018 55.6165 244.384 58.924 250.252 58.924V58.924Z" fill="#34A853"/>
<path d="M241.538 46.3784C240.888 44.4509 240.888 42.3638 241.538 40.4363V36.4388H236.383C234.182 40.8241 234.182 45.9906 236.383 50.3759L241.538 46.3784V46.3784Z" fill="#FBBC04"/>
<path d="M250.252 34.0267C252.464 33.9925 254.603 34.8251 256.205 36.3534L260.636 31.9225C257.831 29.2879 254.107 27.8395 250.252 27.8851C244.384 27.8851 239.018 31.1926 236.383 36.4389L241.538 40.4364C242.764 36.7582 246.203 34.0267 250.252 34.0267V34.0267Z" fill="#EA4335"/>
</g>
<defs>
<filter id="filter0_d_71_6354" x="130.695" y="128.355" width="255.238" height="255.238" filterUnits="userSpaceOnUse" color-interpolation-filters="sRGB">
<feFlood flood-opacity="0" result="BackgroundImageFix"/>
<feColorMatrix in="SourceAlpha" type="matrix" values="0 0 0 0 0 0 0 0 0 0 0 0 0 0 0 0 0 0 127 0" result="hardAlpha"/>
<feMorphology radius="1.22459" operator="dilate" in="SourceAlpha" result="effect1_dropShadow_71_6354"/>
<feOffset dx="9.18444" dy="9.18444"/>
<feGaussianBlur stdDeviation="7.6537"/>
<feComposite in2="hardAlpha" operator="out"/>
<feColorMatrix type="matrix" values="0 0 0 0 0.168627 0 0 0 0 0.380392 0 0 0 0 0.819608 0 0 0 0.1 0"/>
<feBlend mode="normal" in2="BackgroundImageFix" result="effect1_dropShadow_71_6354"/>
<feBlend mode="normal" in="SourceGraphic" in2="effect1_dropShadow_71_6354" result="shape"/>
</filter>
<filter id="filter1_d_71_6354" x="131.509" y="130.099" width="255.238" height="255.238" filterUnits="userSpaceOnUse" color-interpolation-filters="sRGB">
<feFlood flood-opacity="0" result="BackgroundImageFix"/>
<feColorMatrix in="SourceAlpha" type="matrix" values="0 0 0 0 0 0 0 0 0 0 0 0 0 0 0 0 0 0 127 0" result="hardAlpha"/>
<feMorphology radius="1.22459" operator="dilate" in="SourceAlpha" result="effect1_dropShadow_71_6354"/>
<feOffset dx="9.18444" dy="9.18444"/>
<feGaussianBlur stdDeviation="7.6537"/>
<feComposite in2="hardAlpha" operator="out"/>
<feColorMatrix type="matrix" values="0 0 0 0 0.168627 0 0 0 0 0.380392 0 0 0 0 0.819608 0 0 0 0.1 0"/>
<feBlend mode="normal" in2="BackgroundImageFix" result="effect1_dropShadow_71_6354"/>
<feBlend mode="normal" in="SourceGraphic" in2="effect1_dropShadow_71_6354" result="shape"/>
</filter>
<filter id="filter2_d_71_6354" x="299.774" y="394.746" width="100.882" height="98.3892" filterUnits="userSpaceOnUse" color-interpolation-filters="sRGB">
<feFlood flood-opacity="0" result="BackgroundImageFix"/>
<feColorMatrix in="SourceAlpha" type="matrix" values="0 0 0 0 0 0 0 0 0 0 0 0 0 0 0 0 0 0 127 0" result="hardAlpha"/>
<feMorphology radius="1.22459" operator="dilate" in="SourceAlpha" result="effect1_dropShadow_71_6354"/>
<feOffset dx="9.18444" dy="9.18444"/>
<feGaussianBlur stdDeviation="7.6537"/>
<feComposite in2="hardAlpha" operator="out"/>
<feColorMatrix type="matrix" values="0 0 0 0 0.168627 0 0 0 0 0.380392 0 0 0 0 0.819608 0 0 0 0.1 0"/>
<feBlend mode="normal" in2="BackgroundImageFix" result="effect1_dropShadow_71_6354"/>
<feBlend mode="normal" in="SourceGraphic" in2="effect1_dropShadow_71_6354" result="shape"/>
</filter>
<filter id="filter3_d_71_6354" x="44.9303" y="81.0897" width="100.859" height="100.86" filterUnits="userSpaceOnUse" color-interpolation-filters="sRGB">
<feFlood flood-opacity="0" result="BackgroundImageFix"/>
<feColorMatrix in="SourceAlpha" type="matrix" values="0 0 0 0 0 0 0 0 0 0 0 0 0 0 0 0 0 0 127 0" result="hardAlpha"/>
<feMorphology radius="1.22459" operator="dilate" in="SourceAlpha" result="effect1_dropShadow_71_6354"/>
<feOffset dx="9.18444" dy="9.18444"/>
<feGaussianBlur stdDeviation="7.6537"/>
<feComposite in2="hardAlpha" operator="out"/>
<feColorMatrix type="matrix" values="0 0 0 0 0.168627 0 0 0 0 0.380392 0 0 0 0 0.819608 0 0 0 0.1 0"/>
<feBlend mode="normal" in2="BackgroundImageFix" result="effect1_dropShadow_71_6354"/>
<feBlend mode="normal" in="SourceGraphic" in2="effect1_dropShadow_71_6354" result="shape"/>
</filter>
<filter id="filter4_d_71_6354" x="120.891" y="394.746" width="98.7925" height="98.3892" filterUnits="userSpaceOnUse" color-interpolation-filters="sRGB">
<feFlood flood-opacity="0" result="BackgroundImageFix"/>
<feColorMatrix in="SourceAlpha" type="matrix" values="0 0 0 0 0 0 0 0 0 0 0 0 0 0 0 0 0 0 127 0" result="hardAlpha"/>
<feMorphology radius="1.22459" operator="dilate" in="SourceAlpha" result="effect1_dropShadow_71_6354"/>
<feOffset dx="9.18444" dy="9.18444"/>
<feGaussianBlur stdDeviation="7.6537"/>
<feComposite in2="hardAlpha" operator="out"/>
<feColorMatrix type="matrix" values="0 0 0 0 0.168627 0 0 0 0 0.380392 0 0 0 0 0.819608 0 0 0 0.1 0"/>
<feBlend mode="normal" in2="BackgroundImageFix" result="effect1_dropShadow_71_6354"/>
<feBlend mode="normal" in="SourceGraphic" in2="effect1_dropShadow_71_6354" result="shape"/>
</filter>
<filter id="filter5_d_71_6354" x="411.68" y="255.071" width="98.1221" height="98.3892" filterUnits="userSpaceOnUse" color-interpolation-filters="sRGB">
<feFlood flood-opacity="0" result="BackgroundImageFix"/>
<feColorMatrix in="SourceAlpha" type="matrix" values="0 0 0 0 0 0 0 0 0 0 0 0 0 0 0 0 0 0 127 0" result="hardAlpha"/>
<feMorphology radius="1.22459" operator="dilate" in="SourceAlpha" result="effect1_dropShadow_71_6354"/>
<feOffset dx="9.18444" dy="9.18444"/>
<feGaussianBlur stdDeviation="7.6537"/>
<feComposite in2="hardAlpha" operator="out"/>
<feColorMatrix type="matrix" values="0 0 0 0 0.168627 0 0 0 0 0.380392 0 0 0 0 0.819608 0 0 0 0.1 0"/>
<feBlend mode="normal" in2="BackgroundImageFix" result="effect1_dropShadow_71_6354"/>
<feBlend mode="normal" in="SourceGraphic" in2="effect1_dropShadow_71_6354" result="shape"/>
</filter>
<filter id="filter6_d_71_6354" x="11.4381" y="256.705" width="98.7925" height="98.3892" filterUnits="userSpaceOnUse" color-interpolation-filters="sRGB">
<feFlood flood-opacity="0" result="BackgroundImageFix"/>
<feColorMatrix in="SourceAlpha" type="matrix" values="0 0 0 0 0 0 0 0 0 0 0 0 0 0 0 0 0 0 127 0" result="hardAlpha"/>
<feMorphology radius="1.22459" operator="dilate" in="SourceAlpha" result="effect1_dropShadow_71_6354"/>
<feOffset dx="9.18444" dy="9.18444"/>
<feGaussianBlur stdDeviation="7.6537"/>
<feComposite in2="hardAlpha" operator="out"/>
<feColorMatrix type="matrix" values="0 0 0 0 0.168627 0 0 0 0 0.380392 0 0 0 0 0.819608 0 0 0 0.1 0"/>
<feBlend mode="normal" in2="BackgroundImageFix" result="effect1_dropShadow_71_6354"/>
<feBlend mode="normal" in="SourceGraphic" in2="effect1_dropShadow_71_6354" result="shape"/>
</filter>
<filter id="filter7_d_71_6354" x="371.475" y="80.9125" width="103.286" height="102.883" filterUnits="userSpaceOnUse" color-interpolation-filters="sRGB">
<feFlood flood-opacity="0" result="BackgroundImageFix"/>
<feColorMatrix in="SourceAlpha" type="matrix" values="0 0 0 0 0 0 0 0 0 0 0 0 0 0 0 0 0 0 127 0" result="hardAlpha"/>
<feMorphology radius="1.39027" operator="dilate" in="SourceAlpha" result="effect1_dropShadow_71_6354"/>
<feOffset dx="10.4271" dy="10.4271"/>
<feGaussianBlur stdDeviation="8.68922"/>
<feComposite in2="hardAlpha" operator="out"/>
<feColorMatrix type="matrix" values="0 0 0 0 0.168627 0 0 0 0 0.380392 0 0 0 0 0.819608 0 0 0 0.1 0"/>
<feBlend mode="normal" in2="BackgroundImageFix" result="effect1_dropShadow_71_6354"/>
<feBlend mode="normal" in="SourceGraphic" in2="effect1_dropShadow_71_6354" result="shape"/>
</filter>
<filter id="filter8_d_71_6354" x="208.928" y="2.49795" width="103.286" height="102.883" filterUnits="userSpaceOnUse" color-interpolation-filters="sRGB">
<feFlood flood-opacity="0" result="BackgroundImageFix"/>
<feColorMatrix in="SourceAlpha" type="matrix" values="0 0 0 0 0 0 0 0 0 0 0 0 0 0 0 0 0 0 127 0" result="hardAlpha"/>
<feMorphology radius="1.39027" operator="dilate" in="SourceAlpha" result="effect1_dropShadow_71_6354"/>
<feOffset dx="10.4271" dy="10.4271"/>
<feGaussianBlur stdDeviation="8.68922"/>
<feComposite in2="hardAlpha" operator="out"/>
<feColorMatrix type="matrix" values="0 0 0 0 0.168627 0 0 0 0 0.380392 0 0 0 0 0.819608 0 0 0 0.1 0"/>
<feBlend mode="normal" in2="BackgroundImageFix" result="effect1_dropShadow_71_6354"/>
<feBlend mode="normal" in="SourceGraphic" in2="effect1_dropShadow_71_6354" result="shape"/>
</filter>
<clipPath id="clip0_71_6354">
<rect width="32.6726" height="32.6726" fill="white" transform="translate(325.09 418.322)"/>
</clipPath>
<clipPath id="clip1_71_6354">
<rect width="28.7828" height="37.5735" fill="white" transform="translate(71.8784 103.14)"/>
</clipPath>
<clipPath id="clip2_71_6354">
<rect width="31.039" height="31.039" fill="white" transform="translate(234.422 27.884)"/>
</clipPath>
</defs>
</svg>
