<svg width="503" height="533" viewBox="0 0 503 533" fill="none" xmlns="http://www.w3.org/2000/svg">
<g filter="url(#filter0_d_1393_1445)">
<rect x="421.395" y="69.8555" width="402.081" height="402.081" rx="201.04" transform="rotate(90 421.395 69.8555)" fill="#F8F9FB"/>
</g>
<g filter="url(#filter1_d_1393_1445)">
<rect x="351.398" y="140.881" width="261.139" height="261.139" rx="130.569" transform="rotate(90 351.398 140.881)" fill="white"/>
</g>
<g filter="url(#filter2_d_1393_1445)">
<rect x="311" y="181" width="179" height="179" rx="89.5" transform="rotate(90 311 181)" fill="#F8F9FB"/>
</g>
<g filter="url(#filter3_d_1393_1445)">
<ellipse cx="219.22" cy="272.299" rx="62.2121" ry="62.2485" fill="white"/>
</g>
<path d="M207.479 291.648L196.249 298.147L185.01 291.665L185 278.684L196.23 272.186L207.469 278.668L207.479 291.648Z" fill="#3F3F3F"/>
<path d="M254.313 291.65L234.62 303.045L214.911 291.679L214.895 268.917L234.587 257.522L254.296 268.888L254.313 291.65Z" fill="#95B0E8"/>
<path d="M203.836 302.516L211.219 298.249L227.059 307.387L219.685 311.659L203.836 302.516Z" fill="#2B61D1"/>
<path d="M185.016 269.972L194.131 264.727C194.131 264.727 196.156 263.42 198.182 264.603C200.367 265.829 207.359 269.927 207.359 269.927L207.354 267.473C207.354 267.473 207.067 264.603 209.554 263.297C212.1 261.902 232.279 250.149 232.279 250.149C232.279 250.149 234.57 248.561 236.713 250.015C239.094 251.482 254.294 260.167 254.294 260.167L254.268 251.606L219.637 231.659L185.042 251.678L185.016 269.972Z" fill="#2B61D1"/>
<g filter="url(#filter4_d_1393_1445)">
<rect x="115.773" y="104.171" width="106.774" height="106.774" rx="53.387" transform="rotate(90 115.773 104.171)" fill="white"/>
</g>
<path d="M44.1984 145.731H42.0078L41.9934 139.678L39.0244 144.665H37.9723L35.0178 139.808V145.731H32.8271V135.643H34.7584L38.5344 141.912L42.2528 135.643H44.1696L44.1984 145.731ZM50.123 145.847C47.6585 145.847 45.857 144.189 45.857 141.855C45.857 139.52 47.6585 137.862 50.123 137.862C52.5875 137.862 54.3747 139.52 54.3747 141.855C54.3747 144.189 52.5875 145.847 50.123 145.847ZM50.123 144.002C51.2472 144.002 52.0975 143.195 52.0975 141.855C52.0975 140.514 51.2472 139.707 50.123 139.707C48.9989 139.707 48.1341 140.514 48.1341 141.855C48.1341 143.195 48.9989 144.002 50.123 144.002ZM61.5271 135.037H63.7755V145.731H61.628V144.838C61.0659 145.515 60.2444 145.847 59.2067 145.847C57.0161 145.847 55.3298 144.29 55.3298 141.855C55.3298 139.419 57.0161 137.862 59.2067 137.862C60.158 137.862 60.9651 138.165 61.5271 138.799V135.037ZM59.5959 144.002C60.7056 144.002 61.5704 143.195 61.5704 141.855C61.5704 140.514 60.7056 139.707 59.5959 139.707C58.4717 139.707 57.607 140.514 57.607 141.855C57.607 143.195 58.4717 144.002 59.5959 144.002ZM73.4516 141.883C73.4516 142.056 73.4228 142.301 73.4084 142.489H67.5426C67.7588 143.454 68.5803 144.045 69.7621 144.045C70.5836 144.045 71.1745 143.8 71.7077 143.296L72.904 144.593C72.1834 145.414 71.1024 145.847 69.7044 145.847C67.0237 145.847 65.2799 144.161 65.2799 141.855C65.2799 139.534 67.0526 137.862 69.4162 137.862C71.6933 137.862 73.4516 139.39 73.4516 141.883ZM69.4306 139.563C68.4073 139.563 67.6723 140.183 67.5138 141.177H71.333C71.1745 140.197 70.4395 139.563 69.4306 139.563ZM77.0959 139.001C77.6436 138.251 78.566 137.862 79.7622 137.862V139.938C79.5749 139.923 79.4307 139.909 79.2578 139.909C78.0183 139.909 77.1968 140.586 77.1968 142.071V145.731H74.9485V137.978H77.0959V139.001ZM85.8119 137.862C87.6423 137.862 89.0259 138.929 89.0259 141.292V145.731H86.7775V141.638C86.7775 140.384 86.201 139.808 85.2066 139.808C84.1257 139.808 83.3474 140.471 83.3474 141.898V145.731H81.0991V137.978H83.2465V138.886C83.8518 138.223 84.7598 137.862 85.8119 137.862ZM44.7051 163.731H42.5145L42.5 157.678L39.5311 162.665H38.479L35.5245 157.808V163.731H33.3338V153.643H35.2651L39.0411 159.912L42.7595 153.643H44.6763L44.7051 163.731ZM49.4191 161.858H54.9102V163.731H47.0987V153.643H54.7228V155.516H49.4191V157.707H54.1031V159.523H49.4191V161.858ZM64.0063 153.643H66.3267L61.9597 163.731H59.6538L55.3012 153.643H57.8234L60.8932 160.849L64.0063 153.643ZM74.1157 153.643H76.4217V163.731H74.5049L69.475 157.606V163.731H67.169V153.643H69.1002L74.1157 159.768V153.643ZM78.8086 163.731V153.643H83.3918C86.6922 153.643 88.9549 155.632 88.9549 158.687C88.9549 161.743 86.6922 163.731 83.3918 163.731H78.8086ZM81.1434 161.815H83.2765C85.2798 161.815 86.5913 160.618 86.5913 158.687C86.5913 156.756 85.2798 155.56 83.2765 155.56H81.1434V161.815ZM44.1363 181.904C42.5365 181.904 40.9223 181.429 40.0288 180.737L40.8215 178.979C41.6718 179.598 42.9401 180.031 44.1507 180.031C45.5343 180.031 46.0964 179.57 46.0964 178.95C46.0964 177.062 40.2306 178.359 40.2306 174.612C40.2306 172.897 41.6141 171.47 44.4822 171.47C45.7505 171.47 47.0476 171.773 47.9844 172.363L47.2638 174.136C46.327 173.603 45.3613 173.343 44.4678 173.343C43.0842 173.343 42.5509 173.862 42.5509 174.496C42.5509 176.356 48.4168 175.073 48.4168 178.777C48.4168 180.463 47.0188 181.904 44.1363 181.904ZM54.2494 179.771L54.8547 181.357C54.3935 181.688 53.7161 181.847 53.0243 181.847C51.1939 181.847 50.1274 180.91 50.1274 179.065V175.88H48.9312V174.151H50.1274V172.263H52.3758V174.151H54.307V175.88H52.3758V179.036C52.3758 179.699 52.7361 180.06 53.3414 180.06C53.6729 180.06 54.0043 179.959 54.2494 179.771ZM59.2442 173.862C61.6079 173.862 62.977 174.958 62.977 177.307V181.731H60.8728V180.766C60.4549 181.472 59.6478 181.847 58.5092 181.847C56.6933 181.847 55.6123 180.838 55.6123 179.498C55.6123 178.128 56.578 177.177 58.9416 177.177H60.7287C60.7287 176.212 60.1522 175.649 58.9416 175.649C58.1201 175.649 57.2698 175.923 56.7077 176.37L55.9006 174.799C56.7509 174.194 58.0048 173.862 59.2442 173.862ZM59.0713 180.333C59.8207 180.333 60.4693 179.988 60.7287 179.281V178.489H59.1866C58.1345 178.489 57.803 178.878 57.803 179.397C57.803 179.959 58.2786 180.333 59.0713 180.333ZM68.8435 181.847C66.3214 181.847 64.5198 180.189 64.5198 177.855C64.5198 175.52 66.3214 173.862 68.8435 173.862C70.4721 173.862 71.7548 174.569 72.3169 175.837L70.573 176.774C70.1551 176.039 69.5353 175.707 68.8291 175.707C67.6905 175.707 66.797 176.5 66.797 177.855C66.797 179.209 67.6905 180.002 68.8291 180.002C69.5353 180.002 70.1551 179.685 70.573 178.935L72.3169 179.887C71.7548 181.126 70.4721 181.847 68.8435 181.847ZM79.3345 181.731L76.8844 178.69L75.8034 179.757V181.731H73.5551V171.037H75.8034V177.091L79.0895 173.978H81.7701L78.5418 177.264L82.0584 181.731H79.3345Z" fill="#303B52"/>
<ellipse cx="62.3332" cy="109.342" rx="14.3332" ry="14.3416" fill="#2B61D1"/>
<path d="M59.6178 104.625H63.9703V114.714H61.6355V106.499H59.6178V104.625Z" fill="white"/>
<g filter="url(#filter5_dd_1393_1445)">
<rect x="354.773" y="24.1689" width="106.774" height="106.774" rx="53.387" transform="rotate(90 354.773 24.1689)" fill="white"/>
</g>
<path d="M262.372 74.9039C261.017 74.9039 259.821 74.3851 259.086 73.4338L260.383 71.8773C260.93 72.6123 261.536 72.9871 262.256 72.9871C263.193 72.9871 263.683 72.425 263.683 71.3152V66.5159H260.138V64.6423H266.003V71.1855C266.003 73.6789 264.75 74.9039 262.372 74.9039ZM271.279 66.8618C273.642 66.8618 275.011 67.9572 275.011 70.3064V74.731H272.907V73.7653C272.489 74.4715 271.682 74.8463 270.544 74.8463C268.728 74.8463 267.647 73.8374 267.647 72.497C267.647 71.1279 268.612 70.1767 270.976 70.1767H272.763C272.763 69.211 272.187 68.649 270.976 68.649C270.154 68.649 269.304 68.9228 268.742 69.3696L267.935 67.7986C268.785 67.1933 270.039 66.8618 271.279 66.8618ZM271.106 73.333C271.855 73.333 272.504 72.9871 272.763 72.2809V71.4882H271.221C270.169 71.4882 269.837 71.8773 269.837 72.3962C269.837 72.9582 270.313 73.333 271.106 73.333ZM282.44 66.9771H284.602L281.33 74.731H279.01L275.753 66.9771H278.073L280.22 72.252L282.44 66.9771ZM288.393 66.8618C290.757 66.8618 292.126 67.9572 292.126 70.3064V74.731H290.022V73.7653C289.604 74.4715 288.797 74.8463 287.658 74.8463C285.842 74.8463 284.761 73.8374 284.761 72.497C284.761 71.1279 285.727 70.1767 288.091 70.1767H289.878C289.878 69.211 289.301 68.649 288.091 68.649C287.269 68.649 286.419 68.9228 285.857 69.3696L285.05 67.7986C285.9 67.1933 287.154 66.8618 288.393 66.8618ZM288.22 73.333C288.97 73.333 289.618 72.9871 289.878 72.2809V71.4882H288.336C287.284 71.4882 286.952 71.8773 286.952 72.3962C286.952 72.9582 287.428 73.333 288.22 73.333ZM297.634 74.9039C296.035 74.9039 294.42 74.4283 293.527 73.7365L294.319 71.9782C295.17 72.5979 296.438 73.0303 297.649 73.0303C299.032 73.0303 299.594 72.5691 299.594 71.9494C299.594 70.0614 293.729 71.3585 293.729 67.6113C293.729 65.8962 295.112 64.4694 297.98 64.4694C299.248 64.4694 300.546 64.772 301.482 65.3629L300.762 67.1357C299.825 66.6024 298.859 66.343 297.966 66.343C296.582 66.343 296.049 66.8618 296.049 67.496C296.049 69.3552 301.915 68.0725 301.915 71.7764C301.915 73.4627 300.517 74.9039 297.634 74.9039ZM307.099 74.8463C304.577 74.8463 302.775 73.1888 302.775 70.854C302.775 68.5192 304.577 66.8618 307.099 66.8618C308.727 66.8618 310.01 67.568 310.572 68.8363L308.828 69.7731C308.41 69.0381 307.791 68.7066 307.084 68.7066C305.946 68.7066 305.052 69.4993 305.052 70.854C305.052 72.2088 305.946 73.0015 307.084 73.0015C307.791 73.0015 308.41 72.6844 308.828 71.935L310.572 72.8862C310.01 74.1256 308.727 74.8463 307.099 74.8463ZM314.014 68.0004C314.562 67.251 315.484 66.8618 316.68 66.8618V68.9372C316.493 68.9228 316.349 68.9084 316.176 68.9084C314.937 68.9084 314.115 69.5858 314.115 71.0702V74.731H311.867V66.9771H314.014V68.0004ZM319.141 65.8962C318.305 65.8962 317.743 65.3485 317.743 64.6423C317.743 63.9361 318.305 63.3885 319.141 63.3885C319.977 63.3885 320.539 63.9073 320.539 64.5991C320.539 65.3485 319.977 65.8962 319.141 65.8962ZM318.017 74.731V66.9771H320.266V74.731H318.017ZM326.935 66.8618C329.112 66.8618 330.798 68.4184 330.798 70.854C330.798 73.2897 329.112 74.8463 326.935 74.8463C325.97 74.8463 325.177 74.5436 324.601 73.9095V77.5269H322.352V66.9771H324.5V67.8707C325.062 67.1933 325.898 66.8618 326.935 66.8618ZM326.546 73.0015C327.67 73.0015 328.521 72.1944 328.521 70.854C328.521 69.5137 327.67 68.7066 326.546 68.7066C325.422 68.7066 324.572 69.5137 324.572 70.854C324.572 72.1944 325.422 73.0015 326.546 73.0015ZM336.699 72.7709L337.304 74.3562C336.843 74.6877 336.165 74.8463 335.474 74.8463C333.643 74.8463 332.577 73.9095 332.577 72.0647V68.8796H331.381V67.1501H332.577V65.2621H334.825V67.1501H336.756V68.8796H334.825V72.0359C334.825 72.6988 335.185 73.0591 335.791 73.0591C336.122 73.0591 336.454 72.9582 336.699 72.7709ZM278.494 82.6423H280.8V92.731H278.883L273.853 86.6057V92.731H271.547V82.6423H273.478L278.494 88.7676V82.6423ZM286.717 92.8463C284.253 92.8463 282.451 91.1888 282.451 88.854C282.451 86.5192 284.253 84.8618 286.717 84.8618C289.182 84.8618 290.969 86.5192 290.969 88.854C290.969 91.1888 289.182 92.8463 286.717 92.8463ZM286.717 91.0015C287.842 91.0015 288.692 90.1944 288.692 88.854C288.692 87.5137 287.842 86.7066 286.717 86.7066C285.593 86.7066 284.729 87.5137 284.729 88.854C284.729 90.1944 285.593 91.0015 286.717 91.0015ZM298.122 82.037H300.37V92.731H298.222V91.8374C297.66 92.5148 296.839 92.8463 295.801 92.8463C293.611 92.8463 291.924 91.2897 291.924 88.854C291.924 86.4184 293.611 84.8618 295.801 84.8618C296.752 84.8618 297.56 85.1645 298.122 85.7986V82.037ZM296.19 91.0015C297.3 91.0015 298.165 90.1944 298.165 88.854C298.165 87.5137 297.3 86.7066 296.19 86.7066C295.066 86.7066 294.201 87.5137 294.201 88.854C294.201 90.1944 295.066 91.0015 296.19 91.0015ZM310.046 88.8829C310.046 89.0558 310.017 89.3008 310.003 89.4882H304.137C304.353 90.4538 305.175 91.0447 306.357 91.0447C307.178 91.0447 307.769 90.7997 308.302 90.2953L309.498 91.5924C308.778 92.4139 307.697 92.8463 306.299 92.8463C303.618 92.8463 301.874 91.16 301.874 88.854C301.874 86.5337 303.647 84.8618 306.011 84.8618C308.288 84.8618 310.046 86.3895 310.046 88.8829ZM306.025 86.5625C305.002 86.5625 304.267 87.1822 304.108 88.1767H307.927C307.769 87.1966 307.034 86.5625 306.025 86.5625ZM312.393 92.8463C311.615 92.8463 310.995 92.2554 310.995 91.4338C310.995 90.5979 311.615 90.0503 312.393 90.0503C313.172 90.0503 313.791 90.5979 313.791 91.4338C313.791 92.2554 313.172 92.8463 312.393 92.8463ZM316.681 83.8962C315.845 83.8962 315.283 83.3485 315.283 82.6423C315.283 81.9361 315.845 81.3885 316.681 81.3885C317.517 81.3885 318.079 81.9073 318.079 82.5991C318.079 83.3485 317.517 83.8962 316.681 83.8962ZM314.879 95.6422C314.187 95.6422 313.51 95.5125 313.078 95.2099L313.683 93.5813C313.928 93.7542 314.259 93.8551 314.634 93.8551C315.196 93.8551 315.557 93.4948 315.557 92.731V84.9771H317.805V92.7165C317.805 94.5037 316.753 95.6422 314.879 95.6422ZM322.484 92.8463C321.172 92.8463 319.846 92.4859 319.126 92.0103L319.875 90.3962C320.567 90.8429 321.619 91.1456 322.57 91.1456C323.608 91.1456 323.997 90.8718 323.997 90.4394C323.997 89.1711 319.313 90.4682 319.313 87.3696C319.313 85.8995 320.639 84.8618 322.902 84.8618C323.968 84.8618 325.15 85.1068 325.885 85.5392L325.136 87.139C324.372 86.7066 323.608 86.5625 322.902 86.5625C321.893 86.5625 321.46 86.8796 321.46 87.2831C321.46 88.609 326.144 87.3263 326.144 90.3817C326.144 91.823 324.804 92.8463 322.484 92.8463Z" fill="#303B52"/>
<ellipse cx="301.333" cy="29.3416" rx="14.3332" ry="14.3416" fill="#2B61D1"/>
<path d="M300.838 32.8085H305.176V34.7109H297.552V33.1976L301.444 29.5225C302.337 28.6722 302.496 28.1533 302.496 27.6633C302.496 26.8706 301.948 26.4094 300.882 26.4094C300.017 26.4094 299.282 26.7409 298.792 27.4183L297.091 26.323C297.869 25.1844 299.282 24.4494 301.098 24.4494C303.346 24.4494 304.845 25.6023 304.845 27.4327C304.845 28.4128 304.571 29.3063 303.159 30.6178L300.838 32.8085Z" fill="white"/>
<g filter="url(#filter6_d_1393_1445)">
<rect x="351.773" y="399.994" width="106.774" height="106.774" rx="53.387" transform="rotate(90 351.773 399.994)" fill="white"/>
</g>
<path d="M272.106 450.554H269.915L269.901 444.501L266.932 449.487H265.88L262.925 444.63V450.554H260.735V440.465H262.666L266.442 446.734L270.16 440.465H272.077L272.106 450.554ZM278.03 450.669C275.566 450.669 273.764 449.012 273.764 446.677C273.764 444.342 275.566 442.685 278.03 442.685C280.495 442.685 282.282 444.342 282.282 446.677C282.282 449.012 280.495 450.669 278.03 450.669ZM278.03 448.824C279.155 448.824 280.005 448.017 280.005 446.677C280.005 445.336 279.155 444.529 278.03 444.529C276.906 444.529 276.042 445.336 276.042 446.677C276.042 448.017 276.906 448.824 278.03 448.824ZM288.498 442.685C290.328 442.685 291.712 443.751 291.712 446.115V450.554H289.463V446.461C289.463 445.207 288.887 444.63 287.892 444.63C286.812 444.63 286.033 445.293 286.033 446.72V450.554H283.785V442.8H285.932V443.708C286.538 443.045 287.446 442.685 288.498 442.685ZM299.7 442.8H301.833V449.257C301.833 452.139 300.276 453.465 297.48 453.465C296.01 453.465 294.584 453.105 293.676 452.398L294.569 450.784C295.232 451.318 296.313 451.663 297.308 451.663C298.893 451.663 299.585 450.943 299.585 449.545V449.213C298.994 449.862 298.143 450.179 297.135 450.179C294.987 450.179 293.258 448.695 293.258 446.432C293.258 444.169 294.987 442.685 297.135 442.685C298.216 442.685 299.109 443.045 299.7 443.794V442.8ZM297.581 448.334C298.763 448.334 299.613 447.57 299.613 446.432C299.613 445.293 298.763 444.529 297.581 444.529C296.4 444.529 295.535 445.293 295.535 446.432C295.535 447.57 296.4 448.334 297.581 448.334ZM307.615 450.669C305.151 450.669 303.349 449.012 303.349 446.677C303.349 444.342 305.151 442.685 307.615 442.685C310.08 442.685 311.867 444.342 311.867 446.677C311.867 449.012 310.08 450.669 307.615 450.669ZM307.615 448.824C308.739 448.824 309.59 448.017 309.59 446.677C309.59 445.336 308.739 444.529 307.615 444.529C306.491 444.529 305.626 445.336 305.626 446.677C305.626 448.017 306.491 448.824 307.615 448.824ZM313.528 450.554V440.465H318.111C321.412 440.465 323.674 442.454 323.674 445.509C323.674 448.565 321.412 450.554 318.111 450.554H313.528ZM315.863 448.637H317.996C319.999 448.637 321.311 447.441 321.311 445.509C321.311 443.578 319.999 442.382 317.996 442.382H315.863V448.637ZM332.843 445.308C333.967 445.668 334.688 446.533 334.688 447.801C334.688 449.545 333.304 450.554 330.652 450.554H325.435V440.465H330.364C332.886 440.465 334.183 441.517 334.183 443.088C334.183 444.097 333.665 444.875 332.843 445.308ZM330.076 442.223H327.756V444.601H330.076C331.215 444.601 331.834 444.198 331.834 443.405C331.834 442.613 331.215 442.223 330.076 442.223ZM330.48 448.795C331.69 448.795 332.339 448.421 332.339 447.556C332.339 446.706 331.69 446.302 330.48 446.302H327.756V448.795H330.48ZM272.625 463.308C273.749 463.668 274.47 464.533 274.47 465.801C274.47 467.545 273.086 468.554 270.435 468.554H265.217V458.465H270.146C272.668 458.465 273.966 459.517 273.966 461.088C273.966 462.097 273.447 462.875 272.625 463.308ZM269.858 460.223H267.538V462.601H269.858C270.997 462.601 271.616 462.198 271.616 461.405C271.616 460.613 270.997 460.223 269.858 460.223ZM270.262 466.795C271.472 466.795 272.121 466.421 272.121 465.556C272.121 464.706 271.472 464.302 270.262 464.302H267.538V466.795H270.262ZM279.207 460.685C281.57 460.685 282.939 461.78 282.939 464.129V468.554H280.835V467.588C280.417 468.294 279.61 468.669 278.472 468.669C276.656 468.669 275.575 467.66 275.575 466.32C275.575 464.951 276.54 463.999 278.904 463.999H280.691C280.691 463.034 280.115 462.472 278.904 462.472C278.082 462.472 277.232 462.746 276.67 463.192L275.863 461.621C276.713 461.016 277.967 460.685 279.207 460.685ZM279.034 467.156C279.783 467.156 280.432 466.81 280.691 466.104V465.311H279.149C278.097 465.311 277.765 465.7 277.765 466.219C277.765 466.781 278.241 467.156 279.034 467.156ZM288.806 468.669C286.284 468.669 284.482 467.012 284.482 464.677C284.482 462.342 286.284 460.685 288.806 460.685C290.434 460.685 291.717 461.391 292.279 462.659L290.535 463.596C290.117 462.861 289.498 462.529 288.791 462.529C287.653 462.529 286.759 463.322 286.759 464.677C286.759 466.032 287.653 466.824 288.791 466.824C289.498 466.824 290.117 466.507 290.535 465.758L292.279 466.709C291.717 467.948 290.434 468.669 288.806 468.669ZM299.297 468.554L296.847 465.513L295.766 466.579V468.554H293.517V457.86H295.766V463.913L299.052 460.8H301.733L298.504 464.086L302.021 468.554H299.297ZM310.289 464.706C310.289 464.879 310.261 465.124 310.246 465.311H304.38C304.597 466.277 305.418 466.867 306.6 466.867C307.421 466.867 308.012 466.622 308.545 466.118L309.742 467.415C309.021 468.237 307.94 468.669 306.542 468.669C303.861 468.669 302.118 466.983 302.118 464.677C302.118 462.356 303.89 460.685 306.254 460.685C308.531 460.685 310.289 462.212 310.289 464.706ZM306.268 462.385C305.245 462.385 304.51 463.005 304.351 463.999H308.171C308.012 463.019 307.277 462.385 306.268 462.385ZM316.499 460.685C318.329 460.685 319.713 461.751 319.713 464.115V468.554H317.465V464.461C317.465 463.207 316.888 462.63 315.894 462.63C314.813 462.63 314.035 463.293 314.035 464.72V468.554H311.786V460.8H313.934V461.708C314.539 461.045 315.447 460.685 316.499 460.685ZM327.485 457.86H329.733V468.554H327.586V467.66C327.024 468.338 326.202 468.669 325.165 468.669C322.974 468.669 321.288 467.112 321.288 464.677C321.288 462.241 322.974 460.685 325.165 460.685C326.116 460.685 326.923 460.987 327.485 461.621V457.86ZM325.554 466.824C326.664 466.824 327.528 466.017 327.528 464.677C327.528 463.336 326.664 462.529 325.554 462.529C324.43 462.529 323.565 463.336 323.565 464.677C323.565 466.017 324.43 466.824 325.554 466.824Z" fill="#303B52"/>
<ellipse cx="298.333" cy="405.342" rx="14.3332" ry="14.3416" fill="#2B61D1"/>
<path d="M303.159 406.694V408.596H301.516V410.715H299.239V408.596H293.806V407.025L298.562 400.626H301.012L296.602 406.694H299.311V404.806H301.516V406.694H303.159Z" fill="white"/>
<g filter="url(#filter7_d_1393_1445)">
<rect x="114.773" y="343.17" width="106.774" height="106.774" rx="53.387" transform="rotate(90 114.773 343.17)" fill="white"/>
</g>
<path d="M47.2908 392.643H49.6111L45.2442 402.731H42.9382L38.5857 392.643H41.1079L44.1777 399.849L47.2908 392.643ZM55.5907 394.978H57.839V402.731H55.706V401.809C55.1151 402.486 54.2503 402.847 53.2991 402.847C51.3535 402.847 49.9843 401.751 49.9843 399.359V394.978H52.2326V399.027C52.2326 400.325 52.8091 400.901 53.8036 400.901C54.8412 400.901 55.5907 400.238 55.5907 398.811V394.978ZM67.5172 398.883C67.5172 399.056 67.4884 399.301 67.474 399.489H61.6082C61.8244 400.454 62.6459 401.045 63.8277 401.045C64.6492 401.045 65.2401 400.8 65.7733 400.296L66.9696 401.593C66.2489 402.414 65.168 402.847 63.77 402.847C61.0893 402.847 59.3454 401.161 59.3454 398.855C59.3454 396.534 61.1181 394.862 63.4818 394.862C65.7589 394.862 67.5172 396.39 67.5172 398.883ZM63.4962 396.563C62.4729 396.563 61.7379 397.183 61.5793 398.177H65.3986C65.2401 397.197 64.505 396.563 63.4962 396.563ZM69.8644 402.847C69.0861 402.847 68.4664 402.256 68.4664 401.434C68.4664 400.598 69.0861 400.051 69.8644 400.051C70.6427 400.051 71.2624 400.598 71.2624 401.434C71.2624 402.256 70.6427 402.847 69.8644 402.847ZM74.1518 393.897C73.3159 393.897 72.7539 393.349 72.7539 392.643C72.7539 391.937 73.3159 391.389 74.1518 391.389C74.9878 391.389 75.5498 391.908 75.5498 392.6C75.5498 393.349 74.9878 393.897 74.1518 393.897ZM72.3503 405.643C71.6585 405.643 70.9811 405.513 70.5488 405.21L71.1541 403.582C71.3991 403.755 71.7306 403.856 72.1053 403.856C72.6674 403.856 73.0277 403.495 73.0277 402.731V394.978H75.276V402.717C75.276 404.504 74.2239 405.643 72.3503 405.643ZM79.9548 402.847C78.6433 402.847 77.3174 402.486 76.5968 402.011L77.3462 400.397C78.038 400.843 79.0901 401.146 80.0413 401.146C81.079 401.146 81.4681 400.872 81.4681 400.44C81.4681 399.172 76.7841 400.469 76.7841 397.37C76.7841 395.9 78.1101 394.862 80.3728 394.862C81.4393 394.862 82.6211 395.107 83.3561 395.54L82.6067 397.139C81.8429 396.707 81.079 396.563 80.3728 396.563C79.3639 396.563 78.9316 396.88 78.9316 397.284C78.9316 398.61 83.6156 397.327 83.6156 400.382C83.6156 401.823 82.2752 402.847 79.9548 402.847Z" fill="#303B52"/>
<ellipse cx="61.3332" cy="348.342" rx="14.3332" ry="14.3416" fill="#2B61D1"/>
<path d="M61.0625 347.415C64.0459 347.415 65.2277 348.756 65.2277 350.543C65.2277 352.33 63.9161 353.886 61.0337 353.886C59.6357 353.886 58.1656 353.497 57.1856 352.805L58.108 351.018C58.8718 351.595 59.9239 351.926 60.976 351.926C62.1434 351.926 62.864 351.436 62.864 350.615C62.864 349.822 62.3452 349.303 60.5148 349.303H57.935L58.4539 343.625H64.6079V345.498H60.3995L60.241 347.415H61.0625Z" fill="white"/>
<g filter="url(#filter8_d_1393_1445)">
<rect x="477.277" y="210.171" width="106.774" height="106.774" rx="53.387" transform="rotate(90 477.277 210.171)" fill="white"/>
</g>
<path d="M389.159 267.856H394.65V269.729H386.839V259.641H394.463V261.514H389.159V263.705H393.843V265.521H389.159V267.856ZM403.731 269.729H401.18L399.479 267.351L397.721 269.729H395.271L398.254 265.824L395.372 261.976H397.894L399.537 264.238L401.223 261.976H403.616L400.733 265.766L403.731 269.729ZM409.406 261.86C411.582 261.86 413.268 263.417 413.268 265.853C413.268 268.288 411.582 269.845 409.406 269.845C408.44 269.845 407.647 269.542 407.071 268.908V272.525H404.823V261.976H406.97V262.869C407.532 262.192 408.368 261.86 409.406 261.86ZM409.016 268C410.141 268 410.991 267.193 410.991 265.853C410.991 264.512 410.141 263.705 409.016 263.705C407.892 263.705 407.042 264.512 407.042 265.853C407.042 267.193 407.892 268 409.016 268ZM416.921 262.999C417.468 262.249 418.391 261.86 419.587 261.86V263.936C419.4 263.921 419.255 263.907 419.082 263.907C417.843 263.907 417.022 264.584 417.022 266.069V269.729H414.773V261.976H416.921V262.999ZM428.449 265.881C428.449 266.054 428.42 266.299 428.405 266.487H422.54C422.756 267.452 423.577 268.043 424.759 268.043C425.581 268.043 426.172 267.798 426.705 267.294L427.901 268.591C427.18 269.412 426.099 269.845 424.701 269.845C422.021 269.845 420.277 268.159 420.277 265.853C420.277 263.532 422.05 261.86 424.413 261.86C426.69 261.86 428.449 263.388 428.449 265.881ZM424.428 263.561C423.404 263.561 422.669 264.181 422.511 265.175H426.33C426.172 264.195 425.437 263.561 424.428 263.561ZM432.554 269.845C431.243 269.845 429.917 269.484 429.196 269.009L429.946 267.395C430.637 267.841 431.689 268.144 432.641 268.144C433.678 268.144 434.067 267.87 434.067 267.438C434.067 266.17 429.383 267.467 429.383 264.368C429.383 262.898 430.709 261.86 432.972 261.86C434.039 261.86 435.22 262.105 435.955 262.538L435.206 264.138C434.442 263.705 433.678 263.561 432.972 263.561C431.963 263.561 431.531 263.878 431.531 264.282C431.531 265.608 436.215 264.325 436.215 267.38C436.215 268.822 434.875 269.845 432.554 269.845ZM440.211 269.845C438.899 269.845 437.573 269.484 436.853 269.009L437.602 267.395C438.294 267.841 439.346 268.144 440.297 268.144C441.335 268.144 441.724 267.87 441.724 267.438C441.724 266.17 437.04 267.467 437.04 264.368C437.04 262.898 438.366 261.86 440.629 261.86C441.695 261.86 442.877 262.105 443.612 262.538L442.863 264.138C442.099 263.705 441.335 263.561 440.629 263.561C439.62 263.561 439.187 263.878 439.187 264.282C439.187 265.608 443.871 264.325 443.871 267.38C443.871 268.822 442.531 269.845 440.211 269.845ZM446.109 269.845C445.331 269.845 444.711 269.254 444.711 268.432C444.711 267.596 445.331 267.049 446.109 267.049C446.887 267.049 447.507 267.596 447.507 268.432C447.507 269.254 446.887 269.845 446.109 269.845ZM450.396 260.895C449.561 260.895 448.998 260.347 448.998 259.641C448.998 258.935 449.561 258.387 450.396 258.387C451.232 258.387 451.794 258.906 451.794 259.598C451.794 260.347 451.232 260.895 450.396 260.895ZM448.595 272.641C447.903 272.641 447.226 272.511 446.793 272.208L447.399 270.58C447.644 270.753 447.975 270.854 448.35 270.854C448.912 270.854 449.272 270.493 449.272 269.729V261.976H451.521V269.715C451.521 271.502 450.468 272.641 448.595 272.641ZM456.199 269.845C454.888 269.845 453.562 269.484 452.841 269.009L453.591 267.395C454.283 267.841 455.335 268.144 456.286 268.144C457.324 268.144 457.713 267.87 457.713 267.438C457.713 266.17 453.029 267.467 453.029 264.368C453.029 262.898 454.355 261.86 456.617 261.86C457.684 261.86 458.866 262.105 459.601 262.538L458.851 264.138C458.087 263.705 457.324 263.561 456.617 263.561C455.608 263.561 455.176 263.878 455.176 264.282C455.176 265.608 459.86 264.325 459.86 267.38C459.86 268.822 458.52 269.845 456.199 269.845Z" fill="#303B52"/>
<ellipse cx="424.337" cy="215.342" rx="14.3332" ry="14.3416" fill="#2B61D1"/>
<path d="M425.345 214.732C427.161 215.021 428.084 216.145 428.084 217.629C428.084 219.33 426.772 220.886 423.904 220.886C422.492 220.886 421.036 220.497 420.056 219.805L420.964 218.018C421.728 218.595 422.794 218.926 423.846 218.926C425.014 218.926 425.734 218.451 425.734 217.629C425.734 216.865 425.172 216.39 423.846 216.39H422.78V214.848L424.855 212.498H420.56V210.625H427.622V212.138L425.345 214.732Z" fill="white"/>
<defs>
<filter id="filter0_d_1393_1445" x="11.9649" y="62.5079" width="435.146" height="435.145" filterUnits="userSpaceOnUse" color-interpolation-filters="sRGB">
<feFlood flood-opacity="0" result="BackgroundImageFix"/>
<feColorMatrix in="SourceAlpha" type="matrix" values="0 0 0 0 0 0 0 0 0 0 0 0 0 0 0 0 0 0 127 0" result="hardAlpha"/>
<feMorphology radius="1.22459" operator="dilate" in="SourceAlpha" result="effect1_dropShadow_1393_1445"/>
<feOffset dx="9.18444" dy="9.18444"/>
<feGaussianBlur stdDeviation="7.6537"/>
<feComposite in2="hardAlpha" operator="out"/>
<feColorMatrix type="matrix" values="0 0 0 0 0.168627 0 0 0 0 0.380392 0 0 0 0 0.819608 0 0 0 0.1 0"/>
<feBlend mode="normal" in2="BackgroundImageFix" result="effect1_dropShadow_1393_1445"/>
<feBlend mode="normal" in="SourceGraphic" in2="effect1_dropShadow_1393_1445" result="shape"/>
</filter>
<filter id="filter1_d_1393_1445" x="85.8452" y="136.469" width="280.997" height="280.995" filterUnits="userSpaceOnUse" color-interpolation-filters="sRGB">
<feFlood flood-opacity="0" result="BackgroundImageFix"/>
<feColorMatrix in="SourceAlpha" type="matrix" values="0 0 0 0 0 0 0 0 0 0 0 0 0 0 0 0 0 0 127 0" result="hardAlpha"/>
<feMorphology radius="0.735428" operator="dilate" in="SourceAlpha" result="effect1_dropShadow_1393_1445"/>
<feOffset dx="5.51571" dy="5.51571"/>
<feGaussianBlur stdDeviation="4.59643"/>
<feComposite in2="hardAlpha" operator="out"/>
<feColorMatrix type="matrix" values="0 0 0 0 0.168627 0 0 0 0 0.380392 0 0 0 0 0.819608 0 0 0 0.1 0"/>
<feBlend mode="normal" in2="BackgroundImageFix" result="effect1_dropShadow_1393_1445"/>
<feBlend mode="normal" in="SourceGraphic" in2="effect1_dropShadow_1393_1445" result="shape"/>
</filter>
<filter id="filter2_d_1393_1445" x="127.587" y="176.587" width="198.857" height="198.857" filterUnits="userSpaceOnUse" color-interpolation-filters="sRGB">
<feFlood flood-opacity="0" result="BackgroundImageFix"/>
<feColorMatrix in="SourceAlpha" type="matrix" values="0 0 0 0 0 0 0 0 0 0 0 0 0 0 0 0 0 0 127 0" result="hardAlpha"/>
<feMorphology radius="0.735428" operator="dilate" in="SourceAlpha" result="effect1_dropShadow_1393_1445"/>
<feOffset dx="5.51571" dy="5.51571"/>
<feGaussianBlur stdDeviation="4.59643"/>
<feComposite in2="hardAlpha" operator="out"/>
<feColorMatrix type="matrix" values="0 0 0 0 0.168627 0 0 0 0 0.380392 0 0 0 0 0.819608 0 0 0 0.1 0"/>
<feBlend mode="normal" in2="BackgroundImageFix" result="effect1_dropShadow_1393_1445"/>
<feBlend mode="normal" in="SourceGraphic" in2="effect1_dropShadow_1393_1445" result="shape"/>
</filter>
<filter id="filter3_d_1393_1445" x="149.66" y="202.703" width="157.49" height="157.561" filterUnits="userSpaceOnUse" color-interpolation-filters="sRGB">
<feFlood flood-opacity="0" result="BackgroundImageFix"/>
<feColorMatrix in="SourceAlpha" type="matrix" values="0 0 0 0 0 0 0 0 0 0 0 0 0 0 0 0 0 0 127 0" result="hardAlpha"/>
<feMorphology radius="1.22459" operator="dilate" in="SourceAlpha" result="effect1_dropShadow_1393_1445"/>
<feOffset dx="9.18444" dy="9.18444"/>
<feGaussianBlur stdDeviation="7.6537"/>
<feComposite in2="hardAlpha" operator="out"/>
<feColorMatrix type="matrix" values="0 0 0 0 0.168627 0 0 0 0 0.380392 0 0 0 0 0.819608 0 0 0 0.1 0"/>
<feBlend mode="normal" in2="BackgroundImageFix" result="effect1_dropShadow_1393_1445"/>
<feBlend mode="normal" in="SourceGraphic" in2="effect1_dropShadow_1393_1445" result="shape"/>
</filter>
<filter id="filter4_d_1393_1445" x="1.65245" y="96.8238" width="139.837" height="139.838" filterUnits="userSpaceOnUse" color-interpolation-filters="sRGB">
<feFlood flood-opacity="0" result="BackgroundImageFix"/>
<feColorMatrix in="SourceAlpha" type="matrix" values="0 0 0 0 0 0 0 0 0 0 0 0 0 0 0 0 0 0 127 0" result="hardAlpha"/>
<feMorphology radius="1.22459" operator="dilate" in="SourceAlpha" result="effect1_dropShadow_1393_1445"/>
<feOffset dx="9.18444" dy="9.18444"/>
<feGaussianBlur stdDeviation="7.6537"/>
<feComposite in2="hardAlpha" operator="out"/>
<feColorMatrix type="matrix" values="0 0 0 0 0.168627 0 0 0 0 0.380392 0 0 0 0 0.819608 0 0 0 0.1 0"/>
<feBlend mode="normal" in2="BackgroundImageFix" result="effect1_dropShadow_1393_1445"/>
<feBlend mode="normal" in="SourceGraphic" in2="effect1_dropShadow_1393_1445" result="shape"/>
</filter>
<filter id="filter5_dd_1393_1445" x="223.978" y="0.146968" width="155.418" height="155.418" filterUnits="userSpaceOnUse" color-interpolation-filters="sRGB">
<feFlood flood-opacity="0" result="BackgroundImageFix"/>
<feColorMatrix in="SourceAlpha" type="matrix" values="0 0 0 0 0 0 0 0 0 0 0 0 0 0 0 0 0 0 127 0" result="hardAlpha"/>
<feOffset dx="7.20659" dy="7.20659"/>
<feGaussianBlur stdDeviation="8.70797"/>
<feComposite in2="hardAlpha" operator="out"/>
<feColorMatrix type="matrix" values="0 0 0 0 0.815686 0 0 0 0 0.827451 0 0 0 0 0.843137 0 0 0 1 0"/>
<feBlend mode="normal" in2="BackgroundImageFix" result="effect1_dropShadow_1393_1445"/>
<feColorMatrix in="SourceAlpha" type="matrix" values="0 0 0 0 0 0 0 0 0 0 0 0 0 0 0 0 0 0 127 0" result="hardAlpha"/>
<feOffset dx="-7.20659" dy="-7.20659"/>
<feGaussianBlur stdDeviation="8.40769"/>
<feComposite in2="hardAlpha" operator="out"/>
<feColorMatrix type="matrix" values="0 0 0 0 1 0 0 0 0 1 0 0 0 0 1 0 0 0 1 0"/>
<feBlend mode="normal" in2="effect1_dropShadow_1393_1445" result="effect2_dropShadow_1393_1445"/>
<feBlend mode="normal" in="SourceGraphic" in2="effect2_dropShadow_1393_1445" result="shape"/>
</filter>
<filter id="filter6_d_1393_1445" x="237.652" y="392.646" width="139.837" height="139.838" filterUnits="userSpaceOnUse" color-interpolation-filters="sRGB">
<feFlood flood-opacity="0" result="BackgroundImageFix"/>
<feColorMatrix in="SourceAlpha" type="matrix" values="0 0 0 0 0 0 0 0 0 0 0 0 0 0 0 0 0 0 127 0" result="hardAlpha"/>
<feMorphology radius="1.22459" operator="dilate" in="SourceAlpha" result="effect1_dropShadow_1393_1445"/>
<feOffset dx="9.18444" dy="9.18444"/>
<feGaussianBlur stdDeviation="7.6537"/>
<feComposite in2="hardAlpha" operator="out"/>
<feColorMatrix type="matrix" values="0 0 0 0 0.168627 0 0 0 0 0.380392 0 0 0 0 0.819608 0 0 0 0.1 0"/>
<feBlend mode="normal" in2="BackgroundImageFix" result="effect1_dropShadow_1393_1445"/>
<feBlend mode="normal" in="SourceGraphic" in2="effect1_dropShadow_1393_1445" result="shape"/>
</filter>
<filter id="filter7_d_1393_1445" x="0.652447" y="335.823" width="139.837" height="139.838" filterUnits="userSpaceOnUse" color-interpolation-filters="sRGB">
<feFlood flood-opacity="0" result="BackgroundImageFix"/>
<feColorMatrix in="SourceAlpha" type="matrix" values="0 0 0 0 0 0 0 0 0 0 0 0 0 0 0 0 0 0 127 0" result="hardAlpha"/>
<feMorphology radius="1.22459" operator="dilate" in="SourceAlpha" result="effect1_dropShadow_1393_1445"/>
<feOffset dx="9.18444" dy="9.18444"/>
<feGaussianBlur stdDeviation="7.6537"/>
<feComposite in2="hardAlpha" operator="out"/>
<feColorMatrix type="matrix" values="0 0 0 0 0.168627 0 0 0 0 0.380392 0 0 0 0 0.819608 0 0 0 0.1 0"/>
<feBlend mode="normal" in2="BackgroundImageFix" result="effect1_dropShadow_1393_1445"/>
<feBlend mode="normal" in="SourceGraphic" in2="effect1_dropShadow_1393_1445" result="shape"/>
</filter>
<filter id="filter8_d_1393_1445" x="363.156" y="202.823" width="139.837" height="139.838" filterUnits="userSpaceOnUse" color-interpolation-filters="sRGB">
<feFlood flood-opacity="0" result="BackgroundImageFix"/>
<feColorMatrix in="SourceAlpha" type="matrix" values="0 0 0 0 0 0 0 0 0 0 0 0 0 0 0 0 0 0 127 0" result="hardAlpha"/>
<feMorphology radius="1.22459" operator="dilate" in="SourceAlpha" result="effect1_dropShadow_1393_1445"/>
<feOffset dx="9.18444" dy="9.18444"/>
<feGaussianBlur stdDeviation="7.6537"/>
<feComposite in2="hardAlpha" operator="out"/>
<feColorMatrix type="matrix" values="0 0 0 0 0.168627 0 0 0 0 0.380392 0 0 0 0 0.819608 0 0 0 0.1 0"/>
<feBlend mode="normal" in2="BackgroundImageFix" result="effect1_dropShadow_1393_1445"/>
<feBlend mode="normal" in="SourceGraphic" in2="effect1_dropShadow_1393_1445" result="shape"/>
</filter>
</defs>
</svg>
