<svg width="503" height="518" viewBox="0 0 503 518" fill="none" xmlns="http://www.w3.org/2000/svg">
<g filter="url(#filter0_d_71_6144)">
<rect x="421.394" y="54.8555" width="402.081" height="402.081" rx="201.04" transform="rotate(90 421.394 54.8555)" fill="#191A2F"/>
</g>
<g filter="url(#filter1_d_71_6144)">
<rect x="351.399" y="125.881" width="261.139" height="261.139" rx="130.569" transform="rotate(90 351.399 125.881)" fill="#141529"/>
</g>
<g filter="url(#filter2_d_71_6144)">
<rect x="311.001" y="166" width="179" height="179" rx="89.5" transform="rotate(90 311.001 166)" fill="#191A2F"/>
</g>
<g filter="url(#filter3_d_71_6144)">
<ellipse cx="219.219" cy="257.299" rx="62.2121" ry="62.2485" fill="#141529"/>
</g>
<path d="M207.478 276.649L196.248 283.147L185.009 276.665L184.999 263.685L196.229 257.187L207.468 263.669L207.478 276.649Z" fill="#3F3F3F"/>
<path d="M254.312 276.65L234.619 288.046L214.91 276.68L214.894 253.918L234.586 242.522L254.295 253.889L254.312 276.65Z" fill="#95B0E8"/>
<path d="M203.835 287.516L211.218 283.249L227.058 292.388L219.684 296.659L203.835 287.516Z" fill="#1B63EF"/>
<path d="M185.015 254.972L194.13 249.728C194.13 249.728 196.155 248.421 198.181 249.603C200.367 250.83 207.358 254.928 207.358 254.928L207.353 252.474C207.353 252.474 207.066 249.604 209.553 248.298C212.099 246.902 232.278 235.149 232.278 235.149C232.278 235.149 234.569 233.561 236.712 235.016C239.093 236.482 254.293 245.167 254.293 245.167L254.267 236.607L219.636 216.659L185.041 236.678L185.015 254.972Z" fill="#1B63EF"/>
<g clip-path="url(#clip0_71_6144)">
<path d="M31.1372 473.791L31.136 473.805L31.1348 473.791L31.1348 473.763L31.136 473.749L31.1372 473.763L31.1372 473.791Z" fill="#3F3F3F"/>
<path d="M31.1378 473.791L31.1365 473.816L31.1353 473.791L31.1353 473.741L31.1365 473.717L31.1378 473.741L31.1378 473.791Z" fill="#95B0E8"/>
<path d="M31.1367 473.76H31.1357V473.807C31.1357 473.817 31.1356 473.824 31.1356 473.826C31.1356 473.829 31.1355 473.83 31.1355 473.83C31.1354 473.83 31.1354 473.829 31.1353 473.826C31.1353 473.824 31.1353 473.821 31.1353 473.818V473.677C31.1353 473.674 31.1353 473.672 31.1353 473.669C31.1354 473.667 31.1354 473.666 31.1355 473.666H31.1371C31.1372 473.666 31.1372 473.667 31.1373 473.669C31.1373 473.672 31.1373 473.674 31.1373 473.677C31.1373 473.681 31.1373 473.683 31.1373 473.686C31.1372 473.688 31.1372 473.689 31.1371 473.689H31.1357V473.736H31.1367C31.1368 473.736 31.1368 473.737 31.1369 473.74C31.1369 473.742 31.1369 473.745 31.1369 473.748C31.1369 473.751 31.1369 473.754 31.1369 473.756C31.1368 473.758 31.1368 473.76 31.1367 473.76Z" fill="#1B63EF"/>
<path d="M31.1356 473.83C31.1355 473.83 31.1354 473.829 31.1354 473.826C31.1353 473.824 31.1353 473.821 31.1353 473.818C31.1353 473.815 31.1353 473.812 31.1354 473.81C31.1354 473.808 31.1355 473.807 31.1356 473.807H31.1359V473.689H31.1356C31.1355 473.689 31.1354 473.688 31.1354 473.686C31.1353 473.683 31.1353 473.681 31.1353 473.677C31.1353 473.674 31.1353 473.672 31.1354 473.669C31.1354 473.667 31.1355 473.666 31.1356 473.666H31.1363C31.1364 473.666 31.1365 473.667 31.1365 473.669C31.1366 473.672 31.1366 473.674 31.1366 473.677V473.807H31.137C31.1371 473.807 31.1372 473.808 31.1372 473.81C31.1373 473.812 31.1373 473.815 31.1373 473.818C31.1373 473.821 31.1373 473.824 31.1372 473.826C31.1372 473.829 31.1371 473.83 31.137 473.83H31.1356Z" fill="#1B63EF"/>
<path d="M31.1369 473.807V473.724C31.1369 473.721 31.1369 473.719 31.137 473.716C31.137 473.714 31.1371 473.713 31.1371 473.713C31.1372 473.713 31.1372 473.714 31.1373 473.716C31.1373 473.719 31.1373 473.721 31.1373 473.724V473.818C31.1373 473.821 31.1373 473.824 31.1373 473.826C31.1372 473.829 31.1372 473.83 31.1371 473.83H31.1359C31.1357 473.83 31.1356 473.826 31.1354 473.819C31.1353 473.812 31.1353 473.804 31.1353 473.795V473.724C31.1353 473.721 31.1353 473.719 31.1353 473.716C31.1354 473.714 31.1354 473.713 31.1355 473.713C31.1355 473.713 31.1356 473.714 31.1356 473.716C31.1356 473.719 31.1357 473.721 31.1357 473.724V473.795C31.1357 473.798 31.1357 473.801 31.1357 473.803C31.1358 473.805 31.1358 473.807 31.1359 473.807H31.1369Z" fill="#1B63EF"/>
<path d="M31.1368 473.787L31.1361 473.826C31.1361 473.829 31.136 473.83 31.136 473.83C31.1359 473.83 31.1358 473.829 31.1358 473.826C31.1358 473.824 31.1357 473.821 31.1357 473.818C31.1357 473.815 31.1358 473.812 31.1358 473.81L31.1365 473.771L31.1358 473.733C31.1358 473.73 31.1357 473.728 31.1357 473.724C31.1357 473.721 31.1358 473.719 31.1358 473.716C31.1358 473.714 31.1359 473.713 31.136 473.713C31.136 473.713 31.1361 473.714 31.1361 473.716L31.1368 473.754L31.1375 473.716C31.1375 473.714 31.1376 473.713 31.1376 473.713C31.1377 473.713 31.1377 473.714 31.1378 473.716C31.1378 473.719 31.1378 473.721 31.1378 473.724C31.1378 473.728 31.1378 473.73 31.1378 473.733L31.1371 473.771L31.1378 473.81C31.1378 473.812 31.1378 473.815 31.1378 473.818C31.1378 473.821 31.1378 473.824 31.1378 473.826C31.1377 473.829 31.1377 473.83 31.1376 473.83C31.1376 473.83 31.1375 473.829 31.1375 473.826L31.1368 473.787Z" fill="#1B63EF"/>
<path d="M31.1353 473.815L31.136 473.805L31.1377 473.825L31.137 473.835L31.1353 473.815Z" fill="#1B63EF"/>
<path d="M31.1353 473.744L31.1356 473.732C31.1356 473.732 31.1357 473.729 31.1358 473.732C31.1358 473.735 31.1361 473.744 31.1361 473.744L31.1361 473.738C31.1361 473.738 31.1361 473.732 31.1362 473.729C31.1363 473.726 31.1371 473.701 31.1371 473.701C31.1371 473.701 31.1372 473.697 31.1373 473.7C31.1373 473.703 31.1379 473.722 31.1379 473.722L31.1379 473.704L31.1366 473.66L31.1353 473.704L31.1353 473.744Z" fill="#1B63EF"/>
</g>
<g filter="url(#filter4_d_71_6144)">
<rect x="115.773" y="89.1714" width="106.774" height="106.774" rx="53.387" transform="rotate(90 115.773 89.1714)" fill="#0A0B1E"/>
</g>
<path d="M44.1984 130.731H42.0078L41.9934 124.678L39.0244 129.665H37.9723L35.0178 124.808V130.731H32.8271V120.643H34.7584L38.5344 126.912L42.2528 120.643H44.1696L44.1984 130.731ZM50.123 130.847C47.6585 130.847 45.857 129.189 45.857 126.855C45.857 124.52 47.6585 122.862 50.123 122.862C52.5875 122.862 54.3747 124.52 54.3747 126.855C54.3747 129.189 52.5875 130.847 50.123 130.847ZM50.123 129.002C51.2472 129.002 52.0975 128.195 52.0975 126.855C52.0975 125.514 51.2472 124.707 50.123 124.707C48.9989 124.707 48.1341 125.514 48.1341 126.855C48.1341 128.195 48.9989 129.002 50.123 129.002ZM61.5271 120.037H63.7755V130.731H61.628V129.838C61.0659 130.515 60.2444 130.847 59.2067 130.847C57.0161 130.847 55.3298 129.29 55.3298 126.855C55.3298 124.419 57.0161 122.862 59.2067 122.862C60.158 122.862 60.9651 123.165 61.5271 123.799V120.037ZM59.5959 129.002C60.7056 129.002 61.5704 128.195 61.5704 126.855C61.5704 125.514 60.7056 124.707 59.5959 124.707C58.4717 124.707 57.607 125.514 57.607 126.855C57.607 128.195 58.4717 129.002 59.5959 129.002ZM73.4516 126.883C73.4516 127.056 73.4228 127.301 73.4084 127.489H67.5426C67.7588 128.454 68.5803 129.045 69.7621 129.045C70.5836 129.045 71.1745 128.8 71.7077 128.296L72.904 129.593C72.1834 130.414 71.1024 130.847 69.7044 130.847C67.0237 130.847 65.2799 129.161 65.2799 126.855C65.2799 124.534 67.0526 122.862 69.4162 122.862C71.6933 122.862 73.4516 124.39 73.4516 126.883ZM69.4306 124.563C68.4073 124.563 67.6723 125.183 67.5138 126.177H71.333C71.1745 125.197 70.4395 124.563 69.4306 124.563ZM77.0959 124.001C77.6436 123.251 78.566 122.862 79.7622 122.862V124.938C79.5749 124.923 79.4307 124.909 79.2578 124.909C78.0183 124.909 77.1968 125.586 77.1968 127.071V130.731H74.9485V122.978H77.0959V124.001ZM85.8119 122.862C87.6423 122.862 89.0259 123.929 89.0259 126.292V130.731H86.7775V126.638C86.7775 125.384 86.201 124.808 85.2066 124.808C84.1257 124.808 83.3474 125.471 83.3474 126.898V130.731H81.0991V122.978H83.2465V123.886C83.8518 123.223 84.7598 122.862 85.8119 122.862ZM44.7051 148.731H42.5145L42.5 142.678L39.5311 147.665H38.479L35.5245 142.808V148.731H33.3338V138.643H35.2651L39.0411 144.912L42.7595 138.643H44.6763L44.7051 148.731ZM49.4191 146.858H54.9102V148.731H47.0987V138.643H54.7228V140.516H49.4191V142.707H54.1031V144.523H49.4191V146.858ZM64.0063 138.643H66.3267L61.9597 148.731H59.6538L55.3012 138.643H57.8234L60.8932 145.849L64.0063 138.643ZM74.1157 138.643H76.4217V148.731H74.5049L69.475 142.606V148.731H67.169V138.643H69.1002L74.1157 144.768V138.643ZM78.8086 148.731V138.643H83.3918C86.6922 138.643 88.9549 140.632 88.9549 143.687C88.9549 146.743 86.6922 148.731 83.3918 148.731H78.8086ZM81.1434 146.815H83.2765C85.2798 146.815 86.5913 145.618 86.5913 143.687C86.5913 141.756 85.2798 140.56 83.2765 140.56H81.1434V146.815ZM44.1363 166.904C42.5365 166.904 40.9223 166.429 40.0288 165.737L40.8215 163.979C41.6718 164.598 42.9401 165.031 44.1507 165.031C45.5343 165.031 46.0964 164.57 46.0964 163.95C46.0964 162.062 40.2306 163.359 40.2306 159.612C40.2306 157.897 41.6141 156.47 44.4822 156.47C45.7505 156.47 47.0476 156.773 47.9844 157.363L47.2638 159.136C46.327 158.603 45.3613 158.343 44.4678 158.343C43.0842 158.343 42.5509 158.862 42.5509 159.496C42.5509 161.356 48.4168 160.073 48.4168 163.777C48.4168 165.463 47.0188 166.904 44.1363 166.904ZM54.2494 164.771L54.8547 166.357C54.3935 166.688 53.7161 166.847 53.0243 166.847C51.1939 166.847 50.1274 165.91 50.1274 164.065V160.88H48.9312V159.151H50.1274V157.263H52.3758V159.151H54.307V160.88H52.3758V164.036C52.3758 164.699 52.7361 165.06 53.3414 165.06C53.6729 165.06 54.0043 164.959 54.2494 164.771ZM59.2442 158.862C61.6079 158.862 62.977 159.958 62.977 162.307V166.731H60.8728V165.766C60.4549 166.472 59.6478 166.847 58.5092 166.847C56.6933 166.847 55.6123 165.838 55.6123 164.498C55.6123 163.128 56.578 162.177 58.9416 162.177H60.7287C60.7287 161.212 60.1522 160.649 58.9416 160.649C58.1201 160.649 57.2698 160.923 56.7077 161.37L55.9006 159.799C56.7509 159.194 58.0048 158.862 59.2442 158.862ZM59.0713 165.333C59.8207 165.333 60.4693 164.988 60.7287 164.281V163.489H59.1866C58.1345 163.489 57.803 163.878 57.803 164.397C57.803 164.959 58.2786 165.333 59.0713 165.333ZM68.8435 166.847C66.3214 166.847 64.5198 165.189 64.5198 162.855C64.5198 160.52 66.3214 158.862 68.8435 158.862C70.4721 158.862 71.7548 159.569 72.3169 160.837L70.573 161.774C70.1551 161.039 69.5353 160.707 68.8291 160.707C67.6905 160.707 66.797 161.5 66.797 162.855C66.797 164.209 67.6905 165.002 68.8291 165.002C69.5353 165.002 70.1551 164.685 70.573 163.935L72.3169 164.887C71.7548 166.126 70.4721 166.847 68.8435 166.847ZM79.3345 166.731L76.8844 163.69L75.8034 164.757V166.731H73.5551V156.037H75.8034V162.091L79.0895 158.978H81.7701L78.5418 162.264L82.0584 166.731H79.3345Z" fill="white"/>
<ellipse cx="62.3332" cy="94.3416" rx="14.3332" ry="14.3416" fill="#1B63EF"/>
<path d="M63.9703 89.6255V99.7141H61.6355V91.4991H59.6178V89.6255H63.9703Z" fill="white"/>
<g filter="url(#filter5_d_71_6144)">
<rect x="354.774" y="9" width="106.774" height="106.774" rx="53.387" transform="rotate(90 354.774 9)" fill="#0A0B1E"/>
</g>
<path d="M262.372 59.9039C261.017 59.9039 259.821 59.3851 259.086 58.4338L260.383 56.8773C260.93 57.6123 261.536 57.9871 262.256 57.9871C263.193 57.9871 263.683 57.425 263.683 56.3152V51.5159H260.138V49.6423H266.003V56.1855C266.003 58.6789 264.75 59.9039 262.372 59.9039ZM271.279 51.8618C273.642 51.8618 275.011 52.9572 275.011 55.3064V59.731H272.907V58.7653C272.489 59.4715 271.682 59.8463 270.544 59.8463C268.728 59.8463 267.647 58.8374 267.647 57.497C267.647 56.1279 268.612 55.1767 270.976 55.1767H272.763C272.763 54.211 272.187 53.649 270.976 53.649C270.154 53.649 269.304 53.9228 268.742 54.3696L267.935 52.7986C268.785 52.1933 270.039 51.8618 271.279 51.8618ZM271.106 58.333C271.855 58.333 272.504 57.9871 272.763 57.2809V56.4882H271.221C270.169 56.4882 269.837 56.8773 269.837 57.3962C269.837 57.9582 270.313 58.333 271.106 58.333ZM282.44 51.9771H284.602L281.33 59.731H279.01L275.753 51.9771H278.073L280.22 57.252L282.44 51.9771ZM288.393 51.8618C290.757 51.8618 292.126 52.9572 292.126 55.3064V59.731H290.022V58.7653C289.604 59.4715 288.797 59.8463 287.658 59.8463C285.842 59.8463 284.761 58.8374 284.761 57.497C284.761 56.1279 285.727 55.1767 288.091 55.1767H289.878C289.878 54.211 289.301 53.649 288.091 53.649C287.269 53.649 286.419 53.9228 285.857 54.3696L285.05 52.7986C285.9 52.1933 287.154 51.8618 288.393 51.8618ZM288.22 58.333C288.97 58.333 289.618 57.9871 289.878 57.2809V56.4882H288.336C287.284 56.4882 286.952 56.8773 286.952 57.3962C286.952 57.9582 287.428 58.333 288.22 58.333ZM297.634 59.9039C296.035 59.9039 294.42 59.4283 293.527 58.7365L294.319 56.9782C295.17 57.5979 296.438 58.0303 297.649 58.0303C299.032 58.0303 299.594 57.5691 299.594 56.9494C299.594 55.0614 293.729 56.3585 293.729 52.6113C293.729 50.8962 295.112 49.4694 297.98 49.4694C299.248 49.4694 300.546 49.772 301.482 50.3629L300.762 52.1357C299.825 51.6024 298.859 51.343 297.966 51.343C296.582 51.343 296.049 51.8618 296.049 52.496C296.049 54.3552 301.915 53.0725 301.915 56.7764C301.915 58.4627 300.517 59.9039 297.634 59.9039ZM307.099 59.8463C304.577 59.8463 302.775 58.1888 302.775 55.854C302.775 53.5192 304.577 51.8618 307.099 51.8618C308.727 51.8618 310.01 52.568 310.572 53.8363L308.828 54.7731C308.41 54.0381 307.791 53.7066 307.084 53.7066C305.946 53.7066 305.052 54.4993 305.052 55.854C305.052 57.2088 305.946 58.0015 307.084 58.0015C307.791 58.0015 308.41 57.6844 308.828 56.935L310.572 57.8862C310.01 59.1256 308.727 59.8463 307.099 59.8463ZM314.014 53.0004C314.562 52.251 315.484 51.8618 316.68 51.8618V53.9372C316.493 53.9228 316.349 53.9084 316.176 53.9084C314.937 53.9084 314.115 54.5858 314.115 56.0702V59.731H311.867V51.9771H314.014V53.0004ZM319.141 50.8962C318.305 50.8962 317.743 50.3485 317.743 49.6423C317.743 48.9361 318.305 48.3885 319.141 48.3885C319.977 48.3885 320.539 48.9073 320.539 49.5991C320.539 50.3485 319.977 50.8962 319.141 50.8962ZM318.017 59.731V51.9771H320.266V59.731H318.017ZM326.935 51.8618C329.112 51.8618 330.798 53.4184 330.798 55.854C330.798 58.2897 329.112 59.8463 326.935 59.8463C325.97 59.8463 325.177 59.5436 324.601 58.9095V62.5269H322.352V51.9771H324.5V52.8707C325.062 52.1933 325.898 51.8618 326.935 51.8618ZM326.546 58.0015C327.67 58.0015 328.521 57.1944 328.521 55.854C328.521 54.5137 327.67 53.7066 326.546 53.7066C325.422 53.7066 324.572 54.5137 324.572 55.854C324.572 57.1944 325.422 58.0015 326.546 58.0015ZM336.699 57.7709L337.304 59.3562C336.843 59.6877 336.165 59.8463 335.474 59.8463C333.643 59.8463 332.577 58.9095 332.577 57.0647V53.8796H331.381V52.1501H332.577V50.2621H334.825V52.1501H336.756V53.8796H334.825V57.0359C334.825 57.6988 335.185 58.0591 335.791 58.0591C336.122 58.0591 336.454 57.9582 336.699 57.7709ZM278.494 67.6423H280.8V77.731H278.883L273.853 71.6057V77.731H271.547V67.6423H273.478L278.494 73.7676V67.6423ZM286.717 77.8463C284.253 77.8463 282.451 76.1888 282.451 73.854C282.451 71.5192 284.253 69.8618 286.717 69.8618C289.182 69.8618 290.969 71.5192 290.969 73.854C290.969 76.1888 289.182 77.8463 286.717 77.8463ZM286.717 76.0015C287.842 76.0015 288.692 75.1944 288.692 73.854C288.692 72.5137 287.842 71.7066 286.717 71.7066C285.593 71.7066 284.729 72.5137 284.729 73.854C284.729 75.1944 285.593 76.0015 286.717 76.0015ZM298.122 67.037H300.37V77.731H298.222V76.8374C297.66 77.5148 296.839 77.8463 295.801 77.8463C293.611 77.8463 291.924 76.2897 291.924 73.854C291.924 71.4184 293.611 69.8618 295.801 69.8618C296.752 69.8618 297.56 70.1645 298.122 70.7986V67.037ZM296.19 76.0015C297.3 76.0015 298.165 75.1944 298.165 73.854C298.165 72.5137 297.3 71.7066 296.19 71.7066C295.066 71.7066 294.201 72.5137 294.201 73.854C294.201 75.1944 295.066 76.0015 296.19 76.0015ZM310.046 73.8829C310.046 74.0558 310.017 74.3008 310.003 74.4882H304.137C304.353 75.4538 305.175 76.0447 306.357 76.0447C307.178 76.0447 307.769 75.7997 308.302 75.2953L309.498 76.5924C308.778 77.4139 307.697 77.8463 306.299 77.8463C303.618 77.8463 301.874 76.16 301.874 73.854C301.874 71.5337 303.647 69.8618 306.011 69.8618C308.288 69.8618 310.046 71.3895 310.046 73.8829ZM306.025 71.5625C305.002 71.5625 304.267 72.1822 304.108 73.1767H307.927C307.769 72.1966 307.034 71.5625 306.025 71.5625ZM312.393 77.8463C311.615 77.8463 310.995 77.2554 310.995 76.4338C310.995 75.5979 311.615 75.0503 312.393 75.0503C313.172 75.0503 313.791 75.5979 313.791 76.4338C313.791 77.2554 313.172 77.8463 312.393 77.8463ZM316.681 68.8962C315.845 68.8962 315.283 68.3485 315.283 67.6423C315.283 66.9361 315.845 66.3885 316.681 66.3885C317.517 66.3885 318.079 66.9073 318.079 67.5991C318.079 68.3485 317.517 68.8962 316.681 68.8962ZM314.879 80.6422C314.187 80.6422 313.51 80.5125 313.078 80.2099L313.683 78.5813C313.928 78.7542 314.259 78.8551 314.634 78.8551C315.196 78.8551 315.557 78.4948 315.557 77.731V69.9771H317.805V77.7165C317.805 79.5037 316.753 80.6422 314.879 80.6422ZM322.484 77.8463C321.172 77.8463 319.846 77.4859 319.126 77.0103L319.875 75.3962C320.567 75.8429 321.619 76.1456 322.57 76.1456C323.608 76.1456 323.997 75.8718 323.997 75.4394C323.997 74.1711 319.313 75.4682 319.313 72.3696C319.313 70.8995 320.639 69.8618 322.902 69.8618C323.968 69.8618 325.15 70.1068 325.885 70.5392L325.136 72.139C324.372 71.7066 323.608 71.5625 322.902 71.5625C321.893 71.5625 321.46 71.8796 321.46 72.2831C321.46 73.609 326.144 72.3263 326.144 75.3817C326.144 76.823 324.804 77.8463 322.484 77.8463Z" fill="white"/>
<ellipse cx="301.333" cy="14.3416" rx="14.3332" ry="14.3416" fill="#1B63EF"/>
<path d="M305.176 17.8085V19.7109H297.552V18.1976L301.444 14.5225C301.857 14.1286 302.135 13.7923 302.279 13.5136C302.424 13.2254 302.496 12.9419 302.496 12.6633C302.496 12.2598 302.356 11.9523 302.078 11.7409C301.809 11.5199 301.41 11.4094 300.882 11.4094C300.44 11.4094 300.041 11.4959 299.685 11.6689C299.33 11.8322 299.032 12.082 298.792 12.4183L297.091 11.323C297.485 10.7369 298.028 10.2805 298.72 9.95379C299.411 9.6175 300.204 9.44936 301.098 9.44936C301.847 9.44936 302.5 9.57427 303.058 9.82408C303.625 10.0643 304.062 10.4102 304.369 10.8618C304.686 11.3037 304.845 11.8274 304.845 12.4327C304.845 12.9804 304.73 13.4944 304.499 13.9748C304.268 14.4552 303.822 15.0029 303.159 15.6178L300.838 17.8085H305.176Z" fill="white"/>
<g filter="url(#filter6_d_71_6144)">
<rect x="351.774" y="384.994" width="106.774" height="106.774" rx="53.387" transform="rotate(90 351.774 384.994)" fill="#0A0B1E"/>
</g>
<path d="M272.107 435.554H269.916L269.902 429.501L266.933 434.487H265.881L262.926 429.63V435.554H260.736V425.465H262.667L266.443 431.734L270.161 425.465H272.078L272.107 435.554ZM278.031 435.669C275.567 435.669 273.765 434.012 273.765 431.677C273.765 429.342 275.567 427.685 278.031 427.685C280.496 427.685 282.283 429.342 282.283 431.677C282.283 434.012 280.496 435.669 278.031 435.669ZM278.031 433.824C279.156 433.824 280.006 433.017 280.006 431.677C280.006 430.336 279.156 429.529 278.031 429.529C276.907 429.529 276.043 430.336 276.043 431.677C276.043 433.017 276.907 433.824 278.031 433.824ZM288.499 427.685C290.329 427.685 291.713 428.751 291.713 431.115V435.554H289.464V431.461C289.464 430.207 288.888 429.63 287.893 429.63C286.812 429.63 286.034 430.293 286.034 431.72V435.554H283.786V427.8H285.933V428.708C286.539 428.045 287.447 427.685 288.499 427.685ZM299.701 427.8H301.834V434.257C301.834 437.139 300.277 438.465 297.481 438.465C296.011 438.465 294.585 438.105 293.677 437.398L294.57 435.784C295.233 436.318 296.314 436.663 297.309 436.663C298.894 436.663 299.586 435.943 299.586 434.545V434.213C298.995 434.862 298.144 435.179 297.136 435.179C294.988 435.179 293.259 433.695 293.259 431.432C293.259 429.169 294.988 427.685 297.136 427.685C298.216 427.685 299.11 428.045 299.701 428.794V427.8ZM297.582 433.334C298.764 433.334 299.614 432.57 299.614 431.432C299.614 430.293 298.764 429.529 297.582 429.529C296.401 429.529 295.536 430.293 295.536 431.432C295.536 432.57 296.401 433.334 297.582 433.334ZM307.616 435.669C305.152 435.669 303.35 434.012 303.35 431.677C303.35 429.342 305.152 427.685 307.616 427.685C310.081 427.685 311.868 429.342 311.868 431.677C311.868 434.012 310.081 435.669 307.616 435.669ZM307.616 433.824C308.74 433.824 309.591 433.017 309.591 431.677C309.591 430.336 308.74 429.529 307.616 429.529C306.492 429.529 305.627 430.336 305.627 431.677C305.627 433.017 306.492 433.824 307.616 433.824ZM313.529 435.554V425.465H318.112C321.413 425.465 323.675 427.454 323.675 430.509C323.675 433.565 321.413 435.554 318.112 435.554H313.529ZM315.864 433.637H317.997C320 433.637 321.312 432.441 321.312 430.509C321.312 428.578 320 427.382 317.997 427.382H315.864V433.637ZM332.844 430.308C333.968 430.668 334.689 431.533 334.689 432.801C334.689 434.545 333.305 435.554 330.653 435.554H325.436V425.465H330.365C332.887 425.465 334.184 426.517 334.184 428.088C334.184 429.097 333.666 429.875 332.844 430.308ZM330.077 427.223H327.757V429.601H330.077C331.216 429.601 331.835 429.198 331.835 428.405C331.835 427.613 331.216 427.223 330.077 427.223ZM330.48 433.795C331.691 433.795 332.34 433.421 332.34 432.556C332.34 431.706 331.691 431.302 330.48 431.302H327.757V433.795H330.48ZM272.626 448.308C273.75 448.668 274.471 449.533 274.471 450.801C274.471 452.545 273.087 453.554 270.436 453.554H265.218V443.465H270.147C272.669 443.465 273.967 444.517 273.967 446.088C273.967 447.097 273.448 447.875 272.626 448.308ZM269.859 445.223H267.539V447.601H269.859C270.998 447.601 271.617 447.198 271.617 446.405C271.617 445.613 270.998 445.223 269.859 445.223ZM270.263 451.795C271.473 451.795 272.122 451.421 272.122 450.556C272.122 449.706 271.473 449.302 270.263 449.302H267.539V451.795H270.263ZM279.208 445.685C281.571 445.685 282.94 446.78 282.94 449.129V453.554H280.836V452.588C280.418 453.294 279.611 453.669 278.473 453.669C276.657 453.669 275.576 452.66 275.576 451.32C275.576 449.951 276.541 448.999 278.905 448.999H280.692C280.692 448.034 280.116 447.472 278.905 447.472C278.083 447.472 277.233 447.746 276.671 448.192L275.864 446.621C276.714 446.016 277.968 445.685 279.208 445.685ZM279.035 452.156C279.784 452.156 280.433 451.81 280.692 451.104V450.311H279.15C278.098 450.311 277.766 450.7 277.766 451.219C277.766 451.781 278.242 452.156 279.035 452.156ZM288.807 453.669C286.285 453.669 284.483 452.012 284.483 449.677C284.483 447.342 286.285 445.685 288.807 445.685C290.435 445.685 291.718 446.391 292.28 447.659L290.536 448.596C290.118 447.861 289.499 447.529 288.792 447.529C287.654 447.529 286.76 448.322 286.76 449.677C286.76 451.032 287.654 451.824 288.792 451.824C289.499 451.824 290.118 451.507 290.536 450.758L292.28 451.709C291.718 452.948 290.435 453.669 288.807 453.669ZM299.298 453.554L296.848 450.513L295.767 451.579V453.554H293.518V442.86H295.767V448.913L299.053 445.8H301.733L298.505 449.086L302.022 453.554H299.298ZM310.29 449.706C310.29 449.879 310.262 450.124 310.247 450.311H304.381C304.597 451.277 305.419 451.867 306.601 451.867C307.422 451.867 308.013 451.622 308.546 451.118L309.743 452.415C309.022 453.237 307.941 453.669 306.543 453.669C303.862 453.669 302.119 451.983 302.119 449.677C302.119 447.356 303.891 445.685 306.255 445.685C308.532 445.685 310.29 447.212 310.29 449.706ZM306.269 447.385C305.246 447.385 304.511 448.005 304.352 448.999H308.172C308.013 448.019 307.278 447.385 306.269 447.385ZM316.5 445.685C318.33 445.685 319.714 446.751 319.714 449.115V453.554H317.466V449.461C317.466 448.207 316.889 447.63 315.895 447.63C314.814 447.63 314.036 448.293 314.036 449.72V453.554H311.787V445.8H313.935V446.708C314.54 446.045 315.448 445.685 316.5 445.685ZM327.486 442.86H329.734V453.554H327.587V452.66C327.025 453.338 326.203 453.669 325.166 453.669C322.975 453.669 321.289 452.112 321.289 449.677C321.289 447.241 322.975 445.685 325.166 445.685C326.117 445.685 326.924 445.987 327.486 446.621V442.86ZM325.555 451.824C326.665 451.824 327.529 451.017 327.529 449.677C327.529 448.336 326.665 447.529 325.555 447.529C324.431 447.529 323.566 448.336 323.566 449.677C323.566 451.017 324.431 451.824 325.555 451.824Z" fill="white"/>
<ellipse cx="298.334" cy="390.342" rx="14.3332" ry="14.3416" fill="#1B63EF"/>
<path d="M303.16 393.596H301.517V395.715H299.24V393.596H293.807V392.025L298.563 385.626H301.013L296.603 391.694H299.312V389.806H301.517V391.694H303.16V393.596Z" fill="white"/>
<g filter="url(#filter7_d_71_6144)">
<rect x="114.774" y="328.17" width="106.774" height="106.774" rx="53.387" transform="rotate(90 114.774 328.17)" fill="#0A0B1E"/>
</g>
<path d="M47.2913 377.643H49.6116L45.2447 387.731H42.9387L38.5862 377.643H41.1084L44.1782 384.849L47.2913 377.643ZM55.5912 379.978H57.8395V387.731H55.7065V386.809C55.1156 387.486 54.2508 387.847 53.2996 387.847C51.354 387.847 49.9848 386.751 49.9848 384.359V379.978H52.2331V384.027C52.2331 385.325 52.8096 385.901 53.804 385.901C54.8417 385.901 55.5912 385.238 55.5912 383.811V379.978ZM67.5177 383.883C67.5177 384.056 67.4889 384.301 67.4745 384.489H61.6087C61.8248 385.454 62.6463 386.045 63.8282 386.045C64.6497 386.045 65.2406 385.8 65.7738 385.296L66.97 386.593C66.2494 387.414 65.1685 387.847 63.7705 387.847C61.0898 387.847 59.3459 386.161 59.3459 383.855C59.3459 381.534 61.1186 379.862 63.4823 379.862C65.7594 379.862 67.5177 381.39 67.5177 383.883ZM63.4967 381.563C62.4734 381.563 61.7384 382.183 61.5798 383.177H65.3991C65.2406 382.197 64.5055 381.563 63.4967 381.563ZM69.8649 387.847C69.0866 387.847 68.4669 387.256 68.4669 386.434C68.4669 385.598 69.0866 385.051 69.8649 385.051C70.6432 385.051 71.2629 385.598 71.2629 386.434C71.2629 387.256 70.6432 387.847 69.8649 387.847ZM74.1523 378.897C73.3164 378.897 72.7543 378.349 72.7543 377.643C72.7543 376.937 73.3164 376.389 74.1523 376.389C74.9883 376.389 75.5503 376.908 75.5503 377.6C75.5503 378.349 74.9883 378.897 74.1523 378.897ZM72.3508 390.643C71.659 390.643 70.9816 390.513 70.5493 390.21L71.1546 388.582C71.3996 388.755 71.7311 388.856 72.1058 388.856C72.6679 388.856 73.0282 388.495 73.0282 387.731V379.978H75.2765V387.717C75.2765 389.504 74.2244 390.643 72.3508 390.643ZM79.9553 387.847C78.6438 387.847 77.3179 387.486 76.5973 387.011L77.3467 385.397C78.0385 385.843 79.0906 386.146 80.0418 386.146C81.0795 386.146 81.4686 385.872 81.4686 385.44C81.4686 384.172 76.7846 385.469 76.7846 382.37C76.7846 380.9 78.1106 379.862 80.3733 379.862C81.4398 379.862 82.6216 380.107 83.3566 380.54L82.6072 382.139C81.8433 381.707 81.0795 381.563 80.3733 381.563C79.3644 381.563 78.9321 381.88 78.9321 382.284C78.9321 383.61 83.6161 382.327 83.6161 385.382C83.6161 386.823 82.2757 387.847 79.9553 387.847Z" fill="white"/>
<ellipse cx="61.3337" cy="333.342" rx="14.3332" ry="14.3416" fill="#1B63EF"/>
<path d="M61.063 332.415C62.485 332.415 63.5323 332.699 64.2049 333.266C64.8871 333.832 65.2281 334.591 65.2281 335.543C65.2281 336.158 65.0744 336.72 64.767 337.229C64.4595 337.729 63.9887 338.132 63.3545 338.44C62.73 338.737 61.9566 338.886 61.0342 338.886C60.3232 338.886 59.6218 338.795 58.93 338.612C58.2478 338.42 57.6665 338.151 57.1861 337.805L58.1085 336.018C58.4928 336.307 58.9348 336.532 59.4344 336.696C59.934 336.849 60.4481 336.926 60.9765 336.926C61.5626 336.926 62.0238 336.811 62.3601 336.58C62.6964 336.35 62.8645 336.028 62.8645 335.615C62.8645 335.182 62.6868 334.856 62.3313 334.635C61.9854 334.414 61.3801 334.303 60.5153 334.303H57.9355L58.4544 328.625H64.6084V330.498H60.4L60.2415 332.415H61.063Z" fill="white"/>
<g filter="url(#filter8_d_71_6144)">
<rect x="477.278" y="195.171" width="106.774" height="106.774" rx="53.387" transform="rotate(90 477.278 195.171)" fill="#0A0B1E"/>
</g>
<path d="M389.16 252.856H394.651V254.729H386.84V244.641H394.464V246.514H389.16V248.705H393.844V250.521H389.16V252.856ZM403.732 254.729H401.181L399.48 252.351L397.722 254.729H395.272L398.255 250.824L395.373 246.976H397.895L399.538 249.238L401.224 246.976H403.617L400.734 250.766L403.732 254.729ZM409.407 246.86C411.583 246.86 413.269 248.417 413.269 250.853C413.269 253.288 411.583 254.845 409.407 254.845C408.441 254.845 407.648 254.542 407.072 253.908V257.525H404.823V246.976H406.971V247.869C407.533 247.192 408.369 246.86 409.407 246.86ZM409.017 253C410.142 253 410.992 252.193 410.992 250.853C410.992 249.512 410.142 248.705 409.017 248.705C407.893 248.705 407.043 249.512 407.043 250.853C407.043 252.193 407.893 253 409.017 253ZM416.922 247.999C417.469 247.249 418.392 246.86 419.588 246.86V248.936C419.401 248.921 419.256 248.907 419.083 248.907C417.844 248.907 417.022 249.584 417.022 251.069V254.729H414.774V246.976H416.922V247.999ZM428.45 250.881C428.45 251.054 428.421 251.299 428.406 251.487H422.541C422.757 252.452 423.578 253.043 424.76 253.043C425.582 253.043 426.173 252.798 426.706 252.294L427.902 253.591C427.181 254.412 426.1 254.845 424.702 254.845C422.022 254.845 420.278 253.159 420.278 250.853C420.278 248.532 422.051 246.86 424.414 246.86C426.691 246.86 428.45 248.388 428.45 250.881ZM424.429 248.561C423.405 248.561 422.67 249.181 422.512 250.175H426.331C426.173 249.195 425.437 248.561 424.429 248.561ZM432.555 254.845C431.244 254.845 429.918 254.484 429.197 254.009L429.947 252.395C430.638 252.841 431.69 253.144 432.642 253.144C433.679 253.144 434.068 252.87 434.068 252.438C434.068 251.17 429.384 252.467 429.384 249.368C429.384 247.898 430.71 246.86 432.973 246.86C434.04 246.86 435.221 247.105 435.956 247.538L435.207 249.138C434.443 248.705 433.679 248.561 432.973 248.561C431.964 248.561 431.532 248.878 431.532 249.282C431.532 250.608 436.216 249.325 436.216 252.38C436.216 253.822 434.876 254.845 432.555 254.845ZM440.212 254.845C438.9 254.845 437.574 254.484 436.854 254.009L437.603 252.395C438.295 252.841 439.347 253.144 440.298 253.144C441.336 253.144 441.725 252.87 441.725 252.438C441.725 251.17 437.041 252.467 437.041 249.368C437.041 247.898 438.367 246.86 440.63 246.86C441.696 246.86 442.878 247.105 443.613 247.538L442.864 249.138C442.1 248.705 441.336 248.561 440.63 248.561C439.621 248.561 439.188 248.878 439.188 249.282C439.188 250.608 443.872 249.325 443.872 252.38C443.872 253.822 442.532 254.845 440.212 254.845ZM446.11 254.845C445.332 254.845 444.712 254.254 444.712 253.432C444.712 252.596 445.332 252.049 446.11 252.049C446.888 252.049 447.508 252.596 447.508 253.432C447.508 254.254 446.888 254.845 446.11 254.845ZM450.397 245.895C449.561 245.895 448.999 245.347 448.999 244.641C448.999 243.935 449.561 243.387 450.397 243.387C451.233 243.387 451.795 243.906 451.795 244.598C451.795 245.347 451.233 245.895 450.397 245.895ZM448.596 257.641C447.904 257.641 447.227 257.511 446.794 257.208L447.4 255.58C447.645 255.753 447.976 255.854 448.351 255.854C448.913 255.854 449.273 255.493 449.273 254.729V246.976H451.522V254.715C451.522 256.502 450.469 257.641 448.596 257.641ZM456.2 254.845C454.889 254.845 453.563 254.484 452.842 254.009L453.592 252.395C454.284 252.841 455.336 253.144 456.287 253.144C457.325 253.144 457.714 252.87 457.714 252.438C457.714 251.17 453.03 252.467 453.03 249.368C453.03 247.898 454.356 246.86 456.618 246.86C457.685 246.86 458.867 247.105 459.602 247.538L458.852 249.138C458.088 248.705 457.325 248.561 456.618 248.561C455.609 248.561 455.177 248.878 455.177 249.282C455.177 250.608 459.861 249.325 459.861 252.38C459.861 253.822 458.521 254.845 456.2 254.845Z" fill="white"/>
<ellipse cx="424.338" cy="200.342" rx="14.3332" ry="14.3416" fill="#1B63EF"/>
<path d="M425.346 199.733C426.23 199.877 426.908 200.208 427.378 200.727C427.849 201.236 428.085 201.87 428.085 202.629C428.085 203.215 427.931 203.758 427.623 204.258C427.316 204.748 426.845 205.142 426.211 205.44C425.586 205.738 424.818 205.887 423.905 205.887C423.194 205.887 422.493 205.795 421.801 205.613C421.119 205.421 420.537 205.152 420.057 204.806L420.965 203.019C421.349 203.307 421.791 203.533 422.291 203.696C422.8 203.85 423.319 203.926 423.847 203.926C424.433 203.926 424.895 203.816 425.231 203.595C425.567 203.364 425.735 203.043 425.735 202.629C425.735 201.803 425.106 201.39 423.847 201.39H422.781V199.848L424.856 197.499H420.561V195.625H427.623V197.138L425.346 199.733Z" fill="white"/>
<defs>
<filter id="filter0_d_71_6144" x="11.9659" y="47.508" width="435.145" height="435.145" filterUnits="userSpaceOnUse" color-interpolation-filters="sRGB">
<feFlood flood-opacity="0" result="BackgroundImageFix"/>
<feColorMatrix in="SourceAlpha" type="matrix" values="0 0 0 0 0 0 0 0 0 0 0 0 0 0 0 0 0 0 127 0" result="hardAlpha"/>
<feMorphology radius="1.22459" operator="dilate" in="SourceAlpha" result="effect1_dropShadow_71_6144"/>
<feOffset dx="9.18444" dy="9.18444"/>
<feGaussianBlur stdDeviation="7.6537"/>
<feComposite in2="hardAlpha" operator="out"/>
<feColorMatrix type="matrix" values="0 0 0 0 0.168627 0 0 0 0 0.380392 0 0 0 0 0.819608 0 0 0 0.1 0"/>
<feBlend mode="normal" in2="BackgroundImageFix" result="effect1_dropShadow_71_6144"/>
<feBlend mode="normal" in="SourceGraphic" in2="effect1_dropShadow_71_6144" result="shape"/>
</filter>
<filter id="filter1_d_71_6144" x="85.8482" y="121.469" width="280.995" height="280.995" filterUnits="userSpaceOnUse" color-interpolation-filters="sRGB">
<feFlood flood-opacity="0" result="BackgroundImageFix"/>
<feColorMatrix in="SourceAlpha" type="matrix" values="0 0 0 0 0 0 0 0 0 0 0 0 0 0 0 0 0 0 127 0" result="hardAlpha"/>
<feMorphology radius="0.735428" operator="dilate" in="SourceAlpha" result="effect1_dropShadow_71_6144"/>
<feOffset dx="5.51571" dy="5.51571"/>
<feGaussianBlur stdDeviation="4.59643"/>
<feComposite in2="hardAlpha" operator="out"/>
<feColorMatrix type="matrix" values="0 0 0 0 0.168627 0 0 0 0 0.380392 0 0 0 0 0.819608 0 0 0 0.1 0"/>
<feBlend mode="normal" in2="BackgroundImageFix" result="effect1_dropShadow_71_6144"/>
<feBlend mode="normal" in="SourceGraphic" in2="effect1_dropShadow_71_6144" result="shape"/>
</filter>
<filter id="filter2_d_71_6144" x="127.588" y="161.587" width="198.857" height="198.857" filterUnits="userSpaceOnUse" color-interpolation-filters="sRGB">
<feFlood flood-opacity="0" result="BackgroundImageFix"/>
<feColorMatrix in="SourceAlpha" type="matrix" values="0 0 0 0 0 0 0 0 0 0 0 0 0 0 0 0 0 0 127 0" result="hardAlpha"/>
<feMorphology radius="0.735428" operator="dilate" in="SourceAlpha" result="effect1_dropShadow_71_6144"/>
<feOffset dx="5.51571" dy="5.51571"/>
<feGaussianBlur stdDeviation="4.59643"/>
<feComposite in2="hardAlpha" operator="out"/>
<feColorMatrix type="matrix" values="0 0 0 0 0.168627 0 0 0 0 0.380392 0 0 0 0 0.819608 0 0 0 0.1 0"/>
<feBlend mode="normal" in2="BackgroundImageFix" result="effect1_dropShadow_71_6144"/>
<feBlend mode="normal" in="SourceGraphic" in2="effect1_dropShadow_71_6144" result="shape"/>
</filter>
<filter id="filter3_d_71_6144" x="149.659" y="187.703" width="157.488" height="157.561" filterUnits="userSpaceOnUse" color-interpolation-filters="sRGB">
<feFlood flood-opacity="0" result="BackgroundImageFix"/>
<feColorMatrix in="SourceAlpha" type="matrix" values="0 0 0 0 0 0 0 0 0 0 0 0 0 0 0 0 0 0 127 0" result="hardAlpha"/>
<feMorphology radius="1.22459" operator="dilate" in="SourceAlpha" result="effect1_dropShadow_71_6144"/>
<feOffset dx="9.18444" dy="9.18444"/>
<feGaussianBlur stdDeviation="7.6537"/>
<feComposite in2="hardAlpha" operator="out"/>
<feColorMatrix type="matrix" values="0 0 0 0 0.168627 0 0 0 0 0.380392 0 0 0 0 0.819608 0 0 0 0.1 0"/>
<feBlend mode="normal" in2="BackgroundImageFix" result="effect1_dropShadow_71_6144"/>
<feBlend mode="normal" in="SourceGraphic" in2="effect1_dropShadow_71_6144" result="shape"/>
</filter>
<filter id="filter4_d_71_6144" x="1.65196" y="81.8238" width="139.838" height="139.838" filterUnits="userSpaceOnUse" color-interpolation-filters="sRGB">
<feFlood flood-opacity="0" result="BackgroundImageFix"/>
<feColorMatrix in="SourceAlpha" type="matrix" values="0 0 0 0 0 0 0 0 0 0 0 0 0 0 0 0 0 0 127 0" result="hardAlpha"/>
<feMorphology radius="1.22459" operator="dilate" in="SourceAlpha" result="effect1_dropShadow_71_6144"/>
<feOffset dx="9.18444" dy="9.18444"/>
<feGaussianBlur stdDeviation="7.6537"/>
<feComposite in2="hardAlpha" operator="out"/>
<feColorMatrix type="matrix" values="0 0 0 0 0.168627 0 0 0 0 0.380392 0 0 0 0 0.819608 0 0 0 0.1 0"/>
<feBlend mode="normal" in2="BackgroundImageFix" result="effect1_dropShadow_71_6144"/>
<feBlend mode="normal" in="SourceGraphic" in2="effect1_dropShadow_71_6144" result="shape"/>
</filter>
<filter id="filter5_d_71_6144" x="240.652" y="1.65245" width="139.838" height="139.838" filterUnits="userSpaceOnUse" color-interpolation-filters="sRGB">
<feFlood flood-opacity="0" result="BackgroundImageFix"/>
<feColorMatrix in="SourceAlpha" type="matrix" values="0 0 0 0 0 0 0 0 0 0 0 0 0 0 0 0 0 0 127 0" result="hardAlpha"/>
<feMorphology radius="1.22459" operator="dilate" in="SourceAlpha" result="effect1_dropShadow_71_6144"/>
<feOffset dx="9.18444" dy="9.18444"/>
<feGaussianBlur stdDeviation="7.6537"/>
<feComposite in2="hardAlpha" operator="out"/>
<feColorMatrix type="matrix" values="0 0 0 0 0.168627 0 0 0 0 0.380392 0 0 0 0 0.819608 0 0 0 0.1 0"/>
<feBlend mode="normal" in2="BackgroundImageFix" result="effect1_dropShadow_71_6144"/>
<feBlend mode="normal" in="SourceGraphic" in2="effect1_dropShadow_71_6144" result="shape"/>
</filter>
<filter id="filter6_d_71_6144" x="237.653" y="377.646" width="139.838" height="139.838" filterUnits="userSpaceOnUse" color-interpolation-filters="sRGB">
<feFlood flood-opacity="0" result="BackgroundImageFix"/>
<feColorMatrix in="SourceAlpha" type="matrix" values="0 0 0 0 0 0 0 0 0 0 0 0 0 0 0 0 0 0 127 0" result="hardAlpha"/>
<feMorphology radius="1.22459" operator="dilate" in="SourceAlpha" result="effect1_dropShadow_71_6144"/>
<feOffset dx="9.18444" dy="9.18444"/>
<feGaussianBlur stdDeviation="7.6537"/>
<feComposite in2="hardAlpha" operator="out"/>
<feColorMatrix type="matrix" values="0 0 0 0 0.168627 0 0 0 0 0.380392 0 0 0 0 0.819608 0 0 0 0.1 0"/>
<feBlend mode="normal" in2="BackgroundImageFix" result="effect1_dropShadow_71_6144"/>
<feBlend mode="normal" in="SourceGraphic" in2="effect1_dropShadow_71_6144" result="shape"/>
</filter>
<filter id="filter7_d_71_6144" x="0.652447" y="320.823" width="139.838" height="139.838" filterUnits="userSpaceOnUse" color-interpolation-filters="sRGB">
<feFlood flood-opacity="0" result="BackgroundImageFix"/>
<feColorMatrix in="SourceAlpha" type="matrix" values="0 0 0 0 0 0 0 0 0 0 0 0 0 0 0 0 0 0 127 0" result="hardAlpha"/>
<feMorphology radius="1.22459" operator="dilate" in="SourceAlpha" result="effect1_dropShadow_71_6144"/>
<feOffset dx="9.18444" dy="9.18444"/>
<feGaussianBlur stdDeviation="7.6537"/>
<feComposite in2="hardAlpha" operator="out"/>
<feColorMatrix type="matrix" values="0 0 0 0 0.168627 0 0 0 0 0.380392 0 0 0 0 0.819608 0 0 0 0.1 0"/>
<feBlend mode="normal" in2="BackgroundImageFix" result="effect1_dropShadow_71_6144"/>
<feBlend mode="normal" in="SourceGraphic" in2="effect1_dropShadow_71_6144" result="shape"/>
</filter>
<filter id="filter8_d_71_6144" x="363.157" y="187.823" width="139.838" height="139.838" filterUnits="userSpaceOnUse" color-interpolation-filters="sRGB">
<feFlood flood-opacity="0" result="BackgroundImageFix"/>
<feColorMatrix in="SourceAlpha" type="matrix" values="0 0 0 0 0 0 0 0 0 0 0 0 0 0 0 0 0 0 127 0" result="hardAlpha"/>
<feMorphology radius="1.22459" operator="dilate" in="SourceAlpha" result="effect1_dropShadow_71_6144"/>
<feOffset dx="9.18444" dy="9.18444"/>
<feGaussianBlur stdDeviation="7.6537"/>
<feComposite in2="hardAlpha" operator="out"/>
<feColorMatrix type="matrix" values="0 0 0 0 0.168627 0 0 0 0 0.380392 0 0 0 0 0.819608 0 0 0 0.1 0"/>
<feBlend mode="normal" in2="BackgroundImageFix" result="effect1_dropShadow_71_6144"/>
<feBlend mode="normal" in="SourceGraphic" in2="effect1_dropShadow_71_6144" result="shape"/>
</filter>
<clipPath id="clip0_71_6144">
<rect width="0.00177893" height="0.217046" fill="white" transform="translate(31.1343 473.639)"/>
</clipPath>
</defs>
</svg>
